<svg version="1.1"
     xmlns="http://www.w3.org/2000/svg"
     display="none">

    <symbol id="phone" viewBox="0 0 23 24" fill="none">
        <g clip-path="url(#clip0)">
            <path
                    d="M14.3913 15.1069L14.62 14.9673C15.2262 14.6324 15.4277 14.7725 15.7609 15.3495L17.5645 18.4342C18.1025 19.3531 18.4147 19.5802 17.5792 20.0927L17.3505 20.2323L14.3913 15.1069ZM13.863 15.4722L16.7373 20.4506C15.7311 20.8504 13.0813 21.7089 11.6063 20.539C10.7449 19.8274 10.0026 18.9827 9.40752 18.037C7.96702 15.8817 6.50744 13.2622 5.42562 11.2316C4.91486 9.8897 4.55203 9.74466 4.35825 8.07641C4.15507 6.30043 6.20448 4.36291 7.03667 3.64861L9.91092 8.62696L8.18319 9.29258C7.69141 9.48599 7.9498 10.3777 8.34175 11.0566C9.03004 12.2357 10.419 14.6546 11.0172 15.5991C11.4026 16.2667 12.0433 16.9452 12.4656 16.6184L13.863 15.4722ZM7.52989 3.23561L7.7675 3.09843C8.59042 2.66858 8.63994 3.05485 9.16014 3.96893L10.9322 7.0643C11.2475 7.63655 11.2883 7.87702 10.7267 8.22388L10.4915 8.35213L7.52989 3.23561Z" fill="currentColor"/>
        </g>
        <defs>
            <clipPath id="clip0">
                <rect x="22.6289" y="5.77982" width="18" height="18" transform="rotate(105 22.6289 5.77982)" fill="white"/>
            </clipPath>
        </defs>
    </symbol>

    <symbol id="user" viewBox="0 0 27 27" fill="none">
        <path d="M13.0276 14.1244C9.17299 14.1244 6.0376 10.9566 6.0376 7.06219C6.0376 3.16778 9.17299 0 13.0276 0C16.8822 0 20.0176 3.16778 20.0176 7.06219C20.0176 10.9566 16.8813 14.1244 13.0276 14.1244ZM13.0276 1.53156C10.0093 1.53156 7.5535 4.01269 7.5535 7.06219C7.5535 10.1117 10.0093 12.5928 13.0276 12.5928C16.0459 12.5928 18.5017 10.1117 18.5017 7.06219C18.5017 4.01269 16.0459 1.53156 13.0276 1.53156Z" fill="#182851"/>
        <path d="M0 26.5062V21.9337C0 18.4017 2.844 15.5283 6.33983 15.5283H19.7673C23.2632 15.5283 26.1072 18.4017 26.1072 21.9337V26.4611L0 26.5062ZM6.33983 17.0599C3.67943 17.0599 1.5159 19.2458 1.5159 21.9337V24.9721L24.5913 24.9321V21.9337C24.5913 19.2466 22.4277 17.0599 19.7673 17.0599H6.33983Z" fill="#182851"/>
    </symbol>

    <symbol id="compare" viewBox="0 0 34 27" fill="none">
        <g clip-path="url(#clip0)">
            <path
                    d="M26.5552 27H26.3324C21.2441 26.8093 19.3683 23.0424 19.0869 21.0755L19.0752 20.9086C19.0752 20.4676 19.2979 19.8954 19.9193 19.5139L19.9545 19.3947L24.48 6.69934H20.9041C20.1303 8.0702 18.6883 8.9404 17.0938 8.9404C15.4993 8.9404 14.069 8.05828 13.2952 6.68742H9.8131L14.0807 19.5139C14.7021 19.8954 14.9248 20.4676 14.9248 20.9086L14.9131 21.0755C14.6434 23.0424 12.8028 26.8212 7.71448 27H7.48H7.25724C2.16897 26.8093 0.293103 23.0424 0.0117241 21.0755L0 20.9086C0 20.4676 0.222759 19.8954 0.844138 19.5139L0.87931 19.3947L5.46345 6.53245C5.19379 6.42517 4.94759 6.25828 4.72483 6.03179C4.31448 5.61457 4.09172 5.0543 4.10345 4.45828C4.11517 3.24238 5.08828 2.2649 6.28414 2.2649H13.2834C14.0572 0.882119 15.4993 0 17.1055 0C18.7117 0 20.1538 0.882119 20.9276 2.25298H27.8331C29.0407 2.25298 30.0138 3.24238 30.0138 4.4702C30.0138 5.32848 29.5331 6.07947 28.8179 6.44901L33.1676 19.5139C33.789 19.8954 34.0117 20.4676 34.0117 20.9086L34 21.0755C33.7303 23.0424 31.8897 26.8212 26.8014 27H26.5552ZM21.6662 21.6119C22.1234 22.7324 23.3193 24.5086 26.4145 24.6159H26.5552H26.6959C29.7793 24.4967 30.9752 22.7324 31.409 21.6119H21.6662ZM2.59103 21.6119C3.04828 22.7324 4.24414 24.5086 7.33931 24.6159H7.48H7.62069C10.7041 24.4967 11.9 22.7324 12.3338 21.6119H2.59103ZM32.3938 20.5629L32.429 20.4795L32.3938 20.5629ZM23.6241 19.2278H29.451L26.5434 10.8477L23.6241 19.2278ZM4.54897 19.2278H10.3759L7.46828 10.8358L4.54897 19.2278ZM14.9483 4.4702L15.1593 5.12583C15.4407 5.97219 16.2145 6.54437 17.1055 6.54437C17.9966 6.54437 18.7703 5.97219 19.0517 5.12583L19.2628 4.4702L19.0517 3.81457C18.7703 2.95629 17.9848 2.38411 17.1055 2.38411C16.2262 2.38411 15.429 2.95629 15.1593 3.81457L14.9483 4.4702Z" fill="currentColor"/>
        </g>
        <defs>
            <clipPath id="clip0">
            </clipPath>
        </defs>
    </symbol>

    <symbol  viewBox="1 -27 511.99996 511" fill="currentColor">
        <path
                d="m511.996094 280.402344c-.003906-.4375-.023438-.878906-.066406-1.316406-.007813-.101563-.023438-.195313-.03125-.296876-.046876-.398437-.105469-.792968-.183594-1.191406-.015625-.085937-.035156-.171875-.054688-.261718-.078125-.355469-.171875-.710938-.273437-1.0625-.039063-.136719-.082031-.277344-.125-.414063-.113281-.347656-.238281-.695313-.378907-1.039063l-.035156-.089843c-.015625-.039063-.03125-.074219-.046875-.109375l-89.917969-219.800782c-.003906-.015624-.011718-.03125-.019531-.042968-.066406-.164063-.140625-.316406-.214843-.476563-.113282-.246093-.226563-.492187-.351563-.730469-.082031-.15625-.167969-.308593-.253906-.460937-.144531-.253906-.296875-.5-.453125-.746094-.074219-.117187-.152344-.238281-.230469-.355469-.246094-.359374-.503906-.707031-.777344-1.039062-.015625-.019531-.03125-.035156-.046875-.054688-.265625-.316406-.542968-.621093-.832031-.914062-.089844-.089844-.179687-.175781-.269531-.265625-.230469-.222656-.464844-.433594-.707032-.640625-.105468-.089844-.207031-.179688-.3125-.261719-.289062-.234375-.585937-.457031-.890624-.667969-.054688-.039062-.109376-.082031-.167969-.121093-.34375-.230469-.699219-.441407-1.058594-.644531-.148437-.082032-.296875-.15625-.445313-.230469-.238281-.121094-.480468-.238281-.722656-.347657-.164062-.074218-.328125-.148437-.496094-.214843-.285156-.117188-.578124-.21875-.871093-.320313-.148438-.046875-.292969-.101562-.441407-.144531-.371093-.113281-.75-.210937-1.132812-.292969-.152344-.03125-.308594-.058594-.464844-.085937-.304687-.058594-.609375-.105469-.921875-.144531-.144531-.015626-.289062-.035157-.433593-.046876-.453126-.042968-.90625-.070312-1.363282-.070312h-92.902344c-6.675781-25.847656-30.195312-45-58.097656-45-27.90625 0-51.425781 19.152344-58.101562 45h-92.898438c-.460937 0-.914062.027344-1.367187.070312-.148438.011719-.292969.03125-.4375.046876-.308594.039062-.617188.085937-.921875.140624-.15625.03125-.308594.054688-.464844.089844-.378906.082032-.757812.179688-1.128906.289063-.152344.046875-.296875.097656-.445313.148437-.292969.097656-.582031.203125-.867187.316406-.167969.070313-.332032.140626-.496094.214844-.246094.109375-.484375.226563-.722656.347656-.148438.078126-.300782.152344-.445313.234376-.363281.203124-.71875.414062-1.0625.644531-.054687.039062-.109375.082031-.167969.121093-.304687.210938-.601562.433594-.890624.664063-.105469.085937-.207032.175781-.308594.261719-.242188.207031-.476563.421875-.707032.644531-.089843.085937-.183593.171875-.269531.261719-.289062.296875-.566406.597656-.832031.917968-.015625.015626-.03125.035157-.046875.050782-.273437.335937-.53125.683594-.777344 1.042968-.082031.113282-.15625.234376-.234375.355469-.15625.242188-.308594.492188-.449218.742188-.089844.152343-.171876.304687-.253907.460937-.125.242188-.242187.488282-.355469.734375-.070312.15625-.148437.3125-.214843.472657-.003907.015624-.011719.03125-.019531.046874l-89.917969 219.796876c-.015625.039062-.027344.074218-.042969.109374l-.039062.09375c-.140626.339844-.261719.691407-.375 1.039063-.046876.136719-.085938.277344-.128907.414063-.101562.351562-.195312.707031-.269531 1.0625-.019531.085937-.039062.175781-.058594.261718-.074218.394532-.132812.792969-.179687 1.191406-.011719.097657-.0234378.195313-.0351565.292969-.0390625.441407-.0625.882813-.06640625 1.320313 0 .035156-.00390625.066406-.00390625.097656 0 52.382812 47.101562 95 105 95s105-42.617188 105-95c0-.035156-.003906-.066406-.003906-.097656-.003906-.4375-.027344-.878906-.066406-1.320313-.011719-.097656-.023438-.195312-.035157-.292969-.046875-.398437-.105469-.796874-.179687-1.191406-.019532-.085937-.039063-.175781-.058594-.261718-.074219-.355469-.167969-.710938-.269531-1.0625-.042969-.136719-.082031-.277344-.128907-.414063-.113281-.347656-.234374-.695313-.375-1.039063l-.039062-.09375c-.015625-.035156-.027344-.070312-.042969-.109374l-81.457031-199.117188h70.554688c5.441406 21.054688 22.050781 37.664062 43.101562 43.101562v308.898438h-55c-8.28125 0-15 6.714844-15 15s6.71875 15 15 15h140c8.285156 0 15-6.714844 15-15s-6.714844-15-15-15h-55v-308.898438c21.054688-5.441406 37.664062-22.046874 43.101562-43.101562h70.554688l-81.457031 199.121094c-.015625.035156-.027344.074218-.046875.109375l-.035156.089843c-.140626.34375-.261719.691407-.378907 1.042969-.042969.136719-.082031.273438-.125.410157-.101562.355468-.195312.707031-.273437 1.066406-.019532.085937-.035156.171875-.054688.261718-.078125.394532-.136718.792969-.179687 1.191407-.011719.097656-.027344.195312-.035157.292969-.042968.4375-.0625.878906-.066406 1.320312 0 .03125-.003906.0625-.003906.09375 0 52.382812 47.101562 95 105 95 57.894531 0 105-42.617188 105-95 .003906-.03125-.003906-.0625-.003906-.097656zm-406.992188 65.097656c-35.402344 0-65.152344-21.363281-72.984375-50h145.96875c-7.835937 28.636719-37.585937 50-72.984375 50zm-67.660156-80 67.660156-165.382812 67.65625 165.382812zm218.660156-175c-16.542968 0-30-13.457031-30-30s13.457032-30 30-30c16.539063 0 30 13.457031 30 30s-13.460937 30-30 30zm151 9.617188 67.65625 165.382812h-135.316406zm0 245.382812c-35.402344 0-65.152344-21.363281-72.984375-50h145.96875c-7.835937 28.636719-37.585937 50-72.984375 50zm0 0" />
    </symbol>

    <symbol id="cart" viewBox="0 0 41 39" fill="none">
        <g clip-path="url(#clip0)">
            <path
                    d="M12.3 25.35H30.75C31.2937 25.35 31.8152 25.5554 32.1996 25.9211C32.5841 26.2868 32.8 26.7828 32.8 27.3C32.8 27.8172 32.5841 28.3132 32.1996 28.6788C31.8152 29.0445 31.2937 29.25 30.75 29.25H10.25C9.70635 29.25 9.18493 29.0445 8.80048 28.6788C8.41603 28.3132 8.20005 27.8172 8.20005 27.3V7.79999H4.10005C3.55635 7.79999 3.03493 7.59455 2.65048 7.22885C2.26603 6.86316 2.05005 6.36717 2.05005 5.84999C2.05005 5.33282 2.26603 4.83683 2.65048 4.47114C3.03493 4.10544 3.55635 3.89999 4.10005 3.89999H10.25C10.7937 3.89999 11.3152 4.10544 11.6996 4.47114C12.0841 4.83683 12.3 5.33282 12.3 5.84999V9.74999H38.95L30.75 23.4H12.3V25.35ZM11.275 31.2C11.8832 31.2 12.4777 31.3715 12.9834 31.6929C13.4891 32.0143 13.8832 32.4712 14.116 33.0056C14.3487 33.5401 14.4096 34.1282 14.291 34.6956C14.1723 35.263 13.8794 35.7842 13.4494 36.1933C13.0194 36.6023 12.4714 36.8809 11.875 36.9938C11.2785 37.1066 10.6602 37.0487 10.0983 36.8273C9.53641 36.606 9.05616 36.231 8.71828 35.75C8.38039 35.269 8.20005 34.7035 8.20005 34.125C8.20005 33.3492 8.52402 32.6052 9.10069 32.0567C9.67737 31.5082 10.4595 31.2 11.275 31.2V31.2ZM29.725 31.2C30.3332 31.2 30.9277 31.3715 31.4334 31.6929C31.9391 32.0143 32.3332 32.4712 32.566 33.0056C32.7987 33.5401 32.8596 34.1282 32.741 34.6956C32.6223 35.263 32.3294 35.7842 31.8994 36.1933C31.4694 36.6023 30.9214 36.8809 30.3249 36.9938C29.7285 37.1066 29.1102 37.0487 28.5483 36.8273C27.9864 36.606 27.5062 36.231 27.1683 35.75C26.8304 35.269 26.65 34.7035 26.65 34.125C26.65 33.3492 26.974 32.6052 27.5507 32.0567C28.1274 31.5082 28.9095 31.2 29.725 31.2V31.2Z" stroke="currentColor" stroke-width="3"/>
        </g>
        <defs>
            <clipPath id="clip0">
                <rect width="41" height="39" fill="white"/>
            </clipPath>
        </defs>
    </symbol>

    <symbol id="hamb-menu" viewBox="0 0 16 15" fill="none">
        <path d="M10.1891 2.47827L10.1891 0.478271L0.739136 0.478271L0.739136 2.47827L10.1891 2.47827ZM15.4391 6.47827L15.4391 4.47827L0.739136 4.47827L0.739136 6.47827L15.4391 6.47827ZM10.1891 10.4783L10.1891 8.47827L0.739136 8.47827L0.739136 10.4783L10.1891 10.4783ZM15.4391 14.4783L15.4391 12.4783L0.739136 12.4783L0.739136 14.4783L15.4391 14.4783Z" fill="white"/>
    </symbol>

    <symbol id="fire" viewBox="0 0 14 20" fill="none">
        <g clip-path="url(#clip0)">
            <path d="M7.58442 0C7.58442 0 3.83212 1.83276 4.14388 6.03665C4.45565 10.2405 4.82308 8.5 4 11.5C4 11.5 4.40532 8.5 1.9838 6.90722C1.9838 6.90722 2.6296 9.61054 1.31573 11.4891C0.00186896 13.3677 -0.476912 15.2692 0.569725 17.2509C1.61636 19.2325 5.56909 20 5.56909 20C5.56909 20 3.26426 18.9805 4.04367 17.1821C4.82308 15.3837 5.09031 13.9977 4.82308 13.3677C4.82308 13.3677 5.94766 13.8373 5.81405 15.315C5.81405 15.315 8.28589 13.4708 7.27266 10.7789C7.27266 10.7789 8.90942 11.6151 8.63106 13.425C8.3527 15.2348 7.97413 15.2463 8.90942 16.6552C8.90942 16.6552 8.51972 14.4903 9.62203 14.0664C9.62203 14.0664 9.52182 15.1546 9.78904 15.7617C10.0563 16.3688 10.8023 16.7125 10.6353 17.8694C10.4682 19.0263 9.62203 19.6449 9.62203 19.6449C9.62203 19.6449 12.7842 18.9003 13.6972 16.4605C14.6103 14.0206 13.1628 11.1455 13.1628 11.1455C13.1628 11.1455 12.0827 8.71707 12.1607 7.06758C12.2386 5.4181 12.6729 5.37228 12.6729 5.37228C12.6729 5.37228 10.1787 5.15464 9.86698 9.42726C9.86698 9.42726 4.90102 5.60137 7.58442 0Z" fill="#D24343"/>
        </g>
        <defs>
            <clipPath id="clip0">
                <rect width="14" height="20" fill="white"/>
            </clipPath>
        </defs>
    </symbol>

    <symbol id="like" viewBox="0 0 40 39" stroke="currentColor" stroke-width="3.5">
        <path d="M33.3429 10.1668L33.3521 10.1785L33.3614 10.1901C34.9559 12.1538 34.9884 15.9378 32.5536 20.4183C29.7094 25.3336 25.304 29.2193 19.9988 31.4912C14.6978 29.2282 10.3028 25.3384 7.48534 20.4166C5.01066 15.9375 5.04522 12.1524 6.63856 10.1901L6.64794 10.1785L6.65713 10.1668C7.35243 9.2801 8.26074 8.56642 9.30726 8.09043C10.3537 7.61447 11.5051 7.39145 12.6624 7.44227C14.9584 7.54528 17.1445 8.40502 18.8641 9.87226L20 10.8414L21.1359 9.87226C22.8555 8.40501 25.0416 7.54526 27.3377 7.44227C28.495 7.39145 29.6463 7.61447 30.6927 8.09043C31.7393 8.56642 32.6476 9.2801 33.3429 10.1668Z"/>
    </symbol>

    <symbol id="hamb-quick" viewBox="0 0 14 12" fill="none"    >
        <path d="M0.599976 0.399902H13.4V1.9999H0.599976V0.399902ZM0.599976 3.5999H13.4V5.1999H0.599976V3.5999ZM0.599976 6.7999H13.4V8.3999H0.599976V6.7999ZM0.599976 9.9999H13.4V11.5999H0.599976V9.9999Z" fill="#F0F0F0"/>
    </symbol>

    <symbol id="caret" viewBox="0 0 8 8" fill="currentColor">
        <path d="M0.411865 0.442688L7.48828 4.12394L0.411865 7.75038L0.411865 0.442688Z"/>
    </symbol>

    <symbol id="arrow-down" viewBox="0 0 8 8" fill="none">
        <path d="M3.5 0H4.5V6L6.5 4L7.5 4.5L4 8L0.5 4.5L1.5 4L3.5 6V0Z" fill="currentColor"/>
    </symbol>

    <symbol id="tile-4" viewBox="0 0 12 13" fill="none">
        <path
                d="M5.16419 5.61426V0.599976H0.149902V5.61426H5.16419ZM11.8499 5.61426V0.599976H6.83562V5.61426H11.8499ZM5.16419 12.3V7.28569H0.149902V12.3H5.16419ZM11.8499 12.3V7.28569H6.83562V12.3H11.8499Z" fill="currentColor"/>
    </symbol>

    <symbol id="hamb-3" viewBox="0 0 469.333 469.333" fill="currentColor">
        <g>
            <path d="M53.333,106.667H416c29.417,0,53.333-23.927,53.333-53.333S445.417,0,416,0H53.333C23.917,0,0,23.927,0,53.333
			S23.917,106.667,53.333,106.667z"/>
            <path d="M416,181.333H53.333C23.917,181.333,0,205.26,0,234.667S23.917,288,53.333,288H416c29.417,0,53.333-23.927,53.333-53.333
			S445.417,181.333,416,181.333z"/>
            <path d="M416,362.667H53.333C23.917,362.667,0,386.594,0,416s23.917,53.333,53.333,53.333H416
			c29.417,0,53.333-23.927,53.333-53.333S445.417,362.667,416,362.667z"/>
        </g>
    </symbol>

    <symbol id="arrow-left" viewBox="0 0 13 21" fill="none" >
        <path
                d="M12.3002 3.2501L5.05019 10.5001L12.3002 17.7501L10.8502 20.6501L0.700195 10.5001L10.8502 0.350098L12.3002 3.2501Z" fill="currentColor"/>
    </symbol>

    <symbol id="arrow-right" viewBox="0 0 13 21" fill="none">
        <path
                d="M0.699807 17.7499L7.9498 10.4999L0.699806 3.2499L2.14981 0.349902L12.2998 10.4999L2.14981 20.6499L0.699807 17.7499Z" fill="currentColor"/>
    </symbol>

    <symbol id="scale" viewBox="0 0 30 30" fill="none">
        <path d="M17.5491 4.60368C19.0257 6.04351 19.9499 7.93443 20.167 9.95961C20.384 11.9848 19.8807 14.0212 18.7413 15.7276C18.9399 15.889 19.1055 16.0666 19.3373 16.2281C19.6685 16.4864 20.1155 16.8093 20.6785 17.1806C21.2415 17.5519 21.6057 17.8103 21.7713 17.9394C22.3202 18.3225 22.8404 18.7433 23.3277 19.1987C23.8414 19.6939 24.307 20.2344 24.7186 20.8132C25.1059 21.3366 25.4335 21.8996 25.6955 22.4923C25.9256 22.9995 26.0278 23.5531 25.9935 24.1068C25.9675 24.5996 25.7551 25.0655 25.3973 25.4144C25.0394 25.7633 24.5616 25.9704 24.0563 25.9958C23.4925 26.0231 22.9303 25.9179 22.4171 25.689C21.8042 25.4434 21.2256 25.1234 20.6951 24.7364C20.1014 24.3352 19.5471 23.8812 19.0393 23.3803C18.5771 22.911 18.151 22.4091 17.7643 21.8788C17.5988 21.6689 17.3504 21.3137 16.9861 20.8132C16.6219 20.3127 16.3238 19.893 16.0589 19.5539C15.8322 19.2714 15.5889 19.0019 15.3304 18.7467C13.8385 19.5082 12.1593 19.8515 10.4794 19.7384C8.79946 19.6252 7.18459 19.0602 5.81423 18.1059C4.44387 17.1517 3.3717 15.8456 2.71684 14.3329C2.06198 12.8202 1.85009 11.1601 2.10472 9.53703C2.35934 7.91396 3.07051 6.39151 4.15919 5.13886C5.24787 3.88621 6.67143 2.95242 8.27168 2.44126C9.87193 1.9301 11.5862 1.86158 13.224 2.24332C14.8618 2.62506 16.3589 3.44211 17.5491 4.60368ZM15.2145 14.8719C16.0249 14.0816 16.5768 13.0747 16.8003 11.9786C17.0239 10.8825 16.9091 9.74633 16.4704 8.71383C16.0318 7.68133 15.289 6.79884 14.336 6.17795C13.383 5.55706 12.2626 5.22567 11.1164 5.22567C9.97028 5.22567 8.84987 5.55706 7.89686 6.17795C6.94386 6.79884 6.20108 7.68133 5.76244 8.71383C5.3238 9.74633 5.209 10.8825 5.43256 11.9786C5.65612 13.0747 6.208 14.0816 7.01841 14.8719C8.10801 15.9266 9.58109 16.5185 11.1164 16.5185C12.6518 16.5185 14.1249 15.9266 15.2145 14.8719Z" fill="currentColor"/>
        <path
                d="M16.7998 5.2C17.9461 6.34699 18.7266 7.8081 19.0426 9.39861C19.3586 10.9891 19.1959 12.6376 18.5752 14.1357C17.9544 15.6338 16.9034 16.9141 15.555 17.8149C14.2066 18.7158 12.6214 19.1966 10.9998 19.1966C9.37821 19.1966 7.79302 18.7158 6.44464 17.8149C5.09626 16.9141 4.04524 15.6338 3.42446 14.1357C2.80368 12.6376 2.64101 10.9891 2.95701 9.39861C3.27302 7.8081 4.05351 6.34699 5.19981 5.2C6.73879 3.66311 8.82484 2.79987 10.9998 2.79987C13.1748 2.79987 15.2608 3.66311 16.7998 5.2ZM12.4998 16.5V12.5H16.4998V9.5H12.4998V5.5H9.49981V9.5H5.49981V12.5H9.49981V16.5H12.4998Z" fill="currentColor"/>
    </symbol>

    <symbol id="trash" viewBox="0 0 18 23" fill="none">
        <path
                d="M12.1998 3.4H16.2498C16.4299 3.38917 16.6103 3.41667 16.779 3.48069C16.9477 3.5447 17.1009 3.64377 17.2284 3.77136C17.356 3.89894 17.4551 4.05214 17.5191 4.22084C17.5831 4.38953 17.6106 4.56989 17.5998 4.75V6.1H0.0498047V4.75C0.0498047 4.39196 0.192036 4.04858 0.44521 3.7954C0.698385 3.54223 1.04176 3.4 1.3998 3.4H5.4498C5.62282 2.63413 6.05117 1.94989 6.6645 1.45966C7.27782 0.969439 8.03964 0.702393 8.82481 0.702393C9.60997 0.702393 10.3718 0.969439 10.9851 1.45966C11.5984 1.94989 12.0268 2.63413 12.1998 3.4ZM6.7998 3.4H10.8498C10.6832 3.00021 10.402 2.65868 10.0417 2.41844C9.68132 2.1782 9.25791 2.05 8.82481 2.05C8.3917 2.05 7.96829 2.1782 7.60793 2.41844C7.24757 2.65868 6.96638 3.00021 6.7998 3.4ZM1.3998 7.45H16.2498L15.0348 21.085C15.0051 21.4207 14.8494 21.7327 14.5989 21.9581C14.3484 22.1836 14.0218 22.3057 13.6848 22.3H3.9648C3.63418 22.2842 3.31917 22.1547 3.07314 21.9332C2.82711 21.7118 2.66518 21.4121 2.6148 21.085L1.3998 7.45Z" fill="currentColor"/>
    </symbol>

    <symbol id="close" viewBox="0 0 17 17" fill="none">
        <path
                d="M16.1721 3.01298L10.6851 8.49998L16.1721 13.987L13.9866 16.1725L8.49965 10.701L3.02815 16.1725L0.827148 13.9715L6.29865 8.49998L0.827148 3.02848L3.02815 0.827484L8.49965 6.29898L13.9866 0.827484L16.1721 3.01298Z" fill="currentColor"/>
    </symbol>


</svg>