<svg width="62" height="62" viewBox="0 0 62 62" fill="none" xmlns="http://www.w3.org/2000/svg">
<path d="M30.9996 0.600098C24.9871 0.600098 19.1095 2.38303 14.1103 5.72342C9.11103 9.06382 5.21459 13.8116 2.91369 19.3665C0.612781 24.9214 0.0107597 31.0338 1.18375 36.9308C2.35674 42.8279 5.25206 48.2446 9.50358 52.4961C13.7551 56.7477 19.1719 59.643 25.0689 60.816C30.9659 61.989 37.0783 61.3869 42.6332 59.086C48.1881 56.7851 52.9359 52.8887 56.2763 47.8894C59.6167 42.8902 61.3996 37.0126 61.3996 31.0001C61.3996 22.9375 58.1968 15.2052 52.4957 9.50405C46.7946 3.80295 39.0622 0.600098 30.9996 0.600098ZM28.6626 48.7081H23.5706L11.2586 31.4561L16.3506 26.7061L26.1166 35.8261L45.6486 13.2921L50.7406 16.8641L28.6626 48.7081Z" fill="#3C9454"/>
</svg>
