<svg width="18" height="23" viewBox="0 0 18 23" fill="none" xmlns="http://www.w3.org/2000/svg">
<path d="M12.1998 3.4H16.2498C16.4299 3.38917 16.6103 3.41667 16.779 3.48069C16.9477 3.5447 17.1009 3.64377 17.2284 3.77136C17.356 3.89894 17.4551 4.05214 17.5191 4.22084C17.5831 4.38953 17.6106 4.56989 17.5998 4.75V6.1H0.0498047V4.75C0.0498047 4.39196 0.192036 4.04858 0.44521 3.7954C0.698385 3.54223 1.04176 3.4 1.3998 3.4H5.4498C5.62282 2.63413 6.05117 1.94989 6.6645 1.45966C7.27782 0.969439 8.03964 0.702393 8.82481 0.702393C9.60997 0.702393 10.3718 0.969439 10.9851 1.45966C11.5984 1.94989 12.0268 2.63413 12.1998 3.4ZM6.7998 3.4H10.8498C10.6832 3.00021 10.402 2.65868 10.0417 2.41844C9.68132 2.1782 9.25791 2.05 8.82481 2.05C8.3917 2.05 7.96829 2.1782 7.60793 2.41844C7.24757 2.65868 6.96638 3.00021 6.7998 3.4ZM1.3998 7.45H16.2498L15.0348 21.085C15.0051 21.4207 14.8494 21.7327 14.5989 21.9581C14.3484 22.1836 14.0218 22.3057 13.6848 22.3H3.9648C3.63418 22.2842 3.31917 22.1547 3.07314 21.9332C2.82711 21.7118 2.66518 21.4121 2.6148 21.085L1.3998 7.45Z" fill="#CC5E7B"/>
</svg>
