<svg 
 xmlns="http://www.w3.org/2000/svg"
 xmlns:xlink="http://www.w3.org/1999/xlink"
 width="65px" height="10px">
<path fill-rule="evenodd"  fill="rgb(252, 242, 185)"
 d="M63.675,9.099 C60.816,9.099 59.389,6.963 58.243,5.246 C57.099,3.534 56.323,2.484 54.839,2.484 C53.357,2.484 52.581,3.533 51.437,5.246 C50.291,6.963 48.863,9.099 46.004,9.099 C43.145,9.099 41.719,6.963 40.574,5.246 C39.431,3.533 38.655,2.484 37.174,2.484 C35.692,2.484 34.916,3.534 33.773,5.246 C32.627,6.963 31.200,9.099 28.342,9.099 C25.484,9.099 24.058,6.963 22.912,5.246 C21.769,3.533 20.993,2.484 19.512,2.484 C18.031,2.484 17.256,3.534 16.113,5.246 C14.968,6.963 13.543,9.099 10.686,9.099 C7.828,9.099 6.403,6.963 5.257,5.246 C4.115,3.533 3.340,2.484 1.859,2.484 C1.182,2.484 0.635,1.930 0.635,1.247 C0.635,0.563 1.182,0.009 1.859,0.009 C4.717,0.009 6.142,2.146 7.287,3.863 C8.430,5.575 9.205,6.624 10.686,6.624 C12.166,6.624 12.941,5.575 14.084,3.863 C15.229,2.146 16.654,0.009 19.512,0.009 C22.371,0.009 23.797,2.146 24.942,3.863 C26.085,5.575 26.861,6.624 28.342,6.624 C29.824,6.624 30.600,5.574 31.743,3.863 C32.889,2.146 34.316,0.009 37.174,0.009 C40.032,0.009 41.459,2.146 42.604,3.863 C43.747,5.575 44.523,6.624 46.004,6.624 C47.487,6.624 48.263,5.574 49.407,3.862 C50.554,2.146 51.980,0.009 54.839,0.009 C57.699,0.009 59.126,2.146 60.273,3.863 C61.417,5.575 62.193,6.624 63.675,6.624 C64.352,6.624 64.899,7.179 64.899,7.862 C64.899,8.545 64.352,9.099 63.675,9.099 Z"/>
</svg>