<svg 
 xmlns="http://www.w3.org/2000/svg"
 xmlns:xlink="http://www.w3.org/1999/xlink"
 width="67px" height="10px">
<path fill-rule="evenodd"  fill="rgb(255, 255, 255)"
 d="M65.520,9.898 C62.548,9.890 61.071,7.664 59.885,5.877 C58.701,4.092 57.897,2.999 56.355,2.994 C54.814,2.989 54.004,4.078 52.810,5.855 C51.612,7.637 50.122,9.853 47.149,9.844 C44.178,9.835 42.701,7.610 41.516,5.822 C40.333,4.038 39.530,2.944 37.990,2.940 C36.449,2.935 35.639,4.025 34.446,5.801 C33.249,7.582 31.759,9.799 28.788,9.790 C25.816,9.781 24.340,7.556 23.155,5.768 C21.972,3.983 21.169,2.890 19.629,2.886 C18.089,2.881 17.280,3.970 16.087,5.747 C14.891,7.528 13.403,9.745 10.433,9.736 C7.461,9.727 5.986,7.502 4.801,5.713 C3.618,3.929 2.816,2.836 1.276,2.831 C0.573,2.829 0.005,2.251 0.007,1.541 C0.010,0.831 0.580,0.257 1.284,0.259 C4.255,0.268 5.730,2.493 6.915,4.281 C8.098,6.065 8.900,7.159 10.440,7.163 C11.979,7.168 12.788,6.079 13.981,4.303 C15.177,2.521 16.665,0.304 19.636,0.313 C22.608,0.322 24.084,2.547 25.269,4.335 C26.452,6.119 27.256,7.213 28.796,7.217 C30.336,7.222 31.146,6.133 32.340,4.356 C33.537,2.575 35.026,0.358 37.998,0.367 C40.969,0.376 42.445,2.601 43.631,4.389 C44.813,6.174 45.617,7.267 47.157,7.272 C48.699,7.276 49.509,6.187 50.704,4.410 C51.901,2.629 53.390,0.413 56.363,0.422 C59.335,0.430 60.813,2.655 61.999,4.444 C63.183,6.228 63.987,7.321 65.528,7.326 C66.231,7.328 66.799,7.906 66.797,8.616 C66.795,9.326 66.224,9.900 65.520,9.898 Z"/>
</svg>