<svg width="198" height="26" viewBox="0 0 198 26" fill="none" xmlns="http://www.w3.org/2000/svg">
<path d="M6.92389 0.00634766V12.2319L15.0743 0.00634766H20.9014L14.6553 9.28027L22.463 26H15.7408L10.5801 14.7266L6.92389 20.0396V26H0.944397V0.00634766H6.92389ZM38.1307 0.00634766L46.2621 26H39.7113L38.1307 20.6489H29.7138L28.0761 26H22.744L31.0658 0.00634766H38.1307ZM31.1801 15.8501H36.7025L33.9413 6.72852L31.1801 15.8501ZM65.3576 0.00634766V5.14795H58.9211V26H52.7512V5.14795H46.2766V0.00634766H65.3576ZM78.7212 0.00634766L86.8526 26H80.3018L78.7212 20.6489H70.3042L68.6665 26H63.3345L71.6563 0.00634766H78.7212ZM71.7705 15.8501H77.293L74.5318 6.72852L71.7705 15.8501ZM95.6458 20.8584H105.986V26H89.4759V0.00634766H95.6458V20.8584ZM114.913 0.00634766V12.2319L123.063 0.00634766H128.89L122.644 9.28027L130.452 26H123.73L118.569 14.7266L114.913 20.0396V26H108.933V0.00634766H114.913ZM139.416 0.00634766V26H133.342V0.00634766H139.416ZM149.809 26H143.925V20.1157H149.809V26ZM160.297 0.00634766V12.2319L168.448 0.00634766H174.275L168.029 9.28027L175.837 26H169.114L163.954 14.7266L160.297 20.0396V26H154.318V0.00634766H160.297ZM197.465 4.48145L184.325 21.0298H197.884V26H176.898V21.582L190 4.91943H177.774V0.00634766H197.465V4.48145Z" fill="#3F3F3F"/>
</svg>
