<svg width="380" height="240" viewBox="0 0 380 240" fill="none" xmlns="http://www.w3.org/2000/svg">
<path d="M361.419 78.7964C366.002 99.876 351.625 123.762 323.909 145.38C296.269 166.938 255.675 185.97 208.677 197.312C161.679 208.653 117.27 210.135 83.4786 203.401C49.5939 196.648 26.7818 181.737 22.1988 160.658C17.6159 139.578 31.9929 115.692 59.7095 94.0743C87.3495 72.5159 127.943 53.484 174.941 42.1424C221.939 30.8008 266.348 29.3196 300.139 36.0533C334.024 42.8057 356.836 57.7169 361.419 78.7964Z" stroke="#00288D" stroke-width="2"/>
<path d="M355.553 94.0703C358.65 115.721 342.681 138.617 313.623 158.114C284.639 177.561 242.949 193.389 195.424 200.933C147.899 208.477 103.634 206.293 70.4981 196.706C37.2768 187.095 15.6141 170.172 12.5179 148.521C9.42162 126.87 25.3899 103.975 54.4485 84.4773C83.432 65.0303 125.122 49.2028 172.647 41.659C220.172 34.1152 264.438 36.2987 297.573 45.8853C330.794 55.4967 352.457 72.4193 355.553 94.0703Z" stroke="#00288D" stroke-width="2"/>
</svg>
