<svg width="348" height="298" viewBox="0 0 348 298" fill="none" xmlns="http://www.w3.org/2000/svg">
<path d="M19.0652 179.291C14.4592 150.345 26.6465 121.083 50.264 97.1569C73.8799 73.2328 108.869 54.7149 149.645 47.3354C190.42 39.956 229.179 45.1271 258.873 59.4032C288.57 73.6804 309.127 97.0166 313.733 125.963C318.339 154.909 306.151 184.171 282.534 208.097C258.918 232.021 223.928 250.539 183.153 257.919C142.378 265.298 103.619 260.127 73.9244 245.851C44.2279 231.574 23.6711 208.237 19.0652 179.291Z" stroke="#00288D" stroke-width="2"/>
<path d="M31.2102 194.012C22.9695 165.884 31.3462 135.313 51.7378 108.584C72.128 81.8574 104.486 59.0505 143.996 46.558C183.505 34.0656 222.607 34.2781 253.873 44.672C285.14 55.0666 308.491 75.6066 316.732 103.735C324.973 131.863 316.596 162.435 296.204 189.163C275.814 215.89 243.457 238.697 203.947 251.189C164.437 263.682 125.335 263.469 94.0697 253.075C62.802 242.681 39.451 222.141 31.2102 194.012Z" stroke="#00288D" stroke-width="2"/>
</svg>
