<svg width="362" height="358" viewBox="0 0 362 358" fill="none" xmlns="http://www.w3.org/2000/svg">
<path d="M251.842 49.7141C276.63 63.0029 291.645 89.3887 295.771 121.474C299.898 153.556 293.115 191.244 274.39 226.904C255.665 262.564 228.582 289.368 199.978 303.903C171.37 318.439 141.329 320.669 116.541 307.381C91.7537 294.092 76.7386 267.706 72.6118 235.621C68.4855 203.539 75.2681 165.851 93.9932 130.191C112.718 94.5312 139.801 67.7263 168.406 53.1918C197.013 38.6558 227.055 36.4253 251.842 49.7141Z" stroke="#00288D" stroke-width="2"/>
<path d="M279.659 70.4463C301.785 87.4914 310.929 115.07 307.663 146.025C304.398 176.975 288.725 211.202 261.368 241.33C234.011 271.458 200.209 291.718 167.714 300.15C135.214 308.584 104.128 305.17 82.0019 288.125C59.8761 271.08 50.7323 243.501 53.9981 212.547C57.2635 181.596 72.9364 147.369 100.293 117.242C127.65 87.1139 161.452 66.8537 193.947 58.4212C226.447 49.9876 257.533 53.4011 279.659 70.4463Z" stroke="#00288D" stroke-width="2"/>
</svg>
