<svg width="371" height="360" viewBox="0 0 371 360" fill="none" xmlns="http://www.w3.org/2000/svg">
<path d="M98.3208 299.088C75.4409 282.734 63.9313 254.644 63.9508 222.298C63.9703 189.955 75.5273 153.451 98.6683 120.488C121.809 87.5257 152.104 64.4152 182.336 53.6678C212.57 42.9193 242.65 44.5573 265.53 60.9118C288.41 77.2663 299.919 105.356 299.9 137.702C299.88 170.045 288.323 206.549 265.182 239.512C242.041 272.474 211.746 295.585 181.515 306.332C151.28 317.081 121.201 315.443 98.3208 299.088Z" stroke="#00288D" stroke-width="2"/>
<path d="M73.3903 274.964C53.6316 255.226 48.0979 226.706 55.3041 196.428C62.5093 166.154 82.4397 134.222 113.432 107.851C144.425 81.4809 180.545 65.7216 213.853 61.5239C247.165 57.3256 277.558 64.6944 297.316 84.4328C317.075 104.171 322.609 132.691 315.403 162.969C308.197 193.243 288.267 225.175 257.275 251.546C226.282 277.916 190.162 293.676 156.854 297.873C123.541 302.072 93.149 294.703 73.3903 274.964Z" stroke="#00288D" stroke-width="2"/>
</svg>
