<svg width="87" height="87" viewBox="0 0 87 87" fill="none" xmlns="http://www.w3.org/2000/svg">
<path d="M43.5 57.0938C42.9563 57.0938 42.4805 56.7539 42.2766 56.2781C41.8688 55.5305 33.3047 36.5672 33.3047 21.0703C33.3047 15.4289 37.8586 10.875 43.5 10.875C49.1414 10.875 53.6953 15.4289 53.6953 21.0703C53.6953 36.5672 45.1313 55.5305 44.7234 56.2781C44.5195 56.7539 44.0437 57.0938 43.5 57.0938ZM43.5 13.5938C39.3539 13.5938 36.0234 16.9242 36.0234 21.0703C36.0234 32.557 41.1211 46.3547 43.5 52.268C45.8789 46.3547 50.9766 32.4891 50.9766 21.0703C50.9766 16.9242 47.6461 13.5938 43.5 13.5938Z" fill="black"/>
<path d="M43.5 75.1055C39.3539 75.1055 36.0234 71.775 36.0234 67.6289C36.0234 63.4828 39.3539 60.1523 43.5 60.1523C47.6461 60.1523 50.9766 63.4828 50.9766 67.6289C50.9766 71.775 47.6461 75.1055 43.5 75.1055ZM43.5 62.8711C40.8492 62.8711 38.7422 64.9781 38.7422 67.6289C38.7422 70.2797 40.8492 72.3867 43.5 72.3867C46.1508 72.3867 48.2578 70.2797 48.2578 67.6289C48.2578 64.9781 46.1508 62.8711 43.5 62.8711Z" fill="black"/>
</svg>
