<svg viewBox="0 0 23 24" fill="none" xmlns="http://www.w3.org/2000/svg">
<path fill-rule="evenodd" clip-rule="evenodd" d="M15.0104 4.43875C13.3115 3.68176 11.4134 3.49423 9.59922 3.90412C7.78503 4.31401 6.15195 5.29936 4.94352 6.71322C3.73509 8.12708 3.01608 9.89368 2.8937 11.7496C2.77132 13.6055 3.25215 15.4512 4.26446 17.0115C5.27677 18.5718 6.76633 19.763 8.51098 20.4076C10.2556 21.0521 12.1619 21.1155 13.9455 20.5881C15.7291 20.0608 17.2944 18.971 18.4081 17.4813C19.5217 15.9917 20.1239 14.1819 20.125 12.322V11.4409C20.125 10.9116 20.5541 10.4825 21.0833 10.4825C21.6126 10.4825 22.0417 10.9116 22.0417 11.4409V12.3225C22.0404 14.5958 21.3043 16.8082 19.9432 18.6289C18.5821 20.4496 16.6689 21.7816 14.4889 22.4261C12.309 23.0707 9.97911 22.9933 7.84676 22.2055C5.7144 21.4177 3.89383 19.9617 2.65656 18.0547C1.41929 16.1476 0.831616 13.8918 0.981187 11.6235C1.13076 9.35515 2.00956 7.19597 3.48652 5.46792C4.96349 3.73988 6.95948 2.53556 9.17682 2.03458C11.3942 1.5336 13.714 1.7628 15.7905 2.68801C16.2739 2.90342 16.4912 3.46997 16.2758 3.95342C16.0604 4.43687 15.4938 4.65416 15.0104 4.43875Z" fill="#FFDD48"/>
<path fill-rule="evenodd" clip-rule="evenodd" d="M21.7606 3.9781C22.1351 4.35217 22.1354 4.95895 21.7613 5.33339L12.178 14.9263C11.9983 15.1062 11.7545 15.2073 11.5002 15.2073C11.246 15.2074 11.0021 15.1064 10.8224 14.9266L7.94736 12.0516C7.57311 11.6774 7.57311 11.0706 7.94736 10.6964C8.32161 10.3221 8.9284 10.3221 9.30265 10.6964L11.4997 12.8934L20.4054 3.97878C20.7794 3.60434 21.3862 3.60404 21.7606 3.9781Z" fill="#FFDD48"/>
</svg>
