<svg width="140" height="124" viewBox="0 0 140 124" fill="none" xmlns="http://www.w3.org/2000/svg">
<path d="M60.597 54.8347C60.597 51.8143 63.0454 49.3659 66.0658 49.3659H79.4027V7.99756C79.4027 4.97717 76.9543 2.52881 73.9339 2.52881H7.51953C4.49914 2.52881 2.05078 4.97717 2.05078 7.99756V56.3162C2.05078 59.3365 4.49914 61.7849 7.51953 61.7849H11.2109C11.9659 61.7849 12.5781 62.3971 12.5781 63.1521V73.2638C12.5781 74.3868 13.8567 75.0308 14.7591 74.3625L31.0136 62.3222C31.4844 61.9733 32.0551 61.7852 32.6411 61.7852H60.597V54.8347Z" fill="#FFE281"/>
<path d="M23.4095 59.2682C23.4095 58.5132 22.7973 57.901 22.0423 57.901H18.3509C15.3305 57.901 12.8822 55.4526 12.8822 52.4322V4.11393C12.8822 3.5624 12.9656 3.03084 13.1173 2.52881H7.51953C4.49914 2.52881 2.05078 4.97717 2.05078 7.99756V56.3162C2.05078 59.3365 4.49914 61.7849 7.51953 61.7849H11.2109C11.9659 61.7849 12.5781 62.3971 12.5781 63.1521V73.2638C12.5781 74.3868 13.8567 75.0308 14.7591 74.3625L23.4095 67.9548V59.2682Z" fill="#FFCE26"/>
<path d="M66.0657 49.366H132.48C135.501 49.366 137.949 51.8143 137.949 54.8347V103.153C137.949 106.174 135.501 108.622 132.48 108.622H128.789C128.034 108.622 127.422 109.234 127.422 109.989V120.101C127.422 121.224 126.143 121.868 125.241 121.2L108.986 109.159C108.515 108.81 107.945 108.622 107.359 108.622H66.0657C63.0453 108.622 60.5969 106.174 60.5969 103.154V54.8347C60.5969 51.8143 63.0456 49.366 66.0657 49.366Z" fill="#FFCE26"/>
<path d="M69.1796 103.153V54.8347C69.1796 51.8143 71.6279 49.366 74.6483 49.366H66.0657C63.0453 49.366 60.5969 51.8143 60.5969 54.8347V103.153C60.5969 106.174 63.0453 108.622 66.0657 108.622H74.6483C71.6279 108.622 69.1796 106.173 69.1796 103.153Z" fill="#FFE281"/>
<path d="M82.2936 84.3161H74.3831C73.6281 84.3161 73.0159 83.7038 73.0159 82.9489V75.0383C73.0159 74.2834 73.6281 73.6711 74.3831 73.6711H82.2936C83.0486 73.6711 83.6608 74.2834 83.6608 75.0383V82.9489C83.6608 83.7041 83.0486 84.3161 82.2936 84.3161Z" fill="#FFE281"/>
<path d="M78.2221 82.9499V75.0393C78.2221 74.2843 78.8343 73.6721 79.5893 73.6721H74.3831C73.6281 73.6721 73.0159 74.2843 73.0159 75.0393V82.9499C73.0159 83.7048 73.6281 84.317 74.3831 84.317H79.5893C78.8343 84.317 78.2221 83.7048 78.2221 82.9499Z" fill="#FFCE26"/>
<path d="M103.228 84.3161H95.3176C94.5627 84.3161 93.9504 83.7038 93.9504 82.9489V75.0383C93.9504 74.2834 94.5627 73.6711 95.3176 73.6711H103.228C103.983 73.6711 104.595 74.2834 104.595 75.0383V82.9489C104.595 83.7041 103.983 84.3161 103.228 84.3161Z" fill="#FFE281"/>
<path d="M99.1569 82.9491V75.0386C99.1569 74.2836 99.7692 73.6714 100.524 73.6714H95.3179C94.5629 73.6714 93.9507 74.2836 93.9507 75.0386V82.9491C93.9507 83.7041 94.5629 84.3163 95.3179 84.3163H100.524C99.7689 84.3163 99.1569 83.7041 99.1569 82.9491Z" fill="#FFCE26"/>
<path d="M124.163 84.3161H116.252C115.497 84.3161 114.885 83.7038 114.885 82.9489V75.0383C114.885 74.2834 115.497 73.6711 116.252 73.6711H124.163C124.918 73.6711 125.53 74.2834 125.53 75.0383V82.9489C125.53 83.7041 124.918 84.3161 124.163 84.3161Z" fill="#FFE281"/>
<path d="M120.092 82.9491V75.0386C120.092 74.2836 120.704 73.6714 121.459 73.6714H116.253C115.498 73.6714 114.885 74.2836 114.885 75.0386V82.9491C114.885 83.7041 115.498 84.3163 116.253 84.3163H121.459C120.704 84.3163 120.092 83.7041 120.092 82.9491Z" fill="#FFCE26"/>
<path d="M132.48 47.3151H124.688C123.555 47.3151 122.637 48.2333 122.637 49.3659C122.637 50.4985 123.555 51.4167 124.688 51.4167H132.48C134.365 51.4167 135.898 52.9499 135.898 54.8347V103.153C135.898 105.038 134.365 106.571 132.48 106.571H128.789C126.904 106.571 125.371 108.104 125.371 109.989V118.744L110.207 107.511C109.389 106.905 108.377 106.571 107.359 106.571H66.0658C64.181 106.571 62.6478 105.038 62.6478 103.153V54.8347C62.6478 52.9499 64.181 51.4167 66.0658 51.4167H114.844C115.976 51.4167 116.895 50.4985 116.895 49.3659C116.895 48.2333 115.976 47.3151 114.844 47.3151H81.4538V36.2964C81.4538 35.1638 80.5355 34.2456 79.403 34.2456C78.2704 34.2456 77.3522 35.1638 77.3522 36.2964V47.3151H66.0661C61.9196 47.3151 58.5465 50.6883 58.5465 54.8347V59.7338H32.6413C31.623 59.7338 30.6113 60.0677 29.7929 60.6739L14.6289 71.9065V63.1518C14.6289 61.267 13.0957 59.7338 11.2109 59.7338H7.51953C5.63473 59.7338 4.10156 58.2007 4.10156 56.3159V7.99756C4.10156 6.11275 5.63473 4.57959 7.51953 4.57959H73.9342C75.819 4.57959 77.3522 6.11275 77.3522 7.99756V26.7261C77.3522 27.8587 78.2704 28.7769 79.403 28.7769C80.5355 28.7769 81.4538 27.8587 81.4538 26.7261V7.99756C81.4538 3.85115 78.0806 0.478027 73.9342 0.478027H7.51953C3.37313 0.478027 0 3.85115 0 7.99756V56.3162C0 60.4626 3.37313 63.8357 7.51953 63.8357H10.5273V73.2638C10.5273 74.5626 11.2479 75.7321 12.4075 76.3165C12.8972 76.5631 13.4241 76.6848 13.948 76.6848C14.6653 76.6848 15.3768 76.457 15.9797 76.0105L32.2339 63.9702C32.3526 63.8824 32.4934 63.836 32.6411 63.836H58.5463V103.154C58.5463 107.3 61.9194 110.673 66.0658 110.673H107.359C107.506 110.673 107.647 110.72 107.766 110.807L124.02 122.848C124.623 123.294 125.334 123.522 126.052 123.522C126.576 123.522 127.102 123.4 127.592 123.154C128.752 122.569 129.472 121.4 129.472 120.101V110.673H132.48C136.627 110.673 140 107.3 140 103.153V54.8347C140 50.6885 136.627 47.3151 132.48 47.3151Z" fill="black"/>
<path d="M60.597 19.4612H20.8564C19.7239 19.4612 18.8057 20.3794 18.8057 21.512C18.8057 22.6445 19.7239 23.5627 20.8564 23.5627H60.597C61.7296 23.5627 62.6478 22.6445 62.6478 21.512C62.6478 20.3794 61.7296 19.4612 60.597 19.4612Z" fill="black"/>
<path d="M62.6478 32.157C62.6478 31.0244 61.7296 30.1062 60.597 30.1062H38.2812C37.1487 30.1062 36.2305 31.0244 36.2305 32.157C36.2305 33.2896 37.1487 34.2078 38.2812 34.2078H60.597C61.7296 34.2078 62.6478 33.2896 62.6478 32.157Z" fill="black"/>
<path d="M20.8564 34.2078H28.4375C29.5701 34.2078 30.4883 33.2896 30.4883 32.157C30.4883 31.0244 29.5701 30.1062 28.4375 30.1062H20.8564C19.7239 30.1062 18.8057 31.0244 18.8057 32.157C18.8057 33.2896 19.7239 34.2078 20.8564 34.2078Z" fill="black"/>
<path d="M20.8564 44.8523H38.9605C40.0931 44.8523 41.0113 43.9341 41.0113 42.8015C41.0113 41.6689 40.0931 40.7507 38.9605 40.7507H20.8564C19.7239 40.7507 18.8057 41.6689 18.8057 42.8015C18.8057 43.9341 19.7239 44.8523 20.8564 44.8523Z" fill="black"/>
<path d="M74.3831 71.6208C72.4983 71.6208 70.9651 73.154 70.9651 75.0388V82.9494C70.9651 84.8342 72.4983 86.3673 74.3831 86.3673H82.2936C84.1784 86.3673 85.7116 84.8342 85.7116 82.9494V75.0388C85.7116 73.154 84.1784 71.6208 82.2936 71.6208H74.3831ZM81.6097 82.2658H75.0664V75.7224H81.6097V82.2658Z" fill="black"/>
<path d="M95.3179 71.6208C93.4331 71.6208 91.8999 73.154 91.8999 75.0388V82.9494C91.8999 84.8342 93.4331 86.3673 95.3179 86.3673H103.228C105.113 86.3673 106.646 84.8342 106.646 82.9494V75.0388C106.646 73.154 105.113 71.6208 103.228 71.6208H95.3179ZM102.545 82.2658H96.0015V75.7224H102.545V82.2658Z" fill="black"/>
<path d="M112.835 75.0388V82.9494C112.835 84.8342 114.368 86.3673 116.253 86.3673H124.163C126.048 86.3673 127.581 84.8342 127.581 82.9494V75.0388C127.581 73.154 126.048 71.6208 124.163 71.6208H116.253C114.368 71.6208 112.835 73.154 112.835 75.0388ZM116.936 75.7224H123.479V82.2658H116.936V75.7224Z" fill="black"/>
</svg>
