<svg width="163" height="149" viewBox="0 0 163 149" fill="none" xmlns="http://www.w3.org/2000/svg">
<path fill-rule="evenodd" clip-rule="evenodd" d="M59.3415 94.8085L45.6666 118.471L80.861 104.663C80.861 104.663 106.396 121.346 115.5 114.691C124.604 108.036 143.737 71.394 142.188 62.4915C140.624 53.5972 127.833 43.7406 99.4945 33.2149C71.1556 22.6892 44.6662 4.47856 34.3034 20.4435C23.9405 36.4083 5.82081 73.6598 22.2605 82.0239C38.697 90.3995 59.3415 94.8085 59.3415 94.8085Z" fill="white"/>
<path fill-rule="evenodd" clip-rule="evenodd" d="M72.4691 89.808L58.7978 113.459L93.9887 99.6629C93.9887 99.6629 119.535 116.349 128.628 109.691C137.732 103.036 156.865 66.3937 155.301 57.4995C153.748 48.6085 140.946 38.7485 112.608 28.2228C84.2687 17.6971 57.7757 -0.501974 47.4277 15.4546C37.0681 31.4079 18.9372 68.6562 35.3884 77.0235C51.8133 85.3958 72.4691 89.808 72.4691 89.808Z" fill="#FFE281"/>
<path fill-rule="evenodd" clip-rule="evenodd" d="M80.3737 108.392C71.3748 111.747 62.1477 116.534 52.6017 120.77C50.421 121.74 45.4348 124.927 42.5487 123.218C38.4575 120.783 44.7981 113.8 46.5234 111.167C49.4646 106.695 51.5499 103.004 54.2502 99.2994C36.1842 93.9695 16.6256 86.5864 13.8543 71.2549C12.6526 64.6198 16.0149 53.9934 19.0032 44.6087C25.3543 24.685 32.7566 10.4688 52.075 14.4051C60.9784 16.2231 68.8676 20.0503 76.4909 23.3163C84.1372 26.5889 91.6826 29.7333 99.9454 32.5432C116.073 38.0263 136.377 42.6263 142.327 53.5272C150.183 67.8943 134.657 100.975 124.377 111.102C114.055 121.292 95.6766 118.98 80.3737 108.392ZM75.4801 102.913C77.8353 101.854 80.6799 99.5868 83.2078 100.397C85.3344 101.083 85.2521 103.105 86.7775 104.332C92.3114 108.731 105.167 112.458 112.223 110.602C118.724 108.901 124.205 101.252 128.172 93.4399C133.448 83.0151 140.85 65.8308 136.345 57.107C131.326 47.4159 108.238 42.9182 94.5945 38.0464C87.3501 35.473 79.6763 32.3424 72.5037 29.203C65.2651 26.0326 57.642 22.4548 49.3764 20.9409C37.9062 18.8501 33.2311 26.6507 28.7883 37.9708C24.8806 47.92 18.9973 62.5883 20.798 70.5516C23.1514 80.9398 39.5997 88.2088 53.9401 92.1543C56.6358 92.9 61.8276 93.1504 62.8561 95.8338C63.8731 98.514 60.946 101.606 59.4042 103.941C57.3806 107.013 55.9674 109.334 54.2482 111.856C61.0147 109.344 68.1727 106.195 75.4801 102.913Z" fill="black"/>
</svg>
