<svg width="306" height="208" viewBox="0 0 306 208" fill="none" xmlns="http://www.w3.org/2000/svg">
<path fill-rule="evenodd" clip-rule="evenodd" d="M85.7797 33.8015C116.451 33.8015 141.314 58.6647 141.314 89.3361C141.314 120.007 116.451 144.868 85.7797 144.868C55.1083 144.868 30.2451 120.005 30.2451 89.3361C30.2451 58.6647 55.1083 33.8015 85.7797 33.8015Z" fill="#FFE281"/>
<path fill-rule="evenodd" clip-rule="evenodd" d="M85.7798 44.8845C110.329 44.8845 130.232 64.7872 130.232 89.3364C130.232 113.886 110.329 133.788 85.7798 133.788C61.2283 133.788 41.3279 113.886 41.3279 89.3364C41.3279 64.7872 61.2283 44.8845 85.7798 44.8845Z" fill="#FFF6D6"/>
<path d="M211.706 150.289C211.136 150.289 210.598 149.941 210.383 149.376C210.105 148.645 210.47 147.829 211.201 147.548C212.002 147.25 212.816 147.624 213.089 148.358C213.361 149.091 212.986 149.905 212.253 150.176C212.044 150.259 211.874 150.289 211.706 150.289Z" fill="#9166FC"/>
<path d="M60.6969 101.998C60.5107 101.998 60.3224 101.96 60.143 101.881C59.4321 101.572 59.0957 100.764 59.3962 100.051C59.6496 99.3111 60.4479 98.9344 61.1857 99.1855C61.9258 99.4389 62.3138 100.262 62.0603 101.002C62.0245 101.105 62.0043 101.15 62.0043 101.15C61.7688 101.677 61.2441 101.998 60.6969 101.998Z" fill="#9166FC"/>
<path d="M176.159 206.808H41.3279C40.5452 206.808 39.9128 206.173 39.9128 205.393C39.9128 204.61 40.5475 203.978 41.3279 203.978H176.161C176.944 203.978 177.576 204.612 177.576 205.393C177.576 206.173 176.942 206.808 176.159 206.808Z" fill="black"/>
<path d="M304.344 206.808H186.751C185.968 206.808 185.336 206.173 185.336 205.393C185.336 204.61 185.971 203.978 186.751 203.978H304.346C305.129 203.978 305.761 204.612 305.761 205.393C305.761 206.173 305.126 206.808 304.344 206.808Z" fill="black"/>
<path fill-rule="evenodd" clip-rule="evenodd" d="M49.9457 115.072C49.9457 115.072 48.5397 96.2836 51.3002 86.1339C54.0586 75.9841 56.9649 70.2499 56.9649 70.2499C56.9649 70.2499 59.2008 75.8024 62.6296 76.2846C66.0585 76.7667 67.3098 74.8067 67.3098 74.8067C67.3098 74.8067 70.6535 78.175 73.2212 77.269C75.7889 76.3653 76.7913 75.4234 76.7913 75.4234C76.7913 75.4234 78.8298 77.7557 82.456 76.0401C86.0822 74.3223 85.165 71.9766 85.165 71.9766C85.165 71.9766 92.8278 76.3249 90.4597 62.8629C88.0916 49.4008 81.0544 38.594 79.8704 37.004C78.6863 35.414 72.4498 29.1394 60.414 31.956C48.3782 34.7727 34.9857 35.7123 23.9658 57.4449C12.9459 79.1775 3.30961 114.879 2.41707 129.233C1.52454 143.586 5.09693 160.125 17.81 164.204C40.7401 171.562 101.91 146.349 101.91 146.349L112.87 202.747H175.547C175.547 202.747 174.34 206.01 177.148 206.563C179.956 207.117 184.663 206.155 188.598 204.716C192.534 203.276 195.059 200.87 198.694 202.007C202.332 203.144 204.792 203.637 208.792 203.852C212.793 204.07 229.426 202.424 238.959 202.621C248.495 202.818 277.083 204.998 282.427 202.989C287.768 200.982 296.465 195.591 292.648 182.795C288.829 169.999 267.449 111.551 240.561 93.7675C209.983 73.5419 176.531 75.0512 176.531 75.0512L174.439 70.0032C174.439 70.0032 194.494 60.0417 192.662 37.9885C190.832 15.9352 178.623 14.7153 178.623 14.7153L181.826 11.5151L176.654 10.8984C176.654 10.8984 176.551 4.87942 177.271 5.11041C177.989 5.34363 168.774 8.31278 168.774 8.31278C168.774 8.31278 150.237 -1.44906 139.22 1.41917C128.2 4.28515 124.327 8.53927 121.364 7.2072C118.402 5.87512 113.975 4.99155 113.975 4.99155C113.975 4.99155 112.365 6.31242 112.867 8.80838C113.37 11.3043 113.854 14.103 113.854 14.103C113.854 14.103 109.992 13.8788 109.297 15.7042C108.602 17.5274 107.873 17.0722 109.544 20.2611C112.782 26.4416 120.873 32.3283 120.873 32.3283C120.873 32.3283 121.064 42.2045 123.706 55.3548C126.347 68.5051 128.027 73.4253 130.355 75.549C132.682 77.6727 135.279 81.0881 135.279 81.0881C135.279 81.0881 115.381 82.4471 100.309 87.2439C85.2368 92.043 49.9457 115.072 49.9457 115.072Z" fill="#FEFEFF"/>
<path fill-rule="evenodd" clip-rule="evenodd" d="M171.604 62.9867L174.313 68.7747C174.313 68.7747 184.681 63.7267 189.336 53.9985C193.992 44.2681 193.559 30.0032 189.706 23.7061C185.854 17.409 177.269 14.3479 177.269 14.3479L181.824 11.3922L176.776 9.91439L178.747 4.37305L167.418 11.76C167.418 11.76 154.236 2.63507 142.175 5.72531C130.115 8.81779 126.655 13.6146 124.444 12.9912C122.235 12.3677 117.301 8.80433 117.301 8.80433C117.301 8.80433 116.097 10.4593 116.193 13.3612C116.29 16.2608 118.285 20.3804 118.285 20.3804C118.285 20.3804 113.184 17.8329 113.237 19.6404C113.305 21.9793 113.684 21.9861 116.07 24.4417C120.396 28.8976 123.212 29.4896 123.212 29.4896L124.444 26.2895C124.444 26.2895 132.254 30.7589 138.605 29.983C144.954 29.2093 159.611 24.5986 163.603 29.2452C168.572 35.0332 166.312 50.4239 166.312 50.4239L170.992 46.3604C170.992 46.3604 180.637 41.7721 181.212 48.206C181.783 54.6444 171.604 62.9867 171.604 62.9867Z" fill="#FFCE26"/>
<path fill-rule="evenodd" clip-rule="evenodd" d="M188.229 166.79C188.229 166.79 177.067 138.78 179.364 122.584C181.66 106.386 186.504 76.408 186.504 76.408C186.504 76.408 231.633 76.9036 249.428 100.789C256.467 110.239 265.561 121.725 272.454 134.405C282.985 153.772 288.379 166.998 290.556 175.163C292.882 183.88 293.653 190.114 291.541 194.741C289.428 199.367 282.254 204.204 271.961 204.099C261.668 203.991 231.449 202.866 231.449 202.866C231.449 202.866 238.103 189.02 235.389 181.317C232.676 173.616 228.247 166.171 228.247 166.171C228.247 166.171 205.949 165.91 199.186 166.294C192.424 166.68 188.229 166.79 188.229 166.79Z" fill="#323232"/>
<path fill-rule="evenodd" clip-rule="evenodd" d="M136.881 144.01C136.881 144.01 130.2 124.475 131.216 114.334C132.232 104.193 143.53 83.0572 143.53 83.0572C143.53 83.0572 138.045 82.1557 136.757 81.456C135.472 80.7541 134.542 81.8261 134.542 81.8261C134.542 81.8261 102.105 83.6335 80.9784 96.3555C59.849 109.078 49.3315 115.072 49.3315 115.072C49.3315 115.072 49.4458 102.007 50.9327 92.1665C51.9351 85.5397 54.5028 80.8393 54.5028 80.8393C54.5028 80.8393 37.437 89.5135 31.2296 86.8718C21.7167 82.8262 17.4379 72.3423 17.4379 72.3423C17.4379 72.3423 8.96776 95.9362 4.50957 112.731C0.0491287 129.525 -0.18858 151.341 11.6521 160.015C23.4905 168.689 45.4922 166.646 67.8011 157.183C90.1123 147.719 105.111 161.369 105.111 161.369L136.881 144.01Z" fill="#323232"/>
<path fill-rule="evenodd" clip-rule="evenodd" d="M288.818 167.148C286.143 159.782 283.219 153.18 280.2 146.463C268.079 119.508 253.032 95.241 226.027 83.5505C212.468 77.6795 196.369 74.0264 177.641 73.3312C176.987 72.1808 176.323 71.0393 175.917 69.6377C185.315 65.0607 191.743 56.3999 193.647 44.0278C195.817 29.9221 190.094 19.2251 180.842 14.3566C182.201 13.3407 184.279 12.6769 184.042 10.6631C183.786 8.48555 180.81 8.74568 178.133 8.69186C178.278 7.02564 181.108 4.58351 179.61 2.90608C178.44 1.59418 175.498 3.52278 174.069 4.13724C171.97 5.03874 169.938 5.85952 168.53 6.47622C159.358 1.66819 142.96 -2.79225 131.102 2.16604C128.103 3.41962 125.195 5.96043 122.484 6.1062C119.131 6.2856 117.025 2.50018 114.112 3.27386C111.022 4.09687 111.558 10.1585 111.65 13.6165C107.898 12.8832 106.488 15.5474 107.095 18.9089C108.376 26.0133 115.541 30.4648 120.268 33.8062C120.358 36.0712 120.066 37.9549 120.145 40.2087C120.012 40.3007 119.864 40.3859 119.705 40.4666C119.696 40.9801 119.671 41.4937 119.624 42.0072C119.631 42.3974 119.234 42.4199 119.216 42.763C119.203 43.0455 119.254 42.1665 119.216 42.4468C119.506 42.3077 120.012 42.514 120.194 42.4468C121.037 55.9066 123.381 69.6803 129.624 77.5136C130.523 78.6416 131.669 79.5431 132.456 80.7137C115.02 82.4674 99.9168 85.7505 86.6566 91.5475C73.3897 97.3467 61.9212 104.767 50.7062 112.107C50.6502 96.6224 53.7785 84.3175 57.9699 73.0778C59.3266 74.7014 60.7551 77.767 63.3856 78.2491C65.7874 78.6887 67.1531 77.4329 68.557 76.2779C69.6536 77.3319 71.7436 78.2917 73.8494 78.0025C75.2443 77.8096 76.0292 76.8767 76.9284 76.6479C80.1712 79.6216 85.199 77.749 85.9166 74.0623C90.8188 74.4906 92.55 71.3533 92.5657 66.6753C92.5882 59.5844 89.0831 53.1931 86.9033 48.2079C84.4163 42.5185 81.88 36.7821 77.4218 33.4339C72.5644 29.7831 64.6347 29.8234 57.3532 31.095C50.2914 32.3284 44.0526 34.3108 39.3791 37.3741C29.9671 43.5456 23.7014 53.9399 18.6938 65.0764C13.5404 76.5381 9.73704 89.0044 6.50552 101.397C4.92228 107.467 3.13272 114.011 1.70421 120.728C0.29589 127.348 -0.744654 135.293 0.719733 142.521C1.99799 148.827 4.79221 154.738 8.60006 158.896C12.5963 163.262 17.1397 166.103 24.6052 167.144C32.1446 168.196 39.5383 166.868 46.1516 165.298C65.9713 160.593 82.3464 153.267 101.433 147.815C105.028 167.039 108.548 186.336 111.775 205.929H114.978C111.345 184.894 107.53 162.338 103.404 141.168C103.05 139.35 102.576 133.064 100.327 133.288C97.9636 133.524 99.4526 137.109 99.7105 138.459C100.164 140.819 100.437 143.079 100.818 144.739C86.8898 149.031 73.5332 153.803 59.45 158.281C47.5577 162.062 26.6436 168.889 14.7559 160.25C9.22798 156.234 5.92021 150.412 4.16878 143.384C2.34334 136.055 3.51844 126.769 5.2766 119.129C8.69649 104.278 12.6165 89.4843 17.5882 76.4058C20.7188 81.8866 23.9302 87.3831 31.2543 88.4707C39.2759 89.6615 45.721 85.7864 51.3229 83.546C49.1073 91.2649 47.5061 101.491 47.5061 112.109C47.5061 114.751 46.6495 121.477 49.724 120.728C51.4328 120.313 50.4573 117.467 50.7085 116.05C68.0165 104.274 86.475 92.2001 111.161 87.1184C117.034 85.9074 124.042 84.8781 130.366 84.0394C132.371 83.7725 135.302 83.0773 137.015 83.1783C138.179 83.2455 139.451 84.1426 140.956 84.0394C135.674 91.7829 131.07 98.9726 130.368 110.881C129.698 122.232 132.467 133.802 134.309 144.124C138.101 165.379 142.559 186.259 147.481 205.931C148.508 205.85 149.861 206.095 150.684 205.808C144.66 181.407 139.117 155.803 134.925 129.474C133.539 120.772 132.25 110.562 135.049 102.018C141.027 105.864 149.271 108.16 158.564 106.696C166.846 105.391 174.089 101.969 179.987 99.0623C176.789 123.351 182.855 146.503 187.004 165.794C178.238 166.877 166.848 167.025 161.15 171.333C160.114 172.116 159.443 173.055 159.057 174.165C157.849 177.635 160.851 180.998 163.489 181.306C166.456 181.651 168.7 179.747 171.369 178.843C174.148 177.899 177.269 177.653 180.481 178.35C177.164 179.577 173.41 181.256 170.015 183.645C167.01 185.762 163.612 188.637 163.121 192.509C162.637 196.335 164.375 199.905 167.922 200.022C167.566 203.563 170.905 204.588 173.955 203.592C174.331 205.729 175.877 206.996 177.525 207.532C184.439 209.775 190.902 203.182 198.455 203.962C200.361 204.16 202.218 204.915 204.117 205.317C210.385 206.642 217.041 205.812 224.062 205.44C233.035 204.962 242.642 204.799 252.011 205.193C260.744 205.561 271.154 205.897 279.22 204.577C287.693 203.191 293.633 199.791 294.117 191.034C294.606 182.115 291.323 174.053 288.818 167.148ZM32.3577 85.5217C24.715 84.8535 22.0442 77.9038 19.0616 72.2234C23.0937 61.9346 27.7851 52.9554 34.2055 45.999C41.1126 38.5156 49.7464 34.8042 63.139 33.564C68.2879 33.0864 73.6364 33.9744 76.5584 36.6408C80.521 40.2558 82.7837 46.4475 85.1765 52.0315C86.3113 54.6777 87.5761 57.5526 88.5 60.7729C89.4486 64.074 90.8905 71.9386 86.0377 70.9922C84.0126 64.5023 82.1917 58.9587 79.7585 52.2781C79.2696 50.9393 78.3726 47.0889 76.6795 47.1068C73.7305 47.1404 76.3409 52.0449 76.9262 53.6326C78.8189 58.7681 80.077 62.8047 81.8508 68.1621C82.4653 70.019 83.9207 74.5086 81.3575 75.058C79.9895 75.3495 79.0544 74.1722 77.9084 73.4568C76.6997 66.9893 73.7844 60.7146 71.1381 54.7427C70.3106 52.8769 68.7498 47.4634 66.3368 50.5581C66.5387 52.7625 67.716 54.5947 68.5525 56.4672C70.2187 60.1943 71.7526 63.9058 73.2304 67.9154C73.9346 69.8239 74.8428 72.0103 74.5849 74.3179C72.5936 75.8653 70.3331 73.8694 69.0458 72.8401C67.3729 67.2517 64.9577 61.7933 62.3967 56.3416C61.7643 54.9939 60.7596 51.9193 59.071 52.0315C56.1175 52.2288 58.9566 56.4403 59.441 57.4495C61.3853 61.5062 62.8564 65.0069 64.6123 69.27C65.0765 70.3957 67.198 74.8382 64.7357 75.1791C63.3744 75.3697 61.9056 73.3716 61.1655 72.2256C58.7054 68.4178 57.2007 63.15 54.393 59.7907C53.6956 58.9565 52.424 57.8307 51.3162 57.575C48.2417 56.8597 46.1426 59.5619 43.5592 59.4207C42.5904 59.3691 41.7719 58.8757 41.0969 58.4362C40.2829 57.9047 38.1636 56.5188 37.6501 58.5595C37.1433 60.5756 41.4333 62.5871 43.6826 62.623C46.2884 62.6656 48.3448 60.5016 50.2084 60.6541C51.767 60.7819 53.0161 63.2734 53.6552 64.4709C54.6195 66.2739 54.9133 67.3413 55.9942 69.2722C54.8415 72.4701 53.5857 75.5626 52.6707 78.9982C46.8132 81.7789 41.0005 86.273 32.3577 85.5217ZM152.646 104.11C145.947 104.133 140.644 101.722 136.148 98.9389C138.273 93.4693 141.426 88.3765 144.766 84.5328C144.061 89.1322 149.307 88.6748 147.966 83.6716C154.034 82.3261 158.871 79.487 163.233 76.038C164.231 75.2486 167.007 73.7035 167.05 72.2212C167.079 71.1941 166.341 70.6626 165.572 70.62C164.206 70.5482 162.145 72.9545 161.017 73.8201C156.736 77.1099 151.823 80.4356 145.012 80.9604C132.503 81.9247 128.704 71.4363 126.175 62.2463C124.495 56.1488 123.603 48.6273 123.363 41.1977C131.322 38.6591 135.354 45.7815 134.67 53.6259C134.439 56.2901 132.598 58.3308 132.701 60.7684C132.775 62.5087 134.214 65.3208 135.777 65.3231C136.361 65.3231 137.296 64.6548 137.379 63.9686C137.515 62.8293 136.011 61.9547 135.901 60.7662C135.807 59.7279 136.623 58.2097 137.009 57.0727C140.213 47.6136 134.353 35.9658 123.343 39.0964C122.58 36.19 125.229 28.6035 122.235 28.5071C121.062 28.4689 120.813 29.1798 120.51 30.2316C118.23 28.6349 115.749 26.935 113.861 24.8136C112.038 22.7661 110.109 20.1782 110.168 16.6888C111.778 16.4735 112.244 17.4625 113.614 17.1822C116.386 16.6126 113.639 8.93855 115.09 6.4695C117.96 7.58404 119.891 9.82435 123.461 9.1785C126.265 8.67168 128.278 6.87091 131.218 5.48501C133.867 4.23815 137.273 3.25143 140.574 3.02269C150.105 2.36562 158.553 5.40204 165.321 8.4407C166.346 8.90042 167.537 9.64047 168.4 9.67186C170.786 9.75484 173.199 7.36203 175.417 6.96285C175.123 8.35324 173.908 9.33996 174.186 10.7797C174.509 12.4526 176.529 11.9525 178.496 11.8875C177.543 12.7621 175.755 12.7397 175.787 14.3498C175.807 15.4263 177.397 16.1551 178.619 16.8121C186.446 21.0192 191.814 28.4465 190.807 41.0676C189.789 53.8412 183.891 61.7529 174.679 66.7987C174.015 65.9846 173.697 64.8252 173.448 63.5985C177.052 60.4769 182.376 57.4517 183.051 51.4103C183.586 46.6112 180.108 43.1599 175.54 43.1621C172.188 43.1621 169.952 45.4114 168.277 46.4856C168.965 35.3939 167.996 25.4482 157.811 24.8158C154.263 24.596 150.493 25.3944 147.1 26.2937C143.743 27.1817 140.615 28.5093 137.251 28.5093C133.477 28.5093 130.351 27.1369 127.648 25.8003C126.603 25.2845 123.6 23.5286 123.461 26.047C123.36 27.8881 127.278 29.1484 128.756 29.7405C131.019 30.6465 133.199 31.391 135.896 31.5883C144.209 32.1938 149.814 27.1346 158.427 28.0182C165.855 28.7784 165.953 39.7355 164.953 47.9635C164.837 48.9233 164.449 49.9257 164.583 50.6725C164.722 51.4349 165.565 52.4463 166.799 52.397C168.18 52.3409 168.866 50.5088 169.876 49.4413C171.163 48.0801 173.376 46.0483 176.155 46.3623C178.897 46.674 180.667 49.1699 179.601 52.397C178.597 55.4446 176.267 57.5167 173.692 59.4139C172.742 60.1136 170.542 61.208 170.246 62.7396C169.963 64.2018 170.829 65.7559 171.23 66.8031C171.723 68.0836 172.255 69.2655 172.708 70.25C173.8 72.636 174.3 74.6768 176.155 76.6524C178.794 76.269 181.584 76.6614 184.403 76.7735C182.777 82.4539 181.618 88.5985 180.463 94.7498C173.338 98.9815 163.944 104.074 152.646 104.11ZM204.604 202.238C202.112 201.69 199.652 200.767 197.093 200.76C191.444 200.746 186.596 204.222 181.456 204.7C179.465 204.886 177.875 204.583 177.025 203.345C178.915 199.861 183.062 198.165 187.367 196.205C189.206 195.369 191.209 194.496 193.523 193.62C195.142 193.007 199.192 192.359 199.186 190.543C199.174 187.482 193.878 190.262 192.783 190.666C187.228 192.711 181.212 194.963 176.901 198.423C176.159 199.02 175.365 200.282 174.439 200.641C174.125 200.762 171.504 201.565 170.869 200.394C169.721 198.275 174.529 195.494 175.547 194.73C180.66 190.89 186.217 188.37 192.783 185.741C193.943 185.277 195.725 184.611 195.739 183.526C195.764 181.499 193.534 182.052 192.292 182.539C185.336 185.273 177.65 188.746 172.223 193.25C171.757 193.637 171.199 193.913 170.622 194.357C169.99 194.846 168.748 196.954 167.422 196.696C166.469 196.512 165.987 194.434 166.314 192.756C166.583 191.379 167.389 190.211 168.283 189.186C172.849 183.965 182.382 180.348 190.568 178.35C192.599 177.854 193.391 177.65 193.4 176.504C193.422 173.241 188.193 176.359 186.26 176.381C185.185 176.394 183.512 175.569 181.826 175.273C177.922 174.587 173.163 174.802 169.882 176.013C168.176 176.643 165.68 178.39 163.85 178.106C162.771 177.937 161.861 176.637 162.004 175.397C162.316 172.705 169.001 171.389 172.47 170.719C181.162 169.037 190.662 168.447 200.049 168.01C202.462 167.897 204.969 167.763 207.436 167.763C212.166 167.763 215.969 167.516 221.102 167.516C222.88 167.516 225.648 167.124 226.89 167.516C227.884 167.83 229.079 170.205 229.723 171.21C232.178 175.051 234.62 179.931 234.647 185.739C234.679 192.478 232.351 197.015 230.216 201.991C221.071 201.834 213.06 204.101 204.604 202.238ZM288.942 197.066C284.773 202.155 272.809 202.579 263.702 202.361C253.381 202.114 243.541 201.827 233.784 201.868C235.984 196.64 238.332 190.601 237.601 183.4C236.935 176.839 233.73 171.678 231.198 167.642C237.993 167.651 244.602 167.936 251.513 168.256C253.55 168.353 256.624 169.099 256.685 167.025C256.739 165.229 254.258 165.397 252.745 165.301C247.472 164.966 242.07 164.677 236.739 164.563C233.912 158.196 230.415 152.038 226.767 146.095C225.899 144.68 224.383 140.821 222.58 140.924C222.306 140.94 221.396 141.328 221.226 141.908C220.741 143.563 223.65 146.714 224.181 147.573C227.491 152.919 230.637 158.914 233.169 164.439C218.573 164.339 203.826 164.368 190.2 165.547C185.849 145.929 179.889 122.73 183.183 98.5689C183.936 93.0388 184.865 87.8024 186.139 82.5638C186.58 80.7429 187.233 78.5743 187.37 77.1458C203.357 78.738 219.261 82.9719 230.707 89.3341C254.422 102.516 267.487 125.78 279.092 151.632C281.88 157.84 284.479 164.345 286.973 171.454C289.233 177.906 293.747 191.202 288.942 197.066Z" fill="black"/>
<path fill-rule="evenodd" clip-rule="evenodd" d="M150.43 33.0702C152.386 33.0052 154.741 33.3191 157.08 34.3014C158.234 34.7858 163.112 36.9296 160.65 38.7349C159.445 39.6185 157.324 37.8984 156.463 37.5037C153.213 36.0169 149.206 35.8286 145.382 37.0126C144.106 37.4073 140.191 39.7239 140.211 36.7659C140.22 35.2724 142.99 34.5054 144.398 34.0569C146.542 33.3707 148.351 33.1397 150.43 33.0702Z" fill="black"/>
<path fill-rule="evenodd" clip-rule="evenodd" d="M174.562 50.6769C175.197 50.5109 176.256 50.4347 176.534 51.538C176.924 53.0966 173.843 56.124 172.593 56.0949C171.748 56.0747 171.214 55.5701 171.116 54.8637C170.921 53.4845 173.659 50.9146 174.562 50.6769Z" fill="black"/>
<path fill-rule="evenodd" clip-rule="evenodd" d="M135.163 67.7919C136.912 67.2986 138.37 69.6959 140.828 69.7609C142.853 69.8147 146.493 67.4197 146.493 70.3776C146.493 72.4026 142.263 73.0507 140.09 72.8399C137.655 72.6022 134.118 70.9607 134.058 69.2698C134.026 68.4288 134.517 67.9736 135.163 67.7919Z" fill="black"/>
<path fill-rule="evenodd" clip-rule="evenodd" d="M150.065 46.6181C151.182 46.5239 152.162 47.3537 152.258 48.4727L152.509 51.4194C152.604 52.5385 151.776 53.5229 150.661 53.6194C149.545 53.7158 148.562 52.8838 148.468 51.7648L148.217 48.8181C148.121 47.699 148.95 46.7146 150.065 46.6181Z" fill="black"/>
<path fill-rule="evenodd" clip-rule="evenodd" d="M129.254 46.6229C130.373 46.5264 131.355 47.3562 131.451 48.4752L131.703 51.4197C131.799 52.5365 130.969 53.521 129.852 53.6151C128.733 53.7116 127.751 52.8818 127.655 51.7628L127.404 48.8183C127.307 47.7015 128.137 46.717 129.254 46.6229Z" fill="black"/>
<path fill-rule="evenodd" clip-rule="evenodd" d="M72.849 122.091L60.2907 125.538L46.0056 73.4525C46.0056 73.4525 49.264 72.5757 54.1595 71.2615C54.7224 71.1113 63.502 85.3111 64.1075 85.1497C72.6696 82.8488 85.7055 82.7367 92.9198 76.5293C95.2229 74.5469 92.8996 63.3072 92.9893 60.513C93.0207 59.5666 98.7079 59.2908 98.7079 59.2908L103.635 73.5736L76.298 105.221L72.849 122.091Z" fill="#ECD4FF"/>
<path fill-rule="evenodd" clip-rule="evenodd" d="M113.013 97.2369C119.376 95.5416 123.152 89.0337 121.445 82.7007C119.741 76.37 113.202 72.6115 106.84 74.3091C106.795 74.3203 103.115 60.6475 103.115 60.6475L49.8228 74.8585L64.1011 127.886L79.2675 123.84C77.59 117.523 81.3643 111.04 87.7107 109.347C94.0616 107.654 100.585 111.39 102.31 117.696L117.393 113.675L112.971 97.2482C113.009 97.2369 113.013 97.2369 113.013 97.2369Z" fill="#FFCE26"/>
<path d="M98.1788 60.6632L101.305 72.2886L102.031 74.9864L104.738 74.298C105.642 74.0558 106.49 73.9459 107.333 73.9459C111.701 73.9459 115.541 76.8836 116.671 81.0884C117.337 83.5642 116.998 86.1498 115.716 88.3722C114.426 90.6058 112.338 92.2047 109.838 92.873C109.82 92.8775 107.035 93.5839 107.035 93.5839L107.781 96.3602L111.683 110.863L101.072 113.695C98.5443 108.501 93.2093 105.064 87.271 105.064C85.9434 105.064 84.6158 105.236 83.3219 105.579C76.0829 107.51 71.4386 114.296 71.9588 121.466L61.2596 124.32L47.755 74.123L98.1788 60.6632ZM100.179 57.1985L44.2812 72.1182L59.257 127.785L75.1635 123.54C73.4053 116.906 77.3611 110.1 84.0193 108.324C85.1069 108.035 86.1968 107.896 87.2665 107.896C92.7765 107.896 97.8177 111.547 99.3315 117.09L115.15 112.868L110.513 95.6246C117.232 93.8328 121.192 86.9998 119.405 80.3551C117.907 74.7891 112.854 71.118 107.331 71.118C106.259 71.118 105.169 71.257 104.086 71.5463C104.041 71.5531 100.179 57.1985 100.179 57.1985Z" fill="black"/>
<path d="M140.7 52.6995C140.014 52.6995 139.413 52.2017 139.303 51.502C139.285 51.4078 139.148 50.8292 138.648 50.753C138.215 50.6745 137.598 51.4123 137.426 51.7128C137.035 52.39 136.17 52.6255 135.493 52.2331C134.815 51.8429 134.582 50.9772 134.972 50.3C135.558 49.2841 137.08 47.6426 139.081 47.952C141.13 48.2682 141.944 50.0555 142.101 51.0625C142.222 51.8361 141.695 52.5605 140.922 52.6816C140.846 52.6928 140.772 52.6995 140.7 52.6995Z" fill="black"/>
<path opacity="0.5" fill-rule="evenodd" clip-rule="evenodd" d="M135.047 50.1815C135.047 55.5188 130.719 59.8447 125.384 59.8447C120.047 59.8447 115.719 55.5166 115.719 50.1815C115.719 44.8442 120.047 40.5161 125.384 40.5161C130.719 40.5161 135.047 44.8442 135.047 50.1815Z" fill="#F0F0F0"/>
<path d="M125.381 43.1052C129.283 43.1052 132.458 46.2807 132.458 50.1827C132.458 54.0847 129.283 57.2602 125.381 57.2602C121.476 57.2602 118.301 54.0847 118.301 50.1827C118.303 46.2807 121.479 43.1052 125.381 43.1052ZM125.381 40.5195C120.043 40.5195 115.715 44.8477 115.715 50.1849C115.715 55.5222 120.043 59.8481 125.381 59.8481C130.718 59.8481 135.044 55.52 135.044 50.1849C135.046 44.8454 130.718 40.5195 125.381 40.5195Z" fill="white"/>
<path opacity="0.5" fill-rule="evenodd" clip-rule="evenodd" d="M160.824 50.1815C160.824 55.5188 156.498 59.8447 151.161 59.8447C145.824 59.8447 141.498 55.5166 141.498 50.1815C141.498 44.8442 145.824 40.5161 151.161 40.5161C156.498 40.5161 160.824 44.8442 160.824 50.1815Z" fill="#F0F0F0"/>
<path d="M151.161 43.1052C155.063 43.1052 158.239 46.2807 158.239 50.1827C158.239 54.0847 155.063 57.2602 151.161 57.2602C147.259 57.2602 144.084 54.0847 144.084 50.1827C144.084 46.2807 147.259 43.1052 151.161 43.1052ZM151.161 40.5195C145.824 40.5195 141.498 44.8477 141.498 50.1849C141.498 55.5222 145.824 59.8481 151.161 59.8481C156.498 59.8481 160.824 55.52 160.824 50.1849C160.824 44.8454 156.501 40.5195 151.161 40.5195Z" fill="white"/>
<path d="M151.161 62.0581C144.609 62.0581 139.278 56.7298 139.278 50.1793C139.278 43.6289 144.609 38.3005 151.161 38.3005C157.714 38.3005 163.047 43.6289 163.047 50.1793C163.047 56.7298 157.714 62.0581 151.161 62.0581ZM151.161 41.1329C146.169 41.1329 142.11 45.1919 142.11 50.1816C142.11 55.169 146.172 59.228 151.161 59.228C156.153 59.228 160.215 55.169 160.215 50.1816C160.215 45.1919 156.153 41.1329 151.161 41.1329Z" fill="black"/>
<path d="M125.54 62.0622C118.994 62.0622 113.668 56.7317 113.668 50.1812C113.668 43.6284 118.994 38.2979 125.54 38.2979C132.086 38.2979 137.41 43.6284 137.41 50.1812C137.41 56.7317 132.086 62.0622 125.54 62.0622ZM125.54 41.1302C120.555 41.1302 116.501 45.1915 116.501 50.1812C116.501 55.1708 120.555 59.2298 125.54 59.2298C130.525 59.2298 134.58 55.1708 134.58 50.1812C134.58 45.1892 130.523 41.1302 125.54 41.1302Z" fill="black"/>
<path d="M191.541 146.685H180.234V170.265H191.541V146.685Z" fill="#FFF6D6"/>
<path fill-rule="evenodd" clip-rule="evenodd" d="M186.93 165.985C186.392 165.985 185.863 166.025 185.347 166.099V147.998H168.925C168.988 147.522 169.021 147.036 169.021 146.54C169.021 140.474 164.103 135.556 158.037 135.556C151.969 135.556 147.053 140.474 147.053 146.54C147.053 147.036 147.087 147.52 147.15 147.998H130.519V202.826H185.347V187.841C185.865 187.915 186.392 187.955 186.93 187.955C192.996 187.955 197.914 183.037 197.914 176.971C197.914 170.903 192.996 165.985 186.93 165.985Z" fill="#FFF6D6"/>
<path d="M158.037 135.555C164.103 135.555 169.021 140.473 169.021 146.54C169.021 147.035 168.988 147.52 168.925 147.997H185.347V166.099C185.865 166.025 186.392 165.985 186.93 165.985C192.996 165.985 197.914 170.903 197.914 176.969C197.914 183.035 192.996 187.953 186.93 187.953C186.392 187.953 185.863 187.912 185.347 187.838V202.823H130.517V147.995H147.147C147.085 147.52 147.051 147.033 147.051 146.537C147.051 140.473 151.969 135.555 158.037 135.555ZM158.037 132.723C150.883 132.723 144.981 138.188 144.288 145.165H130.519H127.687V147.997V202.825V205.658H130.519H185.347H188.179V202.825V190.731C195.214 190.099 200.749 184.167 200.749 176.971C200.749 169.772 195.217 163.843 188.179 163.211V147.997V145.165H185.347H171.786C171.093 138.188 165.191 132.723 158.037 132.723Z" fill="black"/>
<path fill-rule="evenodd" clip-rule="evenodd" d="M129.041 165.985C128.503 165.985 127.973 166.025 127.458 166.099V147.998H111.035C111.098 147.522 111.132 147.036 111.132 146.54C111.132 140.474 106.214 135.556 100.148 135.556C94.0816 135.556 89.1637 140.474 89.1637 146.54C89.1637 147.036 89.1951 147.52 89.2601 147.998H72.6316V202.826H127.46V187.841C127.976 187.915 128.505 187.955 129.043 187.955C135.109 187.955 140.027 183.037 140.027 176.971C140.025 170.903 135.107 165.985 129.041 165.985Z" fill="#F0F0F0"/>
<path d="M100.146 135.555C106.212 135.555 111.13 140.473 111.13 146.54C111.13 147.035 111.096 147.52 111.033 147.997H127.455V166.099C127.971 166.025 128.5 165.985 129.039 165.985C135.105 165.985 140.023 170.903 140.023 176.969C140.023 183.035 135.105 187.953 129.039 187.953C128.5 187.953 127.971 187.912 127.455 187.838V202.823H72.6295V147.995H89.258C89.1952 147.52 89.1616 147.033 89.1616 146.537C89.1616 140.473 94.0795 135.555 100.146 135.555ZM100.146 132.723C92.9919 132.723 87.0895 138.188 86.3965 145.165H72.6272H69.7971V147.997V202.825V205.658H72.6295H127.458H130.29V202.825V190.731C137.325 190.099 142.857 184.167 142.857 176.971C142.857 169.772 137.325 163.843 130.29 163.211V147.997V145.165H127.458H113.897C113.204 138.188 107.302 132.723 100.146 132.723Z" fill="black"/>
<path fill-rule="evenodd" clip-rule="evenodd" d="M132.34 168.774C131.801 168.774 131.274 168.815 130.756 168.889V150.787H114.334C114.397 150.309 114.431 149.825 114.431 149.329C114.431 143.263 109.513 138.345 103.447 138.345C97.3804 138.345 92.4625 143.263 92.4625 149.329C92.4625 149.823 92.4939 150.309 92.559 150.787H75.9304V205.615H130.759V190.63C131.277 190.704 131.804 190.745 132.342 190.745C138.408 190.745 143.326 185.827 143.326 179.761C143.324 173.692 138.406 168.774 132.34 168.774Z" fill="#FFE281"/>
<path d="M191.541 93.7227H180.234V147.425H191.541V93.7227Z" fill="#FFCE26"/>
<path fill-rule="evenodd" clip-rule="evenodd" d="M130.214 90.5718V105.565C135.75 106.131 140.072 110.806 140.072 116.493C140.072 122.181 135.75 126.856 130.214 127.421V145.281H185.38V90.5718H130.214Z" fill="#F0F0F0"/>
<path d="M185.38 90.5742V145.281H130.214V127.422C135.751 126.857 140.072 122.181 140.072 116.494C140.072 110.807 135.751 106.131 130.214 105.566V90.572H185.38V90.5742ZM188.211 87.7441H185.38H130.214H127.384V90.5742V105.568V108.124L129.927 108.385C134.098 108.811 137.242 112.298 137.242 116.498C137.242 120.698 134.098 124.186 129.927 124.609L127.384 124.867V127.424V145.284V148.114H130.214H185.38H188.211V145.284V90.5742V87.7441Z" fill="black"/>
<path fill-rule="evenodd" clip-rule="evenodd" d="M135.015 93.7227V108.716C140.552 109.281 144.873 113.957 144.873 119.644C144.873 125.331 140.552 130.007 135.015 130.572V148.432H190.182V93.7227H135.015Z" fill="#FFCE26"/>
<path fill-rule="evenodd" clip-rule="evenodd" d="M213.433 166.247L210.598 166.386C210.598 166.386 174.778 167.898 170.591 169.189C166.404 170.481 161.009 172.62 160.914 174.296C160.822 175.971 160.264 178.388 162.776 179.413C165.287 180.436 169.752 177.274 170.777 177.18C171.8 177.085 183.802 177.458 183.802 177.458L182.407 179.615C182.407 179.615 168.052 184.605 165.568 189.646C163.081 194.687 166.498 199.042 168.36 198.67C170.221 198.298 168.243 202.227 171.894 202.484C175.547 202.742 175.522 202.02 177.011 204.624C178.501 207.23 183.138 206.712 185.89 205.389C188.641 204.065 195.434 201.204 200.83 202.821C202.884 203.438 207.95 203.642 213.435 203.662V166.247H213.433Z" fill="#FEFEFF"/>
<path fill-rule="evenodd" clip-rule="evenodd" d="M55.7275 65.9399C55.7275 65.9399 62.9957 78.274 65.2718 77.3187C67.548 76.3656 67.1085 74.0154 69.3107 75.1905C71.5129 76.3656 75.1279 76.1727 76.9466 75.1165C78.7653 74.0602 79.7587 78.052 82.0618 76.5853C84.3627 75.1165 84.7305 72.986 86.1994 72.6945C87.6682 72.4007 91.9896 72.8246 91.337 64.9129C90.6844 57.0011 87.2264 53.5341 87.2264 53.3144C87.2242 53.0924 55.7275 65.9399 55.7275 65.9399Z" fill="#FEFEFF"/>
<path d="M172.47 170.718C181.162 169.036 190.662 168.447 200.049 168.009C202.462 167.897 204.969 167.763 207.436 167.763C212.165 167.763 215.969 167.516 221.102 167.516C221.622 167.516 222.228 167.482 222.853 167.446V164.403C211.692 164.417 200.619 164.643 190.197 165.547C190.173 165.437 190.148 165.327 190.123 165.217H186.872C186.914 165.41 186.955 165.601 186.995 165.794C178.229 166.877 166.839 167.025 161.141 171.333C160.105 172.115 159.434 173.055 159.048 174.165C157.84 177.634 160.842 180.998 163.48 181.305C166.446 181.651 168.691 179.747 171.36 178.843C174.138 177.899 177.26 177.652 180.471 178.35C177.155 179.576 173.401 181.256 170.005 183.644C167 185.761 163.603 188.636 163.112 192.509C162.627 196.335 164.365 199.905 167.913 200.022C167.557 203.563 170.896 204.588 173.946 203.592C174.322 205.729 175.867 206.996 177.516 207.532C184.43 209.775 190.893 203.182 198.445 203.962C200.352 204.159 202.208 204.915 204.108 205.316C210.017 206.566 216.272 205.9 222.849 205.507V202.278C216.601 202.771 210.717 203.585 204.599 202.237C202.108 201.69 199.647 200.766 197.089 200.76C191.44 200.746 186.591 204.222 181.451 204.7C179.46 204.886 177.87 204.583 177.02 203.345C178.911 199.86 183.057 198.165 187.363 196.205C189.202 195.368 191.204 194.496 193.519 193.619C195.138 193.007 199.188 192.359 199.181 190.543C199.17 187.481 193.873 190.262 192.779 190.666C187.224 192.711 181.207 194.963 176.897 198.423C176.155 199.019 175.361 200.282 174.434 200.641C174.121 200.762 171.499 201.565 170.864 200.394C169.716 198.275 174.524 195.494 175.542 194.729C180.655 190.89 186.212 188.369 192.779 185.741C193.938 185.277 195.721 184.611 195.734 183.526C195.759 181.498 193.53 182.052 192.287 182.539C185.331 185.273 177.646 188.746 172.219 193.249C171.752 193.637 171.194 193.913 170.618 194.357C169.985 194.846 168.743 196.954 167.418 196.696C166.464 196.512 165.982 194.433 166.31 192.756C166.579 191.379 167.384 190.211 168.279 189.186C172.844 183.965 182.378 180.348 190.563 178.35C192.595 177.854 193.386 177.65 193.395 176.504C193.418 173.241 188.188 176.358 186.255 176.381C185.181 176.394 183.508 175.569 181.821 175.273C177.917 174.587 173.158 174.802 169.878 176.013C168.171 176.643 165.675 178.39 163.845 178.105C162.766 177.937 161.856 176.636 162 175.396C162.316 172.705 169.001 171.389 172.47 170.718Z" fill="black"/>
<path d="M86.901 48.2146C84.414 42.5252 81.8777 36.7888 77.4195 33.4406C72.5622 29.7898 64.6325 29.8301 57.3509 31.1017C50.2891 32.3351 44.0503 34.3175 39.3768 37.3808C29.9648 43.5523 23.6992 53.9465 18.6915 65.0831C16.0476 70.963 13.7624 77.1076 11.7217 83.3711H15.0855C15.8883 81.0052 16.7203 78.6819 17.5837 76.4102C18.9831 78.8591 20.3981 81.3102 22.1899 83.3711H26.6033C23.0578 80.7316 21.1359 76.1725 19.0616 72.2256C23.0937 61.9368 27.7851 52.9576 34.2055 46.0012C41.1126 38.5178 49.7464 34.8064 63.1389 33.5662C68.2878 33.0886 73.6363 33.9766 76.5584 36.643C80.521 40.258 82.7837 46.4497 85.1765 52.0336C86.3112 54.6799 87.576 57.5548 88.5 60.7751C89.4486 64.0762 90.8905 71.9408 86.0376 70.9944C84.0126 64.5045 82.1917 58.9609 79.7585 52.2803C79.2696 50.9415 78.3726 47.0911 76.6795 47.109C73.7305 47.1426 76.3409 52.0471 76.9262 53.6348C78.8189 58.7703 80.0769 62.8069 81.8508 68.1643C82.4653 70.0212 83.9207 74.5108 81.3574 75.0602C79.9895 75.3517 79.0543 74.1744 77.9084 73.459C76.6997 66.9915 73.7843 60.7168 71.1381 54.7449C70.3106 52.8791 68.7498 47.4656 66.3368 50.5603C66.5387 52.7647 67.716 54.5969 68.5525 56.4694C70.2187 60.1965 71.7526 63.908 73.2304 67.9177C73.9346 69.8261 74.8428 72.0126 74.5849 74.3201C72.5935 75.8675 70.3331 73.8716 69.0458 72.8423C67.3729 67.2539 64.9576 61.7955 62.3967 56.3438C61.7643 54.9961 60.7596 51.9215 59.0709 52.0336C56.1175 52.231 58.9566 56.4425 59.441 57.4517C61.3853 61.5084 62.8564 65.0091 64.6123 69.2721C65.0765 70.3979 67.198 74.8404 64.7356 75.1813C63.3744 75.3719 61.9055 73.3738 61.1655 72.2278C58.7054 68.42 57.2007 63.1522 54.393 59.7929C53.6955 58.9587 52.424 57.8329 51.3162 57.5772C48.2417 56.8619 46.1426 59.5641 43.5592 59.4229C42.5904 59.3713 41.7719 58.8779 41.0969 58.4384C40.2828 57.9069 38.1636 56.521 37.6501 58.5617C37.1433 60.5778 41.4333 62.5893 43.6825 62.6252C46.2884 62.6678 48.3448 60.5038 50.2084 60.6563C51.767 60.7841 53.0161 63.2756 53.6552 64.4731C54.6195 66.2761 54.9133 67.3436 55.9942 69.2744C55.9583 69.3731 55.9224 69.4695 55.8865 69.5682C55.9942 69.7139 56.0592 69.9023 56.057 70.1333C56.0547 70.6199 56.0525 71.1312 56.0188 71.6425C56.7678 72.1135 57.4989 72.7122 57.8084 73.5151C57.86 73.376 57.9115 73.2325 57.9654 73.0935C59.3221 74.7171 60.7506 77.7826 63.3811 78.2648C65.7829 78.7043 67.1486 77.4485 68.5525 76.2936C69.6491 77.3476 71.7391 78.3074 73.8449 78.0181C75.2398 77.8252 76.0247 76.8923 76.9239 76.6636C80.1666 79.6372 85.1944 77.7647 85.9121 74.0779C90.8143 74.5063 92.5455 71.3689 92.5612 66.691C92.5881 59.5911 89.0808 53.1998 86.901 48.2146Z" fill="black"/>
<path fill-rule="evenodd" clip-rule="evenodd" d="M168.891 146.674C168.891 152.8 163.924 157.768 157.797 157.768C151.67 157.768 146.703 152.8 146.703 146.674C146.703 140.547 151.67 135.582 157.797 135.582C163.924 135.58 168.891 140.547 168.891 146.674Z" fill="#FFF6D6"/>
<path d="M157.797 159.394C150.783 159.394 145.075 153.686 145.075 146.674C145.075 139.659 150.783 133.954 157.797 133.954C164.812 133.954 170.517 139.661 170.517 146.674C170.517 153.686 164.812 159.394 157.797 159.394ZM157.797 137.208C152.577 137.208 148.331 141.453 148.331 146.674C148.331 151.892 152.577 156.14 157.797 156.14C163.016 156.14 167.263 151.895 167.263 146.674C167.263 141.453 163.016 137.208 157.797 137.208Z" fill="black"/>
<path d="M178.648 148.113H137.15V160.106H178.648V148.113Z" fill="#FFF6D6"/>
</svg>
