<svg width="140" height="140" viewBox="0 0 140 140" fill="none" xmlns="http://www.w3.org/2000/svg">
<path d="M37.4374 84.2071C32.5359 84.2071 28.5625 80.2337 28.5625 75.3321V68.1394H7.63168C4.5491 68.1394 2.05078 70.6377 2.05078 73.7192V97.3673C2.05078 100.45 4.5491 102.948 7.63168 102.948H20.7204C21.0226 102.948 21.3078 103.088 21.4926 103.327L27.3341 110.871C27.7251 111.377 28.4888 111.377 28.8797 110.871L34.7212 103.327C34.906 103.088 35.1912 102.948 35.4935 102.948H48.5822C51.6637 102.948 54.1631 100.45 54.1631 97.3673V84.2071H37.4374Z" fill="#FFCE26"/>
<path d="M102.563 84.2071C107.464 84.2071 111.438 80.2337 111.438 75.3321V68.1394H132.368C135.451 68.1394 137.949 70.6377 137.949 73.7192V97.3673C137.949 100.45 135.451 102.948 132.368 102.948H119.28C118.977 102.948 118.692 103.088 118.507 103.327L112.666 110.871C112.275 111.377 111.512 111.377 111.12 110.871L105.279 103.327C105.094 103.088 104.809 102.948 104.507 102.948H91.4178C88.3363 102.948 85.8369 100.45 85.8369 97.3673V84.2071H102.563Z" fill="#FFCE26"/>
<path d="M102.563 28.8477H37.4375C32.5359 28.8477 28.5625 32.821 28.5625 37.7237V75.332C28.5625 80.2336 32.5359 84.207 37.4375 84.207H58.302C58.7517 84.207 59.1758 84.4153 59.4513 84.771L68.8507 96.908C69.4329 97.6599 70.5672 97.6599 71.1493 96.908L80.5487 84.771C80.8243 84.4153 81.2484 84.207 81.698 84.207H102.563C107.464 84.207 111.439 80.2336 111.439 75.332V37.7237C111.438 32.821 107.464 28.8477 102.563 28.8477Z" fill="#FFCE26"/>
<path d="M43.2256 84.2068V91.8994C43.2256 94.9809 40.7262 97.4803 37.6447 97.4803H2.05615C2.11704 100.509 4.58759 102.949 7.63171 102.949H20.7204C21.0227 102.949 21.3079 103.089 21.4926 103.327L27.3342 110.871C27.7251 111.376 28.4888 111.376 28.8797 110.871L34.7212 103.327C34.906 103.089 35.1912 102.949 35.4935 102.949H48.5822C51.6637 102.949 54.1631 100.45 54.1631 97.3681V84.2068H43.2256Z" fill="#FFE281"/>
<path d="M132.368 68.1394H127.006C127.006 68.1768 127.011 68.2131 127.011 68.2516V91.8996C127.011 94.9811 124.513 97.4805 121.43 97.4805H85.843C85.9028 100.51 88.3734 102.949 91.4175 102.949H104.506C104.808 102.949 105.094 103.089 105.278 103.327L111.12 110.871C111.512 111.377 112.275 111.377 112.666 110.871L118.507 103.327C118.692 103.089 118.977 102.949 119.279 102.949H132.368C135.451 102.949 137.949 100.45 137.949 97.3684V73.7203C137.949 70.6377 135.451 68.1394 132.368 68.1394Z" fill="#FFE281"/>
<path d="M102.563 28.8477H99.8218C100.258 29.8965 100.5 31.0469 100.5 32.2549V69.8633C100.5 74.7649 96.5266 78.7383 91.6251 78.7383H29.2407C30.5769 81.949 33.7428 84.207 37.4374 84.207H58.3009C58.7506 84.207 59.1757 84.4153 59.4513 84.771L68.8496 96.908C69.4318 97.6599 70.5672 97.6599 71.1493 96.908L80.5487 84.771C80.8243 84.4153 81.2483 84.207 81.698 84.207H102.563C107.464 84.207 111.438 80.2336 111.438 75.332V37.7237C111.438 32.821 107.464 28.8477 102.563 28.8477Z" fill="#FFE281"/>
<path d="M81.6713 50.7783H75.489C75.1504 50.7783 74.8749 50.5038 74.8749 50.1652V43.983C74.8749 43.6444 74.6003 43.3699 74.2618 43.3699H65.7371C65.3985 43.3699 65.124 43.6444 65.124 43.983V50.1652C65.124 50.5038 64.8495 50.7783 64.5109 50.7783H58.3287C57.9901 50.7783 57.7156 51.0528 57.7156 51.3914V59.916C57.7156 60.2546 57.9901 60.5291 58.3287 60.5291H64.5109C64.8495 60.5291 65.124 60.8036 65.124 61.1422V67.3245C65.124 67.6631 65.3985 67.9376 65.7371 67.9376H74.2618C74.6003 67.9376 74.8749 67.6631 74.8749 67.3245V61.1422C74.8749 60.8036 75.1504 60.5291 75.489 60.5291H81.6713C82.0099 60.5291 82.2844 60.2546 82.2844 59.916V51.3914C82.2844 51.0528 82.0099 50.7783 81.6713 50.7783Z" fill="white"/>
<path d="M37.4376 84.2069C32.8554 84.2069 29.0849 80.7334 28.6128 76.2761H24.727C24.4579 76.2761 24.24 76.494 24.24 76.7621V81.6658C24.24 81.9339 24.0221 82.1518 23.754 82.1518H18.8503C18.5822 82.1518 18.3643 82.3697 18.3643 82.6389V89.4001C18.3643 89.6682 18.5811 89.886 18.8503 89.886H23.754C24.0221 89.886 24.24 90.1039 24.24 90.372V95.2758C24.24 95.5439 24.4579 95.7617 24.727 95.7617H31.4871C31.7563 95.7617 31.9742 95.5439 31.9742 95.2758V90.372C31.9742 90.1039 32.1921 89.886 32.4602 89.886H37.3639C37.632 89.886 37.8499 89.6682 37.8499 89.4001V84.2069H37.4376Z" fill="white"/>
<path d="M102.562 84.2069C107.145 84.2069 110.915 80.7334 111.387 76.2761H115.273C115.542 76.2761 115.76 76.494 115.76 76.7621V81.6658C115.76 81.9339 115.978 82.1518 116.246 82.1518H121.15C121.418 82.1518 121.636 82.3697 121.636 82.6389V89.4001C121.636 89.6682 121.419 89.886 121.15 89.886H116.246C115.978 89.886 115.76 90.1039 115.76 90.372V95.2758C115.76 95.5439 115.542 95.7617 115.273 95.7617H108.513C108.244 95.7617 108.026 95.5439 108.026 95.2758V90.372C108.026 90.1039 107.808 89.886 107.54 89.886H102.636C102.368 89.886 102.15 89.6682 102.15 89.4001V84.2069H102.562Z" fill="white"/>
<path d="M74.2618 41.3191H65.7382C64.2685 41.3191 63.0743 42.5132 63.0743 43.983V48.7275H58.3287C56.86 48.7275 55.6648 49.9228 55.6648 51.3914V59.916C55.6648 61.3847 56.86 62.5799 58.3287 62.5799H63.0743V67.3245C63.0743 68.7931 64.2685 69.9884 65.7382 69.9884H74.2618C75.7315 69.9884 76.9256 68.7931 76.9256 67.3245V62.5799H81.6713C83.1399 62.5799 84.3351 61.3847 84.3351 59.916V51.3914C84.3351 49.9228 83.1399 48.7275 81.6713 48.7275H76.9256V43.983C76.9256 42.5132 75.7315 41.3191 74.2618 41.3191ZM80.2336 52.8291V58.4784H75.489C74.0193 58.4784 72.8241 59.6736 72.8241 61.1422V65.8868H67.1759V61.1422C67.1759 59.6725 65.9807 58.4784 64.5109 58.4784H59.7664V52.8291H64.5109C65.9807 52.8291 67.1759 51.6339 67.1759 50.1642V45.4196H72.8241V50.1642C72.8241 51.6339 74.0193 52.8291 75.489 52.8291H80.2336Z" fill="black"/>
<path d="M132.368 66.0885H113.488V37.7237C113.488 31.6984 108.587 26.7969 102.562 26.7969H49.1887C48.0555 26.7969 47.138 27.7155 47.138 28.8477C47.138 29.9809 48.0555 30.8984 49.1887 30.8984H102.562C106.325 30.8984 109.387 33.9607 109.387 37.7237C109.387 77.9723 109.407 75.5156 109.346 76.0753C109.023 79.0596 106.749 81.5131 103.765 82.0482C102.89 82.2031 104.161 82.1561 81.6978 82.1561C80.6222 82.1561 79.5862 82.6645 78.9272 83.5158L69.9999 95.0439L61.0726 83.5147C60.4135 82.6645 59.3775 82.1561 58.3019 82.1561C35.7359 82.1561 37.306 82.1689 36.8349 82.1283C33.5569 81.8378 30.9945 79.2519 30.6538 76.07C30.594 75.5188 30.6132 77.9509 30.6132 37.7226C30.6132 33.9596 33.6744 30.8984 37.4374 30.8984H39.6185C40.7507 30.8984 41.6692 29.9799 41.6692 28.8477C41.6692 27.7155 40.7507 26.7969 39.6185 26.7969H37.4374C31.4132 26.7969 26.5116 31.6984 26.5116 37.7226V66.0885H7.63167C3.4233 66.0885 0 69.5118 0 73.7191V86.0579C0 87.1912 0.918577 88.1087 2.05078 88.1087C3.18298 88.1087 4.10155 87.1912 4.10155 86.0579V73.7191C4.10155 71.773 5.68557 70.19 7.63167 70.19H26.5116V74.2254H24.7268C23.3276 74.2254 22.189 75.364 22.189 76.7621V80.101H18.8501C17.4508 80.101 16.3133 81.2397 16.3133 82.6378V89.399C16.3133 90.7982 17.4508 91.9368 18.8501 91.9368H22.189V95.2747C22.189 96.6739 23.3276 97.8125 24.7268 97.8125H31.4869C32.8861 97.8125 34.0247 96.6739 34.0247 95.2747V91.9368H37.3637C38.7618 91.9368 39.9004 90.7982 39.9004 89.399V86.2576H52.1122V97.3682C52.1122 99.3143 50.5282 100.898 48.5821 100.898H35.4934C34.5641 100.898 33.6691 101.336 33.0998 102.072L28.1074 108.519L23.114 102.072C22.5447 101.337 21.6507 100.898 20.7203 100.898H7.63167C5.6845 100.898 4.10155 99.3143 4.10155 97.3682V95.6293C4.10155 94.496 3.18298 93.5785 2.05078 93.5785C0.918577 93.5785 0 94.496 0 95.6293V97.3682C0 101.575 3.4233 105 7.63167 105H20.1937L25.7127 112.126C26.925 113.692 29.2877 113.693 30.501 112.126L36.02 105H48.5821C52.7904 105 56.2137 101.575 56.2137 97.3682V86.2576H58.0092L67.2292 98.1639C68.6316 99.9754 71.3681 99.9776 72.7716 98.1639L81.9916 86.2576H83.7871V97.3682C83.7871 101.577 87.2104 105 91.4177 105H103.98L109.499 112.127C110.711 113.692 113.075 113.693 114.287 112.127L119.807 105H121.172C122.304 105 123.223 104.081 123.223 102.949C123.223 101.817 122.304 100.898 121.172 100.898H119.28C118.35 100.898 117.455 101.337 116.886 102.072L111.893 108.519L106.9 102.072C106.332 101.337 105.437 100.898 104.506 100.898H91.4177C89.4716 100.898 87.8886 99.3143 87.8886 97.3682V86.2576H100.099V89.4C100.099 90.7982 101.238 91.9368 102.637 91.9368H105.976V95.2757C105.976 96.6749 107.114 97.8125 108.513 97.8125H115.274C116.672 97.8125 117.811 96.6739 117.811 95.2757V91.9368H121.15C122.549 91.9368 123.686 90.7982 123.686 89.4V82.6389C123.686 81.2397 122.549 80.101 121.15 80.101H117.811V76.7632C117.811 75.364 116.672 74.2254 115.274 74.2254H113.489V70.19H132.368C134.315 70.19 135.898 71.773 135.898 73.7201V97.3682C135.898 99.3143 134.315 100.898 132.368 100.898H130.742C129.609 100.898 128.692 101.816 128.692 102.949C128.692 104.081 129.609 105 130.742 105H132.368C136.576 105 140 101.575 140 97.3682V73.7201C140 69.5118 136.576 66.0885 132.368 66.0885ZM35.7989 87.8352H32.46C31.0607 87.8352 29.9232 88.9728 29.9232 90.372V93.7109H26.2905V90.372C26.2905 88.9728 25.1519 87.8352 23.7538 87.8352H20.4148V84.2026H23.7538C25.1519 84.2026 26.2905 83.0651 26.2905 81.6658V78.3269H26.9261C28.07 82.3793 31.5371 85.5004 35.7989 86.1369V87.8352ZM116.246 84.2026H119.585V87.8352H116.246C114.848 87.8352 113.709 88.9728 113.709 90.372V93.7109H110.078V90.372C110.078 88.9728 108.939 87.8352 107.54 87.8352H104.201V86.1359C108.363 85.5164 111.905 82.4765 113.074 78.3269H113.709V81.6658C113.709 83.0651 114.848 84.2026 116.246 84.2026Z" fill="black"/>
</svg>
