<svg width="54" height="41" viewBox="0 0 54 41" fill="none" xmlns="http://www.w3.org/2000/svg">
<path d="M4.36094 16.3741L4.27931 16.7999L3.8448 16.8204C2.18588 16.899 0.88623 18.2579 0.88623 19.914C0.88623 21.57 2.1856 22.9293 3.84452 23.0076L4.27903 23.0283L4.36066 23.4541C6.0504 32.2562 13.8144 38.6453 22.8223 38.6453H26.3492V1.18262H22.8226C13.8144 1.18262 6.0504 7.57174 4.36094 16.3741Z" fill="white"/>
<path d="M17.8443 21.2913C18.3488 10.6541 23.4355 2.25122 29.2061 2.5229L25.1314 2.33145C15.7051 1.88769 7.53738 8.24196 5.40814 17.0585C3.46574 17.059 1.84736 18.5806 1.75463 20.5341C1.66217 22.4876 3.12924 24.1545 5.06275 24.3371C6.34852 33.3143 13.3435 38.4809 22.7697 38.9249L26.8444 39.1169C21.0739 38.8452 17.3399 31.9288 17.8443 21.2913Z" fill="#FFD700"/>
<path d="M27.6724 39.0214C27.6724 39.3764 27.3834 39.6641 27.0272 39.6641H23.0408C13.6417 39.6641 5.5215 33.0943 3.57605 23.982C1.53898 23.6766 0 21.9301 0 19.8322C0 17.734 1.53898 15.988 3.57605 15.6818C5.5215 6.57006 13.6417 0 23.0408 0H27.3718C27.5378 0 27.6724 0.133902 27.6724 0.299343V39.0214ZM23.0408 1.10082C14.0329 1.10082 6.26891 7.48967 4.57917 16.2921L4.49755 16.7178L4.06303 16.7386C2.40411 16.8169 1.10474 18.1758 1.10474 19.8322C1.10474 21.4885 2.40411 22.8475 4.06303 22.926L4.49755 22.9465L4.57917 23.3723C6.26891 32.1744 14.0329 38.5635 23.0408 38.5635H26.5677V1.10082H23.0408Z" fill="#231F20"/>
<path d="M37.5801 19.8317C37.5801 30.4808 32.8968 39.1134 27.1199 39.1134C21.343 39.1134 16.6597 30.4808 16.6597 19.8317C16.6597 9.18262 21.343 0.549805 27.1199 0.549805C32.8968 0.549805 37.5801 9.18262 37.5801 19.8317Z" fill="white"/>
<path d="M27.1199 39.6644C24.1135 39.6644 21.3141 37.5562 19.2376 33.7284C17.2191 30.0074 16.1074 25.0723 16.1074 19.8322C16.1074 14.592 17.2191 9.657 19.2376 5.93624C21.3141 2.10841 24.1135 0 27.1199 0C30.1262 0 32.9254 2.10813 35.0022 5.93596C37.0206 9.65672 38.1323 14.5917 38.1323 19.8319C38.1323 25.0721 37.0206 30.0071 35.0022 33.7281C32.9254 37.5562 30.1262 39.6644 27.1199 39.6644ZM27.1199 1.10082C24.5381 1.10082 22.084 3.00395 20.2093 6.45967C18.2764 10.0225 17.2119 14.7718 17.2119 19.8322C17.2119 24.8928 18.2764 29.6419 20.2093 33.205C22.084 36.6604 24.5381 38.5635 27.1199 38.5635C29.7017 38.5635 32.1558 36.6604 34.0304 33.205C35.9634 29.6416 37.0279 24.8925 37.0279 19.8322C37.0279 14.7718 35.9634 10.0225 34.0304 6.45967C32.1558 3.00367 29.702 1.10082 27.1199 1.10082Z" fill="#231F20"/>
<path d="M33.0781 21.1393C33.0781 28.7186 30.1568 34.8626 26.5532 34.8626C22.9497 34.8626 20.0283 28.7186 20.0283 21.1393C20.0283 13.56 22.9497 7.41602 26.5532 7.41602C30.1568 7.41602 33.0781 13.56 33.0781 21.1393Z" fill="#FFD700"/>
<path d="M27.6721 4.62402H26.5676V34.5506H27.6721V4.62402Z" fill="#231F20"/>
<path d="M33.2281 19.1055H19.9734V20.206H33.2281V19.1055Z" fill="#231F20"/>
<path d="M33.1496 27.3201L21.658 10.9082L20.752 11.5381L32.2436 27.9499L33.1496 27.3201Z" fill="#231F20"/>
<path d="M33.169 10.5327L32.2212 9.96777L21.0169 28.6341L21.9647 29.199L33.169 10.5327Z" fill="#231F20"/>
<path d="M27.1199 35.2364C22.8028 35.2364 19.4211 28.3921 19.4211 19.6553C19.4211 10.9182 22.8028 4.07422 27.1199 4.07422C31.437 4.07422 34.8187 10.9182 34.8187 19.6553C34.8187 28.3918 31.4373 35.2364 27.1199 35.2364ZM27.1199 5.17449C23.5455 5.17449 20.5256 11.8057 20.5256 19.655C20.5256 27.5041 23.5455 34.1353 27.1199 34.1353C30.6943 34.1353 33.7142 27.5041 33.7142 19.655C33.7142 11.8057 30.6943 5.17449 27.1199 5.17449Z" fill="#231F20"/>
<path d="M48.0396 4.89635L48.3272 4.29545L46.5495 3.47987C46.3224 3.3277 46.0844 3.19131 45.8356 3.0718C40.6318 0.57192 32.6512 6.32169 28.0101 15.9142C23.3693 25.5068 23.8257 35.3096 29.0296 37.8095C29.1865 37.8847 29.3458 37.9525 29.5077 38.0128L31.7047 39.0207L32.0087 38.3852C36.9449 38.1605 43.0326 32.8678 46.8551 24.9667C50.7222 16.973 51.0492 8.83429 48.0396 4.89635Z" fill="white"/>
<path d="M31.5874 17.4004C35.7157 8.86744 42.4868 3.37524 47.5952 4.02594L46.599 3.5689C46.3719 3.41674 46.134 3.28007 45.8852 3.16055C40.6813 0.660953 32.7005 6.41072 28.0597 16.0033C23.4189 25.5955 23.8753 35.3986 29.0792 37.8982C29.236 37.9734 29.3954 38.0412 29.5573 38.1013L31.7543 39.1094L31.8686 38.8704C27.3705 35.8241 27.1765 26.5173 31.5874 17.4004Z" fill="#FFD700"/>
<path d="M31.9684 39.748L29.2944 38.521C29.1217 38.456 28.9521 38.3832 28.7897 38.3055C26.0815 37.0047 24.4787 33.8945 24.2763 29.5476C24.0795 25.3225 25.2289 20.3961 27.5125 15.6758C31.4259 7.58684 37.8695 1.9375 43.1816 1.9375C44.2189 1.9375 45.1926 2.15246 46.0752 2.57658C46.3301 2.69886 46.5802 2.84079 46.8196 2.99848L49.0665 4.02931L48.6795 4.83798C50.1141 6.89105 50.7696 9.85516 50.5775 13.4404C50.3765 17.1918 49.2612 21.2606 47.3524 25.2063C45.4666 29.1039 42.9995 32.4783 40.2183 34.9646C37.5627 37.3383 34.8565 38.6978 32.368 38.913L31.9684 39.748ZM43.1816 3.03804C38.2779 3.03804 32.2436 8.43148 28.5076 16.1535C26.302 20.7126 25.1911 25.4509 25.3797 29.4964C25.5624 33.4206 26.9436 36.1971 29.2692 37.3142C29.4077 37.3804 29.5532 37.4423 29.7015 37.4979L29.7387 37.5131L31.4406 38.2942L31.6527 37.8507L31.9834 37.8357C36.8194 37.6152 42.7302 32.2251 46.3573 24.728C50.0422 17.1116 50.553 9.0938 47.6 5.23L47.3957 4.96275L47.5875 4.56215L46.2779 3.96153L46.2412 3.9369C46.0341 3.79802 45.8167 3.6738 45.5957 3.56757C44.8638 3.21621 44.0515 3.03804 43.1816 3.03804Z" fill="#231F20"/>
<path d="M50.3825 26.3644C45.7416 35.9569 37.7608 41.7067 32.5569 39.2071C27.353 36.7072 26.8966 26.9044 31.5377 17.3119C36.1785 7.71932 44.1594 1.96955 49.3632 4.46915C54.5671 6.96902 55.0233 16.7721 50.3825 26.3644Z" fill="white"/>
<path d="M50.3825 26.8067C45.7416 36.3996 37.7608 42.1491 32.5569 39.6497C27.353 37.1499 26.8966 27.3468 31.5377 17.7542C36.1785 8.1617 44.1594 2.41193 49.3632 4.91153C54.5671 7.41168 55.0233 17.2145 50.3825 26.8067Z" fill="#FFD700"/>
<path d="M48.7305 25.4358L47.7357 24.9577C49.3619 21.5963 50.1812 18.1046 50.0424 15.1256C49.9094 12.2685 48.9132 10.2517 47.2368 9.44634L47.7166 8.45508C49.7753 9.44385 50.9931 11.7949 51.1458 15.0747C51.2929 18.233 50.435 21.9125 48.7305 25.4358Z" fill="#231F20"/>
<path d="M34.7672 35.2206C32.7084 34.2319 31.4904 31.8808 31.3377 28.6011C31.1908 25.443 32.0485 21.7635 33.7532 18.2402L34.748 18.718C33.1218 22.0797 32.3025 25.5714 32.4413 28.5501C32.5743 31.4072 33.5705 33.424 35.2466 34.2294L34.7672 35.2206Z" fill="#231F20"/>
<path d="M35.0729 40.4797C34.0357 40.4797 33.062 40.2648 32.1793 39.8404C29.4712 38.5398 27.8684 35.4296 27.666 31.0828C27.4691 26.8577 28.6186 21.9312 30.9022 17.2109C34.8156 9.122 41.2591 3.47266 46.5713 3.47266C47.6085 3.47266 48.5822 3.68762 49.4649 4.11173C52.173 5.41258 53.7761 8.52276 53.9782 12.8696C54.1751 17.0947 53.0256 22.0214 50.742 26.7415C46.8286 34.8304 40.3851 40.4797 35.0729 40.4797ZM46.571 4.5732C41.6672 4.5732 35.6329 9.96664 31.897 17.689C29.6914 22.2475 28.5808 26.9858 28.769 31.0316C28.9517 34.9563 30.333 37.7325 32.6585 38.8494C33.3904 39.201 34.2028 39.3792 35.0727 39.3792C39.9764 39.3792 46.0107 33.986 49.7467 26.2637C51.9523 21.7049 53.0631 16.9666 52.8746 12.9208C52.6919 8.99668 51.3106 6.22042 48.9851 5.10327C48.2532 4.75137 47.4411 4.5732 46.571 4.5732Z" fill="#231F20"/>
<path d="M41.2346 5.3491L37.8545 3.55957L37.3048 4.59058L40.6849 6.38011L41.2346 5.3491Z" fill="#231F20"/>
<path d="M39.5452 6.90085L36.165 5.11133L35.6154 6.1421L38.9956 7.93162L39.5452 6.90085Z" fill="#231F20"/>
<path d="M37.8565 8.29636L34.4763 6.50684L33.9267 7.53761L37.3068 9.32713L37.8565 8.29636Z" fill="#231F20"/>
<path d="M36.5017 9.72898L33.1216 7.93945L32.572 8.97022L35.9521 10.7598L36.5017 9.72898Z" fill="#231F20"/>
<path d="M35.2498 11.519L31.8696 9.72949L31.32 10.7603L34.7002 12.5498L35.2498 11.519Z" fill="#231F20"/>
<path d="M16.9978 33.7705H15.8933V34.9742H16.9978V33.7705Z" fill="#231F20"/>
<path d="M14.3401 32.5664H13.2356V33.7701H14.3401V32.5664Z" fill="#231F20"/>
<path d="M15.9968 30.9502H14.8923V32.1542H15.9968V30.9502Z" fill="#231F20"/>
</svg>
