<svg width="47" height="65" viewBox="0 0 47 65" fill="none" xmlns="http://www.w3.org/2000/svg">
<g clip-path="url(#clip0)">
<path d="M46.7629 11.834C46.5735 7.7495 44.9892 4.78598 42.3026 3.49002C41.978 3.3333 41.633 3.202 41.2752 3.09871L40.2288 2.6167C40.0115 2.47803 39.7856 2.35171 39.5552 2.24059C38.6457 1.8018 37.6487 1.57931 36.5921 1.57931C34.5549 1.57931 32.3755 2.40324 30.2199 3.97725C28.5063 1.56934 26.3521 0.183385 24.0299 0.0233481C23.9602 0.0117133 23.8757 0.00269022 23.7812 0.00269022H20.2717C12.3337 0.00269022 5.33987 5.4304 3.31307 13.0302C1.44929 13.7205 0.177979 15.4961 0.177979 17.5666C0.177979 19.6366 1.44929 21.4122 3.31307 22.1024C5.33987 29.702 12.3337 35.1298 20.2717 35.1298H23.502L23.5404 35.1293C23.5528 35.1295 23.5649 35.1298 23.5772 35.1298C24.406 35.1298 25.2262 34.9716 26.0237 34.6589L27.1273 35.1644C27.1937 35.1958 27.2606 35.2257 27.3283 35.2546L28.1967 35.6436L28.2335 35.5659C28.8053 35.7169 29.4032 35.7932 30.0215 35.7932C34.9293 35.7932 40.5472 30.9764 44.0008 23.8073C45.9521 19.7568 46.933 15.5046 46.7629 11.834Z" fill="white"/>
<path d="M5.0379 14.96L4.9717 15.3064L4.61959 15.3233C3.27543 15.3872 2.22241 16.4929 2.22241 17.8409C2.22241 19.1889 3.27543 20.2946 4.61959 20.3585L4.9717 20.3751L5.0379 20.7218C6.40697 27.885 12.6985 33.0843 19.9975 33.0843H22.8555V2.59755H19.9975C12.6985 2.59755 6.40697 7.79683 5.0379 14.96Z" fill="white"/>
<path d="M15.9639 18.9624C16.3725 10.3061 20.4944 3.46802 25.1704 3.68908L21.8687 3.53284C14.2304 3.17169 7.61213 8.34296 5.88644 15.5175C4.31284 15.518 3.00143 16.7563 2.92621 18.346C2.85123 19.9356 4.04021 21.2921 5.60693 21.441C6.6488 28.7464 12.3168 32.9508 19.9549 33.312L23.2568 33.4682C18.5808 33.2472 15.5553 27.6186 15.9639 18.9624Z" fill="#FFD700"/>
<path d="M20.1745 2.53122C12.8755 2.53122 6.58395 7.73051 5.21488 14.8937L5.14868 15.2401L4.79657 15.257C3.45241 15.3206 2.39939 16.4266 2.39939 17.7746C2.39939 19.1225 3.45241 20.2283 4.79657 20.2922L5.14868 20.3088L5.21488 20.6552C6.58395 27.8187 12.8755 33.0177 20.1745 33.0177H23.0325V2.53122H20.1745ZM23.9275 33.3903C23.9275 33.6792 23.6935 33.9133 23.4048 33.9133H20.1745C12.5583 33.9133 5.97843 28.5671 4.40198 21.152C2.75127 20.9029 1.50439 19.482 1.50439 17.7746C1.50439 16.0671 2.75127 14.646 4.40198 14.397C5.97843 6.98185 12.5583 1.63559 20.1745 1.63559H23.684C23.8186 1.63559 23.9275 1.74457 23.9275 1.87921V33.3903Z" fill="#231F20"/>
<path d="M31.9559 17.7745C31.9559 26.4405 28.1612 33.4657 23.48 33.4657C18.7989 33.4657 15.0039 26.4405 15.0039 17.7745C15.0039 9.10857 18.7989 2.08334 23.48 2.08334C28.1612 2.08334 31.9559 9.10857 31.9559 17.7745Z" fill="white"/>
<path d="M23.4798 2.53122C21.3877 2.53122 19.3991 4.08006 17.8801 6.8921C16.3139 9.79151 15.4514 13.6564 15.4514 17.7746C15.4514 21.8928 16.3139 25.7574 17.8801 28.6568C19.3991 31.4691 21.3877 33.0177 23.4798 33.0177C25.5718 33.0177 27.5604 31.4691 29.0794 28.6568C30.6457 25.7574 31.5082 21.8928 31.5082 17.7746C31.5082 13.6564 30.6457 9.79151 29.0794 6.8921C27.5604 4.08006 25.5718 2.53122 23.4798 2.53122ZM23.4798 33.9133C21.0437 33.9133 18.7754 32.1978 17.0926 29.0828C15.4571 26.0549 14.5562 22.0388 14.5562 17.7746C14.5562 13.5101 15.4571 9.49424 17.0926 6.46636C18.7754 3.35111 21.0437 1.63559 23.4798 1.63559C25.9159 1.63559 28.1842 3.35111 29.8669 6.46636C31.5025 9.49424 32.4034 13.5101 32.4034 17.7746C32.4034 22.0388 31.5025 26.0549 29.8669 29.0828C28.1842 32.1978 25.9159 33.9133 23.4798 33.9133Z" fill="#231F20"/>
<path d="M28.308 18.8385C28.308 25.0063 25.9407 30.0061 23.0208 30.0061C20.1007 30.0061 17.7336 25.0063 17.7336 18.8385C17.7336 12.6706 20.1007 7.6708 23.0208 7.6708C25.9407 7.6708 28.308 12.6706 28.308 18.8385Z" fill="#FFD700"/>
<path d="M23.9275 29.7523H23.0325V5.39872H23.9275V29.7523Z" fill="#231F20"/>
<path d="M28.4294 18.0782H17.689V17.1825H28.4294V18.0782Z" fill="#231F20"/>
<path d="M27.6297 24.3808L18.3186 11.0244L19.0527 10.512L28.3638 23.8684L27.6297 24.3808Z" fill="#231F20"/>
<path d="M19.3032 25.3982L18.5349 24.9385L27.6128 9.74712L28.3808 10.2066L19.3032 25.3982Z" fill="#231F20"/>
<path d="M23.4799 5.84662C20.5835 5.84662 18.1365 11.243 18.1365 17.6304C18.1365 24.0181 20.5835 29.4145 23.4799 29.4145C26.3763 29.4145 28.8233 24.0181 28.8233 17.6304C28.8233 11.243 26.3763 5.84662 23.4799 5.84662ZM23.4799 30.3101C19.9817 30.3101 17.2415 24.7404 17.2415 17.6304C17.2415 10.5204 19.9817 4.95099 23.4799 4.95099C26.978 4.95099 29.7183 10.5204 29.7183 17.6304C29.7183 24.7404 26.978 30.3101 23.4799 30.3101Z" fill="#231F20"/>
<path d="M40.431 5.62053L40.664 5.13163L39.2235 4.46774C39.0394 4.34403 38.8468 4.23291 38.6451 4.13556C34.4285 2.10139 27.9616 6.78044 24.201 14.5866C20.4405 22.3928 20.8102 30.3701 25.027 32.4046C25.1542 32.4658 25.2835 32.5207 25.4145 32.5698L27.1947 33.3902L27.441 32.873C31.441 32.69 36.3739 28.3827 39.4713 21.9535C42.6049 15.4483 42.8697 8.82506 40.431 5.62053Z" fill="white"/>
<path d="M27.0999 15.7954C30.4452 8.85143 35.9317 4.38204 40.0711 4.91154L39.2639 4.53971C39.0798 4.41576 38.8871 4.30464 38.6854 4.20752C34.4689 2.17311 28.002 6.85216 24.2414 14.6583C20.4806 22.4647 20.8505 30.4419 25.0674 32.4763C25.1943 32.5375 25.3236 32.5924 25.4548 32.6418L27.2349 33.4619L27.3279 33.2672C23.6829 30.7883 23.5256 23.2148 27.0999 15.7954Z" fill="#FFD700"/>
<path d="M36.4948 4.10781C32.5212 4.10781 27.6317 8.49671 24.6043 14.7811C22.8172 18.4907 21.9169 22.3467 22.0695 25.6391C22.2176 28.8325 23.337 31.092 25.2214 32.0009C25.3337 32.0551 25.4516 32.1054 25.5717 32.1505L25.6018 32.1631L26.9808 32.7985L27.1529 32.4378L27.4207 32.4257C31.3393 32.2462 36.1289 27.8599 39.0683 21.7588C42.0539 15.5609 42.4682 9.03594 40.075 5.89172L39.9096 5.67446L40.0651 5.34845L39.0037 4.85955L38.9741 4.83937C38.8061 4.72659 38.6303 4.62544 38.4509 4.53901C37.8579 4.25289 37.1997 4.10781 36.4948 4.10781ZM27.4086 33.9817L25.2419 32.9832C25.1019 32.9303 24.9645 32.8712 24.8328 32.8078C22.6383 31.7492 21.3394 29.2181 21.1755 25.6807C21.0162 22.2423 21.9475 18.2333 23.798 14.3922C26.969 7.80955 32.1902 3.21218 36.4948 3.21218C37.3355 3.21218 38.1244 3.38717 38.8395 3.73218C39.0462 3.8319 39.2488 3.9473 39.4427 4.07576L41.2635 4.91464L40.9498 5.5726C42.1123 7.24324 42.6435 9.65542 42.4879 12.5731C42.3248 15.6259 41.4213 18.9368 39.8743 22.1478C38.3462 25.3198 36.3472 28.0658 34.0936 30.0888C31.9415 32.0206 29.7489 33.1269 27.7323 33.3024L27.4086 33.9817Z" fill="#231F20"/>
<path d="M42.3298 23.0904C38.5693 30.8965 32.1024 35.5756 27.8856 33.5414C23.669 31.5072 23.299 23.5299 27.0596 15.7237C30.8202 7.91728 37.2871 3.23823 41.5039 5.27265C45.7205 7.30682 46.0904 15.2842 42.3298 23.0904Z" fill="white"/>
<path d="M42.3298 23.4504C38.5693 31.2566 32.1024 35.9356 27.8856 33.9014C23.669 31.867 23.299 23.8899 27.0596 16.0837C30.8202 8.27733 37.2871 3.59828 41.5039 5.63269C45.7205 7.66686 46.0904 15.6442 42.3298 23.4504Z" fill="#FFD700"/>
<path d="M40.9911 22.3345L40.1848 21.9455C41.5027 19.21 42.1666 16.3685 42.0541 13.9444C41.9464 11.6194 41.1389 9.97818 39.7808 9.32284L40.1694 8.51601C41.8377 9.32094 42.8245 11.234 42.9481 13.9029C43.0672 16.473 42.3723 19.4674 40.9911 22.3345Z" fill="#231F20"/>
<path d="M29.6764 30.2979C28.0081 29.4932 27.0213 27.5801 26.8977 24.911C26.7783 22.341 27.4736 19.3466 28.8547 16.4797L29.661 16.8684C28.3432 19.604 27.6793 22.4454 27.7917 24.8695C27.8995 27.1945 28.7069 28.8357 30.0651 29.4911L29.6764 30.2979Z" fill="#231F20"/>
<path d="M39.2414 5.35682C35.2678 5.35682 30.3783 9.74571 27.3509 16.0301C25.5637 19.7397 24.6635 23.596 24.8161 26.8881C24.9641 30.0815 26.0836 32.341 27.968 33.2499C28.561 33.5361 29.2192 33.6811 29.9241 33.6811C33.8977 33.6811 38.7875 29.2922 41.8149 23.0081C43.6018 19.2983 44.502 15.4422 44.3494 12.1498C44.2014 8.95645 43.0819 6.69718 41.1975 5.78801C40.6045 5.50189 39.9463 5.35682 39.2414 5.35682ZM29.9241 34.5768C29.0835 34.5768 28.2945 34.402 27.5794 34.0568C25.3848 32.9983 24.0862 30.4671 23.922 26.9297C23.7628 23.4915 24.6941 19.4825 26.5446 15.6412C29.7158 9.05855 34.9368 4.46118 39.2414 4.46118C40.082 4.46118 40.871 4.63618 41.5861 4.98118C43.7807 6.03994 45.0795 8.57084 45.2435 12.1083C45.4029 15.5467 44.4714 19.5557 42.6209 23.3968C39.45 29.9794 34.2287 34.5768 29.9241 34.5768Z" fill="#231F20"/>
<path d="M34.4722 6.82666L31.7334 5.37042L32.1788 4.53154L34.9176 5.98777L34.4722 6.82666Z" fill="#231F20"/>
<path d="M33.1026 8.09024L30.3638 6.634L30.8089 5.79512L33.548 7.25136L33.1026 8.09024Z" fill="#231F20"/>
<path d="M31.7332 9.22711L28.9944 7.77064L29.4395 6.93175L32.1786 8.38823L31.7332 9.22711Z" fill="#231F20"/>
<path d="M30.6361 10.3918L27.8972 8.93552L28.3426 8.09663L31.0814 9.55287L30.6361 10.3918Z" fill="#231F20"/>
<path d="M29.6217 11.8482L26.8828 10.3918L27.3279 9.55288L30.067 11.0094L29.6217 11.8482Z" fill="#231F20"/>
<path d="M15.2778 30.0968H14.3828V29.1171H15.2778V30.0968Z" fill="#231F20"/>
<path d="M13.124 29.1172H12.229V28.1375H13.124V29.1172Z" fill="#231F20"/>
<path d="M14.4665 27.8017H13.5715V26.8221H14.4665V27.8017Z" fill="#231F20"/>
<path d="M1.74325 51.7549H0L4.23367 41.4931H5.15643L9.34597 51.7549H7.60272L4.6731 44.4103L1.74325 51.7549Z" fill="#191919"/>
<path d="M16.5391 51.7549V46.8292L12.2321 51.7549H11.3093V44.4251H12.7743V49.3508L17.0813 44.4251H18.004V51.7549H16.5391Z" fill="#191919"/>
<path d="M26.8232 51.7549V46.8292L24.45 49.5415L22.0767 46.8292V51.7549H20.6118V44.4251H21.5346L24.45 47.7673L27.3653 44.4251H28.2881V51.7549H26.8232Z" fill="#191919"/>
<path d="M31.9215 48.09C31.9215 49.4826 32.9909 50.4357 34.2069 50.4357C35.4224 50.4357 36.5065 49.4826 36.5065 48.09C36.5065 46.6974 35.4224 45.7298 34.2069 45.7298C32.9909 45.7298 31.9215 46.6974 31.9215 48.09ZM37.9715 48.09C37.9715 50.1717 36.2868 51.8428 34.2069 51.8428C32.1265 51.8428 30.4565 50.1717 30.4565 48.09C30.4565 46.0083 32.1265 44.3225 34.2069 44.3225C36.2868 44.3225 37.9715 46.0083 37.9715 48.09Z" fill="#191919"/>
<path d="M45.4577 51.7549V48.7496H41.6048V51.7549H40.1399V44.4251H41.6048V47.3423H45.4577V44.4251H46.9226V51.7549H45.4577Z" fill="#191919"/>
<path d="M5.37076 64.7655V61.7602H1.51791V64.7655H0.0529785V57.4356H1.51791V60.3529H5.37076V57.4356H6.83568V64.7655H5.37076Z" fill="#191919"/>
<path d="M15.0542 61.1005C15.0542 59.7079 13.9701 58.7404 12.7543 58.7404C11.5385 58.7404 10.4691 59.7079 10.4691 61.1005C10.4691 62.4931 11.5385 63.4462 12.7543 63.4462C13.9701 63.4462 15.0542 62.4931 15.0542 61.1005ZM15.4058 64.7655L15.3178 63.4168C14.7758 64.2818 13.7798 64.8533 12.6226 64.8533C10.5422 64.8533 9.00415 63.1822 9.00415 61.1005C9.00415 59.0189 10.5422 57.333 12.6226 57.333C13.7798 57.333 14.7758 57.9193 15.3178 58.7843L15.4058 57.4356H16.4019V64.7655H15.4058Z" fill="#191919"/>
<path d="M26.5601 64.7655V62.156C26.1059 62.8012 25.3149 63.153 24.3335 63.153C21.9456 63.153 21.0518 61.6429 21.0518 59.4879V57.4356H22.5169V59.4C22.5169 60.9538 23.0444 61.7457 24.5532 61.7457C26.0476 61.7457 26.5601 60.8221 26.5601 59.5907V57.4356H28.025V64.7655H26.5601Z" fill="#191919"/>
<path d="M36.2436 61.1005C36.2436 59.7079 35.1595 58.7404 33.9437 58.7404C32.7279 58.7404 31.6585 59.7079 31.6585 61.1005C31.6585 62.4931 32.7279 63.4462 33.9437 63.4462C35.1595 63.4462 36.2436 62.4931 36.2436 61.1005ZM36.5952 64.7655L36.5072 63.4168C35.9653 64.2818 34.9692 64.8533 33.812 64.8533C31.7316 64.8533 30.1936 63.1822 30.1936 61.1005C30.1936 59.0189 31.7316 57.333 33.812 57.333C34.9692 57.333 35.9653 57.9193 36.5072 58.7843L36.5952 57.4356H37.5913V64.7655H36.5952Z" fill="#191919"/>
<path d="M41.3564 54.6208H42.3819C42.3819 55.2073 42.8944 55.6617 43.5538 55.6617C44.2129 55.6617 44.7257 55.2073 44.7257 54.6208H45.7512C45.7512 55.823 44.7696 56.688 43.5538 56.688C42.338 56.688 41.3564 55.823 41.3564 54.6208ZM45.429 64.7653V59.8396L41.122 64.7653H40.1992V57.4354H41.6639V62.3612L45.9709 57.4354H46.8939V64.7653H45.429Z" fill="#191919"/>
</g>
<defs>
<clipPath id="clip0">
<rect width="46.9802" height="65" fill="white"/>
</clipPath>
</defs>
</svg>
