<svg width="80" height="76" viewBox="0 0 80 76" fill="none" xmlns="http://www.w3.org/2000/svg">
<path fill-rule="evenodd" clip-rule="evenodd" d="M9.35125 34.5462C14.4741 21.1991 33.391 4.79669 52.0293 16.6436C70.6775 28.4888 69.6361 49.6259 54.6971 62.1329C44.2541 70.8702 22.5792 68.7432 17.9732 64.52C9.10699 56.3805 4.21692 47.8851 9.35125 34.5462Z" fill="white"/>
<path fill-rule="evenodd" clip-rule="evenodd" d="M17.4489 26.0928C22.5832 12.7538 41.4886 -3.65678 60.127 8.1901C78.7752 20.0353 77.7323 41.1626 62.7934 53.6696C52.3503 62.4069 30.6752 60.2799 26.0675 56.0469C17.2063 47.9369 12.3261 39.4399 17.4489 26.0928Z" fill="#FFE281"/>
<path fill-rule="evenodd" clip-rule="evenodd" d="M10.5052 31.8269C7.85657 29.0484 11.1557 25.2776 12.7986 22.8711C16.2516 17.8473 21.0517 13.1136 28.4445 11.188C43.1725 7.35675 56.6056 11.9073 62.8305 20.3805C72.1869 33.1125 68.9052 52.5686 59.738 61.3545C55.7928 65.143 51.0894 67.8017 44.6708 69.3703C28.8151 73.2497 13.5622 67.0487 8.03487 55.3142C5.99658 50.9827 5.95345 46.3352 6.6597 41.5006C6.96813 39.3595 6.89767 35.031 10.1601 35.4344C13.3206 35.8347 11.5378 39.938 11.2521 41.913C10.4146 47.7737 12.0611 53.5099 14.9806 56.9931C20.454 63.5343 29.0045 67.2143 40.882 65.2427C56.3801 62.671 65.0388 50.0259 63.5115 35.7309C62.8809 29.8235 60.577 24.9993 57.3172 21.5431C51.6393 15.5332 35.4682 11.4644 23.945 18.3657C20.9135 20.1748 18.8088 22.7301 17.0116 25.2438C15.5473 27.3262 14.6807 31.691 10.5052 31.8269Z" fill="black"/>
<path fill-rule="evenodd" clip-rule="evenodd" d="M45.542 30.6775C40.9313 31.0591 39.1909 34.1515 38.185 37.8704C37.7523 39.4544 37.6627 42.532 36.4588 43.1507C32.7732 45.0498 28.6709 39.4234 25.4645 40.0145C27.7096 45.0311 31.2164 47.0057 36.6277 48.3652C39.1376 48.9968 45.9102 48.5651 46.0065 51.7839C46.1029 55.0026 40.8748 54.0078 38.2157 53.5737C34.8807 53.0406 32.065 52.3997 29.9983 51.3891C26.3519 49.6105 19.1373 43.809 20.3629 38.0248C21.481 32.7455 29.7267 36.0611 33.1292 37.536C35.0534 32.5874 37.3254 25.3694 45.6412 25.6714C52.6517 25.9297 51.2772 36.6676 50.1055 42.2905C49.413 45.6423 49.2338 49.2117 46.7996 49.5104C42.3684 50.0545 45.4037 42.2515 45.6318 41.1381C46.3616 37.5265 46.9764 33.833 45.542 30.6775Z" fill="black"/>
</svg>
