<svg width="117" height="116" viewBox="0 0 117 116" fill="none" xmlns="http://www.w3.org/2000/svg">
<path fill-rule="evenodd" clip-rule="evenodd" d="M37.0633 26.8999C53.6402 21.1366 84.0059 25.8937 87.6514 52.7585C91.3064 79.6313 70.6538 95.3916 47.0921 91.2815C30.6267 88.4039 15.4589 66.3872 15.7732 58.7224C16.388 43.9601 20.485 32.6459 37.0633 26.8999Z" fill="white"/>
<path fill-rule="evenodd" clip-rule="evenodd" d="M51.4051 27.8023C67.9834 22.0563 98.3477 26.7961 101.993 53.6609C105.648 80.5336 85.0037 96.2848 61.442 92.1747C44.9767 89.297 29.8086 67.2802 30.1309 59.606C30.7218 44.8718 34.8282 33.5656 51.4051 27.8023Z" fill="#FFE281"/>
<path fill-rule="evenodd" clip-rule="evenodd" d="M40.5278 25.8285C41.0368 21.1439 47.1865 21.2528 50.7448 20.8883C58.1917 20.1494 66.4332 20.9038 74.0934 26.3139C89.3497 37.096 95.7179 53.3004 92.6986 65.8493C88.164 84.7078 67.3144 97.0356 51.8137 95.3932C45.1359 94.6922 38.9175 92.3854 32.3635 87.6065C16.1691 75.8047 9.90817 56.5863 16.5391 42.1095C18.9883 36.7676 23.3138 33.047 28.4082 29.8813C30.6609 28.4752 34.6655 24.9817 36.8704 28.3614C38.9976 31.6431 33.7367 33.2199 31.6578 34.5158C25.4969 38.3709 21.4198 44.4576 20.4642 49.9544C18.6621 60.2684 21.9807 71.2033 33.2353 80.784C47.9199 93.2857 66.638 91.3952 78.8383 78.6431C83.8804 73.3739 86.5815 67.3927 87.2424 61.598C88.384 51.5129 79.3958 33.1216 63.7974 27.7768C59.6999 26.3655 55.6362 26.4146 51.8551 26.7192C48.7423 26.9945 43.9616 29.6378 40.5278 25.8285Z" fill="black"/>
<path fill-rule="evenodd" clip-rule="evenodd" d="M69.3498 57.7848C65.3409 53.7619 61.0619 54.5779 56.7769 56.5791C54.9483 57.4274 51.9904 59.7805 50.4567 59.141C45.7569 57.1874 47.7864 48.884 44.6929 46.3443C41.7648 52.4227 42.6894 57.2759 45.6989 63.4285C47.0939 66.283 52.8617 72.2944 49.9186 74.9335C46.9755 77.5726 43.7689 71.8806 42.0704 69.0425C39.9297 65.4919 38.3014 62.3431 37.6128 59.6042C36.394 54.7752 36.1233 43.4136 42.5197 39.9831C48.3574 36.8516 51.7765 47.212 53.0871 51.5717C59.2529 49.4582 67.8229 45.8738 74.1245 53.9138C79.4333 60.6946 68.2722 67.908 62.0697 71.2613C58.3772 73.2657 54.8869 75.9241 52.6792 73.8772C48.66 70.1513 58.3832 66.8198 59.6082 66.1521C63.574 63.977 67.5257 61.629 69.3498 57.7848Z" fill="black"/>
</svg>
