<svg width="104" height="108" viewBox="0 0 104 108" fill="none" xmlns="http://www.w3.org/2000/svg">
<path fill-rule="evenodd" clip-rule="evenodd" d="M76.5081 52.4692C76.5081 52.4692 66.4782 61.5292 64.3082 70.5392C62.1382 79.5492 67.5583 100.639 63.1383 100.349C58.7183 100.059 50.5182 100.429 48.3482 92.8392C46.1782 85.2492 46.7081 75.9392 46.7081 75.9392C46.7081 75.9392 18.2582 88.7492 14.5582 80.1692C10.8482 71.5792 12.678 69.3692 12.678 69.3692C12.678 69.3692 7.25825 68.1592 5.63825 63.0292C4.01825 57.9092 7.74811 48.0092 7.74811 48.0092C7.74811 48.0092 0.688211 44.0392 2.34821 39.0892C6.53821 26.6092 57.9681 14.6792 57.9681 14.6792C57.9681 14.6792 57.6981 9.62921 66.188 5.28921C74.6681 0.949212 74.9682 -1.76079 79.0982 5.28921C83.2282 12.3392 97.908 39.0392 93.418 44.4892C88.928 49.9392 86.308 56.9492 81.918 54.5792C77.518 52.2092 76.5081 52.4692 76.5081 52.4692Z" fill="white"/>
<path fill-rule="evenodd" clip-rule="evenodd" d="M85.8983 59.4593C85.8983 59.4593 75.868 68.5193 73.6881 77.5293C71.518 86.5393 76.9281 107.619 72.5181 107.329C68.0981 107.039 59.9081 107.409 57.7281 99.8193C55.5581 92.2293 56.0882 82.9293 56.0882 82.9293C56.0882 82.9293 27.638 95.7393 23.928 87.1493C20.228 78.5693 22.0582 76.3593 22.0582 76.3593C22.0582 76.3593 16.6381 75.1493 15.0181 70.0193C13.3981 64.8993 17.1282 54.9993 17.1282 54.9993C17.1282 54.9993 10.0681 51.0293 11.7281 46.0793C15.9181 33.6093 67.3482 21.6793 67.3482 21.6793C67.3482 21.6793 67.0782 16.6393 75.5682 12.2893C84.0482 7.94927 84.3481 5.23927 88.4781 12.2893C92.6081 19.3393 107.288 46.0293 102.798 51.4793C98.3082 56.9193 95.6882 63.9393 91.2982 61.5693C86.9082 59.1993 85.8983 59.4593 85.8983 59.4593Z" fill="#FFE281"/>
<path fill-rule="evenodd" clip-rule="evenodd" d="M61.1181 97.6592C54.5581 96.3892 51.158 91.6492 50.558 84.7492C50.188 80.4492 52.1079 73.7393 48.6879 73.0093C46.0679 72.4593 41.1981 76.3292 38.3581 77.4692C33.6381 79.3692 28.6981 81.0793 22.6381 80.5193C19.1981 80.1993 14.5879 78.7492 14.1879 75.3592C13.9279 73.0892 16.1881 71.0292 15.8281 68.7892C15.3381 65.6792 8.88803 63.8292 8.54803 59.8692C8.37803 57.8592 9.57789 55.7893 10.6579 53.9993C11.4879 52.6193 13.548 50.6292 13.478 48.8392C13.318 44.9592 5.86795 43.3793 5.96795 38.5093C6.03795 34.9493 11.8481 32.4693 14.8881 30.9993C22.7281 27.1992 29.588 25.1492 39.058 22.7892C42.908 21.8292 50.298 21.0892 50.318 17.8592C50.368 12.8092 41.4079 16.3293 37.4079 17.3893C31.7479 18.8893 27.3981 20.0093 23.3281 21.3793C15.3581 24.0593 3.68802 28.3893 0.798025 34.7593C-1.94197 40.7793 2.9579 45.7792 6.6679 49.5392C0.827899 55.0992 2.58797 66.8592 9.48797 70.4292C8.71797 72.4592 8.00802 75.1893 8.78802 77.7093C12.608 90.0193 35.5879 86.6393 44.6979 80.9993C44.7079 88.4792 46.4281 94.3093 50.0981 98.1293C53.1181 101.259 66.078 108.259 66.998 98.3592C67.448 93.4892 64.8381 87.8592 65.3581 80.9992C65.8781 74.1692 69.0179 68.6992 71.9279 64.3392C72.7479 63.1192 76.4081 58.1792 72.3981 57.2992C68.4481 56.4292 65.218 64.1892 63.7179 67.1592C61.5479 71.4392 59.838 76.2692 59.498 81.4792C59.058 87.7292 60.8881 92.0492 61.1181 97.6592Z" fill="black"/>
<path fill-rule="evenodd" clip-rule="evenodd" d="M80.8281 56.5992C87.6782 57.8492 96.5381 52.0692 96.7881 43.9292C96.9081 39.9192 94.8281 35.1292 93.2681 31.2592C91.7081 27.3892 90.2981 23.2491 89.0481 19.5291C86.5481 12.0891 83.5682 0.839166 76.6082 0.049166C72.2582 -0.440835 65.1981 2.79917 66.2781 6.61917C67.4581 10.7792 73.508 5.62916 75.668 5.91916C78.358 6.26916 79.8381 10.9392 81.0681 14.1292C83.5281 20.5192 85.5882 27.4991 88.1082 33.8391C89.1982 36.5791 91.418 40.6692 90.918 44.3992C90.488 47.5792 86.6981 51.8791 81.7681 50.9691C78.7181 50.4091 76.408 44.8092 74.958 41.8192C70.998 33.6092 69.1881 28.4492 66.0381 19.2892C64.8881 15.9492 63.718 9.0392 60.168 9.8992C56.308 10.8392 59.4582 18.0592 60.6382 21.6392C63.5682 30.4692 66.3481 36.8992 70.2681 44.8692C72.8881 50.1792 74.7882 55.4892 80.8281 56.5992Z" fill="black"/>
</svg>
