<svg width="140" height="140" viewBox="0 0 140 140" fill="none" xmlns="http://www.w3.org/2000/svg">
<g clip-path="url(#clip0)">
<path d="M137.733 31.2959H2.26807V108.704H137.733V31.2959Z" fill="#FFCE26"/>
<path d="M7.106 103.866V31.2959H2.26807V108.704H137.732V103.866H7.106Z" fill="#FFE281"/>
<path d="M2.26807 31.2959V45.8097V60.3238L11.9439 45.8097H128.056L137.732 60.3238V45.8097V31.2959H2.26807Z" fill="#4E5058"/>
<path d="M7.106 45.8097V31.2959H2.26807V45.8097V60.3238L7.106 53.0667V45.8097Z" fill="#383A43"/>
<path d="M113.542 99.028H94.1902V60.3237H113.542C118.886 60.3237 123.218 64.6558 123.218 69.9999V89.3519C123.218 94.6959 118.886 99.028 113.542 99.028Z" fill="white"/>
<path d="M26.4579 99.028H45.8099V60.3237H26.4579C21.1141 60.3237 16.7817 64.6558 16.7817 69.9999V89.3519C16.782 94.6959 21.1141 99.028 26.4579 99.028Z" fill="white"/>
<path d="M82.0951 94.1903H57.9049C56.5689 94.1903 55.4858 93.1072 55.4858 91.7711V67.581C55.4858 66.245 56.5689 65.1619 57.9049 65.1619H82.0951C83.4311 65.1619 84.5142 66.245 84.5142 67.581V91.7711C84.5142 93.1069 83.4311 94.1903 82.0951 94.1903Z" fill="white"/>
<path d="M84.5139 74.838H55.4858V67.581C55.4858 66.245 56.5689 65.1619 57.9049 65.1619H82.0951C83.4311 65.1619 84.5142 66.245 84.5142 67.581V74.838H84.5139Z" fill="#FFCE26"/>
<path d="M94.1899 65.1619V74.838C96.862 74.838 99.0279 77.0039 99.0279 79.6759C99.0279 82.348 96.862 84.5138 94.1899 84.5138V94.19C102.206 94.19 108.704 87.692 108.704 79.6759C108.704 71.6598 102.206 65.1619 94.1899 65.1619Z" fill="#4E5058"/>
<path d="M40.9718 79.6759C40.9718 77.0039 43.1377 74.838 45.8097 74.838V65.1619C37.7936 65.1619 31.2957 71.6598 31.2957 79.6759C31.2957 87.692 37.7936 94.19 45.8097 94.19V84.5138C43.1377 84.5138 40.9718 82.348 40.9718 79.6759Z" fill="#4E5058"/>
<path d="M137.732 29.0281H2.26789C1.01555 29.0281 0 30.0433 0 31.296V108.704C0 109.957 1.01527 110.972 2.26789 110.972H137.732C138.985 110.972 140 109.957 140 108.704V31.296C140 30.0433 138.985 29.0281 137.732 29.0281ZM4.53551 106.436V61.0107L13.1575 48.0776H33.7148C34.9672 48.0776 35.9827 47.0624 35.9827 45.8098C35.9827 44.5571 34.9675 43.5419 33.7148 43.5419H11.9438C11.1855 43.5419 10.4773 43.9208 10.057 44.5517L4.53578 52.8335V33.5633H135.464V52.8335L129.943 44.5517C129.523 43.9208 128.815 43.5419 128.057 43.5419H43.391C42.1386 43.5419 41.1231 44.5571 41.1231 45.8098C41.1231 47.0624 42.1384 48.0776 43.391 48.0776H126.842L135.464 61.0107V106.436H4.53551Z" fill="black"/>
<path d="M113.542 58.0562H94.1903C92.9379 58.0562 91.9224 59.0714 91.9224 60.324V99.028C91.9224 100.28 92.9376 101.296 94.1903 101.296H113.542C120.128 101.296 125.486 95.9379 125.486 89.3522V69.9999C125.486 63.4142 120.128 58.0562 113.542 58.0562ZM96.5588 70.4535V67.6628C102.177 68.7722 106.436 73.7506 106.436 79.676C106.436 85.6014 102.177 90.5796 96.5588 91.6892V88.8985C100.662 87.8362 103.715 84.0852 103.715 79.676C103.715 75.2669 100.662 71.5158 96.5588 70.4535ZM99.1794 79.676C99.1794 81.5983 98.0687 83.2769 96.4581 84.1082V75.2442C98.0687 76.0749 99.1794 77.7538 99.1794 79.676ZM120.95 89.3519C120.95 93.4368 117.627 96.7601 113.542 96.7601H96.4579V96.2969C104.634 95.1819 110.972 88.1359 110.972 79.676C110.972 71.2162 104.634 64.1702 96.4579 63.0551V62.5919H113.542C117.627 62.5919 120.95 65.9153 120.95 70.0002V89.3519H120.95Z" fill="black"/>
<path d="M48.0775 60.3238C48.0775 59.0715 47.0623 58.0559 45.8097 58.0559H26.4577C19.8719 58.0559 14.5139 63.4139 14.5139 69.9997V89.3516C14.5139 95.9374 19.8719 101.295 26.4577 101.295H45.8097C47.062 101.295 48.0775 100.28 48.0775 99.0275V60.3238ZM43.542 84.1142C41.9293 83.2865 40.8208 81.6104 40.8208 79.6761C40.8208 77.742 41.9293 76.0653 43.542 75.2379V84.1142ZM43.542 70.4257C39.3817 71.4461 36.285 75.2056 36.285 79.6761C36.285 84.1465 39.3817 87.9063 43.542 88.9265V91.71C37.8699 90.6434 33.5638 85.6537 33.5638 79.6761C33.5638 73.6984 37.8699 68.7093 43.542 67.6421V70.4257ZM26.4577 96.7602C22.3728 96.7602 19.0494 93.4368 19.0494 89.3519V69.9999C19.0494 65.915 22.3728 62.5917 26.4577 62.5917H43.5418V63.0516C35.3572 64.1629 29.0277 71.1918 29.0277 79.6761C29.0277 88.1603 35.3572 95.1895 43.5418 96.3005V96.7604H26.4577V96.7602Z" fill="black"/>
<path d="M82.0949 62.8943H57.9047C55.3202 62.8943 53.218 64.9967 53.218 67.581V91.7712C53.218 94.3557 55.3205 96.4579 57.9047 96.4579H82.0949C84.6795 96.4579 86.7816 94.3555 86.7816 91.7712V67.581C86.7819 64.9967 84.6795 62.8943 82.0949 62.8943ZM57.7538 67.581C57.7538 67.4976 57.8216 67.4298 57.905 67.4298H82.0952C82.1786 67.4298 82.2464 67.4976 82.2464 67.581V72.5704H57.7541V67.581H57.7538ZM82.0949 91.9224H57.9047C57.8213 91.9224 57.7535 91.8546 57.7535 91.7712V77.1059H82.2459V91.7712C82.2461 91.8546 82.1783 91.9224 82.0949 91.9224Z" fill="black"/>
<path d="M74.8381 82.2461H65.1619C63.9096 82.2461 62.894 83.2614 62.894 84.514C62.894 85.7666 63.9093 86.7819 65.1619 86.7819H74.8381C76.0904 86.7819 77.106 85.7666 77.106 84.514C77.106 83.2614 76.0907 82.2461 74.8381 82.2461Z" fill="black"/>
</g>
<defs>
<clipPath id="clip0">
<rect width="140" height="140" fill="white"/>
</clipPath>
</defs>
</svg>
