<svg width="172" height="142" viewBox="0 0 172 142" fill="none" xmlns="http://www.w3.org/2000/svg">
<path fill-rule="evenodd" clip-rule="evenodd" d="M119.861 14.0407C104.97 15.834 21.9225 52.3826 16.7487 58.9013C11.5771 65.4318 8.30641 66.3068 15.1499 85.7753C21.9934 105.244 26.6224 129.618 43.1842 130.068C59.7697 130.513 118.517 115.576 133.133 109.615C147.998 103.55 156.884 94.2157 152.897 75.4794C148.898 56.7451 134.755 12.2592 119.861 14.0407Z" fill="white"/>
<path fill-rule="evenodd" clip-rule="evenodd" d="M129.516 3.80438C114.624 5.59771 31.5749 42.1344 26.4033 48.6649C21.2295 55.1836 17.9607 56.0705 24.8021 75.5272C31.6435 94.9839 36.2728 119.358 52.8346 119.808C69.4221 120.265 128.156 105.318 142.771 99.3574C157.636 93.2925 166.522 83.9578 162.549 65.2312C158.55 46.497 144.407 2.01106 129.516 3.80438Z" fill="#FFE281"/>
<path fill-rule="evenodd" clip-rule="evenodd" d="M72.4496 52.0614C67.0318 54.7363 68.7367 63.8806 73.6273 78.4389C78.5081 93.0111 79.654 98.184 85.5141 95.8096C91.3859 93.4331 113.606 72.1236 110.991 66.4884C108.377 60.865 77.8632 49.3628 72.4496 52.0614Z" fill="white"/>
<path fill-rule="evenodd" clip-rule="evenodd" d="M109.923 15.1042C113.421 14.2747 116.372 13.8696 116.936 17.5965C117.684 22.5829 109.343 22.9536 104.397 24.3523C77.7083 31.9191 53.9836 39.7852 33.6565 51.5542C26.4761 55.7183 16.3372 62.4086 15.6493 69.5702C15.1736 74.5264 18.284 80.1362 19.6928 84.5809C21.2467 89.4389 22.9455 94.9171 24.2942 99.5063C27.0214 108.716 30.6133 120.857 36.9328 124.47C43.4405 128.183 57.9045 126.525 68.971 124.595C81.3381 122.438 91.588 118.689 101.686 115.466C113.293 111.748 123.003 108.117 131.137 104.042C140.077 99.5591 149.15 93.8102 150.861 86.0193C152.053 80.5606 149.521 73.1686 147.619 67.4333C143.603 55.3052 139.69 46.278 133.711 35.2598C132.216 32.487 124.863 22.951 130.036 20.7574C134.969 18.6544 138.004 26.9087 140.06 30.729C147.103 43.73 155.87 60.6092 158.47 77.2605C161.095 94.0537 150.403 102.254 138.007 109.131C128.32 114.499 117.604 118.44 106.526 122.053C95.8049 125.543 83.4502 129.587 70.8582 132.27C57.7265 135.072 41.3355 135.812 33.2558 131.397C22.6441 125.598 18.4521 106.873 13.7478 91.6361C11.3493 83.8919 6.80028 74.8538 8.32847 67.1313C9.91151 59.0947 17.6237 52.4622 24.6634 47.7013C32.139 42.645 41.2467 38.4249 49.8493 34.7315C68.6298 26.6679 88.8715 20.0674 109.923 15.1042Z" fill="black"/>
<path fill-rule="evenodd" clip-rule="evenodd" d="M77.614 95.3596C83.0044 93.5057 86.5239 88.4694 90.3145 84.5676C94.1127 80.64 98.6386 76.9023 100.357 71.6685C94.6212 67.9786 82.8228 64.9441 74.1266 62.2334C71.3043 61.349 66.9737 60.8983 66.2665 58.1709C64.2237 50.2307 76.2985 54.8495 79.5794 55.8488C83.0758 56.8958 86.5839 57.9408 89.8371 58.9206C95.3922 60.5953 107.644 62.5273 108.258 71.1433C108.687 77.0258 103.09 82.9362 98.572 87.6958C93.3021 93.2445 89.9797 97.4544 84.5922 101.001C72.5683 108.898 66.9568 95.0255 63.6818 84.3519C61.9991 78.8951 61.401 76.2339 60.1495 70.6654C58.9573 65.3666 57.8968 59.7769 61.821 58.9463C66.6139 57.9275 66.7562 63.982 67.9666 69.5943C69.9762 78.8804 73.3866 91.3091 77.614 95.3596Z" fill="black"/>
</svg>
