<svg width="16" height="16" viewBox="0 0 16 16" fill="none" xmlns="http://www.w3.org/2000/svg">
<g clip-path="url(#clip0)">
<path d="M9.99967 4.33337C9.63167 4.33337 9.33301 4.03471 9.33301 3.66671V2.66671H6.66634V3.66671C6.66634 4.03471 6.36767 4.33337 5.99967 4.33337C5.63167 4.33337 5.33301 4.03471 5.33301 3.66671V2.66671C5.33301 1.93137 5.93101 1.33337 6.66634 1.33337H9.33301C10.0683 1.33337 10.6663 1.93137 10.6663 2.66671V3.66671C10.6663 4.03471 10.3677 4.33337 9.99967 4.33337Z" fill="#C5A480"/>
<path d="M8.47333 10.2532C8.35333 10.2999 8.18 10.3332 8 10.3332C7.82 10.3332 7.64667 10.2999 7.48667 10.2399L0 7.74658V12.8332C0 13.8466 0.82 14.6666 1.83333 14.6666H14.1667C15.18 14.6666 16 13.8466 16 12.8332V7.74658L8.47333 10.2532Z" fill="#C5A480"/>
<path d="M16 5.16671V6.69338L8.16 9.30671C8.10667 9.32671 8.05333 9.33338 8 9.33338C7.94667 9.33338 7.89333 9.32671 7.84 9.30671L0 6.69338V5.16671C0 4.15337 0.82 3.33337 1.83333 3.33337H14.1667C15.18 3.33337 16 4.15337 16 5.16671Z" fill="#C5A480"/>
</g>
<defs>
<clipPath id="clip0">
<rect width="16" height="16" fill="white"/>
</clipPath>
</defs>
</svg>
