<svg width="16" height="16" viewBox="0 0 16 16" fill="none" xmlns="http://www.w3.org/2000/svg">
<path d="M8 12.0625C7.8275 12.0625 7.6875 12.2025 7.6875 12.375C7.6875 12.5475 7.8275 12.6875 8 12.6875C8.1725 12.6875 8.3125 12.5475 8.3125 12.375C8.3125 12.2025 8.1725 12.0625 8 12.0625Z" fill="#C5A480"/>
<path d="M14.659 1.91781C13.89 1.60809 12.8902 1.4375 11.8438 1.4375C10.7973 1.4375 9.79753 1.60809 9.02853 1.91781C8.57409 2.10084 8.22713 2.32453 8 2.57553C7.77287 2.32453 7.42591 2.10087 6.97147 1.91784C6.20247 1.60809 5.20266 1.4375 4.15625 1.4375C3.10984 1.4375 2.11003 1.60809 1.34103 1.91781C0.47625 2.26612 0 2.76144 0 3.3125V10.8125C0 11.3636 0.47625 11.8589 1.34103 12.2072C2.05625 12.4952 2.97119 12.6628 3.9375 12.6848V12.6875C3.9375 13.7564 5.684 14.5625 8 14.5625C10.316 14.5625 12.0625 13.7564 12.0625 12.6875V12.6848C13.0288 12.6628 13.9438 12.4952 14.659 12.2072C15.5238 11.8589 16 11.3636 16 10.8125V3.3125C16 2.76144 15.5238 2.26612 14.659 1.91781ZM15.375 8.9375C15.375 9.20428 15.0112 9.51653 14.4255 9.75244C13.7916 10.0078 12.9405 10.1622 12.0625 10.1844V8.9375C12.0625 8.93659 12.0624 8.93569 12.0624 8.93481C13.0288 8.91278 13.9437 8.74528 14.659 8.45719C14.9397 8.34413 15.1792 8.2155 15.375 8.07456L15.375 8.9375ZM7.6875 5.1875C7.6875 5.45428 7.32366 5.76653 6.73797 6.00244C6.0515 6.27894 5.1105 6.4375 4.15625 6.4375C3.202 6.4375 2.261 6.27894 1.57453 6.00244C0.988844 5.76653 0.625 5.45428 0.625 5.1875V4.32456C0.820844 4.4655 1.06031 4.59413 1.34103 4.70719C2.11003 5.01691 3.10984 5.1875 4.15625 5.1875C5.20266 5.1875 6.20247 5.01691 6.97147 4.70719C7.25219 4.59413 7.49166 4.4655 7.6875 4.32456V5.1875ZM1.34103 6.58219C2.11003 6.89191 3.10984 7.0625 4.15625 7.0625C5.20266 7.0625 6.20247 6.89191 6.97147 6.58219C7.25219 6.46913 7.49166 6.3405 7.6875 6.19956V7.06803C6.87906 7.09541 6.10375 7.22809 5.47666 7.44894C4.84769 7.67047 4.39509 7.96588 4.14897 8.31241C3.19722 8.31159 2.25925 8.15322 1.57453 7.87744C0.988844 7.64153 0.625 7.32928 0.625 7.0625V6.19956C0.820844 6.3405 1.06031 6.46913 1.34103 6.58219ZM0.625 8.07456C0.820844 8.2155 1.06031 8.34413 1.34103 8.45719C2.05628 8.74525 2.97125 8.91275 3.93759 8.93481C3.93759 8.93572 3.93753 8.93663 3.93753 8.9375V10.1844C3.0595 10.1622 2.20847 10.0078 1.57456 9.75244C0.988844 9.51653 0.625 9.20428 0.625 8.9375V8.07456ZM4.59556 8.78397C4.82716 8.245 6.16388 7.6875 8 7.6875C9.83613 7.6875 11.1728 8.245 11.4042 8.78334C11.4266 8.83587 11.4375 8.88628 11.4375 8.9375C11.4375 9.21225 11.0988 9.51744 10.5314 9.75384C9.86028 10.0335 8.96128 10.1875 8 10.1875C7.03872 10.1875 6.13972 10.0335 5.46859 9.75384C4.90122 9.51744 4.5625 9.21225 4.5625 8.9375C4.5625 8.88628 4.57341 8.83588 4.59556 8.78397ZM15.375 7.0625C15.375 7.32928 15.0112 7.64153 14.4255 7.87744C13.7408 8.15322 12.8028 8.31159 11.8511 8.31241C11.6052 7.96606 11.1525 7.67053 10.5233 7.44894C9.89625 7.22806 9.12094 7.09541 8.3125 7.06803V6.19956C8.50834 6.3405 8.74781 6.46913 9.02853 6.58219C9.79753 6.89191 10.7973 7.0625 11.8438 7.0625C12.8902 7.0625 13.89 6.89191 14.659 6.58219C14.9397 6.46913 15.1792 6.3405 15.375 6.19956V7.0625ZM15.375 5.1875C15.375 5.45428 15.0112 5.76653 14.4255 6.00244C13.739 6.27894 12.798 6.4375 11.8438 6.4375C10.8895 6.4375 9.9485 6.27894 9.26203 6.00244C8.67634 5.76653 8.3125 5.45428 8.3125 5.1875V4.32456C8.50834 4.4655 8.74781 4.59413 9.02853 4.70719C9.79753 5.01691 10.7973 5.1875 11.8438 5.1875C12.8902 5.1875 13.89 5.01691 14.659 4.70719C14.9397 4.59413 15.1792 4.4655 15.375 4.32456V5.1875ZM9.26203 2.49756C9.9485 2.22106 10.8895 2.0625 11.8438 2.0625C12.798 2.0625 13.739 2.22106 14.4255 2.49756C15.0112 2.73347 15.375 3.04572 15.375 3.3125C15.375 3.57928 15.0112 3.89153 14.4255 4.12744C13.739 4.40394 12.798 4.5625 11.8438 4.5625C10.8895 4.5625 9.9485 4.40394 9.26203 4.12744C8.67634 3.89153 8.3125 3.57928 8.3125 3.3125C8.3125 3.04572 8.67634 2.73347 9.26203 2.49756ZM1.57453 2.49756C2.261 2.22106 3.202 2.0625 4.15625 2.0625C5.1105 2.0625 6.0515 2.22106 6.73797 2.49756C7.32366 2.73347 7.6875 3.04572 7.6875 3.3125C7.6875 3.57928 7.32366 3.89153 6.73797 4.12744C6.0515 4.40394 5.1105 4.5625 4.15625 4.5625C3.202 4.5625 2.261 4.40394 1.57453 4.12744C0.988844 3.89153 0.625 3.57928 0.625 3.3125C0.625 3.04572 0.988844 2.73347 1.57453 2.49756ZM1.57453 11.6274C0.988844 11.3915 0.625 11.0793 0.625 10.8125V9.94956C0.820844 10.0905 1.06031 10.2191 1.34103 10.3322C2.05625 10.6202 2.97119 10.7878 3.9375 10.8098V12.0594C3.05947 12.0372 2.20844 11.8828 1.57453 11.6274ZM10.5314 13.5038C9.86028 13.7835 8.96128 13.9375 8 13.9375C7.03872 13.9375 6.13972 13.7835 5.46859 13.5038C4.90122 13.2674 4.5625 12.9622 4.5625 12.6875V11.8428C4.63328 11.894 4.7115 11.9449 4.79825 11.9951C5.28353 12.2759 5.94381 12.4836 6.70775 12.5957C6.72316 12.598 6.73841 12.5991 6.75353 12.5991C6.90603 12.5991 7.0395 12.4873 7.06231 12.3319C7.08738 12.1612 6.96925 12.0024 6.79853 11.9774C5.34619 11.7642 4.5625 11.2181 4.5625 10.8125V9.965C5.26981 10.4826 6.51834 10.8125 8 10.8125C9.48166 10.8125 10.7302 10.4826 11.4375 9.965V10.8125C11.4375 11.2181 10.6538 11.7642 9.20147 11.9774C9.03072 12.0024 8.91259 12.1612 8.93769 12.3319C8.9605 12.4873 9.09397 12.5991 9.24647 12.5991C9.26156 12.5991 9.27687 12.598 9.29225 12.5957C10.0562 12.4836 10.7164 12.2759 11.2017 11.9951C11.2885 11.9449 11.3667 11.894 11.4375 11.8428V12.6875C11.4375 12.9622 11.0988 13.2674 10.5314 13.5038ZM14.4255 11.6274C13.7916 11.8828 12.9405 12.0372 12.0625 12.0594V10.8098C13.0288 10.7877 13.9438 10.6202 14.659 10.3322C14.9397 10.2191 15.1792 10.0905 15.375 9.94953V10.8125C15.375 11.0793 15.0112 11.3915 14.4255 11.6274Z" fill="#C5A480"/>
</svg>
