<svg width="35" height="40" viewBox="0 0 35 40" fill="none" xmlns="http://www.w3.org/2000/svg">
<path d="M17.962 21.6811C17.8885 21.6652 17.813 21.6623 17.7386 21.6734C16.9925 21.5866 16.4296 20.9553 16.4283 20.2044C16.4283 19.8445 16.1366 19.5528 15.7767 19.5528C15.4168 19.5528 15.1251 19.8445 15.1251 20.2044C15.127 21.4583 15.9657 22.5567 17.1748 22.8886V23.5402C17.1748 23.9 17.4665 24.1918 17.8264 24.1918C18.1863 24.1918 18.478 23.9 18.478 23.5402V22.928C19.8736 22.6359 20.8221 21.3362 20.6754 19.918C20.5284 18.4999 19.3336 17.4222 17.9079 17.4219C17.0908 17.4219 16.4283 16.7595 16.4283 15.9424C16.4283 15.1253 17.0908 14.4628 17.9079 14.4628C18.7249 14.4628 19.3874 15.1253 19.3874 15.9424C19.3874 16.3022 19.6792 16.594 20.039 16.594C20.3989 16.594 20.6907 16.3022 20.6907 15.9424C20.6887 14.6258 19.7663 13.4902 18.478 13.2184V12.6254C18.478 12.2655 18.1863 11.9737 17.8264 11.9737C17.4665 11.9737 17.1748 12.2655 17.1748 12.6254V13.2582C15.8302 13.6254 14.9647 14.9309 15.1499 16.3124C15.3351 17.694 16.5139 18.7252 17.9079 18.7249C18.7141 18.7249 19.3718 19.3704 19.3864 20.1764C19.4014 20.9823 18.7676 21.6518 17.962 21.6811Z" fill="white"/>
<path d="M8.45703 18.1235C8.45703 23.3423 12.6875 27.5728 17.9063 27.5728C23.1251 27.5728 27.3556 23.3423 27.3556 18.1235C27.3556 12.9047 23.1251 8.67419 17.9063 8.67419C12.6901 8.67992 8.46308 12.9073 8.45703 18.1235ZM17.9063 9.97746C22.4054 9.97746 26.0523 13.6244 26.0523 18.1235C26.0523 22.6225 22.4054 26.2695 17.9063 26.2695C13.4073 26.2695 9.76029 22.6225 9.76029 18.1235C9.76538 13.6267 13.4095 9.98255 17.9063 9.97746Z" fill="white"/>
<path d="M30.5687 29.1793L25.4641 31.591C24.7594 30.2802 23.4074 29.4459 21.9196 29.4039L17.2074 29.2744C16.4612 29.2531 15.7291 29.0641 15.0657 28.7214L14.5862 28.4729C12.1311 27.1932 9.20485 27.1964 6.75233 28.4812L6.78224 27.3949C6.7921 27.035 6.5086 26.7353 6.14874 26.7255L0.981514 26.5832C0.621654 26.5734 0.322247 26.8569 0.312383 27.2167L0.000249766 38.556C-0.00961372 38.9159 0.273884 39.2156 0.633744 39.2254L5.80097 39.3677H5.81879C6.17197 39.3677 6.46088 39.0867 6.47042 38.7339L6.48538 38.1914L7.82777 37.4726C8.35468 37.1891 8.97067 37.1216 9.54626 37.2845L17.5625 39.5344C17.5765 39.5385 17.5905 39.5417 17.6048 39.5449C18.1842 39.6661 18.7747 39.7269 19.3665 39.7266C20.6202 39.7272 21.8591 39.4571 22.9985 38.934C23.0265 38.9213 23.0536 38.9063 23.0794 38.8894L34.7021 31.3715C34.9917 31.1841 35.0852 30.8039 34.9156 30.5035C34.0527 28.9724 32.1389 28.3892 30.5687 29.1793ZM1.32101 37.9406L1.59719 27.904L5.46147 28.0103L5.1853 38.0472L1.32101 37.9406ZM22.4115 37.7701C20.9959 38.409 19.4149 38.5853 17.8934 38.2744L9.8988 36.0303C8.99899 35.7761 8.03586 35.8814 7.21273 36.324L6.52674 36.6915L6.71033 30.0183C8.88413 28.5725 11.672 28.4239 13.9871 29.6301L14.4666 29.8786C15.3047 30.3113 16.229 30.55 17.1717 30.5773L21.8843 30.7068C23.2079 30.745 24.332 31.6875 24.6006 32.9844L17.5812 32.7906C17.2214 32.7807 16.922 33.0645 16.9118 33.4241C16.9019 33.7839 17.1857 34.0837 17.5453 34.0935L25.2917 34.3067H25.3098C25.6627 34.3064 25.9513 34.0254 25.9608 33.6729C25.9688 33.3897 25.9478 33.1062 25.8978 32.8275L31.1334 30.3537C31.1385 30.3514 31.1436 30.3489 31.1487 30.3463C31.8913 29.9706 32.7892 30.0962 33.4001 30.6616L22.4115 37.7701Z" fill="white"/>
<path d="M18.5601 6.84212V0.651631C18.5601 0.29177 18.2683 0 17.9085 0C17.5486 0 17.2568 0.29177 17.2568 0.651631V6.84212C17.2568 7.20198 17.5486 7.49375 17.9085 7.49375C18.2683 7.49375 18.5601 7.20198 18.5601 6.84212Z" fill="white"/>
<path d="M23.4458 6.84212V3.90978C23.4458 3.54992 23.1541 3.25815 22.7942 3.25815C22.4343 3.25815 22.1426 3.54992 22.1426 3.90978V6.84212C22.1426 7.20198 22.4343 7.49375 22.7942 7.49375C23.1541 7.49375 23.4458 7.20198 23.4458 6.84212Z" fill="white"/>
<path d="M13.6724 6.84212V3.90978C13.6724 3.54992 13.3806 3.25815 13.0208 3.25815C12.6609 3.25815 12.3691 3.54992 12.3691 3.90978V6.84212C12.3691 7.20198 12.6609 7.49375 13.0208 7.49375C13.3806 7.49375 13.6724 7.20198 13.6724 6.84212Z" fill="white"/>
</svg>
