<svg width="16" height="20" viewBox="0 0 16 20" fill="none" xmlns="http://www.w3.org/2000/svg">
<path d="M15.3307 3.66667C15.3315 3.57871 15.2974 3.494 15.236 3.431L11.9027 0.0976667C11.84 0.0358333 11.755 0.00175 11.667 0.003V0H1.66699C1.1147 0 0.666992 0.447708 0.666992 1V19C0.666992 19.5523 1.1147 20 1.66699 20H14.3337C14.886 20 15.3337 19.5523 15.3337 19V3.66667H15.3307ZM12.0003 1.138L14.1957 3.33333H12.3337C12.1496 3.33333 12.0003 3.18408 12.0003 3V1.138ZM14.667 19C14.667 19.1841 14.5177 19.3333 14.3337 19.3333H1.66699C1.48291 19.3333 1.33366 19.1841 1.33366 19V1C1.33366 0.815917 1.48291 0.666667 1.66699 0.666667H11.3337V3C11.3337 3.55229 11.7814 4 12.3337 4H14.667V19Z" fill="white"/>
</svg>
