<svg width="150" height="40" viewBox="0 0 150 40" fill="none" xmlns="http://www.w3.org/2000/svg">
<path d="M55.6602 21.8941L59.2402 13.3402H61.5602L55.6602 27.2891L49.7402 13.3402H52.0902L55.6602 21.8941ZM62.6202 27.2891V13.3402H64.7502V27.2891H62.6202ZM75.1202 27.2891H67.3102V13.3402H69.4402V25.3198H75.1202V27.2891ZM77.0002 27.2891V13.3402H79.1302V27.2891H77.0002ZM85.5802 26.7455C84.3459 26.2136 83.2924 25.3193 82.5523 24.1751C81.8121 23.0309 81.4182 21.6878 81.4202 20.3146C81.436 19.3782 81.6332 18.4543 82.0002 17.5966C82.3541 16.7692 82.8523 16.015 83.4702 15.371C84.0878 14.7369 84.822 14.2348 85.6302 13.894C86.4651 13.5299 87.3629 13.3415 88.2702 13.3402C89.1836 13.345 90.0873 13.5332 90.9302 13.894C91.7017 14.2538 92.4031 14.7542 93.0002 15.371C93.612 16.0158 94.1035 16.7701 94.4502 17.5966C94.8001 18.4579 94.9802 19.3816 94.9802 20.3146C94.9791 21.2298 94.8019 22.1358 94.4587 22.9807C94.1155 23.8255 93.613 24.5925 92.9802 25.2377C92.3568 25.8723 91.6245 26.3834 90.8202 26.7455C89.977 27.1043 89.0731 27.2891 88.1602 27.2891C87.2738 27.2831 86.3971 27.0984 85.5802 26.7455ZM84.9202 16.93C84.1593 17.7129 83.6864 18.7421 83.5823 19.8424C83.4781 20.9427 83.749 22.046 84.3488 22.9644C84.9487 23.8828 85.8404 24.5596 86.8721 24.8795C87.9038 25.1993 89.0118 25.1425 90.0072 24.7186C91.0026 24.2948 91.824 23.5301 92.3315 22.5548C92.839 21.5796 93.0012 20.4541 92.7905 19.3699C92.5798 18.2858 92.0092 17.3101 91.1759 16.609C90.3425 15.9079 89.298 15.5248 88.2202 15.5248C87.607 15.5243 86.9997 15.6482 86.4334 15.8893C85.867 16.1305 85.3528 16.4842 84.9202 16.93ZM99.5102 18.8685V27.2891H97.4002V13.3402L105.4 21.7813V13.3402H107.5V27.2891L99.5102 18.8685ZM110.79 27.2891C110.451 27.2891 110.125 27.1507 109.885 26.9045C109.645 26.6583 109.51 26.3244 109.51 25.9762C109.51 25.628 109.645 25.2941 109.885 25.0479C110.125 24.8017 110.451 24.6634 110.79 24.6634C111.13 24.6634 111.455 24.8017 111.695 25.0479C111.935 25.2941 112.07 25.628 112.07 25.9762C112.07 26.3244 111.935 26.6583 111.695 26.9045C111.455 27.1507 111.13 27.2891 110.79 27.2891ZM116.27 13.3402H118.51C119.138 13.3082 119.765 13.4143 120.35 13.6513C120.935 13.8884 121.463 14.2509 121.9 14.7146C122.65 15.6113 123.043 16.7649 123 17.9454C123.048 19.1298 122.655 20.2886 121.9 21.1864C121.467 21.6558 120.939 22.0228 120.354 22.2619C119.769 22.501 119.139 22.6065 118.51 22.5711H116.6V27.2891H114.47V13.3402H116.27ZM121.09 17.9454C121.117 17.2581 120.9 16.5842 120.48 16.0479C120.218 15.7849 119.903 15.5821 119.559 15.453C119.214 15.3239 118.846 15.2715 118.48 15.2992H116.6V20.6018H118.51C118.876 20.6335 119.244 20.5839 119.589 20.4565C119.934 20.3291 120.248 20.1267 120.51 19.8633C120.923 19.3169 121.129 18.6356 121.09 17.9454ZM134.43 27.2891H132L128.57 22.5711H127V27.2891H124.88V13.3402H128.88C129.51 13.306 130.14 13.4131 130.725 13.654C131.311 13.8949 131.838 14.2639 132.27 14.7351C133.015 15.6349 133.407 16.7863 133.37 17.9659C133.405 19.1421 133.013 20.2898 132.27 21.1864C131.833 21.6556 131.291 22.0078 130.69 22.2121L134.43 27.2891ZM129 20.6223C129.368 20.6556 129.738 20.6048 130.083 20.4735C130.429 20.3423 130.742 20.1339 131 19.8633C131.422 19.3288 131.636 18.6527 131.6 17.9659C131.639 17.2724 131.425 16.5888 131 16.0479C130.739 15.7841 130.424 15.5821 130.079 15.4563C129.733 15.3305 129.365 15.2839 129 15.3197H127V20.6223H129ZM139.9 26.7455C139.09 26.3936 138.356 25.8812 137.74 25.2377C137.114 24.6071 136.617 23.8537 136.28 23.0223C135.924 22.1663 135.741 21.2453 135.74 20.3146C135.744 19.381 135.927 18.4572 136.28 17.5966C136.626 16.7673 137.122 16.0122 137.74 15.371C138.358 14.7369 139.092 14.2348 139.9 13.894C140.735 13.5309 141.633 13.3426 142.54 13.3402C144.347 13.3493 146.078 14.086 147.36 15.3915C147.975 16.0336 148.467 16.7886 148.81 17.6172C149.16 18.4784 149.34 19.4021 149.34 20.3351C149.343 21.2651 149.163 22.1861 148.81 23.0429C148.477 23.8737 147.984 24.6272 147.36 25.2583C146.739 25.8954 146.006 26.4069 145.2 26.766C144.357 27.1259 143.453 27.3106 142.54 27.3096C141.632 27.3042 140.735 27.1124 139.9 26.7455ZM139.24 16.93C138.479 17.7129 138.006 18.7421 137.902 19.8424C137.798 20.9427 138.069 22.046 138.669 22.9644C139.269 23.8828 140.16 24.5596 141.192 24.8795C142.224 25.1993 143.332 25.1425 144.327 24.7186C145.323 24.2948 146.144 23.5301 146.651 22.5548C147.159 21.5796 147.321 20.4541 147.11 19.3699C146.9 18.2858 146.329 17.3101 145.496 16.609C144.663 15.9079 143.618 15.5248 142.54 15.5248C141.927 15.5243 141.32 15.6482 140.753 15.8893C140.187 16.1305 139.673 16.4842 139.24 16.93Z" fill="white"/>
<path d="M29.7223 0.18457H8.51791C3.87994 0.18457 0.120117 3.88704 0.120117 8.45427V30.89C0.120117 35.4572 3.87994 39.1597 8.51791 39.1597H29.7223C34.3603 39.1597 38.1201 35.4572 38.1201 30.89V8.45427C38.1201 3.88704 34.3603 0.18457 29.7223 0.18457Z" fill="#070D2D"/>
<path d="M36.464 1.55902L1.536 37.3837M19 0V38.9756V0ZM25.016 0V38.9756V0ZM33.152 0V38.9756V0ZM4.848 0V38.9756V0ZM12.976 0V38.9756V0ZM38 19.4878H0H38ZM38 25.6582H0H38ZM38 34.0031H0H38ZM38 4.97246H0H38ZM38 13.3091H0H38ZM1.536 1.55902L36.464 37.3837L1.536 1.55902Z" stroke="#273581" stroke-width="0.25"/>
<path d="M18.9997 33.9868C26.8157 33.9868 33.1517 27.4881 33.1517 19.4714C33.1517 11.4548 26.8157 4.95605 18.9997 4.95605C11.1837 4.95605 4.84766 11.4548 4.84766 19.4714C4.84766 27.4881 11.1837 33.9868 18.9997 33.9868Z" stroke="#273581" stroke-width="0.25"/>
<path d="M18.9996 25.6499C22.3265 25.6499 25.0236 22.8836 25.0236 19.4712C25.0236 16.0588 22.3265 13.2925 18.9996 13.2925C15.6726 13.2925 12.9756 16.0588 12.9756 19.4712C12.9756 22.8836 15.6726 25.6499 18.9996 25.6499Z" stroke="#273581" stroke-width="0.25"/>
<path d="M18.9999 28.1851C23.6921 28.1851 27.4958 24.2836 27.4958 19.4709C27.4958 14.6583 23.6921 10.7568 18.9999 10.7568C14.3077 10.7568 10.5039 14.6583 10.5039 19.4709C10.5039 24.2836 14.3077 28.1851 18.9999 28.1851Z" stroke="#273581" stroke-width="0.25"/>
</svg>
