<svg width="21" height="21" viewBox="0 0 21 21" fill="none" xmlns="http://www.w3.org/2000/svg">
<path d="M19.1543 3.3064H1.8457C0.827982 3.3064 0 4.13438 0 5.1521V15.8482C0 16.866 0.827982 17.6939 1.8457 17.6939H19.1543C20.172 17.6939 21 16.866 21 15.8482V5.1521C21 4.13438 20.172 3.3064 19.1543 3.3064ZM18.9134 4.53687L18.6671 4.74198L11.2323 10.9329C10.8079 11.2862 10.192 11.2862 9.76771 10.9329L2.33293 4.74198L2.08659 4.53687H18.9134ZM1.23047 5.42518L7.28815 10.4694L1.23047 14.501V5.42518ZM19.1543 16.4635H1.8457C1.54842 16.4635 1.29979 16.2515 1.24281 15.9708L8.27474 11.2909L8.98037 11.8785C9.42063 12.2451 9.96036 12.4284 10.5 12.4284C11.0397 12.4284 11.5794 12.2451 12.0197 11.8785L12.7253 11.2909L19.7572 15.9708C19.7002 16.2515 19.4516 16.4635 19.1543 16.4635ZM19.7695 14.501L13.7119 10.4694L19.7695 5.42518V14.501Z" fill="#C5A480"/>
</svg>
