<svg width="28" height="27" viewBox="0 0 28 27" fill="none" xmlns="http://www.w3.org/2000/svg">
<g clip-path="url(#clip0)">
<path d="M10.2477 22.9257C9.81715 22.4951 9.46634 21.9921 9.20054 21.4229C8.02948 18.9156 7.4105 16.1203 7.41047 13.3391C7.41044 10.5579 8.02945 7.76254 9.20054 5.25527C9.5769 4.44953 10.1237 3.77605 10.8258 3.25353C11.4834 2.7641 12.2624 2.42947 13.0785 2.28583C13.8982 2.14155 14.7493 2.1909 15.5398 2.42851C16.3827 2.68191 17.1305 3.13075 17.7624 3.76266C17.9589 3.95919 17.9915 4.26636 17.8405 4.4997L15.4416 8.20716C15.3329 8.37503 15.1466 8.4764 14.9466 8.47642L12.7108 8.4764C11.6686 11.6278 11.6686 15.0503 12.7108 18.2017L14.9466 18.2017C15.1466 18.2017 15.3329 18.3031 15.4416 18.4709L17.8405 22.1784C17.9915 22.4118 17.9589 22.7189 17.7624 22.9154C17.1305 23.5473 16.3827 23.9962 15.5397 24.2496C14.7492 24.4872 13.8981 24.5365 13.0785 24.3923C12.2624 24.2486 11.4834 23.914 10.8257 23.4246C10.6196 23.2712 10.4268 23.1047 10.2477 22.9257ZM16.5775 4.2815C15.652 3.53999 14.4753 3.23707 13.2828 3.44696C11.9419 3.68296 10.8433 4.5239 10.2687 5.75421C8.01728 10.5745 8.01728 16.1037 10.2687 20.924C10.8433 22.1543 11.9419 22.9952 13.2828 23.2312C14.4753 23.4411 15.652 23.1382 16.5775 22.3967L14.626 19.3807L12.2909 19.3807C12.0424 19.3807 11.8207 19.2249 11.7364 18.9913C10.4216 15.3464 10.4216 11.3318 11.7364 7.68693C11.8207 7.45325 12.0425 7.29747 12.2909 7.29749L14.626 7.29749L16.5775 4.2815Z" fill="#C5A480"/>
</g>
<defs>
<clipPath id="clip0">
<rect width="18.864" height="18.864" fill="white" transform="translate(14) rotate(45)"/>
</clipPath>
</defs>
</svg>
