<svg width="24" height="33" viewBox="0 0 24 33" fill="none" xmlns="http://www.w3.org/2000/svg">
<path d="M2.52637 12.0001C2.52637 17.224 6.77625 21.4739 12.0001 21.4739C17.224 21.4739 21.4739 17.224 21.4739 12.0001C21.4739 6.77618 17.224 2.52631 12.0001 2.52631C6.77625 2.52631 2.52637 6.77618 2.52637 12.0001ZM12.0001 3.78948C16.5276 3.78948 20.2108 7.47266 20.2108 12.0001C20.2108 16.5275 16.5276 20.2107 12.0001 20.2107C7.47272 20.2107 3.78954 16.5275 3.78954 12.0001C3.78954 7.47266 7.47272 3.78948 12.0001 3.78948Z" fill="white"/>
<path d="M6.15124 10.8741L8.59938 13.2862L8.03613 16.6763C7.9969 16.9124 8.09435 17.1503 8.28802 17.2909C8.48145 17.4315 8.73778 17.4505 8.9502 17.3405L12.0003 15.7566L15.0502 17.3405C15.2609 17.4498 15.5172 17.4327 15.7124 17.2909C15.906 17.1503 16.0035 16.9124 15.9643 16.6763L15.401 13.2862L17.8491 10.8741C18.0196 10.7064 18.0806 10.4567 18.0065 10.229C17.9325 10.0015 17.7364 9.83547 17.4998 9.79969L14.1023 9.28826L12.565 6.21397C12.4582 6.00007 12.2394 5.86487 12.0003 5.86487C11.761 5.86487 11.5424 6.00007 11.4353 6.21397L9.89807 9.28826L6.50059 9.79969C6.26399 9.83522 6.06785 10.0015 5.99384 10.229C5.91982 10.4567 5.98101 10.7064 6.15124 10.8741ZM10.4105 10.4885C10.6138 10.4579 10.7894 10.3304 10.8815 10.1466L12.0003 7.90864L13.1192 10.1466C13.2112 10.3304 13.3868 10.4579 13.5901 10.4885L16.0629 10.8608L14.2809 12.6162C14.1346 12.7605 14.0675 12.967 14.1011 13.1698L14.5111 15.6372L12.2912 14.4845C12.2002 14.4372 12.1002 14.4135 12.0003 14.4135C11.9004 14.4135 11.8005 14.4372 11.7092 14.4845L9.48927 15.6372L9.89931 13.1698C9.93311 12.967 9.866 12.7605 9.71945 12.6162L7.93769 10.8608L10.4105 10.4885Z" fill="white"/>
<path d="M12.6313 0.631585C12.6313 0.980438 12.3486 1.26317 11.9997 1.26317C11.6509 1.26317 11.3682 0.980438 11.3682 0.631585C11.3682 0.282733 11.6509 0 11.9997 0C12.3486 0 12.6313 0.282733 12.6313 0.631585Z" fill="white"/>
<path d="M9.02353 0.372284C3.71056 1.72847 0 6.51001 0 12.0001C0 15.4099 1.43365 18.6229 3.95037 20.8983L0.145314 27.6042C0.0229443 27.8201 0.0382405 28.0875 0.184295 28.2879C0.330349 28.4884 0.580022 28.5849 0.823035 28.5343L5.14421 27.637L6.66298 31.9168C6.74538 32.1497 6.95632 32.3127 7.20254 32.3347C7.44876 32.3567 7.68486 32.2326 7.80699 32.0177L12.0001 24.6459L16.193 32.0177C16.306 32.2163 16.5162 32.3369 16.7417 32.3369C16.7602 32.3369 16.779 32.3362 16.7975 32.3347C17.0437 32.3127 17.2546 32.1494 17.3373 31.9168L18.8558 27.637L23.177 28.5343C23.4197 28.5847 23.6697 28.4882 23.8157 28.2879C23.962 28.0875 23.9771 27.8201 23.8547 27.6042L20.0496 20.8983C22.5663 18.6229 24 15.4099 24 12.0001C24 6.51001 20.2894 1.72847 14.9767 0.372284C14.6385 0.285934 14.2948 0.489966 14.2085 0.827963C14.1221 1.16596 14.3261 1.50988 14.6641 1.59623C19.4173 2.80956 22.7371 7.08781 22.7371 12.0001C22.7371 17.9787 17.8815 22.7371 12.0001 22.7371C6.11454 22.7371 1.26317 17.9748 1.26317 12.0001C1.26317 7.08781 4.5827 2.80956 9.33587 1.59623C9.67387 1.50988 9.8779 1.16596 9.79179 0.827963C9.70545 0.489966 9.36177 0.285934 9.02353 0.372284ZM7.39177 30.1932L6.15056 26.6956C6.04496 26.398 5.73608 26.2241 5.42695 26.2883L1.93275 27.0138L4.94413 21.7065C6.69999 22.983 8.77904 23.7607 10.941 23.9531L7.39177 30.1932ZM18.5731 26.2883C18.2642 26.2241 17.955 26.398 17.8494 26.6956L16.6085 30.1932L13.059 23.9531C15.2212 23.7607 17.3 22.983 19.0561 21.7065L22.0675 27.0138L18.5731 26.2883Z" fill="white"/>
</svg>
