<svg width="35" height="34" viewBox="0 0 35 34" fill="none" xmlns="http://www.w3.org/2000/svg">
<path d="M34.4001 16.6262C34.4001 16.0944 34.2115 15.5916 33.866 15.1942C34.5273 14.8272 34.984 14.1269 34.9995 13.3253C35.0114 12.7443 34.79 12.1918 34.3762 11.7695C34.2226 11.6128 34.0472 11.4805 33.8572 11.3758C34.195 10.9909 34.4001 10.4865 34.4001 9.93521C34.4001 9.35073 34.1725 8.8018 33.7603 8.39041C33.3484 7.97765 32.7995 7.75043 32.2147 7.75043H28.29L29.7933 4.54838C30.4328 3.18692 29.8451 1.55831 28.4828 0.917984C28.1175 0.746469 27.728 0.659515 27.3249 0.659515C26.2705 0.659515 25.3 1.27571 24.8523 2.2294L24.0685 3.89991C24.0439 3.95221 24.0187 4.00389 23.9923 4.05489C23.8621 4.30631 23.9603 4.61571 24.2118 4.74594C24.4631 4.87609 24.7726 4.77793 24.9029 4.5265C24.9352 4.46409 24.9661 4.40086 24.9965 4.33619L25.7805 2.66492C26.06 2.06958 26.6662 1.68485 27.3248 1.68485C27.5761 1.68485 27.819 1.73906 28.0467 1.84597C28.8972 2.24581 29.2644 3.26246 28.8651 4.11245L27.0303 8.02058C26.9565 8.17781 26.9673 8.36177 27.0591 8.50922L27.0747 8.53383C27.1683 8.68429 27.3329 8.77576 27.5101 8.77576H32.2146C32.5252 8.77576 32.8163 8.89607 33.0352 9.11544C33.2541 9.33385 33.3747 9.62499 33.3747 9.93514C33.3747 10.5752 32.8543 11.0959 32.2146 11.0959C31.9314 11.0959 31.7019 11.3254 31.7019 11.6086C31.7019 11.8917 31.9314 12.1213 32.2146 12.1213H32.7779C33.1004 12.1213 33.416 12.2546 33.6438 12.4871C33.8631 12.711 33.9805 13.0012 33.9743 13.3048C33.9621 13.9315 33.4422 14.4414 32.8155 14.4414H32.2146C31.9314 14.4414 31.7019 14.6709 31.7019 14.9541C31.7019 15.2372 31.9314 15.4668 32.2146 15.4668C32.5251 15.4668 32.8164 15.587 33.0347 15.8054C33.254 16.0246 33.3747 16.3161 33.3747 16.6261C33.3747 17.2658 32.8543 17.7862 32.2146 17.7862H31.6144C31.3312 17.7862 31.1017 18.0158 31.1017 18.2989C31.1017 18.5821 31.3312 18.8116 31.6144 18.8116C31.924 18.8116 32.2154 18.9323 32.4338 19.1502C32.5445 19.2614 32.6305 19.3907 32.6895 19.5347C32.691 19.5386 32.6924 19.5424 32.6938 19.5463C32.7468 19.6809 32.7737 19.8241 32.7737 19.9717C32.7737 20.6113 32.2537 21.1318 31.6144 21.1318H22.5C21.9673 21.1318 21.4602 20.9637 21.0398 20.6528C21.1073 20.4626 21.1444 20.258 21.1444 20.0448V9.61378C21.1444 9.61159 21.1443 9.60941 21.1443 9.60722C21.1443 9.60612 21.1444 9.6051 21.1444 9.60401C21.1359 9.16131 21.2228 8.73132 21.4024 8.32636C21.664 7.73785 22.094 7.2557 22.6456 6.93223C22.9583 6.74916 23.2562 6.53389 23.5309 6.29244C23.7436 6.10555 23.7645 5.78159 23.5776 5.56892C23.3907 5.35619 23.0667 5.33534 22.854 5.52223C22.6283 5.72061 22.3839 5.89726 22.1272 6.04758C21.3893 6.48037 20.8147 7.12432 20.4653 7.91025C20.4333 7.98244 20.4037 8.05531 20.3761 8.12859C20.0783 7.91654 19.7146 7.7913 19.3219 7.7913H16.7386C15.7341 7.7913 14.9168 8.60882 14.9168 9.61378V16.0443C13.3951 15.0321 11.5701 14.4414 9.60936 14.4414C4.31078 14.4414 0 18.7521 0 24.0507C0 24.6092 0.0483305 25.1685 0.143761 25.7128C0.192707 25.9917 0.458627 26.1784 0.737262 26.1293C1.01617 26.0805 1.20273 25.8147 1.15385 25.5358C1.09786 25.2163 1.0604 24.8907 1.04099 24.5634H2.43683C2.72004 24.5634 2.94953 24.3338 2.94953 24.0507C2.94953 23.7675 2.72004 23.538 2.43683 23.538H1.04112C1.1116 22.3481 1.42544 21.2227 1.93356 20.211L2.47231 20.522C2.55311 20.5687 2.64122 20.5908 2.72818 20.5908C2.90537 20.5908 3.0777 20.4988 3.17265 20.3344C3.31423 20.0892 3.23021 19.7756 2.98501 19.6341L2.44777 19.3239C3.08734 18.3581 3.91682 17.5287 4.88261 16.8891L5.19276 17.4263C5.28771 17.5908 5.46005 17.6827 5.63724 17.6827C5.72419 17.6827 5.81237 17.6606 5.89311 17.6139C6.13831 17.4724 6.22233 17.1588 6.08076 16.9136L5.76979 16.3749C6.78151 15.8668 7.90686 15.553 9.09666 15.4825V16.8781C9.09666 17.1612 9.32615 17.3908 9.60936 17.3908C9.89258 17.3908 10.1221 17.1612 10.1221 16.8781V15.4825C11.3119 15.553 12.4372 15.8668 13.4489 16.3749L13.138 16.9135C12.9964 17.1587 13.0804 17.4723 13.3256 17.6139C13.4064 17.6605 13.4945 17.6826 13.5815 17.6826C13.7587 17.6826 13.931 17.5906 14.026 17.4262L14.336 16.8891C15.3018 17.5287 16.1312 18.3581 16.7708 19.3239L16.2337 19.634C15.9885 19.7756 15.9045 20.0891 16.0461 20.3343C16.141 20.4988 16.3134 20.5907 16.4905 20.5907C16.5775 20.5907 16.6657 20.5686 16.7464 20.522L17.285 20.211C17.7932 21.2227 18.107 22.348 18.1775 23.5379H16.782C16.4987 23.5379 16.2693 23.7674 16.2693 24.0506C16.2693 24.3337 16.4987 24.5633 16.782 24.5633H18.1775C18.107 25.7531 17.7932 26.8784 17.2851 27.8902L16.7465 27.5792C16.5011 27.4375 16.1876 27.5216 16.0461 27.7668C15.9046 28.012 15.9886 28.3256 16.2338 28.4672L16.771 28.7773C16.1314 29.7431 15.302 30.5726 14.3362 31.2122L14.026 30.675C13.8845 30.4297 13.571 30.3458 13.3257 30.4874C13.0805 30.6289 12.9965 30.9425 13.138 31.1877L13.449 31.7264C12.4373 32.2346 11.3119 32.5484 10.1221 32.6189V31.2234C10.1221 30.9402 9.89264 30.7107 9.60943 30.7107C9.32621 30.7107 9.09673 30.9402 9.09673 31.2234V32.6182C7.91752 32.5484 6.78896 32.2397 5.76808 31.7296L6.08082 31.1878C6.2224 30.9426 6.13838 30.6291 5.89318 30.4875C5.64783 30.3459 5.33433 30.4299 5.19283 30.6751L4.8794 31.2181C3.92017 30.5853 3.08837 29.7597 2.44305 28.7803L2.98507 28.4673C3.23028 28.3257 3.3143 28.0122 3.17272 27.767C3.03122 27.5217 2.71751 27.4377 2.47237 27.5793L1.93158 27.8915C1.84962 27.7275 1.77141 27.5608 1.69929 27.3902C1.58903 27.1294 1.28831 27.0074 1.02745 27.1176C0.766657 27.2277 0.644566 27.5286 0.754831 27.7894C2.2621 31.3557 5.73773 33.6601 9.60936 33.6601C14.9079 33.6601 19.2187 29.3494 19.2187 24.0508C19.2187 23.3 19.1319 22.5691 18.9683 21.8674H19.3219C19.7424 21.8674 20.1298 21.7239 20.4385 21.4838C21.0327 21.921 21.7484 22.1573 22.5 22.1573H31.6144C32.8191 22.1573 33.7992 21.1769 33.7992 19.9718C33.7992 19.7011 33.7505 19.4373 33.6545 19.1873C33.6524 19.1811 33.6501 19.1749 33.6475 19.1688C33.5562 18.9386 33.4286 18.7284 33.2668 18.5414C33.9419 18.169 34.4001 17.4501 34.4001 16.6262ZM19.3219 20.8419H18.667C18.112 19.2799 17.164 17.9028 15.9422 16.8299V9.61378C15.9422 9.17429 16.2995 8.8167 16.7386 8.8167H19.3219C19.7614 8.8167 20.1189 9.17429 20.1189 9.61378V20.0448C20.119 20.4844 19.7614 20.8419 19.3219 20.8419Z" fill="white"/>
<path d="M9.60924 25.7224C9.60931 25.7224 9.60931 25.7224 9.60924 25.7224C10.5309 25.7223 11.2807 24.9725 11.2807 24.0508V21.0917C11.2807 20.17 10.5309 19.4202 9.60917 19.4202C8.68747 19.4202 7.93763 20.17 7.93763 21.0917V22.3792H5.38247C4.46078 22.3792 3.71094 23.1291 3.71094 24.0508C3.71094 24.9725 4.46078 25.7224 5.38247 25.7224H9.60924ZM8.96303 21.0917C8.96303 20.7354 9.25288 20.4456 9.60917 20.4456C9.96546 20.4456 10.2553 20.7354 10.2553 21.0917V24.0508C10.2553 24.4071 9.96546 24.697 9.60917 24.697C9.25288 24.697 8.96303 24.4071 8.96303 24.0508V21.0917ZM4.73634 24.0508C4.73634 23.6945 5.02618 23.4046 5.38247 23.4046H7.93763V24.0508C7.93763 24.2797 7.98398 24.498 8.06765 24.6969H5.38247C5.02618 24.697 4.73634 24.4071 4.73634 24.0508Z" fill="white"/>
<path d="M13.1299 3.40287C13.3325 3.99383 13.8911 4.37309 14.4909 4.37309C14.6131 4.37309 14.7372 4.3573 14.8601 4.32435L14.993 4.28874H14.9931C15.7195 4.09405 16.1753 3.36349 16.0309 2.62556L15.744 1.16C15.6678 0.770899 15.4312 0.427325 15.0948 0.217462C14.7584 0.00746231 14.3457 -0.0539927 13.9628 0.0486146L13.6323 0.13714C13.2494 0.239747 12.9228 0.499307 12.7365 0.849307C12.5501 1.19931 12.517 1.61514 12.6456 1.99016L13.1299 3.40287ZM13.6416 1.33124C13.6957 1.22966 13.7867 1.15733 13.8978 1.1276L14.2282 1.03907C14.2639 1.0295 14.2999 1.02479 14.3357 1.02479C14.4114 1.02479 14.4857 1.04598 14.552 1.0874C14.6497 1.14831 14.7156 1.24408 14.7377 1.35701L15.0246 2.82257C15.0659 3.03359 14.9355 3.24263 14.7278 3.29828L14.5948 3.33389C14.3872 3.38954 14.1696 3.27381 14.0999 3.0703L13.6156 1.65766C13.5783 1.54876 13.5875 1.43282 13.6416 1.33124Z" fill="white"/>
<path d="M8.06188 5.59591L9.18762 6.57721C9.45771 6.81257 9.79445 6.92912 10.1306 6.92912C10.4999 6.92912 10.8685 6.78837 11.1469 6.51008L11.2442 6.41274C11.7759 5.88104 11.8054 5.02039 11.3113 4.45356L10.33 3.32775C10.0695 3.02881 9.69286 2.84958 9.29659 2.83604C8.90208 2.82244 8.51223 2.97543 8.23182 3.25584L7.98997 3.49769C7.70956 3.7781 7.55657 4.16611 7.57017 4.56239C7.58371 4.95873 7.76294 5.33539 8.06188 5.59591ZM8.71505 4.22278L8.95691 3.98092C9.03484 3.90299 9.13731 3.86061 9.24682 3.86061C9.25167 3.86061 9.2566 3.86068 9.26145 3.86088C9.3765 3.86485 9.4815 3.91475 9.5571 4.0015L10.5383 5.12731C10.6796 5.28946 10.6712 5.53562 10.5191 5.68772L10.4218 5.78499C10.2697 5.93716 10.0237 5.9455 9.86137 5.8042L8.73563 4.82297C8.64881 4.74737 8.59891 4.64237 8.59495 4.52732C8.59098 4.41227 8.63364 4.30412 8.71505 4.22278Z" fill="white"/>
<path d="M5.89336 11.0111L7.35899 11.298C7.451 11.316 7.54274 11.3247 7.63345 11.3247C8.27069 11.3247 8.85182 10.8961 9.0221 10.2604L9.05771 10.1274V10.1273C9.25233 9.40094 8.84758 8.64092 8.1363 8.39702L6.72359 7.91269C6.34843 7.78411 5.93274 7.81726 5.58267 8.00368C5.23274 8.19009 4.97318 8.51664 4.87064 8.89946L4.78205 9.22991C4.67937 9.61292 4.74089 10.0255 4.95082 10.3619C5.16076 10.6983 5.50433 10.935 5.89336 11.0111ZM5.7725 9.49548L5.86117 9.16496C5.8909 9.05381 5.96323 8.96283 6.06481 8.90868C6.12544 8.87642 6.19107 8.86015 6.25724 8.86015C6.30201 8.86015 6.34713 8.8676 6.39109 8.88271L7.80387 9.36703C8.00731 9.43676 8.12304 9.65414 8.06739 9.86189L8.03178 9.99491C7.97613 10.2027 7.76702 10.333 7.55607 10.2917L6.09044 10.0048C5.97758 9.98275 5.88174 9.91678 5.8209 9.81916C5.75986 9.72148 5.7427 9.60656 5.7725 9.49548Z" fill="white"/>
</svg>
