<svg width="12" height="10" viewBox="0 0 12 10" fill="none" xmlns="http://www.w3.org/2000/svg">
<path d="M0.138462 5.46169C0.0461539 5.36938 0 5.23092 0 5.13861C0 5.0463 0.0461539 4.90784 0.138462 4.81554L0.784615 4.16938C0.969231 3.98477 1.24615 3.98477 1.43077 4.16938L1.47692 4.21553L4.01538 6.93861C4.10769 7.03092 4.24615 7.03092 4.33846 6.93861L10.5231 0.523227H10.5692C10.7538 0.338612 11.0308 0.338612 11.2154 0.523227L11.8615 1.16938C12.0462 1.354 12.0462 1.63092 11.8615 1.81553L4.47692 9.47707C4.38462 9.56938 4.29231 9.61553 4.15385 9.61553C4.01538 9.61553 3.92308 9.56938 3.83077 9.47707L0.230769 5.60015L0.138462 5.46169Z" fill="#292121"/>
</svg>
