<svg width="200" height="47" viewBox="0 0 200 47" fill="none" xmlns="http://www.w3.org/2000/svg">
<path d="M68.132 31.4564H65.881L71.3478 18.215H72.5394L77.9492 31.4564H75.6982L71.9153 21.9792L68.132 31.4564Z" fill="white"/>
<path d="M87.2377 31.4564V25.1004L81.6762 31.4564H80.4846V21.9982H82.3762V28.3542L87.9378 21.9982H89.1293V31.4564H87.2377Z" fill="white"/>
<path d="M100.517 31.4564V25.1004L97.4528 28.6003L94.3883 25.1004V31.4564H92.4967V21.9982H93.6882L97.4528 26.3109L101.217 21.9982H102.409V31.4564H100.517Z" fill="white"/>
<path d="M107.1 26.7272C107.1 28.5242 108.481 29.754 110.051 29.754C111.621 29.754 113.021 28.5242 113.021 26.7272C113.021 24.9303 111.621 23.6818 110.051 23.6818C108.481 23.6818 107.1 24.9303 107.1 26.7272ZM114.913 26.7272C114.913 29.4133 112.737 31.5697 110.051 31.5697C107.365 31.5697 105.209 29.4133 105.209 26.7272C105.209 24.0411 107.365 21.8658 110.051 21.8658C112.737 21.8658 114.913 24.0411 114.913 26.7272Z" fill="white"/>
<path d="M124.579 31.4564V27.5785H119.604V31.4564H117.713V21.9982H119.604V25.7625H124.579V21.9982H126.471V31.4564H124.579Z" fill="white"/>
<path d="M142.909 31.4564V27.5785H137.934V31.4564H136.042V21.9982H137.934V25.7625H142.909V21.9982H144.801V31.4564H142.909Z" fill="white"/>
<path d="M155.413 26.7272C155.413 24.9303 154.013 23.6818 152.443 23.6818C150.873 23.6818 149.493 24.9303 149.493 26.7272C149.493 28.5242 150.873 29.754 152.443 29.754C154.013 29.754 155.413 28.5242 155.413 26.7272ZM155.867 31.4563L155.754 29.716C155.054 30.8322 153.768 31.5697 152.273 31.5697C149.587 31.5697 147.601 29.4133 147.601 26.7272C147.601 24.0411 149.587 21.8658 152.273 21.8658C153.768 21.8658 155.054 22.6223 155.754 23.7384L155.867 21.9982H157.153V31.4563H155.867Z" fill="white"/>
<path d="M173.744 31.4564V28.0892C173.157 28.9217 172.136 29.3757 170.868 29.3757C167.785 29.3757 166.631 27.4271 166.631 24.6463V21.9982H168.523V24.533C168.523 26.538 169.204 27.5598 171.152 27.5598C173.082 27.5598 173.744 26.3679 173.744 24.779V21.9982H175.635V31.4564H173.744Z" fill="white"/>
<path d="M186.247 26.7272C186.247 24.9303 184.847 23.6818 183.277 23.6818C181.708 23.6818 180.327 24.9303 180.327 26.7272C180.327 28.5242 181.708 29.754 183.277 29.754C184.847 29.754 186.247 28.5242 186.247 26.7272ZM186.701 31.4563L186.588 29.716C185.888 30.8322 184.602 31.5697 183.107 31.5697C180.421 31.5697 178.435 29.4133 178.435 26.7272C178.435 24.0411 180.421 21.8658 183.107 21.8658C184.602 21.8658 185.888 22.6223 186.588 23.7384L186.701 21.9982H187.988V31.4563H186.701Z" fill="white"/>
<path d="M192.85 18.3662H194.174C194.174 19.123 194.836 19.7094 195.687 19.7094C196.538 19.7094 197.2 19.123 197.2 18.3662H198.525C198.525 19.9175 197.257 21.0336 195.687 21.0336C194.117 21.0336 192.85 19.9175 192.85 18.3662ZM198.108 31.4563V25.1003L192.547 31.4563H191.355V21.9981H193.247V28.3541L198.808 21.9981H200V31.4563H198.108Z" fill="white"/>
<path d="M60.1541 15.2666C59.9096 9.99615 57.8638 6.17215 54.3946 4.49989C53.9755 4.29768 53.53 4.12824 53.068 3.99496L51.7168 3.373C51.4361 3.19407 51.1445 3.03107 50.847 2.88769C49.6726 2.32148 48.3851 2.0344 47.0208 2.0344C44.3902 2.0344 41.576 3.09756 38.7925 5.12859C36.5798 2.02153 33.7981 0.233157 30.7995 0.0266497C30.7094 0.0116401 30.6003 -7.41983e-06 30.4784 -7.41983e-06H25.9466C15.6965 -7.41983e-06 6.66543 7.00368 4.04828 16.8102C1.64162 17.7009 0 19.992 0 22.6637C0 25.3348 1.64162 27.6259 4.04828 28.5166C6.66543 38.3228 15.6965 45.3265 25.9466 45.3265H30.1178L30.1674 45.3259C30.1833 45.3262 30.199 45.3265 30.2149 45.3265C31.2851 45.3265 32.3443 45.1224 33.3741 44.7189L34.7991 45.3712C34.8848 45.4117 34.9712 45.4503 35.0586 45.4876L36.1799 45.9895L36.2274 45.8893C36.9658 46.0842 37.7379 46.1825 38.5364 46.1825C44.8736 46.1825 52.128 39.9672 56.5874 30.7164C59.1071 25.4898 60.3737 20.003 60.1541 15.2666Z" fill="white"/>
<path d="M6.27559 19.3003L6.19011 19.7473L5.73544 19.769C3.99976 19.8515 2.64001 21.2783 2.64001 23.0177C2.64001 24.757 3.99976 26.1838 5.73544 26.2663L6.19011 26.2877L6.27559 26.735C8.04344 35.9781 16.1676 42.687 25.5926 42.687H29.2831V3.34826H25.5926C16.1676 3.34826 8.04344 10.0572 6.27559 19.3003Z" fill="white"/>
<path d="M20.3837 24.4647C20.9113 13.2951 26.2339 4.47147 32.2718 4.75672L28.0085 4.55511C18.1453 4.0891 9.59923 10.7619 7.37088 20.0197C5.33893 20.0203 3.64553 21.6181 3.54841 23.6693C3.45159 25.7206 4.98689 27.471 7.00996 27.6631C8.3553 37.0897 15.6743 42.5148 25.5371 42.9809L29.8008 43.1825C23.7629 42.8972 19.8561 35.6343 20.3837 24.4647Z" fill="#FFD700"/>
<path d="M25.821 3.2627C16.3959 3.2627 8.27176 9.97164 6.50391 19.2147L6.41843 19.6617L5.96376 19.6835C4.22808 19.7656 2.86833 21.1927 2.86833 22.9321C2.86833 24.6714 4.22808 26.0983 5.96376 26.1807L6.41843 26.2022L6.50391 26.6492C8.27176 35.8925 16.3959 42.6012 25.821 42.6012H29.5114V3.2627H25.821ZM30.6671 43.0819C30.6671 43.4548 30.365 43.7569 29.9921 43.7569H25.821C15.9863 43.7569 7.48987 36.8583 5.45424 27.2901C3.32271 26.9687 1.71265 25.1353 1.71265 22.9321C1.71265 20.7289 3.32271 18.8951 5.45424 18.5737C7.48987 9.00561 15.9863 2.10701 25.821 2.10701H30.3527C30.5264 2.10701 30.6671 2.24764 30.6671 2.42136V43.0819Z" fill="#231F20"/>
<path d="M41.0341 22.9321C41.0341 34.1142 36.134 43.1793 30.0893 43.1793C24.0446 43.1793 19.1443 34.1142 19.1443 22.9321C19.1443 11.7499 24.0446 2.68482 30.0893 2.68482C36.134 2.68482 41.0341 11.7499 41.0341 22.9321Z" fill="white"/>
<path d="M30.0894 3.2627C27.388 3.2627 24.8202 5.26126 22.8587 8.88979C20.8362 12.6311 19.7225 17.6181 19.7225 22.9321C19.7225 28.2461 20.8362 33.2328 22.8587 36.9741C24.8202 40.6029 27.388 42.6012 30.0894 42.6012C32.7908 42.6012 35.3586 40.6029 37.3201 36.9741C39.3426 33.2328 40.4563 28.2461 40.4563 22.9321C40.4563 17.6181 39.3426 12.6311 37.3201 8.88979C35.3586 5.26126 32.7908 3.2627 30.0894 3.2627ZM30.0894 43.7569C26.9437 43.7569 24.0147 41.5432 21.8418 37.5237C19.7299 33.6167 18.5665 28.4345 18.5665 22.9321C18.5665 17.4294 19.7299 12.2475 21.8418 8.34044C24.0147 4.32065 26.9437 2.10701 30.0894 2.10701C33.2351 2.10701 36.1641 4.32065 38.337 8.34044C40.4489 12.2475 41.6123 17.4294 41.6123 22.9321C41.6123 28.4345 40.4489 33.6167 38.337 37.5237C36.1641 41.5432 33.2351 43.7569 30.0894 43.7569Z" fill="#231F20"/>
<path d="M36.3237 24.3049C36.3237 32.2636 33.2669 38.7152 29.4965 38.7152C25.7258 38.7152 22.6693 32.2636 22.6693 24.3049C22.6693 16.3462 25.7258 9.89464 29.4965 9.89464C33.2669 9.89464 36.3237 16.3462 36.3237 24.3049Z" fill="#FFD700"/>
<path d="M30.667 38.3876H29.5114V6.96278H30.667V38.3876Z" fill="#231F20"/>
<path d="M36.4803 23.3238H22.6115V22.1681H36.4803V23.3238Z" fill="#231F20"/>
<path d="M35.4477 31.4565L23.4244 14.2219L24.3724 13.5607L36.3956 30.7953L35.4477 31.4565Z" fill="#231F20"/>
<path d="M24.6957 32.7693L23.7036 32.1761L35.4256 12.5738L36.4174 13.1667L24.6957 32.7693Z" fill="#231F20"/>
<path d="M30.0892 7.54078C26.3491 7.54078 23.1894 14.504 23.1894 22.7461C23.1894 30.9885 26.3491 37.9518 30.0892 37.9518C33.8293 37.9518 36.989 30.9885 36.989 22.7461C36.989 14.504 33.8293 7.54078 30.0892 7.54078ZM30.0892 39.1075C25.5721 39.1075 22.0337 31.9205 22.0337 22.7461C22.0337 13.5717 25.5721 6.38509 30.0892 6.38509C34.6063 6.38509 38.1447 13.5717 38.1447 22.7461C38.1447 31.9205 34.6063 39.1075 30.0892 39.1075Z" fill="#231F20"/>
<path d="M51.978 7.24895L52.2789 6.61811L50.4188 5.76145C50.1811 5.60182 49.9323 5.45843 49.6719 5.33281C44.2271 2.708 35.8765 8.74565 31.0206 18.8184C26.1647 28.8912 26.642 39.1848 32.0871 41.8099C32.2514 41.889 32.4183 41.9598 32.5875 42.0232L34.8863 43.0818L35.2043 42.4144C40.3694 42.1782 46.7391 36.6204 50.7387 28.3244C54.7851 19.9303 55.1271 11.3839 51.978 7.24895Z" fill="white"/>
<path d="M34.7638 20.3783C39.0835 11.4181 46.1681 5.65097 51.5133 6.33421L50.471 5.85441C50.2332 5.69447 49.9844 5.55108 49.724 5.42577C44.2792 2.80065 35.9286 8.8383 31.0727 18.9111C26.2165 28.9841 26.6942 39.2775 32.1393 41.9026C32.3032 41.9816 32.4702 42.0524 32.6396 42.1161L34.9381 43.1744L35.0582 42.9232C30.3515 39.7245 30.1484 29.952 34.7638 20.3783Z" fill="#FFD700"/>
<path d="M46.8952 5.29707C41.7641 5.29707 35.4504 10.9603 31.5413 19.0694C29.2336 23.8561 28.0711 28.8318 28.2681 33.0802C28.4593 37.2008 29.9048 40.1163 32.3382 41.2892C32.4831 41.359 32.6354 41.424 32.7904 41.4822L32.8293 41.4984L34.61 42.3183L34.8321 41.8529L35.1781 41.8373C40.238 41.6057 46.4227 35.9458 50.2183 28.0732C54.0735 20.0756 54.6085 11.6561 51.5183 7.59895L51.3047 7.3186L51.5054 6.89793L50.1349 6.26708L50.0966 6.24104C49.8797 6.09551 49.6527 5.96499 49.421 5.85346C48.6554 5.48427 47.8055 5.29707 46.8952 5.29707ZM35.1624 43.8451L32.3645 42.5567C32.1837 42.4884 32.0063 42.4121 31.8363 42.3303C29.0025 40.9644 27.3254 37.6983 27.1137 33.1338C26.9081 28.697 28.1106 23.524 30.5002 18.5676C34.5947 10.0736 41.3367 4.14138 46.8952 4.14138C47.9807 4.14138 48.9995 4.36718 49.9229 4.81236C50.1898 4.94104 50.4514 5.08995 50.7017 5.2557L53.0529 6.33817L52.6479 7.18716C54.1489 9.3429 54.8349 12.4555 54.6339 16.2204C54.4234 20.1596 53.2567 24.4318 51.2591 28.5751C49.2859 32.6681 46.7046 36.2114 43.7946 38.8219C41.0156 41.3146 38.1843 42.7421 35.5803 42.9685L35.1624 43.8451Z" fill="#231F20"/>
<path d="M54.4295 29.7914C49.5736 39.8642 41.223 45.9018 35.7779 43.277C30.3332 40.6522 29.8555 30.3585 34.7114 20.2858C39.5673 10.2127 47.9179 4.17505 53.363 6.80017C58.8078 9.42498 59.2854 19.7186 54.4295 29.7914Z" fill="white"/>
<path d="M54.4295 30.256C49.5736 40.3288 41.223 46.3664 35.7779 43.7416C30.3332 41.1165 29.8555 30.8231 34.7114 20.7504C39.5673 10.6773 47.9179 4.63965 53.363 7.26477C58.8078 9.88958 59.2854 20.1832 54.4295 30.256Z" fill="#FFD700"/>
<path d="M52.7014 28.816L51.6603 28.3141C53.362 24.7843 54.2193 21.1177 54.074 17.9898C53.9349 14.9897 52.8923 12.872 51.1385 12.0263L51.6404 10.9852C53.7946 12.0239 55.0689 14.4924 55.2285 17.9362C55.3823 21.2526 54.4849 25.1164 52.7014 28.816Z" fill="#231F20"/>
<path d="M38.0908 39.0916C35.9366 38.0533 34.6623 35.5847 34.5027 32.1407C34.3486 28.8243 35.2463 24.9605 37.0298 21.2612L38.0709 21.7627C36.3692 25.2926 35.512 28.9591 35.6572 32.087C35.7963 35.0872 36.8389 37.2049 38.5927 38.0505L38.0908 39.0916Z" fill="#231F20"/>
<path d="M50.4417 6.90868C45.3106 6.90868 38.9969 12.5719 35.0878 20.681C32.7801 25.4677 31.6176 30.4437 31.8146 34.6918C32.0058 38.8124 33.4514 41.728 35.8847 42.9008C36.6503 43.27 37.5002 43.4572 38.4105 43.4572C43.5416 43.4572 49.8556 37.794 53.7648 29.6851C56.0722 24.8982 57.2346 19.9224 57.0376 15.6741C56.8464 11.5535 55.4009 8.63823 52.9675 7.46507C52.2019 7.09588 51.352 6.90868 50.4417 6.90868ZM38.4105 44.6129C37.325 44.6129 36.3063 44.3874 35.3828 43.9419C32.549 42.576 30.8722 39.31 30.6602 34.7454C30.4546 30.3089 31.6572 25.1359 34.0467 20.1792C38.1415 11.6852 44.8832 5.75299 50.4417 5.75299C51.5272 5.75299 52.546 5.9788 53.4694 6.42397C56.3032 7.79015 57.9803 11.0559 58.192 15.6205C58.3979 20.0572 57.1951 25.2303 54.8056 30.1867C50.711 38.6806 43.969 44.6129 38.4105 44.6129Z" fill="#231F20"/>
<path d="M44.2833 8.80539L40.7467 6.92632L41.3218 5.84386L44.8584 7.72293L44.2833 8.80539Z" fill="#231F20"/>
<path d="M42.5149 10.4358L38.9783 8.55669L39.5531 7.47423L43.09 9.3533L42.5149 10.4358Z" fill="#231F20"/>
<path d="M40.7465 11.9027L37.2098 10.0234L37.7846 8.9409L41.3215 10.8203L40.7465 11.9027Z" fill="#231F20"/>
<path d="M39.3297 13.4056L35.7931 11.5265L36.3682 10.4441L39.9048 12.3231L39.3297 13.4056Z" fill="#231F20"/>
<path d="M38.0199 15.285L34.4833 13.4056L35.0581 12.3232L38.595 14.2025L38.0199 15.285Z" fill="#231F20"/>
<path d="M19.498 38.8322H18.3423V37.5681H19.498V38.8322Z" fill="#231F20"/>
<path d="M16.7172 37.5681H15.5615V36.304H16.7172V37.5681Z" fill="#231F20"/>
<path d="M18.4506 35.8708H17.2949V34.6066H18.4506V35.8708Z" fill="#231F20"/>
</svg>
