<svg width="35" height="35" viewBox="0 0 35 35" fill="none" xmlns="http://www.w3.org/2000/svg">
<path d="M17.5 35C27.165 35 35 27.165 35 17.5C35 7.83502 27.165 0 17.5 0C7.83502 0 0 7.83502 0 17.5C0 27.165 7.83502 35 17.5 35Z" fill="#6F3FAA"/>
<path d="M26.7578 12.2997L26.7521 12.2766C26.2845 10.3862 24.1764 8.35789 22.2405 7.9359L22.2187 7.93139C19.0874 7.33407 15.9125 7.33407 12.7819 7.93139L12.7594 7.9359C10.8241 8.35789 8.71601 10.3864 8.24781 12.2766L8.24262 12.2997C7.66457 14.9395 7.66457 17.6168 8.24262 20.2566L8.24781 20.2797C8.69611 22.0893 10.6472 24.0246 12.5108 24.5567V26.6669C12.5108 27.4306 13.4416 27.8057 13.9708 27.2545L16.1087 25.0322C16.5725 25.0581 17.0364 25.0726 17.5003 25.0726C19.0764 25.0726 20.6533 24.9235 22.2186 24.625L22.2404 24.6204C24.1764 24.1985 26.2844 22.17 26.752 20.2798L26.7578 20.2567C27.3358 17.6168 27.3358 14.9397 26.7578 12.2997ZM25.0659 19.8738C24.7537 21.1071 23.1531 22.6403 21.8813 22.9236C20.2164 23.2402 18.5383 23.3755 16.8618 23.3291C16.8285 23.3281 16.7964 23.3411 16.7733 23.365C16.5353 23.6092 15.2123 24.9675 15.2123 24.9675L13.552 26.6716C13.4305 26.7982 13.2173 26.712 13.2173 26.5373V23.0417C13.2173 22.9839 13.176 22.9349 13.1193 22.9237C13.119 22.9236 13.1187 22.9236 13.1184 22.9235C11.8466 22.6402 10.2466 21.107 9.93383 19.8738C9.41354 17.4876 9.41354 15.0687 9.93383 12.6825C10.2466 11.4492 11.8466 9.91607 13.1184 9.63279C16.0261 9.07976 18.9743 9.07976 21.8814 9.63279C23.1538 9.91607 24.7537 11.4492 25.0659 12.6825C25.5868 15.0687 25.5868 17.4877 25.0659 19.8738Z" fill="white"/>
<path d="M20.2665 21.4875C20.0709 21.4281 19.8847 21.3883 19.7115 21.3166C17.9184 20.5726 16.2682 19.6128 14.9611 18.1417C14.2177 17.3051 13.6359 16.3606 13.1442 15.361C12.9109 14.887 12.7144 14.3945 12.514 13.905C12.3314 13.4588 12.6004 12.9978 12.8837 12.6614C13.1496 12.3458 13.4917 12.1044 13.8622 11.9263C14.1514 11.7874 14.4366 11.8675 14.6478 12.1126C15.1043 12.6425 15.5237 13.1995 15.8632 13.8138C16.0721 14.1916 16.0148 14.6534 15.6363 14.9105C15.5443 14.973 15.4604 15.0464 15.3748 15.117C15.2996 15.1788 15.2289 15.2413 15.1774 15.3251C15.0832 15.4783 15.0787 15.6591 15.1393 15.8257C15.606 17.1081 16.3926 18.1055 17.6836 18.6427C17.8901 18.7287 18.0975 18.8287 18.3356 18.801C18.7341 18.7544 18.8632 18.3172 19.1425 18.0888C19.4155 17.8656 19.7644 17.8627 20.0584 18.0488C20.3525 18.235 20.6376 18.4347 20.921 18.6367C21.1992 18.835 21.4761 19.0288 21.7327 19.2548C21.9795 19.4722 22.0644 19.7572 21.9255 20.052C21.6712 20.5922 21.301 21.0413 20.7672 21.3282C20.6165 21.409 20.4364 21.4352 20.2665 21.4875C20.0709 21.4281 20.4364 21.4352 20.2665 21.4875Z" fill="white"/>
<path d="M17.505 11.3085C19.8503 11.3743 21.7767 12.9308 22.1896 15.2495C22.2599 15.6446 22.2849 16.0485 22.3162 16.4496C22.3294 16.6182 22.2339 16.7785 22.0519 16.7807C21.8639 16.783 21.7793 16.6256 21.767 16.4571C21.7429 16.1234 21.7261 15.7881 21.6801 15.4572C21.4374 13.71 20.0442 12.2645 18.3052 11.9544C18.0434 11.9077 17.7757 11.8955 17.5106 11.8677C17.343 11.8501 17.1236 11.84 17.0865 11.6316C17.0553 11.457 17.2027 11.3179 17.369 11.309C17.4141 11.3063 17.4596 11.3084 17.505 11.3085C19.8504 11.3743 17.4596 11.3084 17.505 11.3085Z" fill="white"/>
<path d="M21.0693 15.9293C21.0654 15.9587 21.0634 16.0275 21.0462 16.0923C20.984 16.3277 20.6269 16.3572 20.5448 16.1196C20.5203 16.0492 20.5167 15.9689 20.5166 15.893C20.5158 15.3963 20.4078 14.9 20.1573 14.4678C19.8998 14.0235 19.5063 13.6502 19.0449 13.4242C18.7659 13.2876 18.4642 13.2026 18.1584 13.1521C18.0247 13.1299 17.8897 13.1166 17.7553 13.0979C17.5926 13.0753 17.5056 12.9716 17.5134 12.8112C17.5206 12.6609 17.6305 12.5527 17.7942 12.5621C18.3324 12.5926 18.8524 12.7091 19.331 12.9624C20.304 13.4778 20.8599 14.2911 21.0222 15.3773C21.0295 15.4266 21.0412 15.4752 21.045 15.5246C21.0542 15.6464 21.06 15.7684 21.0693 15.9293C21.0654 15.9585 21.06 15.7684 21.0693 15.9293Z" fill="white"/>
<path d="M19.6106 15.8724C19.4144 15.876 19.3094 15.7673 19.2891 15.5875C19.2751 15.4621 19.2639 15.335 19.2339 15.2129C19.175 14.9725 19.0473 14.7498 18.845 14.6024C18.7496 14.5329 18.6414 14.4823 18.5281 14.4495C18.3842 14.4078 18.2347 14.4193 18.0912 14.3842C17.9352 14.346 17.849 14.2196 17.8735 14.0734C17.8958 13.9402 18.0253 13.8363 18.1708 13.8469C19.0801 13.9126 19.73 14.3827 19.8228 15.4532C19.8294 15.5287 19.8371 15.6085 19.8203 15.6809C19.7915 15.8044 19.6999 15.8664 19.6106 15.8724C19.4143 15.8759 19.6999 15.8664 19.6106 15.8724Z" fill="white"/>
<path d="M20.2665 21.4873C20.4365 21.4349 20.071 21.4279 20.2665 21.4873V21.4873Z" fill="white"/>
<path d="M17.5109 11.3089C17.5089 11.3089 17.507 11.3086 17.505 11.3086C17.5031 11.3085 17.5056 11.3086 17.5109 11.3089Z" fill="white"/>
<path d="M17.5051 11.3086C17.5071 11.3086 17.509 11.3088 17.511 11.3088C17.6412 11.3134 19.7581 11.3718 17.5051 11.3086Z" fill="white"/>
<path d="M21.0693 15.9292C21.0601 15.7683 21.0655 15.9584 21.0693 15.9292V15.9292Z" fill="white"/>
<path d="M19.6105 15.8722C19.6136 15.872 19.6166 15.8705 19.6195 15.8701C19.6112 15.8701 19.5985 15.8703 19.5854 15.8708C19.5939 15.871 19.6017 15.8723 19.6105 15.8722Z" fill="white"/>
<path d="M19.6105 15.8725C19.6017 15.8727 19.5939 15.8714 19.5854 15.8711C19.5429 15.8723 19.4991 15.8745 19.6105 15.8725Z" fill="white"/>
<path d="M19.6195 15.8701C19.6165 15.8705 19.6135 15.872 19.6106 15.8722C19.6336 15.8707 19.6316 15.8701 19.6195 15.8701Z" fill="white"/>
</svg>
