<svg width="35" height="35" viewBox="0 0 35 35" fill="none" xmlns="http://www.w3.org/2000/svg">
<g clip-path="url(#clip0)">
<path d="M29.925 5.02979C26.6 1.81562 22.225 0 17.5656 0C4.19271 0 -4.20438 14.4885 2.47333 26.0138L0 35L9.23854 32.5908C13.2635 34.7652 16.5608 34.5727 17.5744 34.701C33.0808 34.701 40.7998 15.941 29.9031 5.08667L29.925 5.02979Z" fill="#4CAF50"/>
<path d="M17.5977 31.7204L17.5889 31.7189H17.5656C12.9252 31.7189 9.96037 29.5212 9.6687 29.3943L4.19995 30.8162L5.66558 25.5006L5.31703 24.9537C3.87328 22.6554 3.1062 20.0085 3.1062 17.2829C3.1062 4.45977 18.776 -1.95252 27.8439 7.11102C36.8899 16.0798 30.5389 31.7204 17.5977 31.7204Z" fill="#4CAF50"/>
<path d="M25.531 20.8642L25.5179 20.9735C25.0789 20.7548 22.941 19.7092 22.5429 19.5648C21.6489 19.2338 21.9012 19.5123 20.1847 21.4781C19.9295 21.7625 19.6758 21.7844 19.2427 21.5875C18.8052 21.3688 17.4008 20.9094 15.7383 19.4219C14.4433 18.2625 13.5741 16.8406 13.3175 16.4031C12.8902 15.6652 13.7841 15.5602 14.5979 14.0202C14.7437 13.714 14.6693 13.4733 14.5614 13.256C14.452 13.0373 13.5814 10.8935 13.2168 10.039C12.8668 9.1873 12.5066 9.29522 12.2368 9.29522C11.3968 9.2223 10.7829 9.23397 10.2418 9.79688C7.88808 12.384 8.48162 15.0527 10.4956 17.8906C14.4535 23.0706 16.5622 24.0244 20.4181 25.3485C21.4593 25.6796 22.4087 25.6329 23.1597 25.525C23.9968 25.3923 25.7366 24.4735 26.0997 23.4454C26.4716 22.4173 26.4716 21.5642 26.3622 21.3673C26.2543 21.1704 25.9685 21.061 25.531 20.8642Z" fill="#FAFAFA"/>
</g>
<defs>
<clipPath id="clip0">
<rect width="35" height="35" fill="white"/>
</clipPath>
</defs>
</svg>
