<svg width="64" height="31" viewBox="0 0 64 31" fill="none" xmlns="http://www.w3.org/2000/svg">
<path d="M63.9998 10.9351V19.5165C63.9998 21.3971 62.6147 23.1653 60.1597 24.7195C59.8106 24.9335 59.439 25.1587 59.0336 25.3614C59.0336 25.3614 59.0223 25.3614 59.0223 25.3727C58.6732 25.5642 58.3016 25.7445 57.9075 25.9358C56.5898 26.5552 55.0694 27.1296 53.4027 27.6363C53.0311 27.7491 52.6595 27.8615 52.2766 27.9742H52.2653C51.905 28.0755 51.5333 28.1768 51.1505 28.2783C49.7315 28.6386 48.2336 28.9651 46.6457 29.2355C46.2741 29.3031 45.9025 29.3706 45.5196 29.427H45.5083C45.1367 29.4833 44.7764 29.5507 44.3935 29.5959C42.9408 29.8098 41.4429 29.9789 39.8887 30.1138C39.5171 30.1476 39.1455 30.1815 38.7626 30.204H38.7514C38.3797 30.2378 38.0194 30.2605 37.6365 30.283C36.1725 30.3729 34.6634 30.4293 33.1317 30.4406C32.7601 30.4518 32.3885 30.4518 32.0056 30.4518H31.9944C31.6115 30.4518 31.2511 30.4518 30.8795 30.4406C29.3479 30.4293 27.8389 30.3729 26.3748 30.283C25.9919 30.2605 25.6203 30.238 25.2486 30.204H25.2374C24.8545 30.1815 24.4942 30.1476 24.1225 30.1138C22.5684 29.9788 21.0706 29.8098 19.6178 29.5959C19.2349 29.5509 18.8633 29.4833 18.4917 29.427H18.4804C18.0975 29.3708 17.7372 29.3031 17.3655 29.2355C15.7776 28.9651 14.2799 28.6386 12.8608 28.2783C12.4779 28.1768 12.095 28.0755 11.7347 27.9742H11.7234C11.3405 27.8615 10.9802 27.7491 10.6086 27.6363C8.94183 27.1296 7.42143 26.5552 6.1038 25.9358C5.70967 25.7557 5.33805 25.5642 4.97769 25.3614C4.97769 25.3614 4.96643 25.3614 4.96643 25.3502C4.5723 25.1588 4.20068 24.945 3.85158 24.7197C1.39658 23.1768 0 21.3973 0 19.5167V10.9351H63.9998Z" fill="url(#paint0_linear)"/>
<path d="M64 10.9352C64 12.8159 62.6148 14.584 60.1598 16.1156C59.7995 16.352 59.4279 16.5773 59.0223 16.7802C58.6732 16.9828 58.3016 17.1629 57.9075 17.3545C56.5898 17.9739 55.0694 18.537 53.4027 19.055C53.0311 19.1675 52.6595 19.2802 52.2766 19.3928H52.2653C51.905 19.4943 51.5333 19.5957 51.1505 19.6969C49.7315 20.0574 48.2336 20.384 46.6457 20.6543C46.2741 20.722 45.9025 20.7894 45.5196 20.8457H45.5083C45.1367 20.9021 44.7764 20.9697 44.3935 21.0147C42.9408 21.2287 41.4429 21.3976 39.8887 21.5328C39.5171 21.5666 39.1455 21.6003 38.7626 21.6228H38.7514C38.3797 21.6564 38.0194 21.6791 37.6365 21.7016C36.1725 21.7918 34.6634 21.8481 33.1317 21.8594C32.7601 21.8706 32.3885 21.8706 32.0056 21.8706H31.9944C31.6115 21.8706 31.2511 21.8706 30.8795 21.8594C29.3479 21.8483 27.8389 21.7918 26.3748 21.7016C25.9919 21.6791 25.6203 21.6566 25.2486 21.6228H25.2374C24.8545 21.6003 24.4942 21.5666 24.1225 21.5328C22.5684 21.3976 21.0706 21.2287 19.6178 21.0147C19.2349 20.9697 18.8633 20.9021 18.4917 20.8457H18.4804C18.0975 20.7894 17.7372 20.722 17.3655 20.6543C15.7776 20.384 14.2799 20.0574 12.8608 19.6969C12.4779 19.5957 12.095 19.4943 11.7347 19.3928H11.7234C11.3405 19.2804 10.9802 19.1677 10.6086 19.055C8.94183 18.5481 7.42143 17.9739 6.1038 17.3545C5.70967 17.1742 5.33805 16.9828 4.97769 16.7802C4.97769 16.7802 4.96643 16.7802 4.96643 16.769C4.5723 16.5773 4.20068 16.3634 3.85158 16.1383C1.39658 14.5954 0 12.8161 0 10.9353C0 4.89906 14.3362 0 32.006 0C49.6757 0 64 4.8989 64 10.9352Z" fill="#FDC340"/>
<g filter="url(#filter0_i)">
<path d="M31.9055 18.8147C31.5877 18.8147 31.2848 18.8142 30.9735 18.8047C29.4914 18.7928 28.0315 18.7416 26.5624 18.6515C26.2038 18.6302 25.8646 18.6098 25.5258 18.5789L25.3875 18.5665H25.3307C25.0413 18.5481 24.7646 18.5223 24.4823 18.4969C22.8216 18.3517 21.407 18.1891 20.0628 17.9915C19.7594 17.9541 19.547 17.9189 19.3357 17.8851L18.7145 17.7897C18.4897 17.7533 17.9117 17.6475 17.9117 17.6475C16.459 17.4003 15.0639 17.1039 13.613 16.7347C13.2734 16.6452 12.9073 16.5483 12.5631 16.4512L11.4918 16.1298C10.2275 15.7453 9.06273 15.3217 8.02177 14.8685V14.8561L6.31784 14.028L5.77771 13.7241H5.75585C5.67379 13.6753 5.59174 13.6241 5.51017 13.5714C3.68976 12.4275 3.05566 11.4397 3.05566 10.9348C3.05566 8.15717 14.0468 3.05518 32.0058 3.05518C49.9575 3.05518 60.9445 8.15701 60.9445 10.9348C60.9445 11.4371 60.3153 12.4164 58.5427 13.5231C58.1672 13.7678 57.9031 13.923 57.6549 14.0473L57.4898 14.1363C57.2063 14.3009 56.9024 14.4451 56.5827 14.6009C55.484 15.1173 54.1004 15.638 52.4958 16.1368L51.4379 16.4512C51.0927 16.5483 50.7376 16.6452 50.3715 16.7416C48.947 17.1037 47.5519 17.4001 46.1335 17.6413C45.8216 17.698 45.5382 17.7497 45.2542 17.7944L44.6405 17.8889C44.441 17.9217 44.2421 17.955 44.0348 17.9794C42.6034 18.1894 41.1884 18.3514 39.6236 18.4878C39.2988 18.5176 38.9876 18.546 38.6692 18.5664L38.4742 18.5788C38.1355 18.6096 37.8068 18.63 37.458 18.6504C35.9799 18.7414 34.5202 18.7927 33.1086 18.8031C32.7282 18.814 32.4083 18.8145 32.0851 18.8145C32.0591 18.8147 31.9347 18.8147 31.9055 18.8147Z" fill="#FAB136"/>
</g>
<defs>
<filter id="filter0_i" x="3.05566" y="3.05518" width="57.8889" height="15.7595" filterUnits="userSpaceOnUse" color-interpolation-filters="sRGB">
<feFlood flood-opacity="0" result="BackgroundImageFix"/>
<feBlend mode="normal" in="SourceGraphic" in2="BackgroundImageFix" result="shape"/>
<feColorMatrix in="SourceAlpha" type="matrix" values="0 0 0 0 0 0 0 0 0 0 0 0 0 0 0 0 0 0 127 0" result="hardAlpha"/>
<feOffset dy="0.9788"/>
<feComposite in2="hardAlpha" operator="arithmetic" k2="-1" k3="1"/>
<feColorMatrix type="matrix" values="0 0 0 0 0.937255 0 0 0 0 0.584314 0 0 0 0 0.117647 0 0 0 1 0"/>
<feBlend mode="normal" in2="shape" result="effect1_innerShadow"/>
</filter>
<linearGradient id="paint0_linear" x1="0.00374368" y1="20.6945" x2="63.952" y2="20.6945" gradientUnits="userSpaceOnUse">
<stop stop-color="#F8AF30"/>
<stop offset="1" stop-color="#EF7733"/>
</linearGradient>
</defs>
</svg>
