<svg width="34" height="34" viewBox="0 0 34 34" fill="none" xmlns="http://www.w3.org/2000/svg">
<path d="M29.019 4.97737C22.3791 -1.66053 11.6153 -1.65893 4.97737 4.98102C-1.66053 11.621 -1.65893 22.3847 4.98102 29.0226C11.621 35.6605 22.3848 35.6589 29.0227 29.019C32.2106 25.8301 34.001 21.5054 34 16.9963C33.9991 12.488 32.2074 8.16473 29.019 4.97737ZM25.7459 23.6808C25.7452 23.6815 25.7444 23.6823 25.7437 23.683V23.6774L24.8823 24.533C23.7683 25.6611 22.146 26.1252 20.6039 25.757C19.0504 25.3412 17.5735 24.6793 16.2293 23.7964C14.9805 22.9983 13.8231 22.0653 12.7783 21.0141C11.8169 20.0597 10.9533 19.0118 10.2 17.8861C9.37598 16.6747 8.72381 15.3551 8.26195 13.9647C7.7325 12.3314 8.17124 10.5391 9.39531 9.33507L10.404 8.32643C10.6844 8.04473 11.1401 8.04374 11.4217 8.32417C11.4224 8.3249 11.4232 8.32563 11.424 8.32643L14.6086 11.5111C14.8903 11.7915 14.8913 12.2472 14.6109 12.5288C14.6101 12.5295 14.6094 12.5303 14.6086 12.5311L12.7386 14.4011C12.202 14.9318 12.1346 15.7751 12.58 16.3844C13.2563 17.3126 14.0048 18.1861 14.8183 18.9968C15.7253 19.9077 16.7114 20.7364 17.7649 21.4731C18.3737 21.8977 19.199 21.8261 19.7256 21.3031L21.5332 19.4671C21.8137 19.1854 22.2693 19.1844 22.551 19.4649C22.5517 19.4656 22.5524 19.4663 22.5532 19.4671L25.7436 22.6631C26.0253 22.9435 26.0263 23.3991 25.7459 23.6808Z" fill="#0E1016" fill-opacity="0.37"/>
</svg>
