<svg width="34" height="34" viewBox="0 0 34 34" fill="none" xmlns="http://www.w3.org/2000/svg">
<path d="M17 34C26.3888 34 34 26.3888 34 17C34 7.61116 26.3888 0 17 0C7.61116 0 0 7.61116 0 17C0 26.3888 7.61116 34 17 34Z" fill="#039BE5"/>
<path d="M6.86059 16.6317L23.2514 10.3119C24.0122 10.0371 24.6766 10.4975 24.4301 11.6478L24.4315 11.6464L21.6407 24.7945C21.4338 25.7267 20.8799 25.9533 20.105 25.5142L15.855 22.3819L13.8051 24.3567C13.5784 24.5834 13.3872 24.7747 12.948 24.7747L13.2498 20.4496L21.1264 13.3337C21.4693 13.0319 21.0499 12.8619 20.598 13.1622L10.8641 19.2907L6.66792 17.9817C5.757 17.6927 5.73717 17.0708 6.86059 16.6317Z" fill="white"/>
</svg>
