<svg width="40" height="40" viewBox="0 0 40 40" fill="none" xmlns="http://www.w3.org/2000/svg">
<path d="M32.7274 39.0909H7.27285C3.72738 39.0909 0.90918 36.2727 0.90918 32.7273V7.27273C0.90918 3.72726 3.72738 0.909058 7.27285 0.909058H32.7274C36.2729 0.909058 39.0911 3.72726 39.0911 7.27273V32.7273C39.0911 36.2727 36.2729 39.0909 32.7274 39.0909ZM7.27285 2.72726C4.72738 2.72726 2.72738 4.72726 2.72738 7.27273V32.7273C2.72738 35.2727 4.72738 37.2727 7.27285 37.2727H32.7274C35.2729 37.2727 37.2729 35.2727 37.2729 32.7273V7.27273C37.2729 4.72726 35.2729 2.72726 32.7274 2.72726H7.27285Z" fill="#C97629"/>
<path d="M13 37.2727C15.3637 38.4545 18.0909 39.0909 20.9091 39.0909C23.7272 39.0909 26.3636 38.4546 28.8181 37.2727H13Z" fill="#B06328"/>
<path d="M37.2727 28.8182C38.4545 26.4546 39.0909 23.7273 39.0909 20.9092C39.0909 18.0911 38.4546 15.4547 37.2727 13.0001V28.8182Z" fill="#B06328"/>
<path d="M37.2727 21.8182H39.0909C39.6364 21.8182 40 21.4545 40 20.9092V19.0909C40 18.5455 39.6363 18.1819 39.0909 18.1819H37.2727V21.8182Z" fill="#F6B545"/>
<path d="M2.72727 18.1818H0.909063C0.363672 18.1818 0 18.5454 0 19.0909V20.9091C0 21.4546 0.363672 21.8182 0.909063 21.8182H2.72727V18.1818Z" fill="#F6B545"/>
<path d="M2.72727 19.0909V18.1819H0.909063C0.363672 18.1818 0 18.5455 0 19.0909V20.9092C0 21.4546 0.363672 21.8182 0.909063 21.8182V19.0909H2.72727Z" fill="#FFCB5B"/>
<path d="M18.1819 37.2727V39.0909C18.1819 39.6364 18.5456 40 19.091 40H20.9092C21.4546 40 21.8182 39.6363 21.8182 39.0909V37.2727H18.1819Z" fill="#F6B545"/>
<path d="M21.8183 2.72727V0.909063C21.8183 0.363672 21.4546 0 20.9091 0H19.0909C18.5455 0 18.1819 0.363672 18.1819 0.909063V2.72727H21.8183Z" fill="#F6B545"/>
<path d="M20.9092 0H19.091C18.5455 0 18.1819 0.363672 18.1819 0.909063V1.81813C18.1819 1.27266 18.5456 0.909063 19.091 0.909063H20.9092C21.4546 0.909063 21.8182 1.27273 21.8182 1.81813V0.909063C21.8183 0.363672 21.4546 0 20.9092 0Z" fill="#FFCB5B"/>
<path d="M21.8182 39V37.2727H18.1819V38.909C19.0909 39 20.0001 39.0908 20.9092 39.0908C21.1818 39.0909 21.5455 39.0909 21.8182 39Z" fill="#F19920"/>
<path d="M38.909 18.1818H37.2727V21.8181H39C39 21.5454 39.0909 21.1818 39.0909 20.909C39.0909 20 39 19.0909 38.909 18.1818Z" fill="#F19920"/>
<path d="M19.9999 1.81824C9.99991 1.81824 1.81812 10 1.81812 20C1.81812 30 9.99991 38.1818 19.9999 38.1818C29.9999 38.1818 38.1817 30 38.1817 20C38.1817 10 29.9999 1.81824 19.9999 1.81824ZM19.9999 29.091C14.9999 29.091 10.909 25 10.909 20C10.909 15 14.9999 10.9091 19.9999 10.9091C24.9999 10.9091 29.0908 15 29.0908 20C29.0908 25 24.9999 29.091 19.9999 29.091Z" fill="#D5E3EF"/>
<path d="M20 10.9091C20 9.9091 19.091 9.0909 18.091 9.27277C13.6364 10.091 10.091 13.6364 9.27276 18.091C9.09096 19.091 9.90908 20 10.9091 20C10.9091 17.5455 11.9091 15.2728 13.5454 13.6364C15.1818 11.9091 17.4546 10.9091 20 10.9091Z" fill="#B0C4D9"/>
<path d="M19.9999 1.81824C9.99992 1.81824 1.81812 10 1.81812 20C3.72718 20 5.36359 18.6364 5.81812 16.8182C6.54538 13.8182 8.09085 11.091 10.3636 9.09097C12.1818 7.5455 14.3636 6.36371 16.7273 5.81824C18.6363 5.36371 19.9999 3.7273 19.9999 1.81824Z" fill="#ECF0F9"/>
<path d="M13.5454 13.5454C14.5454 12.5454 15.7272 11.8181 17 11.3636L12.3637 3.45447C10.4546 4.36353 8.72732 5.54541 7.09092 7.0908C5.54545 8.63626 4.36365 10.4545 3.45459 12.3635L11.3637 16.9999C11.8182 15.7272 12.5454 14.5454 13.5454 13.5454Z" fill="#F04D4E"/>
<path d="M12.3637 3.54553C10.4546 4.45459 8.72732 5.63647 7.09092 7.18186C5.45451 8.72725 4.36365 10.5455 3.45459 12.4546L6.63639 14.2728C7.45459 12.2728 8.72732 10.5455 10.3637 9.18186C11.4546 8.18186 12.8182 7.36366 14.1819 6.72733L12.3637 3.54553Z" fill="#F26A56"/>
<path d="M9.81812 16.0909L11.4544 17C11.909 15.7272 12.6362 14.5454 13.6362 13.5454C14.6362 12.5454 15.818 11.8182 17.0908 11.3636L16.1817 9.72729C13.1817 10.909 10.909 13.1818 9.81812 16.0909Z" fill="#DB343F"/>
<path d="M34.5454 20C34.5454 28 27.9999 34.5455 19.9999 34.5455C18.3636 34.5455 16.7272 34.2728 15.2726 33.7273C13.6363 33.1818 11.8181 34.4546 11.8181 36.1818C14.5454 37.5455 17.5454 38.2728 20.8181 38.0909C30.0908 37.6364 37.7272 30 38.1817 20.7273C38.3635 17.4546 37.6362 14.4546 36.2726 11.7273C34.4544 11.7273 33.1817 13.4546 33.8181 15.1818C34.2726 16.7273 34.5454 18.3637 34.5454 20Z" fill="#B0C4D9"/>
<path d="M27.6363 3.54553L23 11.4546C24.2727 11.9091 25.4545 12.6364 26.4545 13.6364C27.4545 14.6364 28.1818 15.8182 28.6363 17.0909L36.5454 12.4546C35.6363 10.5455 34.4545 8.81827 32.9091 7.18186C31.3637 5.54545 29.5455 4.36374 27.6363 3.54553Z" fill="#F04D4E"/>
<path d="M36.4544 12.3637C36.3635 12.1819 36.2726 12 36.1817 11.8182C34.818 11.8182 33.818 12.8182 33.6362 14L36.4544 12.3637Z" fill="#DB343F"/>
<path d="M12.3637 36.4544L17.0001 28.5454C15.7273 28.0909 14.5455 27.3636 13.5455 26.3636C12.5455 25.3636 11.8183 24.1818 11.3637 22.9091L3.45459 27.5454C4.36365 29.4544 5.54553 31.1817 7.09092 32.8181C8.72732 34.4544 10.4546 35.6362 12.3637 36.4544Z" fill="#F04D4E"/>
<path d="M11.8181 36.1818C11.9999 36.2728 12.1818 36.3636 12.3636 36.4546L13.9999 33.6364C12.8181 33.8182 11.8181 34.8182 11.8181 36.1818Z" fill="#DB343F"/>
<path d="M29.0001 21C28.5456 25.1818 25.0911 28.6364 20.8183 29.091C19.9093 29.1819 19.0001 29.091 18.0911 28.9092V29.091C18.0911 30.091 18.9093 30.9092 19.9093 30.9092C25.9093 30.9092 30.8183 26.0001 30.8183 20.0001C30.8183 19.6364 30.8183 19.2728 30.7274 18.9092C30.6365 18.0001 29.8183 17.2728 28.9092 17.2728H28.5455C29.0001 18.4545 29.1819 19.7273 29.0001 21Z" fill="#ECF0F9"/>
<path d="M38.0908 21.8182C37.0908 21.8182 36.1817 22.5455 35.9999 23.5455C34.6362 29.7273 29.7271 34.5455 23.6362 35.9092C22.6362 36.091 21.9089 37.0001 21.9089 38.0001C30.3635 37.2728 37.2726 30.3637 38.0908 21.8182Z" fill="#99B4CD"/>
<path d="M26.4545 26.4545C25.4545 27.4545 24.2727 28.1818 23 28.6363L27.6363 36.5454C29.5454 35.6363 31.2727 34.4545 32.9091 32.9091C34.4545 31.3636 35.6363 29.5454 36.5454 27.6363L28.6363 23C28.1818 24.2727 27.4545 25.4545 26.4545 26.4545Z" fill="#F04D4E"/>
<path d="M30.1818 23.9091L28.5455 23C28.091 24.2727 27.3637 25.4545 26.3637 26.4545C25.3637 27.4545 24.1819 28.1818 22.9092 28.6363L23.8182 30.2727C26.8182 29.0909 29.091 26.8182 30.1818 23.9091Z" fill="#F26A56"/>
<path d="M27.6363 36.4546C29.5454 35.5455 31.2726 34.3636 32.9091 32.8182C34.5454 31.2728 35.6363 29.4546 36.5454 27.5455L33.3636 25.7273C31.9091 29.091 29.1818 31.8182 25.8181 33.2728L27.6363 36.4546Z" fill="#DB343F"/>
<path d="M34.9091 26.7273C33.2728 30.3636 30.3636 33.2728 26.7273 34.9091L27.6364 36.4546C27.7273 36.4546 27.7273 36.4546 27.8182 36.3636C31.6364 34.5454 34.6364 31.4546 36.4545 27.7273C36.4545 27.6364 36.4545 27.6364 36.5454 27.5455L34.9091 26.7273Z" fill="#C61C31"/>
</svg>
