<svg width="42" height="42" viewBox="0 0 42 42" fill="none" xmlns="http://www.w3.org/2000/svg">
<path d="M21.054 41.9099C32.6023 41.9099 41.964 32.5482 41.964 21C41.964 9.45169 32.6023 0.0899658 21.054 0.0899658C9.50576 0.0899658 0.144043 9.45169 0.144043 21C0.144043 32.5482 9.50576 41.9099 21.054 41.9099Z" fill="#F04B4D"/>
<path d="M21.0541 4.73676C12.1092 4.73676 4.79077 12.0552 4.79077 21C4.79077 29.9449 12.1092 37.2633 21.0541 37.2633C29.9989 37.2633 37.3173 29.9449 37.3173 21C37.3173 12.0552 29.9989 4.73676 21.0541 4.73676ZM21.0541 32.6167C14.6649 32.6167 9.43738 27.3892 9.43738 21C9.43738 14.6109 14.6649 9.38337 21.0541 9.38337C27.4432 9.38337 32.6707 14.6109 32.6707 21C32.6707 27.3892 27.4432 32.6167 21.0541 32.6167Z" fill="#ECEFF9"/>
<path d="M21.054 14.0301C17.2205 14.0301 14.084 17.1666 14.084 21.0001C14.084 24.8336 17.2205 27.97 21.054 27.97C24.8874 27.97 28.0239 24.8336 28.0239 21.0001C28.0239 17.1666 24.8874 14.0301 21.054 14.0301ZM21.054 24.485C19.0791 24.485 17.569 22.9749 17.569 21.0001C17.569 19.0252 19.0791 17.5151 21.054 17.5151C23.0288 17.5151 24.5389 19.0252 24.5389 21.0001C24.5389 22.9749 23.0288 24.485 21.054 24.485Z" fill="#ECEFF9"/>
</svg>
