<svg width="71" height="55" viewBox="0 0 71 55" fill="none" xmlns="http://www.w3.org/2000/svg">
<path d="M10.8608 0.000244141C10.8589 0.000244141 10.8567 0.000244141 10.8548 0.000244141C10.1833 0.000244141 9.55172 0.262012 9.0748 0.737738C8.59262 1.21872 8.32703 1.85916 8.32703 2.54095V40.6384C8.32703 42.0355 9.46805 43.1748 10.8708 43.1784C16.7847 43.1925 26.6927 44.4251 33.5278 51.578V11.7079C33.5278 11.2343 33.4068 10.7894 33.1785 10.4213C27.5686 1.38678 16.788 0.0141095 10.8608 0.000244141Z" fill="#FAD200"/>
<path d="M62.6731 40.6384V2.54071C62.6731 1.85891 62.4075 1.21848 61.9253 0.737494C61.4484 0.261768 60.8163 0 60.1455 0C60.1434 0 60.1412 0 60.1393 0C54.2123 0.0141044 43.4318 1.38678 37.8216 10.4213C37.5933 10.7894 37.4725 11.2343 37.4725 11.7079V51.5777C44.3077 44.4249 54.2157 43.1923 60.1295 43.1782C61.5321 43.1746 62.6731 42.0353 62.6731 40.6384Z" fill="#FAD200"/>
<path d="M68.4598 8.78613H66.6176V40.6385C66.6176 44.2055 63.7113 47.1141 60.1389 47.1229C55.1227 47.1349 46.8518 48.1157 40.9941 53.6597C51.1249 51.1792 61.8046 52.7917 67.891 54.1787C68.651 54.3518 69.4363 54.173 70.0452 53.6877C70.6519 53.2036 71 52.48 71 51.7033V11.3264C71.0002 9.92572 69.8604 8.78613 68.4598 8.78613Z" fill="#FFD700"/>
<path d="M4.38241 40.6385V8.78613H2.54023C1.13983 8.78613 0 9.92572 0 11.3264V51.7026C0 52.4795 0.348068 53.2029 0.954798 53.687C1.5632 54.172 2.34779 54.3516 3.10895 54.178C9.19537 52.7907 19.8753 51.1785 30.0056 53.659C24.1482 48.1152 15.8773 47.1346 10.8611 47.1227C7.28888 47.1141 4.38241 44.2055 4.38241 40.6385Z" fill="#FFD700"/>
</svg>
