<svg width="381" height="42" viewBox="0 0 381 42" fill="none" xmlns="http://www.w3.org/2000/svg">
<g clip-path="url(#clip0)">
<path d="M4.2774 16.1172L4.19734 16.5363L3.77115 16.5564C2.14401 16.6338 0.869263 17.9714 0.869263 19.6015C0.869263 21.2317 2.14374 22.5696 3.77088 22.6467L4.19706 22.6671L4.27712 23.0862C5.93449 31.7505 13.5498 38.0395 22.3851 38.0395H25.8444V1.16357H22.3853C13.5498 1.16357 5.93449 7.45262 4.2774 16.1172Z" fill="white"/>
<path d="M17.5025 20.9581C17.9974 10.4875 22.9866 2.21625 28.6466 2.48367L24.65 2.29522C15.4043 1.85841 7.39307 8.11316 5.30461 16.7915C3.39943 16.7922 1.81205 18.2899 1.7211 20.2128C1.63042 22.1356 3.06938 23.7764 4.96584 23.9562C6.22698 32.7928 13.0879 37.8785 22.3335 38.3155L26.3302 38.5045C20.6702 38.237 17.0078 31.429 17.5025 20.9581Z" fill="#FFD700"/>
<path d="M27.1423 38.4102C27.1423 38.7596 26.8588 39.0428 26.5094 39.0428H22.5994C13.3804 39.0428 5.41571 32.5759 3.50754 23.6064C1.50949 23.3058 0 21.5866 0 19.5215C0 17.4563 1.50949 15.7376 3.50754 15.4362C5.41571 6.46715 13.3804 0 22.5994 0H26.8474C27.0102 0 27.1423 0.131804 27.1423 0.294654V38.4102ZM22.5994 1.08357C13.7641 1.08357 6.14881 7.37236 4.49144 16.0369L4.41138 16.456L3.98519 16.4764C2.35805 16.5535 1.08357 17.8911 1.08357 19.5215C1.08357 21.1519 2.35805 22.4896 3.98519 22.5669L4.41138 22.5871L4.49144 23.0062C6.14881 31.6705 13.7641 37.9596 22.5994 37.9596H26.0587V1.08357H22.5994Z" fill="#231F20"/>
<path d="M36.8602 19.5216C36.8602 30.0039 32.2666 38.5013 26.6004 38.5013C20.9341 38.5013 16.3406 30.0039 16.3406 19.5216C16.3406 9.03938 20.9341 0.541748 26.6004 0.541748C32.2666 0.541748 36.8602 9.03938 36.8602 19.5216Z" fill="white"/>
<path d="M26.6003 39.0431C23.6516 39.0431 20.9058 36.968 18.869 33.2001C16.8892 29.5373 15.7988 24.6796 15.7988 19.5215C15.7988 14.3635 16.8892 9.50578 18.869 5.84326C20.9058 2.07538 23.6516 0 26.6003 0C29.549 0 32.2947 2.07511 34.3316 5.84299C36.3114 9.50551 37.4018 14.3632 37.4018 19.5212C37.4018 24.6794 36.3114 29.5371 34.3316 33.1998C32.2947 36.968 29.549 39.0431 26.6003 39.0431ZM26.6003 1.08357C24.068 1.08357 21.6609 2.9569 19.8222 6.3585C17.9263 9.86551 16.8822 14.5404 16.8822 19.5215C16.8822 24.5029 17.9263 29.1776 19.8222 32.6849C21.6609 36.0862 24.068 37.9596 26.6003 37.9596C29.1327 37.9596 31.5397 36.0862 33.3785 32.6849C35.2744 29.1773 36.3185 24.5027 36.3185 19.5215C36.3185 14.5404 35.2744 9.86551 33.3785 6.3585C31.5397 2.95662 29.133 1.08357 26.6003 1.08357Z" fill="#231F20"/>
<path d="M32.4445 20.8086C32.4445 28.2693 29.5791 34.317 26.0446 34.317C22.5101 34.317 19.6447 28.2693 19.6447 20.8086C19.6447 13.3481 22.5101 7.30029 26.0446 7.30029C29.5791 7.30029 32.4445 13.3481 32.4445 20.8086Z" fill="#FFD700"/>
<path d="M27.1421 4.552H26.0587V34.0098H27.1421V4.552Z" fill="#231F20"/>
<path d="M32.5914 18.8057H19.5907V19.889H32.5914V18.8057Z" fill="#231F20"/>
<path d="M32.5144 26.8918L21.2429 10.7371L20.3542 11.3571L31.6258 27.5119L32.5144 26.8918Z" fill="#231F20"/>
<path d="M32.5335 10.3681L31.6038 9.81201L20.6141 28.186L21.5438 28.7421L32.5335 10.3681Z" fill="#231F20"/>
<path d="M26.6004 34.6845C22.366 34.6845 19.0491 27.9475 19.0491 19.3475C19.0491 10.7473 22.366 4.0105 26.6004 4.0105C30.8348 4.0105 34.1517 10.7473 34.1517 19.3475C34.1517 27.9473 30.835 34.6845 26.6004 34.6845ZM26.6004 5.09353C23.0945 5.09353 20.1324 11.6209 20.1324 19.3473C20.1324 27.0733 23.0945 33.6007 26.6004 33.6007C30.1062 33.6007 33.0684 27.0733 33.0684 19.3473C33.0684 11.6209 30.1062 5.09353 26.6004 5.09353Z" fill="#231F20"/>
<path d="M47.1191 4.82005L47.4012 4.22855L45.6576 3.42575C45.4348 3.27597 45.2014 3.14171 44.9574 3.02407C39.8532 0.563348 32.0256 6.22306 27.4734 15.6653C22.9215 25.1076 23.3692 34.7569 28.4734 37.2176C28.6273 37.2917 28.7835 37.3584 28.9423 37.4178L31.0972 38.4099L31.3954 37.7843C36.237 37.5632 42.2081 32.3533 45.9574 24.5761C49.7503 16.7075 50.0711 8.69631 47.1191 4.82005Z" fill="white"/>
<path d="M30.9824 17.1279C35.0315 8.72862 41.673 3.32244 46.6835 3.96295L45.7064 3.51306C45.4836 3.36329 45.2503 3.22876 45.0063 3.11112C39.9021 0.650667 32.0741 6.31038 27.5222 15.7526C22.9704 25.1947 23.418 34.8442 28.5222 37.3046C28.6761 37.3788 28.8324 37.4454 28.9912 37.5045L31.146 38.4969L31.2583 38.2616C26.8463 35.263 26.656 26.1021 30.9824 17.1279Z" fill="#FFD700"/>
<path d="M31.3559 39.1252L28.7331 37.9175C28.5638 37.8535 28.3974 37.7818 28.2381 37.7053C25.5818 36.4249 24.0097 33.3634 23.8112 29.0847C23.6181 24.9258 24.7456 20.0764 26.9854 15.43C30.8238 7.46784 37.1439 1.90698 42.3543 1.90698C43.3717 1.90698 44.3267 2.11857 45.1924 2.53605C45.4425 2.65641 45.6878 2.79612 45.9225 2.95135L48.1265 3.96602L47.7468 4.76202C49.1539 6.78294 49.7969 9.7006 49.6084 13.2297C49.4113 16.9224 48.3174 20.9274 46.4451 24.8114C44.5955 28.6478 42.1756 31.9694 39.4478 34.4168C36.843 36.7533 34.1887 38.0915 31.7478 38.3034L31.3559 39.1252ZM42.3543 2.99029C37.5445 2.99029 31.6258 8.29924 27.9614 15.9003C25.7981 20.388 24.7085 25.0521 24.8934 29.0343C25.0726 32.8969 26.4274 35.6299 28.7084 36.7296C28.8442 36.7946 28.987 36.8557 29.1324 36.9104L29.1689 36.9254L30.8382 37.6942L31.0463 37.2577L31.3706 37.2429C36.1139 37.0258 41.9114 31.7202 45.4691 24.3405C49.0834 16.8434 49.5845 8.95118 46.6881 5.14791L46.4876 4.88484L46.6758 4.49052L45.3913 3.8993L45.3553 3.87506C45.1521 3.73836 44.9389 3.61608 44.7221 3.51152C44.0043 3.16566 43.2074 2.99029 42.3543 2.99029Z" fill="#231F20"/>
<path d="M49.4173 25.9515C44.8654 35.3938 37.0374 41.0535 31.9333 38.5931C26.8291 36.1323 26.3814 26.483 30.9336 17.0408C35.4854 7.59846 43.3134 1.93876 48.4176 4.3992C53.5218 6.85992 53.9692 16.5094 49.4173 25.9515Z" fill="white"/>
<path d="M49.4173 26.3868C44.8654 35.8294 37.0374 41.4888 31.9333 39.0286C26.8291 36.5678 26.3814 26.9183 30.9336 17.476C35.4854 8.03377 43.3134 2.37406 48.4176 4.8345C53.5218 7.2955 53.9692 16.9447 49.4173 26.3868Z" fill="#FFD700"/>
<path d="M47.797 25.0373L46.8212 24.5667C48.4163 21.2579 49.2199 17.8209 49.0837 14.8885C48.9532 12.0762 47.9762 10.0909 46.3319 9.29823L46.8025 8.32251C48.8217 9.29583 50.0162 11.61 50.1659 14.8384C50.3102 17.9473 49.4688 21.5692 47.797 25.0373Z" fill="#231F20"/>
<path d="M34.101 34.6696C32.0817 33.6962 30.8871 31.382 30.7373 28.1537C30.5932 25.045 31.4345 21.4232 33.1065 17.9551L34.0822 18.4254C32.4873 21.7345 31.6836 25.1714 31.8198 28.1035C31.9502 30.9158 32.9273 32.901 34.5713 33.6938L34.101 34.6696Z" fill="#231F20"/>
<path d="M34.4011 39.8454C33.3836 39.8454 32.4286 39.6338 31.5629 39.216C28.9067 37.9359 27.3345 34.8744 27.136 30.5957C26.9429 26.4367 28.0703 21.5874 30.3102 16.941C34.1486 8.97879 40.4687 3.41797 45.6791 3.41797C46.6965 3.41797 47.6516 3.62957 48.5172 4.04704C51.1735 5.32751 52.7459 8.38897 52.9442 12.6678C53.1372 16.8267 52.0098 21.6762 49.77 26.3223C45.9316 34.2846 39.6115 39.8454 34.4011 39.8454ZM45.6788 4.50128C40.8691 4.50128 34.9503 9.81025 31.286 17.4116C29.1226 21.8987 28.0333 26.5628 28.218 30.5453C28.3972 34.4085 29.7519 37.1412 32.0329 38.2406C32.7508 38.5867 33.5476 38.7621 34.4008 38.7621C39.2106 38.7621 45.1292 33.4535 48.7937 25.852C50.957 21.3647 52.0466 16.7006 51.8617 12.7181C51.6825 8.85547 50.3276 6.1227 48.0467 5.02305C47.3288 4.67665 46.5323 4.50128 45.6788 4.50128Z" fill="#231F20"/>
<path d="M40.4447 5.2659L37.1293 3.50439L36.5901 4.51926L39.9055 6.28076L40.4447 5.2659Z" fill="#231F20"/>
<path d="M38.7876 6.79323L35.4722 5.03174L34.9331 6.04636L38.2485 7.80786L38.7876 6.79323Z" fill="#231F20"/>
<path d="M37.1313 8.16653L33.8159 6.40503L33.2769 7.41966L36.5922 9.18118L37.1313 8.16653Z" fill="#231F20"/>
<path d="M35.8024 9.57667L32.487 7.81519L31.9479 8.82981L35.2633 10.5913L35.8024 9.57667Z" fill="#231F20"/>
<path d="M34.5745 11.3379L31.2591 9.57642L30.7201 10.591L34.0355 12.3525L34.5745 11.3379Z" fill="#231F20"/>
<path d="M16.6722 33.2415H15.5889V34.4263H16.6722V33.2415Z" fill="#231F20"/>
<path d="M14.0652 32.0566H12.9819V33.2415H14.0652V32.0566Z" fill="#231F20"/>
<path d="M15.6902 30.4653H14.6069V31.6505H15.6902V30.4653Z" fill="#231F20"/>
<path d="M62.0986 16.6157H60.124L64.9196 5H65.9648L70.7109 16.6157H68.7359L65.4174 8.30187L62.0986 16.6157Z" fill="black"/>
<path d="M78.8588 16.6155V11.04L73.9801 16.6155H72.9347V8.31836H74.594V13.8942L79.4729 8.31836H80.5181V16.6155H78.8588Z" fill="black"/>
<path d="M90.5075 16.6155V11.04L87.8196 14.1099L85.1315 11.04V16.6155H83.4722V8.31836H84.5174L87.8196 12.1018L91.1218 8.31836H92.1671V16.6155H90.5075Z" fill="black"/>
<path d="M103.137 12.467C103.137 14.8232 101.228 16.715 98.872 16.715C96.5156 16.715 94.624 14.8235 94.624 12.467C94.624 10.1106 96.5156 8.20215 98.872 8.20215C101.228 8.20215 103.137 10.1109 103.137 12.467ZM96.2836 12.467C96.2836 14.0435 97.4942 15.1221 98.872 15.1221C100.249 15.1221 101.477 14.0435 101.477 12.467C101.477 10.8905 100.249 9.7953 98.872 9.7953C97.4951 9.7953 96.2836 10.8905 96.2836 12.467Z" fill="black"/>
<path d="M111.616 16.6155V13.2136H107.252V16.6155H105.593V8.31836H107.252V11.6208H111.616V8.31836H113.275V16.6155H111.616Z" fill="black"/>
<path d="M127.696 16.6155V13.2136H123.332V16.6155H121.673V8.31836H123.332V11.6208H127.696V8.31836H129.356V16.6155H127.696Z" fill="black"/>
<path d="M139.063 16.6159L138.964 15.0892C138.349 16.0683 137.221 16.7153 135.91 16.7153C133.554 16.7153 131.812 14.8237 131.812 12.4673C131.812 10.1108 133.554 8.20239 135.91 8.20239C137.221 8.20239 138.349 8.8663 138.964 9.84532L139.063 8.31866H140.192V16.6162H139.063V16.6159ZM138.665 12.467C138.665 10.8905 137.436 9.79519 136.06 9.79519C134.682 9.79519 133.471 10.8902 133.471 12.467C133.471 14.0437 134.682 15.1221 136.06 15.1221C137.437 15.1221 138.665 14.0435 138.665 12.467Z" fill="black"/>
<path d="M154.745 16.6157V13.6618C154.23 14.3922 153.334 14.7903 152.222 14.7903C149.517 14.7903 148.505 13.0815 148.505 10.642V8.31885H150.165V10.5426C150.165 12.3015 150.762 13.1978 152.471 13.1978C154.164 13.1978 154.745 12.152 154.745 10.7583V8.31885H156.404V16.6157H154.745Z" fill="black"/>
<path d="M166.112 16.6159L166.012 15.0892C165.398 16.0683 164.27 16.7153 162.959 16.7153C160.603 16.7153 158.86 14.8237 158.86 12.4673C158.86 10.1108 160.603 8.20239 162.959 8.20239C164.27 8.20239 165.398 8.8663 166.012 9.84532L166.112 8.31866H167.241V16.6162H166.112V16.6159ZM165.714 12.467C165.714 10.8905 164.486 9.79519 163.108 9.79519C161.731 9.79519 160.52 10.8902 160.52 12.467C160.52 14.0437 161.731 15.1221 163.108 15.1221C164.486 15.1221 165.714 14.0435 165.714 12.467Z" fill="black"/>
<path d="M176.118 16.6157V11.04L171.24 16.6157H170.195V8.3187H171.854V13.8943L176.733 8.3187H177.778V16.6157H176.118ZM171.505 5.13257H172.667C172.667 5.79648 173.248 6.31088 173.995 6.31088C174.741 6.31088 175.322 5.79648 175.322 5.13257H176.484C176.484 6.49337 175.372 7.47239 173.995 7.47239C172.617 7.47239 171.505 6.49337 171.505 5.13257Z" fill="black"/>
</g>
<path d="M66.625 38L62.75 27.875H62.6875C62.7604 28.6771 62.7969 29.6302 62.7969 30.7344V38H61.5703V26.5781H63.5703L67.1875 36H67.25L70.8984 26.5781H72.8828V38H71.5547V30.6406C71.5547 29.7969 71.5911 28.8802 71.6641 27.8906H71.6016L67.6953 38H66.625ZM79.6053 38.1562C78.3397 38.1562 77.3397 37.7708 76.6053 37C75.8761 36.2292 75.5116 35.1589 75.5116 33.7891C75.5116 32.4089 75.8501 31.3125 76.5272 30.5C77.2095 29.6875 78.1235 29.2812 79.2694 29.2812C80.3423 29.2812 81.1912 29.6354 81.8162 30.3438C82.4412 31.0469 82.7537 31.9766 82.7537 33.1328V33.9531H76.8553C76.8814 34.9583 77.134 35.7214 77.6131 36.2422C78.0975 36.763 78.7772 37.0234 79.6522 37.0234C80.5741 37.0234 81.4855 36.8307 82.3866 36.4453V37.6016C81.9282 37.7995 81.4933 37.9401 81.0819 38.0234C80.6756 38.112 80.1834 38.1562 79.6053 38.1562ZM79.2537 30.3672C78.5662 30.3672 78.0168 30.5911 77.6053 31.0391C77.1991 31.487 76.9595 32.1068 76.8866 32.8984H81.3631C81.3631 32.0807 81.1808 31.4557 80.8162 31.0234C80.4517 30.5859 79.9308 30.3672 79.2537 30.3672ZM89.0387 29.4531H90.2341V33.6016L93.7731 29.4531H95.195L91.6169 33.6016L95.4997 38H93.9997L90.2341 33.6641V38H89.0387V33.6641L85.2809 38H83.7887L87.6637 33.6016L84.0934 29.4531H85.5153L89.0387 33.6016V29.4531ZM104.511 40.9609H103.253V38H97.2691V40.9609H96.0191V36.8828H96.6909C97.3889 35.9349 97.9357 34.8229 98.3316 33.5469C98.7274 32.2708 98.9331 30.901 98.9487 29.4375H103.285V36.8828H104.511V40.9609ZM102.035 36.8828V30.4609H100.113C100.045 31.6172 99.8211 32.7891 99.4409 33.9766C99.0659 35.1589 98.5972 36.1276 98.0347 36.8828H102.035ZM105.031 29.4375H106.421L108.296 34.3203C108.708 35.4349 108.963 36.2396 109.062 36.7344H109.124C109.192 36.4688 109.333 36.0156 109.546 35.375C109.765 34.7292 110.473 32.75 111.671 29.4375H113.062L109.382 39.1875C109.018 40.151 108.591 40.8333 108.101 41.2344C107.617 41.6406 107.02 41.8438 106.312 41.8438C105.916 41.8438 105.525 41.7995 105.14 41.7109V40.6719C105.426 40.7344 105.747 40.7656 106.101 40.7656C106.992 40.7656 107.627 40.2656 108.007 39.2656L108.484 38.0469L105.031 29.4375ZM115.909 29.4375V33.0234H120.706V29.4375H122.003V38H120.706V34.1406H115.909V38H114.612V29.4375H115.909ZM130.179 38L129.921 36.7812H129.858C129.431 37.3177 129.004 37.6823 128.577 37.875C128.155 38.0625 127.627 38.1562 126.991 38.1562C126.142 38.1562 125.476 37.9375 124.991 37.5C124.512 37.0625 124.272 36.4401 124.272 35.6328C124.272 33.9036 125.655 32.9974 128.421 32.9141L129.874 32.8672V32.3359C129.874 31.6641 129.728 31.1693 129.437 30.8516C129.15 30.5286 128.689 30.3672 128.054 30.3672C127.34 30.3672 126.533 30.5859 125.632 31.0234L125.233 30.0312C125.655 29.8021 126.116 29.6224 126.616 29.4922C127.121 29.362 127.627 29.2969 128.132 29.2969C129.153 29.2969 129.908 29.5234 130.397 29.9766C130.892 30.4297 131.14 31.1562 131.14 32.1562V38H130.179ZM127.249 37.0859C128.056 37.0859 128.689 36.8646 129.147 36.4219C129.611 35.9792 129.843 35.3594 129.843 34.5625V33.7891L128.546 33.8438C127.515 33.8802 126.77 34.0417 126.312 34.3281C125.858 34.6094 125.632 35.0495 125.632 35.6484C125.632 36.1172 125.772 36.474 126.054 36.7188C126.34 36.9635 126.739 37.0859 127.249 37.0859ZM137.964 38.1562C137.406 38.1562 136.896 38.0547 136.433 37.8516C135.974 37.6432 135.589 37.3255 135.276 36.8984H135.183C135.245 37.3984 135.276 37.8724 135.276 38.3203V41.8438H133.979V29.4375H135.034L135.214 30.6094H135.276C135.61 30.1406 135.998 29.8021 136.44 29.5938C136.883 29.3854 137.391 29.2812 137.964 29.2812C139.099 29.2812 139.974 29.6693 140.589 30.4453C141.209 31.2214 141.518 32.3099 141.518 33.7109C141.518 35.1172 141.203 36.2109 140.573 36.9922C139.948 37.7682 139.078 38.1562 137.964 38.1562ZM137.776 30.3828C136.901 30.3828 136.268 30.625 135.878 31.1094C135.487 31.5938 135.287 32.3646 135.276 33.4219V33.7109C135.276 34.9141 135.477 35.776 135.878 36.2969C136.279 36.8125 136.922 37.0703 137.808 37.0703C138.547 37.0703 139.125 36.7708 139.542 36.1719C139.964 35.5729 140.175 34.7474 140.175 33.6953C140.175 32.6276 139.964 31.8099 139.542 31.2422C139.125 30.6693 138.537 30.3828 137.776 30.3828ZM151.342 33.7109C151.342 35.1068 150.991 36.1979 150.288 36.9844C149.585 37.7656 148.613 38.1562 147.374 38.1562C146.608 38.1562 145.928 37.9766 145.335 37.6172C144.741 37.2578 144.283 36.7422 143.96 36.0703C143.637 35.3984 143.475 34.612 143.475 33.7109C143.475 32.3151 143.824 31.2292 144.522 30.4531C145.22 29.6719 146.189 29.2812 147.428 29.2812C148.626 29.2812 149.577 29.6797 150.28 30.4766C150.988 31.2734 151.342 32.3516 151.342 33.7109ZM144.819 33.7109C144.819 34.8047 145.038 35.638 145.475 36.2109C145.913 36.7839 146.556 37.0703 147.405 37.0703C148.254 37.0703 148.897 36.7865 149.335 36.2188C149.777 35.6458 149.999 34.8099 149.999 33.7109C149.999 32.6224 149.777 31.7969 149.335 31.2344C148.897 30.6667 148.249 30.3828 147.389 30.3828C146.54 30.3828 145.9 30.6615 145.467 31.2188C145.035 31.776 144.819 32.6068 144.819 33.7109ZM161.221 40.9609H159.963V38H153.979V40.9609H152.729V36.8828H153.401C154.099 35.9349 154.646 34.8229 155.042 33.5469C155.437 32.2708 155.643 30.901 155.659 29.4375H159.995V36.8828H161.221V40.9609ZM158.745 36.8828V30.4609H156.823C156.755 31.6172 156.531 32.7891 156.151 33.9766C155.776 35.1589 155.307 36.1276 154.745 36.8828H158.745ZM164.397 29.4375V33.0234H169.194V29.4375H170.491V38H169.194V34.1406H164.397V38H163.1V29.4375H164.397ZM180.791 33.7109C180.791 35.1068 180.44 36.1979 179.737 36.9844C179.033 37.7656 178.062 38.1562 176.823 38.1562C176.057 38.1562 175.377 37.9766 174.783 37.6172C174.19 37.2578 173.731 36.7422 173.408 36.0703C173.086 35.3984 172.924 34.612 172.924 33.7109C172.924 32.3151 173.273 31.2292 173.971 30.4531C174.669 29.6719 175.638 29.2812 176.877 29.2812C178.075 29.2812 179.026 29.6797 179.729 30.4766C180.437 31.2734 180.791 32.3516 180.791 33.7109ZM174.268 33.7109C174.268 34.8047 174.487 35.638 174.924 36.2109C175.362 36.7839 176.005 37.0703 176.854 37.0703C177.703 37.0703 178.346 36.7865 178.783 36.2188C179.226 35.6458 179.448 34.8099 179.448 33.7109C179.448 32.6224 179.226 31.7969 178.783 31.2344C178.346 30.6667 177.698 30.3828 176.838 30.3828C175.989 30.3828 175.349 30.6615 174.916 31.2188C174.484 31.776 174.268 32.6068 174.268 33.7109ZM186.85 38.1562C185.584 38.1562 184.584 37.7708 183.85 37C183.121 36.2292 182.756 35.1589 182.756 33.7891C182.756 32.4089 183.094 31.3125 183.772 30.5C184.454 29.6875 185.368 29.2812 186.514 29.2812C187.587 29.2812 188.436 29.6354 189.061 30.3438C189.686 31.0469 189.998 31.9766 189.998 33.1328V33.9531H184.1C184.126 34.9583 184.378 35.7214 184.857 36.2422C185.342 36.763 186.022 37.0234 186.897 37.0234C187.818 37.0234 188.73 36.8307 189.631 36.4453V37.6016C189.173 37.7995 188.738 37.9401 188.326 38.0234C187.92 38.112 187.428 38.1562 186.85 38.1562ZM186.498 30.3672C185.811 30.3672 185.261 30.5911 184.85 31.0391C184.443 31.487 184.204 32.1068 184.131 32.8984H188.607C188.607 32.0807 188.425 31.4557 188.061 31.0234C187.696 30.5859 187.175 30.3672 186.498 30.3672ZM204.131 40.9609H202.873V38H196.888V40.9609H195.638V36.8828H196.31C197.008 35.9349 197.555 34.8229 197.951 33.5469C198.347 32.2708 198.553 30.901 198.568 29.4375H202.904V36.8828H204.131V40.9609ZM201.654 36.8828V30.4609H199.732C199.664 31.6172 199.441 32.7891 199.06 33.9766C198.685 35.1589 198.217 36.1276 197.654 36.8828H201.654ZM212.955 31.5859C212.955 32.1432 212.793 32.5677 212.47 32.8594C212.153 33.1458 211.705 33.3385 211.127 33.4375V33.5078C211.856 33.6068 212.387 33.8203 212.72 34.1484C213.059 34.4766 213.228 34.9297 213.228 35.5078C213.228 36.3047 212.934 36.9193 212.345 37.3516C211.762 37.7839 210.908 38 209.783 38H206.009V29.4375H209.767C211.892 29.4375 212.955 30.1536 212.955 31.5859ZM211.931 35.4219C211.931 34.9583 211.754 34.6224 211.4 34.4141C211.051 34.2005 210.47 34.0938 209.658 34.0938H207.306V36.9141H209.689C211.184 36.9141 211.931 36.4167 211.931 35.4219ZM211.689 31.7109C211.689 31.2943 211.528 31 211.205 30.8281C210.887 30.651 210.403 30.5625 209.752 30.5625H207.306V32.9766H209.502C210.304 32.9766 210.869 32.8776 211.197 32.6797C211.525 32.4818 211.689 32.1589 211.689 31.7109ZM216.497 29.4375V34.8672L216.443 36.2891L216.419 36.7344L221.052 29.4375H222.669V38H221.458V32.7656L221.482 31.7344L221.521 30.7188L216.896 38H215.279V29.4375H216.497ZM229.486 29.4531H230.681V33.6016L234.22 29.4531H235.642L232.064 33.6016L235.947 38H234.447L230.681 33.6641V38H229.486V33.6641L225.728 38H224.236L228.111 33.6016L224.54 29.4531H225.962L229.486 33.6016V29.4531ZM241.138 38.1562C239.872 38.1562 238.872 37.7708 238.138 37C237.409 36.2292 237.044 35.1589 237.044 33.7891C237.044 32.4089 237.383 31.3125 238.06 30.5C238.742 29.6875 239.656 29.2812 240.802 29.2812C241.875 29.2812 242.724 29.6354 243.349 30.3438C243.974 31.0469 244.286 31.9766 244.286 33.1328V33.9531H238.388C238.414 34.9583 238.666 35.7214 239.146 36.2422C239.63 36.763 240.31 37.0234 241.185 37.0234C242.107 37.0234 243.018 36.8307 243.919 36.4453V37.6016C243.461 37.7995 243.026 37.9401 242.614 38.0234C242.208 38.112 241.716 38.1562 241.138 38.1562ZM240.786 30.3672C240.099 30.3672 239.549 30.5911 239.138 31.0391C238.732 31.487 238.492 32.1068 238.419 32.8984H242.896C242.896 32.0807 242.713 31.4557 242.349 31.0234C241.984 30.5859 241.463 30.3672 240.786 30.3672ZM247.962 29.4375V33.0234H252.759V29.4375H254.056V38H252.759V34.1406H247.962V38H246.665V29.4375H247.962ZM258.184 29.4375V34.8672L258.13 36.2891L258.106 36.7344L262.739 29.4375H264.356V38H263.145V32.7656L263.169 31.7344L263.208 30.7188L258.583 38H256.966V29.4375H258.184ZM270.883 38.1562C269.618 38.1562 268.618 37.7708 267.883 37C267.154 36.2292 266.79 35.1589 266.79 33.7891C266.79 32.4089 267.128 31.3125 267.805 30.5C268.488 29.6875 269.402 29.2812 270.548 29.2812C271.62 29.2812 272.469 29.6354 273.094 30.3438C273.719 31.0469 274.032 31.9766 274.032 33.1328V33.9531H268.133C268.159 34.9583 268.412 35.7214 268.891 36.2422C269.376 36.763 270.055 37.0234 270.93 37.0234C271.852 37.0234 272.764 36.8307 273.665 36.4453V37.6016C273.206 37.7995 272.771 37.9401 272.36 38.0234C271.954 38.112 271.462 38.1562 270.883 38.1562ZM270.532 30.3672C269.844 30.3672 269.295 30.5911 268.883 31.0391C268.477 31.487 268.238 32.1068 268.165 32.8984H272.641C272.641 32.0807 272.459 31.4557 272.094 31.0234C271.73 30.5859 271.209 30.3672 270.532 30.3672ZM281.946 29.4375V34.8672L281.891 36.2891L281.867 36.7344L286.5 29.4375H288.117V38H286.907V32.7656L286.93 31.7344L286.969 30.7188L282.344 38H280.727V29.4375H281.946ZM292.324 29.4375V33.0234H297.121V29.4375H298.418V38H297.121V34.1406H292.324V38H291.027V29.4375H292.324ZM308.273 31.5859C308.273 32.1432 308.112 32.5677 307.789 32.8594C307.471 33.1458 307.023 33.3385 306.445 33.4375V33.5078C307.174 33.6068 307.706 33.8203 308.039 34.1484C308.378 34.4766 308.547 34.9297 308.547 35.5078C308.547 36.3047 308.253 36.9193 307.664 37.3516C307.081 37.7839 306.227 38 305.102 38H301.328V29.4375H305.086C307.211 29.4375 308.273 30.1536 308.273 31.5859ZM307.25 35.4219C307.25 34.9583 307.073 34.6224 306.719 34.4141C306.37 34.2005 305.789 34.0938 304.977 34.0938H302.625V36.9141H305.008C306.503 36.9141 307.25 36.4167 307.25 35.4219ZM307.008 31.7109C307.008 31.2943 306.846 31 306.523 30.8281C306.206 30.651 305.721 30.5625 305.07 30.5625H302.625V32.9766H304.82C305.622 32.9766 306.188 32.8776 306.516 32.6797C306.844 32.4818 307.008 32.1589 307.008 31.7109ZM314.215 38.1562C312.949 38.1562 311.949 37.7708 311.215 37C310.486 36.2292 310.121 35.1589 310.121 33.7891C310.121 32.4089 310.459 31.3125 311.137 30.5C311.819 29.6875 312.733 29.2812 313.879 29.2812C314.952 29.2812 315.801 29.6354 316.426 30.3438C317.051 31.0469 317.363 31.9766 317.363 33.1328V33.9531H311.465C311.491 34.9583 311.743 35.7214 312.223 36.2422C312.707 36.763 313.387 37.0234 314.262 37.0234C315.183 37.0234 316.095 36.8307 316.996 36.4453V37.6016C316.538 37.7995 316.103 37.9401 315.691 38.0234C315.285 38.112 314.793 38.1562 314.215 38.1562ZM313.863 30.3672C313.176 30.3672 312.626 30.5911 312.215 31.0391C311.808 31.487 311.569 32.1068 311.496 32.8984H315.973C315.973 32.0807 315.79 31.4557 315.426 31.0234C315.061 30.5859 314.54 30.3672 313.863 30.3672ZM323.164 38.1562C321.924 38.1562 320.963 37.776 320.281 37.0156C319.604 36.25 319.265 35.1693 319.265 33.7734C319.265 32.3411 319.609 31.2344 320.297 30.4531C320.989 29.6719 321.974 29.2812 323.25 29.2812C323.661 29.2812 324.073 29.3255 324.484 29.4141C324.896 29.5026 325.218 29.6068 325.453 29.7266L325.054 30.8281C324.768 30.7135 324.455 30.6198 324.117 30.5469C323.778 30.4688 323.479 30.4297 323.218 30.4297C321.479 30.4297 320.609 31.5391 320.609 33.7578C320.609 34.8099 320.82 35.6172 321.242 36.1797C321.669 36.7422 322.299 37.0234 323.133 37.0234C323.846 37.0234 324.578 36.8698 325.328 36.5625V37.7109C324.755 38.0078 324.034 38.1562 323.164 38.1562ZM333.3 30.5469H330.519V38H329.222V30.5469H326.472V29.4375H333.3V30.5469ZM342.546 33.7109C342.546 35.1068 342.195 36.1979 341.492 36.9844C340.788 37.7656 339.817 38.1562 338.578 38.1562C337.812 38.1562 337.132 37.9766 336.538 37.6172C335.945 37.2578 335.486 36.7422 335.163 36.0703C334.841 35.3984 334.679 34.612 334.679 33.7109C334.679 32.3151 335.028 31.2292 335.726 30.4531C336.424 29.6719 337.393 29.2812 338.632 29.2812C339.83 29.2812 340.781 29.6797 341.484 30.4766C342.192 31.2734 342.546 32.3516 342.546 33.7109ZM336.023 33.7109C336.023 34.8047 336.242 35.638 336.679 36.2109C337.117 36.7839 337.76 37.0703 338.609 37.0703C339.458 37.0703 340.101 36.7865 340.538 36.2188C340.981 35.6458 341.203 34.8099 341.203 33.7109C341.203 32.6224 340.981 31.7969 340.538 31.2344C340.101 30.6667 339.453 30.3828 338.593 30.3828C337.744 30.3828 337.104 30.6615 336.671 31.2188C336.239 31.776 336.023 32.6068 336.023 33.7109ZM348.972 38.1562C348.415 38.1562 347.904 38.0547 347.441 37.8516C346.982 37.6432 346.597 37.3255 346.284 36.8984H346.191C346.253 37.3984 346.284 37.8724 346.284 38.3203V41.8438H344.987V29.4375H346.042L346.222 30.6094H346.284C346.618 30.1406 347.006 29.8021 347.448 29.5938C347.891 29.3854 348.399 29.2812 348.972 29.2812C350.107 29.2812 350.982 29.6693 351.597 30.4453C352.217 31.2214 352.527 32.3099 352.527 33.7109C352.527 35.1172 352.211 36.2109 351.581 36.9922C350.956 37.7682 350.086 38.1562 348.972 38.1562ZM348.784 30.3828C347.909 30.3828 347.277 30.625 346.886 31.1094C346.495 31.5938 346.295 32.3646 346.284 33.4219V33.7109C346.284 34.9141 346.485 35.776 346.886 36.2969C347.287 36.8125 347.93 37.0703 348.816 37.0703C349.555 37.0703 350.133 36.7708 350.55 36.1719C350.972 35.5729 351.183 34.7474 351.183 33.6953C351.183 32.6276 350.972 31.8099 350.55 31.2422C350.133 30.6693 349.545 30.3828 348.784 30.3828ZM362.351 33.7109C362.351 35.1068 361.999 36.1979 361.296 36.9844C360.593 37.7656 359.621 38.1562 358.382 38.1562C357.616 38.1562 356.937 37.9766 356.343 37.6172C355.749 37.2578 355.291 36.7422 354.968 36.0703C354.645 35.3984 354.483 34.612 354.483 33.7109C354.483 32.3151 354.832 31.2292 355.53 30.4531C356.228 29.6719 357.197 29.2812 358.437 29.2812C359.634 29.2812 360.585 29.6797 361.288 30.4766C361.996 31.2734 362.351 32.3516 362.351 33.7109ZM355.827 33.7109C355.827 34.8047 356.046 35.638 356.483 36.2109C356.921 36.7839 357.564 37.0703 358.413 37.0703C359.262 37.0703 359.905 36.7865 360.343 36.2188C360.786 35.6458 361.007 34.8099 361.007 33.7109C361.007 32.6224 360.786 31.7969 360.343 31.2344C359.905 30.6667 359.257 30.3828 358.397 30.3828C357.549 30.3828 356.908 30.6615 356.476 31.2188C356.043 31.776 355.827 32.6068 355.827 33.7109ZM371.737 31.5859C371.737 32.1432 371.576 32.5677 371.253 32.8594C370.935 33.1458 370.487 33.3385 369.909 33.4375V33.5078C370.638 33.6068 371.169 33.8203 371.503 34.1484C371.841 34.4766 372.011 34.9297 372.011 35.5078C372.011 36.3047 371.716 36.9193 371.128 37.3516C370.544 37.7839 369.69 38 368.565 38H364.792V29.4375H368.55C370.675 29.4375 371.737 30.1536 371.737 31.5859ZM370.714 35.4219C370.714 34.9583 370.537 34.6224 370.182 34.4141C369.834 34.2005 369.253 34.0938 368.44 34.0938H366.089V36.9141H368.472C369.966 36.9141 370.714 36.4167 370.714 35.4219ZM370.472 31.7109C370.472 31.2943 370.31 31 369.987 30.8281C369.669 30.651 369.185 30.5625 368.534 30.5625H366.089V32.9766H368.284C369.086 32.9766 369.651 32.8776 369.979 32.6797C370.307 32.4818 370.472 32.1589 370.472 31.7109Z" fill="#313237" fill-opacity="0.5"/>
<defs>
<clipPath id="clip0">
<rect width="177.778" height="40" fill="white"/>
</clipPath>
</defs>
</svg>
