<svg width="74" height="67" viewBox="0 0 74 67" fill="none" xmlns="http://www.w3.org/2000/svg">
<path d="M5.00677 29.5061L4.45897 32.4659C4.43891 32.589 4.35623 32.6947 4.23989 32.756L1.05459 34.3788C0.733291 34.543 0.766869 34.9895 1.09768 35.1184L3.92105 36.1682C4.06774 36.2219 4.16997 36.3478 4.18607 36.5L4.62216 40.1999C4.66156 40.5605 5.13987 40.6881 5.37492 40.4004L7.41271 37.8867C7.51638 37.7526 7.69658 37.7011 7.8605 37.7495L11.5221 38.7764C11.8739 38.8769 12.1762 38.5285 12.0149 38.2124L10.729 35.661C10.6734 35.5501 10.6695 35.4234 10.7283 35.314L12.3112 32.0772C12.4596 31.7686 12.1787 31.4345 11.8312 31.508L8.75647 32.2016C8.61195 32.2349 8.456 32.1877 8.35128 32.0773L5.71841 29.3063C5.498 29.0522 5.06992 29.1688 5.00677 29.5061Z" fill="#EA2C19"/>
<path d="M44.898 0.13747C42.4153 0.240006 40.2246 2.1762 39.622 4.49822C39.0194 6.82024 39.8773 9.37167 41.5653 11.1272C42.6352 12.2427 44.2778 13.1034 45.7542 12.5755C47.1264 12.0914 47.8457 10.4523 47.4619 9.09467C47.0766 7.73154 45.7725 6.72159 44.3458 6.41315C42.919 6.1047 41.4018 6.41321 40.0854 7.0364C37.691 8.17023 35.8122 10.4934 35.7395 13.0596C35.6683 15.6313 37.7297 18.2292 40.39 18.4236C40.3563 17.7082 40.5525 16.8942 40.7254 16.1978C39.3902 15.7076 38.4555 14.3229 38.3312 12.9534C38.2053 11.5784 38.8737 10.1815 39.9858 9.321C41.0979 8.46053 42.6134 8.12302 44.0236 8.34733C44.509 8.42611 45.008 8.57801 45.3637 8.90105C45.7266 9.22818 45.9178 9.75709 45.7182 10.1954C45.5565 10.5477 45.1771 10.7719 44.779 10.8361C44.3852 10.8933 43.9829 10.8055 43.6103 10.6691C41.7125 9.97231 40.4988 7.86877 40.8914 5.94642C41.2783 4.02551 43.2218 2.51003 45.2541 2.54946C45.1529 1.83328 45.0136 0.861822 44.898 0.13747Z" fill="#FFC533"/>
<path d="M56.2736 24.7985C61.4239 33.3578 65.7707 42.3483 69.2251 51.6645C69.7568 53.0963 67.482 53.9499 66.9503 52.5181C63.5719 43.3875 59.3459 34.5688 54.2956 26.1782C53.5185 24.8833 55.4878 23.4921 56.2736 24.7985Z" fill="#FFC533"/>
<path d="M20.9832 16.9511C33.8982 27.428 45.0728 39.9349 54.0167 53.9101C54.7345 55.0299 53.042 56.2636 52.3154 55.1425C43.4682 41.2993 32.4332 28.9399 19.6474 18.5638C18.6205 17.7223 19.9475 16.1083 20.9832 16.9511Z" fill="#717171"/>
<path d="M25.5933 48.4735C34.4003 52.2627 42.527 57.4232 49.6021 63.7553C50.7528 64.7791 49.2107 66.6137 48.0616 65.5799C41.1345 59.3828 33.2229 54.3368 24.5944 50.6258C23.1543 50.0087 24.1532 47.8564 25.5933 48.4735Z" fill="#EA2C19"/>
</svg>
