<svg version="1.1"
     xmlns="http://www.w3.org/2000/svg"
     display="none">

    <symbol id="arrow-top" viewBox="0 0 12 7" fill="none">
        <path
                d="M1.28033 6.28033C0.987436 6.57322 0.512564 6.57322 0.21967 6.28033C-0.0732231 5.98744 -0.0732231 5.51256 0.21967 5.21967L5.21967 0.21967C5.51256 -0.0732236 5.98744 -0.0732236 6.28033 0.21967L11.2803 5.21967C11.5732 5.51256 11.5732 5.98744 11.2803 6.28033C10.9874 6.57322 10.5126 6.57322 10.2197 6.28033L5.75 1.81066L1.28033 6.28033Z" fill="currentColor"/>
    </symbol>

    <symbol id="clip" viewBox="0 0 14 15" fill="none">
        <path fill-rule="evenodd" clip-rule="evenodd"
              d="M0.502792 6.99066C0.243351 6.73121 0.243351 6.3112 0.502792 6.05176L5.19397 1.36058C7.00807 -0.453525 9.94885 -0.453525 11.763 1.36058C13.5771 3.17401 13.5771 6.11479 11.763 7.92889L5.66375 14.0281C4.36787 15.324 2.26713 15.324 0.97191 14.0281C-0.32397 12.7329 -0.32397 10.6321 0.97191 9.33625L6.13287 4.17528C6.90987 3.39762 8.17058 3.39762 8.94824 4.17528C9.72524 4.95294 9.72524 6.21299 8.94824 6.99066L5.19397 10.7443C4.93519 11.003 4.51518 11.003 4.25574 10.7443C3.99696 10.4848 3.99696 10.0648 4.25574 9.80603L8.00935 6.05176C8.26879 5.79298 8.26879 5.37296 8.00935 5.11352C7.75057 4.85474 7.33055 4.85474 7.07111 5.11352L1.91015 10.2751C1.13249 11.0521 1.13249 12.3129 1.91015 13.0899C2.68781 13.8675 3.94786 13.8675 4.72485 13.0899L10.8247 6.99066C12.1199 5.69477 12.1199 3.59403 10.8247 2.29881C9.52884 1.00293 7.42875 1.00293 6.13287 2.29881L1.44103 6.99066C1.18159 7.24943 0.76157 7.24943 0.502792 6.99066Z" fill="currentColor"/>
    </symbol>

    <symbol id="comment" viewBox="0 0 14 14">
        <path
                d="M6.8252 0.862946C3.53773 0.862946 0.862966 3.45443 0.862966 6.63964C0.862966 9.82485 3.53773 12.4163 6.8252 12.4163C7.86895 12.4163 8.90969 12.1376 9.83436 11.6103L9.98149 11.5266L13.1223 12.2614L12.1911 9.1198L12.2597 8.97094C12.6092 8.21196 12.7866 7.42753 12.7866 6.63964C12.7866 3.45443 10.1122 0.862946 6.8252 0.862946ZM6.8252 13.2793C3.0618 13.2793 0 10.3008 0 6.63964C0 2.97851 3.0618 -1.95535e-05 6.8252 -1.95535e-05C10.5882 -1.95535e-05 13.6495 2.97851 13.6495 6.63964C13.6495 7.50045 13.4683 8.35435 13.111 9.18064L13.9628 11.9974C14.0534 12.2981 13.9757 12.6256 13.7604 12.8513C13.5434 13.0787 13.2124 13.1757 12.9156 13.0989L10.1118 12.4431C9.0948 12.9906 7.96215 13.2793 6.8252 13.2793Z" fill="currentColor"/>
    </symbol>

    <symbol id="control" viewBox="0 0 20 20" fill="none">
        <path fill-rule="evenodd" clip-rule="evenodd"
              d="M9.75 19.5C15.1348 19.5 19.5 15.1348 19.5 9.75C19.5 4.36522 15.1348 0 9.75 0C4.36522 0 0 4.36522 0 9.75C0 15.1348 4.36522 19.5 9.75 19.5ZM9.75 18C5.19365 18 1.5 14.3063 1.5 9.75C1.5 5.19365 5.19365 1.5 9.75 1.5C14.3063 1.5 18 5.19365 18 9.75C18 14.3063 14.3063 18 9.75 18ZM8.33807 5.78277C8.04354 5.49156 7.56869 5.49425 7.27748 5.78879C6.98625 6.08334 6.98896 6.55822 7.28354 6.84943L10.2449 9.77687L7.27239 12.7777C6.98087 13.0719 6.98316 13.5468 7.27751 13.8383C7.57181 14.1297 8.04663 14.1274 8.33805 13.8331L11.8731 10.263C12.1452 9.98816 12.1429 9.54467 11.8678 9.27272L8.33807 5.78277Z" fill="currentColor"/>
    </symbol>

    <symbol id="eye" viewBox="0 0 18 11" fill="none">
        <path fill-rule="evenodd" clip-rule="evenodd"
              d="M8.99997 0C14.385 0 17.7916 4.83083 17.9334 5.0371C18.0301 5.1766 18.0204 5.36335 17.9116 5.49234C17.7383 5.6971 13.6208 10.5002 8.99997 10.5002C4.37913 10.5002 0.261558 5.6971 0.0883052 5.49234C-0.0294351 5.3521 -0.0294351 5.14735 0.0883052 5.00785C0.261558 4.80309 4.37913 0 8.99997 0ZM0.878842 5.25011C1.77358 6.21763 5.29567 9.75019 8.99997 9.75019C12.7358 9.75019 16.2781 6.16662 17.1406 5.22986C16.3936 4.27736 13.3343 0.750036 8.99997 0.750036C5.29043 0.750036 1.77211 4.28186 0.878842 5.25011ZM5.99996 5.25008C5.99996 3.59556 7.34548 2.25004 9 2.25004C10.6545 2.25004 12 3.59556 12 5.25008C12 6.90459 10.6545 8.25012 9 8.25012C7.34548 8.25012 5.99996 6.90459 5.99996 5.25008ZM6.74996 5.25011C6.74996 6.49062 7.75949 7.50015 9 7.50015C10.2405 7.50015 11.25 6.49062 11.25 5.25011C11.25 4.0096 10.2405 3.00008 9 3.00008C7.75949 3.00008 6.74996 4.0096 6.74996 5.25011Z" fill="currentColor"/>
    </symbol>

    <symbol id="geo" viewBox="0 0 13 16" fill="none">
        <path fill-rule="evenodd" clip-rule="evenodd"
              d="M6.07463 1.34989C3.46522 1.34989 1.34989 3.46252 1.34989 6.07463C1.34989 7.98477 2.20102 9.84092 3.25531 11.3866C4.27923 12.8985 5.45366 14.0594 6.07463 14.6264C6.6956 14.0594 7.87003 12.8985 8.89395 11.3866C9.94824 9.84092 10.7994 7.98477 10.7994 6.07463C10.7994 3.46252 8.68404 1.34989 6.07463 1.34989ZM0 6.07467C0 2.7201 2.71943 0 6.07467 0C9.42991 0 12.1493 2.7201 12.1493 6.07467C12.1493 8.36954 11.1362 10.4889 10.0111 12.1493C8.87981 13.8097 7.59063 15.0719 6.93862 15.6659C6.44522 16.1114 5.70411 16.1114 5.21071 15.6659C4.5587 15.0719 3.26952 13.8097 2.13828 12.1493C1.01312 10.4889 0 8.36954 0 6.07467ZM6.0746 4.72489C5.32945 4.72489 4.72468 5.33236 4.72468 6.07481C4.72468 6.81727 5.32945 7.42474 6.0746 7.42474C6.81976 7.42474 7.42453 6.81727 7.42453 6.07481C7.42453 5.33236 6.81976 4.72489 6.0746 4.72489ZM3.37486 6.07457C3.37486 4.5829 4.58372 3.37472 6.07471 3.37472C7.56571 3.37472 8.77456 4.5829 8.77456 6.07457C8.77456 7.56624 7.56571 8.77443 6.07471 8.77443C4.58372 8.77443 3.37486 7.56624 3.37486 6.07457Z" fill="currentColor"/>
    </symbol>

    <symbol id="hash" viewBox="0 0 14 13" fill="none">
        <path
                d="M13.3636 3.18203H11.4303L12.0686 0.801373C12.1596 0.462178 11.9585 0.112846 11.6187 0.0218427C11.2789 -0.0691608 10.9295 0.132538 10.8392 0.471733L10.1131 3.18203H5.59362L6.23193 0.801373C6.32293 0.462178 6.12182 0.112846 5.78204 0.0218427C5.44214 -0.0684617 5.09351 0.132538 5.00309 0.471733L4.27635 3.18203H1.90909C1.55778 3.18203 1.27277 3.46646 1.27277 3.81835C1.27277 4.17037 1.55778 4.4548 1.90909 4.4548H3.93459L2.91071 8.27298H0.636325C0.285129 8.27298 0 8.55741 0 8.9093C0 9.2612 0.285129 9.54563 0.636325 9.54563H2.56965L1.93135 11.9263C1.84034 12.2655 2.04146 12.6148 2.38124 12.7058C2.436 12.7205 2.49135 12.7275 2.54542 12.7275C2.82612 12.7275 3.08386 12.5404 3.1596 12.2559L3.88693 9.54563H8.40634L7.76803 11.9263C7.67715 12.2655 7.87815 12.6148 8.21804 12.7058C8.27269 12.7205 8.32804 12.7275 8.3828 12.7275C8.6635 12.7275 8.92113 12.5404 8.99687 12.2559L9.72362 9.54563H12.0909C12.4422 9.54563 12.7273 9.2612 12.7273 8.9093C12.7273 8.55741 12.4422 8.27298 12.0909 8.27298H10.0654L11.0893 4.4548H13.3636C13.7149 4.4548 14 4.17037 14 3.81835C14 3.46646 13.7149 3.18203 13.3636 3.18203ZM8.7474 8.27298H4.22799L5.25186 4.4548H9.77139L8.7474 8.27298Z" fill="currentColor"/>
    </symbol>

    <symbol id="interview" viewBox="0 0 18 18" fill="none">
        <path fill-rule="evenodd" clip-rule="evenodd"
              d="M9.04181 1.62876C4.99353 1.62876 1.71239 4.9099 1.71239 8.95819C1.71239 10.3638 2.10736 11.675 2.79226 12.7898L3.01295 13.149L1.63421 16.3658L4.85101 14.987L5.21097 15.2077C6.32504 15.8926 7.63619 16.2876 9.04181 16.2876C13.0901 16.2876 16.3712 13.0065 16.3712 8.95819C16.3712 4.9099 13.0901 1.62876 9.04181 1.62876ZM0.0836277 8.95819C0.0836277 4.01082 4.09445 0 9.04181 0C13.9892 0 18 4.01082 18 8.95819C18 13.9055 13.9892 17.9164 9.04181 17.9164C7.47983 17.9164 6.00906 17.5157 4.72885 16.8121L2.27594 17.8634C0.924068 18.4425 -0.442462 17.0759 0.136562 15.7241L1.18793 13.2711C0.484303 11.9909 0.0836277 10.5202 0.0836277 8.95819ZM4.96991 7.32943C4.96991 6.87989 5.33475 6.51504 5.78429 6.51504H8.22743C8.67697 6.51504 9.04181 6.87989 9.04181 7.32943C9.04181 7.77896 8.67697 8.14381 8.22743 8.14381H5.78429C5.33475 8.14381 4.96991 7.77896 4.96991 7.32943ZM4.96991 10.5869C4.96991 10.1374 5.33475 9.77257 5.78429 9.77257H12.2993C12.7489 9.77257 13.1137 10.1374 13.1137 10.5869C13.1137 11.0365 12.7489 11.4013 12.2993 11.4013H5.78429C5.33475 11.4013 4.96991 11.0365 4.96991 10.5869Z" fill="currentColor"/>
    </symbol>

    <symbol id="news" viewBox="0 0 18 18" fill="none">
        <path fill-rule="evenodd" clip-rule="evenodd"
              d="M1.53675 8.25H5.262C5.3265 6.20025 5.6565 4.33275 6.174 2.91C6.30675 2.5455 6.4545 2.20125 6.61875 1.88625C3.8715 2.805 1.833 5.271 1.53675 8.25ZM9 0C4.02975 0 0 4.02975 0 9C0 13.9703 4.02975 18 9 18C13.9703 18 18 13.9703 18 9C18 4.02975 13.9703 0 9 0ZM9 1.5C8.88675 1.5 8.682 1.56075 8.40075 1.887C8.1225 2.211 7.8375 2.724 7.58325 3.42225C7.1355 4.65525 6.82725 6.342 6.76275 8.25H11.2373C11.1728 6.342 10.8645 4.65525 10.4167 3.42225C10.1625 2.724 9.8775 2.211 9.59925 1.887C9.318 1.56075 9.11325 1.5 9 1.5ZM12.738 8.25C12.6728 6.20025 12.3435 4.33275 11.826 2.91C11.6933 2.5455 11.5455 2.20125 11.3813 1.88625C14.1285 2.805 16.167 5.271 16.4632 8.25H12.738ZM11.2373 9.75H6.76275C6.82725 11.658 7.1355 13.3448 7.58325 14.5778C7.8375 15.276 8.1225 15.789 8.40075 16.113C8.682 16.4392 8.88675 16.5 9 16.5C9.11325 16.5 9.318 16.4392 9.59925 16.113C9.8775 15.789 10.1625 15.276 10.4167 14.5778C10.8645 13.3448 11.1728 11.658 11.2373 9.75ZM11.3813 16.1138C11.5455 15.7987 11.6933 15.4545 11.826 15.09C12.3435 13.6672 12.6728 11.7998 12.738 9.75H16.4632C16.167 12.729 14.1285 15.195 11.3813 16.1138ZM6.61875 16.1138C6.4545 15.7987 6.30675 15.4545 6.174 15.09C5.6565 13.6672 5.3265 11.7998 5.262 9.75H1.53675C1.833 12.729 3.8715 15.195 6.61875 16.1138Z" fill="currentColor"/>
    </symbol>

    <symbol id="opinion" viewBox="0 0 18 18" fill="none">
        <path fill-rule="evenodd" clip-rule="evenodd"
              d="M9 0.818182C9 0.366545 9.36655 0 9.81818 0C14.337 0 18 3.663 18 8.18182C18 8.63345 17.6335 9 17.1818 9H16.3235C16.3497 9.26918 16.3636 9.54245 16.3636 9.81818C16.3636 14.337 12.7006 18 8.18182 18C3.663 18 0 14.337 0 9.81818C0 5.29936 3.663 1.63636 8.18182 1.63636C8.45755 1.63636 8.73082 1.65027 9 1.67645V0.818182ZM9 3.32345C8.73245 3.28991 8.45918 3.27273 8.18182 3.27273C4.56709 3.27273 1.63636 6.20345 1.63636 9.81818C1.63636 13.4329 4.56709 16.3636 8.18182 16.3636C11.7965 16.3636 14.7273 13.4329 14.7273 9.81818C14.7273 9.54082 14.7101 9.26755 14.6765 9H9.81818C9.36655 9 9 8.63345 9 8.18182V3.32345ZM10.6364 1.68709V7.36364H16.3129C15.9439 4.40264 13.5974 2.05609 10.6364 1.68709Z" fill="currentColor"/>
    </symbol>

    <symbol id="play" viewBox="0 0 20 23" fill="none">
        <path d="M0 1.68774C0 0.927949 0.813901 0.445708 1.48031 0.810648L19.3983 10.6229C20.0913 11.0024 20.0913 11.9976 19.3983 12.3771L1.48032 22.1894C0.813902 22.5543 0 22.0721 0 21.3123L0 1.68774Z" fill="#231F20"/>
    </symbol>

    <symbol id="search" viewBox="0 0 30 30" fill="none">
        <path opacity="0.5"
              d="M29.8169 28.0494L21.1021 19.3346C22.7551 17.2939 23.75 14.6996 23.75 11.8751C23.75 5.32718 18.4229 0 11.875 0C5.32712 0 0 5.32718 0 11.8751C0 18.4229 5.32718 23.7501 11.8751 23.7501C14.6996 23.7501 17.2939 22.7551 19.3346 21.1022L28.0494 29.817C28.2935 30.061 28.6892 30.061 28.9333 29.817L29.817 28.9333C30.061 28.6892 30.061 28.2934 29.8169 28.0494ZM11.8751 21.2501C6.70537 21.2501 2.50003 17.0447 2.50003 11.8751C2.50003 6.70537 6.70537 2.50003 11.8751 2.50003C17.0447 2.50003 21.2501 6.70537 21.2501 11.8751C21.2501 17.0447 17.0447 21.2501 11.8751 21.2501Z" fill="currentColor"/>
    </symbol>

    <symbol id="star" viewBox="0 0 18 18" fill="none">
        <path fill-rule="evenodd" clip-rule="evenodd"
              d="M7.64045 0.84574C8.19594 -0.281913 9.80406 -0.281913 10.3595 0.84574L12.3254 4.83345L16.7064 5.4867C17.9417 5.67085 18.4365 7.18651 17.5476 8.06408L14.3776 11.1947L15.1149 15.5992C15.3226 16.836 14.0237 17.7749 12.915 17.1906L9 15.1309L5.08504 17.1906C3.97634 17.7749 2.67741 16.836 2.88506 15.5992L3.62243 11.1947L0.452423 8.06408C-0.436513 7.18651 0.0583504 5.67085 1.29362 5.4867L5.67388 4.83345L7.64045 0.84574ZM9 1.51566L6.68255 6.21497L1.51718 6.98569L5.24722 10.6695L4.3795 15.8493L9 13.4174L13.6205 15.8493L12.7528 10.6695L16.4828 6.98569L11.3174 6.21497L9 1.51566Z" fill="currentColor"/>
    </symbol>

    <symbol id="story" viewBox="0 0 18 15" fill="none">
        <path fill-rule="evenodd" clip-rule="evenodd"
              d="M18 2.25C18 1.00725 16.9928 0 15.75 0H2.25C1.00725 0 0 1.00725 0 2.25V12.75C0 13.9928 1.00725 15 2.25 15H15.75C16.9928 15 18 13.9928 18 12.75V2.25ZM15.75 1.5C16.164 1.5 16.5 1.836 16.5 2.25V6.4395L14.5605 4.5C13.9748 3.91425 13.0252 3.91425 12.4395 4.5L8.25 8.6895L7.0605 7.5C6.47475 6.91425 5.52525 6.91425 4.9395 7.5L1.5 10.9395V2.25C1.5 1.836 1.836 1.5 2.25 1.5H15.75ZM1.54725 13.0133L6 8.5605L8.25 10.8105L13.5 5.5605L16.5 8.5605V12.75C16.5 13.164 16.164 13.5 15.75 13.5H2.25C1.92825 13.5 1.6545 13.2975 1.54725 13.0133ZM6 4.5C6 3.672 5.328 3 4.5 3C3.672 3 3 3.672 3 4.5C3 5.328 3.672 6 4.5 6C5.328 6 6 5.328 6 4.5Z" fill="currentColor"/>
    </symbol>

    <symbol id="test" viewBox="0 0 17 18" fill="none">
        <path fill-rule="evenodd" clip-rule="evenodd"
              d="M8.74567 1.62909C8.51686 1.50393 8.23968 1.50393 8.01011 1.62909L1.53522 5.16098L8.01011 8.69288C8.23968 8.81803 8.51686 8.81803 8.74567 8.69288L15.2206 5.16098L8.74567 1.62909ZM7.27455 0.281592C7.96251 -0.093864 8.79327 -0.093864 9.48122 0.281592L15.9553 3.81272C17.0226 4.39471 17.0226 5.92725 15.9553 6.50925L14.9081 7.08049L15.9553 7.65174C17.0226 8.23373 17.0226 9.76627 15.9553 10.3483L14.9081 10.9195L15.9553 11.4908C17.0226 12.0727 17.0226 13.6053 15.9553 14.1873L9.48122 17.7184C8.79327 18.0939 7.96251 18.0939 7.27455 17.7184L0.800435 14.1873C-0.266812 13.6053 -0.266812 12.0727 0.800435 11.4908L1.84772 10.9195L0.800435 10.3483C-0.266812 9.76627 -0.266812 8.23373 0.800435 7.65174L1.84772 7.08049L0.800435 6.50925C-0.266812 5.92725 -0.266812 4.39471 0.800435 3.81272L7.27455 0.281592ZM3.45089 7.95502L1.53522 9L8.01011 12.5319C8.23968 12.657 8.51686 12.657 8.74567 12.5319L15.2206 9L13.3049 7.95502L9.48122 10.0404C8.79327 10.4158 7.96251 10.4158 7.27455 10.0404L3.45089 7.95502ZM3.45089 11.794L1.53522 12.839L8.01011 16.3709C8.23968 16.4961 8.51686 16.4961 8.74567 16.3709L15.2206 12.839L13.3049 11.794L9.48122 13.8794C8.79327 14.2548 7.96251 14.2548 7.27455 13.8794L3.45089 11.794Z" fill="currentColor"/>
    </symbol>

    <symbol id="time" viewBox="0 0 14 14" fill="none">
        <path fill-rule="evenodd" clip-rule="evenodd"
              d="M7 14C10.866 14 14 10.866 14 7C14 3.13401 10.866 0 7 0C3.13401 0 0 3.13401 0 7C0 10.866 3.13401 14 7 14ZM7.00002 12.923C3.7288 12.923 1.07694 10.2712 1.07694 6.99993C1.07694 3.7287 3.7288 1.07685 7.00002 1.07685C10.2712 1.07685 12.9231 3.7287 12.9231 6.99993C12.9231 10.2712 10.2712 12.923 7.00002 12.923ZM6.99999 3.44664C7.29737 3.44664 7.53845 3.68772 7.53845 3.9851V7.49488L9.28719 9.24363C9.49748 9.45391 9.49748 9.79484 9.28719 10.0051C9.07691 10.2154 8.73598 10.2154 8.52569 10.0051L6.61924 8.09867C6.51826 7.99769 6.46153 7.86073 6.46153 7.71792V3.9851C6.46153 3.68772 6.7026 3.44664 6.99999 3.44664Z" fill="currentColor"/>
    </symbol>

    <symbol id="video" viewBox="0 0 18 13" fill="none">
        <path fill-rule="evenodd" clip-rule="evenodd"
              d="M2.53846 0H10.8462C12.215 0 13.3309 1.08354 13.3827 2.43973L15.7847 1.47895C16.613 1.14762 17.5531 1.55052 17.8845 2.37886C17.9608 2.56967 18 2.77329 18 2.9788V9.48274C18 10.3749 17.2768 11.0981 16.3846 11.0981C16.1791 11.0981 15.9755 11.0589 15.7847 10.9826L13.3827 10.0218C13.3309 11.378 12.215 12.4615 10.8462 12.4615H2.53846C1.13651 12.4615 0 11.325 0 9.92308V2.53846C0 1.13651 1.13651 0 2.53846 0ZM12 9V3.46154V2.53846C12 1.90121 11.4834 1.38462 10.8462 1.38462H2.53846C1.90121 1.38462 1.38462 1.90121 1.38462 2.53846V9.92308C1.38462 10.5603 1.90121 11.0769 2.53846 11.0769H10.8462C11.4834 11.0769 12 10.5603 12 9.92308V9ZM13.3846 8.53128L16.2989 9.697C16.3262 9.70791 16.3553 9.71351 16.3846 9.71351C16.5121 9.71351 16.6154 9.61019 16.6154 9.48274V2.9788C16.6154 2.94944 16.6098 2.92035 16.5989 2.89309C16.5515 2.77476 16.4172 2.7172 16.2989 2.76454L13.3846 3.93025V8.53128Z" fill="currentColor"/>
    </symbol>

    <symbol id="arrow-down" viewBox="0 0 12 7" fill="none">
        <path
                d="M1.28033 0.21967C0.987436 -0.0732233 0.512564 -0.0732233 0.21967 0.21967C-0.0732231 0.512563 -0.0732231 0.987437 0.21967 1.28033L5.21967 6.28033C5.51256 6.57322 5.98744 6.57322 6.28033 6.28033L11.2803 1.28033C11.5732 0.987437 11.5732 0.512563 11.2803 0.21967C10.9874 -0.0732233 10.5126 -0.0732233 10.2197 0.21967L5.75 4.68934L1.28033 0.21967Z" fill="currentColor"/>
    </symbol>

    <symbol id="arrow-right-long" viewBox="0 0 31 8" fill="none">
        <path
                d="M30.3536 4.35355C30.5488 4.15829 30.5488 3.84171 30.3536 3.64645L27.1716 0.464466C26.9763 0.269204 26.6597 0.269204 26.4645 0.464466C26.2692 0.659728 26.2692 0.976311 26.4645 1.17157L29.2929 4L26.4645 6.82843C26.2692 7.02369 26.2692 7.34027 26.4645 7.53553C26.6597 7.7308 26.9763 7.7308 27.1716 7.53553L30.3536 4.35355ZM0 4.5H30V3.5H0V4.5Z" fill="currentColor"/>
    </symbol>

    <symbol id="cross" viewBox="0 0 18 18" fill="none">
        <path fill-rule="evenodd" clip-rule="evenodd"
              d="M10.8062 8.99992L17.6261 15.8199C18.1249 16.3186 18.1249 17.1272 17.6261 17.626C17.1274 18.1247 16.3188 18.1247 15.8201 17.626L9.00011 10.806L2.1801 17.626C1.68137 18.1247 0.872772 18.1247 0.374045 17.626C-0.124682 17.1273 -0.124682 16.3187 0.374045 15.8199L7.19406 8.99992L0.374239 2.1801C-0.124488 1.68137 -0.124488 0.872772 0.374239 0.374045C0.872966 -0.124682 1.68156 -0.124682 2.18029 0.374045L9.00011 7.19386L15.8199 0.37407C16.3186 -0.124657 17.1272 -0.124657 17.626 0.37407C18.1247 0.872797 18.1247 1.68139 17.626 2.18012L10.8062 8.99992Z" fill="currentColor"/>
    </symbol>

    <symbol id="phone" viewBox="0 0 17 17" fill="none">
        <path fill-rule="evenodd" clip-rule="evenodd"
              d="M2.25806 1.55178C1.80649 1.55178 1.52018 1.90404 1.5551 2.24853C2.24487 9.21371 7.78629 14.7551 14.7515 15.4449C15.096 15.4798 15.4482 15.1935 15.4482 14.7419V11.9805C15.4482 11.6469 15.2348 11.3505 14.9175 11.245L12.2329 10.3496C11.9544 10.2573 11.6471 10.3294 11.4392 10.5374L11.0093 10.9672C10.4957 11.4809 9.67636 11.5794 9.05642 11.155C7.58843 10.151 6.73418 9.30217 5.8225 7.93039C5.41051 7.30968 5.51835 6.5043 6.02346 5.99997L6.46262 5.56082C6.67055 5.35288 6.74271 5.04562 6.6496 4.76708L5.755 2.08249C5.64948 1.76515 5.35309 1.55178 5.01946 1.55178H2.25806ZM0.0110753 2.40216C-0.12393 1.04125 0.995682 0 2.25806 0H5.01946C6.02113 0 6.9103 0.640887 7.22687 1.59135L8.12225 4.27594C8.40079 5.11235 8.18354 6.03489 7.55973 6.65793L7.12755 7.0901C7.9112 8.26635 8.61571 8.97241 9.91766 9.86469L10.3421 9.44027C10.9651 8.81646 11.8876 8.59921 12.7241 8.87775L15.4086 9.77313C16.3591 10.0897 17 10.9789 17 11.9805V14.7419C17 16.0043 15.9588 17.1239 14.5978 16.9889C6.89711 16.2262 0.773777 10.1029 0.0110753 2.40216ZM10.7929 0.775892C10.7929 0.3476 11.1405 0 11.5688 0C14.5684 0 17 2.43164 17 5.43124C17 5.85953 16.6524 6.20713 16.2241 6.20713C15.7958 6.20713 15.4482 5.85953 15.4482 5.43124C15.4482 3.28901 13.711 1.55178 11.5688 1.55178C11.1405 1.55178 10.7929 1.20418 10.7929 0.775892ZM10.7929 3.87946C10.7929 3.45117 11.1405 3.10357 11.5688 3.10357C12.8544 3.10357 13.8964 4.14559 13.8964 5.43124C13.8964 5.85953 13.5488 6.20713 13.1205 6.20713C12.6922 6.20713 12.3447 5.85953 12.3447 5.43124C12.3447 5.00295 11.9971 4.65535 11.5688 4.65535C11.1405 4.65535 10.7929 4.30775 10.7929 3.87946Z" fill="currentColor"/>
    </symbol>

    <svg id="arrow-pagination" viewBox="0 0 7 12" fill="none" >
        <path
                d="M0.21967 10.2197C-0.0732233 10.5126 -0.0732233 10.9874 0.21967 11.2803C0.512563 11.5732 0.987437 11.5732 1.28033 11.2803L6.28033 6.28033C6.57322 5.98744 6.57322 5.51256 6.28033 5.21967L1.28033 0.21967C0.987437 -0.0732233 0.512563 -0.0732233 0.21967 0.21967C-0.0732233 0.512563 -0.0732233 0.987437 0.21967 1.28033L4.68934 5.75L0.21967 10.2197Z" fill="currentColor"/>
    </svg>


</svg>
