<?xml version="1.0" encoding="UTF-8"?>
<svg xmlns="http://www.w3.org/2000/svg" width="240" height="43" viewBox="0 0 240 43" fill="none"> <path d="M51.7099 13.2037C51.5036 8.64537 49.7774 5.33826 46.8499 3.89204C46.4965 3.71707 46.1204 3.57038 45.7306 3.45518L44.5904 2.91716C44.3536 2.76242 44.1074 2.62171 43.8565 2.49744C42.8654 2.00781 41.7791 1.75973 40.628 1.75973C38.408 1.75973 36.0335 2.67908 33.6848 4.43569C31.8174 1.74834 29.4702 0.201647 26.9399 0.0229962C26.8638 0.0101205 26.7717 3.8147e-06 26.669 3.8147e-06H22.845C14.1957 3.8147e-06 6.57532 6.05746 4.36682 14.5388C2.33598 15.3091 0.95076 17.2905 0.95076 19.6011C0.95076 21.9115 2.33598 23.893 4.36682 24.6634C6.57532 33.1443 14.1958 39.2019 22.8451 39.2019H26.3648L26.4067 39.2013C26.4201 39.2017 26.4333 39.2019 26.4468 39.2019C27.3498 39.2019 28.2435 39.0254 29.1125 38.6763L30.3148 39.2404C30.3872 39.2754 30.4603 39.3087 30.5338 39.3411L31.4802 39.7752L31.5202 39.6885C32.1434 39.8569 32.7946 39.9421 33.4683 39.9421C38.8162 39.9421 44.9373 34.5666 48.7002 26.5659C50.8265 22.0456 51.8953 17.3002 51.7099 13.2037Z" fill="white"/> <path d="M6.24599 16.6924L6.17387 17.079L5.79016 17.0977C4.32553 17.169 3.17821 18.4031 3.17821 19.9074C3.17821 21.4117 4.32553 22.6458 5.79016 22.7169L6.17387 22.7356L6.24599 23.1223C7.73777 31.1165 14.593 36.9188 22.5462 36.9188H25.6603V2.89589H22.5462C14.593 2.89589 7.73777 8.69825 6.24599 16.6924Z" fill="white"/> <path d="M18.151 21.159C18.5963 11.4986 23.0876 3.8672 28.1826 4.11391L24.5849 3.93963C16.2622 3.53669 9.05087 9.30777 7.17056 17.3146C5.45591 17.3151 4.02695 18.6969 3.94518 20.471C3.86341 22.2451 5.1589 23.7589 6.86592 23.9251C8.00113 32.0779 14.1771 36.7701 22.4997 37.1732L26.0974 37.3473C21.0025 37.1006 17.7057 30.8193 18.151 21.159Z" fill="#FFD700"/> <path d="M26.8281 37.2606C26.8281 37.583 26.5733 37.8444 26.2586 37.8444H22.7389C14.4402 37.8444 7.27085 31.8778 5.55306 23.6027C3.75441 23.3246 2.39577 21.7389 2.39577 19.8333C2.39577 17.9278 3.75441 16.3422 5.55306 16.0641C7.27085 7.78901 14.4402 1.82238 22.7389 1.82238H26.5629C26.7095 1.82238 26.8281 1.94424 26.8281 2.09438V37.2606ZM22.7389 2.82197C14.7857 2.82197 7.93048 8.62421 6.4387 16.6184L6.36658 17.005L5.98287 17.0237C4.51824 17.0949 3.37092 18.3291 3.37092 19.8333C3.37092 21.3376 4.51824 22.5717 5.98287 22.643L6.36658 22.6616L6.4387 23.0482C7.93048 31.0425 14.7857 36.8447 22.7389 36.8447H25.853V2.82197H22.7389Z" fill="#231F20"/> <path d="M35.5761 19.8334C35.5761 29.5045 31.4412 37.3446 26.3406 37.3446C21.2398 37.3446 17.1051 29.5045 17.1051 19.8334C17.1051 10.1622 21.2399 2.32212 26.3406 2.32212C31.4412 2.32212 35.5761 10.1622 35.5761 19.8334Z" fill="white"/> <path d="M26.3406 37.8444C23.6862 37.8444 21.2146 35.9298 19.3812 32.4533C17.5989 29.0741 16.6175 24.5922 16.6175 19.8333C16.6175 15.0745 17.5989 10.5926 19.3812 7.21351C21.2146 3.73695 23.6862 1.82238 26.3406 1.82238C28.9949 1.82238 31.4665 3.73695 33.3 7.21351C35.0823 10.5926 36.0637 15.0745 36.0637 19.8333C36.0637 24.5923 35.0823 29.0742 33.3 32.4533C31.4665 35.9298 28.9949 37.8444 26.3406 37.8444ZM26.3406 2.82197C24.0612 2.82197 21.8943 4.55042 20.239 7.68877C18.5325 10.9245 17.5927 15.2375 17.5927 19.8333C17.5927 24.4293 18.5325 28.7423 20.239 31.978C21.8943 35.1165 24.0612 36.8448 26.3406 36.8448C28.62 36.8448 30.7869 35.1165 32.4421 31.978C34.1486 28.7423 35.0884 24.4293 35.0884 19.8333C35.0884 15.2375 34.1486 10.9245 32.4421 7.68877C30.7869 4.55042 28.6201 2.82197 26.3406 2.82197Z" fill="#231F20"/> <path d="M31.6013 21.0208C31.6013 27.904 29.022 33.4839 25.8403 33.4839C22.6586 33.4839 20.0794 27.904 20.0794 21.0208C20.0794 14.1374 22.6586 8.55765 25.8403 8.55765C29.022 8.55765 31.6013 14.1376 31.6013 21.0208Z" fill="#FFD700"/> <path d="M26.8283 6.02205H25.853V33.2006H26.8283V6.02205Z" fill="#231F20"/> <path d="M31.7336 19.1728H20.0308V20.1724H31.7336V19.1728Z" fill="#231F20"/> <path d="M31.6646 26.6332L21.5183 11.7285L20.7185 12.3004L30.8647 27.2052L31.6646 26.6332Z" fill="#231F20"/> <path d="M31.6816 11.3877L30.8446 10.8748L20.9538 27.8294L21.7908 28.3423L31.6816 11.3877Z" fill="#231F20"/> <path d="M26.3406 33.8228C22.5289 33.8228 19.5431 27.6074 19.5431 19.6725C19.5431 11.7378 22.5289 5.5222 26.3406 5.5222C30.1522 5.5222 33.138 11.7378 33.138 19.6725C33.138 27.6074 30.1523 33.8228 26.3406 33.8228ZM26.3406 6.5218C23.1846 6.5218 20.5184 12.5441 20.5184 19.6725C20.5184 26.801 23.1846 32.8234 26.3406 32.8234C29.4965 32.8234 32.1627 26.801 32.1627 19.6725C32.1627 12.5441 29.4965 6.5218 26.3406 6.5218Z" fill="#231F20"/> <path d="M44.8108 6.26957L45.0647 5.72385L43.4952 4.98315C43.2946 4.84497 43.0847 4.72104 42.8649 4.6124C38.2704 2.34224 31.224 7.56404 27.1265 16.2757C23.0289 24.9873 23.4319 33.8901 28.0265 36.1604C28.1649 36.2288 28.3059 36.29 28.4487 36.345L30.3884 37.2603L30.6571 36.6832C35.0152 36.479 40.3902 31.6721 43.7651 24.4969C47.1795 17.2372 47.4683 9.84581 44.8108 6.26957Z" fill="white"/> <path d="M30.285 17.6248C33.93 9.87535 39.9083 4.88762 44.4186 5.4784L43.5391 5.06339C43.3385 4.92521 43.1285 4.80116 42.9088 4.69264C38.3142 2.42237 31.2679 7.64417 27.1703 16.3559C23.0728 25.0676 23.4758 33.9702 28.0703 36.2405C28.2087 36.3089 28.3497 36.3702 28.4925 36.4251L30.4323 37.3404L30.5333 37.1232C26.562 34.3567 26.3905 25.9047 30.285 17.6248Z" fill="#FFD700"/> <path d="M30.6214 37.9204L28.2605 36.8063C28.1079 36.7471 27.9581 36.6814 27.8147 36.6105C25.4235 35.4291 24.0084 32.6043 23.8297 28.6568C23.656 24.8196 24.6708 20.3454 26.6872 16.0587C30.1424 8.7125 35.8313 3.58187 40.5216 3.58187C41.4376 3.58187 42.2972 3.77708 43.0765 4.16231C43.3015 4.27348 43.5225 4.40224 43.7336 4.5456L45.7175 5.48173L45.3758 6.21611C46.6424 8.08067 47.2212 10.7727 47.0515 14.0286C46.874 17.4357 45.8893 21.1305 44.2039 24.7139C42.5388 28.2537 40.3607 31.3183 37.905 33.5762C35.5603 35.732 33.1711 36.9666 30.9738 37.1624L30.6214 37.9204ZM40.5218 4.58146C36.192 4.58146 30.8644 9.47953 27.5657 16.4927C25.6185 20.6327 24.6377 24.9362 24.8039 28.6105C24.9653 32.1742 26.1849 34.6956 28.2382 35.7102C28.3604 35.7705 28.4887 35.8266 28.6197 35.877L28.6525 35.891L30.1553 36.6001L30.3425 36.1977L30.6345 36.184C34.9042 35.9838 40.1231 31.0887 43.3255 24.28C46.5788 17.363 47.0301 10.0814 44.4227 6.57237L44.2423 6.32969L44.4118 5.96595L43.2554 5.42034L43.2229 5.39792C43.0399 5.27193 42.8483 5.15915 42.653 5.0627C42.007 4.74333 41.2899 4.58146 40.5218 4.58146Z" fill="#231F20"/> <path d="M46.8796 25.7658C42.7821 34.4774 35.7357 39.6992 31.1412 37.4291C26.5465 35.1589 26.1436 26.2562 30.2412 17.5446C34.3386 8.83288 41.3851 3.61108 45.9796 5.88123C50.5742 8.1515 50.9772 17.0541 46.8796 25.7658Z" fill="white"/> <path d="M46.8796 26.1676C42.7821 34.8793 35.7357 40.1011 31.1412 37.831C26.5465 35.5607 26.1436 26.6581 30.2412 17.9464C34.3386 9.23467 41.3851 4.01287 45.9796 6.28302C50.5742 8.55329 50.9772 17.4559 46.8796 26.1676Z" fill="#FFD700"/> <path d="M45.4211 24.9223L44.5426 24.4884C45.9785 21.4355 46.7019 18.2645 46.5794 15.5592C46.4619 12.9645 45.5822 11.1327 44.1024 10.4015L44.5257 9.50116C46.3434 10.3992 47.4187 12.5343 47.5534 15.5129C47.6834 18.3809 46.9261 21.7225 45.4211 24.9223Z" fill="#231F20"/> <path d="M33.0925 33.8094C31.2747 32.9113 30.1994 30.7762 30.0646 27.7977C29.9348 24.9295 30.6922 21.5878 32.1972 18.3882L33.0756 18.8223C31.6397 21.875 30.9164 25.0461 31.0389 27.7513C31.1563 30.346 32.036 32.1777 33.5159 32.909L33.0925 33.8094Z" fill="#231F20"/> <path d="M33.3623 38.5847C32.4464 38.5847 31.5868 38.3895 30.8075 38.0042C28.4165 36.8229 27.0012 33.998 26.8226 30.0505C26.6489 26.2133 27.6637 21.7393 29.6801 17.4525C33.1351 10.1064 38.8241 4.97567 43.5145 4.97567C44.4304 4.97567 45.29 5.17088 46.0693 5.55611C48.4603 6.73746 49.8757 9.56219 50.0543 13.5099C50.228 17.3471 49.2133 21.821 47.1968 26.1078C43.7417 33.4539 38.0526 38.5847 33.3623 38.5847ZM43.5145 5.97526C39.1849 5.97526 33.8571 10.8733 30.5585 17.8866C28.6112 22.0266 27.6304 26.33 27.7967 30.0043C27.9581 33.5681 29.1776 36.0895 31.2309 37.104C31.8772 37.4232 32.5942 37.5852 33.3623 37.5852C37.6921 37.5852 43.0197 32.6871 46.3185 25.674C48.2656 21.534 49.2465 17.2306 49.0802 13.5563C48.9189 9.99249 47.6992 7.47115 45.6459 6.45649C44.9998 6.13713 44.2826 5.97526 43.5145 5.97526Z" fill="#231F20"/> <path d="M38.8028 6.68001L35.8186 5.0549L35.3333 5.99114L38.3175 7.61625L38.8028 6.68001Z" fill="#231F20"/> <path d="M37.3104 8.09044L34.3261 6.46528L33.8408 7.40152L36.8251 9.02669L37.3104 8.09044Z" fill="#231F20"/> <path d="M35.8203 9.35695L32.8359 7.73174L32.3507 8.66788L35.3351 10.2931L35.8203 9.35695Z" fill="#231F20"/> <path d="M34.6234 10.6582L31.6391 9.03308L31.1537 9.96932L34.138 11.5945L34.6234 10.6582Z" fill="#231F20"/> <path d="M33.5191 12.2827L30.5347 10.6575L30.0494 11.5937L33.0338 13.2189L33.5191 12.2827Z" fill="#231F20"/> <path d="M17.4035 32.4917H16.4282V33.585H17.4035V32.4917Z" fill="#231F20"/> <path d="M15.0568 31.3984H14.0815V32.4918H15.0568V31.3984Z" fill="#231F20"/> <path d="M16.5196 29.9303H15.5444V31.0236H16.5196V29.9303Z" fill="#231F20"/> <path d="M73.3788 21H70.7143L77.1854 5H78.5958L85 21H82.3351L77.8571 9.54823L73.3788 21Z" fill="white"/> <path d="M95.4459 21V13.3202L89.1964 21H87.8571V9.57143H89.9827V17.2516L96.2326 9.57143H97.5714V21H95.4459Z" fill="white"/> <path d="M111.281 21V13.3202L107.571 17.5487L103.861 13.3202V21H101.571V9.57143H103.014L107.571 14.7827L112.129 9.57143H113.571V21H111.281Z" fill="white"/> <path d="M127.857 15.2971C127.857 18.4602 125.295 21 122.132 21C118.968 21 116.429 18.4606 116.429 15.2971C116.429 12.1335 118.968 9.57143 122.132 9.57143C125.295 9.57143 127.857 12.1339 127.857 15.2971ZM118.656 15.2971C118.656 17.4135 120.282 18.8616 122.132 18.8616C123.981 18.8616 125.629 17.4135 125.629 15.2971C125.629 13.1806 123.981 11.7102 122.132 11.7102C120.283 11.7102 118.656 13.1806 118.656 15.2971Z" fill="white"/> <path d="M139.35 21V16.3142H133.507V21H131.286V9.57143H133.507V14.1203H139.35V9.57143H141.571V21H139.35Z" fill="white"/> <path d="M161.064 21V16.3142H155.221V21H153V9.57143H155.221V14.1203H161.064V9.57143H163.286V21H161.064Z" fill="white"/> <path d="M176.032 20.8666L175.897 18.817C175.059 20.1313 173.521 21 171.733 21C168.519 21 166.143 18.4606 166.143 15.2971C166.143 12.1335 168.519 9.57143 171.733 9.57143C173.52 9.57143 175.059 10.4628 175.897 11.7771L176.032 9.72754H177.571V20.8669H176.032V20.8666ZM175.489 15.2967C175.489 13.1802 173.815 11.7098 171.937 11.7098C170.058 11.7098 168.406 13.1799 168.406 15.2967C168.406 17.4135 170.058 18.8613 171.937 18.8613C173.815 18.8613 175.489 17.4131 175.489 15.2967Z" fill="white"/> <path d="M197.125 21V16.9312C196.455 17.9372 195.288 18.4856 193.84 18.4856C190.318 18.4856 189 16.1318 189 12.7715V9.57143H191.161V12.6346C191.161 15.0575 191.939 16.292 194.165 16.292C196.369 16.292 197.125 14.8515 197.125 12.9317V9.57143H199.286V21H197.125Z" fill="white"/> <path d="M212.109 20.8666L211.981 18.817C211.185 20.1313 209.724 21 208.025 21C204.972 21 202.714 18.4606 202.714 15.2971C202.714 12.1335 204.971 9.57143 208.025 9.57143C209.723 9.57143 211.185 10.4628 211.981 11.7771L212.109 9.72754H213.571V20.8669H212.109V20.8666ZM211.594 15.2967C211.594 13.1802 210.003 11.7098 208.218 11.7098C206.434 11.7098 204.864 13.1799 204.864 15.2967C204.864 17.4135 206.434 18.8613 208.218 18.8613C210.003 18.8613 211.594 17.4131 211.594 15.2967Z" fill="white"/> <path d="M225.607 21V13.2313L218.989 21H217.571V9.43949H219.822V17.2082L226.44 9.43949H227.857V21H225.607ZM219.35 5H220.925C220.925 5.92508 221.713 6.64185 222.726 6.64185C223.738 6.64185 224.526 5.92508 224.526 5H226.102C226.102 6.89608 224.593 8.26018 222.726 8.26018C220.858 8.26018 219.35 6.89608 219.35 5Z" fill="white"/> <path d="M72.0739 39H73.2471V32.4574H76.9062V39H78.0795V31.3636H72.0739V39Z" fill="#989898" fill-opacity="0.75"/> <path d="M82.4694 39.179C83.8018 39.179 84.4979 38.4631 84.7365 37.9659H84.7962V39H85.9694V33.9688C85.9694 31.5426 84.12 31.2642 83.1456 31.2642C81.9922 31.2642 80.6797 31.6619 80.0831 33.054L81.1967 33.4517C81.4552 32.8949 82.0668 32.2983 83.1854 32.2983C84.2642 32.2983 84.7962 32.87 84.7962 33.8494V33.8892C84.7962 34.456 84.2194 34.4063 82.8274 34.5852C81.4105 34.7692 79.8643 35.0824 79.8643 36.8324C79.8643 38.3239 81.0177 39.179 82.4694 39.179ZM82.6484 38.125C81.7138 38.125 81.0376 37.7074 81.0376 36.892C81.0376 35.9972 81.853 35.7188 82.7677 35.5994C83.2649 35.5398 84.5973 35.4006 84.7962 35.1619V36.2358C84.7962 37.1903 84.0405 38.125 82.6484 38.125Z" fill="#989898" fill-opacity="0.75"/> <path d="M88.111 41.8636H89.2843V37.8267H89.3837C89.6422 38.2443 90.1394 39.1591 91.611 39.1591C93.5201 39.1591 94.8524 37.6278 94.8524 35.2017C94.8524 32.7955 93.5201 31.2642 91.5911 31.2642C90.0996 31.2642 89.6422 32.179 89.3837 32.5767H89.2445V31.3636H88.111V41.8636ZM89.2644 35.1818C89.2644 33.4716 90.0201 32.3182 91.4519 32.3182C92.9433 32.3182 93.6791 33.571 93.6791 35.1818C93.6791 36.8125 92.9235 38.1051 91.4519 38.1051C90.0399 38.1051 89.2644 36.9119 89.2644 35.1818Z" fill="#989898" fill-opacity="0.75"/> <path d="M95.6442 32.4574H98.1697V39H99.343V32.4574H101.849V31.3636H95.6442V32.4574Z" fill="#989898" fill-opacity="0.75"/> <path d="M104.733 31.3636H103.56V39H104.733V35.7386H108.393V39H109.566V31.3636H108.393V34.6449H104.733V31.3636Z" fill="#989898" fill-opacity="0.75"/> <path d="M114.91 39.1591C116.461 39.1591 117.595 38.3835 117.953 37.2301L116.819 36.9119C116.521 37.7074 115.83 38.1051 114.91 38.1051C113.533 38.1051 112.584 37.2152 112.529 35.5795H118.072V35.0824C118.072 32.2386 116.382 31.2642 114.791 31.2642C112.723 31.2642 111.351 32.8949 111.351 35.2415C111.351 37.5881 112.703 39.1591 114.91 39.1591ZM112.529 34.5653C112.608 33.3771 113.449 32.3182 114.791 32.3182C116.064 32.3182 116.879 33.2727 116.879 34.5653H112.529Z" fill="#989898" fill-opacity="0.75"/> <path d="M119.857 41.8636H121.03V37.8267H121.13C121.388 38.2443 121.885 39.1591 123.357 39.1591C125.266 39.1591 126.599 37.6278 126.599 35.2017C126.599 32.7955 125.266 31.2642 123.337 31.2642C121.846 31.2642 121.388 32.179 121.13 32.5767H120.991V31.3636H119.857V41.8636ZM121.01 35.1818C121.01 33.4716 121.766 32.3182 123.198 32.3182C124.689 32.3182 125.425 33.571 125.425 35.1818C125.425 36.8125 124.67 38.1051 123.198 38.1051C121.786 38.1051 121.01 36.9119 121.01 35.1818Z" fill="#989898" fill-opacity="0.75"/> <path d="M131.491 39.1591C133.181 39.1591 134.295 38.125 134.493 36.7727H133.32C133.101 37.608 132.405 38.1051 131.491 38.1051C130.099 38.1051 129.204 36.9517 129.204 35.1818C129.204 33.4517 130.118 32.3182 131.491 32.3182C132.525 32.3182 133.141 32.9545 133.32 33.6506H134.493C134.295 32.2188 133.081 31.2642 131.471 31.2642C129.403 31.2642 128.03 32.8949 128.03 35.2216C128.03 37.5085 129.343 39.1591 131.491 39.1591Z" fill="#989898" fill-opacity="0.75"/> <path d="M136.209 39H137.382V35.7784H138.436L140.942 39H142.453L139.331 35.0426L142.413 31.3636H140.902L138.157 34.6847H137.382V31.3636H136.209V39Z" fill="#989898" fill-opacity="0.75"/> <path d="M145.975 39.179C147.308 39.179 148.004 38.4631 148.242 37.9659H148.302V39H149.475V33.9688C149.475 31.5426 147.626 31.2642 146.651 31.2642C145.498 31.2642 144.186 31.6619 143.589 33.054L144.703 33.4517C144.961 32.8949 145.573 32.2983 146.691 32.2983C147.77 32.2983 148.302 32.87 148.302 33.8494V33.8892C148.302 34.456 147.725 34.4063 146.333 34.5852C144.916 34.7692 143.37 35.0824 143.37 36.8324C143.37 38.3239 144.524 39.179 145.975 39.179ZM146.154 38.125C145.22 38.125 144.543 37.7074 144.543 36.892C144.543 35.9972 145.359 35.7188 146.274 35.5994C146.771 35.5398 148.103 35.4006 148.302 35.1619V36.2358C148.302 37.1903 147.546 38.125 146.154 38.125Z" fill="#989898" fill-opacity="0.75"/> <path d="M156.211 39H157.324V31.3636H154.182C152.537 31.3636 151.537 32.2237 151.537 33.6307C151.537 34.6797 152.064 35.4254 152.984 35.7386L151.12 39H152.392L154.162 35.8977H156.211V39ZM156.211 34.804H154.043C153.213 34.804 152.711 34.3615 152.711 33.6307C152.711 32.8899 153.267 32.4375 154.182 32.4375H156.211V34.804Z" fill="#989898" fill-opacity="0.75"/> <path d="M163.416 39H164.589V32.4574H168.248V39H169.421V31.3636H163.416V39Z" fill="#989898" fill-opacity="0.75"/> <path d="M171.564 41.8636H172.737V37.8267H172.837C173.095 38.2443 173.592 39.1591 175.064 39.1591C176.973 39.1591 178.306 37.6278 178.306 35.2017C178.306 32.7955 176.973 31.2642 175.044 31.2642C173.553 31.2642 173.095 32.179 172.837 32.5767H172.698V31.3636H171.564V41.8636ZM172.717 35.1818C172.717 33.4716 173.473 32.3182 174.905 32.3182C176.396 32.3182 177.132 33.571 177.132 35.1818C177.132 36.8125 176.377 38.1051 174.905 38.1051C173.493 38.1051 172.717 36.9119 172.717 35.1818Z" fill="#989898" fill-opacity="0.75"/> <path d="M183.198 39.1591C185.266 39.1591 186.658 37.5881 186.658 35.2216C186.658 32.8352 185.266 31.2642 183.198 31.2642C181.129 31.2642 179.737 32.8352 179.737 35.2216C179.737 37.5881 181.129 39.1591 183.198 39.1591ZM183.198 38.1051C181.627 38.1051 180.911 36.7528 180.911 35.2216C180.911 33.6903 181.627 32.3182 183.198 32.3182C184.769 32.3182 185.485 33.6903 185.485 35.2216C185.485 36.7528 184.769 38.1051 183.198 38.1051Z" fill="#989898" fill-opacity="0.75"/> <path d="M193.162 31.3636H188.449V39H189.622V32.4574H193.162V31.3636Z" fill="#989898" fill-opacity="0.75"/> <path d="M194.875 41.8636H196.048V37.8267H196.147C196.406 38.2443 196.903 39.1591 198.375 39.1591C200.284 39.1591 201.616 37.6278 201.616 35.2017C201.616 32.7955 200.284 31.2642 198.355 31.2642C196.863 31.2642 196.406 32.179 196.147 32.5767H196.008V31.3636H194.875V41.8636ZM196.028 35.1818C196.028 33.4716 196.784 32.3182 198.216 32.3182C199.707 32.3182 200.443 33.571 200.443 35.1818C200.443 36.8125 199.687 38.1051 198.216 38.1051C196.804 38.1051 196.028 36.9119 196.028 35.1818Z" fill="#989898" fill-opacity="0.75"/> <path d="M205.653 39.179C206.985 39.179 207.681 38.4631 207.92 37.9659H207.98V39H209.153V33.9688C209.153 31.5426 207.304 31.2642 206.329 31.2642C205.176 31.2642 203.863 31.6619 203.267 33.054L204.38 33.4517C204.639 32.8949 205.25 32.2983 206.369 32.2983C207.448 32.2983 207.98 32.87 207.98 33.8494V33.8892C207.98 34.456 207.403 34.4063 206.011 34.5852C204.594 34.7692 203.048 35.0824 203.048 36.8324C203.048 38.3239 204.201 39.179 205.653 39.179ZM205.832 38.125C204.897 38.125 204.221 37.7074 204.221 36.892C204.221 35.9972 205.037 35.7188 205.951 35.5994C206.448 35.5398 207.781 35.4006 207.98 35.1619V36.2358C207.98 37.1903 207.224 38.125 205.832 38.125Z" fill="#989898" fill-opacity="0.75"/> <path d="M215.471 37.4091L212.846 31.3636H211.295V39H212.468V33.049L214.993 39H215.948L218.474 33.1584V39H219.647V31.3636H218.135L215.471 37.4091Z" fill="#989898" fill-opacity="0.75"/> <path d="M225.971 37.4091L223.346 31.3636H221.795V39H222.968V33.049L225.493 39H226.448L228.974 33.1584V39H230.147V31.3636H228.635L225.971 37.4091Z" fill="#989898" fill-opacity="0.75"/> <path d="M234.542 39.179C235.874 39.179 236.57 38.4631 236.809 37.9659H236.868V39H238.042V33.9688C238.042 31.5426 236.192 31.2642 235.218 31.2642C234.064 31.2642 232.752 31.6619 232.155 33.054L233.269 33.4517C233.528 32.8949 234.139 32.2983 235.258 32.2983C236.336 32.2983 236.868 32.87 236.868 33.8494V33.8892C236.868 34.456 236.292 34.4063 234.9 34.5852C233.483 34.7692 231.937 35.0824 231.937 36.8324C231.937 38.3239 233.09 39.179 234.542 39.179ZM234.721 38.125C233.786 38.125 233.11 37.7074 233.11 36.892C233.11 35.9972 233.925 35.7188 234.84 35.5994C235.337 35.5398 236.67 35.4006 236.868 35.1619V36.2358C236.868 37.1903 236.113 38.125 234.721 38.125Z" fill="#989898" fill-opacity="0.75"/> </svg>