<?xml version="1.0" encoding="UTF-8"?>
<svg xmlns="http://www.w3.org/2000/svg" width="52" height="43" viewBox="0 0 52 43" fill="none"> <path d="M51.7099 13.2037C51.5036 8.64536 49.7774 5.33826 46.8499 3.89203C46.4965 3.71706 46.1204 3.57037 45.7306 3.45518L44.5904 2.91716C44.3536 2.76242 44.1074 2.62171 43.8565 2.49743C42.8654 2.00781 41.7791 1.75972 40.628 1.75972C38.408 1.75972 36.0335 2.67907 33.6848 4.43569C31.8174 1.74834 29.4702 0.201643 26.9399 0.0229924C26.8638 0.0101166 26.7717 0 26.669 0H22.845C14.1957 0 6.57532 6.05746 4.36682 14.5388C2.33598 15.3091 0.95076 17.2905 0.95076 19.6011C0.95076 21.9115 2.33598 23.893 4.36682 24.6633C6.57532 33.1443 14.1958 39.2019 22.8451 39.2019H26.3648L26.4067 39.2013C26.4201 39.2017 26.4333 39.2019 26.4468 39.2019C27.3498 39.2019 28.2435 39.0254 29.1125 38.6763L30.3148 39.2404C30.3872 39.2754 30.4603 39.3087 30.5338 39.3411L31.4802 39.7752L31.5202 39.6885C32.1434 39.8569 32.7946 39.9421 33.4683 39.9421C38.8162 39.9421 44.9373 34.5666 48.7002 26.5659C50.8265 22.0456 51.8953 17.3002 51.7099 13.2037Z" fill="white"/> <path d="M6.24599 16.6924L6.17387 17.079L5.79016 17.0977C4.32553 17.169 3.17821 18.4031 3.17821 19.9074C3.17821 21.4117 4.32553 22.6458 5.79016 22.7169L6.17387 22.7356L6.24599 23.1223C7.73777 31.1165 14.593 36.9188 22.5462 36.9188H25.6603V2.89589H22.5462C14.593 2.89589 7.73777 8.69825 6.24599 16.6924Z" fill="white"/> <path d="M18.151 21.159C18.5963 11.4986 23.0876 3.86721 28.1826 4.11391L24.5849 3.93963C16.2622 3.53669 9.05087 9.30778 7.17056 17.3146C5.45591 17.3151 4.02695 18.6969 3.94518 20.471C3.86341 22.2451 5.1589 23.7589 6.86592 23.9251C8.00113 32.0779 14.1771 36.7701 22.4997 37.1732L26.0974 37.3473C21.0025 37.1006 17.7057 30.8193 18.151 21.159Z" fill="#FFD700"/> <path d="M26.8281 37.2606C26.8281 37.583 26.5733 37.8444 26.2586 37.8444H22.7389C14.4402 37.8444 7.27085 31.8778 5.55306 23.6027C3.75441 23.3246 2.39577 21.7389 2.39577 19.8333C2.39577 17.9278 3.75441 16.3422 5.55306 16.0641C7.27085 7.78901 14.4402 1.82237 22.7389 1.82237H26.5629C26.7095 1.82237 26.8281 1.94423 26.8281 2.09437V37.2606ZM22.7389 2.82197C14.7857 2.82197 7.93048 8.62421 6.4387 16.6184L6.36658 17.005L5.98287 17.0237C4.51824 17.0949 3.37092 18.3291 3.37092 19.8333C3.37092 21.3376 4.51824 22.5717 5.98287 22.643L6.36658 22.6616L6.4387 23.0482C7.93048 31.0425 14.7857 36.8447 22.7389 36.8447H25.853V2.82197H22.7389Z" fill="#231F20"/> <path d="M35.5761 19.8333C35.5761 29.5045 31.4412 37.3446 26.3406 37.3446C21.2398 37.3446 17.1051 29.5045 17.1051 19.8333C17.1051 10.1622 21.2399 2.32211 26.3406 2.32211C31.4412 2.32211 35.5761 10.1622 35.5761 19.8333Z" fill="white"/> <path d="M26.3406 37.8444C23.6862 37.8444 21.2146 35.9298 19.3812 32.4533C17.5989 29.0741 16.6175 24.5922 16.6175 19.8333C16.6175 15.0745 17.5989 10.5926 19.3812 7.21351C21.2146 3.73695 23.6862 1.82237 26.3406 1.82237C28.9949 1.82237 31.4665 3.73695 33.3 7.21351C35.0823 10.5926 36.0637 15.0745 36.0637 19.8333C36.0637 24.5923 35.0823 29.0742 33.3 32.4533C31.4665 35.9298 28.9949 37.8444 26.3406 37.8444ZM26.3406 2.82197C24.0612 2.82197 21.8943 4.55042 20.239 7.68876C18.5325 10.9245 17.5927 15.2375 17.5927 19.8333C17.5927 24.4293 18.5325 28.7423 20.239 31.978C21.8943 35.1165 24.0612 36.8448 26.3406 36.8448C28.62 36.8448 30.7869 35.1165 32.4421 31.978C34.1486 28.7423 35.0884 24.4293 35.0884 19.8333C35.0884 15.2375 34.1486 10.9245 32.4421 7.68876C30.7869 4.55042 28.6201 2.82197 26.3406 2.82197Z" fill="#231F20"/> <path d="M31.6013 21.0208C31.6013 27.904 29.022 33.4839 25.8403 33.4839C22.6586 33.4839 20.0794 27.904 20.0794 21.0208C20.0794 14.1374 22.6586 8.55765 25.8403 8.55765C29.022 8.55765 31.6013 14.1376 31.6013 21.0208Z" fill="#FFD700"/> <path d="M26.8283 6.02205H25.853V33.2006H26.8283V6.02205Z" fill="#231F20"/> <path d="M31.7336 19.1728H20.0308V20.1724H31.7336V19.1728Z" fill="#231F20"/> <path d="M31.6646 26.6332L21.5183 11.7285L20.7185 12.3004L30.8647 27.2052L31.6646 26.6332Z" fill="#231F20"/> <path d="M31.6816 11.3877L30.8446 10.8748L20.9538 27.8294L21.7908 28.3423L31.6816 11.3877Z" fill="#231F20"/> <path d="M26.3406 33.8228C22.5289 33.8228 19.5431 27.6074 19.5431 19.6725C19.5431 11.7378 22.5289 5.5222 26.3406 5.5222C30.1522 5.5222 33.138 11.7378 33.138 19.6725C33.138 27.6074 30.1523 33.8228 26.3406 33.8228ZM26.3406 6.5218C23.1846 6.5218 20.5184 12.5441 20.5184 19.6725C20.5184 26.801 23.1846 32.8234 26.3406 32.8234C29.4965 32.8234 32.1627 26.801 32.1627 19.6725C32.1627 12.5441 29.4965 6.5218 26.3406 6.5218Z" fill="#231F20"/> <path d="M44.8108 6.26956L45.0647 5.72384L43.4952 4.98314C43.2946 4.84495 43.0847 4.72102 42.8649 4.61239C38.2704 2.34223 31.224 7.56403 27.1265 16.2757C23.0289 24.9873 23.4319 33.8901 28.0265 36.1603C28.1649 36.2288 28.3059 36.29 28.4487 36.345L30.3884 37.2603L30.6571 36.6832C35.0152 36.479 40.3902 31.6721 43.7651 24.4969C47.1795 17.2372 47.4683 9.8458 44.8108 6.26956Z" fill="white"/> <path d="M30.285 17.6248C33.93 9.87535 39.9083 4.88761 44.4186 5.4784L43.5391 5.06338C43.3385 4.9252 43.1285 4.80116 42.9088 4.69263C38.3142 2.42236 31.2679 7.64416 27.1703 16.3559C23.0728 25.0676 23.4758 33.9702 28.0703 36.2405C28.2087 36.3089 28.3497 36.3702 28.4925 36.4251L30.4323 37.3404L30.5333 37.1232C26.562 34.3567 26.3905 25.9047 30.285 17.6248Z" fill="#FFD700"/> <path d="M30.6214 37.9204L28.2605 36.8063C28.1079 36.7471 27.9581 36.6813 27.8147 36.6105C25.4235 35.4291 24.0084 32.6043 23.8297 28.6568C23.656 24.8196 24.6708 20.3454 26.6872 16.0587C30.1424 8.7125 35.8313 3.58186 40.5216 3.58186C41.4376 3.58186 42.2972 3.77707 43.0765 4.16231C43.3015 4.27347 43.5225 4.40223 43.7336 4.54559L45.7175 5.48172L45.3758 6.2161C46.6424 8.08067 47.2212 10.7727 47.0515 14.0286C46.874 17.4357 45.8893 21.1305 44.2039 24.7139C42.5388 28.2537 40.3607 31.3183 37.905 33.5762C35.5603 35.732 33.1711 36.9666 30.9738 37.1623L30.6214 37.9204ZM40.5218 4.58146C36.192 4.58146 30.8644 9.47952 27.5657 16.4927C25.6185 20.6327 24.6377 24.9362 24.8039 28.6104C24.9653 32.1742 26.1849 34.6956 28.2382 35.7101C28.3604 35.7705 28.4887 35.8266 28.6197 35.877L28.6525 35.891L30.1553 36.6001L30.3425 36.1977L30.6345 36.184C34.9042 35.9838 40.1231 31.0887 43.3255 24.2799C46.5788 17.363 47.0301 10.0813 44.4227 6.57237L44.2423 6.32968L44.4118 5.96594L43.2554 5.42033L43.2229 5.39792C43.0399 5.27192 42.8483 5.15914 42.653 5.06269C42.007 4.74332 41.2899 4.58146 40.5218 4.58146Z" fill="#231F20"/> <path d="M46.8796 25.7658C42.7821 34.4774 35.7357 39.6992 31.1412 37.4291C26.5465 35.1589 26.1436 26.2562 30.2412 17.5446C34.3386 8.83288 41.3851 3.61108 45.9796 5.88123C50.5742 8.1515 50.9772 17.0541 46.8796 25.7658Z" fill="white"/> <path d="M46.8796 26.1676C42.7821 34.8793 35.7357 40.1011 31.1412 37.831C26.5465 35.5607 26.1436 26.6581 30.2412 17.9464C34.3386 9.23466 41.3851 4.01286 45.9796 6.28301C50.5742 8.55328 50.9772 17.4559 46.8796 26.1676Z" fill="#FFD700"/> <path d="M45.4211 24.9223L44.5426 24.4884C45.9785 21.4355 46.7019 18.2645 46.5794 15.5592C46.4619 12.9645 45.5822 11.1327 44.1024 10.4015L44.5257 9.50116C46.3434 10.3992 47.4187 12.5343 47.5534 15.5129C47.6834 18.3809 46.9261 21.7225 45.4211 24.9223Z" fill="#231F20"/> <path d="M33.0925 33.8094C31.2747 32.9113 30.1994 30.7762 30.0646 27.7977C29.9348 24.9295 30.6922 21.5878 32.1972 18.3882L33.0756 18.8222C31.6397 21.8749 30.9164 25.0461 31.0389 27.7513C31.1563 30.346 32.036 32.1777 33.5159 32.909L33.0925 33.8094Z" fill="#231F20"/> <path d="M33.3623 38.5847C32.4464 38.5847 31.5868 38.3894 30.8075 38.0042C28.4165 36.8229 27.0012 33.998 26.8226 30.0505C26.6489 26.2133 27.6637 21.7393 29.6801 17.4525C33.1351 10.1064 38.8241 4.97566 43.5145 4.97566C44.4304 4.97566 45.29 5.17087 46.0693 5.55611C48.4603 6.73745 49.8757 9.56218 50.0543 13.5099C50.228 17.3471 49.2133 21.821 47.1968 26.1078C43.7417 33.4539 38.0526 38.5847 33.3623 38.5847ZM43.5145 5.97526C39.1849 5.97526 33.8571 10.8733 30.5585 17.8866C28.6112 22.0266 27.6304 26.3299 27.7967 30.0042C27.9581 33.5681 29.1776 36.0895 31.2309 37.1039C31.8772 37.4232 32.5942 37.5852 33.3623 37.5852C37.6921 37.5852 43.0197 32.6871 46.3185 25.674C48.2656 21.534 49.2465 17.2306 49.0802 13.5563C48.9189 9.99248 47.6992 7.47114 45.6459 6.45649C44.9998 6.13712 44.2826 5.97526 43.5145 5.97526Z" fill="#231F20"/> <path d="M38.8028 6.67999L35.8186 5.05489L35.3333 5.99113L38.3175 7.61624L38.8028 6.67999Z" fill="#231F20"/> <path d="M37.3104 8.09043L34.3261 6.46527L33.8408 7.40152L36.8251 9.02668L37.3104 8.09043Z" fill="#231F20"/> <path d="M35.8203 9.35695L32.8359 7.73174L32.3507 8.66788L35.3351 10.2931L35.8203 9.35695Z" fill="#231F20"/> <path d="M34.6234 10.6582L31.6391 9.03307L31.1537 9.96931L34.138 11.5945L34.6234 10.6582Z" fill="#231F20"/> <path d="M33.5191 12.2827L30.5347 10.6575L30.0494 11.5937L33.0338 13.2189L33.5191 12.2827Z" fill="#231F20"/> <path d="M17.4035 32.4917H16.4282V33.585H17.4035V32.4917Z" fill="#231F20"/> <path d="M15.0568 31.3984H14.0815V32.4918H15.0568V31.3984Z" fill="#231F20"/> <path d="M16.5196 29.9303H15.5444V31.0236H16.5196V29.9303Z" fill="#231F20"/> </svg>