<?xml version="1.0" encoding="UTF-8"?>
<svg xmlns="http://www.w3.org/2000/svg" width="24" height="24" viewBox="0 0 24 24" fill="none"> <path d="M22.3333 3.3281L18.9594 20.5556C18.9594 20.5556 18.4867 21.7506 17.1899 21.1777L12.3526 17.4222L12.3884 17.4505L9.30898 20.2949C9.30898 20.2949 9.0679 20.4792 8.80425 20.3642L9.42659 14.9887C9.42659 14.9887 18.0628 7.12687 18.4167 6.7923C18.7706 6.45773 18.6518 6.38612 18.6518 6.38612C18.6756 5.97994 18.0153 6.38612 18.0153 6.38612L6.57161 13.7467L1.80697 12.122C1.80697 12.122 1.07541 11.8591 1.00415 11.285C0.931711 10.7121 1.83072 10.401 1.83072 10.401L20.7752 2.87378C20.7752 2.87378 22.3333 2.18116 22.3333 3.3281Z" fill="white"/> </svg>