<svg width="21" height="66" viewBox="0 0 21 66" fill="none" xmlns="http://www.w3.org/2000/svg">
<path d="M10.5 47.0938C9.95625 47.0938 9.48047 46.7539 9.27656 46.2781C8.86875 45.5305 0.304688 26.5672 0.304688 11.0703C0.304688 5.42891 4.85859 0.875 10.5 0.875C16.1414 0.875 20.6953 5.42891 20.6953 11.0703C20.6953 26.5672 12.1313 45.5305 11.7234 46.2781C11.5195 46.7539 11.0437 47.0938 10.5 47.0938ZM10.5 3.59375C6.35391 3.59375 3.02344 6.92422 3.02344 11.0703C3.02344 22.557 8.12109 36.3547 10.5 42.268C12.8789 36.3547 17.9766 22.4891 17.9766 11.0703C17.9766 6.92422 14.6461 3.59375 10.5 3.59375Z" fill="black"/>
<path d="M10.5 65.1055C6.35391 65.1055 3.02344 61.775 3.02344 57.6289C3.02344 53.4828 6.35391 50.1523 10.5 50.1523C14.6461 50.1523 17.9766 53.4828 17.9766 57.6289C17.9766 61.775 14.6461 65.1055 10.5 65.1055ZM10.5 52.8711C7.84922 52.8711 5.74219 54.9781 5.74219 57.6289C5.74219 60.2797 7.84922 62.3867 10.5 62.3867C13.1508 62.3867 15.2578 60.2797 15.2578 57.6289C15.2578 54.9781 13.1508 52.8711 10.5 52.8711Z" fill="black"/>
</svg>
