<svg width="36" height="52" viewBox="0 0 36 52" fill="none" xmlns="http://www.w3.org/2000/svg">
<path d="M18.7646 51.6826L35.0146 35.4326C35.4378 35.0094 35.4378 34.3239 35.0146 33.9007C34.5914 33.4775 33.9059 33.4775 33.4828 33.9007L19.082 48.3015V1.08337C19.082 0.484555 18.5975 0 17.9986 0C17.3998 0 16.9153 0.484555 16.9153 1.08337V48.3015L2.51463 33.9007C2.09141 33.4775 1.40587 33.4775 0.982758 33.9007C0.771206 34.1123 0.665375 34.3896 0.665375 34.6667C0.665375 34.9439 0.771206 35.2211 0.982758 35.4327L17.2328 51.6827C17.6559 52.1058 18.3414 52.1058 18.7646 51.6826Z" fill="#F9E5C5"/>
</svg>
