<svg 
 xmlns="http://www.w3.org/2000/svg"
 xmlns:xlink="http://www.w3.org/1999/xlink"
 width="41px" height="41px">
<defs>
<linearGradient id="PSgrad_0" x1="0%" x2="0%" y1="100%" y2="0%">
  <stop offset="0%" stop-color="rgb(0,201,255)" stop-opacity="1" />
  <stop offset="100%" stop-color="rgb(146,254,157)" stop-opacity="1" />
</linearGradient>

</defs>
<path fill-rule="evenodd"  fill="url(#PSgrad_0)"
 d="M38.559,19.797 C37.753,19.797 37.101,19.147 37.101,18.344 C37.101,14.221 35.489,10.344 32.561,7.428 C29.636,4.513 25.744,2.907 21.605,2.907 C20.800,2.907 20.146,2.256 20.146,1.454 C20.146,0.651 20.800,0.001 21.605,0.001 C26.523,0.001 31.147,1.908 34.625,5.373 C38.103,8.837 40.018,13.444 40.018,18.344 C40.018,19.147 39.365,19.797 38.559,19.797 ZM28.623,18.344 C28.623,14.489 25.475,11.354 21.605,11.353 C20.800,11.353 20.146,10.702 20.146,9.899 C20.146,9.097 20.800,8.446 21.605,8.446 C27.084,8.447 31.541,12.886 31.541,18.344 C31.541,19.147 30.889,19.797 30.083,19.797 C29.277,19.797 28.623,19.147 28.623,18.344 ZM12.980,19.597 C12.314,20.050 11.407,19.879 10.952,19.217 C10.498,18.554 10.668,17.650 11.334,17.196 C12.272,16.559 12.421,16.269 12.400,15.861 C12.253,14.617 8.608,9.664 7.464,9.165 C7.132,9.042 6.804,9.046 6.403,9.180 C4.855,9.700 3.765,10.561 3.255,11.671 C2.770,12.724 2.814,14.016 3.381,15.407 C5.501,20.589 8.458,25.115 12.172,28.864 C12.173,28.865 12.175,28.867 12.176,28.868 C15.942,32.575 20.493,35.527 25.701,37.641 C27.097,38.208 28.394,38.251 29.451,37.768 C30.565,37.259 31.429,36.175 31.951,34.630 C32.085,34.232 32.090,33.904 31.965,33.569 C31.467,32.436 26.494,28.805 25.231,28.656 C24.836,28.638 24.545,28.786 23.904,29.720 C23.449,30.382 22.541,30.553 21.876,30.099 C21.211,29.646 21.041,28.741 21.496,28.078 C22.039,27.288 23.172,25.639 25.395,25.754 C27.730,25.881 33.903,30.398 34.701,32.562 C35.058,33.517 35.064,34.527 34.716,35.557 C33.931,37.882 32.531,39.559 30.667,40.410 C29.790,40.811 28.845,41.011 27.858,41.011 C26.810,41.011 25.714,40.786 24.601,40.334 C19.043,38.077 14.179,34.921 10.142,30.952 C10.132,30.943 10.122,30.933 10.112,30.924 C6.121,26.900 2.948,22.048 0.679,16.503 C-0.200,14.350 -0.226,12.260 0.602,10.459 C1.456,8.603 3.141,7.208 5.472,6.426 C6.509,6.079 7.523,6.085 8.487,6.443 C10.653,7.237 15.187,13.385 15.313,15.708 C15.428,17.930 13.774,19.057 12.980,19.597 Z"/>
</svg>