<svg version="1.1"
     xmlns="http://www.w3.org/2000/svg"
     display="none">

    <symbol id="arrow-bottom" viewBox="0 0 8 6">
        <path d="M8 0L3.97 6L0 0H8Z" fill="currentColor"/>
    </symbol>

    <symbol id="arrow-left-pointer" viewBox="0 0 13 21">
        <path d="M12.3 3.24998L5.04997 10.5L12.3 17.75L10.85 20.65L0.699974 10.5L10.85 0.349976L12.3 3.24998Z"
              fill="currentColor"/>
    </symbol>

    <symbol id="arrow-top-pointer" viewBox="0 0 14 8">
        <path d="M12 8.00027L7 3.00027L2 8.00027L5.86359e-08 7.00027L7 0.000274046L14 7.00027L12 8.00027Z"
              fill="currentColor"/>
    </symbol>

    <symbol id="arrow-right-pointer" viewBox="0 0 13 21">
        <path
                d="M0.700021 17.75L7.95002 10.5L0.700019 3.25002L2.15002 0.350024L12.3 10.5L2.15002 20.65L0.700021 17.75Z" fill="currentColor"/>
    </symbol>

    <symbol id="cart" viewBox="0 0 34 35">
        <path
                d="M28.2433 23.4407C28.6936 23.4407 29.0938 23.1404 29.239 22.6939L33.9437 8.23872C34.0496 7.91312 34.0047 7.55445 33.8216 7.26891C33.6389 6.98337 33.3394 6.8033 33.0118 6.78235L12.1201 5.44543C11.5404 5.40794 11.0414 5.87098 11.006 6.47881C10.9705 7.08663 11.4121 7.6092 11.9921 7.64632L31.5066 8.89505L27.4904 21.2354H11.2648C11.2571 21.2354 11.2493 21.2354 11.242 21.2354H10.2235L7.19101 3.75901C7.12648 3.38785 6.88555 3.07695 6.55203 2.93474L1.44861 0.762136C0.910282 0.533189 0.296552 0.804764 0.0777141 1.36886C-0.141124 1.93296 0.118045 2.57606 0.656373 2.80538L5.22392 4.74977L8.3101 22.5359C8.40094 23.0599 8.83686 23.441 9.34538 23.441H9.84408L8.77654 27.1597C8.68115 27.4922 8.74077 27.8527 8.93786 28.132C9.13496 28.4113 9.44603 28.5774 9.77744 28.5796L10.4178 28.584C9.82794 29.2389 9.46567 30.1216 9.46567 31.0911C9.46567 33.1064 11.0305 34.7461 12.9538 34.7461C14.877 34.7461 16.4418 33.1064 16.4418 31.0911C16.4418 30.1382 16.0918 29.2694 15.5198 28.6179L22.4283 28.6638C21.8798 29.3098 21.546 30.1602 21.546 31.0907C21.546 33.106 23.1108 34.7458 25.0341 34.7458C26.9573 34.7458 28.5221 33.106 28.5221 31.0907C28.5221 30.1768 28.2002 29.34 27.6692 28.6987L28.5954 28.705C28.5979 28.705 28.6 28.705 28.6021 28.705C29.1801 28.705 29.6504 28.2158 29.6542 27.6095C29.6581 27.0005 29.1899 26.5041 28.6088 26.5L11.1964 26.3839L12.0412 23.4407H28.2433ZM12.9538 32.9087C11.9974 32.9087 11.2192 32.0932 11.2192 31.0911C11.2192 30.0889 11.9974 29.2735 12.9538 29.2735C13.9101 29.2735 14.6883 30.0889 14.6883 31.0911C14.6883 32.0932 13.9101 32.9087 12.9538 32.9087ZM25.0341 32.9087C24.0777 32.9087 23.2995 32.0932 23.2995 31.0911C23.2995 30.0889 24.0777 29.2735 25.0341 29.2735C25.9904 29.2735 26.7686 30.0889 26.7686 31.0911C26.7686 32.0932 25.9904 32.9087 25.0341 32.9087Z" fill="currentColor"/>
    </symbol>

    <symbol id="close" viewBox="0 0 13 13">
        <path
                d="M12.1924 2.429L8.12137 6.5L12.1924 10.571L10.5709 12.1925L6.49987 8.133L2.44037 12.1925L0.807373 10.5595L4.86687 6.5L0.807373 2.44049L2.44037 0.807495L6.49987 4.867L10.5709 0.807495L12.1924 2.429Z" fill="currentColor"/>
    </symbol>

    <symbol id="filter" viewBox="-5 0 394 394.00003">
        <path
                d="m367.820312 0h-351.261718c-6.199219-.0117188-11.878906 3.449219-14.710938 8.960938-2.871094 5.585937-2.367187 12.3125 1.300782 17.414062l128.6875 181.285156c.042968.0625.089843.121094.132812.183594 4.675781 6.3125 7.207031 13.960938 7.21875 21.816406v147.800782c-.027344 4.375 1.691406 8.582031 4.773438 11.6875 3.085937 3.101562 7.28125 4.851562 11.65625 4.851562 2.222656-.003906 4.425781-.445312 6.480468-1.300781l72.3125-27.570313c6.476563-1.980468 10.777344-8.09375 10.777344-15.453125v-120.015625c.011719-7.855468 2.542969-15.503906 7.214844-21.816406.042968-.0625.089844-.121094.132812-.183594l128.691406-181.289062c3.667969-5.097656 4.171876-11.820313 1.300782-17.40625-2.828125-5.515625-8.511719-8.9765628-14.707032-8.964844zm0 0" fill="currentColor"/>
    </symbol>

    <symbol id="geo" viewBox="0 0 12 15">
        <path
                d="M6.00004 0.800049C4.56787 0.800049 3.19436 1.36898 2.18166 2.38167C1.16896 3.39437 0.600037 4.76788 0.600037 6.20005C0.642557 7.05384 0.867838 7.88855 1.26066 8.64779C1.65348 9.40704 2.20469 10.0731 2.87704 10.601C3.4908 11.0873 4.04917 11.6396 4.54204 12.248C5.14918 12.9822 5.64083 13.8047 6.00004 14.687C6.35924 13.8047 6.85089 12.9822 7.45804 12.248C7.95091 11.6396 8.50927 11.0873 9.12304 10.601C9.79539 10.0731 10.3466 9.40704 10.7394 8.64779C11.1322 7.88855 11.3575 7.05384 11.4 6.20005C11.4 4.76788 10.8311 3.39437 9.81841 2.38167C8.80572 1.36898 7.43221 0.800049 6.00004 0.800049ZM6.00004 3.10405C6.61237 3.10405 7.21095 3.28563 7.72008 3.62582C8.22922 3.96601 8.62604 4.44954 8.86037 5.01526C9.0947 5.58098 9.15601 6.20348 9.03655 6.80405C8.91709 7.40461 8.62222 7.95627 8.18924 8.38925C7.75626 8.82224 7.2046 9.1171 6.60404 9.23656C6.00347 9.35602 5.38097 9.29471 4.81525 9.06038C4.24953 8.82605 3.766 8.42923 3.42581 7.92009C3.08561 7.41096 2.90404 6.81238 2.90404 6.20005C2.90404 5.37894 3.23022 4.59146 3.81083 4.01085C4.39145 3.43023 5.17893 3.10405 6.00004 3.10405Z" fill="currentColor"/>
    </symbol>

    <symbol id="scale" viewBox="0 0 30 30" fill="none">
        <path d="M17.5491 4.60368C19.0257 6.04351 19.9499 7.93443 20.167 9.95961C20.384 11.9848 19.8807 14.0212 18.7413 15.7276C18.9399 15.889 19.1055 16.0666 19.3373 16.2281C19.6685 16.4864 20.1155 16.8093 20.6785 17.1806C21.2415 17.5519 21.6057 17.8103 21.7713 17.9394C22.3202 18.3225 22.8404 18.7433 23.3277 19.1987C23.8414 19.6939 24.307 20.2344 24.7186 20.8132C25.1059 21.3366 25.4335 21.8996 25.6955 22.4923C25.9256 22.9995 26.0278 23.5531 25.9935 24.1068C25.9675 24.5996 25.7551 25.0655 25.3973 25.4144C25.0394 25.7633 24.5616 25.9704 24.0563 25.9958C23.4925 26.0231 22.9303 25.9179 22.4171 25.689C21.8042 25.4434 21.2256 25.1234 20.6951 24.7364C20.1014 24.3352 19.5471 23.8812 19.0393 23.3803C18.5771 22.911 18.151 22.4091 17.7643 21.8788C17.5988 21.6689 17.3504 21.3137 16.9861 20.8132C16.6219 20.3127 16.3238 19.893 16.0589 19.5539C15.8322 19.2714 15.5889 19.0019 15.3304 18.7467C13.8385 19.5082 12.1593 19.8515 10.4794 19.7384C8.79946 19.6252 7.18459 19.0602 5.81423 18.1059C4.44387 17.1517 3.3717 15.8456 2.71684 14.3329C2.06198 12.8202 1.85009 11.1601 2.10472 9.53703C2.35934 7.91396 3.07051 6.39151 4.15919 5.13886C5.24787 3.88621 6.67143 2.95242 8.27168 2.44126C9.87193 1.9301 11.5862 1.86158 13.224 2.24332C14.8618 2.62506 16.3589 3.44211 17.5491 4.60368ZM15.2145 14.8719C16.0249 14.0816 16.5768 13.0747 16.8003 11.9786C17.0239 10.8825 16.9091 9.74633 16.4704 8.71383C16.0318 7.68133 15.289 6.79884 14.336 6.17795C13.383 5.55706 12.2626 5.22567 11.1164 5.22567C9.97028 5.22567 8.84987 5.55706 7.89686 6.17795C6.94386 6.79884 6.20108 7.68133 5.76244 8.71383C5.3238 9.74633 5.209 10.8825 5.43256 11.9786C5.65612 13.0747 6.208 14.0816 7.01841 14.8719C8.10801 15.9266 9.58109 16.5185 11.1164 16.5185C12.6518 16.5185 14.1249 15.9266 15.2145 14.8719Z" fill="currentColor"/>
        <path
                d="M16.7998 5.2C17.9461 6.34699 18.7266 7.8081 19.0426 9.39861C19.3586 10.9891 19.1959 12.6376 18.5752 14.1357C17.9544 15.6338 16.9034 16.9141 15.555 17.8149C14.2066 18.7158 12.6214 19.1966 10.9998 19.1966C9.37821 19.1966 7.79302 18.7158 6.44464 17.8149C5.09626 16.9141 4.04524 15.6338 3.42446 14.1357C2.80368 12.6376 2.64101 10.9891 2.95701 9.39861C3.27302 7.8081 4.05351 6.34699 5.19981 5.2C6.73879 3.66311 8.82484 2.79987 10.9998 2.79987C13.1748 2.79987 15.2608 3.66311 16.7998 5.2ZM12.4998 16.5V12.5H16.4998V9.5H12.4998V5.5H9.49981V9.5H5.49981V12.5H9.49981V16.5H12.4998Z" fill="currentColor"/>
    </symbol>

    <symbol viewBox="0 0 576 512" id="card">
        <path fill="currentColor"
              d="M0 432c0 26.5 21.5 48 48 48h480c26.5 0 48-21.5 48-48V256H0v176zm192-68c0-6.6 5.4-12 12-12h136c6.6 0 12 5.4 12 12v40c0 6.6-5.4 12-12 12H204c-6.6 0-12-5.4-12-12v-40zm-128 0c0-6.6 5.4-12 12-12h72c6.6 0 12 5.4 12 12v40c0 6.6-5.4 12-12 12H76c-6.6 0-12-5.4-12-12v-40zM576 80v48H0V80c0-26.5 21.5-48 48-48h480c26.5 0 48 21.5 48 48z" />
    </symbol>

    <symbol id="exchange" viewBox="0 0 512 512">
        <path fill="currentColor" d="M0 168v-16c0-13.255 10.745-24 24-24h360V80c0-21.367 25.899-32.042 40.971-16.971l80 80c9.372 9.373 9.372 24.569 0 33.941l-80 80C409.956 271.982 384 261.456 384 240v-48H24c-13.255 0-24-10.745-24-24zm488 152H128v-48c0-21.314-25.862-32.08-40.971-16.971l-80 80c-9.372 9.373-9.372 24.569 0 33.941l80 80C102.057 463.997 128 453.437 128 432v-48h360c13.255 0 24-10.745 24-24v-16c0-13.255-10.745-24-24-24z" class="" />
    </symbol>

    <symbol id="shipping" viewBox="0 0 512 512" >
        <path fill="currentColor" d="M505.12019,19.09375c-1.18945-5.53125-6.65819-11-12.207-12.1875C460.716,0,435.507,0,410.40747,0,307.17523,0,245.26909,55.20312,199.05238,128H94.83772c-16.34763.01562-35.55658,11.875-42.88664,26.48438L2.51562,253.29688A28.4,28.4,0,0,0,0,264a24.00867,24.00867,0,0,0,24.00582,24H127.81618l-22.47457,22.46875c-11.36521,11.36133-12.99607,32.25781,0,45.25L156.24582,406.625c11.15623,11.1875,32.15619,13.15625,45.27726,0l22.47457-22.46875V488a24.00867,24.00867,0,0,0,24.00581,24,28.55934,28.55934,0,0,0,10.707-2.51562l98.72834-49.39063c14.62888-7.29687,26.50776-26.5,26.50776-42.85937V312.79688c72.59753-46.3125,128.03493-108.40626,128.03493-211.09376C512.07526,76.5,512.07526,51.29688,505.12019,19.09375ZM384.04033,168A40,40,0,1,1,424.05,128,40.02322,40.02322,0,0,1,384.04033,168Z" class="" />
    </symbol>

    <symbol id="free-shipping" viewBox="0 0 512 512">
        <path fill="currentColor" d="M0 252.118V48C0 21.49 21.49 0 48 0h204.118a48 48 0 0 1 33.941 14.059l211.882 211.882c18.745 18.745 18.745 49.137 0 67.882L293.823 497.941c-18.745 18.745-49.137 18.745-67.882 0L14.059 286.059A48 48 0 0 1 0 252.118zM112 64c-26.51 0-48 21.49-48 48s21.49 48 48 48 48-21.49 48-48-21.49-48-48-48z" class="" />
    </symbol>

    <symbol id="trash" viewBox="0 0 18 23" fill="none">
        <path
                d="M12.1998 3.4H16.2498C16.4299 3.38917 16.6103 3.41667 16.779 3.48069C16.9477 3.5447 17.1009 3.64377 17.2284 3.77136C17.356 3.89894 17.4551 4.05214 17.5191 4.22084C17.5831 4.38953 17.6106 4.56989 17.5998 4.75V6.1H0.0498047V4.75C0.0498047 4.39196 0.192036 4.04858 0.44521 3.7954C0.698385 3.54223 1.04176 3.4 1.3998 3.4H5.4498C5.62282 2.63413 6.05117 1.94989 6.6645 1.45966C7.27782 0.969439 8.03964 0.702393 8.82481 0.702393C9.60997 0.702393 10.3718 0.969439 10.9851 1.45966C11.5984 1.94989 12.0268 2.63413 12.1998 3.4ZM6.7998 3.4H10.8498C10.6832 3.00021 10.402 2.65868 10.0417 2.41844C9.68132 2.1782 9.25791 2.05 8.82481 2.05C8.3917 2.05 7.96829 2.1782 7.60793 2.41844C7.24757 2.65868 6.96638 3.00021 6.7998 3.4ZM1.3998 7.45H16.2498L15.0348 21.085C15.0051 21.4207 14.8494 21.7327 14.5989 21.9581C14.3484 22.1836 14.0218 22.3057 13.6848 22.3H3.9648C3.63418 22.2842 3.31917 22.1547 3.07314 21.9332C2.82711 21.7118 2.66518 21.4121 2.6148 21.085L1.3998 7.45Z" fill="currentColor"/>
    </symbol>

    <symbol id="hamb-3" fill="currentColor" viewBox="0 0 50 50">
        <path d="M 0 7.5 L 0 12.5 L 50 12.5 L 50 7.5 Z M 0 22.5 L 0 27.5 L 50 27.5 L 50 22.5 Z M 0 37.5 L 0 42.5 L 50 42.5 L 50 37.5 Z"/>
    </symbol>

    <symbol id="tile-3" viewBox="0 0 469.333 469.333" fill="currentColor">
        <g>
            <path d="M53.333,106.667H416c29.417,0,53.333-23.927,53.333-53.333S445.417,0,416,0H53.333C23.917,0,0,23.927,0,53.333
			S23.917,106.667,53.333,106.667z"/>
            <path d="M416,181.333H53.333C23.917,181.333,0,205.26,0,234.667S23.917,288,53.333,288H416c29.417,0,53.333-23.927,53.333-53.333
		S445.417,181.333,416,181.333z"/>
            <path d="M416,362.667H53.333C23.917,362.667,0,386.594,0,416s23.917,53.333,53.333,53.333H416
			c29.417,0,53.333-23.927,53.333-53.333S445.417,362.667,416,362.667z"/>
        </g>
    </symbol>

    <symbol id="tile-4" viewBox="0 0 12 13" fill="none">
        <path
                d="M5.16419 5.61426V0.599976H0.149902V5.61426H5.16419ZM11.8499 5.61426V0.599976H6.83562V5.61426H11.8499ZM5.16419 12.3V7.28569H0.149902V12.3H5.16419ZM11.8499 12.3V7.28569H6.83562V12.3H11.8499Z" fill="currentColor"/>
    </symbol>

    <symbol id="filter" viewBox="-5 0 394 394.00003">
        <path
                d="m367.820312 0h-351.261718c-6.199219-.0117188-11.878906 3.449219-14.710938 8.960938-2.871094 5.585937-2.367187 12.3125 1.300782 17.414062l128.6875 181.285156c.042968.0625.089843.121094.132812.183594 4.675781 6.3125 7.207031 13.960938 7.21875 21.816406v147.800782c-.027344 4.375 1.691406 8.582031 4.773438 11.6875 3.085937 3.101562 7.28125 4.851562 11.65625 4.851562 2.222656-.003906 4.425781-.445312 6.480468-1.300781l72.3125-27.570313c6.476563-1.980468 10.777344-8.09375 10.777344-15.453125v-120.015625c.011719-7.855468 2.542969-15.503906 7.214844-21.816406.042968-.0625.089844-.121094.132812-.183594l128.691406-181.289062c3.667969-5.097656 4.171876-11.820313 1.300782-17.40625-2.828125-5.515625-8.511719-8.9765628-14.707032-8.964844zm0 0" fill="currentColor"/>
    </symbol>

</svg>