<svg width="11" height="13" viewBox="0 0 11 13" fill="none" xmlns="http://www.w3.org/2000/svg">
<path d="M7.31325 1.62372H9.75099C9.8594 1.61721 9.96796 1.63376 10.0695 1.67229C10.171 1.71082 10.2633 1.77046 10.3401 1.84725C10.4168 1.92405 10.4765 2.01626 10.515 2.1178C10.5535 2.21934 10.5701 2.3279 10.5636 2.43631V3.24889H0V2.43631C0 2.2208 0.0856111 2.01411 0.238 1.86172C0.390389 1.70934 0.597072 1.62372 0.812583 1.62372H3.25033C3.35447 1.16274 3.6123 0.750883 3.98147 0.455811C4.35064 0.160739 4.80919 0 5.28179 0C5.75439 0 6.21294 0.160739 6.58211 0.455811C6.95127 0.750883 7.20911 1.16274 7.31325 1.62372ZM4.06291 1.62372H6.50066C6.4004 1.38309 6.23115 1.17751 6.01424 1.03291C5.79733 0.888306 5.54248 0.811142 5.28179 0.811142C5.0211 0.811142 4.76624 0.888306 4.54934 1.03291C4.33243 1.17751 4.16318 1.38309 4.06291 1.62372ZM0.812583 4.06147H9.75099L9.01967 12.2686C9.00182 12.4706 8.90806 12.6584 8.75729 12.7941C8.60651 12.9298 8.40991 13.0033 8.20709 12.9999H2.35649C2.15748 12.9904 1.96787 12.9124 1.81978 12.7791C1.67169 12.6458 1.57423 12.4655 1.54391 12.2686L0.812583 4.06147Z" fill="#3F3F3F"/>
</svg>
