<svg width="444" height="525" viewBox="0 0 444 525" fill="none" xmlns="http://www.w3.org/2000/svg">
<path d="M87 404L86.3496 404.76L87 404ZM435.293 524.707C435.683 525.098 436.316 525.098 436.707 524.707L443.071 518.343C443.461 517.953 443.461 517.319 443.071 516.929C442.68 516.538 442.047 516.538 441.657 516.929L436 522.586L430.343 516.929C429.952 516.538 429.319 516.538 428.929 516.929C428.538 517.319 428.538 517.953 428.929 518.343L435.293 524.707ZM164.835 0.0136992C164 0.153399 163.166 0.30033 162.334 0.454432L162.698 2.421C163.519 2.269 164.341 2.12408 165.165 1.9863L164.835 0.0136992ZM147.539 3.98842C145.917 4.46385 144.302 4.96644 142.696 5.49568L143.321 7.39529C144.907 6.87288 146.501 6.37684 148.101 5.90765L147.539 3.98842ZM128.498 10.9451C126.952 11.6242 125.415 12.328 123.887 13.0562L124.747 14.8618C126.257 14.1423 127.776 13.447 129.303 12.7762L128.498 10.9451ZM110.472 20.1995C109.021 21.0556 107.58 21.934 106.149 22.8341L107.213 24.5272C108.629 23.637 110.054 22.7685 111.489 21.922L110.472 20.1995ZM93.6276 31.4459C92.2745 32.4592 90.9318 33.4925 89.6001 34.5452L90.8403 36.1142C92.1585 35.0722 93.4874 34.0496 94.8265 33.0467L93.6276 31.4459ZM78.052 44.4075C76.8163 45.545 75.5919 46.6998 74.3789 47.8715L75.7684 49.31C76.9699 48.1493 78.1827 47.0055 79.4065 45.879L78.052 44.4075ZM63.8353 58.8007C62.7069 60.0547 61.5905 61.324 60.4863 62.6083L62.0029 63.9121C63.0972 62.6392 64.2037 61.3812 65.322 60.1385L63.8353 58.8007ZM50.9748 74.4438C49.9636 75.79 48.965 77.1495 47.9794 78.522L49.6039 79.6886C50.5812 78.3277 51.5713 76.9797 52.5739 75.645L50.9748 74.4438ZM39.5187 91.1248C38.6254 92.5498 37.7453 93.9863 36.8788 95.4339L38.5948 96.4611C39.4544 95.0253 40.3273 93.6005 41.2132 92.1871L39.5187 91.1248ZM29.484 108.689C28.7072 110.187 27.9444 111.694 27.1958 113.211L28.9892 114.096C29.7319 112.591 30.4887 111.096 31.2593 109.61L29.484 108.689ZM20.8889 127.015C20.2348 128.567 19.5953 130.128 18.9706 131.696L20.8286 132.436C21.4485 130.88 22.083 129.331 22.732 127.791L20.8889 127.015ZM13.7753 145.956C13.2464 147.554 12.7326 149.158 12.2343 150.769L14.1449 151.36C14.6394 149.762 15.1491 148.17 15.674 146.585L13.7753 145.956ZM8.18131 165.394C7.77962 167.032 7.39384 168.675 7.02419 170.323L8.97571 170.76C9.34244 169.125 9.72518 167.495 10.1237 165.871L8.18131 165.394ZM4.14885 185.224C3.87924 186.889 3.62622 188.559 3.39002 190.233L5.37039 190.512C5.60471 188.852 5.8557 187.196 6.12315 185.543L4.14885 185.224ZM1.72932 205.321C1.59678 206.998 1.48135 208.678 1.38324 210.36L3.37985 210.476C3.47715 208.808 3.59164 207.142 3.7231 205.479L1.72932 205.321ZM0.973572 225.533C0.981074 227.218 1.00632 228.903 1.04951 230.591L3.04885 230.539C3.00602 228.866 2.98099 227.195 2.97355 225.524L0.973572 225.533ZM1.92312 245.743C2.07438 247.424 2.24395 249.105 2.43203 250.786L4.41963 250.563C4.23316 248.897 4.06503 247.23 3.91507 245.564L1.92312 245.743ZM4.61171 265.806C4.9087 267.466 5.2244 269.126 5.559 270.785L7.51952 270.39C7.18784 268.745 6.87489 267.1 6.58048 265.454L4.61171 265.806ZM9.05554 285.567C9.49563 287.184 9.95446 288.8 10.4322 290.414L12.3499 289.846C11.8764 288.247 11.4216 286.645 10.9854 285.042L9.05554 285.567ZM15.2287 304.821C15.8123 306.396 16.4148 307.968 17.0363 309.536L18.8957 308.8C18.2796 307.245 17.6825 305.687 17.104 304.126L15.2287 304.821ZM23.0965 323.453C23.82 324.973 24.5623 326.49 25.3236 328.002L27.1101 327.103C26.3554 325.604 25.6196 324.1 24.9025 322.593L23.0965 323.453ZM32.5873 341.319C33.4444 342.775 34.3202 344.226 35.215 345.672L36.9158 344.62C36.0287 343.186 35.1604 341.748 34.3107 340.305L32.5873 341.319ZM43.5988 358.299C44.5811 359.681 45.5819 361.057 46.6012 362.429L48.2063 361.235C47.1954 359.875 46.203 358.51 45.2288 357.14L43.5988 358.299ZM56.0037 374.293C57.0931 375.584 58.2002 376.87 59.325 378.15L60.8274 376.83C59.7114 375.56 58.6132 374.285 57.5325 373.003L56.0037 374.293ZM69.6569 389.232C70.8383 390.428 72.0365 391.618 73.2515 392.801L74.6471 391.369C73.4412 390.194 72.252 389.013 71.0795 387.827L69.6569 389.232ZM84.4047 403.079C85.0488 403.641 85.6971 404.201 86.3496 404.76L87.6504 403.24C87.0025 402.686 86.3588 402.129 85.7192 401.572L84.4047 403.079ZM86.3496 404.76C86.976 405.296 87.606 405.827 88.2396 406.352L89.5162 404.813C88.8907 404.294 88.2687 403.77 87.6504 403.24L86.3496 404.76ZM100.028 415.241C101.383 416.169 102.75 417.076 104.13 417.964L105.212 416.282C103.848 415.405 102.497 414.508 101.159 413.591L100.028 415.241ZM116.861 425.419C118.309 426.19 119.768 426.943 121.238 427.678L122.132 425.889C120.678 425.161 119.234 424.417 117.801 423.654L116.861 425.419ZM134.662 433.788C136.171 434.412 137.688 435.02 139.214 435.612L139.937 433.748C138.425 433.161 136.921 432.558 135.427 431.94L134.662 433.788ZM153.11 440.521C154.668 441.021 156.233 441.507 157.804 441.979L158.38 440.063C156.82 439.595 155.267 439.113 153.72 438.617L153.11 440.521ZM172.015 445.858C173.603 446.25 175.196 446.631 176.794 447L177.244 445.052C175.656 444.684 174.073 444.306 172.495 443.916L172.015 445.858ZM191.202 450.018C192.806 450.321 194.413 450.615 196.023 450.899L196.371 448.93C194.768 448.647 193.169 448.355 191.573 448.053L191.202 450.018ZM210.556 453.217C212.174 453.449 213.793 453.674 215.414 453.891L215.679 451.908C214.064 451.692 212.451 451.469 210.84 451.238L210.556 453.217ZM230.016 455.653C231.641 455.83 233.267 456 234.892 456.165L235.093 454.175C233.473 454.011 231.852 453.841 230.232 453.665L230.016 455.653ZM249.531 457.507C251.163 457.642 252.794 457.773 254.422 457.9L254.577 455.906C252.952 455.779 251.325 455.648 249.697 455.513L249.531 457.507ZM269.083 458.949C270.711 459.057 272.337 459.162 273.958 459.264L274.084 457.268C272.465 457.166 270.841 457.061 269.215 456.953L269.083 458.949ZM288.617 460.149C290.255 460.245 291.888 460.34 293.515 460.434L293.631 458.437C292.004 458.343 290.371 458.248 288.733 458.153L288.617 460.149ZM308.178 461.293C309.814 461.392 311.443 461.492 313.063 461.594L313.188 459.598C311.566 459.496 309.936 459.396 308.299 459.297L308.178 461.293ZM327.694 462.589C329.326 462.711 330.947 462.837 332.557 462.966L332.718 460.973C331.104 460.843 329.479 460.717 327.843 460.595L327.694 462.589ZM347.178 464.311C348.81 464.483 350.427 464.662 352.029 464.849L352.26 462.862C350.651 462.675 349.026 462.495 347.387 462.322L347.178 464.311ZM366.486 466.831C368.129 467.096 369.751 467.373 371.35 467.662L371.707 465.694C370.094 465.402 368.459 465.123 366.804 464.857L366.486 466.831ZM385.6 470.768C387.193 471.184 388.754 471.619 390.284 472.075L390.855 470.158C389.302 469.696 387.719 469.254 386.105 468.833L385.6 470.768ZM403.911 477.097C405.407 477.779 406.856 478.491 408.257 479.237L409.197 477.471C407.758 476.705 406.271 475.975 404.74 475.277L403.911 477.097ZM420.075 487.394C421.273 488.478 422.404 489.609 423.466 490.791L424.953 489.454C423.843 488.219 422.664 487.039 421.417 485.911L420.075 487.394ZM431.099 502.805C431.709 504.255 432.252 505.761 432.723 507.324L434.638 506.747C434.146 505.117 433.58 503.545 432.942 502.029L431.099 502.805ZM434.956 521.49C434.985 522.314 435 523.151 435 524H437C437 523.128 436.985 522.267 436.955 521.419L434.956 521.49Z" fill="#999999"/>
</svg>
