<svg width="40" height="40" viewBox="0 0 40 40" fill="none" xmlns="http://www.w3.org/2000/svg">
<g clip-path="url(#clip0)">
<path d="M38.1818 38.1812H1.8182C0.818203 38.1812 0 37.3631 0 36.3631V14.5449H40V36.3631C40 37.3631 39.1818 38.1812 38.1818 38.1812Z" fill="#B0C4D8"/>
<path d="M30.2727 36.3631H3.63632C2.63632 36.3631 1.81812 35.5449 1.81812 34.5449V14.5449H38.1818V28.454C38.1818 29.454 37.8181 30.363 37.0909 30.9995L32.8181 35.2722C32.1818 35.9995 31.2727 36.3631 30.2727 36.3631Z" fill="#ECEFF9"/>
<path d="M40 14.546H0V7.27328C0 6.27328 0.818203 5.45508 1.8182 5.45508H38.1819C39.1819 5.45508 40.0001 6.27328 40.0001 7.27328V14.546H40Z" fill="#4C9CD6"/>
<path d="M38.1818 5.45508V10.9096C38.1818 11.9096 37.3636 12.7278 36.3636 12.7278H1.8182C0.818203 12.7278 0 13.546 0 14.546H40V7.27328C40 6.27328 39.1818 5.45508 38.1818 5.45508Z" fill="#3689C9"/>
<path d="M16.3636 22.7272C17.3678 22.7272 18.1818 21.9132 18.1818 20.909C18.1818 19.9049 17.3678 19.0908 16.3636 19.0908C15.3594 19.0908 14.5454 19.9049 14.5454 20.909C14.5454 21.9132 15.3594 22.7272 16.3636 22.7272Z" fill="#4C9CD6"/>
<path d="M23.6363 22.7272C24.6405 22.7272 25.4545 21.9132 25.4545 20.909C25.4545 19.9049 24.6405 19.0908 23.6363 19.0908C22.6322 19.0908 21.8181 19.9049 21.8181 20.909C21.8181 21.9132 22.6322 22.7272 23.6363 22.7272Z" fill="#4C9CD6"/>
<path d="M30.909 22.7272C31.9132 22.7272 32.7272 21.9132 32.7272 20.909C32.7272 19.9049 31.9132 19.0908 30.909 19.0908C29.9049 19.0908 29.0908 19.9049 29.0908 20.909C29.0908 21.9132 29.9049 22.7272 30.909 22.7272Z" fill="#4C9CD6"/>
<path d="M9.09091 30.9089C10.0951 30.9089 10.9091 30.0948 10.9091 29.0907C10.9091 28.0865 10.0951 27.2725 9.09091 27.2725C8.08674 27.2725 7.27271 28.0865 7.27271 29.0907C7.27271 30.0948 8.08674 30.9089 9.09091 30.9089Z" fill="#4C9CD6"/>
<path d="M16.3636 30.9089C17.3678 30.9089 18.1818 30.0948 18.1818 29.0907C18.1818 28.0865 17.3678 27.2725 16.3636 27.2725C15.3594 27.2725 14.5454 28.0865 14.5454 29.0907C14.5454 30.0948 15.3594 30.9089 16.3636 30.9089Z" fill="#4C9CD6"/>
<path d="M23.6363 30.9089C24.6405 30.9089 25.4545 30.0948 25.4545 29.0907C25.4545 28.0865 24.6405 27.2725 23.6363 27.2725C22.6322 27.2725 21.8181 28.0865 21.8181 29.0907C21.8181 30.0948 22.6322 30.9089 23.6363 30.9089Z" fill="#F26A56"/>
<path d="M38.1818 14.5449H1.81812V16.3631H38.1818V14.5449Z" fill="#C4D7E5"/>
<path d="M32.7274 9.09148H30.9092V5.45508H33.6364L32.7274 9.09148Z" fill="#3689C9"/>
<path d="M30 11.8178C31.5062 11.8178 32.7272 10.5968 32.7272 9.09055C32.7272 7.58432 31.5062 6.36328 30 6.36328C28.4937 6.36328 27.2727 7.58432 27.2727 9.09055C27.2727 10.5968 28.4937 11.8178 30 11.8178Z" fill="#1470B8"/>
<path d="M38.1818 27.2725V28.4543C38.1818 29.4543 37.8181 30.3633 37.0908 30.9997L32.8181 35.2725C32.0908 35.9997 31.1818 36.3634 30.2726 36.3634H29.0908C30.6363 36.3634 31.8181 35.1816 31.8181 33.6361V30.9089C31.8181 30.3634 32.1818 29.9998 32.7271 29.9998H35.4544C37 29.9997 38.1818 28.8179 38.1818 27.2725Z" fill="#D5E3EF"/>
<path d="M39.091 14.5449H38.182V29.5449C38.0002 29.8177 37.8183 29.9995 37.6365 30.2722L33.0001 34.9085C32.091 35.8176 30.8183 36.363 29.4546 36.363H33.2728C33.8183 36.363 34.2728 36.1812 34.7274 35.8176L37.3637 33.1812C38 32.454 39.1819 32.9085 39.1819 33.8176V36.363C39.1819 36.9085 38.8182 37.2721 38.2728 37.2721H0.909151C0.636416 37.2721 0.363682 37.1812 0.181885 37.0903C0.454619 37.7266 1.09095 38.1812 1.81821 38.1812H38.1819C39.1819 38.1812 40.0001 37.363 40.0001 36.363V14.5449H39.091Z" fill="#99B4CD"/>
<path d="M40.0001 14.5449H38.1819V16.3631H40.0001V14.5449Z" fill="#82A7C4"/>
<path d="M1.8182 14.5449H0V16.3631H1.8182V14.5449Z" fill="#99B4CD"/>
<path d="M23.6363 7.27328H16.3636C15.3636 7.27328 14.5454 6.45508 14.5454 5.45508H25.4545C25.4545 6.45508 24.6363 7.27328 23.6363 7.27328Z" fill="#70B7E5"/>
<path d="M5.45456 7.27328H4.5455C3.5455 7.27328 2.72729 6.45508 2.72729 5.45508H7.27276C7.27276 6.45508 6.45456 7.27328 5.45456 7.27328Z" fill="#70B7E5"/>
<path d="M30.0001 10.9093C29.0001 10.9093 28.1819 10.0911 28.1819 9.09109V3.63656C28.1819 2.63656 29.0001 1.81836 30.0001 1.81836C31.0001 1.81836 31.8183 2.63656 31.8183 3.63656V9.09109C31.8183 10.0912 31.0001 10.9093 30.0001 10.9093Z" fill="#F6B545"/>
<path d="M12.7274 9.09148H10.9092V5.45508H13.6364L12.7274 9.09148Z" fill="#3689C9"/>
<path d="M9.99997 11.8178C11.5062 11.8178 12.7272 10.5968 12.7272 9.09055C12.7272 7.58432 11.5062 6.36328 9.99997 6.36328C8.49374 6.36328 7.27271 7.58432 7.27271 9.09055C7.27271 10.5968 8.49374 11.8178 9.99997 11.8178Z" fill="#1470B8"/>
<path d="M10.0001 10.9093C9.00009 10.9093 8.18188 10.0911 8.18188 9.09109V3.63656C8.18188 2.63656 9.00009 1.81836 10.0001 1.81836C11.0001 1.81836 11.8183 2.63656 11.8183 3.63656V9.09109C11.8183 10.0912 11.0001 10.9093 10.0001 10.9093Z" fill="#F6B545"/>
<path d="M10.9092 3.6367V8.54576C10.9092 8.90943 10.8182 9.18209 10.5455 9.45482C10.091 9.90935 9.45454 10.0003 8.90915 9.63662C8.45462 9.36388 8.18188 8.81841 8.18188 8.18209V9.00037C8.18188 9.90943 8.81821 10.7276 9.72736 10.9094C10.9092 11.0912 11.8183 10.1822 11.8183 9.09123V8.18216V3.6367C11.8183 3.00037 10.9092 2.72764 10.9092 3.6367Z" fill="#F19920"/>
<path d="M30.9091 3.6367V8.54576C30.9091 8.90943 30.8182 9.18209 30.5455 9.45482C30.0909 9.90935 29.4545 10.0003 28.9092 9.63662C28.4546 9.36388 28.1819 8.81841 28.1819 8.18209V9.00037C28.1819 9.90943 28.8182 10.7276 29.7274 10.9094C30.9092 11.0912 31.8183 10.1822 31.8183 9.09123V8.18216V3.6367C31.8183 3.00037 30.9091 2.72764 30.9091 3.6367Z" fill="#F19920"/>
<path d="M9.09095 4.09125V7.72757C9.09095 8.00031 8.90915 8.18211 8.63642 8.18211C8.36368 8.18211 8.18188 8.00031 8.18188 7.72757V4.09125C8.18188 3.81852 8.36368 3.63672 8.63642 3.63672C8.90907 3.63664 9.09095 3.81852 9.09095 4.09125Z" fill="#FFCB5B"/>
<path d="M29.0909 4.09125V7.72757C29.0909 8.00031 28.9091 8.18211 28.6364 8.18211C28.3637 8.18211 28.1819 8.00031 28.1819 7.72757V4.09125C28.1819 3.81852 28.3637 3.63672 28.6364 3.63672C28.9091 3.63664 29.0909 3.81852 29.0909 4.09125Z" fill="#FFCB5B"/>
</g>
<defs>
<clipPath id="clip0">
<rect width="40" height="40" fill="white"/>
</clipPath>
</defs>
</svg>
