<svg width="40" height="40" viewBox="0 0 40 40" fill="none" xmlns="http://www.w3.org/2000/svg">
<g clip-path="url(#clip0)">
<path d="M30.9091 8.1818V36.3636C30.9091 37.3636 30.0909 38.1818 29.0909 38.1818H3.63632C2.63632 38.1818 1.81812 37.3636 1.81812 36.3636V1.8182C1.81819 0.818203 2.63632 0 3.63632 0H22.7273V6.36367C22.7273 7.36367 23.5455 8.18188 24.5455 8.18188H30.9091V8.1818Z" fill="#D5E3EF"/>
<path d="M30.9092 8.1818H24.5455C23.5455 8.1818 22.7273 7.36359 22.7273 6.36359V0L30.9092 8.1818Z" fill="#99B4CD"/>
<path d="M30.9091 26.3633L22.7273 32.727H26.8182C27.091 32.727 27.3637 32.636 27.6364 32.5452L30.9092 30.9088V26.3633H30.9091Z" fill="#C9D5E3"/>
<path d="M30.9091 8.18164H25.4546L30.9091 11.8181V8.18164Z" fill="#C9D5E3"/>
<path d="M37.5454 18.4547L36.9999 17.9093C36.6362 17.5456 35.9999 17.2729 35.4544 17.2729C34.909 17.2729 34.2726 17.5457 33.909 17.9093L32.7272 19.0911L23.6362 28.182L27.2726 31.8183L36.3635 22.7274L37.5453 21.5456C37.9998 21.0911 38.1816 20.5456 38.1816 20.0001C38.1817 19.4547 37.909 18.8184 37.5454 18.4547Z" fill="#3689C9"/>
<path d="M5.90912 11.8184H13.1819C13.4546 11.8184 13.6364 12.0002 13.6364 12.2729C13.6364 12.5456 13.4546 12.7274 13.1819 12.7274H5.90912C5.63639 12.7274 5.45459 12.5456 5.45459 12.2729C5.45459 12.0002 5.63639 11.8184 5.90912 11.8184Z" fill="#3D545F"/>
<path d="M11.3637 17.2729H18.6364C18.9092 17.2729 19.091 17.4547 19.091 17.7275C19.091 18.0002 18.9092 18.182 18.6364 18.182H11.3637C11.091 18.182 10.9092 18.0002 10.9092 17.7275C10.9091 17.4547 11.091 17.2729 11.3637 17.2729Z" fill="#3D545F"/>
<path d="M13.1818 20H22.2728C22.5455 20 22.7273 20.1818 22.7273 20.4545C22.7273 20.7273 22.5455 20.9091 22.2728 20.9091H13.1818C12.9091 20.9091 12.7273 20.7273 12.7273 20.4545C12.7273 20.1818 12.9091 20 13.1818 20Z" fill="#3D545F"/>
<path d="M5.90912 14.5454H11.3637C11.6364 14.5454 11.8182 14.7272 11.8182 14.9999C11.8182 15.2727 11.6364 15.4545 11.3637 15.4545H5.90912C5.63639 15.4545 5.45459 15.2727 5.45459 14.9999C5.45459 14.7272 5.63639 14.5454 5.90912 14.5454Z" fill="#3D545F"/>
<path d="M20.4545 11.8184H25.9091C26.1818 11.8184 26.3636 12.0002 26.3636 12.2729C26.3636 12.5456 26.1818 12.7274 25.9091 12.7274H20.4545C20.1818 12.7274 20 12.5456 20 12.2729C20 12.0002 20.1818 11.8184 20.4545 11.8184Z" fill="#3D545F"/>
<path d="M14.9999 11.8184H18.6363C18.909 11.8184 19.0908 12.0002 19.0908 12.2729C19.0908 12.5456 18.909 12.7274 18.6363 12.7274H14.9999C14.7272 12.7274 14.5454 12.5456 14.5454 12.2729C14.5454 12.0002 14.7272 11.8184 14.9999 11.8184Z" fill="#3D545F"/>
<path d="M23.1818 14.5454H25C25.2728 14.5454 25.4546 14.7272 25.4546 14.9999C25.4546 15.2727 25.2728 15.4545 25 15.4545H23.1818C22.9091 15.4545 22.7273 15.2727 22.7273 14.9999C22.7273 14.7272 22.9091 14.5454 23.1818 14.5454Z" fill="#3D545F"/>
<path d="M24.091 20H25.9092C26.1819 20 26.3637 20.1818 26.3637 20.4545C26.3637 20.7273 26.1819 20.9091 25.9092 20.9091H24.091C23.8183 20.9091 23.6365 20.7273 23.6365 20.4545C23.6364 20.1818 23.8183 20 24.091 20Z" fill="#3D545F"/>
<path d="M11.3637 22.7271H15C15.2728 22.7271 15.4546 22.9088 15.4546 23.1816C15.4546 23.4543 15.2728 23.6361 15 23.6361H11.3637C11.091 23.6361 10.9092 23.4543 10.9092 23.1816C10.9091 22.9088 11.091 22.7271 11.3637 22.7271Z" fill="#3D545F"/>
<path d="M19.5456 31.8184H23.1819C23.4546 31.8184 23.6364 32.0002 23.6364 32.2729C23.6364 32.5456 22.7274 32.7274 22.7274 32.7274H19.5456C19.2729 32.7274 19.0911 32.5456 19.0911 32.2729C19.0911 32.0002 19.2729 31.8184 19.5456 31.8184Z" fill="#3D545F"/>
<path d="M20.4545 17.2729H24.0909C24.3636 17.2729 24.5454 17.4547 24.5454 17.7275C24.5454 18.0002 24.3636 18.182 24.0909 18.182H20.4545C20.1818 18.182 20 18.0002 20 17.7275C20 17.4547 20.1818 17.2729 20.4545 17.2729Z" fill="#3D545F"/>
<path d="M13.1818 14.5454H21.3636C21.6364 14.5454 21.8182 14.7272 21.8182 14.9999C21.8182 15.2727 21.6364 15.4545 21.3636 15.4545H13.1818C12.9091 15.4545 12.7273 15.2727 12.7273 14.9999C12.7273 14.7272 12.9091 14.5454 13.1818 14.5454Z" fill="#3D545F"/>
<path d="M12.2729 8.18164H20.4547C20.7274 8.18164 20.9092 8.36344 20.9092 8.63617C20.9092 8.90891 20.7274 9.0907 20.4547 9.0907H12.2729C12.0002 9.0907 11.8184 8.90891 11.8184 8.63617C11.8184 8.36352 12.0002 8.18164 12.2729 8.18164Z" fill="#3D545F"/>
<path d="M5.90912 17.2729H9.54545C9.81818 17.2729 9.99998 17.4547 9.99998 17.7275C9.99998 18.0002 9.81818 18.182 9.54545 18.182H5.90912C5.63639 18.182 5.45459 18.0002 5.45459 17.7275C5.45459 17.4547 5.63639 17.2729 5.90912 17.2729Z" fill="#3D545F"/>
<path d="M5.90912 20H11.3637C11.6364 20 11.8182 20.1818 11.8182 20.4545C11.8182 20.7273 11.6364 20.9091 11.3637 20.9091H5.90912C5.63639 20.9091 5.45459 20.7273 5.45459 20.4545C5.45459 20.1818 5.63639 20 5.90912 20Z" fill="#3D545F"/>
<path d="M5.90912 22.7271H9.54545C9.81818 22.7271 9.99998 22.9088 9.99998 23.1816C9.99998 23.4543 9.81818 23.6361 9.54545 23.6361H5.90912C5.63639 23.6361 5.45459 23.4543 5.45459 23.1816C5.45459 22.9088 5.63639 22.7271 5.90912 22.7271Z" fill="#3D545F"/>
<path d="M13.6364 39.9999L10.9092 39.0908L8.18188 39.9999V33.6362H13.6364V39.9999Z" fill="#EE2C39"/>
<path d="M13.6364 35.7272V34.5454H8.18188V39.9999L10.9092 39.0909V36.3636C11.9092 36.3636 12.8183 36.1817 13.6364 35.7272Z" fill="#CC202C"/>
<path d="M10.909 35.4542C13.4194 35.4542 15.4545 33.4191 15.4545 30.9087C15.4545 28.3984 13.4194 26.3633 10.909 26.3633C8.3986 26.3633 6.36353 28.3984 6.36353 30.9087C6.36353 33.4191 8.3986 35.4542 10.909 35.4542Z" fill="#F6B545"/>
<path d="M10.909 32.7272C11.9132 32.7272 12.7272 31.9132 12.7272 30.909C12.7272 29.9049 11.9132 29.0908 10.909 29.0908C9.90486 29.0908 9.09082 29.9049 9.09082 30.909C9.09082 31.9132 9.90486 32.7272 10.909 32.7272Z" fill="#E78825"/>
<path d="M7.27283 31.8183C6.72736 31.8183 6.36377 31.4546 6.36377 30.9092C6.36377 28.3638 8.36377 26.3638 10.9092 26.3638C11.4547 26.3638 11.8183 26.7274 11.8183 27.2728C11.8183 27.8183 11.4546 28.1819 10.9092 28.1819C9.36377 28.1819 8.18197 29.3637 8.18197 30.9092C8.18189 31.4546 7.8183 31.8183 7.27283 31.8183Z" fill="#FFCB5B"/>
<path d="M14.5455 30C15.0909 30 15.4545 30.3637 15.4545 30.9091C15.4545 33.4545 13.4545 35.4545 10.9091 35.4545C10.3636 35.4545 10 35.0909 10 34.5455C10 34 10.3637 33.6364 10.9091 33.6364C12.4545 33.6364 13.6363 32.4546 13.6363 30.9091C13.6363 30.3637 14 30 14.5455 30Z" fill="#F19920"/>
<path d="M38.1818 19.9997C38.1818 19.1815 37.1818 18.8179 36.6364 19.3634L25.7273 30.2724L27.2728 31.8179L36.3637 22.727L37.5455 21.5452C37.7273 21.3634 37.9092 21.1815 38 20.9089C38.091 20.636 38.1818 20.2724 38.1818 19.9997Z" fill="#1470B8"/>
<path d="M25.1819 28.273C25.091 28.273 24.9092 28.273 24.8182 28.1821C24.6364 28.0003 24.6364 27.7275 24.8182 27.5458L27.5455 24.8185C27.7273 24.6367 28 24.6367 28.1818 24.8185C28.3636 25.0003 28.3636 25.273 28.1818 25.4548L25.4546 28.1821C25.3638 28.273 25.2728 28.273 25.1819 28.273Z" fill="#4C9CD6"/>
<path d="M29.0911 24.364C29.0001 24.364 28.8183 24.364 28.7274 24.2731C28.5456 24.0913 28.5456 23.8185 28.7274 23.6367L29.6365 22.7277C29.8183 22.5459 30.091 22.5459 30.2728 22.7277C30.4546 22.9095 30.4546 23.1822 30.2728 23.364L29.3637 24.2731C29.3638 24.2731 29.1819 24.364 29.0911 24.364Z" fill="#4C9CD6"/>
<path d="M27.2728 31.818L22.7273 32.7271L23.6364 28.1816L27.2728 31.818Z" fill="#82A7C4"/>
<path d="M22.7273 32.727L27.2728 31.8179L25.7273 30.2725L22.7273 32.727Z" fill="#6C9ABB"/>
</g>
<defs>
<clipPath id="clip0">
<rect width="40" height="40" fill="white"/>
</clipPath>
</defs>
</svg>
