<svg width="40" height="40" viewBox="0 0 40 40" fill="none" xmlns="http://www.w3.org/2000/svg">
<path d="M19.9999 36.3636C29.0373 36.3636 36.3636 29.0373 36.3636 19.9999C36.3636 10.9625 29.0373 3.63623 19.9999 3.63623C10.9625 3.63623 3.63623 10.9625 3.63623 19.9999C3.63623 29.0373 10.9625 36.3636 19.9999 36.3636Z" fill="#ECF0F9"/>
<path d="M20 0C8.90906 0 0 8.90906 0 20C0 31.0909 8.90906 40 20 40C31.0909 40 40 31.0909 40 20C40 8.90906 31.0909 0 20 0ZM20 36.3637C11 36.3637 3.63633 29 3.63633 20C3.63633 11 11 3.63633 20 3.63633C29 3.63633 36.3637 11 36.3637 20C36.3637 29 29 36.3637 20 36.3637Z" fill="#C97629"/>
<path d="M4.9999 21.3636C4.9999 12.3636 12.3636 4.9999 21.3636 4.9999C25.5454 4.9999 29.3636 6.54537 32.1818 9.1817C29.1817 5.72717 24.909 3.63623 19.9999 3.63623C10.9999 3.63623 3.63623 10.9999 3.63623 19.9999C3.63623 24.909 5.72717 29.1817 9.1817 32.1817C6.54537 29.3636 4.9999 25.5454 4.9999 21.3636Z" fill="#D5E3EF"/>
<path d="M5.45457 20.9091H1.81824C1.27277 20.9091 0.90918 20.5454 0.90918 20C0.90918 19.4545 1.27285 19.0909 1.81824 19.0909H5.45457C6.00004 19.0909 6.36363 19.4546 6.36363 20C6.36371 20.5455 6.00004 20.9091 5.45457 20.9091Z" fill="#C97629"/>
<path d="M3.63623 20C3.63623 20.2727 3.63623 20.6363 3.72717 20.909H5.09084C5.09084 20.2727 5.18178 19.7272 5.27264 19.0908H3.72717C3.63623 19.3636 3.63623 19.7272 3.63623 20Z" fill="#B06328"/>
<path d="M38.1816 20.9091H34.5453C33.9998 20.9091 33.6362 20.5454 33.6362 20C33.6362 19.4545 33.9999 19.0909 34.5453 19.0909H38.1816C38.7271 19.0909 39.0907 19.4546 39.0907 20C39.0908 20.5455 38.7271 20.9091 38.1816 20.9091Z" fill="#C97629"/>
<path d="M19.0908 5.45457V1.81824C19.0908 1.27277 19.4545 0.90918 19.9999 0.90918C20.5454 0.90918 20.9089 1.27285 20.9089 1.81824V5.45457C20.9089 6.00004 20.5453 6.36363 19.9999 6.36363C19.4544 6.36371 19.0908 6.00004 19.0908 5.45457Z" fill="#C97629"/>
<path d="M19.0908 3.72717V5.1817C19.7271 5.09076 20.2726 5.09076 20.909 4.9999V3.72717C20.6363 3.63623 20.2727 3.63623 20 3.63623C19.7271 3.63623 19.3636 3.63623 19.0908 3.72717Z" fill="#B06328"/>
<path d="M19.0908 38.1817V34.5454C19.0908 33.9999 19.4545 33.6364 19.9999 33.6364C20.5454 33.6364 20.9089 34 20.9089 34.5454V38.1817C20.9089 38.7272 20.5453 39.0908 19.9999 39.0908C19.4544 39.0909 19.0908 38.7272 19.0908 38.1817Z" fill="#C97629"/>
<path d="M20 0C8.90906 0 0 8.90906 0 20C1 20 1.8182 19.2727 1.90906 18.2727C2.36367 13.9091 4.27273 9.90906 7.27273 7C10.1818 4.1818 14 2.27273 18.2727 1.90906C19.2727 1.8182 20 1 20 0Z" fill="#DA8C36"/>
<path d="M20 40C31.0909 40 40 31.0909 40 20C39 20 38.1818 20.7273 38.0909 21.7273C37.7273 26 35.8182 29.8182 33 32.7273C30.0909 35.7273 26.1818 37.6363 21.7273 38.0909C20.7273 38.1818 20 39 20 40Z" fill="#B06328"/>
<path d="M19.9999 19.091C19.4544 19.091 19.0908 18.7273 19.0908 18.1819V10.9092C19.0908 10.3637 19.4545 10.0001 19.9999 10.0001C20.5454 10.0001 20.9089 10.3638 20.9089 10.9092V18.1819C20.9089 18.7273 20.5454 19.091 19.9999 19.091Z" fill="#595A66"/>
<path d="M28.1816 29.091C27.9088 29.091 27.727 29 27.5452 28.8182L20.2725 21.5455C19.9088 21.1818 19.9088 20.6364 20.2725 20.2728C20.6362 19.9091 21.1816 19.9091 21.5452 20.2728L28.818 27.5455C29.1817 27.9092 29.1817 28.4546 28.818 28.8182C28.6361 29 28.4543 29.091 28.1816 29.091Z" fill="#595A66"/>
<path d="M13.1774 9.09181C13.6794 9.09181 14.0864 8.68481 14.0864 8.18274C14.0864 7.68068 13.6794 7.27368 13.1774 7.27368C12.6753 7.27368 12.2683 7.68068 12.2683 8.18274C12.2683 8.68481 12.6753 9.09181 13.1774 9.09181Z" fill="#F6B545"/>
<path d="M26.8219 32.7254C27.324 32.7254 27.731 32.3184 27.731 31.8163C27.731 31.3142 27.324 30.9072 26.8219 30.9072C26.3198 30.9072 25.9128 31.3142 25.9128 31.8163C25.9128 32.3184 26.3198 32.7254 26.8219 32.7254Z" fill="#F6B545"/>
<path d="M8.18812 14.0963C8.69018 14.0963 9.09718 13.6893 9.09718 13.1873C9.09718 12.6852 8.69018 12.2782 8.18812 12.2782C7.68605 12.2782 7.27905 12.6852 7.27905 13.1873C7.27905 13.6893 7.68605 14.0963 8.18812 14.0963Z" fill="#F6B545"/>
<path d="M31.8156 27.7181C32.3176 27.7181 32.7246 27.3111 32.7246 26.8091C32.7246 26.307 32.3176 25.9 31.8156 25.9C31.3135 25.9 30.9065 26.307 30.9065 26.8091C30.9065 27.3111 31.3135 27.7181 31.8156 27.7181Z" fill="#F6B545"/>
<path d="M26.8099 9.09364C27.312 9.09364 27.719 8.68664 27.719 8.18458C27.719 7.68251 27.312 7.27551 26.8099 7.27551C26.3079 7.27551 25.9009 7.68251 25.9009 8.18458C25.9009 8.68664 26.3079 9.09364 26.8099 9.09364Z" fill="#F6B545"/>
<path d="M13.191 32.7208C13.6931 32.7208 14.1001 32.3138 14.1001 31.8118C14.1001 31.3097 13.6931 30.9027 13.191 30.9027C12.689 30.9027 12.282 31.3097 12.282 31.8118C12.282 32.3138 12.689 32.7208 13.191 32.7208Z" fill="#F6B545"/>
<path d="M31.8163 14.0863C32.3183 14.0863 32.7254 13.6793 32.7254 13.1773C32.7254 12.6752 32.3183 12.2682 31.8163 12.2682C31.3142 12.2682 30.9072 12.6752 30.9072 13.1773C30.9072 13.6793 31.3142 14.0863 31.8163 14.0863Z" fill="#F6B545"/>
<path d="M8.18274 27.7308C8.68481 27.7308 9.09181 27.3238 9.09181 26.8218C9.09181 26.3197 8.68481 25.9127 8.18274 25.9127C7.68068 25.9127 7.27368 26.3197 7.27368 26.8218C7.27368 27.3238 7.68068 27.7308 8.18274 27.7308Z" fill="#F6B545"/>
<path d="M20 17.7273V11.3636C20 11.0909 20.1818 10.9091 20.4545 10.9091C20.7273 10.9091 20.9091 11.0909 20.9091 11.3636V17.7273C20.9091 18 20.7273 18.1818 20.4545 18.1818C20.1818 18.1818 20 18 20 17.7273Z" fill="#35363E"/>
<path d="M27.4545 28.7273L21.1818 22.4546C21 22.2728 21 22 21.1818 21.8182C21.3636 21.6364 21.6363 21.6364 21.8181 21.8182L28.0908 28.091C28.2726 28.2728 28.2726 28.5455 28.0908 28.7273C27.909 28.9091 27.6363 28.9091 27.4545 28.7273Z" fill="#35363E"/>
<path d="M20 22.7272C21.5062 22.7272 22.7272 21.5062 22.7272 20C22.7272 18.4937 21.5062 17.2727 20 17.2727C18.4937 17.2727 17.2727 18.4937 17.2727 20C17.2727 21.5062 18.4937 22.7272 20 22.7272Z" fill="#C97629"/>
<path d="M21.4546 17.6364C21.7273 18.0909 21.8183 18.5454 21.8183 19.0909C21.8183 20.6364 20.6365 21.8181 19.091 21.8181C18.5455 21.8181 18.091 21.6364 17.6365 21.4545C18.1819 22.1817 19.0001 22.7272 20.0001 22.7272C21.5456 22.7272 22.7274 21.5454 22.7274 19.9999C22.7273 19 22.1819 18.1818 21.4546 17.6364Z" fill="#B06328"/>
<path d="M18.6364 20C18.8874 20 19.0909 19.7965 19.0909 19.5455C19.0909 19.2944 18.8874 19.0909 18.6364 19.0909C18.3854 19.0909 18.1819 19.2944 18.1819 19.5455C18.1819 19.7965 18.3854 20 18.6364 20Z" fill="#DA8C36"/>
</svg>
