<svg width="40" height="40" viewBox="0 0 40 40" fill="none" xmlns="http://www.w3.org/2000/svg">
<g clip-path="url(#clip0)">
<path d="M20.9091 39.091H0.909063C0.363672 39.091 0 38.7273 0 38.1819V36.3637C0 35.8182 0.363672 35.4546 0.909063 35.4546H20.9091C21.4545 35.4546 21.8181 35.8183 21.8181 36.3637V38.1819C21.8182 38.7273 21.4545 39.091 20.9091 39.091Z" fill="#F6B545"/>
<path d="M17.2727 36.3637H0C0 35.8182 0.363672 35.4546 0.909063 35.4546H17.2727V36.3637Z" fill="#FFCB5B"/>
<path d="M17.2727 36.3637V37.2728C17.2727 37.8183 16.9091 38.1818 16.3637 38.1818H0C0 38.7273 0.363672 39.0909 0.909063 39.0909H16.3636H20.9091C21.4545 39.0909 21.8181 38.7272 21.8181 38.1818V36.3636H17.2727V36.3637Z" fill="#F19920"/>
<path d="M2.72718 38.1818V36.8182C2.72718 36.5454 2.54538 36.3636 2.27265 36.3636C1.99991 36.3636 1.81812 36.5454 1.81812 36.8182V38.1818" fill="#F19920"/>
<path d="M5.45447 38.1818V36.8182C5.45447 36.5454 5.27268 36.3636 4.99994 36.3636C4.72721 36.3636 4.54541 36.5454 4.54541 36.8182V38.1818" fill="#F19920"/>
<path d="M8.18177 38.1818V36.8182C8.18177 36.5454 7.99997 36.3636 7.72724 36.3636C7.4545 36.3636 7.27271 36.5454 7.27271 36.8182V38.1818" fill="#F19920"/>
<path d="M10.9091 38.1818V36.8182C10.9091 36.5454 10.7273 36.3636 10.4545 36.3636C10.1818 36.3636 10 36.5454 10 36.8182V38.1818" fill="#F19920"/>
<path d="M13.6364 38.1818V36.8182C13.6364 36.5454 13.4546 36.3636 13.1818 36.3636C12.9091 36.3636 12.7273 36.5454 12.7273 36.8182V38.1818" fill="#F19920"/>
<path d="M16.3637 38.1818V36.8182C16.3637 36.5454 16.1819 36.3636 15.9091 36.3636C15.6364 36.3636 15.4546 36.5454 15.4546 36.8182V38.1818" fill="#F19920"/>
<path d="M22.7272 35.4546H2.72718C2.18171 35.4546 1.81812 35.0909 1.81812 34.5455V32.7273C1.81812 32.1818 2.18179 31.8182 2.72718 31.8182H22.7272C23.2726 31.8182 23.6362 32.1819 23.6362 32.7273V34.5455C23.6362 35.091 23.2726 35.4546 22.7272 35.4546Z" fill="#F6B545"/>
<path d="M19.0909 32.7273H1.81812C1.81812 32.1818 2.18179 31.8182 2.72718 31.8182H19.0909V32.7273Z" fill="#FFCB5B"/>
<path d="M19.0909 32.7273V33.6363C19.0909 34.1818 18.7272 34.5454 18.1818 34.5454H1.81812C1.81812 35.0908 2.18179 35.4544 2.72718 35.4544H18.1817H22.7272C23.2726 35.4544 23.6362 35.0908 23.6362 34.5454V32.7272H19.0909V32.7273Z" fill="#F19920"/>
<path d="M4.54529 34.5455V33.1818C4.54529 32.9091 4.3635 32.7273 4.09076 32.7273C3.81803 32.7273 3.63623 32.9091 3.63623 33.1818V34.5455" fill="#F19920"/>
<path d="M7.27259 34.5455V33.1818C7.27259 32.9091 7.09079 32.7273 6.81806 32.7273C6.54532 32.7273 6.36353 32.9091 6.36353 33.1818V34.5455" fill="#F19920"/>
<path d="M9.99988 34.5455V33.1818C9.99988 32.9091 9.81809 32.7273 9.54535 32.7273C9.27262 32.7273 9.09082 32.9091 9.09082 33.1818V34.5455" fill="#F19920"/>
<path d="M12.7272 34.5455V33.1818C12.7272 32.9091 12.5454 32.7273 12.2726 32.7273C11.9999 32.7273 11.8181 32.9091 11.8181 33.1818V34.5455" fill="#F19920"/>
<path d="M15.4545 34.5455V33.1818C15.4545 32.9091 15.2727 32.7273 14.9999 32.7273C14.7272 32.7273 14.5454 32.9091 14.5454 33.1818V34.5455" fill="#F19920"/>
<path d="M18.1818 34.5455V33.1818C18.1818 32.9091 18 32.7273 17.7272 32.7273C17.4545 32.7273 17.2727 32.9091 17.2727 33.1818V34.5455" fill="#F19920"/>
<path d="M24.5455 28.1817H4.54554C4.00007 28.1817 3.63647 27.8181 3.63647 27.2727V25.4545C3.63647 24.909 4.00015 24.5454 4.54554 24.5454H24.5455C25.091 24.5454 25.4546 24.9091 25.4546 25.4545V27.2727C25.4546 27.8181 25.091 28.1817 24.5455 28.1817Z" fill="#F6B545"/>
<path d="M20.909 25.4545H3.63623C3.63623 24.909 3.9999 24.5454 4.54529 24.5454H20.909V25.4545Z" fill="#FFCB5B"/>
<path d="M20.909 25.4545V26.3636C20.909 26.9091 20.5453 27.2727 19.9999 27.2727H3.63623C3.63623 27.8181 3.9999 28.1817 4.54529 28.1817H19.9999H24.5454C25.0908 28.1817 25.4544 27.8181 25.4544 27.2727V25.4545H20.909V25.4545Z" fill="#F19920"/>
<path d="M6.36365 27.2728V25.9091C6.36365 25.6364 6.18186 25.4546 5.90912 25.4546C5.63639 25.4546 5.45459 25.6364 5.45459 25.9091V27.2728" fill="#F19920"/>
<path d="M9.09095 27.2728V25.9091C9.09095 25.6364 8.90915 25.4546 8.63642 25.4546C8.36368 25.4546 8.18188 25.6364 8.18188 25.9091V27.2728" fill="#F19920"/>
<path d="M11.818 27.2728V25.9091C11.818 25.6364 11.6362 25.4546 11.3635 25.4546C11.0907 25.4546 10.9089 25.6364 10.9089 25.9091V27.2728" fill="#F19920"/>
<path d="M14.5453 27.2728V25.9091C14.5453 25.6364 14.3635 25.4546 14.0908 25.4546C13.818 25.4546 13.6362 25.6364 13.6362 25.9091V27.2728" fill="#F19920"/>
<path d="M17.2726 27.2728V25.9091C17.2726 25.6364 17.0908 25.4546 16.8181 25.4546C16.5453 25.4546 16.3635 25.6364 16.3635 25.9091V27.2728" fill="#F19920"/>
<path d="M19.9999 27.2728V25.9091C19.9999 25.6364 19.8181 25.4546 19.5454 25.4546C19.2726 25.4546 19.0908 25.6364 19.0908 25.9091V27.2728" fill="#F19920"/>
<path d="M22.7272 24.5455H2.72718C2.18171 24.5455 1.81812 24.1818 1.81812 23.6364V21.8182C1.81812 21.2728 2.18179 20.9092 2.72718 20.9092H22.7272C23.2726 20.9092 23.6362 21.2729 23.6362 21.8182V23.6364C23.6362 24.1818 23.2726 24.5455 22.7272 24.5455Z" fill="#F6B545"/>
<path d="M19.0909 21.8182H1.81812C1.81812 21.2728 2.18179 20.9092 2.72718 20.9092H19.0909V21.8182Z" fill="#FFCB5B"/>
<path d="M19.0909 21.8182V22.7273C19.0909 23.2727 18.7272 23.6363 18.1818 23.6363H1.81812C1.81812 24.1818 2.18179 24.5454 2.72718 24.5454H18.1817H22.7272C23.2726 24.5454 23.6362 24.1817 23.6362 23.6363V21.8181H19.0909V21.8182Z" fill="#F19920"/>
<path d="M4.54529 23.6363V22.2726C4.54529 21.9999 4.3635 21.8181 4.09076 21.8181C3.81803 21.8181 3.63623 21.9999 3.63623 22.2726V23.6363" fill="#F19920"/>
<path d="M7.27259 23.6363V22.2726C7.27259 21.9999 7.09079 21.8181 6.81806 21.8181C6.54532 21.8181 6.36353 21.9999 6.36353 22.2726V23.6363" fill="#F19920"/>
<path d="M9.99988 23.6363V22.2726C9.99988 21.9999 9.81809 21.8181 9.54535 21.8181C9.27262 21.8181 9.09082 21.9999 9.09082 22.2726V23.6363" fill="#F19920"/>
<path d="M12.7272 23.6363V22.2726C12.7272 21.9999 12.5454 21.8181 12.2726 21.8181C11.9999 21.8181 11.8181 21.9999 11.8181 22.2726V23.6363" fill="#F19920"/>
<path d="M15.4545 23.6363V22.2726C15.4545 21.9999 15.2727 21.8181 14.9999 21.8181C14.7272 21.8181 14.5454 21.9999 14.5454 22.2726V23.6363" fill="#F19920"/>
<path d="M18.1818 23.6363V22.2726C18.1818 21.9999 18 21.8181 17.7272 21.8181C17.4545 21.8181 17.2727 21.9999 17.2727 22.2726V23.6363" fill="#F19920"/>
<path d="M20.9091 31.8182H0.909063C0.363672 31.8182 0 31.4545 0 30.909V29.0908C0 28.5454 0.363672 28.1818 0.909063 28.1818H20.9091C21.4545 28.1818 21.8181 28.5454 21.8181 29.0908V30.909C21.8182 31.4545 21.4545 31.8182 20.9091 31.8182Z" fill="#F6B545"/>
<path d="M17.2727 29.0909H0C0 28.5455 0.363672 28.1819 0.909063 28.1819H17.2727V29.0909Z" fill="#FFCB5B"/>
<path d="M17.2727 29.0909V30C17.2727 30.5454 16.9091 30.909 16.3637 30.909H0C0 31.4545 0.363672 31.8181 0.909063 31.8181H16.3636H20.9091C21.4545 31.8181 21.8181 31.4544 21.8181 30.909V29.0908H17.2727V29.0909Z" fill="#F19920"/>
<path d="M2.72718 30.909V29.5454C2.72718 29.2726 2.54538 29.0908 2.27265 29.0908C1.99991 29.0908 1.81812 29.2726 1.81812 29.5454V30.909" fill="#F19920"/>
<path d="M5.45447 30.909V29.5454C5.45447 29.2726 5.27268 29.0908 4.99994 29.0908C4.72721 29.0908 4.54541 29.2726 4.54541 29.5454V30.909" fill="#F19920"/>
<path d="M8.18177 30.909V29.5454C8.18177 29.2726 7.99997 29.0908 7.72724 29.0908C7.4545 29.0908 7.27271 29.2726 7.27271 29.5454V30.909" fill="#F19920"/>
<path d="M10.9091 30.909V29.5454C10.9091 29.2726 10.7273 29.0908 10.4545 29.0908C10.1818 29.0908 10 29.2726 10 29.5454V30.909" fill="#F19920"/>
<path d="M13.6364 30.909V29.5454C13.6364 29.2726 13.4546 29.0908 13.1818 29.0908C12.9091 29.0908 12.7273 29.2726 12.7273 29.5454V30.909" fill="#F19920"/>
<path d="M16.3637 30.909V29.5454C16.3637 29.2726 16.1819 29.0908 15.9091 29.0908C15.6364 29.0908 15.4546 29.2726 15.4546 29.5454V30.909" fill="#F19920"/>
<path d="M38.1817 33.1818C36.9999 32.3636 36.3635 31 36.3635 29.5455C36.3635 24 34.1817 18.7273 30.2725 14.8182L26.3635 10.9091V8.18187L29.5453 4.18187C29.8181 3.8182 29.9999 3.36367 29.9999 2.90906C29.9999 1.81812 29.0908 0.909058 27.9999 0.909058H24.5454L23.6363 2.72726L21.8181 0.909058H17.4544C16.3635 0.909058 15.4544 1.81812 15.4544 2.90906C15.4544 3.36359 15.6362 3.81812 15.909 4.18179L19.0908 8.18179V10.9091L15.1817 14.8181C11.2726 18.7272 9.09075 23.9999 9.09075 29.5454C9.09075 30.9999 8.45442 32.3636 7.27255 33.1817C6.09067 33.9998 5.45435 35.3635 5.45435 36.818C5.45435 38.0908 6.45435 39.0908 7.72708 39.0908H37.7271C38.9998 39.0908 39.9998 38.0908 39.9998 36.818C39.9999 35.3637 39.3636 34 38.1817 33.1818Z" fill="#C97629"/>
<path d="M38.1817 33.1818C36.9999 32.2727 36.3635 30.9091 36.3635 29.4545C36.4545 23.7273 33.8181 18.3636 29.8181 14.2727L26.3635 10.9091V8.18179L29.5453 4.18179C30.0908 3.54546 30.1817 2.63632 29.7271 1.81812C29.3635 1.18179 28.6362 0.909058 27.9089 0.909058C27.2726 0.909058 26.9089 1.63632 27.0907 2.18179C27.1817 2.36359 27.2725 2.63632 27.2725 2.90906C27.2725 3.36359 27.0907 3.81812 26.818 4.18179L23.6362 8.18179V10.9091H19.0907L18.1817 11.8181H24.5453L27.909 15.1818C31.6363 18.9091 33.0908 24 32.7272 29.1818C32.6363 30.7273 33.2727 32.1818 34.4545 33.0909C34.5454 33.1818 34.6363 33.2727 34.7272 33.2727C36.0909 34.7272 34.909 37.1817 32.8181 37.1817H5.54541C5.72721 38.1817 6.63635 38.9999 7.72721 38.9999H34.0909H36.3636H37.7273C38.9999 39 39.9999 38 39.9999 36.7273V36.5455C39.9999 35.1818 39.2727 34 38.1817 33.1818Z" fill="#B06328"/>
<path d="M26.8183 10.9091H18.6364C17.9091 10.9091 17.2727 10.2728 17.2727 9.54543C17.2727 8.81817 17.909 8.18176 18.6364 8.18176H26.8182C27.5454 8.18176 28.1818 8.81809 28.1818 9.54543C28.1818 10.2728 27.5455 10.9091 26.8183 10.9091Z" fill="#FFCB5B"/>
<path d="M18.6364 8.18176H23.1819C23.4546 8.18176 23.6364 8.36356 23.6364 8.63629C23.6364 8.90903 23.4546 9.09083 23.1819 9.09083H18.6364C18.3637 9.09083 18.1819 8.90903 18.1819 8.63629C18.1819 8.36364 18.3638 8.18176 18.6364 8.18176Z" fill="#FFE278"/>
<path d="M26.8183 8.18176H26.3638V9.09083C26.3638 9.6363 26.0001 9.99989 25.4547 9.99989H17.3638C17.5456 10.5454 18.091 10.909 18.6365 10.909H26.8183C27.5456 10.909 28.182 10.2726 28.182 9.54528C28.182 8.81794 27.5456 8.18176 26.8183 8.18176Z" fill="#F6B545"/>
<path d="M24.091 10H26.8183C27.091 10 27.2728 10.1818 27.2728 10.4545C27.2728 10.7273 27.091 10.9091 26.8183 10.9091H24.091C23.8183 10.9091 23.6365 10.7273 23.6365 10.4545C23.6364 10.1818 23.8183 10 24.091 10Z" fill="#F19920"/>
<path d="M23.6363 10.9091H21.8181V18.1818H23.6363V10.9091Z" fill="#F6B545"/>
<path d="M21.8181 10.9091V11.8182H22.7272V18.1818H23.6362V11.8182V10.9091H21.8181Z" fill="#F19920"/>
<path d="M22.7273 31.8182C26.7439 31.8182 30.0001 28.5621 30.0001 24.5454C30.0001 20.5288 26.7439 17.2727 22.7273 17.2727C18.7107 17.2727 15.4546 20.5288 15.4546 24.5454C15.4546 28.5621 18.7107 31.8182 22.7273 31.8182Z" fill="#F6B545"/>
<path d="M28.2729 19.9092C29.3638 21.1819 30.0001 22.7274 30.0001 24.5456C30.0001 28.5456 26.7274 31.8183 22.7274 31.8183C20.9092 31.8183 19.3637 31.182 18.0911 30.0911C19.4547 31.7274 21.4547 32.7274 23.6365 32.7274C27.6365 32.7274 30.9093 29.4546 30.9093 25.4546C30.9092 23.1819 29.9092 21.1819 28.2729 19.9092Z" fill="#B06328"/>
<path d="M22.7272 30.9091C26.2417 30.9091 29.0909 28.06 29.0909 24.5454C29.0909 21.0309 26.2417 18.1818 22.7272 18.1818C19.2126 18.1818 16.3635 21.0309 16.3635 24.5454C16.3635 28.06 19.2126 30.9091 22.7272 30.9091Z" fill="#FFCB5B"/>
<path d="M29.091 24.5454C29.091 28.0909 26.2728 30.9091 22.7273 30.9091V31.8181C26.7273 31.8181 30 28.5454 30 24.5454H29.091Z" fill="#F19920"/>
<path d="M22.7273 18.1818V17.2727C18.7273 17.2727 15.4546 20.5454 15.4546 24.5454H16.3637C16.3637 21 19.1819 18.1818 22.7273 18.1818Z" fill="#FFE27A"/>
<path d="M23.6362 23.6364H21.818C21.2725 23.6364 20.9089 23.2727 20.9089 22.7273C20.9089 22.1818 21.2726 21.8183 21.818 21.8183H24.5453C25.0907 21.8183 25.4543 21.4546 25.4543 20.9092C25.4543 20.3637 25.0907 20.0001 24.5453 20.0001H23.6362C23.6362 19.4547 23.2725 19.0911 22.7271 19.0911C22.1817 19.0911 21.8181 19.4547 21.8181 20.0001C20.2726 20.0001 19.0908 21.1819 19.0908 22.7274C19.0908 24.2729 20.2726 25.4547 21.8181 25.4547H23.6363C24.1817 25.4547 24.5453 25.8183 24.5453 26.3637C24.5453 26.9091 24.1817 27.2728 23.6363 27.2728H20.909C20.3636 27.2728 20 27.6365 20 28.1819C20 28.7273 20.3636 29.0909 20.909 29.0909H21.8181C21.8181 29.6364 22.1818 30 22.7271 30C23.2726 30 23.6362 29.6363 23.6362 29.0909C25.1817 29.0909 26.3635 27.9091 26.3635 26.3637C26.3635 24.8182 25.1817 23.6364 23.6362 23.6364Z" fill="#E78825"/>
</g>
<defs>
<clipPath id="clip0">
<rect width="40" height="40" fill="white"/>
</clipPath>
</defs>
</svg>
