<svg width="40" height="40" viewBox="0 0 40 40" fill="none" xmlns="http://www.w3.org/2000/svg">
<g clip-path="url(#clip0)">
<path d="M31.4287 28.0483L34.0001 25.4768C34.1906 25.2864 34.3811 25.1911 34.6668 25.1911H36.762C37.0477 25.1911 37.2382 25.0959 37.4286 24.9054L40 22.334V38.5245H31.4287V28.0483Z" fill="#697F90"/>
<path d="M0 21.3809H7.80951C8.28569 21.3809 8.76187 21.5713 9.14286 21.9523L13.3333 26.1428V38.5238H0V21.3809Z" fill="#697F90"/>
<path d="M20 18.5237C19.4285 18.5237 19.0476 18.1427 19.0476 17.5713V2.33321C19.0476 1.76177 19.4286 1.38086 20 1.38086C20.5714 1.38086 20.9523 1.76185 20.9523 2.33321V17.5713C20.9523 18.1428 20.5713 18.5237 20 18.5237Z" fill="#C97629"/>
<path d="M20 17.5721V2.81016C20 2.52444 20.1905 2.33398 20.4762 2.33398C20.7619 2.33398 20.9524 2.61971 20.9524 2.81016V17.5721C20.9524 17.8578 20.7619 18.0483 20.4762 18.0483C20.1905 18.0483 20 17.8578 20 17.5721Z" fill="#B06328"/>
<path d="M20.9524 3.28613H29.5238L27.6191 7.0957L29.5238 10.9052H20.9524" fill="#F04B4D"/>
<path d="M20.0001 17.5713H22.6667C23.4286 17.5713 24.0954 17.9523 24.381 18.6189L26.1905 22.2379C26.4762 22.9046 27.1429 23.2856 27.9048 23.2856H30.381C31.0476 23.2856 31.7143 23.6666 32.0001 24.2379L36.5715 31.9522C36.9525 32.5237 37.5239 32.9046 38.1906 32.9046C39.1429 32.9046 40.0001 33.6665 40.0001 34.7141V38.6189H0V34.7141C0 33.7618 0.761898 32.9046 1.80952 32.9046H1.90479C2.57142 32.9046 3.14286 32.6189 3.52385 32.0474L8.09532 25.1903C8.47631 24.6188 9.04768 24.3331 9.71439 24.3331H12.1906C12.9525 24.3331 13.6192 23.8569 13.9049 23.1902L15.8097 18.8093C16.0954 18.1427 16.762 17.6664 17.5239 17.6664" fill="#697F90"/>
<path d="M6.57144 32.8095C7.23807 32.8095 7.90478 32.5238 8.1905 31.9523L10.8572 25.0952C11.2382 24.5237 11.8095 24.238 12.4762 24.238H14.9525C15.7144 24.238 16.3811 23.7618 16.6667 23.0951L19.0477 17.5713H17.4286C16.6667 17.5713 16 18.0475 15.7144 18.7142L13.8096 23.0951C13.5239 23.7617 12.8572 24.238 12.0953 24.238H9.61911C8.95248 24.238 8.38104 24.5237 8.00005 25.0952L3.42858 31.9523C3.04759 32.5238 2.47623 32.8095 1.80952 32.8095C0.857166 32.8095 0 33.5714 0 34.619V38.5238H4.76192V34.619C4.76192 33.5714 5.52382 32.8095 6.57144 32.8095Z" fill="#7B93A3"/>
<path d="M38.1905 32.8089C37.5238 32.8089 36.8571 32.4279 36.5714 31.8565L31.9999 24.1422C31.6189 23.5708 31.0476 23.1899 30.3809 23.1899H27.9047C27.1428 23.1899 26.476 22.8089 26.1904 22.1422L24.3809 18.5232C24.0952 17.8566 23.4285 17.4756 22.6666 17.4756H20.9524L23.2381 22.1422C23.5238 22.8089 24.1904 23.1899 24.9523 23.1899H27.4286C28.0952 23.1899 28.7619 23.5708 29.0476 24.1422L31.7143 31.8565C32.0953 32.428 32.6667 32.8089 33.3334 32.8089C34.2857 32.8089 35.1429 33.5708 35.1429 34.6184V38.5232H39.9048V34.6184C40 33.5708 39.2381 32.8089 38.1905 32.8089Z" fill="#4F6473"/>
<path d="M14.2856 31.8569C14.8116 31.8569 15.238 31.4305 15.238 30.9045C15.238 30.3785 14.8116 29.9521 14.2856 29.9521C13.7596 29.9521 13.3333 30.3785 13.3333 30.9045C13.3333 31.4305 13.7596 31.8569 14.2856 31.8569Z" fill="#4F6473"/>
<path d="M21.9047 28.9994C22.4307 28.9994 22.8571 28.573 22.8571 28.0471C22.8571 27.5211 22.4307 27.0947 21.9047 27.0947C21.3788 27.0947 20.9524 27.5211 20.9524 28.0471C20.9524 28.573 21.3788 28.9994 21.9047 28.9994Z" fill="#4F6473"/>
<path d="M23.8095 36.6186C24.3355 36.6186 24.7619 36.1922 24.7619 35.6662C24.7619 35.1403 24.3355 34.7139 23.8095 34.7139C23.2836 34.7139 22.8572 35.1403 22.8572 35.6662C22.8572 36.1922 23.2836 36.6186 23.8095 36.6186Z" fill="#4F6473"/>
<path d="M26.1905 33.7619C26.4535 33.7619 26.6667 33.5487 26.6667 33.2857C26.6667 33.0228 26.4535 32.8096 26.1905 32.8096C25.9275 32.8096 25.7144 33.0228 25.7144 33.2857C25.7144 33.5487 25.9275 33.7619 26.1905 33.7619Z" fill="#4F6473"/>
<path d="M7.14292 30.9045C7.40591 30.9045 7.6191 30.6913 7.6191 30.4283C7.6191 30.1653 7.40591 29.9521 7.14292 29.9521C6.87994 29.9521 6.66675 30.1653 6.66675 30.4283C6.66675 30.6913 6.87994 30.9045 7.14292 30.9045Z" fill="#697F90"/>
<path d="M28.0953 30.9045C28.3583 30.9045 28.5715 30.6913 28.5715 30.4283C28.5715 30.1653 28.3583 29.9521 28.0953 29.9521C27.8323 29.9521 27.6191 30.1653 27.6191 30.4283C27.6191 30.6913 27.8323 30.9045 28.0953 30.9045Z" fill="#4F6473"/>
<path d="M2.38096 35.6662C2.64394 35.6662 2.85713 35.453 2.85713 35.19C2.85713 34.9271 2.64394 34.7139 2.38096 34.7139C2.11798 34.7139 1.90479 34.9271 1.90479 35.19C1.90479 35.453 2.11798 35.6662 2.38096 35.6662Z" fill="#697F90"/>
<path d="M19.524 32.8088C19.787 32.8088 20.0002 32.5956 20.0002 32.3326C20.0002 32.0696 19.787 31.8564 19.524 31.8564C19.261 31.8564 19.0479 32.0696 19.0479 32.3326C19.0479 32.5956 19.261 32.8088 19.524 32.8088Z" fill="#4F6473"/>
<path d="M15.7145 35.6662C15.9774 35.6662 16.1906 35.453 16.1906 35.19C16.1906 34.9271 15.9774 34.7139 15.7145 34.7139C15.4515 34.7139 15.2383 34.9271 15.2383 35.19C15.2383 35.453 15.4515 35.6662 15.7145 35.6662Z" fill="#4F6473"/>
<path d="M27.1429 28.0481C27.4059 28.0481 27.6191 27.8349 27.6191 27.5719C27.6191 27.3089 27.4059 27.0957 27.1429 27.0957C26.8799 27.0957 26.6667 27.3089 26.6667 27.5719C26.6667 27.8349 26.8799 28.0481 27.1429 28.0481Z" fill="#4F6473"/>
<path d="M9.04771 36.6184C9.31069 36.6184 9.52389 36.4052 9.52389 36.1422C9.52389 35.8792 9.31069 35.666 9.04771 35.666C8.78472 35.666 8.57153 35.8792 8.57153 36.1422C8.57153 36.4052 8.78472 36.6184 9.04771 36.6184Z" fill="#4F6473"/>
<path d="M18.5716 23.2854C18.8346 23.2854 19.0478 23.0722 19.0478 22.8092C19.0478 22.5462 18.8346 22.333 18.5716 22.333C18.3086 22.333 18.0955 22.5462 18.0955 22.8092C18.0955 23.0722 18.3086 23.2854 18.5716 23.2854Z" fill="#4F6473"/>
<path d="M30.0001 35.6662C30.2631 35.6662 30.4763 35.453 30.4763 35.19C30.4763 34.9271 30.2631 34.7139 30.0001 34.7139C29.7371 34.7139 29.5239 34.9271 29.5239 35.19C29.5239 35.453 29.7371 35.6662 30.0001 35.6662Z" fill="#4F6473"/>
<path d="M17.6192 27.0949C17.8822 27.0949 18.0954 26.8817 18.0954 26.6188C18.0954 26.3558 17.8822 26.1426 17.6192 26.1426C17.3563 26.1426 17.1431 26.3558 17.1431 26.6188C17.1431 26.8817 17.3563 27.0949 17.6192 27.0949Z" fill="#4F6473"/>
<path d="M27.6191 7.0957H22.8572C22.2857 7.0957 21.9048 6.71471 21.9048 6.14335V3.28613H20.9524V10.9052H21.9047H29.5238L27.6191 7.0957Z" fill="#DE333F"/>
</g>
<defs>
<clipPath id="clip0">
<rect width="40" height="40" fill="white"/>
</clipPath>
</defs>
</svg>
