<svg width="40" height="40" viewBox="0 0 40 40" fill="none" xmlns="http://www.w3.org/2000/svg">
<g clip-path="url(#clip0)">
<path d="M27.2612 32.7273H12.7157C12.1702 32.7273 11.8066 32.3636 11.8066 31.8182C11.8066 31.2729 12.1703 30.9092 12.7157 30.9092H27.2612C27.8066 30.9092 28.1702 31.2729 28.1702 31.8182C28.1702 32.3636 27.8066 32.7273 27.2612 32.7273Z" fill="#35495C"/>
<path d="M14.6248 31.2729L14.7157 30.9092H12.8066L12.443 31.8182H11.8066C11.8066 32.1819 12.0794 32.5455 12.443 32.6364C12.5339 32.6364 12.6248 32.7274 12.7157 32.7274H14.1702H27.2612C27.8066 32.7274 28.1702 32.3637 28.1702 31.8183H15.0794C14.8066 31.8183 14.5339 31.5456 14.6248 31.2729Z" fill="#123247"/>
<path d="M31.8066 38.182H30.6248L26.7157 27.2729H24.8066L29.1703 39.3639C29.2613 39.7276 29.6248 40.0002 29.9885 40.0002H31.8067C32.3522 40.0002 32.7158 39.6365 32.7158 39.0912C32.7158 38.5458 32.3521 38.182 31.8066 38.182Z" fill="#576D7E"/>
<path d="M13.2612 27.2729L9.35209 38.182H8.17029C7.62482 38.182 7.26123 38.5457 7.26123 39.0911C7.26123 39.6365 7.62475 40.0002 8.17022 40.0002H9.98842C10.3521 40.0002 10.7157 39.7275 10.8066 39.3639L15.1703 27.2729H13.2612Z" fill="#576D7E"/>
<path d="M31.8066 38.1816H30.8975C31.443 38.1816 31.8066 38.5453 31.8066 39.0907C31.8066 39.6361 31.4429 39.9998 30.8975 39.9998H31.8065C32.352 39.9998 32.7156 39.6362 32.7156 39.0908C32.7156 38.5454 32.3521 38.1816 31.8066 38.1816Z" fill="#35495C"/>
<path d="M35.443 27.2726H4.53391C2.98844 27.2726 1.80664 26.0908 1.80664 24.5454V3.63623H38.1703V24.5453C38.1702 26.0908 36.9884 27.2726 35.443 27.2726Z" fill="#B0C4D8"/>
<path d="M26.7157 27.2729H25.8066H24.8066L25.443 29.0912C26.0793 29.0912 26.6248 29.4548 26.8066 30.0912L29.443 37.3639C29.6248 37.9094 30.0793 38.1821 30.6248 38.1821L26.8066 27.5458L26.7157 27.2729Z" fill="#35495C"/>
<path d="M14.2611 27.2729H13.2611L12.6248 29.0912H12.8066C13.1703 29.0912 13.4429 29.4548 13.3521 29.8184L9.98841 39.3639C9.80661 39.7276 9.44294 40.0002 9.07935 40.0002H9.98841C10.3521 40.0002 10.7157 39.7275 10.8066 39.3639L15.1703 27.2729H14.2611Z" fill="#35495C"/>
<path d="M36.3521 4.54541V7.27268V24.5454H3.62476C3.62476 25.5454 4.44296 26.3636 5.44296 26.3636H35.443C36.443 26.3636 37.2612 25.5454 37.2612 24.5454V8.18174C37.2612 7.63627 37.6248 7.27268 38.1702 7.27268V4.54541H36.3521Z" fill="#99B4CD"/>
<path d="M35.4429 25.4546H4.53382C3.98835 25.4546 3.62476 25.0909 3.62476 24.5455V5.45459H36.352V24.5455C36.352 25.091 35.9883 25.4546 35.4429 25.4546Z" fill="#ECEFF9"/>
<path d="M15.4428 22.7273C15.261 22.7273 15.0792 22.6364 14.8974 22.5455C14.5337 22.2728 14.3519 21.7273 14.7156 21.2728L19.2611 14.9091C19.5338 14.4546 20.0793 14.3637 20.5338 14.7273C20.8975 15.0001 21.0793 15.5455 20.7156 16.0001L16.1701 22.3637C15.9883 22.6364 15.7156 22.7273 15.4428 22.7273Z" fill="#B0C4D8"/>
<path d="M26.3519 19.0911C26.2609 19.0911 26.0792 19.0911 25.9882 19.0001L19.6245 16.2729C19.17 16.0911 18.9882 15.5456 19.17 15.0911C19.3518 14.6366 19.8973 14.4548 20.3518 14.6366L26.7155 17.3638C27.17 17.5456 27.3518 18.0911 27.17 18.5456C27.0792 18.9092 26.7155 19.0911 26.3519 19.0911Z" fill="#B0C4D8"/>
<path d="M26.352 18.1819C26.2611 18.1819 26.0793 18.1819 25.9883 18.0909L19.6247 15.3637C19.4429 15.2727 19.3519 15.1819 19.1701 15L19.0792 15.0909C18.8974 15.5455 19.0792 16.0909 19.5337 16.2727L25.8974 19C26.0792 19.0909 26.2611 19.0909 26.3519 19.0909C26.7156 19.0909 27.0792 18.9091 27.1701 18.5455C27.2611 18.2727 27.2611 18 27.0792 17.7273C26.9883 18.0001 26.6246 18.1819 26.352 18.1819Z" fill="#99B4CD"/>
<path d="M26.3521 19.0909C26.1703 19.0909 25.9884 19.0909 25.8976 18.9091C25.443 18.6364 25.3521 18.0909 25.6248 17.6364L30.1703 10.3636C30.4431 9.90911 30.9885 9.81817 31.4431 10.0909C31.8976 10.3636 31.9885 10.9091 31.7158 11.3636L27.1703 18.6364C26.9884 18.909 26.6248 19.0909 26.3521 19.0909Z" fill="#B0C4D8"/>
<path d="M15.443 22.7273C15.352 22.7273 15.1702 22.7273 15.0793 22.6364L8.7156 19.9091C8.26107 19.7273 8.07927 19.1819 8.26107 18.7273C8.44287 18.2728 8.98834 18.091 9.44287 18.2728L15.8065 21.0001C16.2611 21.1819 16.4429 21.7273 16.2611 22.1819C16.1702 22.5455 15.8066 22.7273 15.443 22.7273Z" fill="#B0C4D8"/>
<path d="M16.1702 21.3636C16.0793 21.6363 15.7157 21.8181 15.443 21.8181C15.352 21.8181 15.1703 21.8181 15.0793 21.7272L8.71572 18.9999C8.53392 18.909 8.44298 18.8181 8.26119 18.6362L8.17025 18.7272C7.98845 19.1817 8.17025 19.7272 8.62478 19.909L14.9885 22.6362C15.1702 22.7272 15.3521 22.7272 15.443 22.7272C15.8067 22.7272 16.1702 22.5454 16.2612 22.1817C16.3521 21.909 16.3521 21.6362 16.1702 21.3636Z" fill="#99B4CD"/>
<path d="M15.443 23.6364C16.4471 23.6364 17.2612 22.8224 17.2612 21.8182C17.2612 20.814 16.4471 20 15.443 20C14.4388 20 13.6248 20.814 13.6248 21.8182C13.6248 22.8224 14.4388 23.6364 15.443 23.6364Z" fill="#EE2C39"/>
<path d="M9.07919 20.9094C10.0834 20.9094 10.8974 20.0953 10.8974 19.0912C10.8974 18.087 10.0834 17.2729 9.07919 17.2729C8.07502 17.2729 7.26099 18.087 7.26099 19.0912C7.26099 20.0953 8.07502 20.9094 9.07919 20.9094Z" fill="#3BB54A"/>
<path d="M19.9884 17.2726C20.9925 17.2726 21.8066 16.4586 21.8066 15.4544C21.8066 14.4503 20.9925 13.6362 19.9884 13.6362C18.9842 13.6362 18.1702 14.4503 18.1702 15.4544C18.1702 16.4586 18.9842 17.2726 19.9884 17.2726Z" fill="#3BB54A"/>
<path d="M26.3521 19.9997C27.3563 19.9997 28.1703 19.1856 28.1703 18.1815C28.1703 17.1773 27.3563 16.3633 26.3521 16.3633C25.348 16.3633 24.5339 17.1773 24.5339 18.1815C24.5339 19.1856 25.348 19.9997 26.3521 19.9997Z" fill="#EE2C39"/>
<path d="M30.8973 12.7272C31.9015 12.7272 32.7155 11.9132 32.7155 10.909C32.7155 9.90486 31.9015 9.09082 30.8973 9.09082C29.8931 9.09082 29.0791 9.90486 29.0791 10.909C29.0791 11.9132 29.8931 12.7272 30.8973 12.7272Z" fill="#3BB54A"/>
<path d="M29.2611 11.7275L29.0793 12.0912C29.0793 12.273 29.1703 12.5457 29.2611 12.6367C29.4429 13.0004 29.4429 13.3639 29.2611 13.7276L27.3521 16.7276C27.5338 16.9094 27.7157 17.0913 27.8975 17.3639L30.2612 13.5457L30.8067 12.7275C30.1702 12.7275 29.6247 12.273 29.2611 11.7275Z" fill="#99B4CD"/>
<path d="M18.352 16.1821L18.1702 16.4549C18.1702 16.7276 18.2612 16.9094 18.352 17.0912C18.5338 17.4549 18.443 17.9094 18.2611 18.1821L16.6248 20.4549C16.8066 20.6367 16.9884 20.8185 17.0793 21.0912L19.2611 18.0912L19.8066 17.273C19.1701 17.1821 18.6247 16.8185 18.352 16.1821Z" fill="#99B4CD"/>
<path d="M27.6249 19.4546C28.1704 18.9091 28.2612 18 27.9886 17.3636C27.8976 17.0909 27.4431 17.0909 27.2613 17.2727L25.4431 19.0909C25.2613 19.2727 25.2613 19.6364 25.534 19.8182C26.2613 20.1818 27.0795 20 27.6249 19.4546Z" fill="#CC202C"/>
<path d="M16.7157 23.0913C17.2612 22.5458 17.352 21.6368 17.0794 21.0004C16.9885 20.7276 16.5339 20.7276 16.3521 20.9094L14.5339 22.7276C14.3521 22.9094 14.3521 23.2731 14.6249 23.4549C15.3521 23.8186 16.1703 23.6367 16.7157 23.0913Z" fill="#CC202C"/>
<path d="M32.1701 12.1816C32.7155 11.6362 32.8064 10.7271 32.5337 10.0907C32.4428 9.81795 31.9883 9.81795 31.8065 9.99974L29.9883 11.8179C29.8065 11.9997 29.8065 12.3634 30.0792 12.5452C30.8065 12.9089 31.6246 12.7271 32.1701 12.1816Z" fill="#0E9347"/>
<path d="M21.2611 16.727C21.8066 16.1816 21.8975 15.2725 21.6248 14.6361C21.5339 14.3634 21.0793 14.3634 20.8975 14.5452L19.0793 16.3634C18.8975 16.5452 18.8975 16.9088 19.1703 17.0906C19.8975 17.4543 20.7157 17.2725 21.2611 16.727Z" fill="#0E9347"/>
<path d="M10.352 20.3633C10.8975 19.8178 10.9884 18.9087 10.7157 18.2723C10.6248 17.9996 10.1702 17.9996 9.98844 18.1814L8.17015 19.9996C7.98836 20.1814 7.98836 20.545 8.26109 20.7268C8.98836 21.0905 9.80656 20.9086 10.352 20.3633Z" fill="#0E9347"/>
<path d="M36.352 5.45459H3.62476V7.27279H36.352V5.45459Z" fill="#C4D7E5"/>
<path d="M3.62484 4.54541H1.80664V7.27268H3.62484V4.54541Z" fill="#99B4CD"/>
<path d="M37.2611 5.45476H2.71566C1.71566 5.45476 0.897461 4.63656 0.897461 3.63656C0.897461 2.63656 1.71566 1.81836 2.71566 1.81836H37.2611C38.2611 1.81836 39.0793 2.63656 39.0793 3.63656C39.0793 4.63656 38.2611 5.45476 37.2611 5.45476Z" fill="#4C9CD6"/>
<path d="M4.07929 1.81836H9.53382C9.80655 1.81836 9.98835 2.00016 9.98835 2.27289C9.98835 2.54562 9.80655 2.72742 9.53382 2.72742H4.07929C3.80655 2.72742 3.62476 2.54562 3.62476 2.27289C3.62468 2.00016 3.80655 1.81836 4.07929 1.81836Z" fill="#70B7E5"/>
<path d="M7.71552 9.09131H13.17C13.4428 9.09131 13.6246 9.27311 13.6246 9.54584C13.6246 9.81857 13.4428 10.0004 13.17 10.0004H7.71552C7.44278 10.0004 7.26099 9.81857 7.26099 9.54584C7.26099 9.27311 7.44278 9.09131 7.71552 9.09131Z" fill="#99B4CD"/>
<path d="M7.71552 10.9097H12.261C12.5337 10.9097 12.7155 11.0915 12.7155 11.3642C12.7155 11.6369 12.5337 11.8187 12.261 11.8187H7.71552C7.44278 11.8187 7.26099 11.6369 7.26099 11.3642C7.26099 11.0915 7.44278 10.9097 7.71552 10.9097Z" fill="#99B4CD"/>
<path d="M11.352 2.72742C11.0793 2.72742 10.8975 2.54562 10.8975 2.27289C10.8975 2.00016 11.0793 1.81836 11.352 1.81836C11.6247 1.81836 11.8065 2.00016 11.8065 2.27289C11.8065 2.54562 11.6246 2.72742 11.352 2.72742Z" fill="#70B7E5"/>
<path d="M20.8975 1.8182H19.0793V0.909063C19.0794 0.363672 19.443 0 19.9885 0C20.5339 0 20.8975 0.363672 20.8975 0.909063V1.8182Z" fill="#576D7E"/>
<path d="M20.8974 1.81824V1.36371C20.8974 1.09098 20.7156 0.90918 20.4428 0.90918C20.1701 0.90918 19.9883 1.09098 19.9883 1.36371V1.81824H20.8974Z" fill="#35495C"/>
<path d="M5.8974 9.09131C5.62467 9.09131 5.44287 9.27311 5.44287 9.54584C5.44287 9.81857 5.62467 10.0004 5.8974 10.0004C6.17014 10.0004 6.35193 9.81857 6.35193 9.54584C6.35201 9.27311 6.17014 9.09131 5.8974 9.09131ZM5.8974 9.36404C5.8974 9.36404 5.8974 9.27311 5.8974 9.36404C5.8974 9.27311 5.8974 9.36404 5.8974 9.36404Z" fill="#EE2C39"/>
<path d="M5.8974 10.9087C5.62467 10.9087 5.44287 11.0905 5.44287 11.3632C5.44287 11.636 5.62467 11.8178 5.8974 11.8178C6.17014 11.8178 6.35193 11.636 6.35193 11.3632C6.35201 11.0906 6.17014 10.9087 5.8974 10.9087Z" fill="#3BB54A"/>
<path d="M37.2611 1.81836C37.2611 2.81836 36.4429 3.63656 35.4429 3.63656H0.897461C0.897461 4.63656 1.71566 5.45477 2.71566 5.45477H37.1702C38.0793 5.45477 38.8975 4.81844 39.0793 3.9093C39.2611 2.81836 38.3521 1.81836 37.2611 1.81836Z" fill="#3689C9"/>
<path d="M30.4428 4.54541H35.8973C36.1701 4.54541 36.3519 4.72721 36.3519 4.99994C36.3519 5.27268 36.1701 5.45447 35.8973 5.45447H30.4428C30.1701 5.45447 29.9883 5.27268 29.9883 4.99994C29.9883 4.72721 30.1701 4.54541 30.4428 4.54541Z" fill="#1470B8"/>
<path d="M25.8974 4.54541H28.6247C28.8974 4.54541 29.0792 4.72721 29.0792 4.99994C29.0792 5.27268 28.8974 5.45447 28.6247 5.45447H25.8974C25.6247 5.45447 25.4429 5.27268 25.4429 4.99994C25.4429 4.72721 25.6247 4.54541 25.8974 4.54541Z" fill="#1470B8"/>
</g>
<defs>
<clipPath id="clip0">
<rect width="40" height="40" fill="white"/>
</clipPath>
</defs>
</svg>
