<svg width="75" height="75" viewBox="0 0 75 75" fill="none" xmlns="http://www.w3.org/2000/svg">
<path d="M71.4844 11.7188H50.3906C50.0798 11.7188 49.7818 11.8422 49.562 12.062C49.3422 12.2818 49.2188 12.5798 49.2188 12.8906V30.796L43.1689 32.8125H38.6719C37.7626 32.8145 36.8661 33.0271 36.0528 33.4338C35.2395 33.8404 34.5315 34.43 33.9844 35.1562L31.875 37.9688C31.7057 38.1944 31.6236 38.4736 31.6436 38.755C31.6635 39.0363 31.7844 39.3011 31.9838 39.5005L37.1016 44.6183L33.4211 49.2188H27.7926C27.1972 47.226 26.8645 45.164 26.8031 43.085C26.6389 37.7632 28.1834 32.972 31.3938 28.8445H31.3929C31.5537 28.6392 31.6409 28.3858 31.6406 28.125V22.2656C31.6406 21.9548 31.5172 21.6568 31.2974 21.437C31.0776 21.2172 30.7796 21.0938 30.4688 21.0938H26.9531V18.75H30.4688C30.7796 18.75 31.0776 18.6265 31.2974 18.4068C31.5172 18.187 31.6406 17.8889 31.6406 17.5781V12.8906C31.6406 12.5798 31.5172 12.2818 31.2974 12.062C31.0776 11.8422 30.7796 11.7188 30.4688 11.7188H28.125C27.1929 11.7198 26.2993 12.0905 25.6402 12.7496C24.9812 13.4087 24.6104 14.3023 24.6094 15.2344V21.2117C23.2869 21.4835 22.0985 22.203 21.2447 23.2488C20.3908 24.2947 19.9236 25.603 19.9219 26.9531V28.125C19.9217 28.279 19.9519 28.4314 20.0108 28.5737C20.0698 28.7159 20.1562 28.8451 20.2652 28.9538C16.8549 30.653 12.5602 33.6527 9.8228 38.7007C5.8853 39.0009 2.34375 41.6927 2.34375 44.5312C2.34375 44.8421 2.46721 45.1401 2.68698 45.3599C2.90675 45.5797 3.20482 45.7031 3.51562 45.7031H5.02998C3.98759 46.8694 3.21768 48.253 2.77602 49.7535C2.33435 51.2541 2.232 52.8341 2.47637 54.3792C2.72073 55.9242 3.30571 57.3955 4.18891 58.6865C5.07211 59.9775 6.23142 61.056 7.58285 61.8436C8.93429 62.6313 10.444 63.1085 12.0026 63.2406C13.5613 63.3728 15.1298 63.1566 16.5945 62.6077C18.0593 62.0589 19.3836 61.1911 20.4716 60.0672C21.5596 58.9433 22.3839 57.5915 22.885 56.1097C23.0548 56.2013 23.2446 56.2495 23.4375 56.25H49.8185C50.4195 57.9525 51.4476 59.4722 52.8042 60.6636C54.1608 61.855 55.8005 62.6782 57.5664 63.0543C59.3323 63.4305 61.1652 63.347 62.8895 62.8119C64.6139 62.2768 66.172 61.308 67.4148 59.9983C68.6575 58.6885 69.5432 57.0817 69.987 55.3316C70.4308 53.5815 70.4179 51.7467 69.9496 50.0031C69.4813 48.2594 68.5731 46.6651 67.3122 45.3729C66.0512 44.0807 64.4796 43.1338 62.7479 42.623L64.7972 41.0556L68.5594 43.2047C68.6931 43.2831 68.841 43.3342 68.9946 43.355C69.1482 43.3758 69.3044 43.3659 69.4542 43.326C69.6039 43.286 69.7443 43.2168 69.8671 43.1222C69.9899 43.0276 70.0927 42.9096 70.1696 42.775C70.2465 42.6404 70.2959 42.4919 70.315 42.3381C70.3341 42.1843 70.3225 42.0282 70.2808 41.8789C70.2392 41.7296 70.1684 41.5901 70.0724 41.4683C69.9765 41.3466 69.8573 41.2451 69.7219 41.1697L65.9145 38.9947L67.6808 32.8125H71.4844C71.7952 32.8125 72.0932 32.689 72.313 32.4693C72.5328 32.2495 72.6562 31.9514 72.6562 31.6406V12.8906C72.6562 12.5798 72.5328 12.2818 72.313 12.062C72.0932 11.8422 71.7952 11.7188 71.4844 11.7188ZM51.5625 23.4375H53.9062V30.4688H51.5625V23.4375ZM56.25 30.4688V23.4375H65.625V30.4688H56.25ZM51.5625 21.0938V17.5749C52.5753 18.3388 53.8096 18.7513 55.0781 18.75H66.7969C68.0654 18.7513 69.2997 18.3388 70.3125 17.5749V21.0938H51.5625ZM66.7969 16.4062H55.0781C54.3514 16.4053 53.6427 16.1796 53.0494 15.76C52.4561 15.3403 52.0071 14.7474 51.7641 14.0625H70.1109C69.8679 14.7474 69.419 15.3403 68.8256 15.76C68.2323 16.1796 67.5236 16.4053 66.7969 16.4062ZM38.6719 35.1562H43.3594C43.4853 35.1562 43.6105 35.1359 43.73 35.096L50.5811 32.8125H56.0246L44.3058 37.5H35.1562L35.8594 36.5625C36.1876 36.1267 36.6124 35.7729 37.1004 35.5289C37.5884 35.285 38.1263 35.1574 38.6719 35.1562ZM29.2969 26.9531H26.9531V23.4375H29.2969V26.9531ZM26.9531 15.2344C26.9535 14.9237 27.0771 14.6258 27.2967 14.4061C27.5164 14.1864 27.8143 14.0628 28.125 14.0625H29.2969V16.4062H26.9531V15.2344ZM24.6094 23.6391V26.9531H22.2656C22.2665 26.2264 22.4923 25.5177 22.9119 24.9244C23.3315 24.331 23.9245 23.8821 24.6094 23.6391ZM10.0219 41.0374L11.9865 43.3594H5.15933C6.01743 42.2389 7.93945 41.1926 10.0219 41.0374ZM12.8906 60.9375C11.0973 60.9373 9.35344 60.3495 7.92591 59.264C6.49838 58.1786 5.46582 56.6553 4.98624 54.9273C4.50667 53.1993 4.6065 51.3617 5.27046 49.6959C5.93442 48.03 7.12593 46.6275 8.66265 45.7031H13.9698L15.9382 48.0296L14.4054 49.5623C13.6568 49.2046 12.8059 49.1232 12.0031 49.3323C11.2002 49.5414 10.4971 50.0276 10.0181 50.705C9.53909 51.3823 9.31496 52.2072 9.38534 53.0339C9.45572 53.8605 9.81607 54.6357 10.4027 55.2223C10.9893 55.8089 11.7645 56.1693 12.5911 56.2397C13.4178 56.31 14.2427 56.0859 14.92 55.6069C15.5974 55.1279 16.0836 54.4248 16.2927 53.6219C16.5018 52.8191 16.4204 51.9682 16.0627 51.2196L17.4574 49.8249L20.9943 54.005C20.6995 55.9403 19.7188 57.7052 18.2313 58.9778C16.7437 60.2504 14.8483 60.9459 12.8906 60.9375ZM14.0625 52.7344C14.0625 52.9661 13.9938 53.1927 13.865 53.3854C13.7362 53.5781 13.5532 53.7283 13.3391 53.817C13.125 53.9057 12.8893 53.929 12.662 53.8837C12.4347 53.8385 12.2259 53.7269 12.062 53.563C11.8981 53.3991 11.7865 53.1903 11.7413 52.963C11.696 52.7357 11.7193 52.5 11.808 52.2859C11.8967 52.0718 12.0469 51.8888 12.2396 51.76C12.4323 51.6312 12.6588 51.5625 12.8906 51.5625C13.2013 51.5628 13.4992 51.6864 13.7189 51.9061C13.9386 52.1258 14.0622 52.4237 14.0625 52.7344ZM44.1346 53.9062H23.9811L11.952 39.6901C16.2174 31.9871 24.8375 29.5734 25.9222 29.2969H28.2111C24.9359 34.4339 24.3387 39.6297 24.4636 43.2533C24.6154 47.6555 25.8141 50.6985 25.865 50.8258C25.952 51.0433 26.1022 51.2297 26.2961 51.361C26.4901 51.4923 26.7189 51.5625 26.9531 51.5625H33.9844C34.1601 51.5625 34.3336 51.5231 34.492 51.447C34.6504 51.3709 34.7896 51.2602 34.8995 51.123L39.587 45.2637C39.7671 45.0385 39.858 44.7547 39.842 44.4668C39.8261 44.1788 39.7045 43.9068 39.5005 43.7029L35.6417 39.8438H44.5312C44.6803 39.8438 44.828 39.8153 44.9665 39.76L60.9375 33.3715V33.9844C60.9386 34.8234 61.2392 35.6344 61.7852 36.2714C62.3312 36.9085 63.0867 37.3296 63.9157 37.459L63.4323 39.1487L44.1346 53.9062ZM51.0583 51.5625H59.7656C60.0764 51.5625 60.3745 51.686 60.5943 51.9057C60.814 52.1255 60.9375 52.4236 60.9375 52.7344C60.9375 53.0452 60.814 53.3432 60.5943 53.563C60.3745 53.7828 60.0764 53.9062 59.7656 53.9062H47.9931L51.0583 51.5625ZM54.1228 49.2188L55.9855 47.7943L56.6977 49.2188H54.1228ZM67.9688 52.7344C67.9683 54.597 67.3342 56.4041 66.1705 57.8585C65.0068 59.3129 63.3829 60.3281 61.5658 60.7372C59.7486 61.1462 57.8463 60.9248 56.1717 60.1093C54.497 59.2938 53.1497 57.9328 52.3512 56.25H59.7656C60.698 56.25 61.5922 55.8796 62.2515 55.2203C62.9109 54.561 63.2812 53.6668 63.2812 52.7344C63.2812 51.802 62.9109 50.9078 62.2515 50.2485C61.5922 49.5891 60.698 49.2188 59.7656 49.2188H59.318L57.881 46.3447L60.2332 44.5459C62.3222 44.671 64.285 45.5875 65.7221 47.1087C67.1592 48.63 67.9626 50.6417 67.9688 52.7344ZM64.5737 35.1562H64.4531C64.1424 35.1559 63.8446 35.0323 63.6249 34.8126C63.4052 34.5929 63.2816 34.2951 63.2812 33.9844V32.8125H65.2433L64.5737 35.1562ZM67.9688 30.4688V23.4375H70.3125V30.4688H67.9688Z" fill="black"/>
</svg>
