<svg width="75" height="75" viewBox="0 0 75 75" fill="none" xmlns="http://www.w3.org/2000/svg">
<path d="M66.7969 2.34375H10.5469C10.2361 2.34375 9.938 2.46721 9.71823 2.68698C9.49847 2.90675 9.375 3.20482 9.375 3.51562V7.03125H8.20312C7.89232 7.03125 7.59425 7.15472 7.37448 7.37448C7.15472 7.59425 7.03125 7.89232 7.03125 8.20312C7.03125 8.51393 7.15472 8.812 7.37448 9.03177C7.59425 9.25153 7.89232 9.375 8.20312 9.375H9.375V14.0625H8.20312C7.89232 14.0625 7.59425 14.186 7.37448 14.4057C7.15472 14.6255 7.03125 14.9236 7.03125 15.2344C7.03125 15.5452 7.15472 15.8432 7.37448 16.063C7.59425 16.2828 7.89232 16.4062 8.20312 16.4062H9.375V21.0938H8.20312C7.89232 21.0938 7.59425 21.2172 7.37448 21.437C7.15472 21.6568 7.03125 21.9548 7.03125 22.2656C7.03125 22.5764 7.15472 22.8745 7.37448 23.0943C7.59425 23.314 7.89232 23.4375 8.20312 23.4375H9.375V28.125H8.20312C7.89232 28.125 7.59425 28.2485 7.37448 28.4682C7.15472 28.688 7.03125 28.9861 7.03125 29.2969C7.03125 29.6077 7.15472 29.9057 7.37448 30.1255C7.59425 30.3453 7.89232 30.4688 8.20312 30.4688H9.375V35.1562H8.20312C7.89232 35.1562 7.59425 35.2797 7.37448 35.4995C7.15472 35.7193 7.03125 36.0173 7.03125 36.3281C7.03125 36.6389 7.15472 36.937 7.37448 37.1568C7.59425 37.3765 7.89232 37.5 8.20312 37.5H9.375V42.1875H8.20312C7.89232 42.1875 7.59425 42.311 7.37448 42.5307C7.15472 42.7505 7.03125 43.0486 7.03125 43.3594C7.03125 43.6702 7.15472 43.9682 7.37448 44.188C7.59425 44.4078 7.89232 44.5312 8.20312 44.5312H9.375V49.2188H8.20312C7.89232 49.2188 7.59425 49.3422 7.37448 49.562C7.15472 49.7818 7.03125 50.0798 7.03125 50.3906C7.03125 50.7014 7.15472 50.9995 7.37448 51.2193C7.59425 51.439 7.89232 51.5625 8.20312 51.5625H9.375V56.25H8.20312C7.89232 56.25 7.59425 56.3735 7.37448 56.5932C7.15472 56.813 7.03125 57.1111 7.03125 57.4219C7.03125 57.7327 7.15472 58.0307 7.37448 58.2505C7.59425 58.4703 7.89232 58.5938 8.20312 58.5938H9.375V63.2812H8.20312C7.89232 63.2812 7.59425 63.4047 7.37448 63.6245C7.15472 63.8443 7.03125 64.1423 7.03125 64.4531C7.03125 64.7639 7.15472 65.062 7.37448 65.2818C7.59425 65.5015 7.89232 65.625 8.20312 65.625H9.375V71.4844C9.375 71.7952 9.49847 72.0932 9.71823 72.313C9.938 72.5328 10.2361 72.6562 10.5469 72.6562H66.7969C67.1077 72.6562 67.4057 72.5328 67.6255 72.313C67.8453 72.0932 67.9688 71.7952 67.9688 71.4844V3.51562C67.9688 3.20482 67.8453 2.90675 67.6255 2.68698C67.4057 2.46721 67.1077 2.34375 66.7969 2.34375ZM16.4062 70.3125H11.7188V65.625H12.8906C13.2014 65.625 13.4995 65.5015 13.7193 65.2818C13.939 65.062 14.0625 64.7639 14.0625 64.4531C14.0625 64.1423 13.939 63.8443 13.7193 63.6245C13.4995 63.4047 13.2014 63.2812 12.8906 63.2812H11.7188V58.5938H12.8906C13.2014 58.5938 13.4995 58.4703 13.7193 58.2505C13.939 58.0307 14.0625 57.7327 14.0625 57.4219C14.0625 57.1111 13.939 56.813 13.7193 56.5932C13.4995 56.3735 13.2014 56.25 12.8906 56.25H11.7188V51.5625H12.8906C13.2014 51.5625 13.4995 51.439 13.7193 51.2193C13.939 50.9995 14.0625 50.7014 14.0625 50.3906C14.0625 50.0798 13.939 49.7818 13.7193 49.562C13.4995 49.3422 13.2014 49.2188 12.8906 49.2188H11.7188V44.5312H12.8906C13.2014 44.5312 13.4995 44.4078 13.7193 44.188C13.939 43.9682 14.0625 43.6702 14.0625 43.3594C14.0625 43.0486 13.939 42.7505 13.7193 42.5307C13.4995 42.311 13.2014 42.1875 12.8906 42.1875H11.7188V37.5H12.8906C13.2014 37.5 13.4995 37.3765 13.7193 37.1568C13.939 36.937 14.0625 36.6389 14.0625 36.3281C14.0625 36.0173 13.939 35.7193 13.7193 35.4995C13.4995 35.2797 13.2014 35.1562 12.8906 35.1562H11.7188V30.4688H12.8906C13.2014 30.4688 13.4995 30.3453 13.7193 30.1255C13.939 29.9057 14.0625 29.6077 14.0625 29.2969C14.0625 28.9861 13.939 28.688 13.7193 28.4682C13.4995 28.2485 13.2014 28.125 12.8906 28.125H11.7188V23.4375H12.8906C13.2014 23.4375 13.4995 23.314 13.7193 23.0943C13.939 22.8745 14.0625 22.5764 14.0625 22.2656C14.0625 21.9548 13.939 21.6568 13.7193 21.437C13.4995 21.2172 13.2014 21.0938 12.8906 21.0938H11.7188V16.4062H12.8906C13.2014 16.4062 13.4995 16.2828 13.7193 16.063C13.939 15.8432 14.0625 15.5452 14.0625 15.2344C14.0625 14.9236 13.939 14.6255 13.7193 14.4057C13.4995 14.186 13.2014 14.0625 12.8906 14.0625H11.7188V9.375H12.8906C13.2014 9.375 13.4995 9.25153 13.7193 9.03177C13.939 8.812 14.0625 8.51393 14.0625 8.20312C14.0625 7.89232 13.939 7.59425 13.7193 7.37448C13.4995 7.15472 13.2014 7.03125 12.8906 7.03125H11.7188V4.6875H16.4062V70.3125ZM65.625 70.3125H18.75V4.6875H65.625V70.3125Z" fill="black"/>
<path d="M22.2656 44.5312H30.4688C30.7796 44.5312 31.0776 44.4078 31.2974 44.188C31.5172 43.9682 31.6406 43.6702 31.6406 43.3594C31.6406 43.0486 31.5172 42.7505 31.2974 42.5307C31.0776 42.311 30.7796 42.1875 30.4688 42.1875H22.2656C21.9548 42.1875 21.6568 42.311 21.437 42.5307C21.2172 42.7505 21.0938 43.0486 21.0938 43.3594C21.0938 43.6702 21.2172 43.9682 21.437 44.188C21.6568 44.4078 21.9548 44.5312 22.2656 44.5312Z" fill="black"/>
<path d="M37.5 42.1875H35.1562C34.8454 42.1875 34.5474 42.311 34.3276 42.5307C34.1078 42.7505 33.9844 43.0486 33.9844 43.3594C33.9844 43.6702 34.1078 43.9682 34.3276 44.188C34.5474 44.4078 34.8454 44.5312 35.1562 44.5312H37.5C37.8108 44.5312 38.1089 44.4078 38.3286 44.188C38.5484 43.9682 38.6719 43.6702 38.6719 43.3594C38.6719 43.0486 38.5484 42.7505 38.3286 42.5307C38.1089 42.311 37.8108 42.1875 37.5 42.1875Z" fill="black"/>
<path d="M22.2656 51.5625H30.4688C30.7796 51.5625 31.0776 51.439 31.2974 51.2193C31.5172 50.9995 31.6406 50.7014 31.6406 50.3906C31.6406 50.0798 31.5172 49.7818 31.2974 49.562C31.0776 49.3422 30.7796 49.2188 30.4688 49.2188H22.2656C21.9548 49.2188 21.6568 49.3422 21.437 49.562C21.2172 49.7818 21.0938 50.0798 21.0938 50.3906C21.0938 50.7014 21.2172 50.9995 21.437 51.2193C21.6568 51.439 21.9548 51.5625 22.2656 51.5625Z" fill="black"/>
<path d="M37.5 49.2188H35.1562C34.8454 49.2188 34.5474 49.3422 34.3276 49.562C34.1078 49.7818 33.9844 50.0798 33.9844 50.3906C33.9844 50.7014 34.1078 50.9995 34.3276 51.2193C34.5474 51.439 34.8454 51.5625 35.1562 51.5625H37.5C37.8108 51.5625 38.1089 51.439 38.3286 51.2193C38.5484 50.9995 38.6719 50.7014 38.6719 50.3906C38.6719 50.0798 38.5484 49.7818 38.3286 49.562C38.1089 49.3422 37.8108 49.2188 37.5 49.2188Z" fill="black"/>
<path d="M22.2656 58.5938H30.4688C30.7796 58.5938 31.0776 58.4703 31.2974 58.2505C31.5172 58.0307 31.6406 57.7327 31.6406 57.4219C31.6406 57.1111 31.5172 56.813 31.2974 56.5932C31.0776 56.3735 30.7796 56.25 30.4688 56.25H22.2656C21.9548 56.25 21.6568 56.3735 21.437 56.5932C21.2172 56.813 21.0938 57.1111 21.0938 57.4219C21.0938 57.7327 21.2172 58.0307 21.437 58.2505C21.6568 58.4703 21.9548 58.5938 22.2656 58.5938Z" fill="black"/>
<path d="M37.5 56.25H35.1562C34.8454 56.25 34.5474 56.3735 34.3276 56.5932C34.1078 56.813 33.9844 57.1111 33.9844 57.4219C33.9844 57.7327 34.1078 58.0307 34.3276 58.2505C34.5474 58.4703 34.8454 58.5938 35.1562 58.5938H37.5C37.8108 58.5938 38.1089 58.4703 38.3286 58.2505C38.5484 58.0307 38.6719 57.7327 38.6719 57.4219C38.6719 57.1111 38.5484 56.813 38.3286 56.5932C38.1089 56.3735 37.8108 56.25 37.5 56.25Z" fill="black"/>
<path d="M30.4688 63.2812H22.2656C21.9548 63.2812 21.6568 63.4047 21.437 63.6245C21.2172 63.8443 21.0938 64.1423 21.0938 64.4531C21.0938 64.7639 21.2172 65.062 21.437 65.2818C21.6568 65.5015 21.9548 65.625 22.2656 65.625H30.4688C30.7796 65.625 31.0776 65.5015 31.2974 65.2818C31.5172 65.062 31.6406 64.7639 31.6406 64.4531C31.6406 64.1423 31.5172 63.8443 31.2974 63.6245C31.0776 63.4047 30.7796 63.2812 30.4688 63.2812Z" fill="black"/>
<path d="M37.5 63.2812H35.1562C34.8454 63.2812 34.5474 63.4047 34.3276 63.6245C34.1078 63.8443 33.9844 64.1423 33.9844 64.4531C33.9844 64.7639 34.1078 65.062 34.3276 65.2818C34.5474 65.5015 34.8454 65.625 35.1562 65.625H37.5C37.8108 65.625 38.1089 65.5015 38.3286 65.2818C38.5484 65.062 38.6719 64.7639 38.6719 64.4531C38.6719 64.1423 38.5484 63.8443 38.3286 63.6245C38.1089 63.4047 37.8108 63.2812 37.5 63.2812Z" fill="black"/>
<path d="M45.7031 43.3594C45.7031 43.6702 45.8266 43.9682 46.0464 44.188C46.2661 44.4078 46.5642 44.5312 46.875 44.5312H55.0781C55.3889 44.5312 55.687 44.4078 55.9068 44.188C56.1265 43.9682 56.25 43.6702 56.25 43.3594C56.25 43.0486 56.1265 42.7505 55.9068 42.5307C55.687 42.311 55.3889 42.1875 55.0781 42.1875H46.875C46.5642 42.1875 46.2661 42.311 46.0464 42.5307C45.8266 42.7505 45.7031 43.0486 45.7031 43.3594Z" fill="black"/>
<path d="M59.7656 44.5312H62.1094C62.4202 44.5312 62.7182 44.4078 62.938 44.188C63.1578 43.9682 63.2812 43.6702 63.2812 43.3594C63.2812 43.0486 63.1578 42.7505 62.938 42.5307C62.7182 42.311 62.4202 42.1875 62.1094 42.1875H59.7656C59.4548 42.1875 59.1568 42.311 58.937 42.5307C58.7172 42.7505 58.5938 43.0486 58.5938 43.3594C58.5938 43.6702 58.7172 43.9682 58.937 44.188C59.1568 44.4078 59.4548 44.5312 59.7656 44.5312Z" fill="black"/>
<path d="M55.0781 49.2188H46.875C46.5642 49.2188 46.2661 49.3422 46.0464 49.562C45.8266 49.7818 45.7031 50.0798 45.7031 50.3906C45.7031 50.7014 45.8266 50.9995 46.0464 51.2193C46.2661 51.439 46.5642 51.5625 46.875 51.5625H55.0781C55.3889 51.5625 55.687 51.439 55.9068 51.2193C56.1265 50.9995 56.25 50.7014 56.25 50.3906C56.25 50.0798 56.1265 49.7818 55.9068 49.562C55.687 49.3422 55.3889 49.2188 55.0781 49.2188Z" fill="black"/>
<path d="M59.7656 51.5625H62.1094C62.4202 51.5625 62.7182 51.439 62.938 51.2193C63.1578 50.9995 63.2812 50.7014 63.2812 50.3906C63.2812 50.0798 63.1578 49.7818 62.938 49.562C62.7182 49.3422 62.4202 49.2188 62.1094 49.2188H59.7656C59.4548 49.2188 59.1568 49.3422 58.937 49.562C58.7172 49.7818 58.5938 50.0798 58.5938 50.3906C58.5938 50.7014 58.7172 50.9995 58.937 51.2193C59.1568 51.439 59.4548 51.5625 59.7656 51.5625Z" fill="black"/>
<path d="M55.0781 56.25H46.875C46.5642 56.25 46.2661 56.3735 46.0464 56.5932C45.8266 56.813 45.7031 57.1111 45.7031 57.4219C45.7031 57.7327 45.8266 58.0307 46.0464 58.2505C46.2661 58.4703 46.5642 58.5938 46.875 58.5938H55.0781C55.3889 58.5938 55.687 58.4703 55.9068 58.2505C56.1265 58.0307 56.25 57.7327 56.25 57.4219C56.25 57.1111 56.1265 56.813 55.9068 56.5932C55.687 56.3735 55.3889 56.25 55.0781 56.25Z" fill="black"/>
<path d="M59.7656 58.5938H62.1094C62.4202 58.5938 62.7182 58.4703 62.938 58.2505C63.1578 58.0307 63.2812 57.7327 63.2812 57.4219C63.2812 57.1111 63.1578 56.813 62.938 56.5932C62.7182 56.3735 62.4202 56.25 62.1094 56.25H59.7656C59.4548 56.25 59.1568 56.3735 58.937 56.5932C58.7172 56.813 58.5938 57.1111 58.5938 57.4219C58.5938 57.7327 58.7172 58.0307 58.937 58.2505C59.1568 58.4703 59.4548 58.5938 59.7656 58.5938Z" fill="black"/>
<path d="M55.0781 63.2812H46.875C46.5642 63.2812 46.2661 63.4047 46.0464 63.6245C45.8266 63.8443 45.7031 64.1423 45.7031 64.4531C45.7031 64.7639 45.8266 65.062 46.0464 65.2818C46.2661 65.5015 46.5642 65.625 46.875 65.625H55.0781C55.3889 65.625 55.687 65.5015 55.9068 65.2818C56.1265 65.062 56.25 64.7639 56.25 64.4531C56.25 64.1423 56.1265 63.8443 55.9068 63.6245C55.687 63.4047 55.3889 63.2812 55.0781 63.2812Z" fill="black"/>
<path d="M59.7656 65.625H62.1094C62.4202 65.625 62.7182 65.5015 62.938 65.2818C63.1578 65.062 63.2812 64.7639 63.2812 64.4531C63.2812 64.1423 63.1578 63.8443 62.938 63.6245C62.7182 63.4047 62.4202 63.2812 62.1094 63.2812H59.7656C59.4548 63.2812 59.1568 63.4047 58.937 63.6245C58.7172 63.8443 58.5938 64.1423 58.5938 64.4531C58.5938 64.7639 58.7172 65.062 58.937 65.2818C59.1568 65.5015 59.4548 65.625 59.7656 65.625Z" fill="black"/>
<path d="M41.0156 41.0156V66.7969C41.0156 67.1077 41.1391 67.4057 41.3589 67.6255C41.5786 67.8453 41.8767 67.9688 42.1875 67.9688C42.4983 67.9688 42.7964 67.8453 43.0161 67.6255C43.2359 67.4057 43.3594 67.1077 43.3594 66.7969V41.0156C43.3594 40.7048 43.2359 40.4068 43.0161 40.187C42.7964 39.9672 42.4983 39.8438 42.1875 39.8438C41.8767 39.8438 41.5786 39.9672 41.3589 40.187C41.1391 40.4068 41.0156 40.7048 41.0156 41.0156Z" fill="black"/>
<path d="M30.474 14.1674C30.478 14.2131 30.4846 14.2586 30.4938 14.3036V14.3049C30.5033 14.3493 30.5155 14.3931 30.5301 14.436C30.5335 14.4458 30.5373 14.4557 30.541 14.4653C30.5539 14.5005 30.5685 14.5347 30.5849 14.5679C30.5877 14.5737 30.5896 14.58 30.5925 14.5859L32.7926 18.9861L31.823 32.5613C31.7885 33.0429 31.8536 33.5265 32.0142 33.9818C32.1748 34.4372 32.4274 34.8546 32.7564 35.208C33.0854 35.5614 33.4837 35.8432 33.9264 36.036C34.3692 36.2287 34.8468 36.3281 35.3297 36.3281H37.3266C37.8093 36.3281 38.287 36.2287 38.7296 36.036C39.1723 35.8433 39.5705 35.5616 39.8995 35.2082C40.2285 34.8549 40.4812 34.4376 40.6419 33.9823C40.8025 33.527 40.8677 33.0436 40.8333 32.562L39.8637 18.9869L42.0637 14.5866C42.0667 14.5808 42.0686 14.5745 42.0713 14.5686C42.0875 14.5351 42.1021 14.5009 42.1153 14.4661C42.1189 14.4562 42.1228 14.4464 42.1261 14.4368C42.1407 14.3939 42.1529 14.3503 42.1625 14.3061V14.3042C42.1717 14.2593 42.1783 14.2138 42.1822 14.1681C42.1834 14.1549 42.1834 14.1417 42.1843 14.1286C42.1854 14.1067 42.1875 14.0846 42.1875 14.0632V9.375C42.1875 9.0642 42.064 8.76613 41.8443 8.54636C41.6245 8.32659 41.3264 8.20312 41.0156 8.20312C40.7048 8.20312 40.4068 8.32659 40.187 8.54636C39.9672 8.76613 39.8438 9.0642 39.8438 9.375V12.8906H37.5V9.375C37.5 9.0642 37.3765 8.76613 37.1568 8.54636C36.937 8.32659 36.6389 8.20312 36.3281 8.20312C36.0173 8.20312 35.7193 8.32659 35.4995 8.54636C35.2797 8.76613 35.1562 9.0642 35.1562 9.375V12.8906H32.8125V9.375C32.8125 9.0642 32.689 8.76613 32.4693 8.54636C32.2495 8.32659 31.9514 8.20312 31.6406 8.20312C31.3298 8.20312 31.0318 8.32659 30.812 8.54636C30.5922 8.76613 30.4688 9.0642 30.4688 9.375V14.0625C30.4688 14.0845 30.4708 14.1064 30.472 14.1278C30.4729 14.141 30.4729 14.1542 30.474 14.1674ZM38.1844 33.6111C38.0751 33.7295 37.9424 33.8238 37.7947 33.888C37.6471 33.9523 37.4876 33.9851 37.3266 33.9844H35.3297C35.1688 33.9844 35.0095 33.9512 34.862 33.887C34.7144 33.8228 34.5817 33.7289 34.472 33.6111C34.3623 33.4933 34.2781 33.3542 34.2245 33.2024C34.171 33.0507 34.1493 32.8895 34.1607 32.729L35.0755 19.9219H37.5804L38.4952 32.729C38.5074 32.8896 38.4861 33.0509 38.4326 33.2028C38.3791 33.3546 38.2945 33.4937 38.1844 33.6111ZM39.1195 15.2344L37.9477 17.5781H34.7086L33.5367 15.2344H39.1195Z" fill="black"/>
<path d="M44.0072 22.1418L45.7032 22.9898V23.3795L44.795 32.4627C44.7461 32.9514 44.8002 33.445 44.9537 33.9115C45.1073 34.3781 45.3569 34.8073 45.6865 35.1715C46.016 35.5356 46.4183 35.8267 46.8672 36.0259C47.3162 36.2252 47.8019 36.3281 48.293 36.3281H50.1446C50.6358 36.3281 51.1215 36.2252 51.5704 36.0259C52.0194 35.8267 52.4216 35.5356 52.7512 35.1715C53.0807 34.8073 53.3303 34.3781 53.4839 33.9115C53.6374 33.445 53.6915 32.9514 53.6426 32.4627L52.7344 23.3789V9.375C52.7344 9.0642 52.611 8.76613 52.3912 8.54636C52.1714 8.32659 51.8734 8.20312 51.5626 8.20312C44.4053 8.20312 43.4019 20.4833 43.3627 21.0059C43.3452 21.2378 43.3972 21.4697 43.512 21.672C43.6268 21.8743 43.7992 22.0378 44.0072 22.1418ZM51.0135 33.5988C50.9042 33.7209 50.7702 33.8184 50.6204 33.8848C50.4706 33.9513 50.3085 33.9852 50.1446 33.9844H48.293C48.1292 33.9844 47.9673 33.9501 47.8176 33.8837C47.6679 33.8172 47.5337 33.7201 47.4238 33.5987C47.314 33.4772 47.2308 33.3341 47.1796 33.1785C47.1285 33.0229 47.1105 32.8583 47.1269 32.6953L47.9356 24.6094H50.502L51.3108 32.6953C51.328 32.8584 51.3104 33.0232 51.2591 33.179C51.2079 33.3347 51.1242 33.4778 51.0135 33.5988ZM46.8625 15.5728C47.7631 12.9229 48.9464 11.3108 50.3907 10.7604V22.2656H48.0469C48.0469 22.048 47.9863 21.8347 47.8719 21.6496C47.7575 21.4645 47.5938 21.3149 47.3992 21.2175L45.7836 20.4097C45.9867 18.7664 46.348 17.1466 46.8625 15.5728Z" fill="black"/>
</svg>
