<svg width="75" height="75" viewBox="0 0 75 75" fill="none" xmlns="http://www.w3.org/2000/svg">
<path d="M67.9057 72.973H7.09491C5.7514 72.9714 4.46338 72.4369 3.51338 71.4869C2.56337 70.5369 2.02895 69.2489 2.02734 67.9054V31.4189C2.02895 30.0754 2.56337 28.7874 3.51338 27.8374C4.46338 26.8874 5.7514 26.3529 7.09491 26.3513H67.9057C69.2492 26.3529 70.5373 26.8874 71.4873 27.8374C72.4373 28.7874 72.9717 30.0754 72.9733 31.4189V67.9054C72.9717 69.2489 72.4373 70.5369 71.4873 71.4869C70.5373 72.4369 69.2492 72.9714 67.9057 72.973ZM7.09491 28.3784C6.28851 28.3784 5.51514 28.6987 4.94492 29.2689C4.37471 29.8391 4.05437 30.6125 4.05437 31.4189V67.9054C4.05437 68.7118 4.37471 69.4852 4.94492 70.0554C5.51514 70.6256 6.28851 70.9459 7.09491 70.9459H67.9057C68.7121 70.9459 69.4855 70.6256 70.0557 70.0554C70.6259 69.4852 70.9463 68.7118 70.9463 67.9054V31.4189C70.9463 30.6125 70.6259 29.8391 70.0557 29.2689C69.4855 28.6987 68.7121 28.3784 67.9057 28.3784H7.09491Z" fill="black"/>
<path d="M71.9598 44.5946H3.04086C2.77206 44.5946 2.51427 44.4878 2.32419 44.2978C2.13412 44.1077 2.02734 43.8499 2.02734 43.5811V35.473C2.02734 35.2042 2.13412 34.9464 2.32419 34.7563C2.51427 34.5663 2.77206 34.4595 3.04086 34.4595H71.9598C72.2286 34.4595 72.4864 34.5663 72.6764 34.7563C72.8665 34.9464 72.9733 35.2042 72.9733 35.473V43.5811C72.9733 43.8499 72.8665 44.1077 72.6764 44.2978C72.4864 44.4878 72.2286 44.5946 71.9598 44.5946ZM4.05437 42.5676H70.9463V36.4865H4.05437V42.5676Z" fill="black"/>
<path d="M7.09473 65.8784H11.1488V67.9054H7.09473V65.8784Z" fill="black"/>
<path d="M13.1758 65.8784H17.2298V67.9054H13.1758V65.8784Z" fill="black"/>
<path d="M19.2568 65.8784H23.3109V67.9054H19.2568V65.8784Z" fill="black"/>
<path d="M25.3379 65.8784H29.3919V67.9054H25.3379V65.8784Z" fill="black"/>
<path d="M31.4189 65.8784H35.473V67.9054H31.4189V65.8784Z" fill="black"/>
<path d="M66.8925 67.9054H54.7303C54.4615 67.9054 54.2037 67.7986 54.0136 67.6085C53.8236 67.4185 53.7168 67.1607 53.7168 66.8919V58.7838C53.7168 58.515 53.8236 58.2572 54.0136 58.0671C54.2037 57.877 54.4615 57.7703 54.7303 57.7703H66.8925C67.1613 57.7703 67.4191 57.877 67.6091 58.0671C67.7992 58.2572 67.906 58.515 67.906 58.7838V66.8919C67.906 67.1607 67.7992 67.4185 67.6091 67.6085C67.4191 67.7986 67.1613 67.9054 66.8925 67.9054ZM55.7438 65.8784H65.879V59.7973H55.7438V65.8784Z" fill="black"/>
<path d="M46.8165 7.81114C44.3436 5.34387 40.993 3.95825 37.4998 3.95825C34.0066 3.95825 30.656 5.34387 28.1831 7.81114L26.751 6.37803C29.6044 3.5315 33.4703 1.93291 37.5008 1.93291C41.5313 1.93291 45.3972 3.5315 48.2506 6.37803L46.8165 7.81114Z" fill="black"/>
<path d="M31.0503 10.6784L29.6172 9.24525C31.7097 7.15749 34.5449 5.985 37.5008 5.985C40.4567 5.985 43.2919 7.15749 45.3844 9.24525L43.9513 10.6784C42.2392 8.97011 39.9194 8.01076 37.5008 8.01076C35.0822 8.01076 32.7624 8.97011 31.0503 10.6784Z" fill="black"/>
<path d="M41.083 13.5446C40.1319 12.596 38.8435 12.0634 37.5002 12.0634C36.157 12.0634 34.8686 12.596 33.9175 13.5446L32.4844 12.1115C33.8157 10.7823 35.62 10.0358 37.5013 10.0358C39.3825 10.0358 41.1868 10.7823 42.5182 12.1115L41.083 13.5446Z" fill="black"/>
</svg>
