<svg width="65" height="65" viewBox="0 0 65 65" fill="none" xmlns="http://www.w3.org/2000/svg">
<g clip-path="url(#clip0)">
<path d="M62.4542 51.4583H55.1471C57.8856 50.2789 60.2123 48.313 61.8323 45.8098C62.1776 45.2355 62.2217 44.529 61.9504 43.9162C61.8789 43.7537 61.7901 43.5587 61.6904 43.3463C62.9762 41.4889 63.9344 39.4249 64.5233 37.2439C65.021 34.8805 65.1351 32.4524 64.8613 30.0527C64.7499 29.0366 64.0628 28.1756 63.0966 27.8417C61.9981 22.5702 60.5193 21.7284 60.0188 21.45C59.3829 21.0856 58.6154 21.0313 57.9345 21.3027C55.2522 22.3242 55.2424 24.7217 55.2338 26.8352C55.2338 27.3412 55.2175 27.8579 55.185 28.3736C54.1443 28.6165 53.3043 29.3823 52.9663 30.3962C52.7502 31.0279 52.4499 31.6277 52.0737 32.1793C51.6266 31.9413 51.1661 31.7294 50.6946 31.5445C50.2462 31.3784 49.7528 31.3803 49.3058 31.5499L43.7428 33.6754C43.306 33.8446 42.9417 34.1606 42.7126 34.5692C42.455 35.039 42.2232 35.5226 42.0182 36.0176C41.7281 35.9288 41.4438 35.8225 41.1667 35.6991V23.2917C41.1667 22.095 40.1966 21.125 39 21.125H13C11.8034 21.125 10.8333 22.095 10.8333 23.2917V24.7672C9.83217 24.5069 8.80195 24.3751 7.7675 24.375C0 24.375 0 32.9117 0 35.7175C0 41.9889 3.0485 46.0417 7.7675 46.0417C9.0176 46.0348 10.2609 45.8569 11.4628 45.513C12.2625 47.917 13.8126 50.0009 15.8849 51.4583H6.87917C6.2536 51.4051 5.6327 51.604 5.15458 52.011C4.67646 52.4179 4.38079 52.999 4.33333 53.625V55.7917C4.33333 58.2216 6.73617 60.125 9.80417 60.125H59.5292C62.5972 60.125 65 58.2216 65 55.7917V53.625C64.9526 52.999 64.6569 52.4179 64.1788 52.011C63.7006 51.604 63.0797 51.4051 62.4542 51.4583ZM58.7037 23.3198C58.7847 23.2762 58.8832 23.2812 58.9593 23.3328C59.1446 23.4358 60.034 24.1193 60.8519 27.7063C59.9408 27.7442 58.76 27.8243 57.3853 28.002C57.3993 27.5979 57.4026 27.2036 57.4037 26.8363C57.4091 24.5917 57.5185 23.7716 58.7037 23.3198ZM55.0333 31.0527C55.1438 30.7303 55.4228 30.495 55.7592 30.4406C55.9596 30.3994 56.1578 30.3702 56.3778 30.3323C58.2694 30.0126 60.1837 29.8449 62.1021 29.8307H62.1736C62.4382 29.8126 62.6719 30.0015 62.7098 30.264C62.9595 32.4203 62.8622 34.6027 62.4217 36.7283C62.0127 38.274 61.3787 39.7512 60.5399 41.1125C58.8994 38.0809 56.6451 35.4244 53.9208 33.3125C54.3893 32.6114 54.7634 31.8516 55.0333 31.0527ZM44.5792 35.6687L50.0099 33.5942C55.809 35.8746 59.3266 43.3138 59.9766 44.7092C59.3775 45.7448 57.4492 48.3589 52.4918 50.2504C50.7915 50.9196 48.9995 51.3269 47.177 51.4583H45.7481C44.9919 51.4236 44.2437 51.2888 43.5229 51.0575C43.4612 50.7921 43.3778 50.4281 43.2943 49.9904C42.7787 47.307 41.8784 40.5632 44.5748 35.6687H44.5792ZM37.9806 49.7868C39.0486 50.3051 40.1596 50.7299 41.301 51.0564C41.3335 51.2081 41.3638 51.337 41.3909 51.4583H36.075C36.7676 50.9702 37.4064 50.4099 37.9806 49.7868ZM40.8763 48.6417C39.4182 48.1595 38.0461 47.4483 36.8117 46.5346C35.1966 45.1829 33.8219 43.5676 32.7459 41.7571C32.6172 41.4804 32.6983 41.1514 32.9409 40.9662C32.955 40.9532 32.9691 40.9403 32.981 40.9272C34.4747 39.6404 36.065 38.4702 37.7379 37.427C37.9102 37.3187 38.0824 37.2028 38.2915 37.0814C38.5439 36.9172 38.8674 36.9101 39.1268 37.063C39.805 37.493 40.5396 37.8266 41.3097 38.0543C40.464 41.5197 40.3167 45.1187 40.8763 48.6417ZM31.499 33.8303C31.533 33.7157 31.6214 33.6253 31.7352 33.5887C32.8835 33.1554 33.4089 33.6733 34.7468 35.3882C34.9765 35.6818 35.2224 35.9959 35.4868 36.3112C34.3059 37.1031 33.3342 37.8376 32.5997 38.4291C31.473 35.9179 31.2715 34.4175 31.499 33.8303ZM10.8333 38.8624C9.86842 39.2956 8.82508 39.5267 7.7675 39.5417C6.94417 39.5417 6.5 37.5711 6.5 35.7175C6.5 30.875 7.23233 30.875 7.7675 30.875C8.87665 30.8298 9.96499 31.1855 10.8333 31.8771V38.8624ZM2.16667 35.7207C2.16667 31.4459 2.80367 26.5417 7.7675 26.5417C8.80838 26.5365 9.84339 26.6978 10.8333 27.0194V29.3475C9.87028 28.9133 8.82385 28.6951 7.7675 28.7083C4.5955 28.7083 4.33333 32.0244 4.33333 35.7175C4.33333 39.4691 5.61708 41.7083 7.7675 41.7083C8.81228 41.6976 9.84813 41.5146 10.8333 41.1667V41.7083C10.8379 42.2746 10.8836 42.8398 10.9698 43.3994C9.9298 43.7066 8.8519 43.8666 7.7675 43.875C4.26075 43.875 2.16667 40.8254 2.16667 35.7175V35.7207ZM13.2524 43.901C13.0837 43.1823 12.999 42.4465 13 41.7083L13 23.2917H39V34.8238C38.4323 34.7709 37.8614 34.8838 37.3566 35.1488C37.0435 34.7913 36.7423 34.4229 36.4553 34.0546C35.2278 32.4816 33.7036 30.5197 30.9649 31.5629C30.2784 31.8165 29.7363 32.3563 29.4797 33.0417C28.9153 34.4966 29.4071 36.7889 30.9519 40.0086C30.3857 40.8831 30.3668 42.0036 30.9032 42.8968C32.1157 44.9273 33.665 46.7366 35.4846 48.2473C35.6742 48.3936 35.8703 48.5268 36.0663 48.6612C34.2525 50.4567 31.8022 51.4621 29.25 51.4583H22.75C18.2029 51.477 14.2538 48.3332 13.2524 43.8978V43.901ZM62.8333 55.7917C62.8333 56.966 61.3167 57.9583 59.5292 57.9583H9.80417C8.01667 57.9583 6.5 56.966 6.5 55.7917V53.7236C6.61424 53.6548 6.74592 53.6206 6.87917 53.625H62.4542C62.5874 53.6206 62.7191 53.6548 62.8333 53.7236V55.7917Z" fill="black"/>
<path d="M23.8336 16.7917C23.8336 17.39 24.3187 17.875 24.917 17.875C25.5153 17.875 26.0003 17.39 26.0003 16.7917C25.9931 16.0275 26.2988 15.2936 26.8464 14.7604C28.6072 12.8469 28.6072 9.90309 26.8464 7.98958C26.2988 7.45645 25.9931 6.72255 26.0003 5.95833C26.0003 5.36002 25.5153 4.875 24.917 4.875C24.3187 4.875 23.8336 5.36002 23.8336 5.95833C23.8241 7.21427 24.2968 8.42601 25.1542 9.34375C25.6958 9.88096 26.0004 10.6122 26.0004 11.375C26.0004 12.1378 25.6958 12.869 25.1542 13.4063C24.2968 14.324 23.8241 15.5357 23.8336 16.7917Z" fill="black"/>
<path d="M17.3331 16.7917C17.3331 17.39 17.8182 17.875 18.4165 17.875C19.0148 17.875 19.4998 17.39 19.4998 16.7917C19.4926 16.0275 19.7983 15.2936 20.3459 14.7604C22.1067 12.8469 22.1067 9.90309 20.3459 7.98958C19.7983 7.45645 19.4926 6.72255 19.4998 5.95833C19.4998 5.36002 19.0148 4.875 18.4165 4.875C17.8182 4.875 17.3331 5.36002 17.3331 5.95833C17.3236 7.21427 17.7963 8.42601 18.6537 9.34375C19.1953 9.88096 19.4999 10.6122 19.4999 11.375C19.4999 12.1378 19.1953 12.869 18.6537 13.4063C17.7963 14.324 17.3236 15.5357 17.3331 16.7917Z" fill="black"/>
<path d="M30.3331 16.7917C30.3331 17.39 30.8182 17.875 31.4165 17.875C32.0148 17.875 32.4998 17.39 32.4998 16.7917C32.4926 16.0275 32.7983 15.2936 33.3459 14.7604C35.1067 12.8469 35.1067 9.90309 33.3459 7.98958C32.7983 7.45645 32.4926 6.72255 32.4998 5.95833C32.4998 5.36002 32.0148 4.875 31.4165 4.875C30.8182 4.875 30.3331 5.36002 30.3331 5.95833C30.3236 7.21427 30.7963 8.42601 31.6537 9.34375C32.1953 9.88096 32.4999 10.6122 32.4999 11.375C32.4999 12.1378 32.1953 12.869 31.6537 13.4063C30.7963 14.324 30.3236 15.5357 30.3331 16.7917Z" fill="black"/>
</g>
<defs>
<clipPath id="clip0">
<rect width="65" height="65" fill="white"/>
</clipPath>
</defs>
</svg>
