<svg width="65" height="65" viewBox="0 0 65 65" fill="none" xmlns="http://www.w3.org/2000/svg">
<g clip-path="url(#clip0)">
<path d="M30.4555 8.86395C30.4555 10.1144 30.9425 11.2902 31.8268 12.1744C32.1986 12.5464 32.8015 12.5462 33.1734 12.1744C33.5452 11.8025 33.5452 11.1996 33.1734 10.8279C32.0904 9.74501 32.0904 7.98303 33.1734 6.90012C34.9987 5.07478 34.9987 2.10459 33.1734 0.279128C32.8014 -0.0927173 32.1986 -0.0927173 31.8268 0.279128C31.4549 0.650974 31.4549 1.25387 31.8268 1.62559C32.9097 2.7085 32.9097 4.47061 31.8268 5.55352C30.9424 6.43775 30.4555 7.61346 30.4555 8.86395ZM56.6847 30.4598C55.5899 30.4598 54.5256 30.6687 53.5209 31.0806C52.2831 28.188 50.1669 25.5718 47.3981 23.5121C46.9763 23.1982 46.3798 23.2858 46.0658 23.7077C45.7519 24.1297 45.8396 24.7261 46.2615 25.0399C48.7768 26.911 50.6891 29.2761 51.7914 31.8794C52.1854 32.8099 53.2683 33.2486 54.2066 32.8578C54.9919 32.5302 55.8256 32.3641 56.6848 32.3641C60.2198 32.3641 63.0957 35.2157 63.0957 38.7209C63.0957 42.2261 60.2198 45.0777 56.6847 45.0777C54.9816 45.0777 53.3777 44.4214 52.1683 43.2297C51.4568 42.5288 50.2991 42.5288 49.5875 43.2298C48.3785 44.4215 46.7746 45.0777 45.0713 45.0777C43.1893 45.0777 41.4093 44.2617 40.1878 42.8388C39.8351 42.4281 39.3241 42.1925 38.7858 42.1925C38.7858 42.1925 38.7858 42.1925 38.7857 42.1925C38.2475 42.1925 37.7363 42.4278 37.3835 42.8389C36.1621 44.2617 34.3821 45.0777 32.5 45.0777C30.6179 45.0777 28.8379 44.2617 27.6164 42.8386C27.2636 42.428 26.7525 42.1923 26.2142 42.1925C25.6759 42.1925 25.1649 42.428 24.8122 42.8388C23.5907 44.2617 21.8107 45.0777 19.9287 45.0777C18.2254 45.0777 16.6215 44.4215 15.4124 43.2297C14.7008 42.5288 13.543 42.5286 12.8317 43.2298C11.6223 44.4214 10.0184 45.0777 8.3153 45.0777C4.78017 45.0777 1.9043 42.2261 1.9043 38.7209C1.9043 35.2157 4.78017 32.3641 8.3153 32.3641C9.17452 32.3641 10.0082 32.5302 10.7936 32.8578C11.7317 33.2492 12.8148 32.8097 13.2086 31.8794C16.0415 25.1889 23.7942 20.6936 32.5 20.6936C36.0462 20.6936 39.5387 21.4455 42.6 22.8682C43.0772 23.0899 43.6432 22.8829 43.8648 22.4059C44.0864 21.9291 43.8794 21.3629 43.4026 21.1412C40.0915 19.6025 36.3215 18.7893 32.5 18.7893C23.0638 18.7893 14.6255 23.7264 11.4791 31.0805C10.4744 30.6685 9.41015 30.4597 8.3153 30.4597C3.73026 30.4598 0 34.1657 0 38.7209C0 42.5555 2.64367 45.7878 6.21524 46.7147L10.7494 59.3287C11.9684 62.721 15.209 65.0002 18.8132 65.0002H24.4711C24.9971 65.0002 25.4233 64.574 25.4233 64.0481C25.4233 63.5221 24.9971 63.0959 24.4711 63.0959H18.8132C16.0099 63.0959 13.4895 61.3232 12.5414 58.6847L8.33473 46.9815C10.5124 46.9766 12.5643 46.1432 14.122 44.6314C15.6842 46.1476 17.7437 46.982 19.9287 46.982C22.3448 46.982 24.6321 45.9426 26.2144 44.1286C27.7966 45.9428 30.0837 46.982 32.5 46.982C34.9164 46.982 37.2036 45.9428 38.7857 44.1286C40.368 45.9428 42.6551 46.982 45.0713 46.982C47.2564 46.982 49.316 46.1478 50.878 44.6314C52.4358 46.1432 54.4876 46.9766 56.6653 46.9815L52.4584 58.6848C51.5103 61.3232 48.9901 63.0959 46.1868 63.0959H28.9146C28.3886 63.0959 27.9624 63.5221 27.9624 64.0481C27.9624 64.574 28.3886 65.0002 28.9146 65.0002H46.1868C49.7911 65.0002 53.0316 62.721 54.2506 59.3288L58.7849 46.7147C62.3563 45.7878 65 42.5555 65 38.7209C65 34.1657 61.2697 30.4598 56.6847 30.4598ZM37.5395 13.1658C37.9114 13.5376 38.5142 13.5375 38.886 13.1658C39.258 12.7939 39.258 12.1911 38.8861 11.8193C38.1916 11.1247 38.1916 9.9946 38.8861 9.30004C40.323 7.86305 40.323 5.52483 38.8861 4.08772C38.5143 3.71588 37.9114 3.71575 37.5397 4.08772C37.1677 4.45957 37.1677 5.06234 37.5395 5.43419C38.2341 6.12875 38.2341 7.25888 37.5395 7.95345C36.1027 9.39043 36.1027 11.7288 37.5395 13.1658ZM26.1138 13.1658C26.4856 13.5376 27.0884 13.5375 27.4602 13.1658C27.8322 12.7939 27.8322 12.1911 27.4603 11.8193C26.7658 11.1247 26.7658 9.9946 27.4603 9.30004C28.8972 7.86305 28.8972 5.52483 27.4603 4.08772C27.0885 3.71588 26.4856 3.71575 26.1139 4.08772C25.7419 4.45957 25.7419 5.06234 26.1138 5.43419C26.8083 6.12875 26.8083 7.25888 26.1138 7.95345C24.6769 9.39043 24.6769 11.7288 26.1138 13.1658ZM17.0949 33.2423C17.5077 33.6551 18.0673 33.8529 18.7092 33.8529C19.9767 33.8529 21.5648 33.0814 22.9747 31.6713C23.8898 30.7563 24.5827 29.7074 24.9256 28.7178C25.3482 27.4983 25.2134 26.4589 24.5458 25.7914C23.3176 24.5634 20.7898 25.2384 18.6659 27.3624H18.666C17.751 28.2775 17.0581 29.3264 16.7152 30.316C16.2924 31.5354 16.4272 32.5747 17.0949 33.2423ZM18.5143 30.9393C18.7613 30.2269 19.3073 29.4139 20.0124 28.7088H20.0125C21.2602 27.4609 22.4167 27.0716 22.9366 27.0716C23.0671 27.0716 23.1575 27.0961 23.1992 27.1377C23.2617 27.2003 23.3264 27.5164 23.1263 28.0941C22.8794 28.8065 22.3333 29.6195 21.6281 30.3246C20.0671 31.8856 18.6492 32.1031 18.4413 31.8955C18.3789 31.8331 18.3143 31.517 18.5143 30.9393ZM29.4531 29.5168C29.4531 32.5204 30.7629 34.7854 32.5 34.7854C34.2371 34.7854 35.5469 32.5204 35.5469 29.5168C35.5469 26.5132 34.2371 24.2483 32.5 24.2483C30.7629 24.2483 29.4531 26.5132 29.4531 29.5168ZM33.6426 29.5168C33.6426 31.7243 32.7935 32.8811 32.5 32.8811C32.2065 32.8811 31.3574 31.7243 31.3574 29.5168C31.3574 27.3094 32.2065 26.1526 32.5 26.1526C32.7935 26.1526 33.6426 27.3094 33.6426 29.5168ZM39.9463 25.7914C39.2788 26.4589 39.144 27.4981 39.5666 28.7178C39.9095 29.7074 40.6024 30.7563 41.5174 31.6713C42.9274 33.0814 44.5152 33.853 45.783 33.8529C46.4247 33.8529 46.9846 33.655 47.3974 33.2423C48.065 32.5747 48.1998 31.5355 47.7772 30.3159C47.4343 29.3263 46.7413 28.2774 45.8264 27.3623C43.7025 25.2384 41.175 24.5632 39.9463 25.7914ZM44.4798 28.7089C45.1849 29.414 45.7308 30.227 45.9779 30.9395C46.1779 31.517 46.1133 31.8332 46.0508 31.8957C45.8428 32.1036 44.4248 31.8856 42.8638 30.3247C42.1587 29.6196 41.6128 28.8066 41.3658 28.0942C41.1657 27.5167 41.2303 27.2004 41.2928 27.138C41.3345 27.0962 41.4249 27.0717 41.5554 27.0717C42.0756 27.0717 43.2321 27.4611 44.4798 28.7089C44.4797 28.7089 44.4797 28.7089 44.4798 28.7089Z" fill="black"/>
</g>
<defs>
<clipPath id="clip0">
<rect width="65" height="65" fill="white"/>
</clipPath>
</defs>
</svg>
