<svg width="25" height="17" viewBox="0 0 25 17" fill="none" xmlns="http://www.w3.org/2000/svg">
<path d="M22.9167 0H2.08333C0.933333 0.00136584 0.00135417 0.941379 0 2.10129V14.7091C0.00135417 15.869 0.933333 16.809 2.08333 16.8103H22.9167C24.0667 16.809 24.9986 15.869 25 14.7091V2.10129C24.9986 0.941379 24.0667 0.00136584 22.9167 0ZM24.1667 14.7091C24.1667 15.4054 23.607 15.9698 22.9167 15.9698H2.08333C1.39297 15.9698 0.833333 15.4054 0.833333 14.7091V2.10129C0.833333 1.40498 1.39297 0.840517 2.08333 0.840517H22.9167C23.607 0.840517 24.1667 1.40498 24.1667 2.10129V14.7091Z" fill="black"/>
<path d="M23.2726 1.88496C23.1541 1.68607 22.8982 1.62172 22.7009 1.74123L13.5705 7.26637C12.9112 7.66687 12.0864 7.66687 11.4272 7.26637L2.29676 1.74123C2.09739 1.62529 1.8426 1.69432 1.72765 1.89536C1.61562 2.0913 1.67744 2.34157 1.8676 2.46155L10.9988 7.98711C11.9219 8.54679 13.0758 8.54679 13.9988 7.98711L23.1301 2.46155C23.3273 2.34199 23.3911 2.0839 23.2726 1.88496Z" fill="black"/>
<path d="M2.08268 3.36218C1.85258 3.36218 1.66602 3.55035 1.66602 3.78244V14.7092C1.66602 14.9413 1.85258 15.1294 2.08268 15.1294C2.31279 15.1294 2.49935 14.9413 2.49935 14.7092V3.78244C2.49935 3.55035 2.31279 3.36218 2.08268 3.36218Z" fill="black"/>
<path d="M22.9167 3.36218C22.6866 3.36218 22.5 3.55035 22.5 3.78244V14.7092C22.5 14.9413 22.6866 15.1294 22.9167 15.1294C23.1468 15.1294 23.3333 14.9413 23.3333 14.7092V3.78244C23.3333 3.55035 23.1468 3.36218 22.9167 3.36218Z" fill="black"/>
</svg>
