<svg id="delievery" viewBox="0 0 50 45" fill="none">
<path d="M49.1667 23.3333H42.5729L44.1001 5H45C45.221 5 45.433 4.9122 45.5893 4.75592C45.7455 4.59964 45.8333 4.38768 45.8333 4.16667V2.5C45.8326 1.8372 45.5689 1.20176 45.1002 0.733085C44.6316 0.264412 43.9961 0.000771922 43.3333 0H30C29.3372 0.000771922 28.7018 0.264412 28.2331 0.733085C27.7644 1.20176 27.5008 1.8372 27.5 2.5V4.16667C27.5 4.38768 27.5878 4.59964 27.7441 4.75592C27.9004 4.9122 28.1123 5 28.3333 5H29.2332L29.6499 10H15C14.8142 10 14.6336 10.0621 14.4872 10.1765C14.3407 10.2909 14.2366 10.4509 14.1916 10.6312L12.5249 17.2979C12.4917 17.4306 12.4917 17.5694 12.5249 17.7021L13.9327 23.3333H7.5C7.27899 23.3333 7.06702 23.4211 6.91074 23.5774C6.75446 23.7337 6.66667 23.9457 6.66667 24.1667V32.5H0.833333C0.61232 32.5 0.400358 32.5878 0.244078 32.7441C0.0877973 32.9004 0 33.1123 0 33.3333V44.1667C0 44.3877 0.0877973 44.5996 0.244078 44.7559C0.400358 44.9122 0.61232 45 0.833333 45H7.5C7.72101 45 7.93297 44.9122 8.08926 44.7559C8.24554 44.5996 8.33333 44.3877 8.33333 44.1667V43.3333H25.731C26.4844 43.3328 27.2256 43.1438 27.8873 42.7835L36.0458 38.3333H49.1667C49.3877 38.3333 49.5996 38.2455 49.7559 38.0893C49.9122 37.933 50 37.721 50 37.5V24.1667C50 23.9457 49.9122 23.7337 49.7559 23.5774C49.5996 23.4211 49.3877 23.3333 49.1667 23.3333ZM48.3333 30H27.3646C27.3974 29.4289 27.296 28.8581 27.0684 28.3333H32.5C32.6858 28.3333 32.8664 28.2712 33.0128 28.1568C33.1593 28.0424 33.2634 27.8824 33.3084 27.7021L33.984 25H48.3333V30ZM26.484 26.6667L26.0673 25H32.266L31.8494 26.6667H26.484ZM26.2943 32.3842C26.5094 32.169 26.697 31.928 26.8527 31.6667H32.266L31.8494 33.3333H26.484L26.2562 32.4223L26.2943 32.3842ZM29.1667 2.5C29.1669 2.27906 29.2548 2.06724 29.411 1.91102C29.5672 1.75479 29.7791 1.66691 30 1.66667H43.3333C43.5543 1.66691 43.7661 1.75479 43.9223 1.91102C44.0785 2.06724 44.1664 2.27906 44.1667 2.5V3.33333H29.1667V2.5ZM42.4276 5L42.2887 6.66667H31.0446L30.9062 5H42.4276ZM31.1834 8.33333H42.1499L40.8999 23.3333H34.4006L35.8084 17.7021C35.8417 17.5694 35.8417 17.4306 35.8084 17.2979L34.1418 10.6312C34.0967 10.4509 33.9927 10.2909 33.8462 10.1765C33.6997 10.0621 33.5192 10 33.3333 10H31.3223L31.1834 8.33333ZM15.6506 11.6667H32.6827L33.9327 16.6667H14.4006L15.6506 11.6667ZM25.5994 18.3333L25.1827 20H23.1506L22.734 18.3333H25.5994ZM14.4006 18.3333H21.016L21.6916 21.0354C21.7366 21.2157 21.8407 21.3758 21.9872 21.4902C22.1336 21.6045 22.3142 21.6667 22.5 21.6667H25.8333C26.0192 21.6667 26.1997 21.6045 26.3462 21.4902C26.4927 21.3758 26.5967 21.2157 26.6418 21.0354L27.3173 18.3333H33.9327L32.6827 23.3333H15.6506L14.4006 18.3333ZM24.3494 25L24.663 26.2547C24.1141 26.1046 23.5379 26.0842 22.9797 26.195C22.4216 26.3058 21.8969 26.5447 21.4469 26.893L17.4522 30H8.33333V25H24.3494ZM8.33333 33.3333V31.6667H11.8966C11.3569 32.0497 10.9082 32.547 10.5826 33.1231C10.2569 33.6992 10.0622 34.3401 10.0124 35H8.33333V33.3333ZM6.66667 43.3333H1.66667V34.1667H6.66667V43.3333ZM27.0892 41.3203C26.6724 41.5473 26.2056 41.6663 25.731 41.6667H8.33333V36.6667H10.3361C10.6889 36.6663 11.0271 36.5259 11.2765 36.2765C11.5259 36.0271 11.6663 35.6889 11.6667 35.3361C11.6675 34.5842 11.9666 33.8633 12.4983 33.3316C13.03 32.7999 13.7509 32.5009 14.5028 32.5H16.5514C16.8113 32.4995 17.0639 32.4129 17.2694 32.2536L22.4701 28.2083C22.8724 27.8955 23.3788 27.7478 23.8862 27.7952C24.3936 27.8427 24.8638 28.0818 25.2011 28.4638C25.5383 28.8459 25.7173 29.3421 25.7015 29.8515C25.6857 30.3609 25.4763 30.845 25.1159 31.2054L19.9846 36.3367C19.8209 36.5002 19.7094 36.7086 19.6642 36.9355C19.619 37.1624 19.6421 37.3976 19.7306 37.6114C19.8192 37.8251 19.9691 38.0078 20.1615 38.1364C20.3539 38.2649 20.5801 38.3334 20.8115 38.3333H32.5653L27.0892 41.3203ZM22.0119 36.6667L24.8819 33.7967L25.0249 34.3687C25.07 34.549 25.174 34.7091 25.3205 34.8235C25.467 34.9379 25.6475 35 25.8333 35H32.5C32.6858 35 32.8664 34.9379 33.0128 34.8235C33.1593 34.7091 33.2634 34.549 33.3084 34.3687L33.984 31.6667H48.3333V36.6667H22.0119Z" fill="currentColor"/>
</svg>
