<svg width="65" height="65" viewBox="0 0 65 65" fill="none" xmlns="http://www.w3.org/2000/svg">
<path d="M64.5074 29.6962C64.4236 29.4804 64.0502 28.5945 63.3078 27.8107C58.2017 22.4152 52.0546 18.555 45.0261 16.3237C45.1269 15.7698 45.1821 15.2002 45.1821 14.6177C45.1821 12.125 44.2172 9.85418 42.6429 8.15621C43.758 7.29374 44.0515 7.07058 44.6106 6.91356C45.3173 6.7148 45.7322 6.89879 46.077 7.02787C46.9896 7.36952 47.3865 6.20907 46.9318 5.55082C46.5741 5.03224 46.0269 4.7394 45.386 4.67807C44.4426 4.58784 43.3464 5.08298 42.4059 5.67444C42.4361 4.0089 42.1143 2.02162 40.6206 1.06154C40.1174 0.737868 39.4463 0.883647 39.123 1.38713C38.7993 1.89061 38.9451 2.56107 39.4489 2.88473C40.1553 3.33909 40.3114 4.84183 40.2064 6.2582C38.8571 5.52288 37.3107 5.10449 35.6689 5.10449C30.4231 5.10449 26.1548 9.37221 26.1548 14.6186C26.1548 15.5675 26.2961 16.4833 26.5558 17.3486C2.54952 37.6032 2.12343 38.1205 1.94714 38.3026C0.280319 40.0256 0 41.1054 0 42.8143V62.2138C0 63.2956 0.808205 64.1112 1.88035 64.1112C2.00622 64.1112 2.13531 64.0996 2.26342 64.0775C3.02635 63.9458 28.2165 59.6967 46.6094 56.5943C54.6818 55.2328 61.2152 54.1308 63.2603 53.7856C63.9892 53.6713 64.8584 53.2491 64.8584 51.8889C64.8584 51.8298 64.9997 36.1923 64.9997 32.0867C64.9997 30.9822 64.5925 29.9084 64.5074 29.6962ZM35.6683 7.27126C39.7186 7.27126 43.015 10.567 43.015 14.618C43.015 18.6687 39.7196 21.9647 35.6683 21.9647C31.6173 21.9647 28.3215 18.669 28.3215 14.6177C28.3215 10.5667 31.617 7.27126 35.6683 7.27126ZM5.73739 37.8363C8.50719 35.4538 14.5715 30.2956 27.46 19.4197C29.114 22.2361 32.1728 24.1315 35.6683 24.1315C39.5712 24.1315 42.9319 21.7682 44.397 18.3983C50.6379 20.3843 56.1463 23.7237 60.7991 28.3437C61.1096 28.6516 61.8003 29.264 60.5306 29.4813C52.5343 30.8508 6.75656 38.387 6.18886 38.4965C5.56625 38.616 4.77153 38.7126 5.73739 37.8363ZM62.6987 49.864C62.6952 50.9532 62.4749 51.7415 60.7695 52.0077C57.7059 52.4861 52.4312 53.4141 46.2488 54.457C30.2758 57.1514 9.19016 60.7997 3.3953 61.6875C2.60443 61.8086 2.17769 61.2601 2.19407 60.2182C2.26696 55.6245 2.46379 43.1251 2.46379 42.3012C2.46379 41.2904 3.52598 41.1363 3.52598 41.1363C3.52598 41.1363 60.4269 31.7364 61.2332 31.5794C62.0395 31.4224 62.7517 31.451 62.7517 32.5003C62.7517 33.3493 62.7141 45.2386 62.6987 49.864Z" fill="black"/>
<path d="M22.7329 26.8856C20.1683 26.8856 18.1592 28.4889 18.1592 30.5352C18.1595 32.5816 20.1683 34.1848 22.7329 34.1848C25.2975 34.1848 27.3063 32.5819 27.3063 30.5355C27.3063 28.4885 25.2975 26.8856 22.7329 26.8856ZM22.7329 32.0177C21.3149 32.0177 20.3266 31.2365 20.3266 30.5355C20.3266 29.8346 21.3149 29.0534 22.7329 29.0534C24.1509 29.0534 25.1389 29.8346 25.1389 30.5355C25.1389 31.2365 24.1509 32.0177 22.7329 32.0177Z" fill="black"/>
<path d="M47.1491 21.9641C44.5845 21.9641 42.5757 23.5674 42.5757 25.6137C42.5757 27.6607 44.5845 29.2633 47.1491 29.2633C49.7134 29.2633 51.7228 27.6601 51.7228 25.6137C51.7228 23.5674 49.7134 21.9641 47.1491 21.9641ZM47.1491 27.0959C45.7311 27.0959 44.7431 26.3147 44.7431 25.6137C44.7431 24.9124 45.7311 24.1315 47.1491 24.1315C48.5671 24.1315 49.5554 24.9128 49.5554 25.6137C49.5554 26.315 48.5674 27.0959 47.1491 27.0959Z" fill="black"/>
<path d="M34.5804 24.7528C32.0158 24.7528 30.0063 26.3561 30.0063 28.4024C30.0067 30.4494 32.0158 32.052 34.5804 32.052C37.1447 32.052 39.1535 30.4488 39.1535 28.4024C39.1535 26.3557 37.1444 24.7528 34.5804 24.7528ZM34.5804 29.8849C33.1624 29.8849 32.1738 29.1037 32.1738 28.4027C32.1741 27.7021 33.1624 26.9205 34.5804 26.9205C35.9984 26.9205 36.9861 27.7018 36.9861 28.4027C36.9861 29.1037 35.9984 29.8849 34.5804 29.8849Z" fill="black"/>
<path d="M61.2188 36.5128C60.7866 36.1012 60.1017 36.1185 59.6881 36.5494C59.5738 36.6689 56.8496 39.4538 53.9314 37.6338C50.2215 35.3203 47.6707 35.8604 44.5191 39.6249C42.7142 41.7808 41.8556 41.355 40.1441 40.507C38.2194 39.5523 35.5829 38.2458 31.7467 41.9542C29.6615 43.97 28.8087 43.4148 27.2607 42.4072C25.5672 41.3039 23.2473 39.7938 19.5745 43.1326C18.9834 43.6698 18.5175 44.1617 18.1431 44.5567C17.3577 45.3854 17.0716 45.6545 16.6895 45.6686C15.9419 45.6962 14.4167 44.9153 13.0257 44.1489C11.3271 43.2125 9.68148 43.0051 8.13443 43.534C5.36367 44.4802 4.03592 47.4822 3.9807 47.6097C3.74276 48.1588 3.99514 48.7965 4.54422 49.0347C4.68454 49.0957 4.83064 49.1243 4.9745 49.1243C5.39353 49.1243 5.79233 48.8799 5.96958 48.4712C5.97921 48.4487 6.99132 46.2145 8.83506 45.5848C9.79322 45.2576 10.8217 45.4085 11.9793 46.0469C14.444 47.4055 15.6957 47.8727 16.7681 47.8344C18.0679 47.7876 18.8318 46.9813 19.7165 46.0478C20.0844 45.6596 20.5012 45.2197 21.0326 44.7365C23.4669 42.5232 24.5056 43.2 26.0777 44.2234C27.7015 45.2811 29.9258 46.7289 33.253 43.5125C35.9891 40.8672 37.3978 41.5653 39.1818 42.449C40.9115 43.3066 43.2806 44.4806 46.1811 41.0162C48.9875 37.6636 50.4125 37.9937 52.7842 39.4727C56.33 41.6844 59.8795 39.5032 61.2608 38.0406C61.6709 37.6068 61.6513 36.9245 61.2188 36.5128Z" fill="black"/>
<path d="M61.6303 44.3813C61.1977 43.9693 60.5128 43.9867 60.0993 44.4173C59.985 44.5367 57.2604 47.3219 54.3423 45.5016C50.6326 43.1881 48.0821 43.7282 44.9299 47.4927C43.125 49.6486 42.2661 49.2228 40.5556 48.3748C38.6306 47.4202 35.9944 46.1133 32.1576 49.822C30.0727 51.8379 29.2199 51.2827 27.6718 50.2747C25.978 49.1718 23.6584 47.6613 19.9857 51.0004C19.3946 51.5376 18.9286 52.0296 18.5542 52.4245C17.7688 53.2533 17.4827 53.523 17.1006 53.5368C16.3528 53.5644 14.8279 52.7835 13.4369 52.017C11.7383 51.0807 10.093 50.8739 8.54591 51.4021C5.77515 52.3484 4.44741 55.3507 4.39218 55.4778C4.15489 56.0256 4.40599 56.6608 4.95314 56.9C5.0941 56.9616 5.24084 56.9908 5.38566 56.9908C5.80277 56.9908 6.20061 56.7484 6.37978 56.3426C6.38973 56.3204 7.3967 54.0782 9.25618 53.4498C10.2118 53.1267 11.237 53.2789 12.3907 53.915C14.8555 55.2736 16.1097 55.7415 17.1793 55.7026C18.4791 55.6557 19.243 54.8494 20.1279 53.916C20.4956 53.5278 20.9127 53.0879 21.4438 52.605C23.878 50.3916 24.9168 51.0682 26.4889 52.0922C28.1127 53.1495 30.3366 54.5977 33.6642 51.3809C36.4009 48.7354 37.8092 49.4338 39.5929 50.3175C41.3224 51.1751 43.6918 52.349 46.5926 48.885C49.399 45.5324 50.8234 45.8622 53.196 47.3415C56.7419 49.5532 60.2916 47.3717 61.6726 45.9091C62.0824 45.4753 62.0625 44.793 61.6303 44.3813Z" fill="black"/>
</svg>
