<svg width="25" height="25" viewBox="0 0 25 25" fill="none" xmlns="http://www.w3.org/2000/svg">
<g clip-path="url(#clip0)">
<path d="M18.5831 10.0313L20.0519 9.938C20.0544 9.93781 20.0571 9.93762 20.0598 9.93743C21.1065 9.84895 22.0461 9.29951 22.6377 8.42959L23.7989 6.72261C24.8096 5.23655 25.2012 3.44166 24.9012 1.66875C24.8423 1.32055 24.6645 0.999684 24.4009 0.765577C24.1371 0.531278 23.798 0.392916 23.4459 0.376098C21.6526 0.2901 19.9217 0.894957 18.5705 2.07849L17.0183 3.43822C16.2273 4.13099 15.7955 5.13144 15.8333 6.18349C15.8335 6.18598 15.8335 6.18865 15.8336 6.19133L15.9174 7.66343C15.95 8.23733 15.74 8.80358 15.3423 9.216L3.21573 21.698C2.8911 22.0372 2.72344 22.5026 2.74385 23.0085C2.76636 23.5653 3.02137 24.1123 3.42611 24.4718C3.79175 24.7965 4.29434 24.9815 4.79674 24.9815C4.85053 24.9815 4.90431 24.9794 4.95791 24.975C5.46164 24.9346 5.90281 24.7122 6.2015 24.3464L17.1129 10.7903C17.4747 10.3443 18.0107 10.0676 18.5831 10.0313ZM16.5304 10.3179L5.61995 23.8728C5.45325 24.0769 5.1969 24.2027 4.89821 24.2266C4.54287 24.2551 4.17857 24.1366 3.92336 23.9099C3.66816 23.6831 3.50718 23.3349 3.49287 22.9781C3.48066 22.6782 3.57432 22.4082 3.75475 22.2198L15.8804 9.73868C16.424 9.1751 16.7101 8.40321 16.6658 7.62082L16.5821 6.15253C16.5537 5.32905 16.8922 4.54608 17.5115 4.00352L19.0637 2.64379C20.2684 1.58868 21.8122 1.04995 23.4102 1.12601C23.5922 1.1348 23.7673 1.20627 23.9037 1.32743C24.04 1.44841 24.1318 1.61429 24.1623 1.79412C24.4297 3.37478 24.0807 4.97473 23.1796 6.29949L22.0184 8.00666C21.5551 8.68777 20.8198 9.11834 20.0004 9.18886L18.5356 9.28174C17.7551 9.33142 17.0246 9.70867 16.5304 10.3179Z" fill="black"/>
<path d="M24.3072 21.6033L16.1763 14.1832C16.0234 14.0435 15.7865 14.0545 15.6469 14.2078C15.5076 14.3611 15.5187 14.5986 15.6717 14.7383L23.8004 22.1568C23.9938 22.3358 24.1035 22.5997 24.1094 22.8998C24.1165 23.2568 23.9767 23.614 23.7354 23.8557C23.4943 24.0973 23.1384 24.2377 22.7813 24.2305C22.4819 24.2246 22.2185 24.1147 22.0416 23.923L14.7964 15.953C14.6569 15.7995 14.4199 15.7887 14.2669 15.9282C14.1139 16.0679 14.1029 16.3054 14.2423 16.4587L21.4893 24.4306C21.8078 24.7757 22.2614 24.9714 22.7666 24.9813C22.7798 24.9815 22.7928 24.9817 22.8059 24.9817C23.3489 24.9817 23.892 24.761 24.2652 24.3868C24.6479 24.0034 24.8697 23.4422 24.8586 22.8851C24.8487 22.3788 24.6536 21.9244 24.3072 21.6033Z" fill="black"/>
<path d="M4.52192 9.9602C5.1422 10.5328 5.94805 10.8592 6.7911 10.8794C6.79377 10.8796 6.79644 10.8796 6.79892 10.8796L8.27064 10.8842C8.84437 10.8859 9.39579 11.13 9.78279 11.5525L10.4311 12.2655C10.5051 12.3469 10.6064 12.3882 10.7082 12.3882C10.7983 12.3882 10.8887 12.3559 10.9604 12.2904C11.1135 12.1507 11.1246 11.9131 10.9852 11.7599L10.3359 11.0459C9.8072 10.4684 9.05532 10.1358 8.27312 10.1332L6.80541 10.1286C6.15328 10.1119 5.52977 9.86178 5.04664 9.42357L0.781604 4.34353C0.738117 4.29155 0.741359 4.21625 0.789234 4.16828C0.82204 4.13522 0.860569 4.13045 0.880596 4.13045C0.900623 4.13045 0.939152 4.13522 0.972149 4.16828L4.85438 8.05829C5.23814 8.4428 5.8626 8.4428 6.24636 8.0581L6.7026 7.60116V7.60097L7.51266 6.78933C7.51266 6.78933 7.51285 6.78933 7.51285 6.78914L7.51304 6.78895L7.96908 6.33201C8.35284 5.9475 8.35284 5.32181 7.96908 4.9373L4.08686 1.04749C4.0365 0.997036 4.0365 0.914669 4.08686 0.864216C4.13473 0.816248 4.20988 0.812999 4.26176 0.856572L9.33189 5.13013C9.76944 5.61402 10.0191 6.23894 10.0357 6.89215L10.0401 8.36292C10.0428 9.14646 10.3748 9.89981 10.952 10.4307L11.6467 11.0646C11.7998 11.2043 12.0367 11.1932 12.1761 11.04C12.3154 10.8865 12.3043 10.6491 12.1513 10.5094L11.4578 9.87649C11.035 9.48778 10.7916 8.93509 10.7897 8.36043L10.7851 6.88584C10.7851 6.88317 10.7851 6.88049 10.7849 6.87782C10.7647 6.03312 10.4389 5.22569 9.86747 4.6042C9.85679 4.59255 9.84535 4.58146 9.83314 4.57114L4.74413 0.28191C4.39242 -0.01469 3.88201 0.00747851 3.55699 0.333127C3.21424 0.676548 3.21424 1.23516 3.55699 1.57839L7.43922 5.46839C7.53078 5.56013 7.53078 5.70938 7.43922 5.80111L7.24791 5.9926L2.92108 1.65751C2.77479 1.51074 2.53751 1.51074 2.39122 1.65751C2.24493 1.80409 2.24493 2.04182 2.39122 2.1884L6.71805 6.52369L6.43767 6.80443L2.11084 2.46933C1.96455 2.32275 1.72727 2.32275 1.58098 2.46933C1.43449 2.61591 1.43449 2.85365 1.58098 3.00023L5.90762 7.33552L5.7165 7.5272C5.62495 7.61893 5.47598 7.61893 5.38443 7.5272L1.50201 3.63739C1.33607 3.47112 1.11539 3.37939 0.880596 3.37939C0.645801 3.37939 0.42512 3.47112 0.25918 3.63739C-0.0658327 3.96303 -0.0877673 4.47444 0.208063 4.82703L4.48912 9.9258C4.49923 9.93803 4.51029 9.9495 4.52192 9.9602Z" fill="black"/>
</g>
<defs>
<clipPath id="clip0">
<rect width="25" height="25" fill="white"/>
</clipPath>
</defs>
</svg>
