<svg width="64" height="64" viewBox="0 0 64 64" fill="none" xmlns="http://www.w3.org/2000/svg">
<path d="M63.0151 22.9413C62.1308 22.9413 61.1313 22.9416 60.2803 22.9413C59.9211 19.7567 57.7223 16.5251 54.5568 15.6331C54.2645 11.7179 50.9851 8.62231 46.9965 8.62231C46.3022 8.62231 45.6228 8.71489 44.9644 8.89873C43.7539 6.22486 41.059 4.44045 38.0556 4.44045C35.8226 4.44045 33.753 5.40823 32.3331 7.04732C30.9141 5.24802 28.7251 4.15173 26.3755 4.15173C23.1307 4.15173 20.3296 6.16952 19.2573 9.11365C18.4031 8.78998 17.4933 8.62199 16.5695 8.62199C12.5466 8.62199 9.24542 11.772 9.00234 15.735C5.86788 16.6938 3.67337 19.5858 3.6533 22.9352C2.79136 22.9345 1.93654 22.9342 1.09272 22.9342C0.489071 22.9342 0 23.4233 0 24.0266C0 31.3183 0.214272 37.7756 2.84768 42.9583C5.21212 47.6117 9.48623 51.2259 16.552 54.4934C15.7082 55.4255 15.178 56.9565 15.178 58.7555C15.178 59.3588 15.6671 59.8479 16.2704 59.8479H45.7202C46.3232 59.8479 46.8126 59.3588 46.8126 58.7555C46.8126 57.1394 46.3847 55.7398 45.6862 54.796C53.4068 51.3411 58.3134 47.1612 61.0513 41.7338C63.7741 36.3353 63.9997 30.3764 63.9997 24.236C63.9994 23.6324 63.6187 22.9413 63.0151 22.9413ZM10.2834 17.67C10.8292 17.5732 11.2159 17.0828 11.1829 16.5297C11.1758 16.408 11.1722 16.3015 11.1722 16.2037C11.1722 13.2279 13.593 10.8068 16.5689 10.8068C17.5706 10.8068 18.5491 11.0839 19.3984 11.6082C19.7085 11.7998 20.0937 11.8238 20.4254 11.6726C20.7569 11.5215 20.9915 11.2146 21.0501 10.855C21.478 8.23682 23.7175 6.33653 26.3746 6.33653C28.4862 6.33653 30.4156 7.58073 31.2902 9.50627C31.4633 9.88756 31.8391 10.1361 32.258 10.1465C32.6765 10.1559 33.0642 9.92704 33.2562 9.55482C34.1867 7.74775 36.0259 6.62525 38.055 6.62525C40.4757 6.62525 42.6155 8.2543 43.2577 10.5867C43.3425 10.8952 43.5581 11.1509 43.8478 11.2865C44.1378 11.4218 44.4721 11.4237 44.7634 11.291C45.4684 10.9699 46.2196 10.8071 46.9955 10.8071C49.9713 10.8071 52.3924 13.2282 52.3924 16.204C52.3924 16.296 52.3905 16.3872 52.3856 16.4782C52.3571 17.0556 52.7834 17.5557 53.3586 17.6185C55.7729 17.8823 57.6728 20.4257 58.0671 22.942C58.0671 22.942 6.17408 22.9381 5.83713 22.9381C5.85849 20.3361 7.72156 18.1247 10.2834 17.67ZM43.1188 53.522C43.1146 53.5236 43.1117 53.5256 43.1078 53.5272H38.4372C37.8339 53.5272 37.3448 54.0163 37.3448 54.6196C37.3448 55.2229 37.8339 55.712 38.4372 55.712H43.4299C43.7532 55.712 44.309 56.4458 44.5313 57.6634H17.4583C17.6807 56.4454 18.2364 55.712 18.5601 55.712H30.1347C30.738 55.712 31.2271 55.2229 31.2271 54.6196C31.2271 54.0163 30.738 53.5272 30.1347 53.5272H19.7839C19.7813 53.5262 19.7791 53.5246 19.7765 53.5236C11.783 50.1921 7.16258 46.6284 4.7949 41.9688C2.50685 37.4665 2.21101 31.6757 2.18609 25.1196C12.911 25.1229 60.9432 25.1203 61.8081 25.1203C61.721 37.2156 59.9703 46.5789 43.1188 53.522Z" fill="black"/>
</svg>
