<svg width="66" height="66" viewBox="0 0 66 66" fill="none" xmlns="http://www.w3.org/2000/svg">
<path d="M48.8435 16.8811C50.4194 14.8722 50.6946 12.3417 49.64 9.56318C48.8869 7.57888 47.7075 6.1563 47.6577 6.0968C47.2712 5.63436 46.5827 5.57291 46.1203 5.95968C45.6579 6.34613 45.5967 7.03333 45.9819 7.49577C46.0349 7.56013 49.7749 12.1564 47.1257 15.5339C43.311 20.3979 47.3783 26.813 47.5532 27.0836C47.7621 27.4067 48.113 27.5826 48.471 27.5826C48.6741 27.5826 48.8794 27.526 49.0625 27.4077C49.5682 27.0804 49.7138 26.4048 49.3865 25.8984C49.3529 25.8467 45.9926 20.5156 48.8435 16.8811Z" fill="black"/>
<path d="M56.1695 16.8811C57.7453 14.8722 58.0205 12.3417 56.966 9.56318C56.2125 7.57888 55.0331 6.1563 54.9833 6.0968C54.5972 5.63436 53.9083 5.57291 53.4459 5.95968C52.9841 6.34581 52.9223 7.033 53.3075 7.49545C53.3457 7.54169 57.106 12.1496 54.4513 15.5339C50.6366 20.3979 54.7042 26.813 54.8792 27.0836C55.0881 27.4067 55.4386 27.5826 55.7966 27.5826C55.9997 27.5826 56.205 27.526 56.3884 27.4077C56.8945 27.0804 57.0397 26.4048 56.7124 25.8984C56.6791 25.8467 53.3185 20.5156 56.1695 16.8811Z" fill="black"/>
<path d="M10.3392 17.3868C11.915 15.378 12.1902 12.8475 11.1357 10.0689C10.3822 8.08462 9.20312 6.66204 9.15332 6.60254C8.76687 6.14009 8.0787 6.07865 7.61593 6.46542C7.15414 6.85155 7.09237 7.53874 7.47752 8.00119C7.51601 8.04743 11.276 12.6554 8.62167 16.0396C4.80635 20.9037 8.87391 27.3184 9.04918 27.5894C9.25809 27.9124 9.60864 28.0884 9.96663 28.0884C10.1697 28.0884 10.3751 28.0318 10.5581 27.9134C11.0642 27.5861 11.2094 26.9103 10.8818 26.4042C10.8485 26.3524 7.48787 21.0214 10.3392 17.3868Z" fill="black"/>
<path d="M17.6654 17.3868C19.2412 15.378 19.5164 12.8475 18.4622 10.0689C17.709 8.08462 16.5296 6.66204 16.4798 6.60254C16.0934 6.14009 15.4052 6.07865 14.9424 6.46542C14.4806 6.85155 14.4189 7.53874 14.804 8.00119C14.8425 8.04743 18.6025 12.6554 15.9478 16.0396C12.1325 20.9037 16.2001 27.3184 16.375 27.5894C16.584 27.9124 16.9345 28.0884 17.2925 28.0884C17.4956 28.0884 17.7009 28.0318 17.8843 27.9134C18.3904 27.5861 18.5356 26.9103 18.208 26.4042C18.1747 26.3524 14.8141 21.0214 17.6654 17.3868Z" fill="black"/>
<path d="M62.3768 51.6818H60.0617C59.518 38.0662 48.8557 27.0103 35.4063 25.8429V24.7314C36.772 23.9145 37.6199 22.4502 37.6199 20.8223C37.6199 18.3025 35.5693 16.2522 33.0495 16.2522C33.033 16.2522 32.9673 16.2522 32.9508 16.2522C30.4307 16.2522 28.3804 18.3025 28.3804 20.8223C28.3804 22.4502 29.2287 23.9148 30.5937 24.7314V25.8429C17.1447 27.0103 6.48196 38.0659 5.93835 51.6818H3.62323C1.62534 51.6818 0 53.3071 0 55.3047V56.6694C0 58.6686 1.62534 60.2946 3.6229 60.2946H62.3771C64.375 60.2946 66 58.6686 66 56.6694V55.3047C65.9997 53.3071 64.3743 51.6818 62.3768 51.6818ZM30.5626 20.8223C30.5626 19.5061 31.6337 18.4351 32.9502 18.4351C32.967 18.4351 33.0323 18.4351 33.0488 18.4351C34.3653 18.4351 35.4364 19.5061 35.4364 20.8223C35.4364 21.8064 34.8394 22.6769 33.9155 23.0394C33.4977 23.2034 33.2231 23.6067 33.2231 24.0555V25.7407H32.7759V24.0555C32.7759 23.6067 32.501 23.2037 32.0835 23.0394C31.1596 22.6766 30.5626 21.8064 30.5626 20.8223ZM62.3768 58.1114H3.62258C2.82834 58.1114 2.18254 57.4643 2.18254 56.6691V55.3044C2.18254 54.5105 2.82866 53.8647 3.62258 53.8647H5.41705C5.42708 53.865 5.43645 53.8663 5.44648 53.8663H44.6416C45.2441 53.8663 45.733 53.3776 45.733 52.7748C45.733 52.1724 45.2441 51.6834 44.6416 51.6834H8.12412C8.69522 38.5177 19.5578 27.9763 32.8496 27.9232H33.1497C46.4419 27.9763 57.3038 38.5174 57.8752 51.6834H51.7011C51.0983 51.6834 50.6097 52.1724 50.6097 52.7748C50.6097 53.3776 51.0983 53.8663 51.7011 53.8663L60.1296 53.8647H62.3765C63.1707 53.8647 63.8165 54.5105 63.8165 55.3044V56.6691H63.8168C63.8168 57.4643 63.1707 58.1114 62.3768 58.1114Z" fill="black"/>
</svg>
