<svg width="65" height="49" viewBox="0 0 65 49" fill="none" xmlns="http://www.w3.org/2000/svg">
<path d="M39.9312 13.8738C39.9312 14.3996 40.3573 14.8259 40.8833 14.8259C41.4093 14.8259 41.8354 14.3996 41.8354 13.8738C41.8354 13.099 42.0434 12.7577 42.3312 12.2853C42.6759 11.7194 43.105 11.0151 43.105 9.70613C43.105 8.39687 42.6759 7.69253 42.3312 7.1267C42.0434 6.65418 41.8354 6.3128 41.8354 5.53788C41.8354 4.76296 42.0434 4.42158 42.3312 3.94906C42.6759 3.38311 43.105 2.6789 43.105 1.36963C43.105 0.843789 42.6788 0.41748 42.1528 0.41748C41.6269 0.41748 41.2007 0.843789 41.2007 1.36963C41.2007 2.14455 40.9927 2.48593 40.7049 2.95845C40.3603 3.5244 39.9312 4.22861 39.9312 5.53788C39.9312 6.84715 40.3601 7.55136 40.7049 8.11732C40.9929 8.58984 41.2007 8.93121 41.2007 9.70613C41.2007 10.4809 40.9927 10.8222 40.7049 11.2946C40.3603 11.8604 39.9312 12.5646 39.9312 13.8738Z" fill="black"/>
<path d="M34.4678 13.8738C34.4678 14.3996 34.894 14.8259 35.4199 14.8259C35.9459 14.8259 36.3721 14.3996 36.3721 13.8738C36.3721 13.099 36.58 12.7577 36.8678 12.2853C37.2125 11.7194 37.6416 11.0151 37.6416 9.70613C37.6416 8.39687 37.2125 7.69253 36.8678 7.1267C36.5799 6.65418 36.3721 6.3128 36.3721 5.53788C36.3721 4.76296 36.58 4.42158 36.8678 3.94906C37.2125 3.38311 37.6416 2.6789 37.6416 1.36963C37.6416 0.843789 37.2154 0.41748 36.6895 0.41748C36.1635 0.41748 35.7373 0.843789 35.7373 1.36963C35.7373 2.14455 35.5294 2.48593 35.2416 2.95845C34.8969 3.5244 34.4678 4.22861 34.4678 5.53788C34.4678 6.84715 34.8967 7.55136 35.2416 8.11732C35.5295 8.58984 35.7373 8.93121 35.7373 9.70613C35.7373 10.4809 35.5294 10.8222 35.2416 11.2946C34.8969 11.8604 34.4678 12.5646 34.4678 13.8738Z" fill="black"/>
<path d="M64.0479 46.6782H56.1581C59.0409 44.7066 60.9372 41.3934 60.9372 37.645V36.6024H62.0779C63.5765 36.6024 64.7956 35.3833 64.7956 33.8848V32.2527C64.7956 30.7541 63.5765 29.535 62.0779 29.535H60.0441C59.9233 26.4456 57.947 23.6567 55.0497 22.5333L52.2622 21.4524C51.9876 21.3459 51.7122 21.2429 51.4359 21.143L60.2437 10.0581L60.2823 10.0059C61.4426 8.32174 61.0163 6.00764 59.3323 4.84755C57.6481 3.68732 55.3343 4.1135 54.1738 5.79754L54.1553 5.82432L45.9804 19.6154C39.7928 18.3642 33.3871 18.6616 27.3038 20.5082L27.7994 10.3326C27.8295 9.7162 27.6027 9.10632 27.177 8.65944C26.7513 8.21257 26.1532 7.95625 25.536 7.95625H11.4818C10.9559 7.95625 10.5296 8.38256 10.5296 8.9084C10.5296 9.43424 10.9559 9.86054 11.4818 9.86054H25.5359C25.6708 9.86054 25.758 9.93088 25.7979 9.97277C25.8378 10.0147 25.9038 10.1051 25.8972 10.2399L25.3657 21.1515C25.0972 21.2489 24.8294 21.3488 24.5625 21.4522C24.5625 21.4522 21.5428 22.6276 21.4288 22.6784H2.82915L2.22333 10.2399C2.21673 10.1051 2.28274 10.0147 2.32273 9.97277C2.3626 9.93088 2.44981 9.86054 2.58464 9.86054H7.67317C8.19901 9.86054 8.62532 9.43424 8.62532 8.9084C8.62532 8.38256 8.19901 7.95625 7.67317 7.95625H2.58464C1.96752 7.95625 1.36944 8.21257 0.94377 8.65944C0.518096 9.10632 0.29123 9.7162 0.321191 10.3326L2.07924 46.4266C2.08343 46.512 2.09333 46.5957 2.10666 46.6782H0.952148C0.426309 46.6782 0 47.1045 0 47.6304C0 48.1562 0.426309 48.5825 0.952148 48.5825H4.34269H64.0479C64.5738 48.5825 65 48.1562 65 47.6304C65 47.1045 64.5738 46.6782 64.0479 46.6782ZM55.7584 6.85417C56.3285 6.05462 57.4404 5.8567 58.2518 6.41567C59.0633 6.97465 59.2745 8.08422 58.7304 8.90154L49.5106 20.5052C48.9859 20.3461 48.459 20.1974 47.9298 20.0614L55.7584 6.85417ZM22.4633 24.3087L25.251 23.2278C33.7383 19.9369 43.0864 19.9369 51.5737 23.2278L54.3612 24.3087C56.5312 25.1501 58.0176 27.2259 58.137 29.535H35.0937C34.5677 29.535 34.1415 29.9613 34.1415 30.4871C34.1415 31.013 34.5677 31.4393 35.0937 31.4393H62.0779C62.5264 31.4393 62.8913 31.8041 62.8913 32.2527V33.8848C62.8913 34.3333 62.5264 34.6982 62.0779 34.6982H13.8487C13.4002 34.6982 13.0353 34.3333 13.0353 33.8848V32.2527C13.0353 31.8041 13.4002 31.4393 13.8487 31.4393H31.2851C31.8109 31.4393 32.2372 31.013 32.2372 30.4871C32.2372 29.9613 31.8109 29.535 31.2851 29.535H18.6875C18.807 27.2259 20.2935 25.1501 22.4633 24.3087ZM18.8112 24.5828C17.5985 25.9267 16.853 27.6761 16.7804 29.535H13.8487C12.3501 29.535 11.131 30.7541 11.131 32.2527V33.8848C11.131 35.3833 12.3501 36.6024 13.8487 36.6024H15.1158V37.3188H3.54225L2.92195 24.5829H18.8112V24.5828ZM3.98125 46.334L3.63492 39.223H15.2312C15.6799 42.3132 17.4242 44.9885 19.895 46.6782H4.34269C4.14946 46.6782 3.99064 46.5271 3.98125 46.334ZM26.0534 46.6782C21.0724 46.6782 17.0201 42.6259 17.0201 37.645V36.6024H59.0328V37.645C59.0328 42.6259 54.9805 46.6782 49.9995 46.6782H26.0534Z" fill="black"/>
</svg>
