<svg width="64" height="46" viewBox="0 0 64 46" fill="none" xmlns="http://www.w3.org/2000/svg">
<path d="M13.37 17.2256C13.4989 15.8321 13.4003 12.044 9.77144 6.77642C9.49694 6.37892 9.54674 5.84282 9.88763 5.50202C11.3671 4.02252 12.2831 3.08892 12.9256 2.43562C13.7704 1.57422 14.1561 1.18172 14.7206 0.669923C15.0975 0.331122 15.6678 0.325223 16.0487 0.657323C22.3739 6.16122 29.3993 17.5342 28.3827 31.4678C27.787 39.6494 21.8192 45.5879 14.1932 45.5879C6.36714 45.5879 -6.10352e-05 39.2217 -6.10352e-05 31.3955C-6.10352e-05 23.8457 5.92563 17.6543 13.37 17.2256ZM14.1932 43.5879C20.7421 43.5879 25.87 38.4297 26.3885 31.3233C26.3885 31.3233 26.3885 31.3233 26.3885 31.3223C27.5321 15.6514 18.2167 5.47272 15.4022 2.77742C15.1278 3.04792 14.8143 3.36622 14.3524 3.83692C13.7958 4.40332 13.034 5.17872 11.8817 6.33502C16.287 13.1221 15.4559 17.958 15.0917 18.6514C14.9188 18.9805 14.5643 19.2022 14.1932 19.2022C7.46964 19.2022 1.99994 24.6719 1.99994 31.3955C1.99994 38.1182 7.46964 43.5879 14.1932 43.5879Z" fill="black"/>
<path d="M48.886 17.2256C49.0159 15.836 48.9202 12.0508 45.2874 6.77642C45.0139 6.37892 45.0628 5.84282 45.4036 5.50202C46.8802 4.02542 47.7952 3.09282 48.4368 2.43952C49.2844 1.57622 49.6712 1.18262 50.2356 0.669917C50.6126 0.331117 51.1829 0.326217 51.5637 0.656317C57.8889 6.16022 64.9153 17.5313 63.9007 31.4678V31.4688C63.303 39.6494 57.3343 45.5879 49.7083 45.5879C41.8821 45.5879 35.5149 39.2217 35.5149 31.3955C35.5149 23.8448 41.4407 17.6524 48.886 17.2256ZM49.7083 43.5879C56.2561 43.5879 61.387 38.4297 61.9065 31.3223V31.3233C63.0471 15.6485 53.7317 5.47172 50.9173 2.77742C50.6419 3.04792 50.3274 3.36822 49.8645 3.83992C49.3089 4.40632 48.5481 5.18072 47.3977 6.33502C51.803 13.1231 50.9719 17.958 50.6077 18.6504C50.4348 18.9795 50.0794 19.2022 49.7083 19.2022C42.9846 19.2022 37.5149 24.6719 37.5149 31.3955C37.5149 38.1182 42.9846 43.5879 49.7083 43.5879Z" fill="black"/>
</svg>
