<svg width="64" height="46" viewBox="0 0 64 46" fill="none" xmlns="http://www.w3.org/2000/svg">
<path d="M50.63 17.2256C50.5011 15.8321 50.5997 12.044 54.2286 6.77642C54.5031 6.37892 54.4533 5.84282 54.1124 5.50202C52.6329 4.02252 51.7169 3.08892 51.0744 2.43562C50.2296 1.57422 49.8439 1.18172 49.2794 0.669923C48.9025 0.331122 48.3322 0.325223 47.9513 0.657323C41.6261 6.16122 34.6007 17.5342 35.6173 31.4678C36.213 39.6494 42.1808 45.5879 49.8068 45.5879C57.6329 45.5879 64.0001 39.2217 64.0001 31.3955C64.0001 23.8457 58.0744 17.6543 50.63 17.2256ZM49.8068 43.5879C43.2579 43.5879 38.13 38.4297 37.6115 31.3233C37.6115 31.3233 37.6115 31.3233 37.6115 31.3223C36.4679 15.6514 45.7833 5.47272 48.5978 2.77742C48.8722 3.04792 49.1857 3.36622 49.6476 3.83692C50.2042 4.40332 50.966 5.17872 52.1183 6.33502C47.713 13.1221 48.5441 17.958 48.9083 18.6514C49.0812 18.9805 49.4357 19.2022 49.8068 19.2022C56.5304 19.2022 62.0001 24.6719 62.0001 31.3955C62.0001 38.1182 56.5304 43.5879 49.8068 43.5879Z" fill="black"/>
<path d="M15.114 17.2256C14.9841 15.836 15.0798 12.0508 18.7126 6.77642C18.9861 6.37892 18.9372 5.84282 18.5964 5.50202C17.1198 4.02542 16.2048 3.09282 15.5632 2.43952C14.7156 1.57622 14.3288 1.18262 13.7644 0.669917C13.3874 0.331117 12.8171 0.326217 12.4363 0.656317C6.11111 6.16022 -0.915291 17.5313 0.0993085 31.4678V31.4688C0.697009 39.6494 6.66571 45.5879 14.2917 45.5879C22.1179 45.5879 28.4851 39.2217 28.4851 31.3955C28.4851 23.8448 22.5593 17.6524 15.114 17.2256ZM14.2917 43.5879C7.74391 43.5879 2.61301 38.4297 2.09351 31.3223V31.3233C0.952908 15.6485 10.2683 5.47172 13.0827 2.77742C13.3581 3.04792 13.6726 3.36822 14.1355 3.83992C14.6911 4.40632 15.4519 5.18072 16.6023 6.33502C12.197 13.1231 13.0281 17.958 13.3923 18.6504C13.5652 18.9795 13.9206 19.2022 14.2917 19.2022C21.0154 19.2022 26.4851 24.6719 26.4851 31.3955C26.4851 38.1182 21.0154 43.5879 14.2917 43.5879Z" fill="black"/>
</svg>
