<svg width="75" height="75" viewBox="0 0 75 75" fill="none" xmlns="http://www.w3.org/2000/svg">
<g clip-path="url(#clip0)">
<path d="M56.4367 41.1939C59.2469 42.439 61.0627 45.2295 61.0627 48.3027V52.0184C61.0627 52.6252 61.5546 53.1171 62.1614 53.1171C62.7681 53.1171 63.26 52.6252 63.26 52.0184V48.3027C63.26 44.361 60.9311 40.7822 57.3145 39.1798L45.4002 34.0743C45.4005 34.0442 45.4028 34.0139 45.4028 33.984V29.2419C47.8566 27.0595 49.4064 23.8817 49.4064 20.3475L49.41 11.1681C49.41 8.72686 48.6759 6.37991 47.2869 4.38086C45.9302 2.4281 44.0474 0.939537 41.8423 0.0757271C41.4132 -0.0921423 40.9252 0.0251905 40.6194 0.369865L38.9629 2.23855C37.9943 3.30978 36.6114 3.92413 35.169 3.92413H31.9091C28.4255 3.92413 25.5912 6.75799 25.5912 10.2414V16.1806V16.1808C25.5912 16.1808 25.5912 16.1808 25.5912 16.1809V20.3474C25.5912 23.8833 27.1424 27.0626 29.5984 29.245V33.984C29.5984 34.0292 29.6017 34.0744 29.6026 34.1195L17.8463 39.2299C14.1377 40.7907 11.7412 44.3987 11.7412 48.422V52.0186C11.7412 52.6253 12.2331 53.1172 12.8398 53.1172C13.4466 53.1172 13.9385 52.6253 13.9385 52.0186V48.422C13.9385 45.2852 15.8068 42.4721 18.7104 41.2502L24.5495 38.7121C25.5135 41.0461 27.0819 43.0635 29.1375 44.5939C31.5691 46.4043 34.4603 47.3613 37.4989 47.3613C39.9011 47.3613 42.2719 46.7429 44.3548 45.5727C44.648 45.408 44.9395 45.2301 45.2211 45.0439C45.7272 44.7092 45.8662 44.0276 45.5315 43.5215C45.1967 43.0154 44.5152 42.8764 44.0091 43.2111C43.7716 43.3682 43.526 43.5182 43.2785 43.657C41.5235 44.6429 39.5249 45.1641 37.4988 45.1641C32.6478 45.1641 28.3695 42.2574 26.5637 37.8365L29.9627 36.3591C30.9787 39.591 34.0025 41.8855 37.5007 41.8855C41.0236 41.8855 44.0537 39.5718 45.0529 36.316L48.4582 37.7753C48.116 38.6221 47.6763 39.4273 47.1435 40.1781C46.7924 40.6729 46.9087 41.3587 47.4035 41.7098C47.5964 41.8468 47.8185 41.9126 48.0384 41.9126C48.3823 41.9126 48.721 41.7514 48.9353 41.4497C49.5584 40.5717 50.0737 39.6302 50.4775 38.6406L56.4367 41.1939ZM27.7884 20.3474V17.1786C28.2863 17.0806 28.7693 16.9126 29.219 16.6787C29.885 16.3323 30.4838 15.8357 30.9504 15.2424C31.3257 14.7656 31.2432 14.0748 30.7664 13.6997C30.2895 13.3242 29.5988 13.4067 29.2237 13.8836C28.9486 14.2333 28.5963 14.5257 28.205 14.7291C28.0638 14.8025 27.9242 14.861 27.7884 14.9079V10.2414C27.7884 7.96955 29.637 6.12137 31.9091 6.12137H35.169C37.2314 6.12137 39.2084 5.24321 40.6 3.70411L41.7348 2.424C45.0864 4.04014 47.2128 7.39504 47.2128 11.168V13.4126C45.8348 13.9226 44.3843 14.1839 42.8932 14.1839C39.6456 14.1839 36.5698 12.9425 34.2323 10.6883C33.7957 10.2671 33.1002 10.2797 32.6789 10.7164C32.2578 11.1532 32.2702 11.8486 32.707 12.2698C35.4562 14.9212 39.0738 16.3812 42.8932 16.3812C44.3712 16.3812 45.8167 16.165 47.2063 15.7371C47.21 15.803 47.2091 20.3474 47.2091 20.3474C47.2091 25.7009 42.853 30.0562 37.4988 30.0562C32.1445 30.0562 27.7884 25.7009 27.7884 20.3474ZM37.5005 39.6881C34.622 39.6881 32.188 37.5376 31.8387 34.6845C31.8101 34.4531 31.7956 34.2174 31.7956 33.9839V30.796C33.4903 31.7245 35.4338 32.2535 37.4988 32.2535C39.5652 32.2535 41.5101 31.7237 43.2056 30.7938V33.984C43.2056 34.2058 43.1924 34.4299 43.1659 34.653C42.8325 37.5235 40.3971 39.6881 37.5005 39.6881Z" fill="black"/>
<path d="M46.5974 61.6132L41.2372 60.8344L38.84 55.9779C38.588 55.4675 38.0781 55.1505 37.5089 55.1505C36.9397 55.1505 36.4297 55.4677 36.1779 55.9779L33.7807 60.8345L28.4204 61.6134C27.8571 61.6952 27.3979 62.0824 27.2221 62.6238C27.0463 63.1651 27.1903 63.7481 27.5978 64.1452L31.4766 67.9255L30.5609 73.2633C30.4648 73.8242 30.691 74.3804 31.1514 74.7149C31.6118 75.0494 32.2106 75.0929 32.7145 74.828L37.5089 72.3076L42.3034 74.828C42.5224 74.9432 42.7594 75 42.9953 75C43.3017 75 43.6062 74.9039 43.8664 74.7149C44.3268 74.3804 44.5531 73.8242 44.4569 73.2632L43.5412 67.9255L47.4198 64.1452C47.8274 63.7481 47.9714 63.1651 47.7957 62.6238C47.62 62.0824 47.1608 61.6952 46.5974 61.6132ZM36.8698 56.9504L36.8705 56.952C36.8702 56.9514 36.8699 56.9508 36.8698 56.9504C36.8696 56.9504 36.8696 56.9504 36.8698 56.9504ZM41.7393 66.6136C41.3894 66.9547 41.2298 67.4459 41.3125 67.9274L42.0474 72.211L38.1996 70.1883C37.7668 69.961 37.2506 69.9611 36.8182 70.1883L32.9706 72.211L33.7055 67.9274C33.7881 67.4457 33.6286 66.9546 33.2785 66.6134L30.166 63.5799L34.4673 62.955C34.9511 62.8847 35.3691 62.581 35.585 62.143L37.5089 58.2454L39.4325 62.1426C39.6487 62.581 40.0666 62.8847 40.5503 62.9549L44.8518 63.5799L41.7393 66.6136Z" fill="black"/>
<path d="M21.9285 61.6132L16.5682 60.8344L14.171 55.9779C13.9191 55.4675 13.4092 55.1505 12.8399 55.1505C12.2707 55.1505 11.7608 55.4677 11.509 55.9779L9.1118 60.8345L3.7514 61.6134C3.18818 61.6952 2.72895 62.0824 2.55317 62.6238C2.37739 63.1651 2.52139 63.7481 2.9289 64.1452L6.80762 67.9255L5.89196 73.2633C5.79587 73.8242 6.02204 74.3804 6.48243 74.7149C6.94283 75.0494 7.54165 75.0929 8.04555 74.828L12.8399 72.3076L17.6345 74.828C17.8535 74.9432 18.0905 75 18.3263 75C18.6328 75 18.9373 74.9039 19.1974 74.7149C19.6578 74.3804 19.8842 73.8242 19.7879 73.2632L18.8723 67.9255L22.7508 64.1452C23.1585 63.7481 23.3025 63.1651 23.1267 62.6238C22.9511 62.0824 22.4918 61.6952 21.9285 61.6132ZM12.2007 56.9504L12.2014 56.952C12.2013 56.9514 12.201 56.9508 12.2007 56.9504ZM17.0704 66.6136C16.7204 66.9547 16.5609 67.4459 16.6435 67.9274L17.3784 72.211L13.5306 70.1883C13.098 69.9611 12.5818 69.9611 12.1493 70.1883L8.3016 72.211L9.03651 67.9274C9.11913 67.4457 8.95961 66.9546 8.60951 66.6134L5.49704 63.5799L9.79837 62.955C10.2822 62.8847 10.7001 62.581 10.916 62.143L12.8399 58.2454L14.7636 62.1426C14.9798 62.581 15.3977 62.8847 15.8814 62.9549L20.1828 63.5799L17.0704 66.6136Z" fill="black"/>
<path d="M72.4472 62.6237C72.2714 62.0823 71.8122 61.6951 71.2488 61.6132L65.8885 60.8344L63.4913 55.9779C63.2394 55.4675 62.7295 55.1505 62.1603 55.1505C61.591 55.1505 61.0811 55.4677 60.8293 55.9779L58.4321 60.8345L53.0717 61.6134C52.5085 61.6952 52.0493 62.0824 51.8735 62.6238C51.6977 63.1651 51.8417 63.7481 52.2492 64.1452L56.1279 67.9255L55.2123 73.2633C55.1162 73.8242 55.3424 74.3804 55.8027 74.7149C56.2631 75.0494 56.862 75.0929 57.3659 74.828L62.1603 72.3076L66.9548 74.828C67.1738 74.9432 67.4108 75 67.6466 75C67.9531 75 68.2576 74.9039 68.5178 74.7149C68.9782 74.3804 69.2045 73.8242 69.1082 73.2632L68.1926 67.9255L72.0711 64.1452C72.4788 63.7479 72.6229 63.1651 72.4472 62.6237ZM61.521 56.9504L61.5217 56.952C61.5214 56.9514 61.5211 56.9508 61.521 56.9504C61.5209 56.9504 61.5209 56.9504 61.521 56.9504ZM66.3905 66.6136C66.0406 66.9547 65.8811 67.4459 65.9637 67.9274L66.6986 72.211L62.8508 70.1883C62.4182 69.9611 61.902 69.9611 61.4694 70.1883L57.6218 72.211L58.3567 67.9274C58.4393 67.4457 58.2798 66.9546 57.9297 66.6134L54.8172 63.5799L59.1185 62.955C59.6024 62.8847 60.0203 62.581 60.2362 62.143L62.1601 58.2454L64.0837 62.1426C64.2999 62.581 64.7178 62.8847 65.2015 62.9549L69.503 63.5799L66.3905 66.6136Z" fill="black"/>
</g>
<defs>
<clipPath id="clip0">
<rect width="75" height="75" fill="white"/>
</clipPath>
</defs>
</svg>
