<svg width="64" height="64" viewBox="0 0 64 64" fill="none" xmlns="http://www.w3.org/2000/svg">
<path d="M61.5595 27.43C61.3354 26.6175 60.9034 25.8774 60.3062 25.2826C59.7089 24.6879 58.9669 24.2591 58.1535 24.0385C56.9224 23.6887 55.6421 23.5438 54.364 23.6095C55.9045 21.7755 56.814 19.9595 56.255 18.522C55.6735 17.0305 54.67 16.1665 53.502 16.1515H53.47C52.263 16.1515 51.167 17.048 50.533 18.556C50.5015 18.631 50.4695 18.716 50.4375 18.797C50.2463 18.176 50.011 17.5695 49.7335 16.982C49.3744 16.2209 48.8231 15.5665 48.134 15.0833C47.445 14.6001 46.6419 14.3048 45.804 14.2265C45.425 14.1864 45.0423 14.2535 44.6995 14.4201C44.3567 14.5867 44.0676 14.8462 43.865 15.169C43.3725 16.039 43.615 17.2325 44.5885 18.7155C45.9241 20.6029 46.696 22.8309 46.8145 25.14C45.694 24.322 44.4695 23.713 42.9545 23.8435C42.0582 23.9419 41.1931 24.2295 40.4165 24.6875C40.9066 23.6535 41.1152 22.5084 41.021 21.368C40.9364 20.6066 40.6928 19.8715 40.306 19.2102C39.9193 18.5489 39.3979 17.9763 38.7756 17.5294C38.1534 17.0825 37.4443 16.7712 36.6941 16.6159C35.9439 16.4605 35.1695 16.4645 34.421 16.6275C32.981 16.9907 31.7054 17.8284 30.8 19.0055C30.1431 18.8221 29.4436 18.8642 28.8135 19.125C28.503 19.2496 28.2084 19.4107 27.936 19.605C27.6419 19.2829 27.2836 19.026 26.8841 18.851C26.4846 18.676 26.0529 18.5867 25.6167 18.5889C25.1806 18.5912 24.7498 18.6849 24.3521 18.864C23.9544 19.0431 23.5987 19.3036 23.308 19.6287C23.0173 19.9538 22.798 20.3363 22.6643 20.7515C22.5306 21.1666 22.4855 21.6052 22.5319 22.0389C22.5782 22.4726 22.715 22.8917 22.9335 23.2692C23.1519 23.6467 23.4471 23.9742 23.8 24.2305C23.6143 24.7757 23.5531 25.3556 23.621 25.9275C22.5585 25.1326 21.3184 24.6083 20.008 24.4C19.816 22.9685 18.9925 21.553 17.8245 21.0795C17.4844 19.9201 16.7263 18.9281 15.697 18.2955C15.0904 17.9217 14.3747 17.7653 13.6675 17.852C12.9373 16.4914 11.768 15.4181 10.35 14.807C9.61435 14.5004 8.82017 14.3599 8.02402 14.3954C7.22787 14.4309 6.44936 14.6416 5.74397 15.0125C5.02377 15.3548 4.388 15.8518 3.88204 16.4682C3.37608 17.0845 3.01241 17.8049 2.81697 18.578C2.45547 20.0793 2.61321 21.6588 3.26447 23.059C2.77241 23.569 2.46767 24.2306 2.39997 24.936C2.28633 26.1423 2.6249 27.3478 3.34997 28.3185C3.03647 29.494 3.64697 30.889 4.47247 31.8185C5.32247 32.777 6.34297 33.247 7.27847 33.149C7.6199 33.6042 8.04394 33.9911 8.52847 34.2895H8.49997C8.37874 34.2896 8.25885 34.3148 8.14788 34.3636C8.03691 34.4124 7.93728 34.4837 7.85531 34.573C7.77333 34.6623 7.7108 34.7676 7.67167 34.8824C7.63253 34.9971 7.61765 35.1187 7.62797 35.2395C8.07797 40.582 10.262 49.923 19.6515 54.3895C18.0715 56.1366 17.1745 58.3949 17.125 60.75C17.1249 60.8649 17.1475 60.9787 17.1914 61.0849C17.2354 61.1911 17.2998 61.2876 17.3811 61.3689C17.4624 61.4501 17.5589 61.5146 17.665 61.5585C17.7712 61.6025 17.885 61.6251 18 61.625H46C46.1149 61.6251 46.2287 61.6025 46.3349 61.5585C46.4411 61.5146 46.5376 61.4501 46.6188 61.3689C46.7001 61.2876 46.7645 61.1911 46.8085 61.0849C46.8524 60.9787 46.875 60.8649 46.875 60.75C46.8258 58.3953 45.9293 56.1372 44.35 54.39C53.7395 49.922 55.9245 40.581 56.3735 35.24C56.3838 35.1191 56.3689 34.9974 56.3296 34.8825C56.2904 34.7677 56.2278 34.6623 56.1456 34.5729C56.0635 34.4836 55.9637 34.4123 55.8525 34.3636C55.7414 34.3149 55.6213 34.2898 55.5 34.29H51.9C52.8625 31.48 51.973 29.7555 50.5975 28.3515C52.6475 28.017 54.9085 28.3625 57.3475 29.409C58.0421 29.7376 58.7953 29.9245 59.563 29.959C60.0707 29.9791 60.569 29.8172 60.968 29.5025C61.2521 29.2481 61.4584 28.9184 61.563 28.5517C61.6677 28.1849 61.6665 27.7961 61.5595 27.43ZM51.45 21.179C51.714 20.3975 51.9415 19.7225 52.1465 19.234C52.5335 18.312 53.09 17.9015 53.472 17.9015H53.479C53.8915 17.9065 54.32 18.3765 54.6245 19.157C54.9895 20.0945 53.5745 22.437 49.7145 25.7275C50.3752 24.244 50.9545 22.7256 51.45 21.179ZM45.3865 16.0325C45.5711 15.9529 45.7782 15.9424 45.97 16.003C46.4382 16.1069 46.8771 16.3151 47.2538 16.612C47.6305 16.9089 47.9355 17.287 48.146 17.718C48.9179 19.24 49.2438 20.9492 49.086 22.6485C48.909 23.1315 48.718 23.6225 48.5115 24.1145C48.2067 21.8295 47.363 19.6498 46.05 17.755C45.311 16.626 45.34 16.108 45.3865 16.0325ZM29.45 20.755C29.6366 20.6655 29.8433 20.6261 30.0497 20.6407C30.2561 20.6552 30.4553 20.7232 30.6275 20.838C30.7293 20.9075 30.8447 20.9546 30.966 20.9764C31.0874 20.9982 31.212 20.9941 31.3316 20.9644C31.4513 20.9348 31.5633 20.8801 31.6604 20.8041C31.7575 20.7282 31.8374 20.6325 31.895 20.5235C32.5444 19.4352 33.5972 18.6473 34.8245 18.331C35.3294 18.2254 35.8508 18.2259 36.3555 18.3326C36.8603 18.4393 37.3373 18.6498 37.7563 18.9507C38.1753 19.2516 38.5271 19.6364 38.7894 20.0806C39.0517 20.5249 39.2188 21.0188 39.28 21.531C39.3724 22.7923 38.9631 24.039 38.141 25C38.0588 25.0858 37.9952 25.1875 37.9539 25.2989C37.9127 25.4102 37.8947 25.5289 37.901 25.6475C37.9074 25.7661 37.938 25.8821 37.991 25.9884C38.0439 26.0947 38.1181 26.189 38.209 26.2655C36.95 27.3785 35.777 28.5852 34.7 29.875C34.5371 29.7502 34.3349 29.6877 34.13 29.699C34.1035 29.699 32.468 29.799 30.8495 30.078L32.741 27.441C33.5951 27.1548 34.4938 27.0247 35.394 27.057C35.5079 27.0717 35.6236 27.0638 35.7345 27.0337C35.8453 27.0037 35.9492 26.9521 36.0401 26.8819C36.131 26.8118 36.2073 26.7244 36.2644 26.6247C36.3216 26.5251 36.3585 26.4152 36.3732 26.3013C36.3879 26.1873 36.38 26.0716 36.3499 25.9608C36.3199 25.8499 36.2683 25.746 36.1982 25.6551C36.128 25.5642 36.0406 25.488 35.9409 25.4308C35.8413 25.3736 35.7314 25.3367 35.6175 25.322C35.1602 25.2818 34.7001 25.2895 34.2445 25.345L35.93 22.995C35.9969 22.9017 36.0448 22.7961 36.0709 22.6842C36.0971 22.5724 36.1009 22.4565 36.0822 22.3431C36.0636 22.2298 36.0228 22.1212 35.9622 22.0237C35.9015 21.9261 35.8223 21.8414 35.729 21.7745C35.6356 21.7076 35.53 21.6597 35.4182 21.6335C35.3063 21.6074 35.1904 21.6036 35.0771 21.6222C34.9638 21.6409 34.8552 21.6817 34.7576 21.7423C34.6601 21.8029 34.5754 21.8822 34.5085 21.9755L32.8205 24.3285C32.7264 23.8775 32.5861 23.4373 32.402 23.015C32.3001 22.8065 32.1195 22.647 31.9 22.5716C31.6805 22.4962 31.44 22.5111 31.2315 22.613C31.0229 22.7149 30.8634 22.8955 30.788 23.115C30.7127 23.3345 30.7276 23.575 30.8295 23.7835C31.1502 24.6277 31.315 25.523 31.316 26.426L29.426 29.0615C29.171 27.4365 28.739 25.852 28.732 25.827C28.6656 25.6083 28.5163 25.4242 28.316 25.3141C28.1157 25.204 27.8803 25.1767 27.6601 25.238C27.4399 25.2992 27.2524 25.4442 27.1377 25.642C27.023 25.8397 26.9903 26.0744 27.0465 26.296C27.373 27.47 27.9325 30.109 27.8505 31.2575L26.0315 33.7935C26.0221 32.9537 25.9044 32.1187 25.6815 31.309C25.346 29.8315 25.0315 28.4355 25.7925 27.3695C25.9275 27.1812 25.9823 26.947 25.9448 26.7184C25.9073 26.4897 25.7806 26.2853 25.5925 26.15C25.238 25.895 25.3075 25.166 25.523 24.5965C25.8655 23.6885 26.5305 23.0965 26.915 23.136C27.1269 23.1591 27.3398 23.1031 27.5131 22.979C27.6863 22.8548 27.8077 22.6711 27.854 22.463C27.9578 22.1117 28.143 21.7899 28.3945 21.5235C28.4015 21.5155 28.409 21.5075 28.4155 21.4995C28.6995 21.1762 29.0532 20.9217 29.45 20.755ZM27.83 34.29L29.28 32.27C30.602 31.8625 31.9667 31.609 33.347 31.5145C32.651 32.384 31.943 33.3145 31.2295 34.29H27.83ZM25.635 20.33C25.841 20.3305 26.0443 20.3772 26.2299 20.4667C26.4155 20.5562 26.5787 20.6861 26.7075 20.847C26.5765 21.0359 26.4615 21.2354 26.364 21.4435C25.6706 21.6427 25.0635 22.0676 24.639 22.651C24.4534 22.4563 24.3291 22.2114 24.2815 21.9466C24.2339 21.6819 24.2651 21.409 24.3711 21.1619C24.4772 20.9147 24.6535 20.7041 24.8782 20.5562C25.1029 20.4083 25.366 20.3297 25.635 20.33ZM23.624 28.3C23.5431 29.4432 23.6616 30.5918 23.974 31.6945C24.194 32.4245 24.2926 33.1856 24.266 33.9475C24.2495 34.0603 24.2408 34.174 24.24 34.288H21.732L20.8185 33.3745H22.661C22.893 33.3745 23.1156 33.2823 23.2797 33.1182C23.4438 32.9541 23.536 32.7316 23.536 32.4995C23.536 32.2674 23.4438 32.0449 23.2797 31.8808C23.1156 31.7167 22.893 31.6245 22.661 31.6245H20.818L22.1215 30.321C22.2809 30.156 22.3691 29.935 22.3672 29.7056C22.3652 29.4762 22.2733 29.2567 22.1111 29.0944C21.9489 28.9321 21.7294 28.8401 21.5 28.838C21.2706 28.836 21.0495 28.9241 20.8845 29.0835L19.5805 30.387V28.546C19.5805 28.3139 19.4883 28.0914 19.3242 27.9273C19.1601 27.7632 18.9375 27.671 18.7055 27.671C18.4734 27.671 18.2508 27.7632 18.0868 27.9273C17.9227 28.0914 17.8305 28.3139 17.8305 28.546V30.3885L16.5275 29.0855C16.3634 28.9214 16.1408 28.8292 15.9087 28.8292C15.6766 28.8292 15.4541 28.9214 15.29 29.0855C15.1259 29.2496 15.0337 29.4722 15.0337 29.7043C15.0337 29.9363 15.1259 30.1589 15.29 30.323L16.5935 31.6265H14.75C14.5179 31.6265 14.2953 31.7187 14.1312 31.8828C13.9672 32.0469 13.875 32.2694 13.875 32.5015C13.875 32.7336 13.9672 32.9561 14.1312 33.1202C14.2953 33.2843 14.5179 33.3765 14.75 33.3765H16.5935L15.6795 34.29H12.495C12.0962 32.9119 12.1672 31.4402 12.6968 30.1069C13.2265 28.7736 14.1847 27.6543 15.4204 26.9255C16.6562 26.1966 18.0993 25.8996 19.5224 26.0812C20.9455 26.2628 22.2678 26.9127 23.281 27.9285C23.4055 28.053 23.5175 28.177 23.624 28.3ZM7.95697 31.3045C7.84764 31.2685 7.73228 31.2543 7.61749 31.2629C7.5027 31.2715 7.39072 31.3026 7.28797 31.3545C6.85997 31.5705 6.22397 31.1585 5.78047 30.659C5.08797 29.879 4.87197 28.977 5.10497 28.624C5.22261 28.4471 5.27176 28.2333 5.24323 28.0228C5.2147 27.8122 5.11045 27.6193 4.94997 27.48C4.6577 27.1685 4.43451 26.7987 4.29501 26.3949C4.15551 25.9912 4.10285 25.5625 4.14047 25.137C4.14975 24.9163 4.21625 24.7018 4.33345 24.5146C4.45065 24.3273 4.61451 24.1738 4.80897 24.069C4.91804 24.0113 5.01365 23.9311 5.08952 23.8338C5.16539 23.7364 5.21981 23.6241 5.24918 23.5043C5.27856 23.3844 5.28223 23.2597 5.25996 23.1383C5.23769 23.0169 5.18998 22.9016 5.11997 22.8C4.42528 21.668 4.2062 20.3073 4.51047 19.0145C4.64351 18.484 4.89351 17.99 5.24215 17.5686C5.5908 17.1472 6.02927 16.8091 6.52547 16.579C7.00712 16.3205 7.54046 16.1728 8.08649 16.1469C8.63253 16.1209 9.17747 16.2173 9.68147 16.429C10.898 16.9598 11.8556 17.9499 12.3455 19.1835C12.3849 19.3002 12.4486 19.4072 12.5322 19.4975C12.6159 19.5879 12.7177 19.6596 12.8309 19.7079C12.9442 19.7562 13.0664 19.7801 13.1895 19.778C13.3127 19.7758 13.4339 19.7477 13.5455 19.6955C13.7476 19.6033 13.9702 19.565 14.1916 19.5845C14.413 19.6039 14.6255 19.6804 14.8085 19.8065C15.1702 20.0316 15.4802 20.3306 15.7183 20.6839C15.9564 21.0371 16.1171 21.4368 16.19 21.8565C16.2045 22.0686 16.2958 22.2681 16.4467 22.4178C16.5976 22.5675 16.7978 22.6571 17.01 22.67C17.456 22.697 18.0035 23.4385 18.213 24.3165C16.2059 24.4291 14.3107 25.2769 12.889 26.698C12.815 26.772 12.7475 26.848 12.6765 26.927L11.9 25.3665C12.0494 24.4277 12.369 23.524 12.843 22.7C12.9091 22.606 12.9561 22.5 12.9813 22.3878C13.0064 22.2757 13.0093 22.1597 12.9896 22.0465C12.9699 21.9333 12.9282 21.8251 12.8667 21.728C12.8052 21.6309 12.7252 21.5469 12.6312 21.4808C12.5373 21.4146 12.4312 21.3676 12.3191 21.3424C12.2069 21.3173 12.091 21.3145 11.9777 21.3341C11.8645 21.3538 11.7563 21.3955 11.6592 21.457C11.5621 21.5185 11.4781 21.5985 11.412 21.6925C11.1408 22.1175 10.9154 22.57 10.7395 23.0425L9.34997 20.2735C9.24614 20.0659 9.06409 19.9081 8.84387 19.8347C8.62366 19.7613 8.38332 19.7784 8.17572 19.8823C7.96812 19.9861 7.81027 20.1681 7.7369 20.3883C7.66352 20.6086 7.68063 20.8489 7.78447 21.0565L9.17097 23.8275C8.68789 23.6851 8.19114 23.5941 7.68897 23.556H7.66197C7.4299 23.5526 7.20597 23.6414 7.03944 23.8031C6.87291 23.9647 6.77742 24.1859 6.77397 24.418C6.77052 24.6501 6.8594 24.874 7.02106 25.0405C7.18271 25.2071 7.4039 25.3026 7.63597 25.306C8.57917 25.4216 9.49352 25.7075 10.3345 26.15L11.52 28.5185C11.4223 28.6938 11.3318 28.8722 11.2485 29.0535C10.022 28.6645 8.86147 28.3845 8.49147 28.3035C8.26444 28.2554 8.02759 28.2994 7.83302 28.4259C7.63845 28.5524 7.5021 28.751 7.45397 28.978C7.40583 29.205 7.44985 29.4419 7.57634 29.6364C7.70284 29.831 7.90144 29.9674 8.12847 30.0155C8.55397 30.1055 9.61597 30.3705 10.688 30.709C10.4978 31.5652 10.4456 32.4463 10.5335 33.319C10.1014 33.2065 9.6959 33.0094 9.34057 32.739C8.98523 32.4687 8.68711 32.1305 8.46347 31.744C8.35952 31.5362 8.17736 31.3781 7.95697 31.3045ZM18.9315 59.875C19.2385 57.5005 20.7065 55.588 21.475 55.1035H21.484C21.4925 55.1035 21.5005 55.1035 21.509 55.1035H42.515H42.525C43.294 55.5895 44.7605 57.5035 45.067 59.8735L18.9315 59.875ZM42.3555 53.3535H21.6445C12.55 49.7405 10.0875 41.338 9.46747 36.04H54.5325C53.9125 41.338 51.45 49.7405 42.3555 53.3535ZM33.406 34.29C34.169 33.278 34.9225 32.325 35.656 31.452C38.831 27.6635 41.2675 25.745 43.106 25.587C44.552 25.464 45.68 26.414 47.106 27.62L47.356 27.8275C47.3675 27.8385 47.3805 27.8485 47.393 27.859L47.8475 28.24L48.068 28.424L48.0875 28.4405L48.2215 28.552C48.2436 28.573 48.267 28.5927 48.2915 28.611C50.1955 30.214 51.2735 31.3945 50.0375 34.29H33.406ZM59.856 28.1525C59.7895 28.214 59.283 28.333 58.0395 27.8025C55.9932 26.8669 53.7584 26.4168 51.5095 26.4875C51.7595 26.2655 52.0058 26.0412 52.2485 25.8145C54.0145 25.2184 55.9227 25.1896 57.706 25.732C58.168 25.8641 58.5944 26.0985 58.9536 26.4178C59.3128 26.7371 59.5956 27.1331 59.781 27.5765C59.8725 27.7538 59.8991 27.9576 59.856 28.1525Z" fill="black"/>
<path d="M49.4952 42.96C48.8933 44.186 48.1388 45.3309 47.2497 46.3675C47.1745 46.4544 47.1172 46.5553 47.0811 46.6644C47.0449 46.7735 47.0306 46.8886 47.0389 47.0032C47.0473 47.1178 47.0781 47.2297 47.1296 47.3324C47.1812 47.4351 47.2525 47.5266 47.3394 47.6017C47.4264 47.6769 47.5272 47.7342 47.6363 47.7703C47.7454 47.8065 47.8605 47.8208 47.9751 47.8125C48.0897 47.8042 48.2016 47.7733 48.3043 47.7218C48.407 47.6702 48.4985 47.5989 48.5737 47.512C49.559 46.3635 50.395 45.0949 51.0617 43.7365C51.1646 43.5285 51.1808 43.2881 51.1065 43.0682C51.0322 42.8483 50.8737 42.667 50.6657 42.564C50.4577 42.461 50.2173 42.4449 49.9974 42.5192C49.7775 42.5934 49.5961 42.752 49.4932 42.96H49.4952Z" fill="black"/>
<path d="M28.6998 8.625C29.3177 8.62451 29.9217 8.44081 30.4352 8.09713C30.9488 7.75345 31.349 7.26522 31.5851 6.69415C31.8212 6.12309 31.8828 5.49484 31.7619 4.88881C31.6411 4.28279 31.3432 3.7262 30.9061 3.28941C30.469 2.85262 29.9121 2.55524 29.306 2.43486C28.6999 2.31449 28.0717 2.37652 27.5008 2.61312C26.9299 2.84971 26.442 3.25025 26.0987 3.7641C25.7555 4.27795 25.5723 4.88204 25.5723 5.5C25.5732 6.32895 25.9031 7.12365 26.4895 7.70957C27.0759 8.29549 27.8708 8.62474 28.6998 8.625ZM28.6998 4.125C28.9716 4.12549 29.2372 4.20656 29.463 4.35794C29.6888 4.50933 29.8646 4.72425 29.9683 4.97554C30.072 5.22683 30.0989 5.50322 30.0455 5.76978C29.9922 6.03634 29.8611 6.28111 29.6687 6.47315C29.4763 6.6652 29.2313 6.79591 28.9646 6.84876C28.6979 6.90161 28.4216 6.87424 28.1705 6.77009C27.9194 6.66595 27.7048 6.48971 27.5538 6.26365C27.4028 6.03759 27.3223 5.77184 27.3223 5.5C27.3227 5.13502 27.468 4.78513 27.7263 4.52728C27.9846 4.26944 28.3348 4.12473 28.6998 4.125Z" fill="black"/>
<path d="M18.7715 13.8149C19.3896 13.8149 19.9937 13.6317 20.5076 13.2883C21.0215 12.9449 21.4221 12.4568 21.6586 11.8858C21.8951 11.3148 21.957 10.6865 21.8364 10.0803C21.7159 9.47409 21.4182 8.91727 20.9812 8.48023C20.5442 8.0432 19.9873 7.74557 19.3811 7.62499C18.775 7.50441 18.1466 7.5663 17.5756 7.80282C17.0046 8.03934 16.5165 8.43988 16.1731 8.95379C15.8298 9.46769 15.6465 10.0719 15.6465 10.6899C15.6474 11.5185 15.9769 12.3128 16.5628 12.8986C17.1486 13.4845 17.943 13.814 18.7715 13.8149ZM18.7715 9.31494C19.0434 9.31494 19.3093 9.39559 19.5354 9.54667C19.7615 9.69776 19.9377 9.91251 20.0418 10.1638C20.1459 10.415 20.1731 10.6915 20.1201 10.9582C20.067 11.2249 19.9361 11.4699 19.7438 11.6622C19.5515 11.8545 19.3065 11.9855 19.0397 12.0385C18.773 12.0916 18.4965 12.0643 18.2453 11.9603C17.994 11.8562 17.7793 11.68 17.6282 11.4539C17.4771 11.2277 17.3965 10.9619 17.3965 10.6899C17.3967 10.3254 17.5417 9.97577 17.7995 9.71796C18.0573 9.46016 18.4069 9.31521 18.7715 9.31494Z" fill="black"/>
<path d="M41.4702 12.8621C42.0883 12.8621 42.6925 12.6788 43.2064 12.3354C43.7203 11.992 44.1208 11.504 44.3573 10.9329C44.5939 10.3619 44.6557 9.7336 44.5352 9.1274C44.4146 8.52121 44.117 7.96439 43.6799 7.52735C43.2429 7.09031 42.6861 6.79269 42.0799 6.67211C41.4737 6.55153 40.8453 6.61341 40.2743 6.84994C39.7033 7.08646 39.2153 7.487 38.8719 8.0009C38.5285 8.51481 38.3452 9.119 38.3452 9.73706C38.3461 10.5656 38.6757 11.3599 39.2615 11.9457C39.8474 12.5316 40.6417 12.8611 41.4702 12.8621ZM41.4702 8.36206C41.7422 8.36206 42.008 8.4427 42.2341 8.59379C42.4602 8.74488 42.6365 8.95962 42.7405 9.21087C42.8446 9.46212 42.8718 9.73859 42.8188 10.0053C42.7657 10.272 42.6348 10.517 42.4425 10.7093C42.2502 10.9016 42.0052 11.0326 41.7385 11.0856C41.4717 11.1387 41.1953 11.1115 40.944 11.0074C40.6928 10.9033 40.478 10.7271 40.3269 10.501C40.1759 10.2749 40.0952 10.009 40.0952 9.73706C40.0955 9.37247 40.2404 9.02289 40.4982 8.76508C40.756 8.50728 41.1056 8.36233 41.4702 8.36206Z" fill="black"/>
</svg>
