<svg width="65" height="65" viewBox="0 0 65 65" fill="none" xmlns="http://www.w3.org/2000/svg">
<g clip-path="url(#clip0)">
<path d="M57.1274 28.6854H7.87256C5.24339 28.6854 3.10449 30.8243 3.10449 33.4535V40.4365C3.10449 49.6961 9.95856 57.9356 19.0805 59.5984C17.5834 61.8927 19.2947 65.0001 22.0102 65.0001H42.9897C45.7052 65.0001 47.4165 61.8927 45.9195 59.5984C55.041 57.9356 61.8954 49.7008 61.8954 40.4365V33.4535C61.8954 30.8243 59.7564 28.6854 57.1274 28.6854ZM7.87256 30.5927H57.1274C58.7049 30.5927 59.9882 31.8761 59.9882 33.4535V34.931H17.9847C17.458 34.931 17.0311 35.3578 17.0311 35.8846C17.0311 36.4114 17.458 36.8382 17.9847 36.8382H59.9882V40.4365C59.9882 42.8814 59.4856 45.2111 58.5794 47.3283H6.42053C5.51421 45.2111 5.01172 42.8814 5.01172 40.4365V36.8382H13.8295C14.3561 36.8382 14.7831 36.4114 14.7831 35.8846C14.7831 35.3578 14.3561 34.931 13.8295 34.931H5.01172V33.4535C5.01172 31.8761 6.29503 30.5927 7.87256 30.5927ZM42.4176 58.0072H40.6426C40.1159 58.0072 39.6889 58.434 39.6889 58.9608C39.6889 59.4875 40.1159 59.9144 40.6426 59.9144C40.6426 59.9144 42.955 59.9141 42.9897 59.9141C45.0442 59.9141 45.0442 63.0928 42.9897 63.0928H22.0102C19.9557 63.0928 19.9557 59.9141 22.0102 59.9141C22.0449 59.9141 36.4861 59.9144 36.4861 59.9144C37.0127 59.9144 37.4397 59.4875 37.4397 58.9608C37.4397 58.434 37.0127 58.0072 36.4861 58.0072H22.5824C16.0978 58.0072 10.423 54.4757 7.37859 49.2356H57.6215C54.5769 54.4759 48.9021 58.0072 42.4176 58.0072Z" fill="black"/>
<path d="M18.6105 21.0856C19.0193 23.5451 21.1261 25.33 23.6199 25.33H34.5051C36.5862 25.33 37.6048 24.6192 38.5738 23.4725C38.5835 23.4608 43.7074 16.773 43.7074 16.773C46.2662 13.4319 49.9406 11.0986 54.0537 10.2029L58.9156 9.14398C60.8759 8.71752 62.1864 6.79427 61.8371 4.85602C61.4838 2.90035 59.4593 1.44564 57.4041 1.89282L56.2178 2.1508C55.7031 2.26282 55.3767 2.77078 55.4886 3.28535C55.6005 3.80005 56.1088 4.12606 56.623 4.01455L57.8097 3.75644C58.9339 3.62611 59.6507 4.10559 59.96 5.19474C60.1292 6.13399 59.4789 7.06955 58.5099 7.28023L53.6477 8.33925C49.0942 9.33101 45.0262 11.9142 42.1933 15.6132L37.1024 22.2586C36.419 23.0634 35.876 23.4228 34.505 23.4228H23.6198C22.0625 23.4228 20.747 22.3083 20.4917 20.7725L20.0911 18.3704C20.0569 17.6025 20.4214 17.1726 21.1849 17.0805H36.0727C36.3695 17.0805 36.6494 16.9424 36.8298 16.7069L39.341 13.4289C42.6 9.17424 47.2674 6.15192 52.4832 4.91857C52.9957 4.7974 53.3129 4.28359 53.1918 3.77119C53.0706 3.25865 52.5567 2.9418 52.0444 3.06259C46.4019 4.39676 41.3526 7.66638 37.8269 12.269L35.6019 15.1734H21.1852C19.1082 15.4245 18.1166 16.5949 18.2102 18.6843L18.6105 21.0856Z" fill="black"/>
<path d="M26.2659 11.1197C26.7118 12.1869 28.553 11.6462 28.0256 10.3844C27.2997 8.64732 27.6337 7.87591 28.0566 6.89903C28.5435 5.7744 29.1495 4.37475 28.0161 1.84335C27.8008 1.36285 27.2369 1.14721 26.756 1.36285C26.2754 1.57799 26.0601 2.14214 26.2754 2.62289C27.0656 4.38772 26.7471 5.12327 26.3064 6.14122C25.8256 7.25186 25.2272 8.6341 26.2659 11.1197Z" fill="black"/>
<path d="M20.0706 9.84055C20.5165 10.9077 22.3578 10.3671 21.8304 9.10525C21.1045 7.36814 21.4385 6.59674 21.8614 5.61985C22.3482 4.49522 22.9542 3.09557 21.8208 0.56417C21.6057 0.0836757 21.0415 -0.131968 20.5608 0.0836757C20.0801 0.298811 19.8649 0.862969 20.0801 1.34372C20.8704 3.10854 20.5519 3.84409 20.1112 4.86205C19.6303 5.97269 19.0318 7.35492 20.0706 9.84055Z" fill="black"/>
<path d="M32.4613 9.84055C32.9072 10.9077 34.7484 10.3671 34.221 9.10525C33.4951 7.36814 33.8291 6.59674 34.252 5.61985C34.7389 4.49522 35.3449 3.09557 34.2115 0.56417C33.9962 0.0836757 33.4323 -0.131968 32.9514 0.0836757C32.4708 0.298811 32.2555 0.862969 32.4708 1.34372C33.261 3.10854 32.9425 3.84409 32.5018 4.86205C32.0208 5.97269 31.4225 7.35492 32.4613 9.84055Z" fill="black"/>
</g>
<defs>
<clipPath id="clip0">
<rect width="65" height="65" fill="white"/>
</clipPath>
</defs>
</svg>
