<svg version="1.1"
     xmlns="http://www.w3.org/2000/svg"
     display="none">
    <symbol id="cabinet" viewBox="0 0 17 17">
        <path d="M14.5104 10.9896C13.5846 10.0638 12.4827 9.37846 11.2804 8.96358C12.5681 8.07669 13.4141 6.59241 13.4141 4.91406C13.4141 2.20445 11.2096 0 8.5 0C5.79039 0 3.58594 2.20445 3.58594 4.91406C3.58594 6.59241 4.43192 8.07669 5.71964 8.96358C4.51735 9.37846 3.41541 10.0638 2.4896 10.9896C0.884166 12.595 0 14.7296 0 17H1.32812C1.32812 13.0454 4.54541 9.82812 8.5 9.82812C12.4546 9.82812 15.6719 13.0454 15.6719 17H17C17 14.7296 16.1158 12.595 14.5104 10.9896ZM8.5 8.5C6.52272 8.5 4.91406 6.89138 4.91406 4.91406C4.91406 2.93675 6.52272 1.32812 8.5 1.32812C10.4773 1.32812 12.0859 2.93675 12.0859 4.91406C12.0859 6.89138 10.4773 8.5 8.5 8.5Z" fill="currentColor"/>
    </symbol>

    <symbol id="cart" viewBox="0 0 32 28">
        <path d="M8.5 19.125H28.6875C28.8096 19.125 28.9279 19.083 29.0227 19.0059C29.1174 18.9289 29.1827 18.8216 29.2076 18.7021L31.8638 5.95212C31.88 5.87482 31.8786 5.7949 31.86 5.71818C31.8413 5.64146 31.8058 5.56986 31.7559 5.50859C31.7061 5.44733 31.6433 5.39794 31.572 5.36402C31.5007 5.3301 31.4227 5.3125 31.3438 5.3125H5.92071L4.76711 0.409527C4.73967 0.292981 4.67367 0.18912 4.57981 0.114785C4.48595 0.0404508 4.36973 2.635e-06 4.25 0H0.53125C0.390354 0 0.255228 0.0559709 0.1556 0.1556C0.0559708 0.255228 0 0.390354 0 0.53125C0 0.672146 0.0559708 0.807272 0.1556 0.9069C0.255228 1.00653 0.390354 1.0625 0.53125 1.0625H3.82925L7.853 18.1636C7.42422 18.3012 7.05014 18.5713 6.78456 18.935C6.51898 19.2986 6.37558 19.7372 6.375 20.1875V21.25C6.37563 21.8134 6.59972 22.3535 6.9981 22.7519C7.39647 23.1503 7.93661 23.3744 8.5 23.375H8.50146C8.205 23.7695 8.02431 24.2388 7.97965 24.7303C7.93499 25.2218 8.02813 25.716 8.24863 26.1575C8.46913 26.599 8.80827 26.9704 9.22801 27.2299C9.64775 27.4895 10.1315 27.6269 10.625 27.6269C11.1185 27.6269 11.6023 27.4895 12.022 27.2299C12.4417 26.9704 12.7809 26.599 13.0014 26.1575C13.2219 25.716 13.315 25.2218 13.2704 24.7303C13.2257 24.2388 13.045 23.7695 12.7485 23.375H23.3765C23.08 23.7695 22.8993 24.2388 22.8546 24.7303C22.81 25.2218 22.9031 25.716 23.1236 26.1575C23.3441 26.599 23.6833 26.9704 24.103 27.2299C24.5227 27.4895 25.0065 27.6269 25.5 27.6269C25.9935 27.6269 26.4773 27.4895 26.897 27.2299C27.3167 26.9704 27.6559 26.599 27.8764 26.1575C28.0969 25.716 28.19 25.2218 28.1454 24.7303C28.1007 24.2388 27.92 23.7695 27.6235 23.375H29.75C29.8909 23.375 30.026 23.319 30.1257 23.2194C30.2253 23.1198 30.2812 22.9846 30.2812 22.8437C30.2812 22.7029 30.2253 22.5677 30.1257 22.4681C30.026 22.3685 29.8909 22.3125 29.75 22.3125H8.5C8.21831 22.3122 7.94825 22.2001 7.74907 22.0009C7.54988 21.8017 7.43783 21.5317 7.4375 21.25V20.1875C7.43783 19.9058 7.54988 19.6357 7.74907 19.4366C7.94825 19.2374 8.21831 19.1253 8.5 19.125ZM8.92075 18.0625L8.42078 15.9375H11.3514L11.617 18.0625H8.92088H8.92075ZM20.4305 12.75L20.342 14.875H16.8455L16.757 12.75H20.4305ZM16.7127 11.6875L16.6241 9.5625H20.5634L20.4748 11.6875H16.7127ZM15.7821 14.875H12.2891L12.0235 12.75H15.6934L15.7821 14.875ZM15.8263 15.9375L15.9149 18.0625H12.6876L12.422 15.9375H15.8263ZM16.8898 15.9375H20.2977L20.2091 18.0625H16.9784L16.8898 15.9375ZM21.3612 15.9375H24.7654L24.4998 18.0625H21.2724L21.3612 15.9375ZM21.4054 14.875L21.494 12.75H25.1639L24.8982 14.875H21.4054ZM26.2346 12.75H29.3623L28.9199 14.875H25.969L26.2346 12.75ZM26.3674 11.6875L26.633 9.5625H30.0264L29.584 11.6875H26.3674ZM25.2967 11.6875H21.5381L21.6267 9.5625H25.5622L25.2967 11.6875ZM21.6709 8.5L21.7595 6.375H25.9606L25.695 8.5H21.6709ZM20.6075 8.5H16.5799L16.4913 6.375H20.6962L20.6075 8.5ZM15.5164 8.5H11.4921L11.2265 6.375H15.4276L15.5164 8.5ZM15.5606 9.5625L15.6492 11.6875H11.8906L11.6249 9.5625H15.5606ZM10.82 11.6875H7.42063L6.92066 9.5625H10.5543L10.82 11.6875ZM10.9528 12.75L11.2184 14.875H8.17036L7.67039 12.75H10.9528ZM28.2559 18.0625H25.5705L25.8361 15.9375H28.6983L28.2559 18.0625ZM30.248 8.5H26.7658L27.0315 6.375H30.6904L30.248 8.5ZM10.156 6.375L10.4217 8.5H6.67077L6.1708 6.375H10.156ZM12.2188 24.9687C12.2188 25.284 12.1253 25.5921 11.9502 25.8542C11.775 26.1163 11.5261 26.3206 11.2349 26.4412C10.9437 26.5618 10.6232 26.5934 10.3141 26.5319C10.0049 26.4704 9.72094 26.3186 9.49805 26.0957C9.27516 25.8728 9.12337 25.5888 9.06187 25.2797C9.00038 24.9705 9.03194 24.6501 9.15257 24.3588C9.27319 24.0676 9.47747 23.8187 9.73956 23.6436C10.0017 23.4685 10.3098 23.375 10.625 23.375C11.0475 23.3755 11.4526 23.5436 11.7514 23.8423C12.0502 24.1411 12.2183 24.5462 12.2188 24.9687ZM27.0938 24.9687C27.0938 25.284 27.0003 25.5921 26.8252 25.8542C26.65 26.1163 26.4011 26.3206 26.1099 26.4412C25.8187 26.5618 25.4982 26.5934 25.1891 26.5319C24.8799 26.4704 24.5959 26.3186 24.373 26.0957C24.1502 25.8728 23.9984 25.5888 23.9369 25.2797C23.8754 24.9705 23.9069 24.6501 24.0276 24.3588C24.1482 24.0676 24.3525 23.8187 24.6146 23.6436C24.8767 23.4685 25.1848 23.375 25.5 23.375C25.9225 23.3755 26.3276 23.5436 26.6264 23.8423C26.9252 24.1411 27.0933 24.5462 27.0938 24.9687Z" fill="currentColor"/>
        <path d="M10.625 25.5C10.9184 25.5 11.1562 25.2622 11.1562 24.9688C11.1562 24.6753 10.9184 24.4375 10.625 24.4375C10.3316 24.4375 10.0938 24.6753 10.0938 24.9688C10.0938 25.2622 10.3316 25.5 10.625 25.5Z" fill="currentColor"/>
        <path d="M25.5 25.5C25.7934 25.5 26.0312 25.2622 26.0312 24.9688C26.0312 24.6753 25.7934 24.4375 25.5 24.4375C25.2066 24.4375 24.9688 24.6753 24.9688 24.9688C24.9688 25.2622 25.2066 25.5 25.5 25.5Z" fill="currentColor"/>
    </symbol>
    <symbol id="facebook" viewBox="0 0 9 18">
        <path d="M5.625 6.1875V3.9375C5.625 3.3165 6.129 2.8125 6.75 2.8125H7.875V0H5.625C3.76087 0 2.25 1.51088 2.25 3.375V6.1875H0V9H2.25V18H5.625V9H7.875L9 6.1875H5.625Z" fill="currentColor"/>
    </symbol>

    <symbol id="geo" viewBox="0 0 18 18">
        <path d="M9 0C5.51067 0 2.67188 2.8388 2.67188 6.32812C2.67188 7.50705 2.99844 8.65758 3.61649 9.65574L8.63979 17.7507C8.73601 17.9058 8.90553 18 9.08786 18C9.08926 18 9.09063 18 9.09204 18C9.27594 17.9986 9.44582 17.9014 9.54028 17.7436L14.4355 9.57023C15.0195 8.59317 15.3281 7.47207 15.3281 6.32812C15.3281 2.8388 12.4893 0 9 0ZM13.5304 9.02876L9.07987 16.4597L4.5129 9.10005C3.99846 8.26924 3.71953 7.31074 3.71953 6.32812C3.71953 3.42035 6.09223 1.04766 9 1.04766C11.9078 1.04766 14.277 3.42035 14.277 6.32812C14.277 7.2816 14.0164 8.21559 13.5304 9.02876Z" fill="currentColor"/>
        <path d="M9 3.16406C7.25534 3.16406 5.83594 4.58346 5.83594 6.32812C5.83594 8.06164 7.23224 9.49219 9 9.49219C10.7896 9.49219 12.1641 8.04259 12.1641 6.32812C12.1641 4.58346 10.7447 3.16406 9 3.16406ZM9 8.44453C7.83081 8.44453 6.88359 7.49415 6.88359 6.32812C6.88359 5.16502 7.83689 4.21172 9 4.21172C10.1631 4.21172 11.1129 5.16502 11.1129 6.32812C11.1129 7.47714 10.1877 8.44453 9 8.44453Z" fill="currentColor"/>
    </symbol>

    <symbol id="instagram" viewBox="0 0 18 18">
        <path d="M13.1275 0H4.87243C2.18573 0 0 2.18573 0 4.87243V13.1277C0 15.8142 2.18573 18 4.87243 18H13.1277C15.8142 18 18 15.8142 18 13.1277V4.87243C18 2.18573 15.8142 0 13.1275 0V0ZM16.9447 13.1277C16.9447 15.2324 15.2324 16.9447 13.1275 16.9447H4.87243C2.76759 16.9447 1.05523 15.2324 1.05523 13.1277V4.87243C1.05523 2.76759 2.76759 1.05523 4.87243 1.05523H13.1277C15.2324 1.05523 16.9447 2.76759 16.9447 4.87243V13.1277Z" fill="currentColor"/>
        <path d="M8.99985 4.07825C6.28596 4.07825 4.07812 6.28608 4.07812 8.99998C4.07812 11.7139 6.28596 13.9217 8.99985 13.9217C11.7137 13.9217 13.9216 11.7139 13.9216 8.99998C13.9216 6.28608 11.7137 4.07825 8.99985 4.07825ZM8.99985 12.8665C6.86796 12.8665 5.13336 11.132 5.13336 8.99998C5.13336 6.86808 6.86796 5.13348 8.99985 5.13348C11.1319 5.13348 12.8663 6.86808 12.8663 8.99998C12.8663 11.132 11.1319 12.8665 8.99985 12.8665Z" fill="currentColor"/>
        <path d="M14.0402 2.33032C13.2382 2.33032 12.5859 2.98277 12.5859 3.78463C12.5859 4.58663 13.2382 5.23908 14.0402 5.23908C14.8422 5.23908 15.4947 4.58663 15.4947 3.78463C15.4947 2.98263 14.8422 2.33032 14.0402 2.33032ZM14.0402 4.18371C13.8202 4.18371 13.6412 4.00463 13.6412 3.78463C13.6412 3.5645 13.8202 3.38556 14.0402 3.38556C14.2604 3.38556 14.4395 3.5645 14.4395 3.78463C14.4395 4.00463 14.2604 4.18371 14.0402 4.18371Z" fill="currentColor"/>
    </symbol>

    <symbol id="message-dash" viewBox="0 0 25 17">
        <path d="M22.9167 0H2.08333C0.933333 0.00136584 0.00135417 0.941379 0 2.10129V14.7091C0.00135417 15.869 0.933333 16.809 2.08333 16.8103H22.9167C24.0667 16.809 24.9986 15.869 25 14.7091V2.10129C24.9986 0.941379 24.0667 0.00136584 22.9167 0ZM24.1667 14.7091C24.1667 15.4054 23.607 15.9698 22.9167 15.9698H2.08333C1.39297 15.9698 0.833333 15.4054 0.833333 14.7091V2.10129C0.833333 1.40498 1.39297 0.840517 2.08333 0.840517H22.9167C23.607 0.840517 24.1667 1.40498 24.1667 2.10129V14.7091Z" fill="currentColor"/>
        <path d="M23.2726 1.88496C23.1541 1.68607 22.8982 1.62172 22.7009 1.74123L13.5705 7.26637C12.9112 7.66687 12.0864 7.66687 11.4272 7.26637L2.29676 1.74123C2.09739 1.62529 1.8426 1.69432 1.72765 1.89536C1.61562 2.0913 1.67744 2.34157 1.8676 2.46155L10.9988 7.98711C11.9219 8.54679 13.0758 8.54679 13.9988 7.98711L23.1301 2.46155C23.3273 2.34199 23.3911 2.0839 23.2726 1.88496Z" fill="currentColor"/>
        <path d="M2.08268 3.36218C1.85258 3.36218 1.66602 3.55035 1.66602 3.78244V14.7092C1.66602 14.9413 1.85258 15.1294 2.08268 15.1294C2.31279 15.1294 2.49935 14.9413 2.49935 14.7092V3.78244C2.49935 3.55035 2.31279 3.36218 2.08268 3.36218Z" fill="currentColor"/>
        <path d="M22.9167 3.36218C22.6866 3.36218 22.5 3.55035 22.5 3.78244V14.7092C22.5 14.9413 22.6866 15.1294 22.9167 15.1294C23.1468 15.1294 23.3333 14.9413 23.3333 14.7092V3.78244C23.3333 3.55035 23.1468 3.36218 22.9167 3.36218Z" fill="currentColor"/>
    </symbol>

    <symbol id="close" viewBox="0 0 22.88 22.88" style="enable-background:new 0 0 22.88 22.88;">
        <path fill="currentColor" d="M0.324,1.909c-0.429-0.429-0.429-1.143,0-1.587c0.444-0.429,1.143-0.429,1.587,0l9.523,9.539
            l9.539-9.539c0.429-0.429,1.143-0.429,1.571,0c0.444,0.444,0.444,1.159,0,1.587l-9.523,9.524l9.523,9.539
            c0.444,0.429,0.444,1.143,0,1.587c-0.429,0.429-1.143,0.429-1.571,0l-9.539-9.539l-9.523,9.539c-0.444,0.429-1.143,0.429-1.587,0
            c-0.429-0.444-0.429-1.159,0-1.587l9.523-9.539L0.324,1.909z"/>
    </symbol>

    <symbol id="message" viewBox="0 0 18 14">
        <path d="M16.128 0H1.55409C0.698234 0 0 0.697474 0 1.55409V11.9147C0 12.7684 0.695126 13.4688 1.55409 13.4688H16.128C16.9817 13.4688 17.6821 12.7736 17.6821 11.9147V1.55409C17.6821 0.700375 16.9869 0 16.128 0ZM15.9134 1.03606L8.87397 8.07548L1.7737 1.03606H15.9134ZM1.03606 11.7001V1.76368L6.02568 6.71051L1.03606 11.7001ZM1.76865 12.4327L6.76142 7.43993L8.51087 9.17436C8.71338 9.37515 9.04019 9.37449 9.24188 9.17277L10.9477 7.46697L15.9134 12.4327H1.76865ZM16.646 11.7001L11.6803 6.73438L16.646 1.76862V11.7001Z" fill="currentColor"/>
    </symbol>

    <symbol id="phone-outline" viewBox="0 0 16 16">
        <path d="M11.4991 16C10.9827 16 10.4706 15.9087 9.9698 15.7268C7.7637 14.9254 5.71597 13.6201 4.04791 11.9521C2.37986 10.284 1.0746 8.23629 0.273225 6.03019C0.0157045 5.32122 -0.0602924 4.58937 0.0474219 3.8549C0.148324 3.16693 0.414813 2.49905 0.818109 1.92345C1.22319 1.34532 1.76323 0.864465 2.37983 0.532884C3.03736 0.179305 3.75505 0 4.51302 0C4.74876 0 4.9525 0.164712 5.00191 0.395203L5.78669 4.05752C5.82222 4.22336 5.77125 4.39591 5.65135 4.51585L4.31037 5.85679C5.57538 8.37188 7.62805 10.4245 10.1431 11.6896L11.4841 10.3486C11.604 10.2287 11.7766 10.1778 11.9424 10.2132L15.6047 10.998C15.8352 11.0474 15.9999 11.2512 15.9999 11.4869C15.9999 12.2449 15.8206 12.9626 15.467 13.6201C15.1354 14.2367 14.6546 14.7768 14.0764 15.1818C13.5009 15.5851 12.833 15.8516 12.145 15.9525C11.9294 15.9842 11.7139 16 11.4991 16ZM4.11354 1.02183C3.11373 1.1322 2.22633 1.65624 1.63704 2.4973C0.974384 3.44305 0.819859 4.60628 1.21309 5.6888C2.75378 9.93006 6.06993 13.2462 10.3112 14.7869C11.3937 15.1801 12.5569 15.0256 13.5027 14.3629C14.3437 13.7737 14.8678 12.8863 14.9782 11.8864L11.9989 11.248L10.5984 12.6485C10.4494 12.7975 10.223 12.8371 10.0323 12.7475C7.05773 11.35 4.64995 8.94226 3.25251 5.96769C3.16292 5.77698 3.20248 5.55055 3.35151 5.40156L4.75195 4.00112L4.11354 1.02183Z" fill="currentColor"/>
    </symbol>

    <symbol id="phone-dash" viewBox="0 0 25 25">
        <path d="M24.344 19.2866L19.2839 15.9119C18.6418 15.4871 17.781 15.6269 17.3063 16.2331L15.8323 18.1284C15.6429 18.3782 15.2986 18.4506 15.0245 18.2984L14.7441 18.1438C13.8147 17.6372 12.6582 17.0064 10.3281 14.6753C7.99807 12.3443 7.36608 11.1868 6.85947 10.259L6.70573 9.97863C6.55141 9.70463 6.62249 9.3588 6.87236 9.16785L8.76622 7.69423C9.37218 7.21942 9.51215 6.35884 9.08785 5.71646L5.71335 0.656007C5.2785 0.00185822 4.40607 -0.194513 3.73288 0.210192L1.61693 1.48133C0.95209 1.87222 0.46432 2.50528 0.255904 3.24785C-0.506044 6.02429 0.0671615 10.816 7.1253 17.8755C12.7399 23.49 16.9197 24.9999 19.7926 24.9999C20.4538 25.0028 21.1124 24.9167 21.7507 24.7441C22.4933 24.536 23.1264 24.0481 23.5171 23.383L24.7894 21.2682C25.1946 20.5948 24.9984 19.7218 24.344 19.2866ZM24.0715 20.8407L22.8021 22.9568C22.5217 23.4368 22.0663 23.7898 21.5315 23.9417C18.9685 24.6454 14.4909 24.0626 7.71476 17.286C0.938664 10.5094 0.355889 6.03181 1.05954 3.46829C1.21167 2.93278 1.56504 2.47681 2.04563 2.19588L4.16158 0.926396C4.45367 0.750629 4.83233 0.835827 5.02102 1.11969L6.8541 3.87197L8.39264 6.1797C8.57689 6.45834 8.51635 6.8318 8.2535 7.03799L6.3592 8.5116C5.78272 8.95244 5.6181 9.75008 5.97303 10.3831L6.12344 10.6565C6.65588 11.633 7.31785 12.8479 9.73458 15.2645C12.1513 17.6809 13.3657 18.343 14.3418 18.8754L14.6155 19.0262C15.2485 19.3811 16.0461 19.2165 16.4869 18.64L17.9604 16.7456C18.1666 16.4829 18.5399 16.4224 18.8186 16.6064L23.8783 19.9812C24.1623 20.1697 24.2475 20.5486 24.0715 20.8407Z" fill="currentColor"/>
        <path d="M14.1666 4.1682C18.0762 4.17254 21.2445 7.3411 21.2489 11.251C21.2489 11.4811 21.4354 11.6676 21.6655 11.6676C21.8956 11.6676 22.0821 11.4811 22.0821 11.251C22.0772 6.88107 18.5362 3.33975 14.1666 3.33496C13.9365 3.33496 13.75 3.52147 13.75 3.75158C13.75 3.98169 13.9365 4.1682 14.1666 4.1682Z" fill="currentColor"/>
        <path d="M14.1666 6.66795C16.6963 6.67093 18.7463 8.72107 18.7493 11.251C18.7493 11.4811 18.9358 11.6676 19.1658 11.6676C19.3959 11.6676 19.5824 11.4811 19.5824 11.251C19.579 8.26104 17.1562 5.83813 14.1666 5.83472C13.9365 5.83472 13.75 6.02123 13.75 6.25134C13.75 6.48144 13.9365 6.66795 14.1666 6.66795Z" fill="currentColor"/>
        <path d="M14.1666 9.16771C15.3164 9.16908 16.2482 10.1009 16.2496 11.2509C16.2496 11.481 16.4362 11.6675 16.6662 11.6675C16.8963 11.6675 17.0828 11.481 17.0828 11.2509C17.081 9.64096 15.7764 8.33628 14.1666 8.33447C13.9365 8.33447 13.75 8.52098 13.75 8.75109C13.75 8.9812 13.9365 9.16771 14.1666 9.16771Z" fill="currentColor"/>
    </symbol>

    <symbol id="phone" viewBox="0 0 17 17">
        <g clip-path="url(#clip0)">
            <path d="M16.6189 13.4349L13.9935 10.8093C13.4706 10.2884 12.6046 10.3043 12.0634 10.8456L10.7408 12.168C10.6572 12.1219 10.5707 12.0738 10.4798 12.0228C9.6445 11.56 8.50131 10.9256 7.29834 9.72179C6.0918 8.5154 5.45688 7.37045 4.99266 6.53465C4.94368 6.44611 4.89674 6.36074 4.85039 6.27966L5.7381 5.39327L6.17454 4.9563C6.71651 4.41418 6.73146 3.54844 6.20975 3.0261L3.58437 0.400135C3.06266 -0.121473 2.19629 -0.105649 1.65432 0.436472L0.914395 1.18064L0.934615 1.20072C0.686509 1.5173 0.479184 1.88242 0.324899 2.27617C0.182678 2.65096 0.0941312 3.00862 0.0536431 3.367C-0.293022 6.24093 1.02028 8.86749 4.58441 12.4317C9.51112 17.358 13.4814 16.9859 13.6527 16.9677C14.0257 16.9231 14.3832 16.834 14.7466 16.6929C15.1369 16.5404 15.5018 16.3334 15.8181 16.0858L15.8343 16.1002L16.5839 15.3662C17.1248 14.8241 17.1403 13.9581 16.6189 13.4349Z" fill="currentColor"/>
        </g>
        <defs>
            <clipPath id="clip0">
                <rect width="17" height="17" fill="white"/>
            </clipPath>
        </defs>
    </symbol>

    <symbol id="refresh" viewBox="0 0 33 33">
        <path d="M16.3032 1.64063C18.8815 1.64063 21.464 2.3725 23.7714 3.75729C25.2349 4.63784 26.5499 5.7445 27.6671 7.03674L23.8124 6.9096C23.3597 6.89447 22.9805 7.24951 22.9657 7.70248C22.9508 8.15519 23.3056 8.53458 23.7586 8.5492L29.0919 8.72531C29.3982 8.85143 29.7504 8.78093 29.9847 8.54638C30.2188 8.31182 30.2888 7.9596 30.1621 7.65326L29.9865 2.32123C29.9763 1.86826 29.6007 1.50938 29.1478 1.51937C28.695 1.52963 28.3356 1.90518 28.3459 2.35789C28.3459 2.36404 28.3459 2.36968 28.3464 2.37557L28.4479 5.45175C27.3195 4.24589 26.0298 3.20178 24.6155 2.34994C22.0533 0.812622 19.1789 0 16.3032 0C11.7094 0 7.47407 1.89415 4.37893 5.33331C1.63704 8.38001 0 12.4808 0 16.3032C0 16.7562 0.36709 17.1235 0.820312 17.1235C1.27354 17.1235 1.64062 16.7562 1.64062 16.3032C1.64062 12.8751 3.12001 9.18443 5.59838 6.43099C8.37872 3.34226 12.1801 1.64063 16.3032 1.64063Z" fill="currentColor"/>
        <path d="M31.992 15.4829C31.5388 15.4829 31.1717 15.85 31.1717 16.3032C31.1717 19.7311 29.6923 23.422 27.2139 26.1757C24.4336 29.2644 20.6322 30.9655 16.5091 30.9655C13.9308 30.9655 11.3483 30.2341 9.04094 28.8494C7.57745 27.9685 6.26239 26.8619 5.14523 25.5699L8.99993 25.6971C9.45264 25.7117 9.83178 25.3566 9.84664 24.9039C9.86151 24.4512 9.50673 24.0721 9.05376 24.0569L3.72045 23.8811C3.41411 23.755 3.06189 23.8257 2.82759 24.06C2.59354 24.2946 2.52356 24.6465 2.6502 24.9529L2.82579 30.2849C2.83605 30.7381 3.2116 31.0973 3.66456 31.087C4.11727 31.077 4.47667 30.7015 4.46642 30.2485C4.46642 30.2426 4.46642 30.237 4.46591 30.2308L4.36439 27.1546C5.49284 28.3608 6.78252 29.4044 8.19679 30.2567C10.759 31.7943 13.6334 32.6066 16.5091 32.6066C21.1029 32.6066 25.3382 30.7128 28.4334 27.2736C31.1753 24.2266 32.8123 20.1258 32.8123 16.3032C32.8123 15.85 32.4452 15.4829 31.992 15.4829Z" fill="currentColor"/>
    </symbol>

    <symbol id="youtube" viewBox="0 0 18 18">
        <g clip-path="url(#clip0)">
            <path d="M11.7706 8.19116L7.79394 6.01532C7.56529 5.89022 7.29503 5.89488 7.07091 6.02768C6.84665 6.16062 6.71289 6.39545 6.71289 6.6561V10.9704C6.71289 11.2298 6.84582 11.4643 7.06857 11.5973C7.18489 11.6668 7.31384 11.7017 7.44307 11.7017C7.56144 11.7017 7.6801 11.6725 7.78927 11.6137L11.766 9.47533C12.0021 9.3483 12.1495 9.10289 12.1505 8.83469C12.1515 8.56648 12.0059 8.31998 11.7706 8.19116ZM7.76771 10.4277V7.20322L10.7398 8.82947L7.76771 10.4277Z" fill="currentColor"/>
            <path d="M17.8675 5.39745L17.8667 5.38921C17.8515 5.24432 17.6997 3.95563 17.0732 3.30016C16.3491 2.52919 15.5282 2.43553 15.1333 2.39062C15.1006 2.38692 15.0707 2.38348 15.0439 2.37991L15.0125 2.37662C12.6329 2.20358 9.0391 2.17996 9.00312 2.17982L8.99996 2.17969L8.99681 2.17982C8.96083 2.17996 5.36707 2.20358 2.96602 2.37662L2.9343 2.37991C2.90876 2.38335 2.8806 2.38651 2.84998 2.39008C2.45969 2.43512 1.64753 2.52892 0.921337 3.32776C0.324645 3.97623 0.15216 5.23732 0.134445 5.37904L0.132385 5.39745C0.127029 5.45773 0 6.89296 0 8.33382V9.68074C0 11.1216 0.127029 12.5568 0.132385 12.6172L0.133346 12.6263C0.148589 12.7689 0.3002 14.0339 0.923809 14.6897C1.60468 15.4348 2.4656 15.5334 2.92867 15.5864C3.00187 15.5948 3.0649 15.602 3.10788 15.6095L3.14949 15.6153C4.52347 15.746 8.83133 15.8104 9.01397 15.813L9.01947 15.8132L9.02496 15.813C9.06094 15.8129 12.6546 15.7893 15.0342 15.6162L15.0656 15.6129C15.0957 15.609 15.1295 15.6054 15.1666 15.6015C15.5547 15.5603 16.3624 15.4748 17.0786 14.6868C17.6753 14.0382 17.8479 12.7771 17.8655 12.6355L17.8675 12.6171C17.8729 12.5567 18.0001 11.1216 18.0001 9.68074V8.33382C17.9999 6.89296 17.8729 5.45787 17.8675 5.39745ZM16.9451 9.68074C16.9451 11.0143 16.8287 12.3878 16.8177 12.5138C16.7729 12.8611 16.5909 13.659 16.3002 13.975C15.852 14.4682 15.3915 14.5171 15.0553 14.5526C15.0147 14.5569 14.9771 14.561 14.943 14.5653C12.6414 14.7317 9.1833 14.7572 9.024 14.7582C8.84533 14.7556 4.60051 14.6906 3.26842 14.5669C3.20017 14.5558 3.12642 14.5473 3.04869 14.5385C2.65442 14.4933 2.11472 14.4315 1.69972 13.975L1.68997 13.9646C1.40432 13.667 1.22758 12.9209 1.18267 12.518C1.1743 12.4227 1.05482 11.033 1.05482 9.68074V8.33382C1.05482 7.00172 1.171 5.62981 1.18226 5.50113C1.23568 5.09203 1.42108 4.34248 1.69972 4.03954C2.16169 3.53142 2.64879 3.47511 2.97097 3.4379C3.00173 3.43433 3.03043 3.43103 3.05693 3.4276C5.39207 3.26033 8.875 3.23547 8.99996 3.23451C9.12493 3.23534 12.6066 3.26033 14.921 3.4276C14.9495 3.43117 14.9805 3.43474 15.0139 3.43858C15.3452 3.47635 15.8461 3.53348 16.3057 4.02374L16.31 4.02827C16.5956 4.32587 16.7724 5.08502 16.8173 5.49605C16.8252 5.586 16.9451 6.97865 16.9451 8.33382V9.68074Z" fill="currentColor"/>
        </g>
        <defs>
            <clipPath id="clip0">
                <rect width="18" height="18" fill="white"/>
            </clipPath>
        </defs>
    </symbol>


    <symbol id="search" viewBox="0 0 17 17" fill="none">
        <path d="M16.8962 15.8946L11.9579 10.9563C12.8945 9.79989 13.4583 8.32978 13.4583 6.72919C13.4583 3.01873 10.4396 0 6.72916 0C3.0187 0 0 3.01873 0 6.72919C0 10.4396 3.01873 13.4584 6.72919 13.4584C8.32978 13.4584 9.79989 12.8945 10.9563 11.9579L15.8946 16.8963C16.033 17.0346 16.2572 17.0346 16.3955 16.8963L16.8963 16.3955C17.0346 16.2572 17.0346 16.0329 16.8962 15.8946ZM6.72919 12.0417C3.79971 12.0417 1.41668 9.65868 1.41668 6.72919C1.41668 3.79971 3.79971 1.41668 6.72919 1.41668C9.65868 1.41668 12.0417 3.79971 12.0417 6.72919C12.0417 9.65868 9.65868 12.0417 6.72919 12.0417Z" fill="currentColor"/>
    </symbol>

    <symbol id="about" viewBox="0 0 55 55">
        <path d="M21.0833 18.3333H19.25V20.1666H21.0833V18.3333Z" fill="currentColor"/>
        <path d="M21.0833 22H19.25V23.8333H21.0833V22Z" fill="currentColor"/>
        <path d="M21.0833 25.6667H19.25V27.5H21.0833V25.6667Z" fill="currentColor"/>
        <path d="M21.0833 29.3333H19.25V31.1666H21.0833V29.3333Z" fill="currentColor"/>
        <path d="M24.7513 18.3333H22.918V20.1666H24.7513V18.3333Z" fill="currentColor"/>
        <path d="M24.7513 22H22.918V23.8333H24.7513V22Z" fill="currentColor"/>
        <path d="M24.7513 25.6667H22.918V27.5H24.7513V25.6667Z" fill="currentColor"/>
        <path d="M24.7513 29.3333H22.918V31.1666H24.7513V29.3333Z" fill="currentColor"/>
        <path d="M28.4173 18.3333H26.584V20.1666H28.4173V18.3333Z" fill="currentColor"/>
        <path d="M28.4173 22H26.584V23.8333H28.4173V22Z" fill="currentColor"/>
        <path d="M28.4173 25.6667H26.584V27.5H28.4173V25.6667Z" fill="currentColor"/>
        <path d="M28.4173 29.3333H26.584V31.1666H28.4173V29.3333Z" fill="currentColor"/>
        <path d="M32.0833 18.3333H30.25V20.1666H32.0833V18.3333Z" fill="currentColor"/>
        <path d="M24.7513 14.6667H22.918V16.5H24.7513V14.6667Z" fill="currentColor"/>
        <path d="M28.4173 14.6667H26.584V16.5H28.4173V14.6667Z" fill="currentColor"/>
        <path d="M32.0833 14.6667H30.25V16.5H32.0833V14.6667Z" fill="currentColor"/>
        <path d="M32.0833 22H30.25V23.8333H32.0833V22Z" fill="currentColor"/>
        <path d="M32.0833 25.6667H30.25V27.5H32.0833V25.6667Z" fill="currentColor"/>
        <path d="M32.0833 29.3333H30.25V31.1666H32.0833V29.3333Z" fill="currentColor"/>
        <path d="M35.7493 18.3333H33.916V20.1666H35.7493V18.3333Z" fill="currentColor"/>
        <path d="M35.7493 22H33.916V23.8333H35.7493V22Z" fill="currentColor"/>
        <path d="M35.7493 25.6667H33.916V27.5H35.7493V25.6667Z" fill="currentColor"/>
        <path d="M35.7493 29.3333H33.916V31.1666H35.7493V29.3333Z" fill="currentColor"/>
        <path d="M54.0844 13.75C54.084 13.75 54.0837 13.75 54.0833 13.75H40.3333V0.916667C40.3337 0.410667 39.9237 0.000343966 39.4177 2.16007e-07C39.4174 2.16007e-07 39.417 2.16007e-07 39.4167 2.16007e-07H15.5833C15.0773 -0.000343534 14.667 0.409636 14.6667 0.915636C14.6667 0.915979 14.6667 0.916323 14.6667 0.916667V13.75H0.916667C0.410667 13.7497 0.000343966 14.1596 2.16007e-07 14.6656C2.16007e-07 14.666 2.16007e-07 14.6663 2.16007e-07 14.6667V47.6667C-0.000343534 48.1727 0.409636 48.583 0.915636 48.5833C0.915979 48.5833 0.916323 48.5833 0.916667 48.5833H2.83284C2.77968 48.8861 2.75195 49.1927 2.75 49.5V54.0833C2.74966 54.5893 3.15964 54.9997 3.66564 55C3.66598 55 3.66632 55 3.66667 55H51.3333C51.8393 55.0003 52.2497 54.5904 52.25 54.0844C52.25 54.084 52.25 54.0837 52.25 54.0833V49.5C52.2482 49.1927 52.2204 48.8861 52.1672 48.5833H54.0833C54.5893 48.5837 54.9997 48.1737 55 47.6677C55 47.6674 55 47.667 55 47.6667V14.6667C55.0003 14.1607 54.5904 13.7503 54.0844 13.75ZM39.4167 39.4167C39.4167 40.4292 38.5959 41.25 37.5833 41.25C36.5708 41.25 35.75 40.4292 35.75 39.4167C35.75 38.4041 36.5708 37.5833 37.5833 37.5833C38.5953 37.5846 39.4154 38.4047 39.4167 39.4167ZM17.4167 37.5833C18.4292 37.5833 19.25 38.4041 19.25 39.4167C19.25 40.4292 18.4292 41.25 17.4167 41.25C16.4041 41.25 15.5833 40.4292 15.5833 39.4167C15.5846 38.4047 16.4047 37.5846 17.4167 37.5833ZM11.9167 53.1667H4.58333V49.5C4.58333 47.475 6.22497 45.8333 8.25 45.8333C10.275 45.8333 11.9167 47.475 11.9167 49.5V53.1667ZM6.41667 42.1667C6.41667 41.1541 7.23743 40.3333 8.25 40.3333C9.26257 40.3333 10.0833 41.1541 10.0833 42.1667C10.0833 43.1792 9.26257 44 8.25 44C7.238 43.9987 6.41793 43.1787 6.41667 42.1667ZM12.0555 45.5383C11.7098 45.2048 11.3222 44.9179 10.9024 44.6848C12.3005 43.2199 12.2466 40.8989 10.7817 39.5007C9.31689 38.1024 6.99589 38.1565 5.59763 39.6213C4.2452 41.0381 4.2452 43.2678 5.59763 44.6846C4.72267 45.1702 3.99575 45.884 3.4941 46.7499H1.83333V15.5833H14.6667V37.0168C13.4079 38.4293 13.4504 40.5734 14.7643 41.9348C13.3893 42.6952 12.404 44.0061 12.0555 45.5383ZM21.0833 53.1667H13.75V46.75C13.75 44.725 15.3916 43.0833 17.4167 43.0833C19.4417 43.0833 21.0833 44.725 21.0833 46.75V53.1667ZM32.0833 53.1667H22.9167V46.75C22.9167 44.2187 24.9687 42.1667 27.5 42.1667C30.0313 42.1667 32.0833 44.2187 32.0833 46.75V53.1667ZM24.75 37.5833C24.75 36.0645 25.9812 34.8333 27.5 34.8333C29.0188 34.8333 30.25 36.0645 30.25 37.5833C30.25 39.1021 29.0188 40.3333 27.5 40.3333C25.9819 40.3317 24.7516 39.1014 24.75 37.5833ZM33.0827 43.5984C32.4689 42.5163 31.5557 41.6345 30.4527 41.0592C32.3888 39.4285 32.6363 36.537 31.0057 34.6008C29.3749 32.6647 26.4834 32.4172 24.5473 34.0479C22.6112 35.6786 22.3637 38.5701 23.9943 40.5062C24.1625 40.706 24.3475 40.8909 24.5473 41.0592C23.4443 41.6345 22.5311 42.5163 21.9173 43.5984C21.4353 42.9109 20.8033 42.342 20.069 41.9348C21.4744 40.4971 21.4483 38.1922 20.0105 36.7869C19.0848 35.8819 17.7482 35.5368 16.5 35.8802V1.83333H38.5V35.8802C38.2013 35.7978 37.8932 35.754 37.5833 35.75C35.5637 35.7446 33.9221 37.3775 33.9167 39.3973C33.9141 40.3424 34.2777 41.2518 34.931 41.9348C34.1967 42.342 33.5647 42.9109 33.0827 43.5984ZM41.25 49.5V53.1667H33.9167V46.75C33.9167 44.725 35.5583 43.0833 37.5833 43.0833C39.6084 43.0833 41.25 44.725 41.25 46.75V49.5ZM50.4167 53.1667H43.0833V49.5C43.0833 47.475 44.725 45.8333 46.75 45.8333C48.775 45.8333 50.4167 47.475 50.4167 49.5V53.1667ZM44.9167 42.1667C44.9167 41.1541 45.7374 40.3333 46.75 40.3333C47.7626 40.3333 48.5833 41.1541 48.5833 42.1667C48.5833 43.1792 47.7626 44 46.75 44C45.738 43.9987 44.9179 43.1787 44.9167 42.1667ZM53.1667 46.75H51.5059C51.0043 45.8841 50.2773 45.1704 49.4024 44.6848C50.8005 43.2199 50.7466 40.8989 49.2817 39.5007C47.8169 38.1025 45.4959 38.1565 44.0976 39.6213C42.7452 41.0381 42.7452 43.2678 44.0976 44.6846C43.6778 44.9178 43.29 45.2047 42.9445 45.5382C42.5961 44.006 41.6107 42.6951 40.2357 41.9346C41.5496 40.5733 41.5923 38.4292 40.3335 37.0167V15.5833H53.1668V46.75H53.1667Z" fill="currentColor"/>
        <path d="M44.9173 21.0833H43.084V35.75H44.9173V21.0833Z" fill="currentColor"/>
        <path d="M50.4173 21.0833H48.584V35.75H50.4173V21.0833Z" fill="currentColor"/>
        <path d="M6.41536 21.0833H4.58203V35.75H6.41536V21.0833Z" fill="currentColor"/>
        <path d="M11.9173 21.0833H10.084V35.75H11.9173V21.0833Z" fill="currentColor"/>
        <path d="M33.0017 3.66669C33.0013 3.66669 33.001 3.66669 33.0007 3.66669H22.0007C21.4947 3.66634 21.0843 4.07632 21.084 4.58232C21.084 4.58267 21.084 4.58301 21.084 4.58335V11.9167C21.0836 12.4227 21.4936 12.833 21.9996 12.8334C22 12.8334 22.0003 12.8334 22.0007 12.8334H33.0007C33.5067 12.8337 33.917 12.4237 33.9173 11.9177C33.9173 11.9174 33.9173 11.917 33.9173 11.9167V4.58335C33.9177 4.07735 33.5077 3.66703 33.0017 3.66669ZM32.084 11H22.9173V5.50002H32.084V11Z" fill="currentColor"/>
    </symbol>

    <symbol id="delievery" viewBox="0 0 77 56">
        <path d="M61.6177 17.7879H56.826L58.2697 1.2114C58.2724 1.18137 58.2728 1.15179 58.273 1.12221C58.273 1.11968 58.2733 1.1173 58.2733 1.11477C58.2733 1.11433 58.2733 1.11403 58.2733 1.11359C58.2733 0.662413 58.0011 0.264757 57.601 0.0918702C57.5976 0.0903836 57.5944 0.0886001 57.5909 0.0871135C57.5661 0.0767076 57.5404 0.0677877 57.5145 0.0591656C57.5049 0.0560438 57.4957 0.0521786 57.486 0.0492054C57.4649 0.0428132 57.4432 0.037759 57.4216 0.032556C57.4065 0.0289882 57.3919 0.0246775 57.3766 0.0217044C57.3577 0.017988 57.3381 0.0156098 57.3188 0.0127854C57.3006 0.0101095 57.2828 0.00698731 57.2645 0.00535209C57.2614 0.00505478 57.2585 0.00445967 57.2554 0.00416236C57.2358 0.00237848 57.2165 0.00267589 57.197 0.0019326C57.1839 0.00148664 57.1711 0 57.1581 0H57.1441C57.1429 0 57.1417 0 57.1407 0H34.3411C33.7257 0 33.2262 0.499485 33.2262 1.11492C33.2262 1.72887 33.7257 2.22984 34.3411 2.22984H55.9428L53.7239 27.7058C53.7236 27.7078 53.7236 27.7097 53.7234 27.7116L53.1635 34.1397H14.4223L15.0703 27.4504H22.4468C23.0627 27.4504 23.5617 26.9512 23.5617 26.3355C23.5617 25.7198 23.0627 25.2206 22.4468 25.2206H15.2865L16.6547 11.099H28.3948C29.0107 11.099 29.5098 10.5998 29.5098 9.98406C29.5098 9.36832 29.0107 8.86913 28.3948 8.86913H16.8709L17.5142 2.22984H29.8814C30.4954 2.22984 30.9963 1.72887 30.9963 1.11492C30.9963 0.499485 30.4954 0 29.8814 0H16.5023C16.5017 0 16.5013 0.000148575 16.5007 0.000148575C15.977 -8.16664e-08 15.5227 0.368669 15.4128 0.879749C15.4121 0.883465 15.4108 0.887033 15.41 0.890749C15.4044 0.918548 15.4006 0.946941 15.3969 0.975483C15.3959 0.984551 15.394 0.993173 15.3931 1.00224C15.3929 1.00403 15.3925 1.00566 15.3923 1.00744L14.6306 8.86913H1.11492C0.499039 8.86913 0 9.36832 0 9.98406C0 10.5998 0.499039 11.099 1.11492 11.099H14.4145L13.0462 25.2206H9.06833C8.45245 25.2206 7.95341 25.7198 7.95341 26.3355C7.95341 26.9512 8.45245 27.4504 9.06833 27.4504H12.8302L12.0852 35.1391C12.085 35.1403 12.085 35.1415 12.0849 35.1425L10.9329 47.0319C10.9328 47.0332 10.9326 47.0347 10.9325 47.0359L10.932 47.0402C10.9305 47.0557 10.9307 47.0708 10.9298 47.0863C10.9288 47.1068 10.9267 47.1269 10.9267 47.1477C10.9267 47.1486 10.9268 47.1495 10.9268 47.1505C10.9268 47.1792 10.9289 47.2074 10.931 47.2357C10.9319 47.2448 10.9316 47.254 10.9326 47.2629C10.9356 47.2917 10.9405 47.3201 10.9457 47.3484C10.9472 47.3567 10.9479 47.3652 10.9496 47.3733C10.9539 47.3948 10.96 47.4154 10.9656 47.4364C10.9695 47.4511 10.9726 47.4661 10.9771 47.4805C10.9784 47.4845 10.9802 47.4884 10.9814 47.4926C11.0354 47.6585 11.1269 47.8074 11.2464 47.929C11.2487 47.9313 11.2505 47.9338 11.2527 47.9359C11.2646 47.9478 11.2775 47.9585 11.29 47.9698C11.3669 48.0402 11.4537 48.1 11.5487 48.1468C11.5684 48.1566 11.5879 48.1669 11.6081 48.1753C11.6142 48.178 11.6208 48.1798 11.627 48.1822C11.655 48.1933 11.683 48.204 11.712 48.2131C11.7147 48.2138 11.7172 48.2143 11.7199 48.2152C11.7529 48.225 11.7862 48.2336 11.8203 48.2406C11.8247 48.2415 11.8293 48.2418 11.8336 48.2427C11.866 48.2488 11.8986 48.254 11.9318 48.2573C11.9325 48.2573 11.9331 48.2574 11.9338 48.2576C11.9704 48.2611 12.0067 48.2629 12.0426 48.2629C12.0431 48.2629 12.0437 48.2628 12.0443 48.2628H17.0076C17.5557 52.4181 21.1183 55.6366 25.4211 55.6366C29.7237 55.6366 33.2862 52.4181 33.8343 48.2628H51.7175C52.2658 52.4181 55.8282 55.6366 60.1309 55.6366C64.4334 55.6366 67.9963 52.4181 68.5445 48.2628H73.5091C73.5098 48.2628 73.5107 48.2629 73.5114 48.2629C73.5486 48.2629 73.5852 48.2607 73.6214 48.2571C73.628 48.2565 73.6342 48.2552 73.6408 48.2544C73.6698 48.251 73.6986 48.247 73.7268 48.2413C73.739 48.239 73.7508 48.2357 73.7628 48.2329C73.7847 48.2278 73.8067 48.2225 73.8281 48.2161C73.8426 48.2118 73.8568 48.2067 73.871 48.2018C73.8893 48.1956 73.9076 48.189 73.9256 48.1817C73.9411 48.1756 73.9558 48.169 73.9708 48.1623C73.9871 48.1547 74.0035 48.147 74.0194 48.1388C74.0346 48.131 74.0491 48.123 74.0637 48.1147C74.079 48.1058 74.0942 48.0966 74.1092 48.087C74.1232 48.0781 74.1371 48.0691 74.1505 48.0595C74.1657 48.049 74.1801 48.0378 74.1948 48.0265C74.207 48.0169 74.2193 48.0074 74.2312 47.9973C74.2465 47.9843 74.261 47.9708 74.2755 47.957C74.2856 47.9473 74.2962 47.9378 74.306 47.9277C74.3215 47.9119 74.3362 47.8953 74.3509 47.8785C74.3588 47.8694 74.367 47.8606 74.3745 47.8514C74.3909 47.8312 74.4058 47.8104 74.4206 47.7894C74.4257 47.7822 74.4313 47.7753 74.4362 47.7679C74.4544 47.7407 74.4715 47.7127 74.4872 47.6839C74.4884 47.6821 74.4896 47.6805 74.4903 47.6785C74.5071 47.6476 74.5226 47.616 74.5364 47.5832C74.5403 47.5739 74.5433 47.5642 74.547 47.5549C74.556 47.5318 74.565 47.5088 74.5725 47.4848C74.5775 47.4694 74.581 47.4535 74.5853 47.4379C74.5902 47.4193 74.5954 47.4008 74.5996 47.382C74.6033 47.3652 74.6057 47.3479 74.6085 47.3308C74.611 47.3158 74.6143 47.3011 74.6162 47.2858C74.6635 46.907 75.5366 39.9025 75.9265 35.3732C75.927 35.3689 75.9271 35.3644 75.9276 35.3601C76.0398 34.0545 76.1117 32.955 76.1117 32.2819C76.1117 24.29 69.6098 17.7879 61.6177 17.7879ZM56.6317 20.0181H61.1929L60.6103 26.707H56.0491L56.6317 20.0181ZM25.4214 53.4066C21.9701 53.4066 19.1622 50.5987 19.1622 47.1475C19.1622 43.6963 21.9702 40.8885 25.4214 40.8885C28.8726 40.8885 31.6804 43.6963 31.6804 47.1475C31.6804 50.5987 28.8726 53.4066 25.4214 53.4066ZM60.1309 53.4066C56.6797 53.4066 53.872 50.5987 53.872 47.1475C53.872 43.6963 56.6798 40.8885 60.1309 40.8885C63.5822 40.8885 66.3901 43.6963 66.3901 47.1475C66.3901 50.5987 63.5822 53.4066 60.1309 53.4066ZM72.5239 46.0322H68.5448C67.9969 41.8765 64.4342 38.6579 60.1312 38.6579C55.8285 38.6579 52.2658 41.8766 51.7178 46.0322H33.8348C33.2868 41.8765 29.7243 38.6579 25.4214 38.6579C21.1186 38.6579 17.5557 41.8766 17.0078 46.0322H13.27L14.2063 36.3689H54.1852V36.3695C54.1858 36.3695 54.1863 36.3695 54.1869 36.3695C54.2242 36.3695 54.2612 36.3674 54.2978 36.3637C54.3046 36.3631 54.3113 36.3616 54.3181 36.3607C54.3473 36.3573 54.3762 36.3532 54.4048 36.3475C54.4171 36.345 54.4292 36.3416 54.4414 36.3386C54.4637 36.3332 54.486 36.328 54.5077 36.3215C54.5225 36.317 54.5366 36.3117 54.5511 36.3066C54.5698 36.3001 54.5885 36.2937 54.6067 36.2863C54.6223 36.2799 54.6373 36.2727 54.6525 36.2656C54.669 36.258 54.6855 36.2504 54.7014 36.2421C54.7165 36.2341 54.7314 36.2255 54.7464 36.2168C54.7617 36.2079 54.7769 36.1989 54.7917 36.1893C54.8062 36.18 54.8198 36.1702 54.8337 36.1603C54.8484 36.1499 54.8627 36.1392 54.8769 36.1281C54.8897 36.1178 54.9023 36.1073 54.9148 36.0964C54.929 36.0842 54.9428 36.0718 54.9562 36.0588C54.9675 36.048 54.9787 36.0368 54.9897 36.0254C55.0031 36.0114 55.0161 35.997 55.0288 35.9823C55.0388 35.9707 55.0486 35.9591 55.0581 35.9472C55.0705 35.9316 55.0822 35.9155 55.0938 35.8993C55.1026 35.8871 55.1111 35.8749 55.1194 35.8624C55.1302 35.8456 55.1406 35.8284 55.1506 35.8109C55.1582 35.7978 55.1659 35.7847 55.1727 35.7713C55.1821 35.7538 55.1901 35.7359 55.1986 35.7179C55.2052 35.7035 55.2118 35.6894 55.2178 35.6745C55.2251 35.657 55.2312 35.639 55.2376 35.621C55.2431 35.6051 55.2489 35.5892 55.2538 35.5729C55.2587 35.5556 55.2627 35.5379 55.2671 35.5204C55.2715 35.5027 55.2762 35.4852 55.2796 35.4672C55.2831 35.4496 55.2851 35.4318 55.2878 35.4139C55.2905 35.3955 55.2936 35.3774 55.2954 35.3586C55.2957 35.356 55.2963 35.3534 55.2964 35.3508L55.8552 28.9362H61.6174C65.0334 28.9362 66.5741 30.7062 68.205 32.5801C69.5508 34.1263 71.0533 35.8514 73.6072 36.2723C73.2828 39.7018 72.7585 44.1044 72.5239 46.0322ZM73.7978 34.038C72.141 33.7002 71.1216 32.5355 69.8867 31.1167C68.3424 29.3425 66.457 27.1773 62.8427 26.7739L63.4195 20.1516C69.3306 21.0258 73.8819 26.1318 73.8819 32.2822C73.8819 32.7001 73.8507 33.3072 73.7978 34.038Z" fill="currentColor"/>
    </symbol>

    <symbol id="products" viewBox="0 0 55 56">
        <path d="M54.6485 46.8382L49.2857 36.1684C49.1725 35.9432 48.9603 35.7839 48.7125 35.738C48.4646 35.6921 48.2094 35.7649 48.0231 35.9348C47.6445 36.28 47.1516 36.4701 46.6355 36.4701C45.4951 36.4701 44.5675 35.5419 44.5675 34.401C44.5675 33.4153 45.2686 32.5619 46.2347 32.3716C46.4818 32.323 46.6919 32.1616 46.8026 31.9355C46.9134 31.7093 46.912 31.4444 46.799 31.2193L45.4485 28.5312C44.8005 27.2427 43.5019 26.4422 42.0597 26.4421C42.0596 26.4421 42.0595 26.4421 42.0594 26.4421C41.9199 26.4421 41.7825 26.4518 41.6462 26.4665C41.6109 24.4762 41.5596 22.4833 41.4916 20.528C41.4234 18.5525 40.8425 16.623 39.8117 14.948C39.5784 14.569 39.0821 14.4508 38.7032 14.6841C38.3243 14.9174 38.2061 15.4137 38.4394 15.7926C39.324 17.2301 39.8226 18.8868 39.8812 20.5839C39.955 22.7016 40.0091 24.8637 40.0442 27.0186C39.469 27.379 38.9906 27.8949 38.6709 28.5303L34.729 36.3735C33.203 34.0019 31.0664 32.1622 28.5737 32.1622C24.2259 32.1622 20.9608 37.7582 20.1317 42.0131H20.0796C19.6544 39.8312 18.5886 37.2973 17.0647 35.3454C17.0538 33.8102 17.0536 32.268 17.0629 30.7225C17.8954 30.739 18.7298 30.7499 19.5664 30.7499C21.657 30.7499 23.756 30.6984 25.8384 30.5959C27.2501 30.5264 28.3958 29.4573 28.5628 28.0538C28.7881 26.1585 28.7881 24.2365 28.5628 22.3413C28.3958 20.9377 27.2502 19.8686 25.8388 19.7992C23.0211 19.6606 20.1676 19.6165 17.3429 19.6657C17.7629 16.3579 19.8125 13.5133 22.861 12.0737H34.2877C35.089 12.4521 35.8368 12.9381 36.5114 13.523C36.6638 13.6553 36.8517 13.7201 37.0388 13.7201C37.2643 13.7201 37.4886 13.626 37.6479 13.4423C37.9394 13.1061 37.9032 12.5972 37.5671 12.3057C37.2041 11.9909 36.8218 11.7018 36.4246 11.4367C37.1213 10.8896 37.5703 10.0403 37.5703 9.08777C37.5703 7.72043 36.6462 6.56568 35.39 6.2131V3.36389C35.3897 1.50904 33.8808 0 32.0258 0H25.1224C23.2675 0 21.7585 1.50904 21.7585 3.36389V6.21332C20.5022 6.5659 19.5781 7.72064 19.5781 9.08798C19.5781 10.0404 20.0268 10.8894 20.7234 11.4366C19.507 12.2479 18.4517 13.289 17.6206 14.5103C16.4104 16.2886 15.7313 18.3696 15.6569 20.528C15.5057 24.89 15.4347 29.2994 15.4446 33.6636C14.3168 32.7398 13.0331 32.1623 11.6375 32.1623C9.67841 32.1623 7.69604 33.3618 6.0555 35.5397C5.78769 35.895 5.8588 36.4003 6.21428 36.668C6.56976 36.9358 7.07489 36.8647 7.3426 36.5092C8.11222 35.4876 9.69356 33.7738 11.6376 33.7738C13.1518 33.7738 14.7425 34.8342 16.1168 36.7595C17.205 38.2841 18.0397 40.1915 18.4353 42.0132H4.83899C5.04482 41.0678 5.37215 40.0882 5.80359 39.1345C5.98697 38.7291 5.80702 38.2518 5.40159 38.0683C4.99626 37.8849 4.51885 38.0649 4.33537 38.4703C3.80628 39.6399 3.41933 40.8508 3.19652 42.0131H2.09023C0.937632 42.0131 0 42.9507 0 44.1033C0 45.2558 0.93774 46.1935 2.09023 46.1935H2.48621C2.61996 47.4279 2.84545 48.658 3.066 49.8541C3.22316 50.7065 3.3857 51.5879 3.50924 52.4469C3.67662 53.6068 4.60394 54.5093 5.7648 54.6418C7.87727 54.8819 9.7564 55.002 11.6363 55.002C13.5134 55.002 15.3912 54.8823 17.5021 54.6429C17.8873 54.599 18.2458 54.4697 18.5607 54.2762C19.3829 54.7526 20.3094 55.0023 21.274 55.0023H28.5748L28.5728 55.0018C30.4532 55.0019 32.3333 54.8819 34.4468 54.6417C35.0065 54.5779 35.5109 54.3337 35.9031 53.9692C37.8965 54.6574 39.9701 54.9956 42.0345 54.9956C46.2332 54.9956 50.392 53.6009 53.7522 50.9289C54.9741 49.958 55.3511 48.2377 54.6485 46.8382ZM23.3699 3.36389C23.3699 2.39758 24.1561 1.61142 25.1224 1.61142H32.0258C32.9921 1.61142 33.7783 2.39758 33.7783 3.36389V6.10191H23.3699V3.36389ZM22.5642 7.71334H34.584C35.342 7.71334 35.9585 8.32997 35.9585 9.08788C35.9585 9.84589 35.3419 10.4625 34.584 10.4625H22.5642C21.8062 10.4625 21.1895 9.84589 21.1895 9.08788C21.1895 8.32997 21.8063 7.71334 22.5642 7.71334ZM25.7594 21.4089C26.3827 21.4395 26.8887 21.9118 26.9624 22.5317C27.1727 24.3008 27.1727 26.0947 26.9624 27.8636C26.8887 28.4836 26.3826 28.9559 25.759 28.9866C22.874 29.1286 19.9574 29.17 17.0761 29.1126C17.1037 26.4994 17.1601 23.8822 17.2452 21.2795C20.0753 21.2275 22.9354 21.2701 25.7594 21.4089ZM40.1102 29.2544C40.4886 28.5025 41.217 28.0537 42.0592 28.0537H42.0594C42.9016 28.0538 43.6304 28.5029 44.0087 29.255L44.9506 31.1299C43.753 31.7488 42.9561 32.9999 42.9561 34.4011C42.9561 36.4306 44.6066 38.0816 46.6355 38.0816C47.2037 38.0816 47.7565 37.9519 48.2555 37.7068L52.7634 46.6756C52.7586 46.6794 52.7542 46.6837 52.7493 46.6876C50.483 48.4901 47.773 49.6958 44.9124 50.1743C42.3337 50.6056 39.6733 50.441 37.1735 49.7036C37.3852 48.5547 37.5971 47.3762 37.7251 46.1935H38.1215C39.2741 46.1935 40.2117 45.2559 40.2117 44.1033C40.2117 42.9507 39.2741 42.0131 38.1215 42.0131H37.0154C36.7706 40.7567 36.3135 39.3837 35.6786 38.072L40.1102 29.2544ZM24.0941 36.7597C25.4685 34.8342 27.0594 33.7738 28.5735 33.7738C30.088 33.7738 31.6789 34.8342 33.0533 36.7597C34.1414 38.2842 34.976 40.1916 35.3714 42.0133H21.7756C22.171 40.1918 23.0057 38.2845 24.0941 36.7597ZM1.61142 44.1035C1.61142 43.8395 1.82628 43.6247 2.09023 43.6247H38.1215C38.3856 43.6247 38.6003 43.8395 38.6003 44.1035C38.6003 44.3675 38.3856 44.5823 38.1215 44.5823H2.09023C1.82617 44.5822 1.61142 44.3675 1.61142 44.1035ZM19.6158 53.013C19.6858 52.8331 19.7378 52.6442 19.7661 52.4468C19.8414 51.9186 19.9308 51.2892 20.0243 50.6175C20.0307 50.572 20.0342 50.5468 20.1056 50.5468C20.1771 50.5468 20.1806 50.572 20.1869 50.6169C20.2805 51.2893 20.3699 51.9187 20.4453 52.4478C20.4924 52.7753 20.6022 53.0813 20.7594 53.3563C20.3606 53.3029 19.9761 53.1874 19.6158 53.013ZM34.2644 53.0409C30.173 53.5058 26.9842 53.5062 22.8915 53.042C22.4529 52.992 22.1028 52.6534 22.0404 52.2194C21.9653 51.6927 21.8762 51.0652 21.7828 50.394C21.6624 49.5352 20.9726 48.9354 20.1055 48.9355C19.2383 48.9355 18.5486 49.5353 18.4283 50.3947C18.335 51.0652 18.2459 51.6928 18.1709 52.2185C18.1084 52.6534 17.7583 52.992 17.32 53.042C13.2265 53.5062 10.0378 53.5058 5.94711 53.0409C5.51364 52.9915 5.16697 52.6526 5.10412 52.2172C4.97607 51.3271 4.81063 50.4297 4.65056 49.562C4.44612 48.4536 4.23761 47.3154 4.10762 46.1936H36.1036C35.9734 47.3184 35.7643 48.4597 35.5594 49.5712C35.4 50.4362 35.2351 51.3305 35.1071 52.2179C35.0443 52.6531 34.6977 52.9915 34.2644 53.0409ZM52.7493 49.6676C48.2378 53.2552 42.1513 54.3218 36.6864 52.5316C36.6913 52.5036 36.698 52.4764 36.702 52.4482C36.7569 52.068 36.82 51.6834 36.8862 51.2989C38.5696 51.7783 40.3169 52.0214 42.0673 52.0214C43.1077 52.0214 44.1491 51.9358 45.1783 51.7637C48.1552 51.2657 50.9819 50.0466 53.3862 48.2306C53.4171 48.773 53.1917 49.3161 52.7493 49.6676Z" fill="currentColor"/>
        <path d="M42.81 46.558C43.3529 47.3477 44.1709 47.8786 45.1131 48.0531C45.3336 48.0939 45.5545 48.1141 45.7739 48.1141C46.4926 48.1141 47.194 47.8978 47.799 47.4818C48.5887 46.9389 49.1196 46.1209 49.2941 45.1787C49.4686 44.2364 49.2656 43.2826 48.7228 42.4929C48.1798 41.7032 47.3619 41.1723 46.4196 40.9978C45.4771 40.8234 44.5236 41.0263 43.7339 41.5691C42.9442 42.1121 42.4133 42.93 42.2388 43.8723C42.0641 44.8146 42.2671 45.7685 42.81 46.558ZM43.8231 44.1656C43.9193 43.6466 44.2118 43.196 44.6468 42.8969C44.98 42.6678 45.3663 42.5487 45.7622 42.5487C45.883 42.5487 46.0049 42.5598 46.1261 42.5823C46.6452 42.6784 47.0958 42.9708 47.395 43.4059C47.694 43.8409 47.8058 44.3663 47.7097 44.8854C47.6136 45.4045 47.3211 45.855 46.8861 46.1541C46.451 46.4532 45.9255 46.5649 45.4067 46.4689C44.8876 46.3727 44.4371 46.0803 44.1379 45.6452C43.8388 45.2102 43.727 44.6847 43.8231 44.1656Z" fill="currentColor"/>
        <path d="M39.4267 41.7254C39.5874 41.7551 39.7486 41.7698 39.9085 41.7698C40.4325 41.7698 40.9438 41.612 41.3849 41.3089C41.9606 40.913 42.3477 40.3167 42.4749 39.6298C42.6022 38.9428 42.4541 38.2474 42.0584 37.6716C41.6626 37.0958 41.0662 36.7087 40.3793 36.5815C38.9611 36.3191 37.5937 37.2591 37.3312 38.6772C37.0684 40.0954 38.0086 41.4628 39.4267 41.7254ZM38.9155 38.9706C39.0162 38.4262 39.5413 38.065 40.0858 38.1661C40.3495 38.215 40.5784 38.3635 40.7305 38.5846C40.8825 38.8057 40.9392 39.0727 40.8904 39.3364C40.8415 39.6001 40.693 39.8292 40.4719 39.9811C40.2509 40.1331 39.9842 40.1899 39.7201 40.141C39.1757 40.04 38.8147 39.5151 38.9155 38.9706Z" fill="currentColor"/>
    </symbol>

    <symbol id="store" viewBox="0 0 42 63">
        <path d="M38.85 0H3.15C2.31486 0.000955289 1.5142 0.333136 0.923669 0.923669C0.333136 1.5142 0.000955289 2.31486 0 3.15V56.7C0.000955289 57.5351 0.333136 58.3358 0.923669 58.9263C1.5142 59.5169 2.31486 59.849 3.15 59.85H5.25V61.95C5.25001 62.2285 5.36064 62.4955 5.55755 62.6924C5.75446 62.8894 6.02153 63 6.3 63H10.5C10.7785 63 11.0455 62.8894 11.2424 62.6924C11.4394 62.4955 11.55 62.2285 11.55 61.95V59.85H30.45V61.95C30.45 62.2285 30.5606 62.4955 30.7576 62.6924C30.9545 62.8894 31.2215 63 31.5 63H35.7C35.9785 63 36.2455 62.8894 36.4424 62.6924C36.6394 62.4955 36.75 62.2285 36.75 61.95V59.85H38.85C39.6851 59.849 40.4858 59.5169 41.0763 58.9263C41.6669 58.3358 41.999 57.5351 42 56.7V3.15C41.999 2.31486 41.6669 1.5142 41.0763 0.923669C40.4858 0.333136 39.6851 0.000955289 38.85 0ZM39.9 3.15V36.75H22.05V2.1H38.85C39.1284 2.10032 39.3953 2.21105 39.5921 2.40789C39.789 2.60473 39.8997 2.87162 39.9 3.15ZM3.15 2.1H19.95V36.75H2.1V3.15C2.10032 2.87162 2.21105 2.60473 2.40789 2.40789C2.60473 2.21105 2.87162 2.10032 3.15 2.1ZM9.45 60.9H7.35V59.85H9.45V60.9ZM34.65 60.9H32.55V59.85H34.65V60.9ZM38.85 57.75H3.15C2.87162 57.7497 2.60473 57.639 2.40789 57.4421C2.21105 57.2453 2.10032 56.9784 2.1 56.7V38.85H39.9V56.7C39.8997 56.9784 39.789 57.2453 39.5921 57.4421C39.3953 57.639 39.1284 57.7497 38.85 57.75Z" fill="currentColor"/>
        <path d="M25.7246 33.6C26.4206 33.5992 27.0878 33.3224 27.5799 32.8303C28.072 32.3382 28.3488 31.6709 28.3496 30.975V8.92499C28.3496 8.22879 28.073 7.56112 27.5808 7.06883C27.0885 6.57655 26.4208 6.29999 25.7246 6.29999C25.0284 6.29999 24.3607 6.57655 23.8685 7.06883C23.3762 7.56112 23.0996 8.22879 23.0996 8.92499V30.975C23.1004 31.6709 23.3772 32.3382 23.8693 32.8303C24.3614 33.3224 25.0287 33.5992 25.7246 33.6ZM25.1996 8.92499C25.1996 8.78575 25.2549 8.65221 25.3534 8.55376C25.4518 8.4553 25.5854 8.39999 25.7246 8.39999C25.8638 8.39999 25.9974 8.4553 26.0958 8.55376C26.1943 8.65221 26.2496 8.78575 26.2496 8.92499V30.975C26.2496 31.1142 26.1943 31.2478 26.0958 31.3462C25.9974 31.4447 25.8638 31.5 25.7246 31.5C25.5854 31.5 25.4518 31.4447 25.3534 31.3462C25.2549 31.2478 25.1996 31.1142 25.1996 30.975V8.92499Z" fill="currentColor"/>
        <path d="M16.2754 33.6C16.9713 33.5992 17.6386 33.3224 18.1307 32.8303C18.6228 32.3382 18.8996 31.6709 18.9004 30.975V8.92499C18.9004 8.22879 18.6238 7.56112 18.1315 7.06883C17.6393 6.57655 16.9716 6.29999 16.2754 6.29999C15.5792 6.29999 14.9115 6.57655 14.4192 7.06883C13.927 7.56112 13.6504 8.22879 13.6504 8.92499V30.975C13.6512 31.6709 13.928 32.3382 14.4201 32.8303C14.9122 33.3224 15.5794 33.5992 16.2754 33.6ZM15.7504 8.92499C15.7504 8.78575 15.8057 8.65221 15.9042 8.55376C16.0026 8.4553 16.1362 8.39999 16.2754 8.39999C16.4146 8.39999 16.5482 8.4553 16.6466 8.55376C16.7451 8.65221 16.8004 8.78575 16.8004 8.92499V30.975C16.8004 31.1142 16.7451 31.2478 16.6466 31.3462C16.5482 31.4447 16.4146 31.5 16.2754 31.5C16.1362 31.5 16.0026 31.4447 15.9042 31.3462C15.8057 31.2478 15.7504 31.1142 15.7504 30.975V8.92499Z" fill="currentColor"/>
        <path d="M4.20039 26.25H11.5504C11.8289 26.25 12.0959 26.1393 12.2928 25.9424C12.4897 25.7455 12.6004 25.4784 12.6004 25.2V13.65C12.6004 13.3715 12.4897 13.1044 12.2928 12.9075C12.0959 12.7106 11.8289 12.6 11.5504 12.6H4.20039C3.92192 12.6 3.65485 12.7106 3.45794 12.9075C3.26103 13.1044 3.1504 13.3715 3.15039 13.65V25.2C3.1504 25.4784 3.26103 25.7455 3.45794 25.9424C3.65485 26.1393 3.92192 26.25 4.20039 26.25ZM5.25039 14.7H5.65145L6.30039 15.9979V18.9C6.3004 19.1784 6.41103 19.4455 6.60794 19.6424C6.80485 19.8393 7.07192 19.95 7.35039 19.95H8.40039C8.67886 19.95 8.94593 19.8393 9.14284 19.6424C9.33975 19.4455 9.45038 19.1784 9.45039 18.9V15.9979L10.0993 14.7H10.5004V24.15H5.25039V14.7Z" fill="currentColor"/>
        <path d="M32.0246 39.9H9.97461C9.27842 39.9 8.61074 40.1766 8.11845 40.6689C7.62617 41.1612 7.34961 41.8288 7.34961 42.525C7.34961 43.2212 7.62617 43.8889 8.11845 44.3812C8.61074 44.8735 9.27842 45.15 9.97461 45.15H32.0246C32.7208 45.15 33.3885 44.8735 33.8808 44.3812C34.373 43.8889 34.6496 43.2212 34.6496 42.525C34.6496 41.8288 34.373 41.1612 33.8808 40.6689C33.3885 40.1766 32.7208 39.9 32.0246 39.9ZM32.0246 43.05H9.97461C9.83537 43.05 9.70183 42.9947 9.60338 42.8963C9.50492 42.7978 9.44961 42.6643 9.44961 42.525C9.44961 42.3858 9.50492 42.2522 9.60338 42.1538C9.70183 42.0553 9.83537 42 9.97461 42H32.0246C32.1638 42 32.2974 42.0553 32.3958 42.1538C32.4943 42.2522 32.5496 42.3858 32.5496 42.525C32.5496 42.6643 32.4943 42.7978 32.3958 42.8963C32.2974 42.9947 32.1638 43.05 32.0246 43.05Z" fill="currentColor"/>
    </symbol>

    <symbol id="fitness" viewBox="0 0 55 60">
        <path d="M53.1397 12.6071C52.4827 9.69421 50.1677 7.42523 47.2422 6.82737C46.7269 6.71884 46.2242 7.0539 46.119 7.56974C46.0139 8.08503 46.3461 8.58776 46.8614 8.69293C49.0539 9.14182 50.7895 10.8428 51.2819 13.0267C51.3818 13.4691 51.7746 13.7693 52.2098 13.7693C52.2793 13.7693 52.3499 13.7618 52.4202 13.7459C52.9329 13.6296 53.2554 13.1201 53.1397 12.6071Z" fill="currentColor"/>
        <path d="M48.559 2.57676C48.5535 2.22831 48.3568 1.91111 48.0482 1.7493C47.7397 1.58777 47.3664 1.60785 47.0774 1.80175C45.137 3.10069 42.6237 3.81629 39.9993 3.81629C36.4322 3.81629 33.1382 2.50367 31.1889 0.305278C30.8279 -0.101759 30.1252 -0.101759 29.7645 0.305278C27.8152 2.50367 24.5212 3.81629 20.9541 3.81629C18.7025 3.81629 16.5551 3.30017 14.744 2.32373C14.4502 2.1661 14.0951 2.17224 13.8083 2.34186C13.5212 2.51092 13.3435 2.81836 13.3398 3.15175C13.3373 3.37215 13.3359 3.59422 13.3359 3.81657C13.3359 7.40179 14.3676 9.20737 15.3658 10.9538C15.7782 11.6755 16.1676 12.3571 16.4795 13.1639C16.6249 13.5414 16.9856 13.7735 17.3675 13.7735C17.4819 13.7735 17.5974 13.7526 17.7104 13.7096C18.2014 13.5202 18.445 12.9686 18.2555 12.4785C17.8923 11.5372 17.4479 10.7605 17.0194 10.0097C16.1925 8.56264 15.4071 7.18809 15.2634 4.66384C17.0113 5.35907 18.9502 5.72175 20.9536 5.72175C24.6593 5.72175 28.1388 4.45628 30.4761 2.29638C32.8135 4.456 36.293 5.72175 39.9987 5.72175C42.3745 5.72175 44.6834 5.20005 46.6589 4.23393C46.5841 7.03688 45.758 8.48285 44.8854 10.01C44.4574 10.7591 44.0149 11.5335 43.6517 12.472C43.4623 12.9625 43.7061 13.5143 44.1963 13.7037C44.6862 13.8937 45.2386 13.6499 45.428 13.1592C45.7393 12.354 46.128 11.6747 46.5392 10.9546C47.5371 9.20876 48.5691 7.40262 48.5691 3.8174C48.5688 3.40032 48.566 2.98715 48.559 2.57676Z" fill="currentColor"/>
        <path d="M47.8242 24.0338C47.5148 23.5723 47.2151 23.1262 46.9314 22.6891C46.6449 22.2477 46.0543 22.1224 45.614 22.4087C45.1727 22.6952 45.0469 23.2847 45.3337 23.726C45.6221 24.1713 45.9273 24.6255 46.242 25.095C48.975 29.1693 52.3766 34.2401 52.3766 43.8117C52.3766 48.9774 51.0506 53.9037 48.5381 58.0957H34.2837V56.1911C34.2837 55.6655 33.8571 55.2389 33.3315 55.2389H29.5225C28.9969 55.2389 28.5704 55.6655 28.5704 56.1911V58.0957H14.3154C11.8029 53.9037 10.4769 48.9774 10.4769 43.8117C10.4769 34.2153 13.5424 29.1375 16.0058 25.0568L16.4594 24.3027C16.7295 23.8513 16.5822 23.2665 16.1308 22.9968C15.6802 22.7267 15.0946 22.8735 14.8248 23.3254L14.3754 24.0725C11.9262 28.1292 8.57227 33.6852 8.57227 43.8115C8.57227 49.5198 10.095 54.963 12.976 59.554C13.1504 59.8316 13.455 60.0001 13.7826 60.0001H29.522C30.0476 60.0001 30.4742 59.5735 30.4742 59.0479V57.1433H32.3788V59.0479C32.3788 59.5735 32.8053 60.0001 33.331 60.0001H49.0704C49.3979 60.0001 49.7026 59.8316 49.8775 59.554C52.7585 54.9636 54.2812 49.52 54.2812 43.8115C54.2815 33.6601 50.549 28.096 47.8242 24.0338Z" fill="currentColor"/>
        <path d="M53.4217 35.8841C53.1503 34.7218 52.8091 33.5749 52.4051 32.4746C52.2241 31.9827 51.6789 31.7294 51.1862 31.908C45.1741 34.0882 38.0118 35.2404 30.4731 35.2404C23.6031 35.2404 16.9661 34.2682 11.2807 32.4288C11.0388 32.3507 10.7746 32.373 10.5489 32.4902C10.3232 32.6079 10.1533 32.8108 10.078 33.0543C9.79315 33.9772 9.54708 34.9283 9.34677 35.8815C9.2416 36.3809 9.54904 36.8747 10.0434 37.0008C15.3946 38.3639 21.3612 43.7879 25.6154 51.1562C26.6301 52.9135 27.5139 54.7263 28.2412 56.5442C28.3855 56.9055 28.7359 57.1426 29.125 57.1426H33.7378C34.1272 57.1426 34.4771 56.9055 34.6219 56.5436C35.3503 54.7258 36.2336 52.9127 37.2482 51.1556C41.4734 43.837 47.4085 38.4211 52.7363 37.0212C53.2345 36.8901 53.5384 36.3865 53.4217 35.8841ZM35.5983 50.2043C34.6503 51.8475 33.8103 53.5382 33.0992 55.2386H29.7648C29.0533 53.5384 28.2136 51.8475 27.2651 50.2043C22.9919 42.8029 16.9906 37.2307 11.4051 35.4142C11.4765 35.1196 11.5519 34.8259 11.6314 34.5343C17.2892 36.2442 23.7794 37.1453 30.4739 37.1453C37.8558 37.1453 44.9027 36.0665 50.9251 34.0185C51.0794 34.4889 51.2214 34.967 51.3503 35.4497C45.7966 37.3038 39.8383 42.8609 35.5983 50.2043Z" fill="currentColor"/>
        <path d="M52.3744 12.3864H0.952171C0.426566 12.3864 0 12.813 0 13.3386V23.8136C0 24.3392 0.426566 24.7658 0.952171 24.7658H42.7746C48.5934 24.7658 53.3266 20.0317 53.3266 14.2132V13.3386C53.3266 12.8133 52.9001 12.3864 52.3744 12.3864ZM42.7746 22.8614H1.90434V14.291H51.4214C51.3796 19.0237 47.5168 22.8614 42.7746 22.8614Z" fill="currentColor"/>
        <path d="M6.66897 13.3388C6.14336 13.3388 5.7168 13.7654 5.7168 14.291V18.0999C5.7168 18.6255 6.14336 19.0521 6.66897 19.0521C7.19458 19.0521 7.62114 18.6255 7.62114 18.0999V14.291C7.62114 13.7654 7.19458 13.3388 6.66897 13.3388Z" fill="currentColor"/>
        <path d="M11.4307 13.3388C10.9051 13.3388 10.4785 13.7654 10.4785 14.291V20.0046C10.4785 20.5302 10.9051 20.9567 11.4307 20.9567C11.9563 20.9567 12.3829 20.5302 12.3829 20.0046V14.291C12.3829 13.7654 11.9563 13.3388 11.4307 13.3388Z" fill="currentColor"/>
        <path d="M16.1924 13.3388C15.6668 13.3388 15.2402 13.7654 15.2402 14.291V18.0999C15.2402 18.6255 15.6668 19.0521 16.1924 19.0521C16.718 19.0521 17.1446 18.6255 17.1446 18.0999V14.291C17.1446 13.7654 16.718 13.3388 16.1924 13.3388Z" fill="currentColor"/>
        <path d="M20.9502 13.3388C20.4246 13.3388 19.998 13.7654 19.998 14.291V20.0046C19.998 20.5302 20.4246 20.9567 20.9502 20.9567C21.4758 20.9567 21.9024 20.5302 21.9024 20.0046V14.291C21.9024 13.7654 21.4758 13.3388 20.9502 13.3388Z" fill="currentColor"/>
        <path d="M25.7139 13.3388C25.1883 13.3388 24.7617 13.7654 24.7617 14.291V18.0999C24.7617 18.6255 25.1883 19.0521 25.7139 19.0521C26.2395 19.0521 26.6661 18.6255 26.6661 18.0999V14.291C26.6663 13.7654 26.2395 13.3388 25.7139 13.3388Z" fill="currentColor"/>
        <path d="M30.4756 13.3388C29.95 13.3388 29.5234 13.7654 29.5234 14.291V20.0046C29.5234 20.5302 29.95 20.9567 30.4756 20.9567C31.0012 20.9567 31.4278 20.5302 31.4278 20.0046V14.291C31.4278 13.7654 31.0012 13.3388 30.4756 13.3388Z" fill="currentColor"/>
        <path d="M35.2373 13.3388C34.7117 13.3388 34.2852 13.7654 34.2852 14.291V18.0999C34.2852 18.6255 34.7117 19.0521 35.2373 19.0521C35.7629 19.0521 36.1895 18.6255 36.1895 18.0999V14.291C36.1895 13.7654 35.7629 13.3388 35.2373 13.3388Z" fill="currentColor"/>
        <path d="M39.9951 13.3388C39.4695 13.3388 39.043 13.7654 39.043 14.291V20.0046C39.043 20.5302 39.4695 20.9567 39.9951 20.9567C40.5207 20.9567 40.9473 20.5302 40.9473 20.0046V14.291C40.9476 13.7654 40.5207 13.3388 39.9951 13.3388Z" fill="currentColor"/>
        <path d="M44.7608 13.3388C44.2352 13.3388 43.8086 13.7654 43.8086 14.291V18.0999C43.8086 18.6255 44.2352 19.0521 44.7608 19.0521C45.2864 19.0521 45.7129 18.6255 45.7129 18.0999V14.291C45.7129 13.7654 45.2864 13.3388 44.7608 13.3388Z" fill="currentColor"/>
        </symbol>

    <symbol id="arrow-right" viewBox="0 0 37 67">
        <path d="M35.7915 31.6617L4.85351 0.723749C3.8293 -0.265419 2.1972 -0.237019 1.20803 0.787196C0.243032 1.78633 0.243032 3.37024 1.20803 4.36923L30.3232 33.4844L1.20803 62.5996C0.20149 63.6063 0.20149 65.2384 1.20803 66.2451C2.21487 67.2517 3.84682 67.2517 4.85351 66.2451L35.7915 35.3072C36.798 34.3003 36.798 32.6684 35.7915 31.6617Z" fill="currentColor"/>
    </symbol>

    <symbol id="arrow-left" viewBox="0 0 37 67">
        <path d="M1.20853 31.6617L32.1465 0.723749C33.1707 -0.265419 34.8028 -0.237019 35.792 0.787196C36.757 1.78633 36.757 3.37024 35.792 4.36923L6.67676 33.4844L35.792 62.5996C36.7985 63.6063 36.7985 65.2384 35.792 66.2451C34.7851 67.2517 33.1532 67.2517 32.1465 66.2451L1.20853 35.3072C0.201992 34.3003 0.201992 32.6684 1.20853 31.6617Z" fill="currentColor"/>
    </symbol>


</svg>