<svg width="136" height="80" viewBox="0 0 136 80" fill="none" xmlns="http://www.w3.org/2000/svg">
<path d="M40.1835 50.3621L29.3392 39.5172L42.7832 25.9981L38.6237 21.7642L10.9186 49.4708L0 38.6258L38.6237 0L64.6204 25.9981L40.1835 50.3621Z" fill="#272255"/>
<path d="M40.7776 80.0001L14.6323 53.8534L25.5509 42.9342L40.7776 58.236L63.3576 35.6547L97.2276 2.22852L136 41.0029L125.081 51.8478L97.1534 23.9184L74.202 46.5739L40.7776 80.0001Z" fill="#272255"/>
<path d="M97.228 79.9999L73.3853 56.1559L84.2296 45.2367L97.228 58.2358L110.375 45.0881L121.219 56.0074L97.228 79.9999Z" fill="#272255"/>
<path d="M97.4191 32.809L89.1733 41.0552L97.4191 49.3014L105.665 41.0552L97.4191 32.809Z" fill="#272255"/>
</svg>
