<svg 
 xmlns="http://www.w3.org/2000/svg"
 xmlns:xlink="http://www.w3.org/1999/xlink"
 width="299.5px" height="658.5px">
<path fill-rule="evenodd"  stroke-width="3px" stroke-linecap="round" stroke-linejoin="round" fill="none"
 d="M197.500,648.499 C197.500,648.499 195.500,638.217 196.500,632.499 C197.500,626.781 200.500,623.884 201.500,618.498 C202.500,613.114 199.167,602.550 199.500,595.499 C199.833,588.448 198.500,569.499 198.500,569.499 C198.500,569.499 194.833,558.217 192.500,540.499 C190.167,522.781 189.500,509.217 185.500,502.499 C181.500,495.781 179.833,495.550 179.500,491.499 C179.167,487.447 176.833,487.550 173.500,489.499 C170.167,491.448 135.500,517.550 122.500,527.498 C109.500,537.447 87.167,554.884 80.500,569.499 C73.833,584.114 65.500,598.499 65.500,598.499 L58.500,595.499 C58.500,595.499 54.500,595.217 54.500,601.499 C54.500,607.781 53.500,616.499 53.500,616.499 C53.500,616.499 57.167,623.217 61.500,625.499 C65.833,627.781 73.500,630.883 73.500,633.499 C73.500,636.114 73.500,640.499 73.500,640.499 C73.500,640.499 44.833,643.883 31.500,616.499 C21.833,595.781 21.500,589.499 21.500,589.499 C21.500,589.499 20.833,587.217 19.500,587.499 C18.167,587.781 16.500,589.884 13.500,585.499 C10.500,581.114 4.500,572.499 4.500,572.499 C4.500,572.499 14.833,561.550 20.500,556.499 C26.167,551.448 40.833,542.166 49.500,534.498 C58.167,526.832 76.500,509.498 76.500,509.498 C76.500,509.498 81.833,497.884 93.500,484.499 C105.167,471.114 110.833,466.217 118.500,464.499 C126.167,462.780 121.500,462.550 122.500,457.499 C123.500,452.448 127.500,448.499 127.500,448.499 C127.500,448.499 134.167,434.550 135.500,433.499 C136.833,432.447 142.500,431.499 142.500,431.499 C142.500,431.499 135.167,411.216 135.500,409.499 C135.833,407.781 138.500,390.499 138.500,390.499 C138.500,390.499 135.167,386.217 130.500,385.499 C125.833,384.781 111.500,389.217 101.500,378.499 C102.833,374.448 100.500,374.499 100.500,374.499 C100.500,374.499 98.167,376.883 96.500,372.499 C98.167,362.781 104.500,312.499 104.500,312.499 L97.500,274.499 L84.500,269.499 C84.500,269.499 82.833,274.550 78.500,252.499 C74.167,230.447 68.500,173.499 68.500,173.499 C68.500,173.499 65.167,160.883 73.500,145.499 C81.833,130.114 102.500,97.884 107.500,93.499 C109.621,91.639 108.482,89.378 108.771,87.390 C109.163,84.692 110.500,82.499 110.500,82.499 C110.500,82.499 101.500,66.884 100.500,57.499 C99.500,48.114 100.500,46.498 100.500,46.498 C100.500,46.498 97.833,22.550 105.500,14.499 C109.167,11.115 115.500,9.499 115.500,9.499 C115.500,9.499 127.167,1.883 147.500,5.499 C167.833,9.114 170.500,12.217 172.500,14.499 C174.500,16.781 170.500,25.499 170.500,25.499 L173.500,38.498 L173.500,46.498 L184.500,55.499 C184.500,55.499 185.799,56.726 184.984,58.153 C183.852,60.133 180.500,62.499 180.500,62.499 C180.500,62.499 177.833,74.550 177.500,78.499 C177.167,82.447 178.833,86.883 176.500,89.499 C174.167,92.114 157.500,97.499 157.500,97.499 L180.500,104.499 C180.500,104.499 185.500,108.551 187.500,114.499 C189.500,120.447 199.167,146.551 203.500,165.499 C207.833,184.447 219.500,242.498 219.500,242.498 C219.500,242.498 219.500,250.550 226.500,247.499 C233.500,244.448 239.500,242.217 244.500,246.499 C249.500,250.781 247.500,262.499 247.500,262.499 C247.500,262.499 257.500,265.884 257.500,268.499 C257.500,271.114 249.500,274.499 249.500,274.499 C249.500,274.499 240.167,280.550 235.500,281.498 C230.833,282.447 222.500,281.550 221.500,283.499 C220.500,285.448 218.833,295.550 218.500,306.499 C218.320,312.423 219.091,328.039 220.755,341.124 C222.166,352.222 224.500,361.499 224.500,361.499 C224.500,361.499 226.500,371.216 228.500,387.499 C230.500,403.780 233.500,433.499 233.500,433.499 L250.500,547.499 C250.500,547.499 257.167,580.550 258.500,590.499 C259.833,600.448 257.500,621.499 257.500,621.499 C257.500,621.499 258.167,627.883 266.500,631.499 C274.833,635.114 283.500,636.550 287.500,637.499 C291.500,638.448 293.167,639.884 292.500,643.499 C291.833,647.114 281.167,652.550 269.500,652.499 C257.833,652.448 247.500,651.832 230.500,649.499 C227.833,651.165 216.500,650.499 216.500,650.499 L197.500,648.499 Z"/>
</svg>