<?xml version="1.0" encoding="utf-8"?>
<!-- Generator: Adobe Illustrator 22.0.1, SVG Export Plug-In . SVG Version: 6.00 Build 0)  -->
<svg version="1.1" id="Слой_1" xmlns="http://www.w3.org/2000/svg" xmlns:xlink="http://www.w3.org/1999/xlink" x="0px" y="0px"
	 viewBox="0 0 1366 768" style="enable-background:new 0 0 1366 768;" xml:space="preserve">
<style type="text/css">
	.st0{fill:url(#SVGID_1_);}
	.st1{fill:url(#SVGID_2_);}
	.st2{fill:#46CF77;}
	.st3{fill:#47CF73;}
	.st4{fill:none;}
	.st5{fill:url(#SVGID_3_);}
	.st6{fill:url(#SVGID_4_);}
	.st7{fill:url(#SVGID_5_);}
	.st8{fill:url(#SVGID_6_);}
	.st9{fill:url(#SVGID_7_);}
	.st10{fill:url(#SVGID_8_);}
	.st11{fill:url(#SVGID_9_);}
	.st12{fill:url(#SVGID_10_);}
	.st13{fill:#27C5C5;}
</style>
<linearGradient id="SVGID_1_" gradientUnits="userSpaceOnUse" x1="402" y1="70.3025" x2="811.0417" y2="70.3025" gradientTransform="matrix(1 0 0 -1 0 768)">
	<stop  offset="0" style="stop-color:#3ACB94"/>
	<stop  offset="0.2951" style="stop-color:#36CA9E"/>
	<stop  offset="0.7909" style="stop-color:#2CC7B8"/>
	<stop  offset="1" style="stop-color:#27C5C5"/>
</linearGradient>
<path class="st0" d="M404,684c-0.5-0.7-2-2.9-2-6c0-4,2.5-6.5,3-7c0.5-0.7,2-2.9,5-4c3.3-1.2,6.2-0.3,7,0c20.5,12.1,38.9,19.9,53,25
	c12.2,4.4,23.3,8.4,39,11c13.7,2.3,34,4,34,4s241.1,0.1,257,1c2.6,0.1,5.8,0.8,8,3c2.7,2.6,2.9,6.3,3,7c0.1,0.9,0.2,4.1-2,7
	c-3.2,4.2-8.5,4-9,4c-86-0.3-172-0.7-258-1c-18.1-1.6-39.9-4.9-64-12C447.2,707,422.4,694.8,404,684z"/>
<linearGradient id="SVGID_2_" gradientUnits="userSpaceOnUse" x1="602" y1="341" x2="602" y2="341" gradientTransform="matrix(1 0 0 -1 0 768)">
	<stop  offset="0" style="stop-color:#3ACB94"/>
	<stop  offset="0.2951" style="stop-color:#36CA9E"/>
	<stop  offset="0.7909" style="stop-color:#2CC7B8"/>
	<stop  offset="1" style="stop-color:#27C5C5"/>
</linearGradient>
<path class="st1" d="M602,427"/>
<path class="st2" d="M264.2,516.2c2-3.7,6.2-5.8,10.3-5.1l1.4,0.2c3,0.5,5.6,2.3,7.2,4.9c5,11.6,11.1,24.3,18.8,37.8
	c7.9,13.7,15.9,25.6,23.6,35.8c0.2,0.3,0.4,0.7,0.8,1.1c0.3,0.4,0.6,0.7,1,1.1c8.8,11,19.6,22.9,32.7,35
	c8.3,7.6,16.5,14.3,24.2,20.2c0.6,0.6,1.9,2,2.6,4.1c0.5,1.5,0.6,3.2,0.4,4.8l-0.1,0.5c-0.7,3.9-3.6,7.1-7.5,8.1l-0.4,0.1
	c-3.4,0.8-6.9-0.1-9.4-2.5C361,655.7,351.6,648,342,639c-12.9-12-23.4-24-31.9-34.8c-0.3-0.3-0.6-0.6-0.9-1s-0.5-0.7-0.8-1.1
	c-9.5-11.7-19.8-26.3-29.4-44c-6.1-11.3-10.9-22.1-14.6-31.9C264.1,525.6,261.7,520.8,264.2,516.2z"/>
<path class="st3" d="M271,30c0,12.3,0,24.7,0,37c0.1,0.7,0.4,3.8,3,6c2.3,2,4.9,2,6,2c1,0,3.6,0,6-2c2.2-1.8,2.8-4.2,3-5
	c0-12.7,0-25.3,0-38c-0.2-0.9-0.6-2.7-2-4.4c-2.2-2.6-5.2-3-5.9-3.1c-0.8,0-4.2-0.1-7,2.5C271.9,26.9,271.2,29.1,271,30z"/>
<path class="st3" d="M238.5,59.6c0,15.7,0,31.5,0,47.2c0.1,0.8,0.4,4.8,3.7,7.7c2.8,2.5,6.1,2.5,7.4,2.5c1.2,0,4.5-0.1,7.4-2.6
	c2.7-2.3,3.5-5.4,3.7-6.4c0-16.2,0-32.3,0-48.5c-0.2-1.1-0.7-3.4-2.5-5.6c-2.7-3.3-6.4-3.9-7.3-4c-0.9,0-5.1-0.1-8.6,3.2
	C239.6,55.6,238.8,58.4,238.5,59.6z"/>
<path class="st3" d="M271.3,88c0,9.9,0.1,19.7,0.1,29.6c0.1,0.5,0.4,3,2.9,4.8c2.2,1.6,4.8,1.6,5.8,1.6s3.5,0,5.8-1.6
	c2.1-1.5,2.7-3.4,2.9-4c0-10.1-0.1-20.3-0.1-30.4c-0.2-0.7-0.6-2.1-2-3.5c-2.1-2.1-5-2.4-5.7-2.5c-0.7,0-4-0.1-6.7,2
	C272.1,85.5,271.5,87.3,271.3,88z"/>
<path class="st3" d="M250,127c0.8-0.1,4.1-0.2,7,2c3.8,2.9,4,7.4,4,8c0,59,0,118,0,177c-0.2,1.1-1.1,4.4-4,7c-2.3,2.1-4.8,2.8-6,3
	c-1,0-5.6-0.3-9-4c-2.1-2.3-2.8-4.8-3-6c0-59,0-118,0-177c0-0.6,0.2-5.1,4-8C245.9,126.8,249.2,126.9,250,127z"/>
<path class="st3" d="M271,139c-0.1,3.9-1.7,76.9,0,84c0.6,2.4,2,4,2,4c2.6,2.9,6.5,3,7,3c0.9,0,3.6,0,6-2c2.2-1.8,2.8-4.2,3-5
	c0-14,0-83,0-83c0-0.1,0-0.2,0-0.3c0-0.2,0-0.7,0-0.7c-0.3-3.7-3-6-3-6c-2.5-2.1-5.4-2-6-2s-3.5-0.1-6,2
	C271.3,135.3,271,138.5,271,139z"/>
<path class="st3" d="M299.5,141.5c0,15.7,0.1,31.5,0.1,47.2c0.1,0.8,0.5,4.8,4.2,7.7c3.2,2.5,6.9,2.6,8.3,2.6s5,0,8.3-2.5
	c3.1-2.3,3.9-5.4,4.2-6.4c0-16.2-0.1-32.3-0.1-48.5c-0.2-1.1-0.8-3.4-2.8-5.6c-3.1-3.3-7.2-3.9-8.3-4c-1.1,0-5.8-0.1-9.7,3.2
	C300.7,137.5,299.8,140.4,299.5,141.5z"/>
<path class="st3" d="M343,151c0.6-0.1,2.9-0.2,5.1,1.7c2.8,2.5,2.9,6.3,2.9,6.8c0,50.3,0,100.6,0,150.9c-0.2,1-0.8,3.7-2.9,6
	c-1.7,1.8-3.5,2.4-4.4,2.6c-0.7,0-4-0.2-6.5-3.4c-1.5-1.9-2-4.1-2.2-5.1c0-50.3,0-100.6,0-150.9c0-0.5,0.1-4.4,2.9-6.8
	C340.1,150.8,342.4,150.9,343,151z"/>
<path class="st3" d="M342,379c2.6,0.3,4.1,1.2,5,2c0,0,0.6,0.5,3,4l0,0c0,0,0.5,22.2,3,40c2.3,16.2,6.3,28,9,36
	c4.9,14.4,13.5,34.8,29,57c0.3,0.5,1.6,2.6,1,5c-0.5,2-1.9,3.1-3,4c-0.8,0.7-2.2,1.7-4,2c-3.7,0.5-6.7-2.6-7-3
	c-9.8-14.5-21.3-34.9-30-61c-10.7-32.1-13-60.4-13-80c0.4-0.9,1.2-2.6,3-4C339.6,379.7,341.1,379.2,342,379z"/>
<path class="st3" d="M239,342c0.3-1,1.4-4.6,5-7c2.4-1.6,4.8-1.9,6-2c3.7,0.5,5.8,1.8,7,3c2.2,2.1,4,6,4,6l0,0c0,0,0,18.5,0,30
	c0.1,27.7,0.1,41.5,1,53c1.4,17.5,3.5,29.2,4,32c2.2,11.7,4.8,21.5,7,29c0,1,0.1,4-2,7c-1.7,2.5-4,3.6-5,4c-0.9,0.3-4.2,1.4-8,0
	c-3.7-1.4-5.5-4.2-6-5c-2.6-8-5.6-18.9-8-32c-2.5-13.9-3.3-24.6-4-34c-0.6-8.7-0.9-16-1-38C238.9,376.1,238.9,360.4,239,342z"/>
<path class="st3" d="M335.3,333.4c0,10.6,0,21.1,0,31.7c0,0.6,0.3,3.2,2.4,5.1c1.9,1.7,4,1.7,4.8,1.7s2.9,0,4.8-1.7
	c1.8-1.6,2.3-3.6,2.4-4.3c0-10.9,0-21.7,0-32.6c-0.1-0.8-0.5-2.3-1.6-3.7c-1.8-2.2-4.1-2.6-4.8-2.7c-0.6,0-3.3,0-5.6,2.1
	C336,330.7,335.5,332.7,335.3,333.4z"/>
<path class="st3" d="M271,248c0-0.5,0.3-3.7,3-6c2.5-2.1,5.4-2,6-2s3.5-0.1,6,2c2.7,2.3,3,5.5,3,6c1.2,19.7,0,78,0,78
	c0,0.1,0,0,0,62c0,14,0,14,0,14c0.7,39.3,11.4,71.5,16,85c5.6,16.6,14.6,38.3,29,62c0.2,0.7,0.8,2.7,0,5c-0.7,2.2-2.3,3.4-3,4
	c-2.4,1.9-5,2-6,2c-3.1,0-5.3-1.5-6-2c-14.6-23.4-23.9-45-30-62c-13-36.5-16.1-66.2-17-76c-0.5-5.8-0.7-9.7-1-17
	c-1-23.8,0-34.3,0-83c0-1,0-2,0-3C271,294,271,271,271,248z"/>
<path class="st4" d="M415,340"/>
<path class="st3" d="M299,218c0.4-1.2,1.7-4.5,5-7s6.7-2.9,8-3c1.3,0.1,4.7,0.5,8,3s4.6,5.8,5,7c0,121.7,0,187,0,187l0,0
	c0,0,2.7,23.3,7,44c1.6,7.6,4,18.2,8,31c0.1,1.1,0.2,4.5-2,8c-2.1,3.2-4.9,4.6-6,5c-1.3,0.3-5,0.8-9-1c-3.3-1.5-5.2-3.9-6-5
	c-3.6-10.4-7.1-22.1-10-35c-3.9-17.2-6-33.1-7-47C299.7,342.7,299.3,280.3,299,218z"/>
<linearGradient id="SVGID_3_" gradientUnits="userSpaceOnUse" x1="330.5895" y1="195.1482" x2="473.435" y2="195.1482" gradientTransform="matrix(1 0 0 -1 0 768)">
	<stop  offset="0" style="stop-color:#47CF73"/>
	<stop  offset="1" style="stop-color:#00A99D"/>
</linearGradient>
<path class="st5" d="M332.5,508.8l0.2-0.3c2.6-3.9,7.3-5.8,11.9-4.8l1.7,0.4c1.5,0.3,2.9,1,4.2,1.8c1.7,1.2,2.8,2.7,3.1,3.3
	c3.1,4.7,4.4,7.9,4.4,7.9c0.7,1.8,2.8,5.2,7,12c4.2,6.9,8.2,11.9,13,18c7.4,9.5,16.7,21.2,30.6,33.2c2.5,2.2,4.6,3.8,8.4,6.8
	c10.9,8.7,19.6,14.9,22.6,17c7.8,5.5,17.6,12,29.4,19c0.8,0.5,3,2.1,4,5c1.2,3.7-0.4,6.9-1,8c-0.4,0.8-1.9,3.4-5,5
	c-3,1.5-5.7,1.2-8,1c-3.4-0.4-6-1.5-9-3c-7.8-3.9-12-7-12-7c-18-13.1-23.7-14.7-42.6-30.1c-1.2-0.9-2.2-1.9-3.4-2.9
	c-18.4-16.2-30.9-32.4-35.9-39c-0.3-0.3-0.3,0.4-8.4-11.7c-6.9-10.2-12.1-19.9-16.1-28.5C330,516.3,330.3,512.1,332.5,508.8z"/>
<linearGradient id="SVGID_4_" gradientUnits="userSpaceOnUse" x1="449" y1="143" x2="449" y2="143" gradientTransform="matrix(1 0 0 -1 0 768)">
	<stop  offset="0" style="stop-color:#47CF73"/>
	<stop  offset="1" style="stop-color:#00A99D"/>
</linearGradient>
<path class="st6" d="M449,625"/>
<linearGradient id="SVGID_5_" gradientUnits="userSpaceOnUse" x1="478" y1="83" x2="478" y2="83" gradientTransform="matrix(1 0 0 -1 0 768)">
	<stop  offset="0" style="stop-color:#47CF73"/>
	<stop  offset="1" style="stop-color:#00A99D"/>
</linearGradient>
<path class="st7" d="M478,685"/>
<linearGradient id="SVGID_6_" gradientUnits="userSpaceOnUse" x1="392.7126" y1="184.2214" x2="570.2524" y2="184.2214" gradientTransform="matrix(1 0 0 -1 0 768)">
	<stop  offset="0" style="stop-color:#47CF73"/>
	<stop  offset="1" style="stop-color:#2EC8AC"/>
</linearGradient>
<path class="st8" d="M395,536c2.9-2.3,7-0.8,7.9-0.5c1,0.4,1.7,0.8,2.2,1.2c7.5,9.3,17.6,20.4,30.9,31.3
	c13.1,10.8,25.8,18.5,36.3,24c0.3,0.2,0.6,0.5,1.1,0.7c0.4,0.2,0.8,0.4,1.2,0.5c12.5,6.5,28.8,13.6,48.5,18.8
	c15.4,4.1,29.5,6.1,41.4,7.1c0.4,0.1,3,0.5,4.6,2.9c1.6,2.3,1.1,4.8,1,5.5c-0.1,0.5-0.6,2.1-2,3.5c-2.3,2.1-5.3,1.8-5.8,1.8
	c-11.7-0.4-26.1-1.8-42.2-5.8c-20.2-5-36.6-12.4-48.5-18.9c-0.3-0.1-0.7-0.2-1.2-0.5c-0.4-0.2-0.7-0.4-1.1-0.7
	c-12.3-6-27.5-14.9-43.3-28c-13.1-10.9-23.1-21.9-30.7-31.4c-0.6-0.6-1.5-1.6-2-3C392.3,542,392.4,538.1,395,536z"/>
<linearGradient id="SVGID_7_" gradientUnits="userSpaceOnUse" x1="395" y1="232" x2="395" y2="232" gradientTransform="matrix(1 0 0 -1 0 768)">
	<stop  offset="0" style="stop-color:#47CF73"/>
	<stop  offset="1" style="stop-color:#00A99D"/>
</linearGradient>
<path class="st9" d="M395,536"/>
<linearGradient id="SVGID_8_" gradientUnits="userSpaceOnUse" x1="339.28" y1="132" x2="758.7" y2="132" gradientTransform="matrix(1 0 0 -1 0 768)">
	<stop  offset="0" style="stop-color:#47CF73"/>
	<stop  offset="1.700658e-02" style="stop-color:#49D279"/>
	<stop  offset="0.1241" style="stop-color:#53E098"/>
	<stop  offset="0.2411" style="stop-color:#5BEBB2"/>
	<stop  offset="0.3697" style="stop-color:#62F4C6"/>
	<stop  offset="0.5159" style="stop-color:#67FAD4"/>
	<stop  offset="0.6947" style="stop-color:#69FEDD"/>
	<stop  offset="1" style="stop-color:#6AFFDF"/>
</linearGradient>
<path class="st10" d="M340,577L340,577c1.2-2.4,3.7-4,6.5-4h1.2c2.1,0,4.2,0.9,5.5,2.6c16.1,19.1,43.6,46.9,84.9,69.4
	c47.3,25.8,91.1,32.8,116.7,35c0.2,0,0.4,0,0.6,0c64.8,0.3,129.7,0.7,194.5,1c2,0,4,0.9,5.4,2.4l1.6,1.8c2.4,2.7,2.4,6.9,0,9.6
	l-1.6,1.8c-1.4,1.6-3.4,2.4-5.4,2.4c-58.6-0.3-117.2-0.7-175.7-1c-27.6,0.2-85.8-3.1-147-38c-42.6-24.3-70.3-54.6-86.3-75.4
	C339.1,582.4,338.8,579.5,340,577z"/>
<linearGradient id="SVGID_9_" gradientUnits="userSpaceOnUse" x1="480.9966" y1="116.9548" x2="591.0421" y2="116.9548" gradientTransform="matrix(1 0 0 -1 0 768)">
	<stop  offset="0" style="stop-color:#00A99D"/>
	<stop  offset="1" style="stop-color:#27C5C5"/>
</linearGradient>
<path class="st11" d="M481,643.8c0.1-3.4,1.9-6,2-6.2c1.3-1.8,3.1-3.2,5.3-4.1l1.6-0.6c2.4-0.9,5-1.1,7.5-0.5
	c7.4,2.3,15.2,4.6,23.6,6.6c7.4,1.8,14.6,3.4,21.5,4.7c2.3,0.4,5.4,0.9,9.5,1.3c7.1,0.8,8.8,0.5,17,1c13.9,0.9,16.7,2.3,18.7,4.3
	c0.7,0.8,3,3.3,3.3,6.9c0.5,5.4-3.5,10.9-9.4,12.4c-0.8,0.2-1.7,0.3-2.6,0.3c-8.8,0.3-16.4,0-17,0c-13.6-0.9-12-0.6-16-1
	c-3.6-0.4-6.5-0.9-13.5-2.1c-10.9-2-20.9-5.2-41.3-10.3c-1.7-0.4-3.4-1.2-4.8-2.3C483,651.4,480.9,647.6,481,643.8z"/>
<linearGradient id="SVGID_10_" gradientUnits="userSpaceOnUse" x1="575" y1="140.5" x2="708" y2="140.5" gradientTransform="matrix(1 0 0 -1 0 768)">
	<stop  offset="0" style="stop-color:#2EC8AC"/>
	<stop  offset="1" style="stop-color:#27C5C5"/>
</linearGradient>
<path class="st12" d="M582,635c-0.8-0.2-3.2-0.8-5-3c-1.3-1.5-1.8-3.1-2-4c0.1-0.8,0.3-3,2-5c1.9-2.3,4.3-2.8,5-3c40,0,80,0,120,0
	c0.8,0.3,2.6,1.2,4,3c1.6,2,1.9,4.1,2,5c-0.2,0.9-0.7,2.5-2,4c-1.8,2.2-4.2,2.8-5,3C661.3,635,621.7,635,582,635z"/>
<path class="st13" d="M722.6,635c-0.9-0.2-3.4-0.8-5.5-3c-1.4-1.5-2-3.1-2.2-4c0.1-0.8,0.3-3,2.2-5c2-2.3,4.7-2.8,5.5-3
	c43.6,0,87.2,0,130.8,0c0.9,0.3,2.8,1.2,4.4,3c1.7,2,2.1,4.1,2.2,5c-0.2,0.9-0.7,2.5-2.2,4c-2,2.2-4.5,2.8-5.5,3
	C809.1,635,765.9,635,722.6,635z"/>
<path class="st13" d="M875,635c0,0-2.6-0.8-4-2c-0.9-0.7-1.8-2.1-2-5c0.1-1.3,0.4-3.3,1.8-5c1.6-2,3.9-3,5.2-3c21.8-0.5,38-0.4,43,0
	c1.1,0.1,3.3,0.3,5,2c2.1,2.1,2,5.2,2,6c-0.1,1.2-0.4,3.4-2,5c-1.7,1.7-5,2-5,2l0,0H875L875,635z"/>
<path class="st13" d="M936,632"/>
<path class="st13" d="M952,634"/>
<path class="st13" d="M942,622"/>
<path class="st13" d="M1111.9,699c0,0-3-1-4.6-2.5c-1-0.9-2.1-2.6-2.3-6.2c0.1-1.6,0.5-4.1,2.1-6.2c1.9-2.5,4.5-3.7,6-3.7
	c25.3-0.6,43.9-0.5,49.8,0c1.2,0.1,3.9,0.4,5.8,2.5c2.5,2.6,2.4,6.5,2.3,7.4c-0.1,1.5-0.5,4.2-2.3,6.2c-2,2.1-5.8,2.5-5.8,2.5l0,0
	H1111.9L1111.9,699z"/>
<path class="st13" d="M789,699c-0.8,0.1-4,0.2-7-2c-3.4-2.6-3.9-6.3-4-7c0.6-2.3,1.7-5,4-7c0,0,2.7-2.4,7-3c9.7-1.4,266.2-0.1,294,0
	c0.8-0.1,4.1-0.2,7,2c3.8,2.9,4,7.4,4,8c-0.1,0.7-0.6,4.4-4,7c-3,2.2-6.2,2.1-7,2C985,699,887,699,789,699z"/>
<path class="st13" d="M915,730c-1-0.4-3.9-1.8-6-5c-1.9-3-2-5.8-2-7c0.2-1.9,0.8-4.8,3-7c0,0,2.2-2.2,6-3c9.2-1.8,138.1-0.1,144,0
	c1.1,0.3,3.2,1.1,5,3c3.2,3.3,3,7.6,3,8.6c0,1.3-0.2,3.9-2,6.4c-2.1,2.9-5.1,3.8-6,4C1011.7,730,963.3,730,915,730z"/>
<path class="st13" d="M842,719"/>
<path class="st13" d="M830,730c-1-0.2-4.3-1-7-4c-2.5-2.8-2.9-5.9-3-7c0.3-1.5,1.1-4.9,4-8c2.2-2.4,4.6-3.5,6-4c20.3,0,40.7,0,61,0
	c1.1,0.4,3.8,1.4,6,4c2.7,3.3,3,6.9,3,8c-0.1,1.2-0.6,4.2-3,7c-2.2,2.6-4.9,3.6-6,4C870.7,730,850.3,730,830,730z"/>
<path class="st13" d="M618,670c-1.3-0.3-4.4-1.3-7-4c-3.4-3.6-3.9-7.8-4-9c0.2-1.1,0.9-5.7,5-9c2.7-2.2,5.7-2.8,7-3
	c112,0,224,0,336,0c1.2,0.4,4.5,1.7,7,5c2.6,3.5,2.9,7.1,3,8.3c-0.1,1.3-0.5,4.6-3,7.7c-2.9,3.7-6.8,4.7-8,5
	C842,670.7,730,670.3,618,670z"/>
<path class="st13" d="M984.5,671c0,0-3.3-1.4-5-3.4c-1.1-1.2-2.3-3.6-2.5-8.5c0.1-2.2,0.6-5.6,2.3-8.5c2-3.4,4.8-5,6.4-5.1
	c27.2-0.8,47.3-0.7,53.5,0c1.3,0.2,4.1,0.6,6.2,3.4c2.6,3.6,2.5,8.9,2.5,10.2c-0.1,2.1-0.5,5.8-2.5,8.5c-2.1,2.9-6.2,3.4-6.2,3.4
	l0,0C1039.3,671,984.5,671,984.5,671L984.5,671z"/>
<path class="st4" d="M403,684c-0.5-0.9-2.3-4.6-1-9c0.7-2.5,2.2-4.2,3-5c0.4-0.5,1.6-2.2,4-3c0.6-0.2,2.6-0.8,5,0
	c16,8.5,35.7,17.5,59,25c26,8.4,49.6,12.7,69,15c86,0,172,0,258,0c1.2,0.3,5.1,1.4,8,5c2.2,2.8,2.8,5.7,3,7c-0.1,1.1-0.5,4.2-3,7
	c-3.5,3.9-8.2,4-9,4c-86.7-0.7-173.3-1.3-260-2c-20.3-1.9-46.2-6.2-75-16C439.3,703.6,418.9,693.4,403,684z"/>
</svg>
