<svg width="34" height="28" viewBox="0 0 34 28" fill="none" xmlns="http://www.w3.org/2000/svg">
<path d="M16.8614 19.5356L25.6386 14.0001L16.8614 8.4646V10.5404V12.6162H1.0625V15.384H16.8614V19.5356Z" fill="#363636"/>
<path d="M20.4678 1.54521C18.8917 1.54068 17.3304 1.86085 15.8743 2.4872C14.4182 3.11354 13.0963 4.0336 11.9852 5.19407L13.87 7.15065C15.6321 5.32137 17.9753 4.31264 20.4678 4.31264C22.9604 4.31264 25.3036 5.32137 27.0657 7.15065C28.8278 8.97992 29.7995 11.4125 29.7995 14C29.7995 16.5876 28.8278 19.0202 27.0657 20.8494C25.3036 22.6787 22.9604 23.6874 20.4678 23.6874C17.9753 23.6874 15.6321 22.6787 13.87 20.8494L11.9852 22.806C14.2498 25.1583 17.2622 26.4549 20.4678 26.4549C23.6735 26.4549 26.6858 25.1583 28.9504 22.806C31.2164 20.4551 32.4653 17.3279 32.4653 14C32.4653 10.6722 31.2164 7.54501 28.9504 5.19407C27.8393 4.0336 26.5174 3.11354 25.0614 2.4872C23.6053 1.86085 22.044 1.54068 20.4678 1.54521Z" fill="#363636"/>
</svg>
