<svg width="22" height="22" viewBox="0 0 22 22" fill="none" xmlns="http://www.w3.org/2000/svg">
<path d="M10.9999 1.83325C5.94542 1.83325 1.83325 5.94542 1.83325 10.9999V14.7977C1.83325 15.7363 2.6555 16.4999 3.66659 16.4999H4.58325C4.82637 16.4999 5.05952 16.4033 5.23143 16.2314C5.40334 16.0595 5.49992 15.8264 5.49992 15.5833V10.8688C5.49992 10.6257 5.40334 10.3926 5.23143 10.2207C5.05952 10.0487 4.82637 9.95217 4.58325 9.95217H3.75092C4.26059 6.40467 7.31309 3.66659 10.9999 3.66659C14.6868 3.66659 17.7393 6.40467 18.2489 9.95217H17.4166C17.1735 9.95217 16.9403 10.0487 16.7684 10.2207C16.5965 10.3926 16.4999 10.6257 16.4999 10.8688V16.4999C16.4999 17.511 15.6777 18.3333 14.6666 18.3333H12.8333V17.4166H9.16659V20.1666H14.6666C16.6888 20.1666 18.3333 18.5221 18.3333 16.4999C19.3443 16.4999 20.1666 15.7363 20.1666 14.7977V10.9999C20.1666 5.94542 16.0544 1.83325 10.9999 1.83325Z" fill="#5A5A5A"/>
</svg>
