<svg width="40" height="40" viewBox="0 0 40 40" fill="none" xmlns="http://www.w3.org/2000/svg">
<g clip-path="url(#clip0)">
<path d="M8.66664 22H5.33328L2.66664 27.3334V39.3334H14.6666L17.3333 33.3334V22H8.66664Z" fill="#232425"/>
<path d="M28.6666 22H25.3333L22.6666 27.3334V33.3334V39.3334H34.6666L37.3333 33.3334V22H28.6666Z" fill="#232425"/>
<path d="M5.33328 0.666626L2.66664 5.99999V18H8.66664H14.6666L17.3333 12V0.666626H5.33328Z" fill="#232425"/>
<path d="M25.3333 0.666626L22.6666 5.99999V12V18H28.6666H34.6666L37.3333 12V0.666626H25.3333Z" fill="#232425"/>
<path d="M22 11.3334H18V0.66665C18.0047 0.302665 17.7134 0.00461857 17.3493 9.19389e-06C17.344 9.19389e-06 17.3386 9.19389e-06 17.3333 9.19389e-06H5.33328C5.08062 9.19389e-06 4.8493 0.142665 4.73664 0.368681L2.07 5.70204H2.07664C2.02797 5.79407 2.00133 5.89602 2 6.00001V18C2 18.368 2.29867 18.6666 2.66664 18.6666H8V21.3333H5.33328C5.08062 21.3333 4.8493 21.4759 4.73664 21.702L2.07 27.0353H2.07664C2.02797 27.1274 2.00133 27.2293 2 27.3333V39.3333C2 39.7013 2.29867 39.9999 2.66664 39.9999H14.6666C14.9293 39.9992 15.1673 39.8439 15.274 39.6033L15.2787 39.5926L17.7666 33.9999H22V39.3333C22 39.7013 22.2987 39.9999 22.6666 39.9999H34.6666C34.9293 39.9992 35.1673 39.8439 35.274 39.6033L35.2787 39.5926L37.94 33.6046C37.9787 33.5193 37.9993 33.4273 38 33.3333V22C38.0047 21.636 37.7134 21.338 37.3493 21.3334C37.344 21.3334 37.3386 21.3334 37.3333 21.3334H29.3333V18.6667H34.6666C34.9293 18.666 35.1673 18.5107 35.274 18.2701L35.2787 18.2594L37.94 12.2714C37.9787 12.1861 37.9993 12.0941 38 12.0001V0.66665C38.0047 0.302665 37.7134 0.00461857 37.3493 9.19389e-06C37.344 9.19389e-06 37.3386 9.19389e-06 37.3333 9.19389e-06H25.3333C25.0793 -0.00131893 24.8466 0.141337 24.7333 0.368681L22.0666 5.70204H22.0733C22.0253 5.79407 22.0006 5.89602 21.9999 6.00001V11.3334H22ZM15.3333 12.6666H16.3073L15.3333 14.8587V12.6666ZM15.3333 11.3334V6.15735L16.6666 3.49071V11.3334H15.3333ZM5.74531 1.33337H16.2546L14.2546 5.33337H3.74531L5.74531 1.33337ZM3.33328 6.66665H14V11.3333H8V12.6666H14V17.3333H3.33328V6.66665ZM5.74531 22.6666H8V26.6666H3.74531L5.74531 22.6666ZM16.6666 32.6666H15.3333V27.4906L16.6666 24.824V32.6666ZM14.2546 26.6666H9.33328V22.6666H16.2546L14.2546 26.6666ZM14 38.6666H3.33328V28H8V34H9.33336V28H14V38.6666ZM15.3333 36.192V34H16.3073L15.3333 36.192ZM34 38.6666H23.3333V34H29.3333V32.6666H23.3333V28H34V38.6666ZM23.7453 26.6666L25.7453 22.6666H28V26.6666H23.7453ZM35.3333 36.192V27.4907L36.6666 24.8241V33.192L35.3333 36.192ZM36.2546 22.6666L34.2546 26.6666H29.3333V22.6666H36.2546ZM28 21.3334H25.3334C25.0794 21.332 24.8467 21.4747 24.7334 21.702L22.0667 27.0354H22.0734C22.0254 27.1274 22.0007 27.2294 22 27.3334V32.6667H18V22C18.0047 21.636 17.7134 21.338 17.3493 21.3334C17.344 21.3334 17.3386 21.3334 17.3333 21.3334H9.33328V18.6667H14.6666C14.9293 18.666 15.1673 18.5107 15.274 18.2701L15.2787 18.2594L17.7666 12.6667H22V18C22 18.368 22.2987 18.6666 22.6666 18.6666H28V21.3334ZM34 17.3334H29.3334V11.3334H28V17.3334H23.3334V6.66665H34V17.3334ZM35.3333 14.8587V6.15735L36.6666 3.49071V11.8587L35.3333 14.8587ZM25.7453 1.33337H36.2546L34.2546 5.33337H23.7453L25.7453 1.33337Z" fill="#BBBDBF"/>
</g>
<defs>
<clipPath id="clip0">
<rect width="40" height="40" fill="white"/>
</clipPath>
</defs>
</svg>
