<svg width="37" height="42" viewBox="0 0 37 42" fill="none" xmlns="http://www.w3.org/2000/svg">
<path d="M0.830388 41.3175L20.4313 20.9875L0.846809 0.693909C0.32371 1.00986 0 1.7414 0 2.69897V39.3319C0.00701557 40.2894 0.319019 40.9675 0.830388 41.3175Z" fill="#00CFFF"/>
<path d="M21.1334 20.426L26.972 14.3696L3.19562 0.847023C2.79526 0.605744 2.34049 0.478299 1.87732 0.4776L21.1311 20.4236L21.1334 20.426Z" fill="#00F076"/>
<path d="M21.1334 21.5513L1.81866 41.5849C2.30344 41.5932 2.78095 41.462 3.19795 41.2057L27.0212 27.6467L21.1334 21.5513Z" fill="#F53348"/>
<path d="M35.5853 19.2765L27.6732 14.7682L21.6752 20.9899L27.7178 27.2506L35.583 22.7544C37.2555 21.7992 37.2555 20.2268 35.5853 19.2765Z" fill="#FFDB00"/>
</svg>
