<svg width="40" height="40" viewBox="0 0 40 40" fill="none" xmlns="http://www.w3.org/2000/svg">
<path d="M10.6666 40H29.3333C31.1735 39.9977 32.6644 38.5068 32.6666 36.6667V3.33333C32.6644 1.49316 31.1735 0.00227865 29.3333 0H10.6666C8.82648 0.00227865 7.33559 1.49316 7.33331 3.33333V36.6667C7.33559 38.5068 8.82648 39.9977 10.6666 40ZM10.6666 1.33333H29.3333C30.4378 1.33333 31.3333 2.22884 31.3333 3.33333V4H8.66665V3.33333C8.66665 2.22884 9.56215 1.33333 10.6666 1.33333ZM8.66665 5.33333H31.3333V34.6667H8.66665V5.33333ZM31.3333 36V36.6667C31.3333 37.7712 30.4378 38.6667 29.3333 38.6667H10.6666C9.56215 38.6667 8.66665 37.7712 8.66665 36.6667V36H31.3333Z" fill="#BBBDBF"/>
<path d="M26.6667 20H25.3333V17.3333C25.3311 15.4932 23.8402 14.0023 22 14H18C16.1598 14.0023 14.6689 15.4932 14.6667 17.3333V20H13.3333C12.597 20 12 20.597 12 21.3333V32C12 32.7363 12.597 33.3333 13.3333 33.3333H26.6667C27.403 33.3333 28 32.7363 28 32V21.3333C28 20.597 27.403 20 26.6667 20ZM26.6667 32H13.3333V21.3333H22C22.3682 21.3333 22.6667 21.0348 22.6667 20.6667V18C22.6667 17.2637 22.0697 16.6667 21.3333 16.6667H18.6667C17.9303 16.6667 17.3333 17.2637 17.3333 18V20H16V17.3333C16 16.2288 16.8955 15.3333 18 15.3333H22C23.1045 15.3333 24 16.2288 24 17.3333V20.6667C24 21.0348 24.2985 21.3333 24.6667 21.3333H26.6667V32ZM18.6667 20V18H21.3333V20H18.6667Z" fill="#BBBDBF"/>
<path d="M20 22.6667C18.9531 22.6641 18.0019 23.2757 17.5703 24.2298C17.1387 25.1836 17.3066 26.3021 18 27.0866V30C18 30.3682 18.2985 30.6667 18.6667 30.6667H21.3333C21.7015 30.6667 22 30.3682 22 30V27.0866C22.6934 26.3021 22.8613 25.1836 22.4297 24.2298C21.998 23.2757 21.0469 22.6641 20 22.6667ZM20.8874 26.3194C20.7471 26.4457 20.6667 26.6257 20.6667 26.8148V29.3334H19.3333V26.8148C19.3333 26.6257 19.2529 26.4457 19.1126 26.3194C18.8297 26.0697 18.6673 25.7106 18.6667 25.3334C18.6667 24.597 19.2637 24 20 24C20.7363 24 21.3333 24.597 21.3333 25.3334C21.3327 25.7106 21.1702 26.0697 20.8874 26.3194Z" fill="#BBBDBF"/>
<path d="M12.6667 10.6667H15.3334V12H12.6667V10.6667Z" fill="#BBBDBF"/>
<path d="M16.6667 10.6667H19.3334V12H16.6667V10.6667Z" fill="#BBBDBF"/>
<path d="M20.6667 10.6667H23.3334V12H20.6667V10.6667Z" fill="#BBBDBF"/>
<path d="M24.6667 10.6667H27.3334V12H24.6667V10.6667Z" fill="#BBBDBF"/>
<path d="M13.3334 9.99998H14.6667V9.33331H15.3334V7.99998H14.6667V7.33331H13.3334V7.99998H12.6667V9.33331H13.3334V9.99998Z" fill="#BBBDBF"/>
</svg>
