<svg width="40" height="40" viewBox="0 0 40 40" fill="none" xmlns="http://www.w3.org/2000/svg">
<g clip-path="url(#clip0)">
<path d="M37.9991 17.1874C37.3528 16.6451 36.6835 16.0842 36.5569 15.6086C36.4196 15.0966 36.7253 14.2499 37.0212 13.4316C37.449 12.2484 37.8913 11.0241 37.3227 10.0427C36.746 9.04796 35.4527 8.81741 34.2061 8.59658C33.3593 8.44666 32.4818 8.2922 32.1205 7.92922C31.7591 7.56656 31.6024 6.69002 31.4534 5.84295C31.2319 4.59306 31.003 3.29979 30.0063 2.72633C29.0255 2.15805 27.8006 2.60102 26.6177 3.02811C25.7991 3.32439 24.953 3.62942 24.4405 3.49213C23.9651 3.36487 23.404 2.69654 22.8616 2.04925C22.0326 1.06294 21.1784 0.0452271 20.0008 0.0452271C18.8228 0.0452271 17.9689 1.06294 17.1425 2.04731C16.6002 2.69362 16.039 3.36293 15.5637 3.48953C15.0514 3.62618 14.2047 3.32051 13.3864 3.0252C12.2026 2.59745 10.978 2.15578 9.99779 2.72374C9.00307 3.30043 8.77219 4.59371 8.55136 5.84359C8.40144 6.69067 8.24698 7.56785 7.88432 7.92922C7.52134 8.29058 6.6448 8.4473 5.79805 8.59658C4.54784 8.81806 3.25488 9.04667 2.6811 10.0433C2.11283 11.0248 2.55514 12.2491 2.98289 13.4323C3.27917 14.2505 3.58484 15.0973 3.44722 15.6092C3.31965 16.0849 2.65131 16.6457 2.00403 17.1881C1.01804 18.0138 0 18.868 0 20.0457C0 21.2237 1.01804 22.0775 2.00208 22.9039C2.64872 23.4462 3.3177 24.0074 3.44431 24.4827C3.5816 24.995 3.27593 25.8418 2.9803 26.66C2.55255 27.8432 2.11023 29.0672 2.67851 30.0486C3.25553 31.0433 4.54848 31.2742 5.79869 31.4951C6.64544 31.645 7.52295 31.7994 7.88432 32.1621C8.24569 32.5251 8.40208 33.4016 8.55136 34.2484C8.77284 35.4986 9.00177 36.7915 9.99844 37.3653C10.9792 37.9336 12.2039 37.4906 13.3871 37.0635C14.206 36.7679 15.0543 36.4629 15.5643 36.5992C16.0397 36.7268 16.6008 37.3951 17.1432 38.0424C17.9695 39.0264 18.8234 40.0445 20.0014 40.0445C21.1791 40.0445 22.0333 39.0264 22.8596 38.0424C23.402 37.3957 23.9628 36.7268 24.4385 36.6002C24.9492 36.4622 25.7965 36.7685 26.6154 37.0642C27.7986 37.4913 29.0229 37.9329 30.0044 37.366C30.9991 36.7889 31.2297 35.496 31.4505 34.249C31.6004 33.4023 31.7549 32.5251 32.1179 32.1634C32.4805 31.802 33.3571 31.6456 34.2041 31.4963C35.454 31.2749 36.7473 31.0463 37.3208 30.0493C37.889 29.0678 37.4467 27.8438 37.0193 26.6607C36.7227 25.8424 36.417 24.9957 36.555 24.4837C36.6822 24.008 37.3509 23.4472 37.9978 22.9045C38.9822 22.0782 39.9999 21.2243 39.9999 20.0463C39.9999 18.8686 38.9835 18.0138 37.9991 17.1874ZM37.1465 21.8881C36.3419 22.5623 35.5104 23.2607 35.275 24.1428C35.0311 25.0572 35.4077 26.1024 35.7743 27.113C36.0835 27.9698 36.4342 28.9399 36.1722 29.3874C35.907 29.8517 34.8764 30.0315 33.9687 30.1921C32.9196 30.3776 31.8345 30.5693 31.1762 31.2279C30.5176 31.8862 30.3259 32.9706 30.141 34.0198C29.9804 34.9274 29.7988 35.9561 29.3364 36.2232C28.8895 36.482 27.9188 36.1313 27.0626 35.8253C26.052 35.4594 25.0068 35.0809 24.0917 35.3266C23.2123 35.5614 22.5141 36.3932 21.8371 37.1976C21.2354 37.9145 20.5538 38.7227 19.9946 38.7227C19.4357 38.7227 18.7538 37.9109 18.1525 37.1976C17.478 36.3932 16.7799 35.5614 15.8978 35.326C15.6935 35.2732 15.4834 35.247 15.2722 35.2486C14.464 35.3091 13.6717 35.5041 12.9276 35.8253C12.0708 36.1345 11.0997 36.4852 10.6529 36.2232C10.1885 35.958 10.0088 34.9274 9.84852 34.0198C9.66265 32.9706 9.47129 31.8856 8.81267 31.2273C8.15405 30.5687 7.06995 30.377 6.02082 30.1921C5.11288 30.0315 4.08447 29.8498 3.81701 29.3874C3.55861 28.9399 3.90929 27.9698 4.2182 27.1137C4.58443 26.1024 4.96166 25.0578 4.71686 24.1428C4.4821 23.2633 3.65057 22.5652 2.84624 21.8881C2.12934 21.2865 1.32112 20.6049 1.32112 20.0457C1.32112 19.4868 2.13258 18.8052 2.84624 18.2035C3.65057 17.529 4.4821 16.8309 4.71751 15.9489C4.96166 15.0345 4.58507 13.9892 4.2182 12.9786C3.90929 12.1218 3.55505 11.1517 3.81701 10.7039C4.08221 10.2399 5.11288 10.0602 6.02082 9.89957C7.06995 9.7137 8.1547 9.52234 8.81332 8.86372C9.47193 8.2051 9.6633 7.121 9.84852 6.07187C10.0088 5.16393 10.1908 4.13552 10.6529 3.86806C11.0984 3.60967 12.0708 3.96035 12.9269 4.26926C13.9382 4.63483 14.9824 5.01336 15.8978 4.76791C16.777 4.53316 17.4754 3.70163 18.1525 2.8973C18.7538 2.18039 19.4357 1.37218 19.9946 1.37218C20.5538 1.37218 21.2354 2.18363 21.8371 2.8973C22.5112 3.70163 23.2097 4.53316 24.0917 4.76889C25.0068 5.01271 26.0514 4.63613 27.062 4.26926C27.9181 3.96035 28.8882 3.6061 29.3364 3.86806C29.8007 4.13358 29.9804 5.16393 30.141 6.07187C30.3266 7.121 30.5183 8.20575 31.1769 8.86436C31.8352 9.52298 32.9196 9.71467 33.9687 9.89957C34.8764 10.0602 35.9051 10.2418 36.1722 10.7039C36.4309 11.1517 36.0803 12.1218 35.7743 12.978C35.4084 13.9892 35.0311 15.0338 35.2756 15.9489C35.5104 16.828 36.3419 17.5265 37.1465 18.2035C37.8635 18.8052 38.6717 19.4868 38.6717 20.0457C38.6717 20.6049 37.8635 21.2865 37.1465 21.8881Z" fill="#BBBDBF"/>
<path d="M20.0008 6.11945C12.3094 6.11945 6.07458 12.3546 6.07458 20.0456C6.07458 27.737 12.3094 33.9718 20.0008 33.9718C27.6918 33.9718 33.927 27.737 33.927 20.0456C33.9186 12.3579 27.6885 6.12786 20.0008 6.11945ZM20.0008 32.6455C13.0419 32.6455 7.40089 27.0045 7.40089 20.0456C7.40089 13.0871 13.0419 7.44575 20.0008 7.44575C26.9593 7.44575 32.6007 13.0871 32.6007 20.0456C32.5929 27.0013 26.9561 32.6381 20.0008 32.6455Z" fill="#BBBDBF"/>
<path d="M13.5632 25.5452L25.4999 13.6085L26.438 14.5462L14.5009 26.4833L13.5632 25.5452Z" fill="#BBBDBF"/>
<path d="M23.9797 21.372C22.5145 21.372 21.3271 22.5597 21.3271 24.0246C21.3271 25.4898 22.5145 26.6772 23.9797 26.6772C25.4446 26.6772 26.6323 25.4898 26.6323 24.0246C26.6323 22.5597 25.4446 21.372 23.9797 21.372ZM23.9797 25.3509C23.2472 25.3509 22.6534 24.7571 22.6534 24.0246C22.6534 23.2922 23.2472 22.6983 23.9797 22.6983C24.7121 22.6983 25.306 23.2922 25.306 24.0246C25.306 24.7571 24.7121 25.3509 23.9797 25.3509Z" fill="#BBBDBF"/>
<path d="M16.0218 18.7193C17.4867 18.7193 18.6744 17.532 18.6744 16.0667C18.6744 14.6018 17.4867 13.4141 16.0218 13.4141C14.5566 13.4141 13.3692 14.6018 13.3692 16.0667C13.3692 17.532 14.5566 18.7193 16.0218 18.7193ZM16.0218 14.7404C16.7543 14.7404 17.3481 15.3343 17.3481 16.0667C17.3481 16.7992 16.7543 17.393 16.0218 17.393C15.2894 17.393 14.6955 16.7992 14.6955 16.0667C14.6955 15.3343 15.2894 14.7404 16.0218 14.7404Z" fill="#BBBDBF"/>
</g>
<defs>
<clipPath id="clip0">
<rect width="40" height="40" fill="white"/>
</clipPath>
</defs>
</svg>
