<svg width="40" height="40" viewBox="0 0 40 40" fill="none" xmlns="http://www.w3.org/2000/svg">
<g clip-path="url(#clip0)">
<path d="M12.172 9.24035C11.8981 8.90809 11.4046 8.86238 11.0715 9.13512C11.0703 9.13621 11.0635 9.14168 11.0623 9.14277C10.731 9.41769 10.6872 9.90652 10.9611 10.2387C11.1151 10.4255 11.3385 10.5217 11.5638 10.5217C11.7392 10.5217 11.9158 10.4633 12.0617 10.3439C12.0629 10.3428 12.0696 10.3374 12.0709 10.3363C12.4022 10.0614 12.446 9.57253 12.172 9.24035Z" fill="#BBBDBF"/>
<path d="M20.0001 5.9375C17.877 5.9375 15.8363 6.39898 13.9351 7.30929C13.546 7.49562 13.3815 7.96211 13.5678 8.35132C13.7541 8.74039 14.2206 8.90492 14.6097 8.71859C16.2988 7.91 18.1124 7.5 20.0001 7.5C26.8926 7.5 32.5001 13.1074 32.5001 20C32.5001 21.4761 32.2455 22.9205 31.7435 24.2932C31.5953 24.6985 31.8037 25.1472 32.2089 25.2953C32.2974 25.3276 32.388 25.343 32.4772 25.343C32.7958 25.343 33.0951 25.1465 33.211 24.8299C33.7761 23.2847 34.0626 21.6597 34.0626 20C34.0626 12.2459 27.7542 5.9375 20.0001 5.9375Z" fill="#BBBDBF"/>
<path d="M39.7427 24.4311L38.841 23.617C37.8194 22.6948 37.2335 21.3764 37.2335 20.0001C37.2335 18.6237 37.8195 17.3054 38.841 16.383L39.7427 15.5691C39.9881 15.3474 40.0674 14.9952 39.9408 14.6898L37.8522 9.65447C37.7256 9.34923 37.4213 9.15619 37.0907 9.17353L35.8764 9.23556C34.5033 9.30658 33.1573 8.78814 32.1849 7.81564C31.2124 6.84322 30.6949 5.49768 30.765 4.12409L30.827 2.90979C30.8438 2.5798 30.6513 2.27495 30.3461 2.14831L25.3107 0.059722C25.0052 -0.066684 24.6531 0.0123784 24.4314 0.257847L23.6175 1.15949C22.6951 2.18105 21.3768 2.76698 20.0004 2.76698C18.624 2.76698 17.3057 2.18105 16.3834 1.15949L15.5694 0.257847C15.3478 0.0123002 14.9956 -0.0668402 14.6902 0.059722L9.65483 2.14831C9.34967 2.27495 9.15709 2.5798 9.17397 2.90979L9.23592 4.12409C9.30608 5.49768 8.7885 6.84322 7.81608 7.81564C6.84358 8.78814 5.49773 9.3065 4.12453 9.23556L2.91023 9.17353C2.57937 9.15728 2.27531 9.34923 2.14875 9.65447L0.0600804 14.6899C-0.0666381 14.9953 0.0127368 15.3475 0.258205 15.5691L1.15984 16.3832C2.18148 17.3055 2.76734 18.6238 2.76734 20.0002C2.76734 21.3765 2.1814 22.6948 1.15984 23.6172L0.258205 24.4311C0.0127368 24.6527 -0.06656 25.0049 0.0600804 25.3103L2.14867 30.3457C2.27523 30.6508 2.57976 30.8435 2.91015 30.8266L4.12445 30.7646C5.4978 30.6936 6.84358 31.2119 7.816 32.1845C8.7885 33.1569 9.306 34.5025 9.23584 35.8761L9.17389 37.0904C9.15702 37.4203 9.34959 37.7252 9.65475 37.8518L14.6901 39.9404C14.9957 40.0669 15.3477 39.9878 15.5693 39.7423L16.3833 38.8407C17.3057 37.8191 18.6239 37.2332 20.0004 37.2332C21.3768 37.2332 22.695 37.8191 23.6174 38.8407L24.4314 39.7423C24.5827 39.91 24.7948 40 25.0114 40C25.1121 40 25.2137 39.9806 25.3106 39.9404L30.346 37.8518C30.6511 37.7252 30.8437 37.4203 30.8268 37.0904L30.7649 35.8761C30.6947 34.5025 31.2123 33.1569 32.1848 32.1845C33.1572 31.212 34.5026 30.6937 35.8763 30.7646L37.0906 30.8266C37.4214 30.8444 37.7255 30.6509 37.852 30.3457L39.9406 25.3103C40.0675 25.0049 39.9882 24.6527 39.7427 24.4311ZM36.6201 29.238L35.9561 29.204C34.1419 29.112 32.3645 29.7949 31.0799 31.0796C29.7954 32.3641 29.1118 34.1414 29.2046 35.9557L29.2385 36.6196L25.2216 38.2857L24.7772 37.7936C23.5593 36.4443 21.8182 35.6706 20.0004 35.6706C18.1827 35.6706 16.4417 36.4443 15.2236 37.7936L14.7793 38.2857L10.7624 36.6196L10.7963 35.9557C10.889 34.1414 10.2055 32.3641 8.92084 31.0796C7.63624 29.7951 5.85897 29.1106 4.04468 29.204L3.3807 29.238L1.71469 25.2212L2.20687 24.7768C3.55609 23.5587 4.32984 21.8176 4.32984 20C4.32984 18.1823 3.55609 16.4413 2.20687 15.2232L1.71469 14.7788L3.38086 10.762L4.04484 10.7959C5.85976 10.8884 7.63639 10.2051 8.921 8.92041C10.2055 7.63588 10.8891 5.85862 10.7964 4.04432L10.7625 3.38034L14.7793 1.71425L15.2237 2.20644C16.4417 3.55565 18.1828 4.3294 20.0005 4.3294C21.8182 4.3294 23.5593 3.55565 24.7773 2.20644L25.2217 1.71425L29.2385 3.38034L29.2046 4.04432C29.1119 5.85862 29.7955 7.63588 31.08 8.92041C32.3646 10.2049 34.1419 10.8888 35.9562 10.7959L36.6202 10.762L38.2863 14.7788L37.7941 15.2232C36.4449 16.4413 35.6712 18.1823 35.6712 20C35.6712 21.8176 36.4449 23.5587 37.7941 24.7768L38.2863 25.2212L36.6201 29.238Z" fill="#BBBDBF"/>
<path d="M27.4647 27.5057L24.5997 24.6407C23.6349 23.6757 22.1494 23.5015 20.9875 24.2171L19.5365 25.1105L14.8896 20.4636L15.7831 19.0127C16.4987 17.8507 16.3244 16.3653 15.3595 15.4004L12.4945 12.5354C11.3509 11.3919 9.48985 11.3916 8.34603 12.5355C5.56353 15.318 5.56353 19.8454 8.34603 22.628L17.3722 31.6542C18.7201 33.0021 20.5123 33.7444 22.4184 33.7444C24.3246 33.7444 26.1168 33.0021 27.4647 31.6542C28.6084 30.5104 28.6084 28.6494 27.4647 27.5057ZM26.3598 30.5492C26.1251 30.7838 25.8724 30.9936 25.6061 31.1801L22.838 28.4121C22.533 28.1071 22.0383 28.1071 21.7332 28.4121C21.4281 28.7171 21.428 29.2118 21.7332 29.517L24.1301 31.9139C23.584 32.0894 23.0085 32.1819 22.4184 32.1819C20.9295 32.1819 19.5298 31.6021 18.477 30.5493L9.45087 21.523C7.92486 19.997 7.47197 17.7993 8.08907 15.8729L10.7567 18.5405C10.9093 18.693 11.1092 18.7693 11.3091 18.7693C11.5091 18.7693 11.7091 18.693 11.8616 18.5405C12.1666 18.2354 12.1666 17.7407 11.8616 17.4356L8.82063 14.3947C9.00556 14.1297 9.21454 13.8765 9.45079 13.6402C9.71806 13.3729 10.0691 13.2393 10.4202 13.2393C10.7713 13.2393 11.1223 13.3729 11.3896 13.6402L14.2546 16.5052C14.7055 16.9561 14.787 17.6503 14.4526 18.1933L13.2355 20.1699C13.0457 20.4779 13.0924 20.8761 13.3483 21.1319L18.8681 26.6517C19.1239 26.9075 19.522 26.9542 19.8301 26.7645L21.8067 25.5475C22.3498 25.2131 23.044 25.2946 23.4949 25.7454L26.3598 28.6103C26.8944 29.1449 26.8944 30.0146 26.3598 30.5492Z" fill="#BBBDBF"/>
<path d="M23.141 19.2187H20.7923C20.8176 18.6702 21.2718 18.2316 21.8265 18.2316C22.9821 18.2316 23.9222 17.2915 23.9222 16.136C23.9222 14.9804 22.9821 14.0403 21.8265 14.0403H20.0099C19.5785 14.0403 19.2287 14.3901 19.2287 14.8215C19.2287 15.2529 19.5785 15.6028 20.0099 15.6028H21.8265C22.1205 15.6028 22.3597 15.842 22.3597 16.136C22.3597 16.43 22.1205 16.6692 21.8265 16.6692C20.3941 16.6692 19.2287 17.8346 19.2287 19.267V20C19.2287 20.4314 19.5785 20.7812 20.0099 20.7812H23.141C23.5725 20.7812 23.9222 20.4314 23.9222 20C23.9222 19.5686 23.5725 19.2187 23.141 19.2187Z" fill="#BBBDBF"/>
<path d="M28.9253 14.0596C28.4938 14.0596 28.144 14.4094 28.144 14.8408V16.6649H26.5755V14.8616C26.5755 14.4302 26.2257 14.0804 25.7942 14.0804C25.3628 14.0804 25.013 14.4302 25.013 14.8616V17.4462C25.013 17.8776 25.3628 18.2274 25.7942 18.2274H28.144V20.0099C28.144 20.4413 28.4938 20.7911 28.9253 20.7911C29.3567 20.7911 29.7065 20.4413 29.7065 20.0099V14.8408C29.7065 14.4094 29.3567 14.0596 28.9253 14.0596Z" fill="#BBBDBF"/>
</g>
<defs>
<clipPath id="clip0">
<rect width="40" height="40" fill="white"/>
</clipPath>
</defs>
</svg>
