<svg 
 xmlns="http://www.w3.org/2000/svg"
 xmlns:xlink="http://www.w3.org/1999/xlink"
 width="126px" height="115px">
<defs>
<linearGradient id="PSgrad_0" x1="0%" x2="0%" y1="100%" y2="0%">
  <stop offset="0%" stop-color="rgb(0,201,255)" stop-opacity="1" />
  <stop offset="100%" stop-color="rgb(146,254,157)" stop-opacity="1" />
</linearGradient>
<filter filterUnits="userSpaceOnUse" id="Filter_0" x="0px" y="0px" width="124px" height="115px"  >
    <feOffset in="SourceAlpha" dx="1" dy="1.732" />
    <feGaussianBlur result="blurOut" stdDeviation="1.414" />
    <feFlood flood-color="rgb(0, 0, 0)" result="floodOut" />
    <feComposite operator="atop" in="floodOut" in2="blurOut" />
    <feComponentTransfer><feFuncA type="linear" slope="0.4"/></feComponentTransfer>
    <feMerge>
    <feMergeNode/>
    <feMergeNode in="SourceGraphic"/>
  </feMerge>
</filter>

</defs>
<path fill-rule="evenodd"  fill="url(#PSgrad_0)"
 d="M46.754,12.439 L116.452,12.439 C121.725,12.439 126.000,16.723 126.000,22.008 L126.000,67.939 C126.000,73.224 121.725,77.507 116.452,77.507 C116.452,77.507 114.095,77.507 110.246,77.507 C108.347,77.507 110.381,91.861 107.859,91.861 C105.236,91.861 98.036,77.507 94.970,77.507 C74.491,77.507 46.754,77.507 46.754,77.507 C41.481,77.507 37.206,73.224 37.206,67.939 L37.206,22.008 C37.206,16.723 41.481,12.439 46.754,12.439 Z"/>
<g filter="url(#Filter_0)">
<path fill-rule="evenodd"  fill="rgb(255, 255, 255)"
 d="M120.261,54.292 C120.255,61.463 115.087,66.652 107.981,66.659 C107.436,66.660 106.891,66.659 106.236,66.659 C106.236,67.192 106.236,67.594 106.236,67.996 C106.236,73.892 106.236,79.788 106.236,85.684 C106.236,85.982 106.237,86.281 106.234,86.579 C106.224,87.562 105.855,88.343 104.893,88.685 C103.956,89.018 103.164,88.737 102.494,87.992 C99.358,84.509 96.209,81.038 93.066,77.562 C92.846,77.318 92.636,77.065 92.271,76.642 C91.836,82.142 89.386,85.966 84.457,87.878 C83.009,88.439 81.353,88.645 79.786,88.675 C74.371,88.780 68.953,88.731 63.536,88.750 C58.342,88.770 53.148,88.818 47.955,88.809 C47.206,88.808 46.726,89.078 46.247,89.610 C40.175,96.356 34.087,103.086 28.003,109.821 C27.928,109.904 27.861,109.993 27.789,110.078 C27.124,110.857 26.307,111.223 25.311,110.858 C24.294,110.486 24.014,109.665 24.017,108.629 C24.038,102.509 24.027,96.389 24.027,90.270 C24.027,89.833 24.027,89.396 24.027,88.827 C23.414,88.827 22.941,88.830 22.467,88.827 C18.462,88.799 14.443,88.959 10.453,88.694 C4.705,88.314 -0.004,83.054 -0.013,77.270 C-0.035,62.792 -0.037,48.314 -0.013,33.835 C-0.002,27.510 5.384,22.280 11.880,22.241 C16.815,22.211 21.750,22.235 26.685,22.235 C27.087,22.235 27.488,22.235 28.035,22.235 C28.035,21.737 28.035,21.340 28.035,20.943 C28.035,17.808 28.022,14.673 28.038,11.539 C28.070,5.359 33.349,0.003 39.483,0.000 C56.996,-0.008 74.510,0.017 92.024,0.032 C97.292,0.037 102.561,0.061 107.830,0.065 C115.073,0.073 120.256,5.254 120.261,12.536 C120.271,26.454 120.271,40.373 120.261,54.292 ZM12.294,26.354 C12.108,26.355 11.922,26.350 11.737,26.358 C7.268,26.568 4.035,29.938 4.034,34.407 C4.031,48.512 4.031,62.617 4.034,76.722 C4.035,81.272 7.453,84.697 12.000,84.706 C16.416,84.715 20.831,84.707 25.247,84.709 C27.438,84.709 28.079,85.360 28.080,87.587 C28.082,92.811 28.081,98.034 28.081,103.567 C28.615,103.001 28.969,102.641 29.308,102.265 C34.221,96.829 39.145,91.401 44.032,85.940 C44.815,85.064 45.666,84.689 46.842,84.690 C57.787,84.696 68.732,84.661 79.677,84.633 C84.665,84.620 88.111,81.366 88.132,76.375 C88.193,62.382 88.195,48.388 88.131,34.396 C88.108,29.434 84.696,26.233 79.746,26.238 C68.392,26.249 57.038,26.258 45.684,26.277 C34.554,26.296 23.424,26.328 12.294,26.354 ZM116.199,12.354 C116.188,7.580 112.757,4.214 108.014,4.188 C102.487,4.156 96.959,4.118 91.432,4.111 C74.252,4.090 57.072,4.079 39.893,4.071 C35.576,4.069 32.104,7.548 32.091,11.876 C32.081,14.974 32.087,18.071 32.092,21.168 C32.092,21.490 32.132,21.812 32.157,22.199 C32.637,22.199 33.040,22.200 33.443,22.199 C49.027,22.187 64.611,22.171 80.195,22.167 C80.934,22.167 81.687,22.186 82.409,22.322 C88.245,23.422 92.200,28.309 92.205,34.432 C92.215,46.074 92.214,57.717 92.195,69.359 C92.193,70.112 92.365,70.678 92.892,71.249 C95.690,74.284 98.444,77.360 101.204,80.431 C101.447,80.701 101.624,81.032 101.831,81.334 C101.948,81.252 102.065,81.169 102.182,81.087 C102.182,80.682 102.182,80.276 102.182,79.872 C102.182,74.909 102.179,69.946 102.184,64.983 C102.186,63.257 102.886,62.559 104.620,62.542 C105.622,62.532 106.630,62.466 107.624,62.553 C111.808,62.919 116.234,59.807 116.221,53.997 C116.188,40.117 116.230,26.235 116.199,12.354 ZM48.107,44.288 C48.134,45.533 47.217,46.382 45.740,46.384 C37.281,46.395 28.821,46.396 20.362,46.384 C18.770,46.382 17.906,45.497 18.019,44.081 C18.109,42.968 18.872,42.321 20.173,42.318 C24.477,42.308 28.781,42.313 33.084,42.313 C37.277,42.313 41.469,42.311 45.662,42.314 C47.171,42.316 48.081,43.057 48.107,44.288 ZM19.740,66.509 C20.071,66.480 20.407,66.496 20.740,66.496 C29.156,66.496 37.573,66.496 45.989,66.496 C54.590,66.496 63.192,66.507 71.794,66.483 C72.891,66.480 73.680,66.836 74.060,67.885 C74.468,69.012 73.722,70.261 72.502,70.514 C72.144,70.588 71.764,70.571 71.394,70.571 C54.488,70.573 37.581,70.574 20.675,70.572 C18.790,70.572 17.888,69.774 18.021,68.246 C18.104,67.292 18.783,66.596 19.740,66.509 ZM72.876,58.282 C72.475,58.437 72.008,58.473 71.572,58.474 C54.576,58.483 37.580,58.482 20.585,58.480 C20.288,58.480 19.987,58.485 19.697,58.433 C18.574,58.229 17.925,57.341 18.020,56.171 C18.103,55.136 18.833,54.441 19.952,54.414 C21.287,54.382 22.624,54.405 23.959,54.405 C31.344,54.405 38.729,54.405 46.113,54.405 C54.611,54.405 63.109,54.395 71.607,54.426 C72.230,54.429 72.982,54.571 73.451,54.937 C74.659,55.877 74.308,57.728 72.876,58.282 Z"/>
</g>
</svg>