<svg 
 xmlns="http://www.w3.org/2000/svg"
 xmlns:xlink="http://www.w3.org/1999/xlink"
 width="79px" height="79px">
<defs>
<linearGradient id="PSgrad_0" x1="0%" x2="0%" y1="100%" y2="0%">
  <stop offset="0%" stop-color="rgb(0,201,255)" stop-opacity="1" />
  <stop offset="100%" stop-color="rgb(146,254,157)" stop-opacity="1" />
</linearGradient>
<filter filterUnits="userSpaceOnUse" id="Filter_0" x="0px" y="0px" width="79px" height="79px"  >
    <feOffset in="SourceAlpha" dx="1" dy="1.732" />
    <feGaussianBlur result="blurOut" stdDeviation="1.414" />
    <feFlood flood-color="rgb(0, 0, 0)" result="floodOut" />
    <feComposite operator="atop" in="floodOut" in2="blurOut" />
    <feComponentTransfer><feFuncA type="linear" slope="0.4"/></feComponentTransfer>
    <feMerge>
    <feMergeNode/>
    <feMergeNode in="SourceGraphic"/>
  </feMerge>
</filter>

</defs>
<path fill-rule="evenodd"  fill="url(#PSgrad_0)"
 d="M66.000,6.000 L72.000,8.999 L75.000,14.999 L55.000,34.999 L41.000,40.999 L45.000,25.999 L66.000,6.000 Z"/>
<g filter="url(#Filter_0)">
<path fill-rule="evenodd"  fill="rgb(255, 255, 255)"
 d="M74.804,12.276 C68.509,18.436 62.297,24.682 56.043,30.884 C55.685,31.240 55.203,31.472 54.669,31.837 C54.215,31.485 53.697,31.277 53.544,30.916 C53.374,30.514 53.460,29.953 53.581,29.500 C53.655,29.222 53.998,29.010 54.230,28.779 C60.302,22.731 66.368,16.679 72.459,10.651 C72.949,10.165 73.124,9.756 72.851,9.106 C72.340,7.896 72.153,6.612 71.202,5.514 C69.854,3.958 68.118,3.465 66.289,3.052 C66.017,2.991 65.581,3.270 65.340,3.509 C60.899,7.935 56.475,12.378 52.047,16.819 C50.339,18.530 48.633,20.245 46.920,21.952 C46.111,22.758 45.275,22.845 44.658,22.207 C44.077,21.609 44.173,20.770 44.933,20.008 C51.361,13.557 57.795,7.113 64.216,0.655 C64.859,0.008 65.515,-0.157 66.395,0.140 C67.580,0.542 68.822,0.780 70.006,1.185 C70.602,1.388 71.168,1.749 71.673,2.135 C73.817,3.776 75.153,5.921 75.592,8.596 C75.602,8.654 75.625,8.712 75.652,8.764 C76.365,10.175 75.922,11.181 74.804,12.276 ZM53.299,50.663 C53.035,50.704 52.762,50.683 52.493,50.683 C46.450,50.685 40.407,50.685 34.364,50.686 C28.292,50.686 22.219,50.687 16.146,50.685 C15.073,50.685 14.410,50.168 14.378,49.325 C14.346,48.474 15.010,47.889 16.057,47.887 C19.348,47.878 22.639,47.880 25.929,47.880 C34.754,47.881 43.579,47.883 52.404,47.884 C52.703,47.884 53.009,47.855 53.299,47.906 C54.033,48.039 54.468,48.495 54.528,49.238 C54.584,49.915 54.025,50.550 53.299,50.663 ZM16.058,33.584 C19.437,33.575 22.816,33.579 26.195,33.579 C28.826,33.578 31.457,33.576 34.089,33.583 C35.172,33.585 35.832,34.100 35.859,34.937 C35.887,35.809 35.204,36.378 34.085,36.381 C31.065,36.389 28.045,36.384 25.025,36.384 C22.034,36.384 19.044,36.389 16.054,36.381 C15.056,36.379 14.408,35.839 14.378,35.021 C14.346,34.171 15.010,33.587 16.058,33.584 ZM16.052,26.433 C19.312,26.424 22.571,26.430 25.831,26.430 C29.090,26.430 32.349,26.438 35.609,26.424 C36.426,26.420 37.014,26.719 37.249,27.517 C37.516,28.423 36.755,29.222 35.618,29.227 C32.658,29.238 29.697,29.233 26.737,29.234 C23.208,29.234 19.680,29.224 16.151,29.239 C15.310,29.243 14.671,28.984 14.423,28.139 C14.154,27.225 14.907,26.436 16.052,26.433 ZM54.528,42.089 C54.582,42.767 54.024,43.400 53.297,43.512 C53.033,43.553 52.760,43.533 52.491,43.533 C46.448,43.534 40.405,43.533 34.362,43.534 C28.289,43.535 22.217,43.536 16.144,43.534 C15.069,43.533 14.409,43.016 14.378,42.172 C14.347,41.321 15.011,40.738 16.060,40.735 C19.350,40.726 22.641,40.729 25.931,40.729 C34.756,40.730 43.581,40.731 52.406,40.733 C52.705,40.733 53.011,40.704 53.301,40.756 C54.035,40.888 54.469,41.345 54.528,42.089 ZM67.426,6.597 C67.947,6.081 68.551,5.796 69.190,6.135 C69.602,6.354 69.854,6.870 70.265,7.358 C69.863,7.909 69.609,8.372 69.248,8.730 C64.097,13.840 58.932,18.936 53.770,24.035 C52.942,24.853 52.122,25.681 51.285,26.490 C50.527,27.221 49.776,27.276 49.152,26.675 C48.507,26.052 48.559,25.260 49.339,24.488 C55.366,18.523 61.403,12.567 67.426,6.597 ZM50.910,32.247 C51.819,32.025 52.559,32.417 52.744,33.193 C52.939,34.010 52.522,34.700 51.616,34.932 C48.119,35.830 44.621,36.726 41.113,37.580 C39.506,37.972 37.912,36.319 38.333,34.718 C39.240,31.268 40.173,27.825 41.109,24.384 C41.374,23.412 42.041,22.996 42.894,23.214 C43.647,23.407 44.029,24.147 43.787,25.069 C43.042,27.916 42.272,30.756 41.516,33.599 C41.435,33.904 41.376,34.215 41.277,34.660 C43.380,34.133 45.365,33.637 47.350,33.139 C48.537,32.842 49.721,32.535 50.910,32.247 ZM46.014,14.913 C45.419,14.959 44.817,14.931 44.219,14.931 C32.099,14.931 19.978,14.933 7.858,14.925 C6.426,14.924 5.138,15.290 4.072,16.273 C3.267,17.016 2.824,17.935 2.824,19.041 C2.822,31.286 2.812,43.531 2.830,55.776 C2.835,58.546 5.110,60.751 7.887,60.753 C16.775,60.760 25.663,60.765 34.551,60.737 C35.571,60.734 36.346,61.013 37.124,61.700 C40.326,64.525 43.593,67.277 46.837,70.054 C46.967,70.165 47.113,70.256 47.351,70.428 C47.376,70.078 47.410,69.829 47.410,69.580 C47.415,67.285 47.415,64.992 47.414,62.698 C47.414,61.230 47.879,60.753 49.320,60.754 C53.210,60.754 57.100,60.756 60.991,60.756 C64.046,60.756 66.083,58.738 66.088,55.660 C66.100,49.433 66.091,43.207 66.091,36.979 C66.091,33.166 66.090,29.352 66.089,25.539 C66.089,25.359 66.082,25.180 66.096,25.002 C66.162,24.155 66.757,23.562 67.522,23.574 C68.283,23.585 68.880,24.185 68.897,25.047 C68.925,26.506 68.907,27.967 68.907,29.427 C68.908,38.037 68.903,46.648 68.912,55.258 C68.914,57.939 67.800,60.092 65.821,61.833 C64.493,63.001 62.941,63.579 61.145,63.565 C57.556,63.537 53.967,63.557 50.230,63.557 C50.230,63.985 50.230,64.306 50.230,64.627 C50.231,67.486 50.223,70.347 50.238,73.207 C50.242,73.913 50.088,74.503 49.404,74.847 C48.683,75.210 48.146,74.858 47.624,74.411 C43.656,71.010 39.679,67.618 35.725,64.201 C35.195,63.741 34.668,63.540 33.959,63.542 C25.400,63.565 16.841,63.558 8.282,63.556 C3.801,63.556 0.003,59.751 0.004,55.293 C0.009,43.614 0.008,31.935 0.002,20.256 C-0.000,15.464 3.339,12.123 8.152,12.123 C20.512,12.125 32.872,12.126 45.232,12.127 C45.501,12.128 45.774,12.103 46.039,12.141 C46.821,12.250 47.284,12.708 47.344,13.494 C47.398,14.207 46.797,14.850 46.014,14.913 Z"/>
</g>
</svg>