<svg 
 xmlns="http://www.w3.org/2000/svg"
 xmlns:xlink="http://www.w3.org/1999/xlink"
 width="69px" height="77px">
<defs>
<linearGradient id="PSgrad_0" x1="0%" x2="0%" y1="100%" y2="0%">
  <stop offset="0%" stop-color="rgb(0,201,255)" stop-opacity="1" />
  <stop offset="100%" stop-color="rgb(146,254,157)" stop-opacity="1" />
</linearGradient>
<filter filterUnits="userSpaceOnUse" id="Filter_0" x="0px" y="0px" width="69px" height="77px"  >
    <feOffset in="SourceAlpha" dx="1" dy="1.732" />
    <feGaussianBlur result="blurOut" stdDeviation="1.414" />
    <feFlood flood-color="rgb(0, 0, 0)" result="floodOut" />
    <feComposite operator="atop" in="floodOut" in2="blurOut" />
    <feComponentTransfer><feFuncA type="linear" slope="0.4"/></feComponentTransfer>
    <feMerge>
    <feMergeNode/>
    <feMergeNode in="SourceGraphic"/>
  </feMerge>
</filter>

</defs>
<path fill-rule="evenodd"  fill="url(#PSgrad_0)"
 d="M56.000,40.999 C63.180,40.999 69.000,46.819 69.000,53.999 C69.000,61.179 63.180,66.999 56.000,66.999 C48.820,66.999 43.000,61.179 43.000,53.999 C43.000,46.819 48.820,40.999 56.000,40.999 Z"/>
<g filter="url(#Filter_0)">
<path fill-rule="evenodd"  fill="rgb(255, 255, 255)"
 d="M53.382,63.871 C46.523,63.846 40.949,58.191 40.965,51.273 C40.980,44.332 46.639,38.743 53.617,38.777 C60.469,38.810 66.015,44.466 66.002,51.406 C65.988,58.311 60.334,63.897 53.382,63.871 ZM53.291,41.066 C47.811,41.069 43.234,45.758 43.246,51.356 C43.257,56.999 47.858,61.589 53.499,61.583 C59.134,61.578 63.723,56.973 63.723,51.325 C63.723,45.587 59.122,41.062 53.291,41.066 ZM52.174,54.569 C51.703,54.925 51.151,54.809 50.761,54.363 C50.028,53.523 49.317,52.663 48.627,51.788 C48.211,51.259 48.298,50.577 48.769,50.192 C49.261,49.792 49.898,49.828 50.364,50.335 C50.841,50.856 51.277,51.415 51.780,52.015 C53.358,50.787 54.854,49.623 56.351,48.460 C56.520,48.329 56.681,48.184 56.864,48.078 C57.413,47.761 58.039,47.883 58.381,48.379 C58.744,48.905 58.720,49.477 58.242,49.859 C56.243,51.459 54.217,53.026 52.174,54.569 ZM49.549,12.626 C51.113,12.799 52.322,14.201 52.328,15.771 C52.356,22.608 52.340,29.445 52.337,36.282 C52.337,36.349 52.304,36.415 52.276,36.520 C51.586,36.629 50.889,36.740 50.070,36.868 C50.070,36.562 50.070,36.291 50.070,36.023 C50.070,29.518 50.070,23.013 50.070,16.509 C50.069,15.158 49.742,14.830 48.396,14.828 C47.475,14.827 46.553,14.828 45.575,14.828 C45.575,14.064 45.575,13.348 45.575,12.597 C46.916,12.597 48.247,12.484 49.549,12.626 ZM54.622,36.512 C54.622,36.220 54.622,35.944 54.622,35.669 C54.622,27.762 54.622,19.854 54.621,11.948 C54.621,10.596 54.293,10.266 52.948,10.266 C50.510,10.265 48.072,10.266 45.575,10.266 C45.575,9.503 45.575,8.786 45.575,7.984 C46.322,7.984 47.050,7.984 47.777,7.984 C49.673,7.984 51.568,7.971 53.464,7.988 C55.417,8.007 56.890,9.463 56.893,11.420 C56.905,19.754 56.898,28.088 56.898,36.423 C56.898,36.538 56.884,36.655 56.872,36.863 C56.106,36.743 55.408,36.634 54.622,36.512 ZM43.868,30.788 C43.680,30.805 43.489,30.794 43.300,30.794 C39.842,30.795 36.384,30.795 32.926,30.795 C29.515,30.795 26.105,30.795 22.694,30.794 C22.481,30.794 22.263,30.816 22.056,30.781 C21.441,30.675 21.069,30.301 21.060,29.671 C21.051,29.042 21.413,28.657 22.023,28.533 C22.228,28.491 22.448,28.513 22.660,28.513 C29.553,28.512 36.445,28.512 43.337,28.513 C43.527,28.513 43.718,28.502 43.905,28.523 C44.520,28.595 44.956,29.085 44.945,29.674 C44.934,30.270 44.496,30.728 43.868,30.788 ZM43.910,25.082 C43.723,25.105 43.532,25.093 43.342,25.093 C36.450,25.093 29.558,25.093 22.666,25.093 C22.453,25.093 22.234,25.114 22.028,25.073 C21.415,24.954 21.053,24.569 21.060,23.940 C21.068,23.312 21.437,22.935 22.051,22.826 C22.259,22.789 22.477,22.811 22.690,22.811 C26.124,22.810 29.558,22.810 32.992,22.810 C36.427,22.810 39.861,22.810 43.295,22.811 C43.508,22.811 43.726,22.790 43.934,22.824 C44.550,22.926 44.905,23.300 44.940,23.928 C44.974,24.520 44.526,25.009 43.910,25.082 ZM40.903,18.244 C37.679,18.257 34.454,18.249 31.229,18.249 C26.250,18.249 21.271,18.250 16.291,18.248 C14.493,18.248 13.652,17.393 13.650,15.572 C13.649,12.935 13.648,10.297 13.651,7.660 C13.652,6.051 14.553,5.140 16.156,5.135 C18.169,5.129 20.183,5.133 22.238,5.133 C23.384,1.753 25.570,-0.020 28.507,0.001 C31.377,0.021 33.589,1.849 34.645,5.133 C35.819,5.133 37.022,5.133 38.225,5.133 C39.126,5.134 40.028,5.123 40.928,5.138 C42.264,5.160 43.226,6.096 43.234,7.427 C43.252,10.255 43.250,13.082 43.235,15.909 C43.228,17.298 42.289,18.238 40.903,18.244 ZM40.904,7.412 C38.498,7.412 36.153,7.416 33.808,7.410 C32.852,7.408 32.495,7.058 32.422,6.094 C32.260,3.946 30.537,2.294 28.456,2.289 C26.373,2.284 24.637,3.932 24.469,6.074 C24.391,7.078 24.043,7.409 23.032,7.411 C20.922,7.416 18.813,7.413 16.703,7.416 C16.454,7.416 16.206,7.438 15.982,7.449 C15.982,10.332 15.982,13.123 15.982,15.940 C24.305,15.940 32.572,15.940 40.904,15.940 C40.904,13.069 40.904,10.261 40.904,7.412 ZM28.465,4.569 C29.091,4.580 29.580,5.081 29.579,5.706 C29.577,6.335 29.090,6.828 28.461,6.837 C27.808,6.846 27.290,6.319 27.312,5.666 C27.333,5.040 27.839,4.558 28.465,4.569 ZM14.898,24.437 C15.531,23.981 16.177,23.541 16.829,23.114 C17.536,22.652 18.176,22.738 18.571,23.322 C18.965,23.904 18.804,24.529 18.102,25.017 C17.092,25.719 16.075,26.409 15.049,27.088 C14.376,27.533 13.904,27.475 13.348,26.905 C12.952,26.499 12.493,26.123 12.212,25.645 C12.026,25.330 11.968,24.801 12.104,24.473 C12.239,24.148 12.689,23.954 13.056,23.659 C13.464,23.933 13.816,24.090 14.057,24.352 C14.348,24.669 14.572,24.671 14.898,24.437 ZM13.883,29.892 C14.348,30.430 14.693,30.328 15.174,29.956 C15.771,29.493 16.400,29.063 17.054,28.687 C17.853,28.226 18.782,28.782 18.764,29.908 C18.647,30.059 18.468,30.437 18.171,30.653 C17.140,31.405 16.075,32.110 15.009,32.813 C14.375,33.230 13.896,33.164 13.365,32.625 C12.983,32.238 12.597,31.852 12.248,31.436 C11.810,30.914 11.849,30.270 12.303,29.839 C12.756,29.410 13.436,29.374 13.883,29.892 ZM13.906,35.607 C14.335,36.086 14.638,36.100 15.127,35.695 C15.707,35.214 16.339,34.771 17.011,34.435 C17.338,34.272 17.860,34.264 18.193,34.413 C18.496,34.548 18.661,34.990 18.951,35.383 C18.643,35.775 18.457,36.149 18.159,36.365 C17.106,37.130 16.025,37.855 14.933,38.564 C14.428,38.891 13.908,38.876 13.459,38.401 C13.070,37.989 12.653,37.602 12.279,37.176 C11.824,36.660 11.836,36.021 12.270,35.576 C12.725,35.109 13.429,35.072 13.906,35.607 ZM15.008,44.219 C14.378,44.635 13.892,44.568 13.364,44.031 C12.982,43.643 12.597,43.256 12.248,42.840 C11.811,42.319 11.851,41.654 12.304,41.246 C12.788,40.810 13.384,40.793 13.874,41.311 C14.305,41.768 14.638,41.770 15.122,41.398 C15.757,40.910 16.433,40.467 17.128,40.068 C17.878,39.638 18.780,40.217 18.765,41.316 C18.647,41.468 18.465,41.842 18.168,42.058 C17.137,42.809 16.073,43.515 15.008,44.219 ZM18.227,47.718 C17.157,48.496 16.053,49.229 14.950,49.961 C14.404,50.324 13.874,50.257 13.413,49.785 C13.033,49.396 12.650,49.008 12.293,48.598 C11.815,48.048 11.831,47.393 12.304,46.947 C12.762,46.516 13.430,46.481 13.883,47.001 C14.348,47.535 14.693,47.436 15.175,47.063 C15.772,46.601 16.401,46.171 17.054,45.794 C17.852,45.334 18.780,45.889 18.765,46.997 C18.660,47.145 18.505,47.516 18.227,47.718 ZM13.876,52.695 C14.336,53.225 14.679,53.153 15.166,52.771 C15.741,52.320 16.359,51.919 16.982,51.534 C17.577,51.166 18.189,51.293 18.553,51.805 C18.921,52.322 18.853,52.976 18.296,53.377 C17.163,54.190 15.997,54.957 14.837,55.731 C14.687,55.831 14.487,55.855 14.225,55.943 C13.995,55.821 13.690,55.729 13.478,55.536 C13.042,55.138 12.637,54.702 12.254,54.253 C11.809,53.731 11.844,53.091 12.297,52.656 C12.750,52.221 13.429,52.180 13.876,52.695 ZM13.826,58.358 C14.366,59.018 14.776,58.783 15.289,58.388 C15.794,58.000 16.330,57.650 16.867,57.305 C17.537,56.874 18.164,56.962 18.556,57.516 C18.952,58.075 18.827,58.718 18.180,59.173 C17.136,59.908 16.074,60.618 15.010,61.323 C14.801,61.461 14.547,61.531 14.264,61.655 C14.010,61.532 13.717,61.461 13.525,61.282 C13.058,60.847 12.613,60.384 12.207,59.893 C11.801,59.401 11.866,58.767 12.302,58.353 C12.736,57.941 13.425,57.868 13.826,58.358 ZM49.706,65.831 C49.817,65.805 49.933,65.732 50.036,65.750 C50.708,65.860 51.377,65.990 52.161,66.135 C51.570,67.519 50.616,68.258 49.222,68.419 C48.965,68.448 48.701,68.432 48.441,68.432 C35.094,68.432 21.748,68.432 8.402,68.432 C5.890,68.432 4.545,67.083 4.545,64.562 C4.545,48.503 4.545,32.445 4.545,16.386 C4.546,13.907 5.899,12.548 8.361,12.546 C9.329,12.545 10.297,12.546 11.320,12.546 C11.320,13.302 11.320,14.002 11.320,14.828 C10.402,14.828 9.466,14.827 8.529,14.828 C7.137,14.829 6.821,15.147 6.821,16.549 C6.821,32.512 6.821,48.476 6.821,64.440 C6.821,65.835 7.138,66.150 8.538,66.150 C21.813,66.150 35.088,66.153 48.363,66.137 C48.811,66.136 49.258,65.939 49.706,65.831 ZM40.236,59.307 C34.339,59.307 28.442,59.307 22.545,59.307 C22.356,59.307 22.159,59.326 21.979,59.282 C21.407,59.145 21.063,58.776 21.058,58.177 C21.053,57.580 21.389,57.201 21.959,57.056 C22.161,57.004 22.383,57.026 22.595,57.026 C28.113,57.025 33.631,57.032 39.149,57.017 C39.636,57.015 39.926,57.124 40.114,57.611 C40.323,58.157 40.641,58.662 40.974,59.307 C40.656,59.307 40.446,59.307 40.236,59.307 ZM22.306,51.326 C22.779,51.314 23.252,51.325 23.726,51.325 C28.437,51.325 33.147,51.325 37.858,51.325 C38.111,51.325 38.364,51.325 38.647,51.325 C38.712,52.107 38.769,52.807 38.831,53.563 C38.586,53.578 38.380,53.603 38.173,53.603 C32.942,53.606 27.710,53.606 22.479,53.607 C22.432,53.607 22.384,53.607 22.337,53.606 C21.549,53.581 21.063,53.156 21.051,52.480 C21.040,51.815 21.541,51.346 22.306,51.326 ZM22.186,45.631 C23.276,45.605 24.367,45.621 25.458,45.621 C29.868,45.621 34.278,45.621 38.688,45.620 C39.018,45.620 39.348,45.620 39.773,45.620 C39.558,46.329 39.416,46.958 39.162,47.537 C39.080,47.725 38.707,47.886 38.465,47.887 C35.455,47.910 32.443,47.903 29.432,47.903 C27.180,47.903 24.927,47.903 22.675,47.904 C22.509,47.904 22.342,47.912 22.177,47.899 C21.510,47.847 21.048,47.375 21.051,46.756 C21.054,46.131 21.507,45.648 22.186,45.631 ZM21.051,35.335 C21.065,34.625 21.580,34.216 22.486,34.216 C26.015,34.214 29.544,34.215 33.074,34.215 C33.074,34.223 33.074,34.231 33.074,34.239 C36.602,34.239 40.131,34.233 43.659,34.243 C44.469,34.246 44.937,34.674 44.945,35.345 C44.953,36.041 44.444,36.494 43.615,36.494 C36.557,36.499 29.499,36.499 22.441,36.496 C21.560,36.496 21.036,36.048 21.051,35.335 ZM41.347,42.192 C35.020,42.201 28.693,42.202 22.366,42.197 C21.545,42.196 21.039,41.729 21.050,41.030 C21.060,40.348 21.574,39.922 22.425,39.921 C28.507,39.920 34.589,39.923 40.671,39.926 C41.708,39.926 42.745,39.926 43.906,39.926 C43.204,40.691 42.614,41.365 41.984,41.998 C41.845,42.138 41.563,42.192 41.347,42.192 ZM3.807,10.267 C2.648,10.268 2.270,10.644 2.270,11.801 C2.268,30.927 2.268,50.055 2.270,69.182 C2.270,70.335 2.648,70.711 3.810,70.711 C20.241,70.713 36.673,70.713 53.104,70.711 C54.249,70.711 54.618,70.329 54.621,69.159 C54.624,68.164 54.622,67.169 54.622,66.137 C55.390,66.018 56.106,65.906 56.864,65.789 C56.864,67.264 56.960,68.693 56.839,70.102 C56.700,71.712 55.246,72.926 53.626,72.991 C53.436,72.998 53.246,72.994 53.057,72.994 C36.673,72.994 20.289,72.994 3.905,72.994 C1.329,72.994 -0.007,71.668 -0.007,69.107 C-0.008,50.004 -0.008,30.901 -0.007,11.798 C-0.007,9.366 1.359,7.986 3.764,7.985 C6.017,7.983 8.269,7.984 10.522,7.984 C10.776,7.984 11.031,7.984 11.344,7.984 C11.344,8.793 11.344,9.477 11.344,10.266 C11.066,10.266 10.815,10.266 10.564,10.266 C8.312,10.266 6.060,10.263 3.807,10.267 Z"/>
</g>
</svg>