<svg 
 xmlns="http://www.w3.org/2000/svg"
 xmlns:xlink="http://www.w3.org/1999/xlink"
 width="81px" height="81px">
<defs>
<linearGradient id="PSgrad_0" x1="0%" x2="0%" y1="100%" y2="0%">
  <stop offset="0%" stop-color="rgb(0,201,255)" stop-opacity="1" />
  <stop offset="100%" stop-color="rgb(146,254,157)" stop-opacity="1" />
</linearGradient>
<filter filterUnits="userSpaceOnUse" id="Filter_0" x="0px" y="0px" width="81px" height="81px"  >
    <feOffset in="SourceAlpha" dx="1" dy="1.732" />
    <feGaussianBlur result="blurOut" stdDeviation="1.414" />
    <feFlood flood-color="rgb(0, 0, 0)" result="floodOut" />
    <feComposite operator="atop" in="floodOut" in2="blurOut" />
    <feComponentTransfer><feFuncA type="linear" slope="0.4"/></feComponentTransfer>
    <feMerge>
    <feMergeNode/>
    <feMergeNode in="SourceGraphic"/>
  </feMerge>
</filter>

</defs>
<path fill-rule="evenodd"  fill="url(#PSgrad_0)"
 d="M42.000,7.000 L42.000,22.999 C42.000,22.999 22.667,20.832 20.000,38.999 C20.000,60.499 42.000,57.999 42.000,57.999 L43.000,76.999 L30.000,76.999 L30.000,68.999 L23.000,65.999 L18.000,68.999 L10.000,60.999 L14.000,55.999 L10.000,45.999 L4.000,45.999 L3.000,33.999 L10.000,33.999 L14.000,25.999 L10.000,20.999 L18.000,13.999 L22.000,16.999 L30.000,13.999 L31.000,7.999 L42.000,7.000 Z"/>
<g filter="url(#Filter_0)">
<path fill-rule="evenodd"  fill="rgb(255, 255, 255)"
 d="M73.602,42.297 C70.905,43.218 67.798,41.734 66.457,39.095 C66.203,38.597 65.920,38.447 65.383,38.450 C60.674,38.473 55.964,38.466 51.255,38.467 C51.081,38.467 50.907,38.467 50.703,38.467 C50.703,37.556 50.703,36.701 50.703,35.784 C50.901,35.784 51.074,35.784 51.248,35.784 C55.860,35.786 60.471,35.781 65.083,35.800 C65.608,35.802 65.800,35.663 65.948,35.114 C66.580,32.766 68.101,31.186 70.419,30.508 C72.620,29.865 74.547,30.571 76.111,32.158 C79.950,36.056 77.335,41.023 73.602,42.297 ZM71.877,32.976 C69.746,32.978 68.429,34.310 68.429,36.462 C68.429,38.561 69.772,39.898 71.879,39.897 C74.025,39.895 75.330,38.559 75.330,36.362 C75.330,34.320 73.957,32.973 71.877,32.976 ZM68.918,25.933 C66.101,26.581 62.945,24.598 61.981,21.763 C61.939,21.640 61.891,21.519 61.854,21.394 C61.600,20.559 61.601,20.561 60.748,20.562 C59.952,20.564 59.156,20.577 58.361,20.555 C58.030,20.546 57.833,20.662 57.649,20.940 C55.708,23.871 53.747,26.790 51.809,29.722 C51.577,30.074 51.333,30.213 50.905,30.212 C45.677,30.195 40.448,30.188 35.219,30.203 C31.381,30.215 28.374,33.276 28.373,37.132 C28.373,40.936 31.345,43.981 35.136,44.047 C36.156,44.064 37.177,44.049 38.248,44.049 C38.248,44.970 38.248,45.813 38.248,46.697 C37.047,46.697 35.855,46.816 34.695,46.675 C30.629,46.183 27.802,43.963 26.320,40.143 C25.139,37.098 25.725,34.225 27.635,31.648 C29.638,28.944 32.339,27.522 35.732,27.522 C40.311,27.522 44.890,27.517 49.469,27.533 C49.914,27.535 50.170,27.382 50.412,27.017 C52.355,24.087 54.322,21.173 56.267,18.244 C56.455,17.960 56.655,17.871 56.981,17.875 C58.458,17.891 59.936,17.866 61.414,17.891 C61.858,17.899 62.087,17.765 62.303,17.351 C63.452,15.147 65.255,13.839 67.759,13.772 C70.515,13.699 73.162,16.082 73.772,18.791 C74.416,21.650 72.232,25.170 68.918,25.933 ZM67.897,16.450 C65.656,16.441 64.330,17.720 64.320,19.901 C64.311,21.998 65.632,23.361 67.683,23.371 C69.846,23.382 71.208,22.072 71.218,19.971 C71.228,17.863 69.903,16.458 67.897,16.450 ZM61.309,11.983 C59.209,12.666 57.391,12.117 55.635,10.776 C55.022,11.483 54.427,12.168 53.834,12.854 C52.122,14.836 50.408,16.817 48.704,18.807 C48.464,19.087 48.214,19.218 47.832,19.205 C46.976,19.174 46.118,19.195 45.223,19.195 C45.223,18.291 45.223,17.424 45.223,16.500 C45.742,16.500 46.244,16.530 46.739,16.487 C46.969,16.466 47.254,16.364 47.400,16.197 C49.504,13.802 51.594,11.393 53.668,8.971 C53.809,8.808 53.923,8.470 53.851,8.297 C52.505,5.055 54.529,1.751 57.183,0.529 C60.555,-1.022 63.898,1.066 65.152,3.821 C66.764,7.367 64.265,11.021 61.309,11.983 ZM59.537,2.670 C57.453,2.666 56.093,4.027 56.087,6.120 C56.082,8.241 57.444,9.618 59.547,9.616 C61.645,9.614 62.997,8.239 62.996,6.110 C62.995,4.028 61.633,2.674 59.537,2.670 ZM38.371,19.171 C38.371,18.295 38.371,17.440 38.371,16.541 C39.219,16.541 40.070,16.541 40.968,16.541 C40.968,17.398 40.968,18.264 40.968,19.171 C40.088,19.171 39.248,19.171 38.371,19.171 ZM38.346,6.521 C38.346,5.423 38.346,5.417 37.245,5.415 C35.004,5.413 32.763,5.424 30.522,5.407 C30.113,5.403 30.000,5.532 29.994,5.935 C29.970,7.549 29.910,9.163 29.867,10.778 C29.861,11.014 29.865,11.203 29.545,11.274 C26.248,12.002 23.066,13.025 20.282,15.102 C19.602,14.540 18.939,13.995 18.280,13.447 C17.518,12.811 16.754,12.178 16.001,11.531 C15.748,11.314 15.580,11.289 15.321,11.559 C13.469,13.481 11.602,15.390 9.727,17.290 C9.470,17.550 9.481,17.717 9.713,17.976 C10.778,19.165 11.813,20.379 12.888,21.557 C13.234,21.937 13.290,22.217 13.008,22.688 C11.847,24.631 10.809,26.640 10.092,28.797 C9.851,29.522 9.654,30.264 9.475,31.006 C9.377,31.410 9.223,31.590 8.766,31.583 C6.915,31.552 5.063,31.584 3.212,31.557 C2.732,31.549 2.617,31.709 2.620,32.170 C2.640,35.041 2.641,37.913 2.625,40.784 C2.623,41.198 2.752,41.316 3.150,41.312 C4.952,41.292 6.755,41.313 8.557,41.282 C9.047,41.274 9.240,41.395 9.355,41.914 C10.126,45.399 11.263,48.749 13.205,51.771 C13.435,52.129 13.389,52.348 13.140,52.657 C12.018,54.052 10.926,55.472 9.807,56.869 C9.579,57.154 9.566,57.340 9.833,57.611 C11.685,59.487 13.529,61.373 15.361,63.270 C15.655,63.574 15.854,63.521 16.127,63.259 C17.395,62.043 18.682,60.846 19.945,59.624 C20.215,59.363 20.414,59.327 20.738,59.535 C22.866,60.896 25.116,62.005 27.548,62.712 C28.355,62.947 29.174,63.138 30.035,63.361 C30.035,65.474 30.048,67.546 30.025,69.617 C30.020,70.082 30.141,70.232 30.619,70.228 C33.006,70.204 35.393,70.207 37.780,70.225 C38.230,70.229 38.358,70.089 38.353,69.641 C38.331,67.715 38.344,65.790 38.344,63.864 C38.344,63.705 38.344,63.546 38.344,63.354 C39.239,63.354 40.090,63.354 40.974,63.354 C40.974,66.527 40.974,69.682 40.974,72.861 C36.456,72.861 31.963,72.861 27.410,72.861 C27.401,72.685 27.386,72.514 27.386,72.343 C27.384,70.222 27.376,68.100 27.391,65.980 C27.394,65.581 27.304,65.389 26.875,65.267 C24.889,64.700 22.997,63.887 21.194,62.879 C20.786,62.650 20.545,62.707 20.226,63.015 C18.821,64.370 17.394,65.704 15.974,67.044 C15.881,67.132 15.777,67.207 15.634,67.326 C12.426,64.051 9.229,60.788 5.985,57.476 C6.324,57.037 6.656,56.603 6.993,56.173 C7.987,54.904 8.977,53.634 9.985,52.376 C10.186,52.125 10.209,51.932 10.054,51.643 C8.854,49.396 7.958,47.026 7.301,44.564 C7.184,44.123 6.991,43.948 6.503,43.956 C4.489,43.988 2.475,43.968 0.462,43.967 C0.319,43.967 0.176,43.967 -0.000,43.967 C-0.000,38.946 -0.000,33.962 -0.000,28.903 C0.205,28.903 0.408,28.903 0.611,28.903 C2.657,28.904 4.704,28.894 6.749,28.916 C7.141,28.920 7.332,28.801 7.447,28.426 C8.051,26.457 8.919,24.602 9.899,22.798 C10.062,22.499 10.020,22.323 9.803,22.081 C8.558,20.684 7.334,19.266 6.091,17.868 C5.882,17.632 5.822,17.482 6.074,17.226 C9.122,14.128 12.159,11.020 15.201,7.915 C15.279,7.836 15.372,7.771 15.486,7.676 C15.894,8.011 16.297,8.335 16.695,8.666 C17.794,9.583 18.898,10.494 19.987,11.423 C20.297,11.688 20.557,11.750 20.942,11.533 C22.747,10.517 24.681,9.813 26.671,9.268 C27.124,9.145 27.308,8.931 27.311,8.458 C27.322,6.761 27.365,5.064 27.396,3.367 C27.399,3.190 27.396,3.013 27.396,2.790 C31.944,2.790 36.446,2.790 40.978,2.790 C40.978,5.021 40.978,7.248 40.978,9.511 C40.108,9.511 39.257,9.511 38.346,9.511 C38.346,8.502 38.346,7.511 38.346,6.521 ZM38.378,35.808 C39.246,35.808 40.097,35.808 40.981,35.808 C40.981,36.687 40.981,37.543 40.981,38.434 C40.121,38.434 39.270,38.434 38.378,38.434 C38.378,37.579 38.378,36.724 38.378,35.808 ZM45.100,44.079 C45.100,44.957 45.100,45.799 45.100,46.686 C43.770,46.686 42.454,46.686 41.107,46.686 C41.107,45.820 41.107,44.965 41.107,44.079 C42.429,44.079 43.736,44.079 45.100,44.079 ZM45.216,35.813 C46.080,35.813 46.931,35.813 47.823,35.813 C47.823,36.678 47.823,37.532 47.823,38.443 C46.941,38.443 46.090,38.443 45.216,38.443 C45.216,37.558 45.216,36.701 45.216,35.813 ZM24.525,53.262 C20.240,50.649 17.190,47.006 15.769,42.133 C14.348,37.263 14.987,32.556 17.330,28.111 C20.193,22.681 24.578,19.031 30.448,17.241 C32.068,16.748 33.743,16.539 35.500,16.502 C35.500,17.418 35.500,18.276 35.500,19.135 C34.759,19.206 34.035,19.256 33.316,19.346 C29.820,19.783 26.746,21.196 24.077,23.485 C20.756,26.332 18.668,29.926 17.940,34.250 C16.744,41.351 19.938,47.892 26.223,51.356 C28.978,52.876 31.944,53.641 35.080,53.675 C38.506,53.714 41.933,53.691 45.360,53.680 C45.706,53.678 45.924,53.782 46.122,54.069 C48.635,57.715 51.163,61.350 53.672,64.999 C53.902,65.333 54.064,65.446 54.481,65.250 C57.919,63.637 61.452,65.939 62.572,68.933 C63.940,72.594 61.037,76.245 57.877,76.899 C55.116,77.470 52.010,75.562 51.018,72.729 C50.390,70.937 50.665,69.258 51.676,67.692 C51.906,67.335 51.911,67.097 51.663,66.741 C49.348,63.434 47.050,60.115 44.762,56.789 C44.539,56.464 44.298,56.364 43.920,56.366 C41.273,56.382 38.625,56.372 35.978,56.376 C31.879,56.382 28.037,55.402 24.525,53.262 ZM56.819,74.336 C58.887,74.335 60.256,72.952 60.257,70.865 C60.258,68.763 58.908,67.393 56.831,67.388 C54.711,67.384 53.353,68.734 53.347,70.855 C53.340,72.968 54.707,74.339 56.819,74.336 ZM61.842,55.788 C61.615,54.986 61.616,54.985 60.764,54.986 C59.530,54.986 58.296,54.979 57.063,54.996 C56.728,55.001 56.504,54.915 56.288,54.629 C54.383,52.113 52.454,49.614 50.549,47.098 C50.335,46.815 50.111,46.710 49.773,46.722 C49.178,46.741 48.581,46.727 47.960,46.727 C47.960,45.822 47.960,44.965 47.960,44.059 C49.113,44.059 50.259,44.048 51.405,44.073 C51.543,44.076 51.707,44.243 51.808,44.374 C53.677,46.816 55.548,49.256 57.390,51.719 C57.715,52.154 58.040,52.357 58.593,52.330 C59.581,52.283 60.573,52.306 61.563,52.323 C61.898,52.329 62.066,52.217 62.227,51.905 C63.395,49.633 65.203,48.248 67.802,48.203 C70.545,48.156 73.173,50.519 73.769,53.214 C74.398,56.059 72.284,59.225 69.535,60.187 C66.368,61.294 62.916,59.050 61.972,56.156 C61.932,56.032 61.878,55.913 61.842,55.788 ZM67.760,57.803 C69.864,57.804 71.220,56.458 71.219,54.369 C71.217,52.223 69.886,50.870 67.772,50.868 C65.648,50.867 64.321,52.206 64.320,54.354 C64.319,56.460 65.658,57.802 67.760,57.803 Z"/>
</g>
</svg>