<svg 
 xmlns="http://www.w3.org/2000/svg"
 xmlns:xlink="http://www.w3.org/1999/xlink"
 width="88px" height="83px">
<defs>
<linearGradient id="PSgrad_0" x1="0%" x2="100%" y1="0%" y2="0%">
  <stop offset="0%" stop-color="rgb(0,201,255)" stop-opacity="1" />
  <stop offset="100%" stop-color="rgb(146,254,157)" stop-opacity="1" />
</linearGradient>
<filter filterUnits="userSpaceOnUse" id="Filter_0" x="0px" y="0px" width="88px" height="83px"  >
    <feOffset in="SourceAlpha" dx="1" dy="1.732" />
    <feGaussianBlur result="blurOut" stdDeviation="1.414" />
    <feFlood flood-color="rgb(0, 0, 0)" result="floodOut" />
    <feComposite operator="atop" in="floodOut" in2="blurOut" />
    <feComponentTransfer><feFuncA type="linear" slope="0.4"/></feComponentTransfer>
    <feMerge>
    <feMergeNode/>
    <feMergeNode in="SourceGraphic"/>
  </feMerge>
</filter>

</defs>
<path fill-rule="evenodd"  fill="url(#PSgrad_0)"
 d="M65.500,7.999 C75.717,7.999 84.000,16.058 84.000,25.999 C84.000,35.940 75.717,43.999 65.500,43.999 C55.283,43.999 47.000,35.940 47.000,25.999 C47.000,16.058 55.283,7.999 65.500,7.999 Z"/>
<g filter="url(#Filter_0)">
<path fill-rule="evenodd"  fill="rgb(255, 255, 255)"
 d="M74.592,34.423 C69.725,37.141 64.598,37.679 59.230,36.160 C58.688,36.007 57.974,36.084 57.452,36.312 C55.135,37.323 52.768,38.090 50.230,38.247 C49.536,38.289 48.870,38.268 48.506,37.524 C48.133,36.760 48.617,36.295 49.052,35.754 C49.823,34.793 50.514,33.767 51.245,32.774 C51.683,32.178 51.530,31.772 51.010,31.248 C45.464,25.650 44.241,17.429 47.931,10.852 C51.231,4.971 57.815,1.276 64.948,1.299 C72.971,1.325 80.137,5.977 82.875,12.935 C85.987,20.843 82.465,30.026 74.592,34.423 ZM75.441,7.286 C69.279,2.621 60.192,2.689 54.118,7.501 C50.283,10.541 48.201,14.511 48.390,19.458 C48.555,23.798 50.351,27.459 53.619,30.326 C54.493,31.093 54.713,31.818 54.139,32.808 C53.715,33.536 53.306,34.273 52.713,35.321 C54.290,34.735 55.637,34.333 56.891,33.736 C57.754,33.325 58.487,33.265 59.403,33.551 C64.782,35.227 69.887,34.601 74.578,31.422 C83.384,25.457 83.790,13.609 75.441,7.286 ZM71.313,20.391 C70.518,20.422 70.108,19.925 69.994,19.146 C70.090,18.389 70.489,17.890 71.283,17.891 C72.018,17.892 72.486,18.349 72.521,19.075 C72.558,19.859 72.097,20.360 71.313,20.391 ZM64.885,20.395 C64.095,20.375 63.711,19.859 63.624,19.143 C63.759,18.323 64.193,17.841 64.980,17.894 C65.755,17.946 66.214,18.449 66.152,19.242 C66.096,19.971 65.617,20.413 64.885,20.395 ZM58.532,20.392 C57.799,20.391 57.326,19.937 57.293,19.209 C57.256,18.424 57.719,17.923 58.501,17.892 C59.292,17.861 59.709,18.355 59.820,19.133 C59.726,19.895 59.326,20.394 58.532,20.392 ZM44.569,8.092 C43.457,7.930 42.353,7.718 41.178,7.512 C39.085,3.328 33.855,2.177 29.807,2.679 C24.958,3.279 20.967,5.714 17.304,8.745 C15.516,10.225 13.882,11.891 12.063,13.581 C15.203,15.951 15.612,19.189 15.677,22.606 C15.711,24.388 15.989,26.166 16.157,27.946 C16.261,27.947 16.365,27.948 16.468,27.949 C16.519,27.537 16.556,27.123 16.621,26.713 C17.449,21.535 20.842,18.667 25.548,17.283 C27.712,16.646 30.073,16.681 32.343,16.397 C35.614,15.988 38.687,15.078 41.330,12.973 C41.649,12.719 42.294,12.876 42.746,12.844 C42.838,14.955 41.834,15.989 40.219,16.760 C36.832,18.375 33.276,19.091 29.557,19.140 C26.805,19.175 24.362,20.091 22.228,21.799 C20.148,23.463 19.043,25.629 19.079,28.336 C19.096,29.572 19.082,30.809 19.082,32.232 C18.218,31.747 17.483,31.294 16.711,30.920 C16.439,30.788 15.939,30.703 15.783,30.851 C15.518,31.102 15.266,31.584 15.323,31.916 C15.512,33.027 15.801,34.126 16.144,35.201 C16.218,35.433 16.663,35.655 16.958,35.688 C17.614,35.760 18.285,35.710 18.933,35.710 C19.149,37.116 19.214,38.473 19.576,39.745 C21.075,45.001 24.476,48.369 29.783,49.780 C30.413,49.947 31.026,50.230 31.599,50.547 C32.625,51.114 33.596,51.109 34.609,50.520 C35.083,50.244 35.599,49.997 36.127,49.866 C40.761,48.718 44.048,45.976 45.983,41.608 C46.054,41.447 46.116,41.282 46.191,41.122 C46.220,41.060 46.272,41.008 46.311,40.955 C47.026,41.311 47.739,41.668 48.530,42.063 C47.611,44.567 46.144,46.740 44.111,48.500 C43.487,49.039 43.322,49.589 43.231,50.376 C43.017,52.242 43.627,53.534 45.149,54.674 C46.512,55.695 47.847,56.666 49.416,57.366 C53.937,59.385 58.382,61.572 62.187,64.814 C63.225,65.699 64.134,66.765 64.974,67.848 C65.836,68.960 66.200,70.290 66.187,71.723 C66.164,74.123 66.180,76.523 66.180,78.999 C44.048,78.999 22.072,78.999 0.029,78.999 C0.029,76.201 -0.059,73.447 0.062,70.703 C0.133,69.103 1.063,67.784 2.119,66.603 C4.566,63.868 7.650,62.000 10.824,60.277 C12.716,59.251 14.615,58.185 16.624,57.443 C19.011,56.562 20.696,54.816 22.552,53.258 C22.755,53.088 22.865,52.722 22.888,52.437 C23.037,50.586 22.870,49.039 21.207,47.593 C18.494,45.232 17.202,41.927 16.667,38.317 C14.667,38.014 13.653,36.815 13.421,34.842 C13.335,34.113 13.070,33.402 12.870,32.688 C12.542,31.516 12.776,30.471 13.463,29.470 C13.673,29.163 13.762,28.695 13.730,28.315 C13.545,26.098 13.317,23.885 13.084,21.673 C12.981,20.691 12.944,19.683 12.686,18.740 C12.166,16.845 11.016,15.491 9.005,15.031 C8.737,14.970 8.482,14.854 8.063,14.709 C8.581,14.043 9.024,13.424 9.517,12.848 C13.829,7.819 18.719,3.544 25.040,1.217 C29.117,-0.285 33.247,-0.473 37.373,1.073 C39.261,1.780 40.843,2.927 42.197,4.432 C42.557,4.834 43.139,5.091 43.667,5.270 C44.558,5.573 45.488,5.761 46.549,6.035 C46.063,6.754 45.704,7.349 45.271,7.886 C45.142,8.045 44.795,8.125 44.569,8.092 ZM44.674,57.598 C44.020,56.984 43.322,56.417 42.639,55.834 C42.745,56.009 42.851,56.184 42.957,56.358 C41.285,57.963 39.613,59.569 37.918,61.196 C39.265,62.096 40.889,63.180 42.620,64.337 C43.379,62.209 44.096,60.225 44.784,58.231 C44.847,58.048 44.802,57.718 44.674,57.598 ZM34.814,67.595 C35.032,69.312 35.093,71.050 35.232,72.778 C35.330,74.002 35.444,75.225 35.547,76.415 C44.973,76.415 54.284,76.415 63.635,76.415 C63.635,75.200 63.539,74.058 63.655,72.939 C63.894,70.636 62.960,68.887 61.302,67.427 C60.692,66.890 60.092,66.335 59.442,65.852 C55.762,63.110 51.652,61.146 47.486,59.291 C47.403,59.254 47.289,59.286 47.143,59.286 C46.069,62.258 44.998,65.223 43.904,68.251 C41.124,66.402 38.484,64.644 35.823,62.873 C34.902,64.387 34.601,65.911 34.814,67.595 ZM35.469,59.111 C36.875,58.069 38.120,56.811 39.461,55.676 C40.965,54.403 40.831,52.748 40.642,50.949 C38.852,51.649 37.110,52.276 35.414,53.011 C33.937,53.650 32.499,53.730 31.008,53.122 C29.226,52.395 27.435,51.690 25.333,50.849 C25.463,52.180 25.230,53.484 25.745,54.337 C26.951,56.334 28.667,57.943 30.709,59.162 C32.328,60.130 33.961,60.228 35.469,59.111 ZM10.935,63.172 C8.646,64.538 6.491,66.175 4.463,67.911 C3.587,68.660 2.834,69.899 2.639,71.022 C2.336,72.765 2.559,74.598 2.559,76.438 C11.992,76.438 21.274,76.438 30.583,76.438 C30.631,76.215 30.688,76.046 30.701,75.875 C30.936,72.736 31.238,69.598 31.358,66.455 C31.399,65.394 30.976,64.316 30.726,63.047 C27.945,64.895 25.464,66.541 22.896,68.248 C21.744,65.061 20.637,62.000 19.475,58.786 C16.508,60.290 13.624,61.567 10.935,63.172 ZM22.100,57.057 C21.938,57.222 21.792,57.574 21.857,57.765 C22.598,59.927 23.381,62.074 24.191,64.332 C25.820,63.244 27.335,62.233 28.318,61.577 C26.645,59.821 24.951,58.044 23.258,56.267 C23.323,56.139 23.387,56.012 23.452,55.885 C22.997,56.271 22.517,56.632 22.100,57.057 ZM21.605,73.953 C20.846,73.846 20.360,73.430 20.379,72.638 C20.397,71.906 20.856,71.441 21.586,71.424 C22.368,71.406 22.861,71.873 22.876,72.660 C22.892,73.460 22.379,73.851 21.605,73.953 ZM16.515,73.953 C15.755,73.846 15.269,73.432 15.288,72.640 C15.305,71.907 15.763,71.441 16.493,71.424 C17.275,71.406 17.768,71.872 17.784,72.659 C17.801,73.458 17.289,73.850 16.515,73.953 ZM11.423,73.953 C10.663,73.846 10.178,73.432 10.196,72.640 C10.213,71.907 10.671,71.441 11.401,71.424 C12.183,71.406 12.676,71.872 12.693,72.659 C12.709,73.458 12.197,73.850 11.423,73.953 ZM6.315,73.959 C5.528,73.812 5.051,73.379 5.105,72.589 C5.155,71.864 5.625,71.408 6.360,71.423 C7.143,71.440 7.617,71.924 7.602,72.710 C7.587,73.510 7.046,73.870 6.315,73.959 ZM26.624,71.426 C27.407,71.371 27.915,71.824 27.966,72.607 C28.019,73.406 27.519,73.816 26.754,73.952 C25.985,73.881 25.489,73.482 25.471,72.691 C25.454,71.956 25.901,71.476 26.624,71.426 ZM39.594,71.431 C40.313,71.513 40.747,72.007 40.697,72.742 C40.644,73.524 40.137,73.913 39.363,73.948 C38.602,73.783 38.119,73.352 38.206,72.556 C38.291,71.780 38.811,71.341 39.594,71.431 ZM44.713,71.434 C45.428,71.533 45.854,72.034 45.788,72.769 C45.717,73.548 45.204,73.930 44.426,73.946 C43.670,73.765 43.196,73.324 43.301,72.529 C43.403,71.758 43.930,71.325 44.713,71.434 ZM49.811,71.434 C50.525,71.538 50.946,72.039 50.880,72.776 C50.809,73.565 50.268,73.908 49.572,73.960 C48.756,73.760 48.284,73.317 48.393,72.522 C48.499,71.752 49.028,71.322 49.811,71.434 ZM54.732,71.393 C55.497,71.508 55.991,71.916 55.973,72.710 C55.956,73.440 55.501,73.909 54.769,73.925 C53.990,73.941 53.489,73.485 53.476,72.692 C53.462,71.897 53.968,71.498 54.732,71.393 ZM59.975,71.432 C60.693,71.524 61.119,72.022 61.065,72.757 C61.007,73.548 60.468,73.895 59.775,73.961 C58.956,73.773 58.478,73.337 58.575,72.541 C58.669,71.768 59.193,71.333 59.975,71.432 Z"/>
</g>
</svg>