<svg 
 xmlns="http://www.w3.org/2000/svg"
 xmlns:xlink="http://www.w3.org/1999/xlink"
 width="80px" height="81px">
<defs>
<linearGradient id="PSgrad_0" x1="0%" x2="100%" y1="0%" y2="0%">
  <stop offset="0%" stop-color="rgb(0,201,255)" stop-opacity="1" />
  <stop offset="100%" stop-color="rgb(146,254,157)" stop-opacity="1" />
</linearGradient>
<filter filterUnits="userSpaceOnUse" id="Filter_0" x="0px" y="0px" width="80px" height="81px"  >
    <feOffset in="SourceAlpha" dx="1" dy="1.732" />
    <feGaussianBlur result="blurOut" stdDeviation="1.414" />
    <feFlood flood-color="rgb(0, 0, 0)" result="floodOut" />
    <feComposite operator="atop" in="floodOut" in2="blurOut" />
    <feComponentTransfer><feFuncA type="linear" slope="0.4"/></feComponentTransfer>
    <feMerge>
    <feMergeNode/>
    <feMergeNode in="SourceGraphic"/>
  </feMerge>
</filter>

</defs>
<path fill-rule="evenodd"  fill="url(#PSgrad_0)"
 d="M28.000,22.999 L33.000,22.999 L33.000,28.999 L36.000,29.999 L41.000,25.999 L49.000,33.999 L44.000,38.999 L46.000,41.999 L52.000,41.999 L52.000,53.999 L46.000,53.999 L45.000,55.999 L48.000,59.999 L41.000,69.999 L36.000,65.999 L33.000,66.999 L33.000,71.999 L27.000,71.999 L27.000,57.999 C27.000,57.999 37.250,57.374 37.000,46.999 C36.750,38.624 28.000,37.999 28.000,37.999 L28.000,22.999 Z"/>
<g filter="url(#Filter_0)">
<path fill-rule="evenodd"  fill="rgb(255, 255, 255)"
 d="M76.080,76.999 C55.445,76.999 34.809,76.999 14.173,76.999 C13.848,76.999 13.521,76.995 13.196,76.984 C7.644,76.781 2.775,73.273 0.877,68.051 C0.497,67.006 0.288,65.897 0.000,64.817 C0.000,47.272 0.000,29.726 0.000,12.180 C0.049,12.045 0.120,11.914 0.144,11.774 C1.051,6.422 4.047,2.760 9.103,0.814 C10.090,0.435 11.157,0.265 12.188,-0.001 C13.141,-0.001 14.093,-0.001 15.046,-0.001 C15.212,0.048 15.373,0.116 15.542,0.141 C19.438,0.724 22.531,2.625 24.827,5.813 C26.232,7.764 26.999,9.968 27.278,12.437 C43.864,12.437 60.421,12.437 77.000,12.437 C77.000,33.999 77.000,55.463 77.000,76.999 C76.669,76.999 76.374,76.999 76.080,76.999 ZM13.704,74.498 C19.901,74.463 24.865,69.462 24.837,63.283 C24.808,57.111 19.776,52.138 13.597,52.174 C7.452,52.211 2.480,57.220 2.501,63.353 C2.523,69.543 7.539,74.535 13.704,74.498 ZM24.840,54.576 C24.840,41.046 24.842,27.516 24.834,13.987 C24.833,13.289 24.781,12.586 24.684,11.894 C23.847,5.930 17.863,1.585 11.944,2.631 C6.305,3.626 2.524,8.035 2.506,13.843 C2.465,27.448 2.492,41.052 2.495,54.658 C2.495,54.857 2.535,55.055 2.568,55.367 C8.019,48.011 19.049,47.679 24.840,55.431 C24.840,55.015 24.840,54.795 24.840,54.576 ZM28.073,32.469 C33.712,33.305 38.205,38.255 38.495,43.955 C38.825,50.438 34.341,55.972 27.929,56.975 C27.556,57.033 27.350,57.096 27.342,57.543 C27.284,60.706 27.617,63.888 26.827,67.025 C27.856,67.025 28.798,67.025 29.804,67.025 C29.804,65.238 29.804,63.492 29.804,61.864 C31.765,61.055 33.630,60.285 35.779,59.398 C36.906,60.532 38.134,61.769 39.234,62.876 C40.922,61.184 42.645,59.456 44.464,57.633 C43.302,56.487 42.057,55.259 40.902,54.119 C41.687,52.221 42.457,50.358 43.265,48.403 C44.916,48.403 46.660,48.403 48.414,48.403 C48.414,45.913 48.414,43.492 48.414,40.990 C48.107,40.990 47.838,40.990 47.568,40.990 C46.265,40.990 44.960,41.009 43.657,40.971 C43.433,40.965 43.093,40.767 43.014,40.574 C42.297,38.821 41.626,37.051 40.863,35.081 C41.970,33.989 43.227,32.749 44.361,31.629 C42.608,29.880 40.877,28.152 39.055,26.334 C37.902,27.515 36.679,28.768 35.581,29.893 C33.748,29.183 31.999,28.520 30.267,27.814 C30.065,27.731 29.885,27.429 29.828,27.196 C29.752,26.889 29.809,26.549 29.809,26.223 C29.809,24.955 29.809,23.687 29.809,22.422 C28.937,22.422 28.174,22.422 27.388,22.422 C27.388,25.751 27.388,29.025 27.388,32.325 C27.636,32.378 27.853,32.436 28.073,32.469 ZM27.399,34.919 C27.399,41.485 27.399,47.987 27.399,54.492 C32.141,54.120 36.049,49.643 36.018,44.670 C35.987,39.706 32.075,35.257 27.399,34.919 ZM74.509,14.939 C58.807,14.939 43.146,14.939 27.407,14.939 C27.407,16.592 27.407,18.202 27.407,19.881 C29.056,19.881 30.649,19.881 32.321,19.881 C32.321,21.497 32.321,23.044 32.321,24.592 C32.321,25.843 32.323,25.838 33.448,26.277 C33.844,26.431 34.217,26.661 34.624,26.762 C34.856,26.820 35.218,26.775 35.379,26.624 C36.276,25.786 37.144,24.917 37.991,24.027 C38.399,23.598 38.737,23.102 39.072,22.680 C42.176,25.782 45.063,28.667 47.998,31.599 C47.107,32.490 46.261,33.497 45.251,34.303 C44.089,35.230 43.777,36.103 44.529,37.498 C44.936,38.254 45.259,38.618 46.106,38.511 C46.624,38.446 47.158,38.499 47.684,38.499 C48.752,38.499 49.821,38.499 50.877,38.499 C50.917,38.664 50.948,38.735 50.949,38.806 C50.953,42.666 50.949,46.525 50.963,50.384 C50.964,50.821 50.792,50.942 50.383,50.936 C49.054,50.920 47.725,50.930 46.396,50.931 C45.006,50.931 45.007,50.931 44.470,52.252 C44.376,52.483 44.295,52.728 44.159,52.934 C43.828,53.435 43.909,53.789 44.361,54.214 C45.614,55.392 46.809,56.632 47.946,57.766 C44.987,60.723 42.088,63.621 39.155,66.553 C38.116,65.514 37.020,64.418 35.923,63.322 C35.051,62.450 35.091,62.599 33.928,62.910 C32.504,63.290 32.162,64.071 32.293,65.429 C32.421,66.762 32.321,68.117 32.321,69.538 C31.950,69.538 31.678,69.538 31.407,69.538 C29.802,69.538 28.197,69.569 26.593,69.522 C26.003,69.505 25.724,69.742 25.412,70.205 C24.771,71.155 24.061,72.065 23.314,72.935 C22.855,73.470 22.276,73.902 21.665,74.458 C39.349,74.458 56.907,74.458 74.509,74.458 C74.509,54.599 74.509,34.790 74.509,14.939 ZM55.959,17.412 C57.663,17.430 59.091,18.554 59.521,20.214 C59.932,21.802 59.233,23.514 57.741,24.307 C57.244,24.571 57.157,24.868 57.158,25.357 C57.171,30.267 57.166,35.177 57.166,40.087 C57.166,40.357 57.166,40.627 57.166,40.937 C56.309,40.937 55.523,40.937 54.658,40.937 C54.658,40.590 54.658,40.296 54.658,40.001 C54.658,35.117 54.652,30.231 54.666,25.346 C54.668,24.849 54.557,24.560 54.072,24.298 C52.578,23.489 51.893,21.794 52.320,20.203 C52.776,18.499 54.218,17.393 55.959,17.412 ZM55.866,22.336 C56.520,22.365 57.131,21.798 57.151,21.143 C57.170,20.501 56.573,19.884 55.926,19.876 C55.276,19.869 54.680,20.465 54.684,21.119 C54.687,21.751 55.228,22.308 55.866,22.336 ZM72.033,71.977 C65.456,71.977 58.879,71.977 52.230,71.977 C52.230,67.030 52.230,62.128 52.230,57.180 C58.840,57.180 65.418,57.180 72.033,57.180 C72.033,62.116 72.033,67.018 72.033,71.977 ZM63.405,69.491 C65.461,69.491 67.472,69.491 69.508,69.491 C69.508,67.841 69.508,66.237 69.508,64.627 C67.431,64.627 65.419,64.627 63.405,64.627 C63.405,66.276 63.405,67.865 63.405,69.491 ZM54.695,69.480 C56.797,69.480 58.811,69.480 60.849,69.480 C60.849,67.834 60.849,66.247 60.849,64.640 C58.767,64.640 56.736,64.640 54.695,64.640 C54.695,66.282 54.695,67.851 54.695,69.480 ZM69.518,59.660 C64.550,59.660 59.638,59.660 54.698,59.660 C54.698,60.485 54.698,61.249 54.698,62.064 C59.688,62.064 64.584,62.064 69.518,62.064 C69.518,61.241 69.518,60.460 69.518,59.660 ZM67.148,40.946 C67.148,40.135 67.148,39.353 67.148,38.535 C67.941,38.535 68.703,38.535 69.520,38.535 C69.520,39.339 69.520,40.120 69.520,40.946 C68.721,40.946 67.957,40.946 67.148,40.946 ZM70.111,24.344 C69.693,24.571 69.561,24.816 69.564,25.272 C69.582,28.505 69.573,31.738 69.573,34.971 C69.573,35.270 69.573,35.569 69.573,35.965 C68.712,35.965 67.949,35.965 67.102,35.965 C67.102,35.663 67.102,35.393 67.102,35.124 C67.102,31.841 67.094,28.558 67.112,25.274 C67.114,24.824 67.002,24.575 66.576,24.346 C65.011,23.506 64.300,21.798 64.756,20.139 C65.199,18.524 66.623,17.428 68.300,17.412 C70.004,17.396 71.476,18.503 71.922,20.137 C72.380,21.815 71.688,23.486 70.111,24.344 ZM68.343,19.878 C67.693,19.876 67.103,20.473 67.111,21.126 C67.120,21.789 67.712,22.359 68.373,22.339 C69.020,22.321 69.542,21.787 69.551,21.134 C69.561,20.449 69.013,19.880 68.343,19.878 ZM65.714,44.448 C65.279,46.023 63.795,47.171 62.162,47.195 C60.519,47.219 58.984,46.051 58.543,44.441 C58.088,42.780 58.791,41.058 60.357,40.236 C60.834,39.985 60.906,39.698 60.905,39.241 C60.895,34.355 60.898,29.470 60.899,24.584 C60.899,24.288 60.899,23.992 60.899,23.627 C61.763,23.627 62.509,23.627 63.359,23.627 C63.359,23.938 63.359,24.228 63.359,24.518 C63.359,29.429 63.364,34.339 63.353,39.249 C63.352,39.707 63.425,39.990 63.901,40.238 C65.454,41.047 66.169,42.801 65.714,44.448 ZM62.107,42.252 C61.444,42.262 60.933,42.768 60.918,43.432 C60.901,44.132 61.418,44.672 62.111,44.679 C62.808,44.687 63.348,44.156 63.347,43.465 C63.346,42.782 62.793,42.240 62.107,42.252 ZM5.034,44.733 C5.817,44.733 6.582,44.733 7.426,44.733 C7.426,45.575 7.426,46.339 7.426,47.154 C6.625,47.154 5.863,47.154 5.034,47.154 C5.034,46.374 5.034,45.573 5.034,44.733 ZM5.022,14.934 C5.812,14.934 6.580,14.934 7.407,14.934 C7.407,24.012 7.407,33.084 7.407,42.196 C6.606,42.196 5.841,42.196 5.022,42.196 C5.022,33.112 5.022,24.042 5.022,14.934 ZM9.942,63.341 C9.940,61.315 11.659,59.603 13.683,59.617 C15.699,59.630 17.351,61.271 17.390,63.297 C17.429,65.309 15.721,67.047 13.690,67.061 C11.667,67.077 9.944,65.367 9.942,63.341 ZM14.894,63.376 C14.915,62.741 14.402,62.170 13.764,62.118 C13.084,62.062 12.499,62.575 12.462,63.261 C12.424,63.962 12.922,64.519 13.611,64.546 C14.307,64.572 14.871,64.059 14.894,63.376 ZM19.092,56.554 C22.514,59.252 23.419,64.479 20.990,67.887 C20.301,67.458 19.647,67.052 18.954,66.620 C19.956,64.850 20.148,63.042 19.462,61.171 C18.980,59.856 18.136,58.811 16.943,58.091 C14.338,56.516 11.001,56.978 9.121,59.138 C6.970,61.608 6.913,64.878 8.977,67.363 C11.089,69.907 14.116,70.170 17.766,68.082 C18.271,68.668 18.785,69.265 19.297,69.859 C16.180,72.850 10.922,72.711 7.657,69.600 C4.333,66.432 4.066,61.143 7.058,57.702 C10.169,54.123 15.377,53.626 19.092,56.554 Z"/>
</g>
</svg>