<svg 
 xmlns="http://www.w3.org/2000/svg"
 xmlns:xlink="http://www.w3.org/1999/xlink"
 width="76px" height="77px">
<defs>
<linearGradient id="PSgrad_0" x1="0%" x2="0%" y1="100%" y2="0%">
  <stop offset="0%" stop-color="rgb(0,201,255)" stop-opacity="1" />
  <stop offset="100%" stop-color="rgb(146,254,157)" stop-opacity="1" />
</linearGradient>
<filter filterUnits="userSpaceOnUse" id="Filter_0" x="0px" y="0px" width="76px" height="77px"  >
    <feOffset in="SourceAlpha" dx="1" dy="1.732" />
    <feGaussianBlur result="blurOut" stdDeviation="1.414" />
    <feFlood flood-color="rgb(0, 0, 0)" result="floodOut" />
    <feComposite operator="atop" in="floodOut" in2="blurOut" />
    <feComponentTransfer><feFuncA type="linear" slope="0.4"/></feComponentTransfer>
    <feMerge>
    <feMergeNode/>
    <feMergeNode in="SourceGraphic"/>
  </feMerge>
</filter>

</defs>
<path fill-rule="evenodd"  fill="url(#PSgrad_0)"
 d="M46.000,9.999 C46.000,9.999 28.000,6.166 21.000,26.999 C20.333,44.832 30.000,48.999 30.000,48.999 C30.000,48.999 34.000,50.499 34.000,56.999 C34.000,63.500 38.667,63.833 41.000,63.999 C43.333,64.166 50.000,62.999 50.000,62.999 C50.000,62.999 51.333,60.832 51.000,56.000 C50.667,51.166 56.000,47.999 56.000,47.999 C56.000,47.999 68.000,40.166 62.000,22.999 C58.333,11.832 46.000,9.999 46.000,9.999 Z"/>
<g filter="url(#Filter_0)">
<path fill-rule="evenodd"  fill="rgb(255, 255, 255)"
 d="M37.863,56.894 C37.865,57.137 37.767,57.233 37.528,57.231 C36.948,57.224 36.368,57.221 35.788,57.232 C35.534,57.237 35.462,57.119 35.466,56.887 C35.474,56.389 35.468,55.890 35.468,55.391 C35.468,54.919 35.479,54.447 35.464,53.976 C35.456,53.726 35.516,53.605 35.797,53.613 C36.376,53.630 36.956,53.625 37.536,53.614 C37.777,53.610 37.868,53.692 37.865,53.942 C37.854,54.925 37.856,55.910 37.863,56.894 ZM30.649,41.408 C31.767,41.946 32.937,42.375 33.919,43.164 C36.365,45.127 37.680,47.667 37.845,50.804 C37.860,51.090 37.781,51.189 37.494,51.180 C36.953,51.163 36.412,51.159 35.872,51.181 C35.558,51.194 35.458,51.090 35.438,50.774 C35.288,48.450 34.322,46.521 32.473,45.108 C31.766,44.567 30.934,44.163 30.111,43.804 C25.562,41.818 22.412,38.513 20.697,33.864 C19.650,31.026 19.411,28.093 19.985,25.123 C20.909,20.353 23.398,16.607 27.474,13.935 C27.506,13.914 27.546,13.904 27.626,13.870 C28.039,14.526 28.451,15.180 28.849,15.812 C28.105,16.418 27.362,16.942 26.713,17.564 C23.422,20.723 21.789,24.610 22.153,29.152 C22.608,34.819 25.509,38.933 30.649,41.408 ZM72.734,22.220 C72.475,23.998 72.233,25.779 71.979,27.557 C71.850,28.455 71.285,28.852 70.377,28.718 C68.947,28.506 67.515,28.309 66.085,28.096 C65.484,28.006 64.974,28.127 64.654,28.681 C64.343,29.220 64.484,29.707 64.846,30.180 C65.691,31.285 66.517,32.405 67.354,33.517 C68.065,34.463 67.984,35.033 67.047,35.734 C65.272,37.061 63.502,38.393 61.728,39.720 C60.921,40.324 60.294,40.224 59.688,39.412 C58.823,38.253 57.951,37.100 57.088,35.940 C56.740,35.473 56.289,35.236 55.717,35.378 C55.161,35.516 54.867,35.928 54.786,36.485 C54.579,37.902 54.364,39.318 54.185,40.739 C54.048,41.817 53.593,42.215 52.500,42.063 C50.198,41.746 47.899,41.411 45.600,41.071 C44.893,40.967 44.482,40.418 44.577,39.715 C44.761,38.350 44.961,36.986 45.154,35.622 C45.182,35.422 45.204,35.220 45.224,35.018 C45.277,34.484 45.095,34.051 44.619,33.789 C44.149,33.530 43.682,33.578 43.250,33.902 C42.201,34.686 41.152,35.472 40.103,36.258 C39.930,36.387 39.759,36.519 39.582,36.643 C38.888,37.134 38.262,37.067 37.743,36.385 C36.304,34.493 34.878,32.589 33.463,30.678 C32.998,30.050 33.141,29.398 33.821,28.883 C34.984,28.003 36.147,27.121 37.324,26.259 C37.823,25.893 38.082,25.438 37.924,24.832 C37.769,24.235 37.314,23.994 36.723,23.914 C35.225,23.711 33.728,23.493 32.234,23.255 C31.518,23.141 31.140,22.660 31.218,21.936 C31.344,20.782 31.519,19.632 31.682,18.482 C31.854,17.265 32.038,16.050 32.217,14.833 C32.335,14.030 32.851,13.606 33.657,13.712 C35.117,13.903 36.574,14.116 38.029,14.337 C38.727,14.443 39.207,14.281 39.512,13.782 C39.800,13.312 39.735,12.815 39.311,12.249 C38.476,11.136 37.625,10.034 36.816,8.903 C36.562,8.547 36.421,8.109 36.228,7.710 C36.264,7.686 36.300,7.661 36.336,7.636 C36.274,7.621 36.212,7.588 36.152,7.590 C30.717,7.742 26.017,9.674 22.109,13.459 C19.389,16.095 17.559,19.274 16.592,22.934 C15.858,25.713 15.737,28.532 16.196,31.374 C16.801,35.115 18.322,38.436 20.747,41.345 C22.108,42.977 23.703,44.345 25.492,45.487 C27.378,46.690 28.630,48.359 29.139,50.542 C29.291,51.192 29.347,51.876 29.361,52.547 C29.393,54.061 29.368,55.575 29.372,57.089 C29.376,58.628 30.388,59.668 31.933,59.675 C35.083,59.690 38.233,59.689 41.382,59.676 C42.928,59.671 43.927,58.643 43.934,57.089 C43.940,55.642 43.930,54.196 43.936,52.749 C43.949,49.653 45.236,47.240 47.802,45.495 C48.594,44.957 49.348,44.360 50.103,43.770 C50.314,43.605 50.435,43.567 50.626,43.796 C51.049,44.301 51.501,44.783 51.971,45.306 C51.808,45.458 51.684,45.597 51.537,45.707 C50.739,46.307 49.954,46.929 49.130,47.491 C47.281,48.754 46.335,50.480 46.335,52.721 C46.335,54.140 46.327,55.560 46.336,56.979 C46.347,58.786 45.643,60.219 44.159,61.271 C44.020,61.370 43.923,61.624 43.921,61.806 C43.904,63.956 43.928,66.106 43.902,68.255 C43.875,70.370 42.450,72.195 40.420,72.784 C40.193,72.850 39.970,72.927 39.744,72.999 C37.690,72.999 35.635,72.999 33.580,72.999 C33.354,72.928 33.129,72.854 32.902,72.788 C30.806,72.176 29.410,70.309 29.395,68.059 C29.382,65.964 29.397,63.869 29.382,61.774 C29.380,61.604 29.289,61.367 29.159,61.275 C27.665,60.211 26.964,58.758 26.968,56.942 C26.970,56.064 26.971,55.186 26.970,54.307 C26.969,54.170 26.952,54.033 26.937,53.806 C26.321,54.425 25.783,54.971 25.238,55.511 C24.613,56.130 24.076,56.176 23.363,55.683 C22.608,55.160 21.853,54.638 21.096,54.118 C20.822,53.930 20.544,53.748 20.224,53.534 C20.171,53.692 20.128,53.786 20.107,53.885 C19.862,55.048 19.620,56.212 19.376,57.374 C19.235,58.042 18.798,58.438 18.142,58.442 C16.547,58.453 14.952,58.452 13.357,58.441 C12.741,58.438 12.295,58.078 12.160,57.486 C11.988,56.736 11.845,55.979 11.685,55.227 C11.569,54.680 11.447,54.135 11.311,53.515 C11.093,53.657 10.948,53.747 10.808,53.843 C9.895,54.470 8.988,55.104 8.070,55.725 C7.417,56.166 6.879,56.117 6.324,55.566 C5.174,54.423 4.027,53.277 2.886,52.125 C2.335,51.569 2.293,51.025 2.735,50.379 C3.277,49.589 3.826,48.801 4.368,48.011 C4.548,47.750 4.720,47.482 4.910,47.195 C4.787,47.136 4.721,47.086 4.648,47.070 C3.710,46.871 2.774,46.660 1.832,46.488 C1.107,46.355 0.396,46.232 -0.000,45.502 C-0.000,43.637 -0.000,41.771 -0.000,39.906 C0.266,39.554 0.515,39.189 0.997,39.095 C1.753,38.948 2.505,38.787 3.258,38.628 C3.792,38.515 4.325,38.396 4.931,38.264 C4.794,38.053 4.704,37.908 4.608,37.768 C3.981,36.854 3.351,35.943 2.725,35.029 C2.284,34.385 2.325,33.838 2.876,33.282 C4.009,32.141 5.146,31.003 6.288,29.872 C6.899,29.268 7.409,29.237 8.129,29.733 C9.063,30.377 9.996,31.022 10.932,31.663 C11.036,31.734 11.152,31.787 11.288,31.863 C11.337,31.722 11.376,31.637 11.395,31.548 C11.643,30.373 11.889,29.197 12.135,28.021 C12.268,27.384 12.688,27.015 13.341,26.962 C13.446,26.953 13.551,26.942 13.672,26.930 C13.688,26.806 13.708,26.701 13.714,26.596 C13.833,24.754 14.153,22.945 14.736,21.196 C16.845,14.865 20.900,10.225 26.922,7.331 C28.992,6.337 31.178,5.708 33.456,5.396 C35.151,5.163 36.848,5.121 38.550,5.280 C38.864,5.309 39.117,5.239 39.372,5.041 C40.399,4.249 41.439,3.475 42.481,2.703 C43.257,2.128 43.881,2.227 44.462,3.001 C45.354,4.189 46.242,5.380 47.139,6.565 C47.456,6.984 47.879,7.215 48.410,7.082 C48.955,6.945 49.285,6.583 49.368,6.006 C49.586,4.482 49.812,2.959 50.036,1.436 C50.150,0.659 50.728,0.236 51.505,0.347 C53.764,0.670 56.024,0.992 58.284,1.309 C59.305,1.452 59.714,1.954 59.577,2.967 C59.384,4.386 59.186,5.804 58.962,7.219 C58.868,7.813 58.992,8.296 59.500,8.635 C59.978,8.954 60.466,8.893 61.032,8.469 C62.178,7.610 63.324,6.751 64.468,5.890 C65.270,5.286 65.914,5.362 66.517,6.160 C67.851,7.929 69.181,9.702 70.504,11.479 C71.221,12.441 71.137,12.975 70.185,13.691 C69.029,14.560 67.870,15.422 66.720,16.298 C66.301,16.617 66.100,17.045 66.237,17.580 C66.382,18.144 66.777,18.438 67.333,18.520 C68.455,18.684 69.583,18.813 70.702,18.998 C71.551,19.139 72.537,19.019 73.000,20.034 C73.000,20.305 73.000,20.575 73.000,20.845 C72.910,21.303 72.801,21.758 72.734,22.220 ZM31.800,68.231 C31.849,69.511 32.904,70.560 34.186,70.572 C35.834,70.588 37.482,70.592 39.129,70.570 C40.069,70.558 40.811,70.114 41.208,69.266 C41.411,68.833 41.475,68.312 41.500,67.825 C41.545,66.918 41.514,66.917 40.625,66.917 C39.301,66.917 37.977,66.917 36.654,66.917 C36.654,66.917 36.654,66.916 36.654,66.915 C35.182,66.915 33.710,66.922 32.238,66.910 C31.918,66.908 31.758,66.988 31.790,67.340 C31.816,67.635 31.789,67.934 31.800,68.231 ZM32.219,64.533 C33.704,64.518 35.190,64.526 36.675,64.526 C36.675,64.527 36.675,64.527 36.675,64.527 C38.161,64.527 39.646,64.523 41.131,64.532 C41.403,64.534 41.526,64.464 41.517,64.170 C41.500,63.590 41.504,63.009 41.515,62.428 C41.520,62.177 41.448,62.066 41.172,62.067 C38.174,62.073 35.176,62.073 32.178,62.064 C31.870,62.063 31.781,62.178 31.790,62.470 C31.808,63.011 31.813,63.551 31.789,64.090 C31.774,64.423 31.878,64.537 32.219,64.533 ZM13.862,31.548 C13.792,31.839 13.737,32.030 13.699,32.225 C13.337,34.106 11.439,34.900 9.848,33.829 C9.143,33.354 8.440,32.874 7.750,32.377 C7.511,32.205 7.355,32.181 7.134,32.415 C6.597,32.985 6.042,33.540 5.470,34.074 C5.223,34.306 5.248,34.476 5.426,34.726 C5.957,35.475 6.498,36.220 6.980,37.001 C7.873,38.450 7.054,40.287 5.392,40.629 C4.493,40.814 3.597,41.017 2.696,41.192 C2.467,41.236 2.413,41.347 2.414,41.549 C2.419,42.320 2.419,43.091 2.414,43.860 C2.412,44.066 2.472,44.171 2.697,44.216 C3.545,44.383 4.386,44.586 5.233,44.754 C7.171,45.139 7.950,47.021 6.836,48.650 C6.363,49.341 5.892,50.034 5.407,50.716 C5.249,50.938 5.220,51.092 5.440,51.302 C6.028,51.860 6.598,52.437 7.160,53.020 C7.351,53.218 7.490,53.221 7.711,53.062 C8.435,52.544 9.168,52.037 9.911,51.545 C11.428,50.540 13.307,51.325 13.681,53.109 C13.867,53.994 14.049,54.880 14.255,55.761 C14.281,55.871 14.448,56.025 14.553,56.029 C15.350,56.051 16.148,56.052 16.945,56.029 C17.052,56.025 17.220,55.867 17.246,55.754 C17.451,54.887 17.634,54.015 17.813,53.142 C18.191,51.298 20.051,50.520 21.616,51.563 C22.324,52.035 23.024,52.518 23.715,53.015 C23.976,53.203 24.150,53.228 24.393,52.965 C24.915,52.398 25.477,51.871 26.021,51.325 C26.768,50.575 26.747,50.586 26.244,49.643 C25.333,47.938 23.566,47.233 22.197,46.048 C19.992,49.893 16.162,50.428 13.717,49.694 C10.620,48.764 8.489,46.184 8.482,42.982 C8.472,38.787 10.806,36.380 14.784,35.461 C14.486,34.194 14.187,32.927 13.862,31.548 ZM15.367,37.863 C12.785,38.066 10.776,40.302 10.885,42.867 C10.997,45.491 13.138,47.550 16.075,47.541 C17.768,47.444 19.255,46.529 20.154,44.688 C20.286,44.419 20.243,44.259 20.044,44.054 C18.380,42.330 17.029,40.385 15.990,38.226 C15.850,37.935 15.685,37.838 15.367,37.863 ZM69.897,21.301 C69.042,21.179 68.186,21.052 67.329,20.945 C66.566,20.851 65.849,20.651 65.225,20.178 C63.385,18.784 63.305,16.021 65.094,14.538 C65.945,13.831 66.850,13.188 67.743,12.532 C67.997,12.345 68.071,12.208 67.852,11.925 C67.017,10.846 66.200,9.754 65.392,8.655 C65.223,8.425 65.107,8.401 64.878,8.577 C64.011,9.244 63.148,9.918 62.249,10.540 C60.988,11.414 59.643,11.485 58.320,10.708 C56.978,9.919 56.404,8.693 56.575,7.150 C56.694,6.076 56.864,5.009 57.024,3.940 C57.063,3.676 57.009,3.551 56.717,3.513 C55.325,3.326 53.935,3.124 52.545,2.921 C52.318,2.887 52.224,2.978 52.195,3.193 C52.051,4.237 51.898,5.280 51.754,6.323 C51.622,7.274 51.205,8.071 50.461,8.679 C48.810,10.026 46.501,9.716 45.200,7.985 C44.521,7.079 43.840,6.174 43.155,5.262 C43.068,5.287 43.038,5.289 43.018,5.304 C41.860,6.169 40.709,7.043 39.543,7.895 C39.275,8.091 39.281,8.223 39.474,8.474 C40.174,9.383 40.902,10.278 41.520,11.242 C42.338,12.518 42.321,13.871 41.491,15.138 C40.661,16.405 39.437,16.927 37.931,16.733 C36.887,16.598 35.844,16.449 34.804,16.282 C34.484,16.231 34.404,16.358 34.370,16.638 C34.298,17.241 34.199,17.841 34.113,18.442 C34.005,19.205 33.898,19.967 33.793,20.729 C33.768,20.907 33.740,21.072 34.014,21.105 C34.737,21.193 35.460,21.293 36.179,21.409 C36.791,21.509 37.423,21.565 38.001,21.769 C39.303,22.229 40.098,23.194 40.319,24.550 C40.548,25.952 40.083,27.139 38.954,28.025 C38.114,28.684 37.253,29.314 36.396,29.949 C36.195,30.099 36.100,30.221 36.292,30.466 C36.792,31.103 37.267,31.760 37.754,32.408 C38.164,32.955 38.578,33.500 39.004,34.065 C39.205,33.923 39.370,33.809 39.531,33.690 C40.333,33.092 41.122,32.478 41.937,31.900 C42.968,31.168 44.105,31.016 45.287,31.457 C47.029,32.109 47.890,33.754 47.573,35.710 C47.419,36.656 47.303,37.608 47.167,38.558 C47.139,38.750 47.135,38.896 47.394,38.931 C48.746,39.115 50.098,39.298 51.446,39.510 C51.836,39.571 51.968,39.448 52.014,39.073 C52.140,38.040 52.266,37.006 52.448,35.983 C52.737,34.363 53.721,33.340 55.322,33.012 C56.789,32.712 58.008,33.233 58.926,34.415 C59.540,35.205 60.128,36.013 60.732,36.811 C60.834,36.945 60.954,37.065 61.076,37.204 C62.381,36.222 63.649,35.269 64.894,34.332 C64.874,34.249 64.874,34.234 64.867,34.223 C64.188,33.315 63.503,32.410 62.832,31.497 C61.909,30.239 61.833,28.691 62.616,27.385 C63.348,26.166 64.810,25.492 66.264,25.701 C67.293,25.850 68.325,25.979 69.351,26.149 C69.661,26.200 69.755,26.111 69.794,25.822 C69.953,24.643 70.128,23.468 70.297,22.291 C70.338,22.003 70.375,21.713 70.416,21.407 C70.213,21.365 70.056,21.323 69.897,21.301 ZM52.153,30.905 C46.813,30.935 42.449,26.633 42.408,21.300 C42.367,15.978 46.670,11.583 51.956,11.547 C57.384,11.510 61.712,15.778 61.750,21.206 C61.786,26.509 57.467,30.875 52.153,30.905 ZM52.111,13.952 C48.089,13.939 44.806,17.204 44.798,21.227 C44.791,25.206 48.061,28.477 52.076,28.505 C56.049,28.534 59.340,25.248 59.355,21.237 C59.370,17.226 56.129,13.966 52.111,13.952 ZM18.130,9.776 C17.540,9.917 16.952,10.068 16.367,10.230 C16.102,10.304 16.069,10.126 16.025,9.954 C15.720,8.766 15.418,7.578 15.115,6.388 C14.669,4.637 14.234,2.883 13.768,1.138 C13.669,0.767 13.672,0.570 14.110,0.497 C14.574,0.420 15.027,0.277 15.482,0.151 C15.574,0.126 15.651,0.052 15.735,-0.001 C15.817,-0.001 15.898,-0.001 15.979,-0.001 C16.321,1.371 16.659,2.744 17.008,4.115 C17.450,5.853 17.899,7.589 18.351,9.325 C18.411,9.554 18.408,9.711 18.130,9.776 ZM3.273,8.564 C3.735,7.913 4.182,7.284 4.660,6.610 C7.487,8.628 10.274,10.618 13.119,12.650 C12.642,13.316 12.199,13.938 11.725,14.600 C8.900,12.583 6.113,10.593 3.273,8.564 ZM10.930,18.585 C11.095,19.247 11.247,19.888 11.416,20.525 C11.484,20.782 11.396,20.888 11.145,20.950 C8.158,21.692 5.173,22.439 2.190,23.194 C1.914,23.264 1.794,23.192 1.734,22.919 C1.614,22.379 1.477,21.843 1.332,21.309 C1.269,21.073 1.296,20.925 1.564,20.859 C4.631,20.100 7.696,19.338 10.762,18.578 C10.799,18.568 10.841,18.580 10.930,18.585 ZM52.847,54.827 C53.374,54.850 53.902,54.842 54.429,54.829 C54.695,54.823 54.822,54.901 54.821,55.195 C54.813,57.777 54.813,60.358 54.819,62.940 C54.820,63.201 54.737,63.299 54.469,63.292 C53.915,63.277 53.360,63.273 52.807,63.295 C52.500,63.307 52.413,63.199 52.416,62.900 C52.429,61.631 52.422,60.359 52.422,59.089 C52.421,57.818 52.430,56.547 52.415,55.277 C52.412,54.951 52.501,54.812 52.847,54.827 ZM66.491,57.519 C65.965,58.149 65.469,58.743 64.951,59.362 C62.521,57.336 60.131,55.344 57.711,53.326 C58.225,52.705 58.712,52.116 59.238,51.481 C61.657,53.495 64.055,55.491 66.491,57.519 ZM60.125,47.541 C59.790,47.544 59.669,47.442 59.686,47.103 C59.710,46.618 59.716,46.129 59.685,45.644 C59.661,45.254 59.795,45.134 60.186,45.137 C62.294,45.154 64.402,45.146 66.510,45.147 C67.034,45.147 67.558,45.147 68.139,45.147 C68.139,45.904 68.134,46.592 68.142,47.279 C68.145,47.553 67.966,47.535 67.787,47.535 C66.801,47.535 65.814,47.535 64.828,47.535 C63.260,47.535 61.692,47.527 60.125,47.541 Z"/>
</g>
</svg>