<svg width="214" height="294" viewBox="0 0 214 294" fill="none" xmlns="http://www.w3.org/2000/svg">
<path d="M213.485 172.379L203.725 150.64H201.95C200.176 150.64 200.176 179.034 200.619 180.809C201.063 182.584 210.38 182.14 209.936 179.922C209.581 178.147 212.154 174.154 213.485 172.379Z" fill="#FBFBFB"/>
<ellipse cx="79.4316" cy="258.666" rx="76.8042" ry="20.852" transform="rotate(10.7578 79.4316 258.666)" fill="#E4E4E4"/>
<path fill-rule="evenodd" clip-rule="evenodd" d="M53.065 56.5722C48.665 65.2722 45.405 75.0222 43.445 85.4422C41.525 95.6422 40.865 106.492 41.605 117.622C42.955 137.792 48.895 156.182 57.975 171.162C67.295 186.532 79.915 198.302 94.235 204.662C96.835 205.812 98.925 206.592 100.935 207.202C102.965 207.822 104.925 208.292 107.235 208.812C109.005 209.212 111.065 210.192 113.365 211.282C117.535 213.262 122.575 215.672 127.185 215.172C131.935 214.662 135.165 211.622 137.975 208.962C139.365 207.652 140.665 206.422 142.095 205.512C143.225 204.792 145.125 203.882 146.625 203.152C147.095 202.922 147.525 202.722 147.855 202.552C162.455 195.302 173.895 182.432 181.335 165.962C188.865 149.302 192.325 128.972 190.855 107.052C189.485 86.5722 183.385 67.9222 174.065 52.8222C164.505 37.3322 151.585 25.5922 136.945 19.4722C133.905 18.2022 131.095 17.1622 128.215 16.2922C125.345 15.4322 122.405 14.7422 119.115 14.1722C117.475 13.8922 114.995 13.1722 112.725 12.2422C110.845 11.4722 109.085 10.5422 107.995 9.55216C103.995 5.94216 100.245 3.93216 96.845 3.21216C94.385 2.69216 92.095 2.86216 90.035 3.59216C87.965 4.33216 86.105 5.64216 84.505 7.42216C81.835 10.3722 79.885 14.5822 78.845 19.5222L78.785 19.8322C76.625 22.9022 74.285 25.8822 72.005 28.8622C67.345 34.9422 61.655 42.3522 58.045 47.8822C57.135 49.2722 56.275 50.6822 55.455 52.1022C54.645 53.5222 53.845 54.9922 53.065 56.5322V56.5722Z" fill="url(#paint0_linear)"/>
<path fill-rule="evenodd" clip-rule="evenodd" d="M143.915 204.492C63.735 180.062 41.985 118.572 78.675 20.0121C76.545 23.0321 74.245 25.9621 71.995 28.8921C67.335 34.9721 61.645 42.3821 58.035 47.9121C57.125 49.3021 56.265 50.7121 55.445 52.1321C54.635 53.5521 53.835 55.0221 53.055 56.5621C48.655 65.2621 45.395 75.0121 43.435 85.4321C41.515 95.6321 40.855 106.482 41.595 117.612C42.945 137.782 48.885 156.172 57.965 171.152C67.285 186.522 79.905 198.292 94.225 204.652C96.825 205.802 98.915 206.582 100.925 207.192C102.955 207.812 104.915 208.282 107.225 208.802C108.995 209.202 111.055 210.182 113.355 211.272C117.525 213.252 122.565 215.662 127.175 215.162C131.925 214.652 135.155 211.612 137.965 208.952C139.355 207.642 140.655 206.412 142.085 205.502C142.575 205.192 143.215 204.832 143.905 204.482L143.915 204.492Z" fill="#EDD653"/>
<path d="M110.005 7.35213C110.835 8.09213 112.275 8.85213 113.865 9.50213C115.915 10.3421 118.155 10.9921 119.625 11.2421C123.045 11.8321 126.095 12.5421 129.075 13.4421C132.055 14.3421 134.965 15.4121 138.095 16.7221C153.315 23.0821 166.725 35.2521 176.605 51.2721C186.175 66.7821 192.445 85.9021 193.845 106.882C195.345 129.302 191.795 150.122 184.065 167.222C181.955 171.882 179.535 176.272 176.825 180.342C164.385 230.342 157.295 261.492 156.525 269.062C156.735 273.072 153.135 277.942 146.835 281.162C139.475 284.922 131.465 283.062 130.125 278.402C128.785 273.742 133.775 267.372 140.565 264.532C144.415 262.922 148.305 262.602 151.285 263.392C154.085 253.982 156.275 232.872 157.855 200.082C155.095 202.022 152.205 203.762 149.175 205.262C148.805 205.442 148.385 205.652 147.925 205.872C146.475 206.572 144.645 207.452 143.705 208.052C142.535 208.792 141.325 209.942 140.035 211.162C136.875 214.142 133.265 217.552 127.505 218.172C122.055 218.752 116.595 216.152 112.085 214.012C109.925 212.982 108.195 212.532 106.785 212.212C104.405 211.672 100.675 210.912 98.565 210.262C96.425 209.602 94.225 208.792 91.545 207.602C90.205 207.012 88.895 206.392 87.595 205.742C86.875 228.062 88.165 249.272 91.495 269.392C94.745 267.722 99.445 266.722 102.975 266.892C114.785 267.462 118.545 274.012 118.105 277.962C117.665 281.912 114.835 284.312 105.445 284.182C96.055 284.052 87.675 277.592 87.675 273.642C81.365 234.972 75.965 208.802 71.485 195.122C65.175 189.732 59.555 183.142 54.635 175.042C45.315 159.662 38.595 139.022 37.215 118.382C36.455 107.002 37.805 95.3821 39.765 84.9421C41.775 74.2421 44.915 63.7721 49.435 54.8321C50.985 51.7721 52.705 48.7721 54.575 45.8921C58.265 40.2221 64.555 32.7821 69.235 26.6821C71.865 23.2521 74.045 20.6821 75.465 18.6821C76.635 13.3521 79.335 8.78213 82.295 5.50213C84.225 3.36213 86.505 1.76213 89.055 0.852127C91.615 -0.0578728 94.445 -0.267873 97.465 0.362127C101.375 1.18213 105.605 3.42213 110.015 7.40213L110.005 7.35213ZM112.735 12.2621C110.855 11.4921 109.095 10.5621 108.005 9.57213C104.005 5.96213 100.255 3.95213 96.855 3.23213C94.395 2.71213 92.105 2.88213 90.045 3.61213C87.975 4.35213 86.115 5.66213 84.515 7.44213C81.845 10.3921 79.895 14.6021 78.855 19.5421L78.795 19.8521C76.635 22.9221 74.295 25.9021 72.015 28.8821C67.355 34.9621 61.665 42.3721 58.055 47.9021C57.145 49.2921 56.285 50.7021 55.465 52.1221C54.655 53.5421 53.855 55.0121 53.075 56.5521C48.675 65.2521 45.415 75.0021 43.455 85.4221C41.535 95.6221 40.875 106.472 41.615 117.602C42.965 137.772 48.905 156.162 57.985 171.142C67.305 186.512 79.925 198.282 94.245 204.642C96.845 205.792 98.935 206.572 100.945 207.182C102.975 207.802 104.935 208.272 107.245 208.792C109.015 209.192 111.075 210.172 113.375 211.262C117.545 213.242 122.585 215.652 127.195 215.152C131.945 214.642 135.175 211.602 137.985 208.942C139.375 207.632 140.675 206.402 142.105 205.492C143.235 204.772 145.135 203.862 146.635 203.132C147.105 202.902 147.535 202.702 147.865 202.532C162.465 195.282 173.905 182.412 181.345 165.942C188.875 149.282 192.335 128.952 190.865 107.032C189.495 86.5521 183.395 67.9021 174.075 52.8021C164.515 37.3121 151.595 25.5721 136.955 19.4521C133.915 18.1821 131.105 17.1421 128.225 16.2721C125.355 15.4121 122.415 14.7221 119.125 14.1521C117.485 13.8721 115.005 13.1521 112.735 12.2221V12.2621Z" fill="#161A22"/>
<path d="M98.9912 94.3404C104.805 96.049 110.374 94.5234 111.43 90.9327C112.485 87.3419 108.627 83.0459 102.813 81.3373C96.9982 79.6286 91.4294 81.1543 90.3741 84.745C89.3189 88.3357 93.1769 92.6317 98.9912 94.3404Z" fill="#FFFA9E"/>
<path d="M111.865 78.7561C115.828 78.1028 118.153 72.1887 117.058 65.5465C115.963 58.9044 111.863 54.0495 107.9 54.7028C103.936 55.3561 101.611 61.2702 102.706 67.9124C103.801 74.5545 107.901 79.4094 111.865 78.7561Z" fill="#161A22"/>
<path d="M154.178 70.2575C157.869 69.3491 159.627 63.5978 158.104 57.4118C156.582 51.2257 152.355 46.9473 148.664 47.8557C144.973 48.7641 143.215 54.5153 144.738 60.7014C146.26 66.8875 150.487 71.1659 154.178 70.2575Z" fill="#161A22"/>
<path fill-rule="evenodd" clip-rule="evenodd" d="M144.795 93.5221C143.715 89.0021 142.465 86.9721 139.455 85.6921C135.605 88.4921 135.775 92.0421 135.865 94.9721C139.525 95.1421 141.725 94.9221 144.795 93.5121V93.5221Z" fill="#EDD653"/>
<path d="M143.025 92.6522C142.615 91.1922 142.175 90.0822 141.605 89.2322C141.105 88.4822 140.475 87.9222 139.655 87.4622C137.625 89.2922 137.325 91.5022 137.325 93.5322C138.435 93.5522 139.405 93.5022 140.325 93.3622C141.225 93.2222 142.095 93.0022 143.025 92.6422V92.6522ZM144.095 87.5722C145.025 88.9622 145.665 90.7522 146.255 93.1822L146.545 94.3722L145.425 94.8822C143.745 95.6522 142.305 96.0922 140.785 96.3222C139.295 96.5422 137.735 96.5622 135.805 96.4722L134.425 96.4022L134.385 95.0122V94.8722C134.285 91.6022 134.165 87.6922 138.595 84.4722L139.275 83.9722L140.055 84.3022C141.835 85.0622 143.105 86.0522 144.105 87.5422L144.095 87.5722Z" fill="#2B2A29"/>
<path d="M169.114 82.029C173.505 78.8116 175.454 74.0051 173.467 71.2934C171.48 68.5817 166.309 68.9916 161.918 72.209C157.527 75.4264 155.579 80.2329 157.565 82.9446C159.552 85.6563 164.723 85.2464 169.114 82.029Z" fill="#FFFA9E"/>
<path d="M96.7354 12.0632C99.6426 12.9175 102.427 12.1547 102.955 10.3593C103.482 8.56394 101.553 6.41593 98.6461 5.56158C95.7389 4.70723 92.9545 5.47007 92.4269 7.26543C91.8993 9.06079 93.8283 11.2088 96.7354 12.0632Z" fill="#FFFA9E"/>
<path d="M113.097 62.2632C113.799 62.064 114.103 60.9722 113.777 59.8247C113.451 58.6772 112.618 57.9085 111.917 58.1077C111.215 58.307 110.911 59.3987 111.237 60.5463C111.563 61.6938 112.396 62.4625 113.097 62.2632Z" fill="white"/>
<path d="M153.787 54.2108C154.464 53.9413 154.656 52.8243 154.215 51.7159C153.774 50.6075 152.867 49.9274 152.19 50.1969C151.512 50.4663 151.321 51.5834 151.762 52.6918C152.203 53.8002 153.109 54.4803 153.787 54.2108Z" fill="white"/>
<path d="M85.3956 127.842L190.966 108.262L192.486 107.982L192.716 109.522L204.356 187.312L204.556 188.662L203.226 188.982L101.366 213.592L99.8356 213.962L99.5456 212.412L84.1956 129.602L83.9256 128.132L85.3956 127.862V127.842ZM189.986 111.482L87.4156 130.502L102.206 210.292L201.206 186.382L189.996 111.482H189.986Z" fill="#161A22"/>
<path d="M86.9056 131.922L65.6156 124.342L66.6156 121.522L87.9056 129.102L86.9056 131.922Z" fill="#161A22"/>
<path d="M191.776 109.882L180.546 105.922L73.7556 126.442L73.3756 124.482L180.436 103.912L180.696 103.852L180.956 103.942L192.436 108.002L191.776 109.882Z" fill="#161A22"/>
<path d="M76.8356 126.082L91.1256 207.002L89.1556 207.332L74.8656 126.422L76.8356 126.082Z" fill="#161A22"/>
<path d="M170.666 102.512L67.3056 123.342L81.7056 201.722L100.056 210.992L99.8256 213.952L80.3356 203.252L79.9156 203.022L79.8356 202.552L64.9856 121.782L170.276 100.562L170.666 102.512Z" fill="#161A22"/>
<path d="M84.4856 180.872C85.1556 184.662 77.6256 184.262 74.4556 186.142C71.2856 188.022 68.3556 189.982 65.7956 191.932C67.4356 194.312 69.2056 197.002 71.1256 199.982C73.0756 203.032 75.1856 206.412 77.4556 210.122C79.5156 208.412 81.4556 206.952 83.2656 205.762C85.0956 204.552 86.7956 203.612 88.3756 202.922L88.7356 204.952C87.2156 205.652 85.7556 206.512 84.3656 207.422C82.3556 208.742 80.1856 210.402 77.8556 212.392L76.9656 213.152L76.3556 212.152C73.8756 208.082 71.5756 204.382 69.4456 201.062C67.3156 197.732 65.3756 194.812 63.6256 192.292L63.0956 191.522L63.8356 190.942C66.1856 189.092 68.8756 187.232 71.7956 185.432C71.7856 183.272 71.6956 181.112 71.4956 178.932C71.2856 176.572 70.9756 174.252 70.5456 171.962L70.3456 170.882L71.4456 170.792C73.7156 170.592 75.9056 170.472 77.9956 170.402C80.0656 170.342 80.8256 170.312 82.6356 170.382L82.9856 172.382C81.2256 172.352 80.0556 172.322 78.0456 172.382C76.3756 172.432 74.5956 172.532 72.6956 172.682C73.0356 174.712 73.3056 176.732 73.4756 178.752C73.6356 180.552 73.7256 182.382 73.7656 184.232C77.0356 182.312 83.4356 174.942 84.1256 178.842L84.4856 180.872Z" fill="#4F691B"/>
<path d="M76.9456 138.202C73.9556 137.192 70.8456 136.432 67.6556 135.922C64.7056 135.462 61.6656 135.212 58.5456 135.172C59.6956 138.872 60.3856 142.632 60.6156 146.452C60.8456 150.252 60.6156 154.112 59.9356 158.032C64.3356 157.342 68.2756 157.022 71.7656 157.072C75.1656 157.122 79.8856 155.642 80.4756 158.222L80.9956 160.482C78.4256 159.562 75.4156 159.122 71.7356 159.072C68.0156 159.022 63.7156 159.402 58.8456 160.242L57.4156 160.482L57.7056 159.062C58.5656 154.842 58.8656 150.672 58.6156 146.582C58.3656 142.492 57.5656 138.472 56.2156 134.512L55.7656 133.212L57.1456 133.202C60.8656 133.172 64.4656 133.422 67.9456 133.972C70.9156 134.442 73.7956 135.122 76.5856 136.002L76.9356 138.212L76.9456 138.202Z" fill="#4F691B"/>
<path fill-rule="evenodd" clip-rule="evenodd" d="M67.6556 135.922C64.7056 135.462 61.6656 135.212 58.5456 135.172C59.6956 138.872 60.3856 142.632 60.6156 146.452C60.8456 150.252 60.6156 154.112 59.9356 158.032C64.3356 157.342 68.2756 157.022 71.7656 157.072C75.0856 157.122 77.9856 157.502 80.4756 158.222L76.9356 138.202C73.9356 137.192 70.8456 136.432 67.6456 135.922H67.6556Z" fill="#95B15D"/>
<path fill-rule="evenodd" clip-rule="evenodd" d="M82.9856 172.382C81.4256 172.332 79.7856 172.332 78.0456 172.382C76.3756 172.432 74.5956 172.532 72.6956 172.682C73.0356 174.712 73.3056 176.732 73.4756 178.752C73.6356 180.552 73.7256 182.382 73.7656 184.232C77.0256 182.312 80.5356 180.482 84.1256 178.842L82.9856 172.392V172.382Z" fill="#95B15D"/>
<path fill-rule="evenodd" clip-rule="evenodd" d="M84.4856 180.872C81.0056 182.482 77.6156 184.272 74.4556 186.142C71.2856 188.022 68.3556 189.982 65.7956 191.932C67.4356 194.312 69.2056 197.002 71.1256 199.982C73.0756 203.032 75.1856 206.412 77.4556 210.122C79.5156 208.412 81.4556 206.952 83.2656 205.762C85.0956 204.552 86.7956 203.612 88.3756 202.922L84.4756 180.872H84.4856Z" fill="#95B15D"/>
<path fill-rule="evenodd" clip-rule="evenodd" d="M167.866 89.432C165.936 93.322 162.626 101.802 161.126 107.622L180.436 103.912L180.696 103.862L180.946 103.952L188.046 106.462C189.056 104.682 190.246 102.722 191.836 100.522C186.676 95.552 175.926 91.262 167.856 89.442L167.866 89.432Z" fill="#95B15D"/>
<path fill-rule="evenodd" clip-rule="evenodd" d="M201.186 186.392L189.976 111.492L87.4056 130.512L102.186 210.302L201.186 186.392Z" fill="#664735" stroke="#664735" stroke-width="0.0762"/>
<path fill-rule="evenodd" clip-rule="evenodd" d="M99.1956 210.552L84.4656 131.052L77.2556 128.492L91.0256 206.432L99.1956 210.552Z" fill="#4F3424" stroke="#4F3424" stroke-width="0.0762"/>
<path fill-rule="evenodd" clip-rule="evenodd" d="M85.3956 127.842L188.486 108.722L180.546 105.922L78.1056 125.612L84.7256 127.972L85.3956 127.842Z" fill="#664735" stroke="#664735" stroke-width="0.0762"/>
<path fill-rule="evenodd" clip-rule="evenodd" d="M76.5556 135.972L75.0956 127.722L67.6256 125.062L69.3056 134.182C71.7856 134.632 74.2056 135.232 76.5656 135.972H76.5556Z" fill="#4F3424" stroke="#4F3424" stroke-width="0.0762"/>
<path fill-rule="evenodd" clip-rule="evenodd" d="M80.8756 160.432C78.8856 159.722 76.5556 159.302 73.8856 159.142L75.9656 170.472C76.6456 170.442 77.3256 170.412 77.9856 170.392C79.6156 170.342 81.1556 170.342 82.6256 170.372L80.8656 160.422L80.8756 160.432Z" fill="#4F3424"/>
<path fill-rule="evenodd" clip-rule="evenodd" d="M74.3956 124.292L161.126 107.622C161.396 106.572 161.726 105.422 162.106 104.242L70.1556 122.782L74.4056 124.292H74.3956Z" fill="#664735" stroke="#664735" stroke-width="0.0762"/>
<path d="M116.686 120.572L113.386 108.862L113.826 108.182L115.586 105.452L115.996 104.812L116.736 104.612C122.236 103.092 127.546 101.722 132.816 100.792C138.166 99.842 143.526 99.332 149.096 99.512L150.036 99.542L150.606 100.282L152.366 102.572L152.776 103.102L153.556 113.172L148.776 114.022L147.786 105.002L147.006 103.992C137.706 103.822 128.386 106.322 119.496 108.772L118.616 110.132C118.946 111.312 119.746 114.222 121.816 119.682L116.666 120.562L116.686 120.572Z" fill="#161A22"/>
<path d="M160.036 107.832C160.666 105.132 161.616 102.322 162.826 98.982C164.256 95.052 165.836 91.252 166.966 88.992L167.316 88.292L168.076 88.462C172.476 89.452 177.656 91.162 182.316 93.322C186.376 95.192 190.056 97.412 192.526 99.802L193.146 100.402L192.646 101.102C191.766 102.332 190.996 103.482 190.326 104.572C189.656 105.662 189.546 105.822 189.006 106.802L187.096 106.132C187.646 105.142 187.936 104.662 188.626 103.532C189.186 102.622 189.816 101.672 190.516 100.662C188.226 98.662 185.016 96.772 181.476 95.142C177.206 93.172 172.506 91.582 168.406 90.592C167.346 92.842 165.966 96.202 164.696 99.672C163.506 102.942 162.886 104.782 162.286 107.402L160.026 107.832H160.036Z" fill="#4F691B"/>
<path d="M153.535 193.565C168.724 190.649 178.135 173.17 174.555 154.526C170.975 135.881 155.76 123.131 140.572 126.047C125.383 128.963 115.972 146.442 119.552 165.086C123.132 183.731 138.347 196.481 153.535 193.565Z" fill="#E6D29F" stroke="#2B2A29" stroke-width="0.0785672"/>
<path d="M140.756 127.032H140.746C133.466 128.432 127.556 133.342 123.896 140.142C120.196 147.012 118.776 155.812 120.526 164.902C122.266 173.992 126.846 181.632 132.826 186.642C138.756 191.612 146.056 193.982 153.346 192.582H153.356C160.636 191.182 166.546 186.272 170.206 179.472C173.906 172.602 175.326 163.802 173.576 154.712C171.836 145.622 167.256 137.982 161.276 132.972C155.346 128.002 148.046 125.632 140.756 127.032ZM140.486 125.052C148.356 123.582 156.206 126.122 162.556 131.442C168.876 136.732 173.696 144.792 175.536 154.342C177.366 163.892 175.866 173.162 171.966 180.422C168.026 187.742 161.626 193.032 153.726 194.552L153.626 194.572C145.756 196.042 137.906 193.502 131.556 188.182C125.236 182.892 120.416 174.832 118.576 165.282C116.746 155.732 118.246 146.462 122.146 139.202C126.086 131.882 132.486 126.592 140.386 125.072L140.486 125.052Z" fill="#161A22"/>
<path d="M152.54 186.888L151.536 181.758C148.908 181.938 146.707 181.777 144.932 181.276C143.173 180.752 141.524 179.685 139.985 178.072C138.466 176.457 137.351 174.337 136.64 171.715L141.608 169.736C142.546 172.413 143.645 174.299 144.905 175.393C146.706 176.934 148.633 177.612 150.688 177.427L147.492 161.099C145.305 161.113 142.989 160.718 140.543 159.915C138.731 159.323 137.22 158.307 136.012 156.867C134.822 155.423 134.026 153.675 133.624 151.623C132.91 147.976 133.624 144.769 135.765 142.003C137.196 140.144 139.578 138.712 142.912 137.704L142.432 135.253L145.453 134.662L145.933 137.113C148.971 136.814 151.507 137.225 153.541 138.345C156.147 139.768 157.996 142.059 159.088 145.219L153.944 147.054C153.246 145.1 152.308 143.686 151.131 142.811C149.969 141.914 148.519 141.459 146.78 141.444L149.675 156.233C152.386 156.373 154.194 156.542 155.1 156.74C156.834 157.13 158.302 157.73 159.506 158.54C160.71 159.35 161.714 160.396 162.517 161.679C163.34 162.958 163.909 164.404 164.225 166.019C164.92 169.572 164.37 172.756 162.574 175.574C160.779 178.391 158.102 180.236 154.545 181.11L155.56 186.296L152.54 186.888ZM143.749 141.978C141.813 142.673 140.393 143.779 139.487 145.298C138.6 146.813 138.329 148.454 138.675 150.22C139.017 151.968 139.788 153.336 140.988 154.324C142.206 155.309 144.052 155.924 146.527 156.169L143.749 141.978ZM153.709 176.836C155.655 176.198 157.129 175.012 158.131 173.278C159.151 171.539 159.448 169.578 159.02 167.393C158.656 165.531 157.898 164.131 156.748 163.193C155.613 162.231 153.581 161.574 150.652 161.22L153.709 176.836Z" fill="#0F9529"/>
<path fill-rule="evenodd" clip-rule="evenodd" d="M88.7956 205.302L88.7356 204.942C88.6256 204.992 88.5156 205.042 88.4056 205.102L88.8056 205.302H88.7956Z" fill="#4F3424"/>
<path fill-rule="evenodd" clip-rule="evenodd" d="M70.6156 159.062L71.9256 163.732L108.096 152.662C107.746 143.332 109.136 137.482 112.266 135.112C113.936 134.242 114.366 136.912 113.566 143.112C116.246 140.112 120.556 137.962 126.516 136.682C127.306 136.512 127.936 136.492 128.326 136.872C129.596 138.142 127.606 139.752 122.216 142.052C124.726 141.302 128.176 141.202 129.716 141.292C131.256 141.382 132.026 141.992 132.266 142.892C132.446 143.582 132.516 144.252 132.516 144.882C132.626 155.022 113.656 157.612 110.576 155.872L68.2856 173.642L63.8356 159.502C66.4256 159.172 67.6856 159.022 70.6256 159.052L70.6156 159.062Z" fill="#161A22"/>
<path fill-rule="evenodd" clip-rule="evenodd" d="M63.4156 133.412L59.8656 120.752C57.5456 117.952 51.0956 117.622 51.7156 120.902L57.7956 140.272C57.3956 138.332 56.8756 136.412 56.2256 134.512L55.7756 133.212L57.1556 133.202C58.9356 133.182 61.6856 133.312 63.4156 133.432V133.412Z" fill="#161A22"/>
<path fill-rule="evenodd" clip-rule="evenodd" d="M193.386 102.212C193.936 108.152 193.946 108.892 194.176 114.732C199.166 122.752 202.166 125.862 206.456 136.662C200.056 145.572 193.166 156.152 186.336 161.802C179.776 155.162 174.926 154.472 174.076 155.342C173.226 156.212 173.716 157.162 177.836 161.122C172.906 163.422 169.516 164.062 166.516 166.842C165.976 167.342 165.276 167.912 165.606 168.742C165.796 169.232 166.386 169.462 167.366 169.452C170.306 169.032 172.066 168.842 175.006 167.562C171.676 169.152 170.366 169.852 168.756 170.982C168.446 171.202 168.146 171.382 167.926 171.602C167.236 172.292 166.676 173.042 166.966 174.352C167.046 174.722 167.176 175.062 167.326 175.382C168.336 177.522 170.686 178.612 174.366 178.642C177.916 178.682 179.586 178.002 182.566 176.602C186.276 174.862 190.456 168.932 190.056 164.722C203.136 152.662 210.506 142.462 213.296 137.172C206.936 119.842 201.346 114.482 193.396 102.202L193.386 102.212Z" fill="#161A22"/>
<path fill-rule="evenodd" clip-rule="evenodd" d="M87.4056 130.512L186.166 116.402L190.426 131.402L192.486 138.632L195.776 150.232L193.236 133.252L191.166 119.432L189.976 111.492L87.4056 130.512Z" fill="#7D5741"/>
<path fill-rule="evenodd" clip-rule="evenodd" d="M104.716 204.722L97.5956 181.542L95.7456 175.542L96.7356 180.862L101.656 207.422L102.186 210.302L107.796 208.952L136.416 202.042L156.866 197.102L160.106 196.312L157.366 196.732L132.296 200.542L104.716 204.722Z" fill="#7D5741"/>
<path fill-rule="evenodd" clip-rule="evenodd" d="M186.436 102.712C186.066 103.612 185.586 104.492 184.986 105.372L187.096 106.122C187.476 105.432 187.736 104.992 188.086 104.402C188.246 104.142 188.416 103.862 188.626 103.522C189.136 102.702 189.686 101.852 190.296 100.962C190.366 100.862 190.436 100.762 190.506 100.652C190.416 100.572 190.326 100.492 190.226 100.412C189.176 99.522 187.946 98.662 186.586 97.832C185.016 96.872 183.286 95.972 181.466 95.132C178.866 93.932 176.096 92.872 173.406 92.002C171.686 91.452 169.996 90.972 168.396 90.592C167.836 91.772 167.186 93.262 166.516 94.922C165.916 96.412 165.286 98.032 164.686 99.672C164.396 100.472 164.136 101.192 163.906 101.852C163.636 102.632 163.396 103.342 163.186 104.032C162.846 105.142 162.556 106.192 162.276 107.412L165.946 106.712C166.216 105.582 166.526 104.442 166.856 103.302C167.066 102.582 167.286 101.852 167.506 101.142C168.066 99.322 168.656 97.542 169.176 95.872C170.196 95.872 171.136 95.512 171.876 94.902C177.396 96.462 182.056 98.492 185.856 100.982C185.926 101.612 186.126 102.212 186.426 102.732L186.436 102.712Z" fill="#B5D96C"/>
<path fill-rule="evenodd" clip-rule="evenodd" d="M64.0356 135.462C64.6756 135.522 65.4556 135.612 66.0556 135.692C66.5956 135.762 67.1256 135.842 67.6556 135.922C68.3356 136.032 69.0156 136.152 69.6856 136.282C72.1656 136.762 74.5956 137.412 76.9456 138.202L77.4156 140.842C75.1156 140.002 72.6956 139.362 70.1656 138.902C69.0856 138.712 68.0056 138.552 66.9156 138.422C65.8556 138.302 64.7256 138.212 63.6356 138.152C63.4256 138.582 63.1456 138.972 62.8156 139.332C63.9356 143.182 64.1856 148.082 63.5556 153.552C64.1256 153.962 64.6056 154.472 64.9556 155.052C66.9456 154.692 69.0456 154.492 71.0156 154.482C71.6956 154.482 72.3756 154.492 73.0556 154.532C73.4156 154.552 73.7756 154.582 74.1356 154.612C76.1156 154.792 78.0956 155.152 80.0556 155.692L80.4956 158.202C79.0456 157.782 77.4456 157.482 75.7156 157.292C75.0056 157.212 74.2756 157.152 73.5256 157.112C72.9556 157.082 72.3756 157.062 71.7756 157.052H71.4856C69.6456 157.032 67.6856 157.122 65.5956 157.312C63.8056 157.472 61.9156 157.712 59.9456 158.012C60.2656 156.172 60.4956 154.342 60.6156 152.522C60.7556 150.472 60.7556 148.442 60.6356 146.432C60.5256 144.592 60.3056 142.772 59.9856 140.962C59.6356 139.012 59.1656 137.072 58.5656 135.152C60.3556 135.172 62.1156 135.262 63.8456 135.422H63.8556C63.9256 135.432 63.9856 135.432 64.0556 135.442L64.0356 135.462Z" fill="#B5D96C"/>
<path fill-rule="evenodd" clip-rule="evenodd" d="M73.4456 178.422C73.4556 178.532 73.4656 178.642 73.4756 178.762C73.6356 180.562 73.7256 182.392 73.7656 184.242C74.6656 183.712 75.8456 183.052 77.0256 182.402C77.0656 180.932 76.9356 178.872 76.6856 177.482C77.3156 177.042 77.8456 176.482 78.2356 175.822C79.9956 175.632 81.7856 175.632 83.5856 175.842L82.9756 172.402C81.6456 172.372 80.6556 172.362 79.3756 172.372C79.2256 172.372 79.0656 172.382 78.9156 172.382C78.6456 172.392 78.3556 172.392 78.0456 172.402C76.3756 172.452 74.5956 172.552 72.6956 172.702C73.0256 174.612 73.2756 176.522 73.4456 178.432V178.422Z" fill="#B5D96C"/>
<path fill-rule="evenodd" clip-rule="evenodd" d="M77.2456 188.462C77.8656 188.082 78.4756 187.712 79.0756 187.362C81.2956 186.072 83.2956 185.042 85.0956 184.282L84.4956 180.872C82.4356 181.822 80.4056 182.842 78.4456 183.892C77.8256 184.222 77.2156 184.562 76.6056 184.902C75.8856 185.312 75.1756 185.722 74.4756 186.132C73.3156 186.822 72.1956 187.512 71.1056 188.222C70.9256 188.342 70.7456 188.462 70.5656 188.572C69.3456 189.372 68.1856 190.182 67.0756 190.992C66.6456 191.302 66.2356 191.612 65.8256 191.932C66.8256 193.392 67.8756 194.962 68.9856 196.632C69.6856 197.702 70.4156 198.822 71.1556 199.982C72.1556 201.532 73.1856 203.182 74.2656 204.902C74.2956 204.952 74.3356 205.012 74.3656 205.062C75.3656 206.672 76.4056 208.352 77.4856 210.112C79.2156 208.672 80.8556 207.422 82.4056 206.352C82.7056 206.142 83.0056 205.942 83.2956 205.752C83.5456 205.582 83.7956 205.422 84.0456 205.262C84.4756 204.992 84.8856 204.742 85.2956 204.502C85.6056 204.322 85.9156 204.152 86.2156 203.982C86.5856 203.782 86.9456 203.592 87.3056 203.422C87.6756 203.242 88.0356 203.072 88.3956 202.922L88.1556 201.562L87.8356 199.772C87.2556 199.962 86.6956 200.162 86.1556 200.372C85.2556 200.732 84.4156 201.132 83.6256 201.572C83.2856 201.762 82.9456 201.962 82.6256 202.172C82.4056 202.312 82.1856 202.462 81.9756 202.612C81.5756 202.892 81.1956 203.192 80.8256 203.502C80.5256 203.752 80.2356 204.012 79.9556 204.282C79.3456 204.012 78.6756 203.852 77.9756 203.812C76.9856 201.632 75.7056 199.442 74.1356 197.252C73.3256 196.122 72.4456 195.002 71.4956 193.872C71.5956 193.612 71.6856 193.342 71.7456 193.062C71.8256 192.712 71.8556 192.352 71.8556 191.992C72.4756 191.572 73.0756 191.162 73.6656 190.762C74.9156 189.932 76.1056 189.162 77.2456 188.462Z" fill="#B5D96C"/>
<path fill-rule="evenodd" clip-rule="evenodd" d="M77.7556 142.792C76.5056 143.432 75.5856 145.442 75.5856 147.822C75.5856 150.722 76.9356 153.072 78.6056 153.072C78.9256 153.072 79.2356 152.982 79.5256 152.822L77.7556 142.782V142.792Z" fill="#B5D96C"/>
<defs>
<linearGradient id="paint0_linear" x1="35.1429" y1="207.551" x2="198.043" y2="10.8423" gradientUnits="userSpaceOnUse">
<stop stop-color="#F7F066"/>
<stop offset="1" stop-color="#FCF67E"/>
</linearGradient>
</defs>
</svg>
