<svg width="17" height="17" viewBox="0 0 17 17" fill="none" xmlns="http://www.w3.org/2000/svg">
<g clip-path="url(#clip0)">
<path d="M12.2143 1.8689L7.89188 6.19138H14.3079C14.1202 4.55915 13.3936 3.04811 12.2143 1.8689Z" fill="#F3D36E"/>
<path d="M7.18748 7.89185V14.3517C8.85641 14.3188 10.5158 13.7195 11.8499 12.5542L7.18748 7.89185Z" fill="#F3D36E"/>
<path d="M14.0833 0L12.9187 1.1646C14.4885 2.73438 15.353 4.82159 15.353 7.04162C15.353 9.26165 14.4885 11.3489 12.9187 12.9186C11.3489 14.4884 9.26171 15.353 7.04165 15.353C4.82163 15.353 2.73444 14.4884 1.16467 12.9186L0 14.0833C3.88898 17.9723 10.1943 17.9723 14.0833 14.0833C17.9723 10.1943 17.9723 3.88898 14.0833 0Z" fill="#F3D36E"/>
<path d="M1.86894 12.2143C3.0789 13.4242 4.61076 14.1207 6.19139 14.3041V7.89185L1.86894 12.2143Z" fill="#F3D36E"/>
<path d="M7.89188 7.1875L12.5545 11.8501C13.6884 10.5539 14.3215 8.92044 14.3552 7.1875H7.89188Z" fill="#F3D36E"/>
</g>
<defs>
<clipPath id="clip0">
<rect width="17" height="17" fill="white"/>
</clipPath>
</defs>
</svg>
