<svg width="155" height="43" viewBox="0 0 155 43" fill="none" xmlns="http://www.w3.org/2000/svg">
<path d="M4.59584 17.32L4.50981 17.7704L4.0519 17.7921C2.30362 17.8752 0.93396 19.3127 0.93396 21.0644C0.93396 22.8162 2.30332 24.254 4.0516 24.3368L4.50952 24.3588L4.59555 24.8092C6.37631 34.12 14.5585 40.8784 24.0516 40.8784H27.7685V1.25049H24.0519C14.5585 1.25049 6.37631 8.00888 4.59584 17.32Z" fill="white"/>
<path d="M18.8056 22.5222C19.3373 11.2702 24.698 2.38163 30.7794 2.66901L26.4852 2.4665C16.5512 1.9971 7.94347 8.71861 5.69953 18.0447C3.6525 18.0453 1.94694 19.6548 1.84921 21.7212C1.75178 23.7876 3.29787 25.5508 5.33553 25.7439C6.69056 35.24 14.0623 40.7052 23.9963 41.1749L28.2905 41.378C22.2091 41.0906 18.274 33.7745 18.8056 22.5222Z" fill="#FFD700"/>
<path d="M29.1631 41.2767C29.1631 41.6521 28.8585 41.9565 28.4831 41.9565H24.2819C14.3766 41.9565 5.81892 35.007 3.76868 25.3681C1.62188 25.045 0 23.1975 0 20.9784C0 18.759 1.62188 16.9121 3.76868 16.5881C5.81892 6.94978 14.3766 0 24.2819 0H28.8462C29.0212 0 29.1631 0.141641 29.1631 0.316644V41.2767ZM24.2819 1.16444C14.7888 1.16444 6.6066 7.92254 4.82584 17.2337L4.73981 17.6841L4.2819 17.706C2.53362 17.7888 1.16425 19.2263 1.16425 20.9784C1.16425 22.7305 2.53362 24.1679 4.2819 24.2511L4.73981 24.2727L4.82584 24.7231C6.6066 34.034 14.7888 40.7923 24.2819 40.7923H27.9988V1.16444H24.2819Z" fill="#231F20"/>
<path d="M39.6045 20.9783C39.6045 32.2429 34.6689 41.3744 28.5808 41.3744C22.4927 41.3744 17.5571 32.2429 17.5571 20.9783C17.5571 9.71378 22.4927 0.582031 28.5808 0.582031C34.6689 0.582031 39.6045 9.71378 39.6045 20.9783Z" fill="white"/>
<path d="M28.5808 41.9568C25.4125 41.9568 22.4623 39.7268 20.2739 35.6777C18.1467 31.7416 16.9752 26.5214 16.9752 20.9784C16.9752 15.4354 18.1467 10.2151 20.2739 6.27932C22.4623 2.23026 25.4125 0 28.5808 0C31.7491 0 34.6991 2.22997 36.8877 6.27903C39.0149 10.2148 40.1865 15.4351 40.1865 20.9781C40.1865 26.5211 39.0149 31.7414 36.8877 35.6775C34.6991 39.7268 31.7491 41.9568 28.5808 41.9568ZM28.5808 1.16444C25.8599 1.16444 23.2736 3.17756 21.298 6.83301C19.2609 10.6017 18.1391 15.6256 18.1391 20.9784C18.1391 26.3315 19.2609 31.3551 21.298 35.1241C23.2736 38.7792 25.8599 40.7923 28.5808 40.7923C31.3017 40.7923 33.888 38.7792 35.8636 35.1241C37.9007 31.3548 39.0225 26.3312 39.0225 20.9784C39.0225 15.6256 37.9007 10.6017 35.8636 6.83301C33.888 3.17727 31.302 1.16444 28.5808 1.16444Z" fill="#231F20"/>
<path d="M34.86 22.3614C34.86 30.3788 31.7813 36.8779 27.9836 36.8779C24.186 36.8779 21.1072 30.3788 21.1072 22.3614C21.1072 14.3441 24.186 7.84497 27.9836 7.84497C31.7813 7.84497 34.86 14.3441 34.86 22.3614Z" fill="#FFD700"/>
<path d="M29.1627 4.8916H27.9988V36.5478H29.1627V4.8916Z" fill="#231F20"/>
<path d="M35.018 20.209H21.0493V21.3731H35.018V20.209Z" fill="#231F20"/>
<path d="M34.9353 28.8987L22.8246 11.5383L21.8698 12.2046L33.9805 29.565L34.9353 28.8987Z" fill="#231F20"/>
<path d="M34.9557 11.1417L33.9568 10.5442L22.1489 30.2893L23.1478 30.8869L34.9557 11.1417Z" fill="#231F20"/>
<path d="M28.5808 37.273C24.0311 37.273 20.4673 30.0332 20.4673 20.7914C20.4673 11.5493 24.0311 4.30981 28.5808 4.30981C33.1304 4.30981 36.6943 11.5493 36.6943 20.7914C36.6943 30.0329 33.1307 37.273 28.5808 37.273ZM28.5808 5.47367C24.8138 5.47367 21.6312 12.4881 21.6312 20.7911C21.6312 29.0938 24.8138 36.1082 28.5808 36.1082C32.3477 36.1082 35.5303 29.0938 35.5303 20.7911C35.5303 12.4881 32.3477 5.47367 28.5808 5.47367Z" fill="#231F20"/>
<path d="M50.6273 5.17987L50.9304 4.54424L49.0569 3.68152C48.8175 3.52056 48.5668 3.37629 48.3046 3.24986C42.8204 0.605507 34.41 6.68759 29.5189 16.8345C24.6281 26.9815 25.1091 37.3508 30.5933 39.9952C30.7586 40.0748 30.9266 40.1465 31.0971 40.2103L33.4125 41.2764L33.7329 40.6042C38.935 40.3666 45.3505 34.7679 49.379 26.4102C53.4544 17.9545 53.799 9.34541 50.6273 5.17987Z" fill="white"/>
<path d="M33.289 18.4061C37.6397 9.37997 44.7756 3.57035 50.1591 4.25865L49.1093 3.7752C48.8699 3.61424 48.6191 3.46968 48.357 3.34325C42.8728 0.699188 34.462 6.78127 29.5712 16.9282C24.6804 27.0749 25.1615 37.4445 30.6457 40.0886C30.811 40.1682 30.9789 40.2399 31.1495 40.3034L33.4649 41.3698L33.5854 41.1169C28.845 37.8946 28.6405 28.05 33.289 18.4061Z" fill="#FFD700"/>
<path d="M33.6905 42.0451L30.8724 40.7472C30.6904 40.6784 30.5117 40.6014 30.3405 40.5192C27.4865 39.1432 25.7973 35.8533 25.584 31.2552C25.3765 26.7859 26.5879 21.5747 28.9945 16.5816C33.1187 8.02517 39.9094 2.04932 45.5077 2.04932C46.6008 2.04932 47.627 2.2767 48.5571 2.72533C48.8257 2.85468 49.0894 3.00481 49.3416 3.17162L51.7096 4.26202L51.3017 5.11743C52.8136 7.28916 53.5044 10.4246 53.3019 14.217C53.0901 18.1853 51.9147 22.4892 49.9031 26.663C47.9158 30.7858 45.3157 34.3552 42.3848 36.9852C39.586 39.4961 36.7341 40.9342 34.1115 41.1619L33.6905 42.0451ZM45.5077 3.21347C40.3398 3.21347 33.9804 8.91862 30.0432 17.087C27.7188 21.9095 26.5481 26.9217 26.7468 31.201C26.9393 35.3519 28.395 38.289 30.8458 39.4707C30.9918 39.5406 31.1451 39.6062 31.3014 39.665L31.3406 39.6811L33.1342 40.5072L33.3578 40.0381L33.7063 40.0223C38.8028 39.7891 45.0319 34.0874 48.8544 26.157C52.7378 18.1004 53.2762 9.61921 50.1641 5.53211L49.9487 5.24941L50.1509 4.82566L48.7707 4.19032L48.7321 4.16428C48.5138 4.01737 48.2847 3.88597 48.0518 3.77359C47.2805 3.40193 46.4244 3.21347 45.5077 3.21347Z" fill="#231F20"/>
<path d="M53.0965 27.8879C48.2057 38.0349 39.795 44.117 34.3108 41.4729C28.8266 38.8286 28.3456 28.4592 33.2366 18.3122C38.1274 8.1653 46.5382 2.08322 52.0224 4.72729C57.5066 7.37164 57.9873 17.7413 53.0965 27.8879Z" fill="white"/>
<path d="M53.0965 28.356C48.2057 38.5032 39.795 44.585 34.3108 41.9412C28.8266 39.2969 28.3456 28.9272 33.2366 18.7803C38.1274 8.63332 46.5382 2.55124 52.0224 5.1953C57.5066 7.83995 57.9873 18.2093 53.0965 28.356Z" fill="#FFD700"/>
<path d="M51.3556 26.9057L50.3072 26.4C52.0209 22.8443 52.8844 19.1508 52.7381 15.9996C52.5979 12.9774 51.5481 10.8441 49.7814 9.99216L50.287 8.9436C52.4566 9.98952 53.7399 12.4764 53.9009 15.9458C54.056 19.2866 53.1518 23.1788 51.3556 26.9057Z" fill="#231F20"/>
<path d="M36.6399 37.257C34.4703 36.211 33.1866 33.7241 33.0257 30.2548C32.8709 26.9142 33.7748 23.022 35.5713 19.2952L36.6197 19.8006C34.9059 23.3565 34.0425 27.05 34.1888 30.2009C34.3289 33.2231 35.3788 35.3565 37.1452 36.2084L36.6399 37.257Z" fill="#231F20"/>
<path d="M36.9623 42.819C35.8691 42.819 34.843 42.5916 33.9128 42.1427C31.0588 40.767 29.3696 37.477 29.1563 32.879C28.9489 28.4097 30.1602 23.1985 32.5669 18.2054C36.691 9.64894 43.4817 3.6731 49.08 3.6731C50.1731 3.6731 51.1993 3.90048 52.1295 4.34911C54.9835 5.72514 56.6729 9.01507 56.8859 13.6131C57.0934 18.0824 55.882 23.2939 53.4754 28.2867C49.3512 36.8432 42.5606 42.819 36.9623 42.819ZM49.0797 4.83724C43.9118 4.83724 37.5525 10.5424 33.6152 18.711C31.2908 23.533 30.1204 28.5452 30.3188 32.8248C30.5113 36.9763 31.967 39.913 34.4178 41.0944C35.1891 41.4664 36.0453 41.6549 36.962 41.6549C42.1299 41.6549 48.4892 35.95 52.4264 27.7813C54.7509 22.9591 55.9215 17.9469 55.7229 13.6673C55.5303 9.51638 54.0747 6.57966 51.6238 5.39796C50.8526 5.02571 49.9967 4.83724 49.0797 4.83724Z" fill="#231F20"/>
<path d="M43.4559 5.65883L39.8937 3.76587L39.3143 4.85647L42.8766 6.74943L43.4559 5.65883Z" fill="#231F20"/>
<path d="M41.6754 7.29994L38.1132 5.40698L37.5339 6.49733L41.0962 8.39028L41.6754 7.29994Z" fill="#231F20"/>
<path d="M39.8958 8.77601L36.3336 6.88306L35.7543 7.9734L39.3166 9.86635L39.8958 8.77601Z" fill="#231F20"/>
<path d="M38.468 10.2914L34.9058 8.39844L34.3265 9.48878L37.8888 11.3817L38.468 10.2914Z" fill="#231F20"/>
<path d="M37.1487 12.1842L33.5865 10.2913L33.0073 11.3816L36.5695 13.2746L37.1487 12.1842Z" fill="#231F20"/>
<path d="M17.9135 35.7222H16.7496V36.9955H17.9135V35.7222Z" fill="#231F20"/>
<path d="M15.1124 34.449H13.9485V35.7223H15.1124V34.449Z" fill="#231F20"/>
<path d="M16.8584 32.739H15.6944V34.0126H16.8584V32.739Z" fill="#231F20"/>
<path d="M87.4439 23.7542H69.6626V9.14697H72.5426V21.0439H77.1114V9.14697H79.9913V21.0439H84.5601V9.14697H87.4401V23.7542H87.4439Z" fill="white"/>
<path d="M102.032 23.7542L99.0279 19.0611C98.6924 18.5446 98.4021 18.1978 98.1496 18.0169C97.9008 17.8359 97.5314 17.7455 97.0451 17.7455H95.7106V23.758H92.8307V9.14697H95.7106V14.971H96.9622C97.4334 14.971 97.799 14.8806 98.0591 14.6996C98.3154 14.5187 98.6132 14.1719 98.945 13.6554L101.825 9.14697H105.082L101.636 14.5338C100.954 15.4648 100.393 16.0491 99.9439 16.2866C100.472 16.5241 101.063 17.1574 101.719 18.1865L105.289 23.758H102.032V23.7542Z" fill="white"/>
<path d="M109.986 11.1826C111.43 9.72754 113.187 9 115.245 9C117.303 9 119.06 9.72754 120.515 11.1826C121.97 12.6377 122.697 14.3943 122.697 16.4525C122.697 18.5145 121.97 20.2674 120.515 21.7225C119.06 23.1775 117.303 23.9051 115.245 23.9051C113.187 23.9051 111.434 23.1775 109.986 21.7225C108.539 20.2674 107.815 18.5107 107.815 16.4525C107.815 14.3943 108.539 12.6377 109.986 11.1826ZM118.498 13.0486C117.623 12.1589 116.538 11.7141 115.241 11.7141C113.948 11.7141 112.866 12.1589 111.995 13.0486C111.125 13.942 110.691 15.0728 110.691 16.4488C110.691 17.8397 111.125 18.9782 111.995 19.8603C112.866 20.7461 113.948 21.1872 115.241 21.1872C116.549 21.1872 117.638 20.7461 118.509 19.8603C119.376 18.9782 119.814 17.8397 119.814 16.4488C119.814 15.0728 119.376 13.942 118.498 13.0486Z" fill="white"/>
<path d="M131.586 14.4282L127.956 23.758H124.763L130.776 9.14697H132.464L138.39 23.758H135.197L131.586 14.4282Z" fill="white"/>
<path d="M145.466 21.0853L144.422 23.758H141.229L147.241 9.14697H148.93L154.856 23.7542H151.663L150.619 21.0816H145.466V21.0853ZM148.052 14.3641L146.465 18.3486H149.616L148.052 14.3641Z" fill="white"/>
<path d="M72.6896 29.7717L69.9529 36.508H68.9087L72.4333 28H72.9686L76.4818 36.508H75.4377L72.6896 29.7717Z" fill="white" fill-opacity="0.5"/>
<path d="M83.629 36.508H82.7545V31.9129L78.7059 36.508H78.1706V30.4314H79.0565V35.0266L83.1051 30.4314H83.629V36.508Z" fill="white" fill-opacity="0.5"/>
<path d="M92.137 36.508H91.2512V31.9129L89.0158 34.4536L86.7804 31.9129V36.508H85.8945V30.4314H86.4298L89.0195 33.3717L91.6093 30.4314H92.1446V36.508H92.137Z" fill="white" fill-opacity="0.5"/>
<path d="M97.1356 30.3447C98.0026 30.3447 98.7415 30.6501 99.3484 31.2607C99.9553 31.8714 100.261 32.6103 100.261 33.466C100.261 34.3254 99.9553 35.0567 99.3484 35.6674C98.7415 36.2743 98.0026 36.5797 97.1356 36.5797C96.2686 36.5797 95.5335 36.2743 94.9304 35.6674C94.3272 35.0605 94.0257 34.3254 94.0257 33.466C94.0257 32.599 94.331 31.8601 94.9379 31.2532C95.5411 30.6501 96.2761 30.3447 97.1356 30.3447ZM97.1205 31.1967C96.5136 31.1967 95.9896 31.4153 95.5524 31.8488C95.1151 32.2823 94.8964 32.8214 94.8964 33.4735C94.8964 34.1219 95.1113 34.6609 95.5486 35.0907C95.9821 35.5204 96.5061 35.7353 97.1243 35.7353C97.7387 35.7353 98.2665 35.5204 98.7038 35.0907C99.141 34.6609 99.3597 34.1219 99.3597 33.4735C99.3597 32.8251 99.141 32.2861 98.7038 31.8488C98.2627 31.4115 97.7387 31.1967 97.1205 31.1967Z" fill="white" fill-opacity="0.5"/>
<path d="M107.649 36.508H106.763V33.8693H103.031V36.508H102.145V30.4314H103.031V33.0211H106.763V30.4314H107.649V36.508Z" fill="white" fill-opacity="0.5"/>
<path d="M119.282 36.508H118.396V33.8693H114.664V36.508H113.778V30.4314H114.664V33.0211H118.396V30.4314H119.282V36.508Z" fill="white" fill-opacity="0.5"/>
<path d="M127.353 36.5079H126.719L126.682 35.1358C126.448 35.5731 126.109 35.9236 125.671 36.1875C125.234 36.4514 124.748 36.5833 124.213 36.5833C123.353 36.5833 122.633 36.2818 122.049 35.6786C121.465 35.0755 121.174 34.3404 121.174 33.4734C121.174 32.6064 121.465 31.8675 122.049 31.2606C122.633 30.6537 123.353 30.3484 124.213 30.3484C124.74 30.3484 125.223 30.4803 125.664 30.7442C126.105 31.0081 126.444 31.3586 126.678 31.7959L126.716 30.4351H127.349V36.5079H127.353ZM122.705 35.0868C123.138 35.5165 123.662 35.7314 124.28 35.7314C124.895 35.7314 125.423 35.5165 125.86 35.0868C126.297 34.6571 126.516 34.118 126.516 33.4696C126.516 32.8213 126.297 32.2822 125.86 31.8449C125.423 31.4114 124.895 31.1928 124.28 31.1928C123.674 31.1928 123.15 31.4114 122.712 31.8449C122.275 32.2784 122.056 32.8175 122.056 33.4696C122.053 34.118 122.271 34.6571 122.705 35.0868Z" fill="white" fill-opacity="0.5"/>
<path d="M139.118 36.508H138.243V34.1143C137.828 34.8117 137.139 35.1585 136.166 35.1585C134.334 35.1585 133.418 34.1407 133.418 32.1089V30.4314H134.304V32.0599C134.304 32.8289 134.451 33.3981 134.749 33.7675C135.043 34.1369 135.555 34.3216 136.287 34.3216C136.984 34.3216 137.485 34.1332 137.787 33.7487C138.092 33.3679 138.243 32.8779 138.243 32.2785V30.4314H139.118V36.508Z" fill="white" fill-opacity="0.5"/>
<path d="M147.189 36.5079H146.555L146.518 35.1358C146.284 35.5731 145.945 35.9236 145.507 36.1875C145.07 36.4514 144.584 36.5833 144.048 36.5833C143.189 36.5833 142.469 36.2818 141.885 35.6786C141.3 35.0755 141.01 34.3404 141.01 33.4734C141.01 32.6064 141.3 31.8675 141.885 31.2606C142.469 30.6537 143.189 30.3484 144.048 30.3484C144.576 30.3484 145.059 30.4803 145.5 30.7442C145.941 31.0081 146.28 31.3586 146.514 31.7959L146.551 30.4351H147.185V36.5079H147.189ZM142.541 35.0868C142.974 35.5165 143.498 35.7314 144.116 35.7314C144.735 35.7314 145.259 35.5165 145.696 35.0868C146.133 34.6571 146.352 34.118 146.352 33.4696C146.352 32.8213 146.133 32.2822 145.696 31.8449C145.259 31.4114 144.731 31.1928 144.116 31.1928C143.509 31.1928 142.985 31.4114 142.548 31.8449C142.111 32.2784 141.892 32.8175 141.892 33.4696C141.892 34.118 142.107 34.6571 142.541 35.0868Z" fill="white" fill-opacity="0.5"/>
<path d="M154.909 36.508H154.034V31.9128L149.986 36.508H149.45V30.4314H150.336V35.0265L154.385 30.4314H154.909V36.508ZM153.408 29.2703C153.073 29.5757 152.662 29.7264 152.176 29.7264C151.689 29.7264 151.278 29.5757 150.943 29.2703C150.607 28.965 150.438 28.5918 150.438 28.147H151.082C151.082 28.4146 151.188 28.637 151.399 28.8142C151.61 28.9914 151.87 29.0818 152.176 29.0818C152.485 29.0818 152.745 28.9914 152.96 28.8142C153.175 28.637 153.28 28.4146 153.28 28.147H153.913C153.913 28.5918 153.744 28.965 153.408 29.2703Z" fill="white" fill-opacity="0.5"/>
</svg>
