<svg width="279" height="330" viewBox="0 0 279 330" fill="none" xmlns="http://www.w3.org/2000/svg">
<circle cx="101.495" cy="35.3221" r="34.875" stroke="url(#paint0_linear)" stroke-width="0.894231"/>
<circle cx="181.082" cy="35.3221" r="34.875" stroke="url(#paint1_linear)" stroke-width="0.894231"/>
<circle cx="243.678" cy="82.7164" r="34.875" stroke="url(#paint2_linear)" stroke-width="0.894231"/>
<path d="M83.3669 198.559L91.1227 209.935V210.969L100.947 226.48L113.356 234.236L124.731 240.958L143.862 245.094H167.647L177.471 235.27L181.09 229.583L190.397 213.037L193.499 201.145L196.602 190.287V174.775L193.499 158.229L187.295 141.167L179.539 128.24L169.198 118.933L157.823 112.212L151.618 103.422L146.447 95.6659L140.76 93.5977L135.072 95.6659L130.936 99.2852L126.799 106.524L122.663 110.143L112.839 116.348L100.947 126.689L92.6739 137.547L84.401 160.297L81.8158 180.98L83.3669 198.559Z" fill="#FAF477"/>
<path d="M67.4269 270.595C67.0753 267.886 66.7754 265.114 66.1963 262.436C66.9512 262.446 70.1362 263.687 70.5602 265.611C70.9014 267.162 68.7712 270.181 67.4269 270.585V270.595ZM60.3846 255.011L60.7879 256.893C59.8055 257.017 58.9575 256.769 58.8438 256.593C58.7507 256.035 60.033 255.115 60.3846 255.011ZM59.4539 250.285C59.1643 250.513 58.7507 250.699 58.3991 250.937C58.0061 251.195 57.789 251.371 57.4477 251.65C56.1034 252.736 54.3971 254.556 54.18 256.324C54.0145 257.7 54.2834 258.765 55.3278 259.654C56.3619 260.544 57.9958 260.957 59.3505 261.185C60.095 261.309 60.9637 261.371 61.6152 261.547L63.3008 272.653C61.2946 273.087 57.9027 272.912 56.4446 271.185C58.2026 269.706 56.3206 265.931 53.8077 266.469C50.4675 267.193 49.8471 273.48 56.1344 276.231C58.3267 277.193 60.7879 277.679 63.8799 277.007C64.2418 278.703 64.2935 279.726 64.6554 281.857C65.0484 283.697 67.9025 284.038 68.7609 282.146C69.1228 281.35 68.3472 277.451 68.1094 275.466C68.492 275.166 69.1021 274.856 69.5468 274.556C70.3947 273.997 71.4288 273.108 72.132 272.394C73.8797 270.636 75.5446 267.617 74.9034 264.68C74.4071 262.405 72.8559 260.895 71.0772 259.747C69.8467 258.951 66.6099 257.7 65.4103 257.679C65.0794 256.138 64.8106 254.66 64.5107 253.129C65.5241 252.84 66.8374 252.995 67.5406 253.46C67.5303 254.277 67.7888 254.897 68.4299 255.394C69.5881 256.293 72.5457 255.89 71.7804 252.364C71.5736 251.433 71.1083 250.833 70.5912 250.327C68.8229 248.61 66.1756 248.289 63.5903 248.848L62.7734 245.084C62.5976 244.256 62.4218 243.367 61.9564 242.953C60.8086 241.961 59.3298 242.116 58.4818 243.481C57.9855 244.608 58.8024 247.359 59.4229 250.285H59.4539Z" fill="#3EC827"/>
<path d="M138.924 329.084C181.381 329.084 215.799 319.963 215.799 308.712C215.799 297.461 181.381 288.34 138.924 288.34C96.4669 288.34 62.0486 297.461 62.0486 308.712C62.0486 319.963 96.4669 329.084 138.924 329.084Z" fill="#E4E4E4"/>
<path fill-rule="evenodd" clip-rule="evenodd" d="M34.1892 228.362C34.7476 228.724 35.0889 231.165 33.5894 231.578L34.1892 228.362ZM30.6629 218.311C30.8491 217.732 31.5316 217.256 32.0796 217.039C32.1934 216.997 32.2141 216.987 32.3278 216.956C32.121 217.639 32.1727 219.49 31.8832 220.379C31.4488 219.924 30.4251 219.045 30.6629 218.311ZM33.3206 209.086C33.0414 209.945 32.7725 212.168 32.7001 213.057C29.4427 213.616 25.7923 216.449 27.3228 220.224C28.2431 222.488 30.0114 223.419 31.2834 224.743L29.8667 231.34C29.029 231.041 27.9536 229.975 28.15 229.179C28.9877 229.034 29.3806 228.559 29.5564 227.742C29.7219 226.935 29.4117 225.984 28.2224 225.653C27.602 225.487 26.7954 225.518 26.2266 225.808C25.3683 226.253 24.9133 227.039 24.6134 227.938C24.117 229.438 24.7582 231.278 25.42 232.219C26.2369 233.378 27.4158 234.401 29.2772 235.022C29.2462 235.353 29.1945 235.735 29.1635 236.056C29.0497 237.1 28.6671 238.072 29.422 238.9C29.908 239.437 30.7663 239.551 31.273 239.427C31.7798 239.303 31.9556 239.2 32.1934 238.641C32.4312 238.093 32.6898 236.532 32.9276 235.477C33.7652 235.549 35.2647 234.887 35.9472 234.443C38.1292 233.047 38.822 230.244 37.9637 227.793C37.3743 226.118 36.5263 225.063 35.4405 223.75C35.0372 223.326 35.2026 223.45 35.3371 222.313L35.7404 219.19C35.8128 218.455 35.8645 217.794 35.9265 217.09C37.4467 218.021 36.5263 218.486 36.2988 219.19C35.5336 221.506 39.0702 223.006 40.2284 219.5C40.4559 218.817 40.4559 218.269 40.4145 217.69C40.2904 216.025 39.1116 214.743 37.6535 213.885C36.3815 213.14 36.2678 213.523 36.3712 212.82C36.4539 212.178 36.5366 211.63 36.6401 210.969C36.7435 210.255 36.9089 209.748 36.7435 209.066C36.185 207.453 33.848 207.328 33.3309 209.097L33.3206 209.086Z" fill="#3EC827"/>
<path fill-rule="evenodd" clip-rule="evenodd" d="M215.719 154.806C217.228 155.819 218.8 157.825 218.8 159.759C218.8 161.569 218.521 161.962 217.011 162.686L215.708 154.816L215.719 154.806ZM211.582 149.284C210.962 149.273 209.71 148.922 209.224 148.394C209.535 147.929 210.455 147.05 210.941 146.843C211.324 146.678 211.231 146.947 211.365 147.888L211.582 149.294V149.284ZM210.207 138.488C210.207 139.677 210.414 140.918 210.548 142.128C210.579 142.459 210.693 142.903 210.693 143.276C208.749 144.299 205.822 146.026 205.822 148.549C205.822 150.969 208.728 151.755 210.372 152.355L211.923 152.913C212.192 153.048 212.161 153.017 212.213 153.358L213.568 161.745C213.64 162.158 213.743 162.624 213.774 162.996C212.037 162.996 210.434 161.827 209.721 160.318C210.817 159.583 211.044 157.226 209.152 156.75C206.711 156.14 204.488 161.052 208.997 164.537C210.362 165.592 212.389 166.326 214.271 166.326C214.395 167.794 214.519 169.811 216.215 169.811C216.763 169.811 217.29 169.5 217.518 169.17C217.901 168.621 218.066 168.249 217.745 166.957C217.663 166.615 217.59 166.264 217.508 165.922C218.521 165.84 220.02 164.795 220.734 164.04C221.458 163.265 222.13 161.714 222.13 160.245C222.13 156.667 219.958 153.73 217.704 152.179C215.946 150.969 215.408 151 215.088 150.628C214.902 150.235 214.891 149.397 214.54 146.988C214.478 146.543 214.374 146.099 214.343 145.726C217.115 145.726 217.611 147.05 217.166 147.567C216.763 148.032 216.618 148.125 216.618 148.891C216.618 151.062 220.6 151.155 220.6 147.184C220.6 145.685 219.731 144.403 218.862 143.731C217.332 142.541 215.905 142.479 213.867 142.479L213.516 139.098C213.402 138.188 213.402 136.864 211.758 136.885C210.889 136.895 210.217 137.65 210.217 138.508L210.207 138.488Z" fill="#3EC827"/>
<path fill-rule="evenodd" clip-rule="evenodd" d="M211.258 268.445L212.396 260.265C212.83 260.586 213.719 261.878 214.019 262.385C216.998 267.38 212.396 267.897 211.258 268.445ZM209.325 252.881C204.743 250.451 209.273 248.714 209.666 248.683C209.666 250.151 209.325 251.423 209.325 252.881ZM210.007 244.474C208.032 244.474 205.136 246.284 204.082 247.969C202.603 250.327 203.11 252.726 205.043 254.67C206.088 255.715 207.525 256.48 208.766 257.307L207.287 268.321C205.664 268.321 202.365 266.956 202.065 265.818C202.758 264.877 203.43 265.622 203.43 262.974C203.43 262.313 202.603 260.927 201.269 260.927C200.152 260.927 199.604 261.32 198.87 262.385C197.443 264.453 197.691 267.287 199.594 269.189C200.845 270.441 202.634 271.32 204.361 271.806C207.101 272.571 206.801 271.733 206.45 274.163C206.274 275.342 206.16 275.373 206.16 276.707C206.16 279.448 210.245 279.779 210.255 276.48C210.255 275.084 210.71 273.398 210.71 272.498C212.52 272.498 214.878 271.506 216.294 270.472C220.255 267.566 219.397 262.933 216.842 259.324C216.046 258.207 214.226 256.056 213.099 255.467C213.099 254.474 213.668 249.955 213.782 248.538C214.268 248.58 214.919 248.9 215.26 249.107C216.584 249.924 215.539 250.865 216.532 251.92C219.283 254.836 222.964 248.259 216.356 245.167C215.498 244.764 215.033 244.66 214.123 244.454L214.237 241.382C214.237 239.159 210.896 238.652 210.359 241.134L210.038 244.443L210.007 244.474Z" fill="#3EC827"/>
<path fill-rule="evenodd" clip-rule="evenodd" d="M64.9021 154.248C65.3571 154.372 67.8286 156.523 67.8286 157.785C67.8286 158.902 66.3809 159.802 65.6053 160.215L65.0572 155.81C64.9848 155.262 64.9021 154.817 64.9021 154.248ZM60.259 145.562C60.3624 146.441 60.4968 147.268 60.5589 148.085C59.6075 147.837 58.956 147.589 58.2321 147.175C58.3769 146.617 59.804 145.717 60.2486 145.562H60.259ZM59.2455 139.295C59.2455 140.774 59.5661 140.929 59.6488 141.922C58.2942 142.242 52.4928 145.521 55.3056 149.202C56.1949 150.371 59.8143 151.839 61.0656 152.128C61.0656 152.604 61.1276 152.78 61.1793 153.235C61.3551 154.776 61.9342 160.06 62.1824 161.125C60.3831 161.125 58.3562 159.771 57.7358 158.602C58.9043 157.816 59.0904 156.161 58.0977 155.241C56.8981 154.135 55.4607 154.404 54.4783 155.551C53.0099 157.371 54.106 160.195 55.5848 161.663C57.9529 164.01 59.5868 164.29 60.8277 164.476C62.0687 164.672 61.8618 164.589 62.4823 164.662C63.3613 164.848 62.4409 169.108 65.1089 169.108C66.0396 169.108 66.929 168.167 66.929 167.185C66.929 165.82 66.2258 165.21 66.2258 163.855C66.8255 163.804 68.3043 162.8 68.811 162.397C71.3653 160.401 72.2546 157.475 70.4553 154.776C70.2071 154.414 69.9796 154.042 69.69 153.721C68.0251 151.849 66.4636 150.846 64.3127 149.709L63.7025 144.755C64.4057 144.776 65.3881 145.159 65.7397 145.552C65.8328 145.665 65.9259 145.82 66.0396 145.955C67.8907 148.22 71.51 144.59 66.9807 142.087C65.9983 141.539 64.5609 141.126 63.0924 141.126C63.0821 140.753 62.7408 139.088 62.6167 138.768C61.9135 136.948 59.2455 137.413 59.2455 139.306V139.295Z" fill="#3EC827"/>
<path fill-rule="evenodd" clip-rule="evenodd" d="M243.513 233.512C242.944 230.958 242.623 228.59 242.096 226.243C242.83 226.532 243.988 227.153 244.609 227.639C245.188 228.094 246.377 229.097 246.574 230.017C246.822 231.155 244.723 233.213 243.513 233.502V233.512ZM236.781 220.576C236.925 220.038 237.049 219.842 237.473 219.49L238.011 221.444C237.701 221.434 237.598 221.331 237.349 221.155C237.205 221.052 237.194 221.052 237.06 220.938C237.039 220.917 236.936 220.803 236.905 220.772C236.853 220.7 236.791 220.596 236.77 220.576H236.781ZM236.646 216.243C235.84 216.884 235.281 217.132 234.547 218.135C233.409 219.697 233.399 221.538 234.754 222.954C235.457 223.688 236.398 224.175 237.308 224.547C239.397 225.395 238.373 223.978 239.666 229.8C239.79 230.348 239.728 230.452 239.8 230.907L240.338 233.285C240.431 233.792 240.359 233.854 240.483 234.391C240.214 234.329 239.542 234.371 239.159 234.34C238.218 234.247 237.577 234.092 236.75 233.595C236.336 233.347 236.088 233.213 235.86 232.727C237.835 233.182 238.518 230.41 236.719 229.5C235.385 228.818 233.751 229.448 233.079 230.617C232.127 232.261 232.81 234.35 234.123 235.457C234.805 236.025 235.343 236.346 236.139 236.698C236.791 236.987 237.732 237.256 238.528 237.349C238.963 237.401 239.449 237.411 239.842 237.421C240.317 237.432 240.886 237.339 241.279 237.432C241.631 239.014 241.982 240.596 243.564 240.245C245.602 239.79 244.402 237.483 244.195 236.573C244.816 236.418 245.922 235.746 246.387 235.415C247.484 234.64 248.818 233.244 249.283 231.992C250.069 229.883 249.5 228.352 248.083 226.698C247.804 226.367 247.463 226.067 247.142 225.777C245.622 224.423 243.358 223.285 241.424 222.747L240.648 219.283C240.524 218.745 240.41 218.642 240.307 218.218C241.041 218.053 243.233 218.197 243.461 218.859C243.502 218.963 242.737 220.441 243.823 221.227C244.919 222.024 247.039 220.917 246.429 218.197C246.222 217.256 245.415 216.284 244.805 215.933C244.03 215.488 243.047 215.25 242.148 215.167C239.583 214.909 239.614 215.736 239.376 214.588C239.169 213.585 238.787 212.427 237.411 212.737C235.622 213.141 236.388 215.147 236.636 216.233L236.646 216.243Z" fill="#3EC827"/>
<path fill-rule="evenodd" clip-rule="evenodd" d="M112.172 155.551C112.348 154.61 112.7 154.103 113.165 153.937C114.23 153.565 115.223 153.596 117.663 157.06C119.514 159.697 125.812 158.012 126.97 158.912C128.128 159.811 126.929 161.548 124.602 162.407C122.275 163.255 119.214 163.472 116.174 162.004C114.344 161.125 111.603 158.622 112.183 155.551H112.172Z" fill="black"/>
<path fill-rule="evenodd" clip-rule="evenodd" d="M139.016 176.791C136.317 176.791 133.929 175.933 132.502 174.62C132.491 174.733 132.481 174.857 132.481 174.971C132.481 177.753 135.407 179.997 139.016 179.997C142.625 179.997 145.552 177.743 145.552 174.971C145.552 174.847 145.542 174.733 145.531 174.62C144.104 175.933 141.715 176.791 139.016 176.791Z" fill="black"/>
<path d="M140.779 106.354C142.835 108.791 145.722 109.737 147.227 108.467C148.732 107.197 148.285 104.192 146.228 101.755C144.172 99.3186 141.285 98.3728 139.78 99.6428C138.275 100.913 138.722 103.918 140.779 106.354Z" fill="#FFFA9E"/>
<path d="M105.553 173.508C109.891 174.783 114.046 173.645 114.834 170.966C115.621 168.286 112.743 165.081 108.404 163.806C104.066 162.531 99.9105 163.669 99.1231 166.349C98.3357 169.028 101.214 172.233 105.553 173.508Z" fill="#FFFA9E"/>
<path fill-rule="evenodd" clip-rule="evenodd" d="M165.863 155.551C165.687 154.61 165.336 154.103 164.87 153.937C163.805 153.565 162.812 153.596 160.372 157.06C158.521 159.697 152.223 158.012 151.065 158.912C149.907 159.811 151.106 161.548 153.433 162.407C155.76 163.255 158.821 163.472 161.861 162.004C163.691 161.125 166.432 158.622 165.853 155.551H165.863Z" fill="black"/>
<path d="M172.475 173.508C168.136 174.783 163.981 173.645 163.194 170.966C162.406 168.286 165.285 165.081 169.623 163.806C173.962 162.531 178.117 163.669 178.904 166.349C179.692 169.028 176.813 172.233 172.475 173.508Z" fill="#FFFA9E"/>
<path fill-rule="evenodd" clip-rule="evenodd" d="M121.727 232.281C108.48 225.963 94.6747 215.156 85.0576 197.328C86.1537 204.04 88.0358 210.327 90.7762 216.273C98.6147 233.253 105.905 241.578 122.285 249.706C123.981 250.543 125.605 251.35 127.094 252.177C128.169 252.767 129.235 253.532 130.362 254.328C132.947 256.159 135.842 258.217 139.245 258.289C141.323 258.33 143.278 257.793 145.015 256.965C147.321 255.869 149.431 254.597 150.837 253.118C153.919 249.882 159.72 247.358 163.836 245.301C170.475 241.981 176.41 234.68 180.961 227.286C160.578 238.082 138.242 240.171 121.737 232.302L121.727 232.281Z" fill="#EDD653"/>
<path fill-rule="evenodd" clip-rule="evenodd" d="M231.776 183.368C233.048 181.807 233.131 179.769 231.962 178.808C230.794 177.856 228.808 178.342 227.536 179.914C226.265 181.476 226.182 183.513 227.35 184.475C228.519 185.426 230.504 184.94 231.776 183.368ZM46.0716 183.368C44.7996 181.807 44.7169 179.769 45.8855 178.808C47.054 177.856 49.0395 178.342 50.3114 179.914C51.5834 181.476 51.6661 183.513 50.4976 184.475C49.329 185.426 47.3435 184.94 46.0716 183.368ZM35.017 187.732C35.9167 190.927 45.5028 192.851 47.9743 192.685L67.2604 220.317L81.3966 199.965C82.7306 206.263 84.7265 212.24 87.2807 217.762C90.2176 224.112 93.8886 229.872 98.1492 234.856L111.634 300.656C107.497 301.453 104.437 304.203 104.437 307.471C104.437 308.95 105.067 310.325 106.132 311.463C110.838 312.424 116.091 312.497 121.872 311.68C123.071 310.501 123.785 309.053 123.785 307.471C123.785 303.986 120.3 301.091 115.739 300.522C113.175 289.364 112.12 271.288 112.43 247.214C112.771 247.421 113.123 247.638 113.485 247.845C116.06 249.354 118.552 250.595 120.899 251.764C122.533 252.57 124.105 253.356 125.584 254.173C126.525 254.69 127.507 255.394 128.542 256.128C131.489 258.217 134.798 260.564 139.151 260.657C141.778 260.709 144.188 260.057 146.318 259.044C149.006 257.762 151.25 255.9 152.874 254.184C154.756 252.208 158.779 250.337 162.212 248.744C163.225 248.279 164.177 247.834 165.18 247.328L165.242 247.296C165.542 271.329 164.487 289.374 161.933 300.522C157.362 301.091 153.887 303.976 153.887 307.471C153.887 309.043 154.601 310.501 155.801 311.68C161.592 312.507 166.834 312.435 171.54 311.463C172.615 310.325 173.236 308.95 173.236 307.471C173.236 304.203 170.185 301.463 166.038 300.656L179.482 235.063C184.063 229.748 187.972 223.553 191.022 216.677C193.349 211.434 195.179 205.798 196.431 199.883L210.556 220.306L229.843 192.675C232.314 192.84 241.9 190.917 242.8 187.722C243.286 186.005 244.847 181.434 244.258 179.149C243.079 174.578 241.249 176.864 239.077 179.108C237.888 180.338 236.988 181.9 235.313 182.396C236.078 180.659 236.254 179.842 235.809 178.146C235.365 176.45 232.19 173.647 229.16 175.84C228.519 176.305 228.25 176.646 227.991 177.546C225.696 177.112 224.548 178.094 222.914 182.53C221.249 187.039 223.834 189.78 226.42 191.858C219.884 199.593 214.362 204.795 209.864 207.452L198.364 182.241C198.364 181.858 198.375 181.476 198.375 181.103C198.375 171.962 197.03 163.203 194.58 155.106C192.036 146.699 188.282 139.026 183.597 132.407C181.312 129.181 178.82 126.213 176.131 123.535C173.453 120.856 170.578 118.468 167.548 116.399C166.793 115.882 165.852 115.283 164.89 114.662C162.305 113.008 159.544 111.239 157.765 109.274C156.359 107.713 155.004 105.521 153.619 103.277C150.227 97.7751 146.659 91.9738 140.506 92.1082C134.25 92.2427 131.303 96.648 128.128 101.405C126.504 103.835 124.819 106.369 122.606 108.292C120.455 110.164 117.756 111.767 115.098 113.359C113.723 114.176 112.358 114.993 111.013 115.882C107.942 117.909 105.036 120.246 102.327 122.873C99.6176 125.5 97.084 128.426 94.7573 131.611C89.8867 138.291 85.9984 146.068 83.3511 154.62C80.7969 162.851 79.4008 171.786 79.4008 181.114C79.4008 181.486 79.4008 181.858 79.4112 182.231L67.9119 207.463C63.4135 204.805 57.9018 199.604 51.3559 191.868C53.9411 189.79 56.5264 187.049 54.8615 182.541C53.2276 178.104 52.0797 177.132 49.784 177.556C49.5255 176.657 49.267 176.315 48.6155 175.85C45.5856 173.658 42.4109 176.46 41.9662 178.156C41.5215 179.852 41.6973 180.669 42.4626 182.406C40.7873 181.92 39.898 180.348 38.6984 179.118C36.5268 176.874 34.6964 174.589 33.5176 179.159C32.9281 181.445 34.4896 186.015 34.9756 187.732H35.017ZM151.023 104.9C148.086 100.133 144.984 95.0968 140.599 95.1899C135.956 95.2933 133.443 99.0471 130.734 103.121C128.997 105.717 127.187 108.426 124.664 110.629C122.316 112.677 119.503 114.352 116.722 116.006C115.336 116.834 113.971 117.651 112.74 118.457C109.845 120.36 107.094 122.583 104.519 125.086C101.913 127.609 99.4935 130.401 97.2909 133.421C92.627 139.822 89.9177 147.433 87.3634 155.654C84.9126 163.586 83.8371 172.479 83.8371 181.517C83.8371 194.402 85.9674 205.87 90.776 216.263C98.6145 233.243 105.905 241.568 122.285 249.696C123.981 250.533 125.605 251.34 127.094 252.167C128.169 252.757 129.234 253.522 130.362 254.318C132.947 256.148 135.842 258.206 139.245 258.279C141.323 258.32 143.278 257.782 145.015 256.955C147.321 255.859 149.43 254.587 150.837 253.108C153.918 249.871 159.72 247.348 163.836 245.29C174.197 240.109 182.842 225.239 187.175 215.456C191.684 205.291 194.259 193.595 194.259 181.114C194.259 172.262 192.966 163.803 190.609 156.006C188.158 147.919 185.614 140.535 181.115 134.186C178.954 131.125 176.565 128.292 173.99 125.727C171.447 123.193 168.717 120.918 165.842 118.954C164.952 118.344 164.125 117.816 163.267 117.268C160.516 115.51 157.569 113.628 155.511 111.353C153.898 109.574 152.481 107.268 151.023 104.91V104.9Z" fill="black"/>
<path fill-rule="evenodd" clip-rule="evenodd" d="M177.206 129.202C194 172.707 191.849 206.936 170.753 231.889C174.176 230.586 177.588 229.045 180.939 227.277C183.493 223.13 185.603 218.962 187.164 215.457C191.673 205.291 194.248 193.596 194.248 181.114C194.248 172.262 192.955 163.803 190.597 156.006C188.147 147.919 185.603 140.536 181.104 134.186C179.874 132.449 178.571 130.784 177.206 129.202Z" fill="#FFFA9E"/>
<path fill-rule="evenodd" clip-rule="evenodd" d="M247.919 159.749C248.136 159.904 249.046 161.549 248.798 162.221C248.581 162.821 247.63 163.017 247.133 163.089L247.702 160.618C247.774 160.308 247.805 160.06 247.919 159.749ZM247.123 154.175C247.009 154.662 246.916 155.137 246.792 155.592C246.327 155.272 246.027 155.013 245.727 154.651C245.913 154.382 246.864 154.175 247.133 154.175H247.123ZM247.805 150.618C247.516 151.414 247.661 151.559 247.506 152.107C246.72 152.014 242.956 152.635 243.741 155.158C243.99 155.964 245.644 157.454 246.265 157.857C246.172 158.115 246.172 158.219 246.11 158.467C245.903 159.325 245.179 162.283 245.096 162.903C244.134 162.552 243.307 161.425 243.204 160.68C243.99 160.484 244.414 159.636 244.062 158.953C243.628 158.126 242.811 157.991 242.056 158.405C240.908 159.098 240.949 160.825 241.446 161.9C242.252 163.627 243.08 164.093 243.71 164.444C244.341 164.785 244.238 164.713 244.569 164.868C245.003 165.147 243.679 167.247 245.106 167.774C245.603 167.96 246.265 167.619 246.461 167.102C246.73 166.368 246.471 165.902 246.73 165.168C247.061 165.261 248.054 165.003 248.405 164.889C250.174 164.32 251.218 162.924 250.784 161.125C250.722 160.876 250.67 160.639 250.577 160.411C250.049 159.077 249.408 158.24 248.478 157.195L249.119 154.413C249.491 154.558 249.946 154.961 250.06 155.241C250.091 155.323 250.112 155.416 250.143 155.52C250.691 157.102 253.348 155.861 251.404 153.627C250.98 153.141 250.287 152.635 249.512 152.345C249.584 152.138 249.719 151.187 249.719 150.99C249.698 149.874 248.178 149.605 247.805 150.618Z" fill="#3EC827"/>
<path d="M204.732 40.0075L199.416 35.3179L204.544 30.4258C204.732 30.246 204.81 29.9801 204.748 29.7279C204.685 29.4759 204.493 29.2761 204.242 29.2037L197.416 27.234L199.939 20.6279C200.032 20.3852 199.987 20.1119 199.822 19.9107C199.657 19.7096 199.397 19.6112 199.139 19.6528L192.124 20.7838L191.553 13.7405C191.532 13.4817 191.374 13.2537 191.138 13.1424C190.902 13.0312 190.624 13.0534 190.41 13.2008L184.56 17.2137L181.006 11.0942C180.876 10.8694 180.634 10.731 180.373 10.731C180.112 10.731 179.871 10.8694 179.74 11.0942L175.661 18.1188L168.605 14.0465C168.38 13.9161 168.101 13.9156 167.875 14.0448C167.648 14.174 167.509 14.4135 167.508 14.6731L167.491 21.7392L160.408 21.1554C160.149 21.134 159.896 21.2522 159.747 21.4654C159.599 21.6787 159.576 21.9547 159.687 22.1895L162.72 28.5799L156.069 31.0727C155.825 31.1643 155.648 31.3785 155.606 31.6347C155.563 31.8907 155.662 32.1499 155.864 32.3144L161.36 36.7943L156.427 41.8816C156.246 42.0685 156.179 42.3373 156.251 42.5867C156.323 42.8362 156.524 43.0284 156.777 43.0909L163.674 44.7946L161.413 51.4933C161.33 51.7394 161.385 52.0108 161.558 52.2054C161.731 52.4 161.995 52.4882 162.251 52.4366L169.216 51.0347L170.063 58.0506C170.094 58.3083 170.261 58.5299 170.501 58.632C170.741 58.7341 171.018 58.7011 171.227 58.5455L176.914 54.3088L180.705 60.0907C180.84 60.3022 181.073 60.4297 181.323 60.4297C181.333 60.4297 181.342 60.4295 181.352 60.4291C181.613 60.419 181.849 60.2713 181.97 60.0416L185.281 53.9841L191.283 57.7672C191.504 57.9062 191.782 57.9177 192.014 57.7973C192.245 57.6769 192.394 57.443 192.405 57.1836L192.699 50.1235L199.753 50.9816C200.012 51.013 200.269 50.9048 200.426 50.6975C200.583 50.49 200.617 50.2151 200.515 49.9762L197.735 43.473L204.478 41.2401C204.725 41.1581 204.91 40.951 204.963 40.6966C205.015 40.4425 204.927 40.1797 204.732 40.0075Z" fill="#FFA600"/>
<path d="M180.127 50.494C188.44 50.494 195.179 43.7601 195.179 35.4534C195.179 27.1467 188.44 20.4128 180.127 20.4128C171.814 20.4128 165.074 27.1467 165.074 35.4534C165.074 43.7601 171.814 50.494 180.127 50.494Z" fill="#FFDB2D"/>
<path d="M180.127 20.4128C179.75 20.4128 179.377 20.4271 179.007 20.4544C186.796 21.0272 192.938 27.5234 192.938 35.4534C192.938 43.3834 186.796 49.8796 179.007 50.4525C179.377 50.4797 179.75 50.494 180.127 50.494C188.44 50.494 195.179 43.7601 195.179 35.4535C195.179 27.1467 188.44 20.4128 180.127 20.4128Z" fill="#FFCA00"/>
<path fill-rule="evenodd" clip-rule="evenodd" d="M96.0203 54.1469C94.3218 55.5544 91.8059 56.0111 89.4291 55.1297C87.2151 54.3097 85.6661 52.5284 85.1667 50.5281C85.0438 50.0394 85.0198 50.1035 85.4311 49.8124C87.1136 48.6212 89.4505 48.2821 91.6644 49.102C94.0413 49.9834 95.6517 51.9704 96.0203 54.1469Z" fill="#B3E59F"/>
<path fill-rule="evenodd" clip-rule="evenodd" d="M106.85 54.1469C108.549 55.5544 111.064 56.0111 113.441 55.1297C115.655 54.3097 117.204 52.5284 117.704 50.5281C117.827 50.0394 117.851 50.1035 117.439 49.8124C115.757 48.6212 113.42 48.2821 111.206 49.102C108.829 49.9834 107.219 51.9704 106.85 54.1469Z" fill="#B3E59F"/>
<path fill-rule="evenodd" clip-rule="evenodd" d="M92.8932 45.8224C94.3247 45.9639 95.8496 45.2909 96.811 43.9449C97.7057 42.6924 97.8926 41.1647 97.4307 39.9015C97.3186 39.5943 97.3532 39.6184 97.0247 39.613C95.6814 39.5836 94.2953 40.2539 93.4006 41.5065C92.4392 42.8527 92.2977 44.5138 92.8932 45.8224Z" fill="#B3E59F"/>
<path fill-rule="evenodd" clip-rule="evenodd" d="M109.977 45.8224C108.546 45.9639 107.021 45.2909 106.059 43.9449C105.165 42.6924 104.978 41.1647 105.44 39.9015C105.552 39.5943 105.517 39.6184 105.846 39.613C107.189 39.5836 108.575 40.2539 109.47 41.5065C110.431 42.8527 110.573 44.5138 109.977 45.8224Z" fill="#B3E59F"/>
<path d="M88.8924 42.1393C88.6253 41.8563 88.6361 41.4103 88.9164 41.1432C89.1996 40.8761 89.6456 40.8868 89.9152 41.1672C92.2226 43.5869 94.0173 45.8089 95.2459 48.5651C96.4745 51.3239 97.118 53.8744 97.118 58.3372C97.118 58.727 96.8002 59.0422 96.4103 59.0422C96.0204 59.0422 95.7053 58.727 95.7053 58.3372C95.7053 54.0801 95.1044 51.7111 93.9586 49.1393C92.8129 46.5647 91.101 44.4521 88.8924 42.1393Z" fill="#66B394"/>
<path fill-rule="evenodd" clip-rule="evenodd" d="M81.2944 34.4745C82.2959 33.4035 84.4832 34.3756 85.4553 35.03C86.2911 35.5935 86.2725 35.3959 86.3473 34.4878C86.4408 33.3368 87.0363 31.1067 88.4624 30.9785C89.8405 30.8957 91.0984 33.1578 91.2719 36.0288C91.539 40.4114 88.4303 43.9234 84.0478 44.1905C81.1741 44.3668 78.7785 43.3919 78.6931 42.0138C78.645 40.5477 80.8804 39.6903 82.0314 39.466C83.0115 39.2737 82.8514 39.1294 82.2745 38.4511C81.5294 37.5724 80.3757 35.5694 81.2944 34.4745Z" fill="#62D9FA"/>
<path fill-rule="evenodd" clip-rule="evenodd" d="M87.3861 31.5901C87.7013 31.2215 88.0644 31.0052 88.4624 30.9785C89.8405 30.8957 91.0984 33.1578 91.2719 36.0288C91.539 40.4114 88.4303 43.9234 84.0478 44.1905C83.4015 44.2305 82.7818 44.2119 82.2077 44.1424C86.3152 43.643 89.1727 40.2379 88.9163 36.0288C88.7989 34.0952 88.1927 32.4393 87.3861 31.5901Z" fill="#54D0F2"/>
<path d="M112.955 41.1672C113.225 40.8868 113.671 40.8761 113.951 41.1432C114.234 41.4103 114.245 41.8562 113.978 42.1393C111.769 44.4521 110.057 46.5647 108.912 49.1392C107.766 51.711 107.165 54.08 107.165 58.3371C107.165 58.7269 106.85 59.0421 106.46 59.0421C106.07 59.0421 105.752 58.7269 105.752 58.3371C105.752 53.8743 106.396 51.3238 107.625 48.565C108.853 45.8089 110.648 43.5869 112.955 41.1672Z" fill="#66B394"/>
<path fill-rule="evenodd" clip-rule="evenodd" d="M121.576 34.4745C120.593 33.4223 118.47 34.3382 117.506 34.9792C116.582 35.5907 116.598 35.3958 116.51 34.3863C116.408 33.2513 115.802 31.104 114.408 30.9785C113.03 30.8957 111.772 33.1578 111.598 36.0288C111.331 40.4114 114.44 43.9234 118.822 44.1905C121.696 44.3668 124.092 43.3919 124.177 42.0138C124.223 40.6357 122.236 39.7865 121.138 39.5488C120.866 39.4874 120.051 39.4099 120.193 38.9987C120.273 38.769 120.796 38.2055 120.98 37.941C121.576 37.0784 122.385 35.4386 121.576 34.4745Z" fill="#62D9FA"/>
<path d="M100.75 33.289C100.75 32.8992 101.065 32.5813 101.455 32.5813C101.848 32.5813 102.163 32.8992 102.163 33.289L102.141 58.3375C102.141 58.7274 101.826 59.0425 101.434 59.0425C101.044 59.0425 100.729 58.7274 100.729 58.3375L100.75 33.289Z" fill="#66B394"/>
<path fill-rule="evenodd" clip-rule="evenodd" d="M101.455 10.8044C102.87 10.8472 103.688 13.1788 103.992 14.271C104.331 15.4942 104.753 15.147 105.661 14.6396C106.588 14.1241 108.639 13.2855 109.571 14.1669C110.519 15.171 109.518 17.3343 108.965 18.3038C108.359 19.3693 108.578 19.5136 109.699 19.8234C110.749 20.1118 112.893 20.9478 112.933 22.283C112.893 23.6425 110.655 24.4917 109.59 24.7828C108.417 25.1007 108.46 25.3757 109.029 26.3746C109.566 27.3174 110.484 29.4325 109.571 30.3994C108.57 31.3448 106.406 30.3433 105.437 29.7958C104.39 29.2029 104.219 29.4486 103.917 30.533C103.629 31.5799 102.782 33.7218 101.455 33.7592C100.072 33.7191 99.2623 31.4838 98.9578 30.4075C98.576 29.0534 98.1486 29.4406 97.1391 29.9855C96.2258 30.4769 94.2494 31.2567 93.3414 30.3995C92.4281 29.43 93.3467 27.3201 93.8835 26.3747C94.5485 25.2023 94.3188 25.05 93.0903 24.7081C92.0648 24.4197 90.0163 23.5758 89.9789 22.2831C90.019 20.9104 92.2543 20.0771 93.3254 19.7833C94.7087 19.4041 94.3001 18.9848 93.7526 17.9646C93.2612 17.0539 92.4841 15.0749 93.3414 14.1669C94.3295 13.2322 96.5168 14.2149 97.4729 14.7651C98.5518 15.3847 98.6827 15.139 98.9898 14.0254C99.2783 12.9811 100.136 10.8418 101.455 10.8044V10.8044Z" fill="#FD91BA"/>
<path fill-rule="evenodd" clip-rule="evenodd" d="M101.455 26.5883C103.829 26.5883 105.763 24.6547 105.763 22.2831C105.763 19.9116 103.829 17.9753 101.455 17.9753C99.0834 17.9753 97.1498 19.9116 97.1498 22.2831C97.1498 24.6546 99.0834 26.5883 101.455 26.5883Z" fill="#FCBF66"/>
<path fill-rule="evenodd" clip-rule="evenodd" d="M107.234 24.7827C106.062 25.1006 106.105 25.3756 106.674 26.3745C107.21 27.3173 108.129 29.4324 107.216 30.3992C107.165 30.4473 107.112 30.4901 107.055 30.5275C107.974 30.8346 108.976 30.9601 109.571 30.3992C110.485 29.4325 109.566 27.3173 109.029 26.3745C108.46 25.3756 108.417 25.1006 109.59 24.7827C110.655 24.4916 112.893 23.6423 112.933 22.2829C112.893 20.9476 110.749 20.1116 109.699 19.8232C108.578 19.5135 108.359 19.3692 108.965 18.3036C109.518 17.3342 110.519 15.1709 109.571 14.1668C108.986 13.6139 107.961 13.7368 107.05 14.0333C107.109 14.0733 107.165 14.1161 107.216 14.1668C108.164 15.1709 107.162 17.3342 106.609 18.3036C106.003 19.3692 106.222 19.5135 107.344 19.8232C108.393 20.1117 110.538 20.9477 110.578 22.2829C110.538 23.6423 108.3 24.4916 107.234 24.7827Z" fill="#F585B0"/>
<path fill-rule="evenodd" clip-rule="evenodd" d="M101.455 26.5883C103.835 26.5883 105.763 24.66 105.763 22.2831C105.763 19.9035 103.835 17.9753 101.455 17.9753C101.049 17.9753 100.654 18.0314 100.277 18.1382C102.085 18.651 103.407 20.3122 103.407 22.2831C103.407 24.2515 102.085 25.9126 100.277 26.4254C100.654 26.5322 101.047 26.5883 101.455 26.5883Z" fill="#F7B551"/>
<path fill-rule="evenodd" clip-rule="evenodd" d="M124.177 42.0143C124.222 40.6362 122.235 39.7869 121.138 39.5492C120.865 39.4878 120.051 39.4104 120.192 38.9991C120.273 38.7694 120.796 38.2059 120.98 37.9415C121.576 37.0788 122.385 35.439 121.576 34.4749C120.964 33.818 119.906 33.9274 118.964 34.2586C119.057 34.3174 119.143 34.3895 119.22 34.4749C120.029 35.439 119.22 37.0788 118.625 37.9415C118.44 38.2059 117.917 38.7694 117.837 38.9991C117.695 39.4104 118.51 39.4879 118.782 39.5492C119.88 39.7869 121.867 40.6362 121.821 42.0143C121.755 43.0826 120.296 43.9104 118.307 44.1455C118.475 44.1642 118.649 44.1803 118.822 44.1909C121.696 44.3671 124.092 43.3924 124.177 42.0143Z" fill="#54D0F2"/>
<path fill-rule="evenodd" clip-rule="evenodd" d="M117.703 50.5282C117.826 50.0394 117.85 50.1036 117.439 49.8125C116.082 48.8536 114.303 48.445 112.503 48.7522C113.449 48.9178 114.33 49.281 115.083 49.8125C115.495 50.1036 115.471 50.0395 115.348 50.5282C114.848 52.5285 113.299 54.3099 111.085 55.1298C110.655 55.29 110.22 55.4048 109.787 55.4796C110.954 55.6825 112.218 55.5837 113.441 55.1298C115.655 54.3099 117.204 52.5286 117.703 50.5282Z" fill="#95D6A4"/>
<path fill-rule="evenodd" clip-rule="evenodd" d="M110.332 44.1534C110.335 43.2533 110.052 42.3213 109.47 41.5068C108.575 40.2542 107.189 39.5838 105.846 39.6132C105.517 39.6186 105.552 39.5946 105.44 39.9017C105.424 39.9471 105.408 39.9952 105.392 40.0406C106.049 40.3611 106.647 40.8552 107.114 41.5069C107.977 42.7139 108.18 44.1776 107.782 45.4114C108.214 45.6224 108.674 45.7586 109.136 45.8146C109.507 45.2484 109.905 44.6982 110.332 44.1534Z" fill="#95D6A4"/>
<path fill-rule="evenodd" clip-rule="evenodd" d="M96.8107 43.9451C97.7054 42.6926 97.8923 41.1649 97.4304 39.9016C97.3183 39.5945 97.3529 39.6185 97.0244 39.6131C96.3807 39.5998 95.7265 39.7466 95.1229 40.0404C95.5208 41.2743 95.3178 42.7378 94.4552 43.945C94.116 44.4203 93.7074 44.8102 93.2561 45.1121C93.419 45.3444 93.5793 45.5769 93.7342 45.8145C94.8959 45.6758 96.0363 45.0294 96.8107 43.9451Z" fill="#95D6A4"/>
<path fill-rule="evenodd" clip-rule="evenodd" d="M94.8344 51.439C94.0706 50.4242 92.9863 49.5936 91.6643 49.1022C90.4384 48.6482 89.1778 48.5493 88.0108 48.7523C88.4434 48.8271 88.8787 48.9419 89.3087 49.1022C91.6856 49.9835 93.296 51.9705 93.6645 54.1471C92.8421 54.8281 91.8244 55.2875 90.7268 55.4798C92.4521 55.7762 94.1613 55.4131 95.494 54.5343C95.3471 53.3859 95.1282 52.3844 94.8344 51.439Z" fill="#95D6A4"/>
<path d="M266.287 87.279C266.183 93.0065 262.98 98.2131 257.929 100.866C255.682 102.046 253.231 102.644 250.755 102.644C249.187 102.644 247.61 102.404 246.067 101.921C242.078 100.671 238.821 97.9489 236.898 94.2561C234.255 89.1851 234.582 83.075 237.75 78.3109C238.008 77.9222 238.471 77.7266 238.93 77.8118C239.389 77.8979 239.75 78.2466 239.852 78.7013C240.435 81.3238 241.941 83.788 244.132 85.7365C244.462 84.2201 244.963 82.7132 245.627 81.2447C248.013 75.9693 252.091 72.1052 256.283 71.0314C256.72 70.9201 257.158 70.8383 257.595 70.7888C257.834 70.761 258.068 70.8679 258.205 71.0661C259.758 73.3191 263.028 79.3221 259.832 86.3905C259.346 87.4652 258.73 88.5208 257.992 89.5416C259.214 89.2964 260.379 88.9016 261.448 88.373C262.517 87.8443 263.494 87.1818 264.338 86.4009C264.68 86.0853 265.174 86.0044 265.599 86.1948C266.025 86.386 266.296 86.8121 266.287 87.279Z" fill="#ED2061"/>
<path d="M229.056 105.058C229.055 105.059 229.053 105.061 229.052 105.061C228.882 105.233 228.657 105.326 228.422 105.326C228.355 105.326 228.287 105.318 228.219 105.302C226.288 104.856 223.585 102.915 222.379 100.195C221.51 98.2357 221.571 96.0645 222.552 94.0811C222.776 93.6281 223.161 93.2908 223.638 93.1299C224.114 92.9682 224.626 93.003 225.077 93.2264C228.559 94.9506 228.76 98.2914 228.937 101.24C229.002 102.322 229.063 103.344 229.283 104.207C229.284 104.207 229.284 104.207 229.284 104.207C229.361 104.514 229.276 104.832 229.056 105.058Z" fill="#D4E16C"/>
<path d="M266.188 64.4309C266.063 64.6944 265.816 64.8709 265.525 64.9022H265.524C264.895 64.9691 264.187 65.1848 263.438 65.4143C263.149 65.5021 262.851 65.5934 262.544 65.6786C261.766 65.8969 260.937 66.0777 260.101 66.0777C258.98 66.0777 257.846 65.7534 256.794 64.7569C256.173 64.1674 256.143 63.1796 256.729 62.5553C257.873 61.3328 259.392 60.7163 261.01 60.8189C263.235 60.9597 265.31 62.3683 266.132 63.6222C266.292 63.8657 266.313 64.1675 266.188 64.4309Z" fill="#D4E16C"/>
<path d="M234.351 96.8011C234.316 96.4436 233.999 96.1819 233.641 96.2153C233.283 96.2492 233.02 96.5672 233.054 96.9258C233.061 97.0056 233.255 98.8976 234.726 100.514C234.854 100.656 235.031 100.728 235.208 100.728C235.364 100.728 235.521 100.671 235.646 100.558C235.912 100.315 235.932 99.9028 235.689 99.6365C234.526 98.3579 234.354 96.829 234.351 96.8011Z" fill="#D4E16C"/>
<path d="M227.15 84.5462C226.808 84.433 226.44 84.6183 226.326 84.9601C226.213 85.302 226.398 85.671 226.74 85.7843C228.382 86.3286 229.278 87.5821 229.289 87.5977C229.415 87.7796 229.618 87.8771 229.824 87.8771C229.952 87.8771 230.081 87.8396 230.194 87.7614C230.49 87.5566 230.564 87.1504 230.359 86.8542C230.314 86.7883 229.222 85.2332 227.15 84.5462Z" fill="#D4E16C"/>
<path d="M265.654 68.4735C265.574 68.469 263.68 68.3762 261.866 69.5928C261.567 69.7933 261.487 70.1984 261.687 70.4976C261.813 70.6854 262.019 70.7869 262.229 70.7869C262.354 70.7869 262.48 70.7511 262.591 70.6765C264.025 69.715 265.556 69.7747 265.582 69.7758C265.941 69.7947 266.247 69.5205 266.267 69.1617C266.288 68.802 266.013 68.494 265.654 68.4735Z" fill="#D4E16C"/>
<path d="M247.516 69.9753C247.185 69.838 246.804 69.9962 246.666 70.3275C246.66 70.3418 246.053 71.7622 244.565 72.6497C244.256 72.834 244.154 73.2342 244.339 73.5437C244.46 73.7485 244.677 73.8622 244.899 73.8622C245.012 73.8622 245.127 73.8325 245.232 73.7702C247.107 72.6519 247.841 70.8976 247.871 70.8236C248.007 70.4911 247.848 70.1125 247.516 69.9753Z" fill="#D4E16C"/>
<path d="M259.085 92.9512C258.922 92.6302 258.53 92.5024 258.209 92.6657C255.013 94.2939 252.518 94.4511 250.989 94.2961C250.109 94.2071 249.439 94.0077 249.004 93.8402C249.785 92.5408 250.448 91.3075 251 90.1969C253.289 85.5919 254.2 82.1346 254.238 81.9897C254.329 81.6412 254.12 81.2853 253.772 81.1946C253.424 81.1038 253.068 81.3127 252.977 81.6611C252.971 81.6841 252.563 83.2272 251.631 85.5817C251.178 84.1526 250.418 83.0963 250.369 83.0294C250.157 82.7385 249.749 82.6748 249.458 82.8872C249.168 83.0995 249.104 83.5075 249.316 83.7984C249.332 83.8193 250.812 85.8755 250.65 87.8952C250.396 88.4564 250.119 89.042 249.818 89.6463C248.909 91.4724 247.692 93.6395 246.132 95.8797C245.634 94.317 244.434 91.715 241.575 88.9767C241.315 88.7276 240.903 88.7367 240.654 88.997C240.405 89.2572 240.414 89.67 240.674 89.919C244.158 93.2559 244.972 96.3764 245.139 97.2516C243.342 99.6389 241.155 102.047 238.535 104.161C238.255 104.387 238.211 104.797 238.437 105.078C238.566 105.238 238.754 105.321 238.945 105.321C239.088 105.321 239.233 105.273 239.353 105.176C243.203 102.07 246.145 98.3568 248.306 94.9672C248.98 95.2569 250.219 95.6537 251.95 95.6537C253.737 95.6537 256.048 95.2302 258.8 93.8283C259.121 93.6648 259.249 93.2721 259.085 92.9512Z" fill="#8B153B"/>
<path d="M244.686 65.5724C244.625 65.9741 244.319 66.1671 243.651 66.5905C242.529 67.3009 240.443 68.6235 238.526 71.2772C238.414 71.4328 238.239 71.745 238.037 72.1067C236.95 74.0501 234.771 77.9455 231.127 77.9463C230.856 77.9463 230.579 77.9246 230.292 77.8794C228.853 77.7342 227.572 77.0229 226.686 75.8743C226.261 75.3239 225.956 74.7109 225.778 74.0639C225.634 73.5422 225.572 72.9988 225.596 72.4475C224.417 72.1136 223.406 71.3824 222.707 70.3467C221.888 69.1339 221.616 67.6784 221.939 66.2488V66.248L221.954 66.1819C222.312 64.0177 224.238 62.343 227.378 61.4631C232.779 59.951 241.149 61.0327 244.523 65.0037C244.658 65.1611 244.716 65.3689 244.686 65.5724Z" fill="#FFA402"/>
<path d="M238.316 65.6876C238.227 65.3385 237.872 65.1277 237.523 65.2169C237.364 65.2575 233.583 66.2378 229.742 68.4951C229.548 68.6091 229.357 68.7243 229.169 68.8409C229.323 67.9667 229.651 66.8109 230.344 65.8893C230.56 65.6015 230.503 65.1926 230.215 64.9761C229.927 64.7595 229.519 64.8173 229.303 65.1051C228.048 66.7741 227.796 68.9575 227.745 69.7967C226.377 70.7898 225.232 71.8589 224.329 72.99C222.656 75.0848 221.807 77.3939 221.807 79.8531C221.807 80.2133 222.099 80.5052 222.459 80.5052C222.819 80.5052 223.11 80.2133 223.11 79.8531C223.11 77.7016 223.86 75.6703 225.338 73.8155C226.547 72.2984 228.242 70.8915 230.377 69.634C231.254 69.1179 232.133 68.6695 232.966 68.2856C233.661 68.4402 235.076 68.8416 235.755 69.4109C235.877 69.5131 236.026 69.563 236.173 69.563C236.359 69.563 236.544 69.4836 236.673 69.3295C236.904 69.0534 236.868 68.6421 236.592 68.4109C236.121 68.0167 235.475 67.71 234.859 67.4821C236.595 66.8055 237.824 66.4861 237.846 66.4806C238.194 66.3915 238.405 66.0365 238.316 65.6876Z" fill="#ED4042"/>
<path d="M266.287 87.279C266.183 93.0065 262.981 98.2131 257.929 100.866C255.682 102.046 253.232 102.644 250.756 102.644C249.187 102.644 247.61 102.404 246.067 101.921C261.736 101.921 263.151 89.6737 263.151 89.6737C260.016 92.0692 254.001 92.2231 254.001 92.2231C261.553 82.3202 256.284 71.0314 256.284 71.0314C256.721 70.9201 257.158 70.8383 257.595 70.7888C257.834 70.761 258.068 70.8679 258.205 71.0661C259.759 73.3191 263.028 79.3221 259.832 86.3905C259.346 87.4652 258.73 88.5208 257.992 89.5416C259.215 89.2964 260.379 88.9016 261.448 88.373C262.518 87.8443 263.494 87.1818 264.339 86.4009C264.68 86.0853 265.174 86.0044 265.599 86.1948C266.026 86.386 266.296 86.8121 266.287 87.279Z" fill="#C71E54"/>
<path d="M244.684 65.5724C244.624 65.9741 244.318 66.1671 243.65 66.5906C242.528 67.3009 240.441 68.6235 238.525 71.2772C238.413 71.4328 238.238 71.745 238.036 72.1067C236.949 74.0501 234.769 77.9455 231.126 77.9463C230.855 77.9463 230.578 77.9246 230.291 77.8794C228.851 77.7342 227.571 77.023 226.685 75.8743C226.26 75.3239 225.955 74.7109 225.777 74.0639C230.078 76.4951 232.955 74.1735 234.455 72.4893C240.714 65.4585 244.684 65.5724 244.684 65.5724Z" fill="#FF7E50"/>
<path d="M229.056 105.058C229.055 105.059 229.053 105.06 229.052 105.061C228.141 104.259 227.163 102.907 226.934 100.728C226.484 96.421 223.638 93.1299 223.638 93.1299C224.114 92.9682 224.626 93.003 225.077 93.2264C228.56 94.9506 228.76 98.2914 228.938 101.24C229.003 102.322 229.064 103.344 229.283 104.207C229.284 104.207 229.284 104.207 229.284 104.207C229.362 104.514 229.277 104.832 229.056 105.058Z" fill="#A4CE39"/>
<path d="M266.188 64.4306C266.063 64.694 265.816 64.8705 265.524 64.9018H265.524C264.895 64.9688 264.187 65.1844 263.438 65.4139C263.149 65.5018 262.85 65.5931 262.544 65.6783C265.345 62.6558 261.01 60.8186 261.01 60.8186C263.235 60.9595 265.31 62.368 266.132 63.6219C266.292 63.8653 266.312 64.1671 266.188 64.4306Z" fill="#A4CE39"/>
<circle cx="39.7933" cy="82.7164" r="34.875" stroke="url(#paint3_linear)" stroke-width="0.894231"/>
<path d="M42.5065 83.3653V81.3563L44.6588 82.432L45.4125 80.9238L43.3403 79.8877L44.6614 79.0067L43.7256 77.6039L41.6036 79.0185L40.0423 78.2379L42.9407 76.4987L42.0741 75.0529L38.2551 77.3443L36.671 76.5518L39.5694 74.8126C39.824 74.66 39.9791 74.386 39.9783 74.0893C39.9783 73.7934 39.8231 73.5185 39.5694 73.3668L36.671 71.6276L38.2559 70.8351L42.0749 73.1265L42.9416 71.6807L40.0432 69.9415L41.6036 69.1617L43.7256 70.5763L44.6614 69.1727L43.3403 68.2925L45.4125 67.2564L44.6588 65.7482L42.5065 66.8256V64.8183H40.8205V67.6695L39.1344 68.5126V64.8183H37.4483V69.3556L35.7614 70.1986V65.6614C35.7614 65.3503 35.5911 65.0645 35.3171 64.9178C35.0422 64.7711 34.7101 64.788 34.4513 64.9591L30.704 67.4579V65.2129L35.4596 61.2497L34.3805 59.954L30.7048 63.0176V60.953L32.9878 58.67L31.7948 57.4771L30.7048 58.568V57.231H29.0179V58.5672L27.9278 57.4771L26.7349 58.67L29.0179 60.953V63.0184L25.3422 59.9557L24.2631 61.2514L29.0179 65.2129V67.4579L25.2689 64.9591C25.0109 64.788 24.6804 64.7703 24.4039 64.9178C24.1299 65.0645 23.9588 65.3503 23.9588 65.6614L23.9596 70.1986L22.2735 69.3556V64.8183H20.5874V68.5126L18.8997 67.6687V64.8183H17.2136V66.8256L15.0621 65.7499L14.3085 67.2581L16.3807 68.2942L15.0588 69.1752L15.9945 70.578L18.1173 69.1625L19.6795 69.9432L16.7803 71.6824L17.6469 73.1282L21.4667 70.8368L23.0508 71.6293L20.1524 73.3685C19.8995 73.5202 19.7444 73.7951 19.7444 74.091C19.7436 74.3877 19.8995 74.6617 20.1533 74.8143L23.0508 76.5535L21.4659 77.3459L17.6469 75.0546L16.7803 76.5004L19.6778 78.2396L18.1165 79.0202L15.9954 77.6056L15.0596 79.0084L16.3798 79.8894L14.3076 80.9255L15.0613 82.4337L17.2127 81.358V83.3653H18.8988V80.5141L20.5858 79.6711V83.3653H22.2718L22.2727 78.8272L23.9588 77.9841L23.9579 82.5222C23.9579 82.8333 24.1291 83.1191 24.4031 83.2658C24.6796 83.4133 25.0109 83.3965 25.268 83.2245L29.0179 80.7249V82.9699L24.2614 86.933L25.3405 88.2288L29.0179 85.1635V87.2289L26.7341 89.5127L27.927 90.7056L29.0179 89.6147V90.9518H30.7031V89.6156L31.794 90.7056L32.9852 89.5127L30.7031 87.2315V85.1643L34.3788 88.2279L35.4579 86.9322L30.7023 82.969V80.7249L34.4496 83.2236C34.5921 83.3172 34.7556 83.3653 34.9192 83.3653C35.0549 83.3653 35.1915 83.3316 35.3171 83.265C35.5911 83.1183 35.7614 82.8325 35.7614 82.5222V77.9841L37.4474 78.8272V83.3653H39.1335V79.6702L40.8205 80.5133V83.3653H42.5065ZM37.4955 74.0918L34.8821 75.6599L31.7451 74.0918L34.8821 72.5237L37.4955 74.0918ZM34.0753 67.2362V71.0417L30.7031 72.7278V69.4846L34.0753 67.2362ZM25.6449 67.2362L29.0179 69.4846V72.7278L25.6457 71.0417L25.6449 67.2362ZM22.2255 74.0918L24.8389 72.5229L27.9759 74.091L24.8389 75.659L22.2255 74.0918ZM25.6449 80.9466L25.6457 77.1411L29.0179 75.455V78.699L25.6449 80.9466ZM34.0753 80.9466L30.7031 78.6973V75.4542L34.0753 77.1402V80.9466Z" fill="#59C8FF"/>
<path d="M64.8926 97.5551L63.9569 96.1514L61.5879 97.7305L59.5537 96.8588L61.4303 95.9204C61.7152 95.778 61.8965 95.4854 61.8956 95.1659C61.8956 94.8473 61.7152 94.5547 61.4294 94.4122L59.5537 93.4739L61.5879 92.6022L63.9569 94.1813L64.8926 92.7776L63.4384 91.8081L65.6 90.8816L64.9356 89.3321L62.7395 90.2737V88.4233H61.0534V90.9979L58.5243 92.0821L58.5235 89.2655C58.5235 88.9856 58.3852 88.7242 58.1542 88.5674C57.9232 88.4115 57.6307 88.3803 57.3676 88.4823L54.3091 89.7055V87.2565L57.2142 85.8039L56.4605 84.2957L54.3082 85.3715V82.522H52.623V85.3731L50.469 84.2966L49.7153 85.8048L52.623 87.2582V89.7072L49.5628 88.4831C49.3014 88.3803 49.008 88.4115 48.7762 88.5683C48.5452 88.7251 48.4069 88.9864 48.4069 89.2663V92.0821L45.8778 90.9979V88.4233H44.1917V90.2763L41.9948 89.3346L41.3304 90.8841L43.4928 91.8106L42.0386 92.7801L42.9744 94.1838L45.3433 92.6048L47.3767 93.4765L45.501 94.4148C45.2152 94.5572 45.0348 94.8498 45.0348 95.1685C45.0339 95.488 45.2152 95.7797 45.5001 95.923L47.3767 96.8613L45.3425 97.733L42.9744 96.154L42.0386 97.5568L43.4928 98.5263L41.3313 99.4528L41.9956 101.002L44.1926 100.061V101.912H45.8787V99.3356L48.4078 98.2515V101.069C48.4078 101.349 48.546 101.61 48.777 101.767C48.9178 101.862 49.0839 101.912 49.25 101.912C49.3554 101.912 49.4616 101.892 49.5628 101.851L52.623 100.627V103.076L49.7162 104.53L50.4699 106.038L52.623 104.961V107.812H54.3082V104.961L56.4605 106.037L57.2142 104.529L54.3091 103.076V100.627L57.3676 101.85C57.468 101.892 57.5742 101.912 57.6796 101.912C57.8456 101.912 58.0117 101.862 58.1534 101.767C58.3844 101.61 58.5226 101.349 58.5226 101.069L58.5235 98.2523L61.0526 99.3365V101.912H62.7387V100.059L64.9348 101.001L65.5991 99.4511L63.4384 98.5246L64.8926 97.5551ZM59.1675 95.1676L57.5236 95.9896L55.6057 95.1676L57.5236 94.3456L59.1675 95.1676ZM56.8374 90.5106L56.8382 92.8037L54.3082 93.8879V91.5223L56.8374 90.5106ZM50.0922 90.5106L52.623 91.5231V93.8887L50.0922 92.8037V90.5106ZM47.762 95.1676L49.4059 94.3456L51.3239 95.1676L49.4059 95.9896L47.762 95.1676ZM50.0922 99.8237V97.5298L52.623 96.4448V98.8112L50.0922 99.8237ZM56.8374 99.8237L54.3082 98.8121V96.4457L56.8382 97.5298L56.8374 99.8237Z" fill="#59C8FF"/>
<path d="M52.0682 69.2375L53.2611 70.4304L55.9951 67.6956V71.5618H57.6803V67.6964L60.4135 70.4304L61.6064 69.2375L58.8733 66.5043H62.7386L62.7394 64.8183H58.8724L61.6064 62.0843L60.4135 60.8914L57.6803 63.6254V59.76H55.9951V63.6262L53.2611 60.8914L52.0682 62.0843L54.8014 64.8183H50.9368L50.936 66.5035H54.8014L52.0682 69.2375Z" fill="#59C8FF"/>
<path d="M27.8848 95.8057L26.6919 94.6128L23.9587 97.3468V93.4814H22.2735V97.3476L19.5395 94.6128L18.3466 95.8057L21.0797 98.5397H17.2152L17.2144 100.225H21.0797L18.3466 102.959L19.5395 104.152L22.2735 101.417V105.283H23.9587V101.418L26.6919 104.152L27.8848 102.959L25.1516 100.226H29.017L29.0178 98.5397H25.1508L27.8848 95.8057Z" fill="#59C8FF"/>
<path d="M48.4077 75.777C49.3375 75.777 50.0929 75.0207 50.0929 74.0909C50.0929 73.161 49.3375 72.4048 48.4077 72.4048C47.477 72.4048 46.7216 73.161 46.7216 74.0909C46.7216 75.0207 47.477 75.777 48.4077 75.777Z" fill="#59C8FF"/>
<path d="M59.3672 82.5223C59.3672 83.4521 60.1226 84.2084 61.0533 84.2084C61.9832 84.2084 62.7385 83.4521 62.7385 82.5223C62.7385 81.5924 61.9832 80.8362 61.0533 80.8362C60.1226 80.8362 59.3672 81.5915 59.3672 82.5223Z" fill="#59C8FF"/>
<path d="M35.762 97.697C34.8313 97.697 34.076 98.4532 34.076 99.3831C34.076 100.313 34.8313 101.069 35.762 101.069C36.6919 101.069 37.4473 100.313 37.4473 99.3831C37.4473 98.4524 36.6919 97.697 35.762 97.697Z" fill="#59C8FF"/>
<path d="M20.5868 88.4236C20.5868 87.4938 19.8314 86.7375 18.9016 86.7375C17.9709 86.7375 17.2155 87.4938 17.2155 88.4236C17.2155 89.3535 17.9709 90.1097 18.9016 90.1097C19.8314 90.1089 20.5868 89.3527 20.5868 88.4236Z" fill="#59C8FF"/>
<path d="M49.727 73.0549C49.4185 72.6629 48.9447 72.4058 48.4077 72.4058C47.477 72.4058 46.7216 73.162 46.7216 74.0918C46.7216 74.5766 46.9298 75.0099 47.2578 75.3176C48.4532 75.0993 49.4033 74.2107 49.727 73.0549Z" fill="#59C8FF"/>
<path d="M62.3727 81.4853C62.0641 81.0933 61.5903 80.8362 61.0533 80.8362C60.1226 80.8362 59.3672 81.5924 59.3672 82.5223C59.3672 83.007 59.5755 83.4403 59.9034 83.748C61.0988 83.5297 62.0489 82.6411 62.3727 81.4853Z" fill="#59C8FF"/>
<path d="M37.0814 98.3462C36.7729 97.9541 36.2991 97.697 35.762 97.697C34.8313 97.697 34.076 98.4532 34.076 99.3831C34.076 99.8679 34.2842 100.301 34.6121 100.609C35.8076 100.391 36.7577 99.502 37.0814 98.3462Z" fill="#59C8FF"/>
<path d="M20.2209 87.3867C19.9124 86.9947 19.4386 86.7375 18.9016 86.7375C17.9709 86.7375 17.2155 87.4938 17.2155 88.4236C17.2155 88.9084 17.4237 89.3417 17.7517 89.6494C18.9471 89.4311 19.8972 88.5425 20.2209 87.3867Z" fill="#59C8FF"/>
<circle cx="39.7933" cy="82.7164" r="35.3221" fill="url(#paint4_radial)"/>
<path opacity="0.2" d="M41.7969 105.653C38.9066 111.589 29.1744 112.803 20.0593 108.365C10.9442 103.927 5.17797 87.9635 8.06822 82.0276C10.9585 76.0917 19.0693 87.9054 28.1843 92.3436C37.2994 96.7818 44.6871 99.7169 41.7969 105.653Z" fill="white"/>
<ellipse opacity="0.2" cx="55.1619" cy="63.5947" rx="5.14653" ry="6.59071" transform="rotate(-15 55.1619 63.5947)" fill="white"/>
<path opacity="0.2" d="M63.7535 74.3364C60.446 104.74 30.3609 106.921 15.7318 104.21C25.9086 111.976 43.5059 121.477 59.6192 108.687C75.7324 95.8968 68.7359 83.7463 63.7535 74.3364Z" fill="white"/>
<ellipse opacity="0.2" cx="60.9789" cy="83.5201" rx="3.4122" ry="4.3697" transform="rotate(-7.9426 60.9789 83.5201)" fill="white"/>
<circle cx="101.495" cy="35.3222" r="35.3221" fill="url(#paint5_radial)"/>
<path opacity="0.2" d="M103.499 58.2588C100.609 64.1947 90.8763 65.4089 81.7612 60.9707C72.6461 56.5325 66.8799 40.5695 69.7701 34.6336C72.6604 28.6976 80.7712 40.5113 89.8862 44.9495C99.0013 49.3877 106.389 52.3228 103.499 58.2588Z" fill="white"/>
<ellipse opacity="0.2" cx="116.864" cy="16.2006" rx="5.14653" ry="6.59071" transform="rotate(-15 116.864 16.2006)" fill="white"/>
<path opacity="0.2" d="M125.455 26.9424C122.148 57.3462 92.0628 59.5266 77.4337 56.8163C87.6105 64.5818 105.208 74.083 121.321 61.2929C137.434 48.5028 130.438 36.3522 125.455 26.9424Z" fill="white"/>
<ellipse opacity="0.2" cx="122.681" cy="36.1258" rx="3.4122" ry="4.3697" transform="rotate(-7.9426 122.681 36.1258)" fill="white"/>
<circle cx="181.082" cy="35.3222" r="35.3221" fill="url(#paint6_radial)"/>
<path opacity="0.2" d="M183.085 58.2588C180.195 64.1947 170.463 65.4089 161.348 60.9707C152.233 56.5325 146.466 40.5695 149.357 34.6336C152.247 28.6976 160.358 40.5113 169.473 44.9495C178.588 49.3877 185.976 52.3228 183.085 58.2588Z" fill="white"/>
<ellipse opacity="0.2" cx="196.45" cy="16.2006" rx="5.14653" ry="6.59071" transform="rotate(-15 196.45 16.2006)" fill="white"/>
<path opacity="0.2" d="M205.042 26.9424C201.734 57.3462 171.649 59.5266 157.02 56.8163C167.197 64.5818 184.794 74.083 200.908 61.2929C217.021 48.5028 210.024 36.3522 205.042 26.9424Z" fill="white"/>
<ellipse opacity="0.2" cx="202.267" cy="36.1258" rx="3.4122" ry="4.3697" transform="rotate(-7.9426 202.267 36.1258)" fill="white"/>
<circle cx="243.678" cy="82.7164" r="35.3221" fill="url(#paint7_radial)"/>
<path opacity="0.2" d="M246.375 106.008C243.467 111.981 233.674 113.202 224.503 108.737C215.331 104.271 209.529 88.2093 212.437 82.2366C215.346 76.264 223.507 88.1508 232.678 92.6164C241.849 97.0821 249.283 100.035 246.375 106.008Z" fill="white"/>
<ellipse opacity="0.2" cx="259.823" cy="63.6893" rx="5.17838" ry="6.63149" transform="rotate(-15 259.823 63.6893)" fill="white"/>
<path opacity="0.2" d="M268.467 74.4976C265.14 105.09 234.868 107.283 220.149 104.556C230.388 112.37 248.095 121.93 264.308 109.061C280.52 96.1914 273.481 83.9656 268.467 74.4976Z" fill="white"/>
<ellipse opacity="0.2" cx="265.676" cy="83.7378" rx="3.43331" ry="4.39674" transform="rotate(-7.9426 265.676 83.7378)" fill="white"/>
<defs>
<linearGradient id="paint0_linear" x1="126.087" y1="61.2548" x2="77.351" y2="8.4952" gradientUnits="userSpaceOnUse">
<stop stop-color="#F585B0" stop-opacity="0.24"/>
<stop offset="1" stop-color="#F585B0" stop-opacity="0"/>
</linearGradient>
<linearGradient id="paint1_linear" x1="207.014" y1="60.8077" x2="160.514" y2="6.70673" gradientUnits="userSpaceOnUse">
<stop stop-color="#FFA600" stop-opacity="0.26"/>
<stop offset="1" stop-color="#FFA600" stop-opacity="0"/>
</linearGradient>
<linearGradient id="paint2_linear" x1="270.952" y1="106.861" x2="224.899" y2="53.2068" gradientUnits="userSpaceOnUse">
<stop stop-color="#C71E54" stop-opacity="0.37"/>
<stop offset="1" stop-color="#C71E54" stop-opacity="0"/>
</linearGradient>
<linearGradient id="paint3_linear" x1="24.5914" y1="50.9712" x2="50.9712" y2="116.697" gradientUnits="userSpaceOnUse">
<stop stop-color="#92DBFF" stop-opacity="0"/>
<stop offset="1" stop-color="#77D2FF" stop-opacity="0.35"/>
</linearGradient>
<radialGradient id="paint4_radial" cx="0" cy="0" r="1" gradientUnits="userSpaceOnUse" gradientTransform="translate(39.7933 82.7164) rotate(90) scale(35.3221)">
<stop stop-color="#59C8FF" stop-opacity="0"/>
<stop offset="1" stop-color="#59C8FF" stop-opacity="0.42"/>
</radialGradient>
<radialGradient id="paint5_radial" cx="0" cy="0" r="1" gradientUnits="userSpaceOnUse" gradientTransform="translate(101.495 35.3222) rotate(90) scale(35.3221)">
<stop stop-color="#F585B0" stop-opacity="0"/>
<stop offset="1" stop-color="#F585B0" stop-opacity="0.42"/>
</radialGradient>
<radialGradient id="paint6_radial" cx="0" cy="0" r="1" gradientUnits="userSpaceOnUse" gradientTransform="translate(181.082 35.3222) rotate(90) scale(35.3221)">
<stop stop-color="#FFD700" stop-opacity="0"/>
<stop offset="1" stop-color="#FFD700" stop-opacity="0.42"/>
</radialGradient>
<radialGradient id="paint7_radial" cx="0" cy="0" r="1" gradientUnits="userSpaceOnUse" gradientTransform="translate(243.678 82.7164) rotate(90) scale(35.3221)">
<stop stop-color="#F3633D" stop-opacity="0"/>
<stop offset="1" stop-color="#DE6932" stop-opacity="0.42"/>
</radialGradient>
</defs>
</svg>
