<svg version="1.1" xmlns="http://www.w3.org/2000/svg" xmlns:xlink="http://www.w3.org/1999/xlink" display="none">

	<symbol width="24" height="24" viewBox="0 0 24 24" fill="none" id="instagram">
        <path d="M19.3618 0H4.63821C2.08068 0 0 2.08024 0 4.63782V9.53707V19.3622C0 21.9198 2.08068 24 4.63821 24H19.3623C21.9198 24 24 21.9198 24 19.3622V9.53658V4.63734C23.9995 2.07976 21.9193 0 19.3618 0ZM20.6921 2.76575L21.2227 2.76381V3.29198V6.83183L17.1683 6.8449L17.1543 2.77737L20.6921 2.76575ZM8.57447 9.53658C9.34323 8.47298 10.5903 7.77537 12 7.77537C13.4097 7.77537 14.6568 8.47298 15.4246 9.53658C15.9246 10.2308 16.2243 11.0799 16.2243 11.9998C16.2243 14.3288 14.3276 16.2237 11.9995 16.2237C9.67 16.2237 7.77521 14.3288 7.77521 11.9998C7.7757 11.0799 8.07439 10.2308 8.57447 9.53658ZM21.6613 19.3617C21.6613 20.6306 20.6297 21.6612 19.3618 21.6612H4.63821C3.36986 21.6612 2.33823 20.6306 2.33823 19.3617V9.53658H5.92061C5.61126 10.2976 5.43747 11.1288 5.43747 11.9998C5.43747 15.6176 8.38083 18.5629 12 18.5629C15.6187 18.5629 18.562 15.6176 18.562 11.9998C18.562 11.1288 18.3873 10.2976 18.0779 9.53658H21.6613V19.3617Z" fill="white"/>
    </symbol>

    <symbol width="24" height="24" viewBox="0 0 24 24" fill="none" id="telegram">
        <path d="M22.7199 4.60447L19.466 19.9499C19.2205 21.033 18.5803 21.3025 17.6705 20.7924L12.7126 17.1388L10.3204 19.4398C10.0557 19.7045 9.83419 19.9259 9.324 19.9259L9.68016 14.8765L18.8691 6.57317C19.2686 6.21702 18.7825 6.01963 18.2482 6.37583L6.88838 13.5287L1.99786 11.998C0.934081 11.6659 0.914862 10.9342 2.21925 10.424L21.348 3.05455C22.2337 2.72244 23.0087 3.25184 22.7199 4.60447Z" fill="white"/>
    </symbol>

    <symbol width="24" height="14" viewBox="0 0 24 14" fill="none" id="vk">
        <path fill-rule="evenodd" clip-rule="evenodd" d="M12.8153 13.9927C13.6142 13.9927 13.6142 12.8725 13.6142 12.438C13.6142 11.6606 14.4132 10.8832 15.2121 10.8832C16.011 10.8832 17.3811 12.2164 18.4077 13.2154C19.2066 13.9927 19.2066 13.9927 20.0055 13.9927C20.8044 13.9927 22.4022 13.9927 22.4022 13.9927C22.4022 13.9927 24 13.9337 24 12.438C24 11.9521 23.4528 11.1281 21.6033 9.3285C20.0055 7.77375 19.1858 8.57678 21.6033 5.44162C23.0757 3.53239 24.147 1.80273 23.9633 1.30366C23.7875 0.827127 19.6923 0.068409 19.2066 0.777375C17.6088 3.1095 17.3156 3.68087 16.8099 4.66425C16.011 6.219 15.9319 6.99637 15.2121 6.99637C14.4859 6.99637 14.4132 5.48749 14.4132 4.66425C14.4132 2.09425 14.7958 0.276745 13.6142 0C13.6142 0 12.0164 0 11.2175 0C9.9313 0 8.82082 0.777375 8.82082 0.777375C8.82082 0.777375 7.82938 1.52987 8.02192 1.55475C8.25999 1.58584 9.61973 1.23292 9.61973 2.33212C9.61973 3.1095 9.61973 3.88687 9.61973 3.88687C9.61973 3.88687 9.62692 6.99637 8.82082 6.99637C8.02192 6.99637 6.42411 3.88687 4.8263 1.55475C4.19916 0.639779 4.0274 0.777375 3.22849 0.777375C2.37207 0.777375 1.63149 0.810024 0.831782 0.810024C0.0328779 0.810024 -0.0693818 1.30521 0.032878 1.55475C1.63069 5.44162 2.77871 7.88258 5.81455 10.9579C8.59873 13.779 10.4586 13.929 12.0164 13.9927C12.4159 14.0091 12.0164 13.9927 12.8153 13.9927Z" fill="white"/>
    </symbol>

    <symbol id="arrow-prev" width="10" height="16" viewBox="0 0 10 16" fill="none">
        <path d="M9.5 14.5906L8.52969 15.5L0.5 8L8.52969 0.5L9.5 1.40469L2.44531 8L9.5 14.5906Z" fill="white"/>
    </symbol>

    <symbol id="arrow-next" width="10" height="16" viewBox="0 0 10 16" fill="none">
        <path d="M0.5 1.40938L1.47031 0.5L9.5 8L1.47031 15.5L0.5 14.5953L7.55469 8L0.5 1.40938Z" fill="white"/>
    </symbol>

</svg>