<svg width="107" height="108" viewBox="0 0 107 108" fill="none" xmlns="http://www.w3.org/2000/svg">
<path fill-rule="evenodd" clip-rule="evenodd" d="M69.8308 17.3233C61.9272 13.8016 53.097 12.9292 44.6571 14.8361C36.2172 16.743 28.6198 21.327 22.998 27.9045C17.3762 34.482 14.0312 42.7006 13.4619 51.3345C12.8926 59.9684 15.1295 68.555 19.8389 75.8137C24.5483 83.0725 31.478 88.6144 39.5945 91.613C47.7109 94.6116 56.5792 94.9062 64.8768 92.4529C73.1744 89.9996 80.4566 84.9298 85.6374 77.9996C90.8182 71.0694 93.62 62.6501 93.6249 53.9975V49.8984C93.6249 47.4361 95.621 45.4401 98.0833 45.4401C100.546 45.4401 102.542 47.4361 102.542 49.8984V54.0001C102.536 64.5755 99.1111 74.8682 92.779 83.3385C86.4469 91.8087 77.5464 98.0051 67.405 101.004C57.2635 104.002 46.4245 103.642 36.5044 99.9771C26.5843 96.3122 18.1147 89.5387 12.3587 80.6669C6.60268 71.7951 3.86873 61.3003 4.56456 50.7478C5.26039 40.1952 9.34872 30.1503 16.2198 22.1112C23.0909 14.072 32.3766 8.46929 42.6921 6.13865C53.0075 3.80801 63.8 4.87431 73.4599 9.17852C75.709 10.1807 76.7199 12.8163 75.7177 15.0654C74.7156 17.3145 72.0799 18.3254 69.8308 17.3233Z" fill="#F2994A"/>
<path fill-rule="evenodd" clip-rule="evenodd" d="M101.234 15.1792C102.976 16.9195 102.977 19.7423 101.237 21.4843L56.6539 66.1122C55.818 66.949 54.6838 67.4193 53.501 67.4196C52.3181 67.4199 51.1837 66.9501 50.3473 66.1138L36.9723 52.7388C35.2312 50.9977 35.2312 48.1748 36.9723 46.4337C38.7134 44.6926 41.5363 44.6926 43.2774 46.4337L53.4983 56.6546L94.9291 15.1824C96.6693 13.4404 99.4922 13.439 101.234 15.1792Z" fill="#F2994A"/>
</svg>
