<svg width="24" height="24" viewBox="0 0 24 24" fill="none" xmlns="http://www.w3.org/2000/svg">
<path d="M12.0006 18.7142C11.4483 18.7142 11.0006 19.1619 11.0006 19.7142C11.0006 20.2665 11.4483 20.7142 12.0006 20.7142V18.7142ZM4.28627 11.9999L3.73157 12.832C4.06747 13.0559 4.50507 13.0559 4.84097 12.832L4.28627 11.9999ZM2.26954 9.4536C1.81002 9.14724 1.18915 9.27142 0.882793 9.73095C0.576441 10.1905 0.700615 10.8113 1.16014 11.1177L2.26954 9.4536ZM7.4124 11.1177C7.87193 10.8113 7.9961 10.1905 7.68975 9.73095C7.3834 9.27142 6.76253 9.14724 6.303 9.4536L7.4124 11.1177ZM18.7148 11.9999C18.7148 15.7081 15.7088 18.7142 12.0006 18.7142V20.7142C16.8133 20.7142 20.7148 16.8127 20.7148 11.9999H18.7148ZM5.28627 11.9999C5.28627 8.29173 8.29236 5.28564 12.0006 5.28564V3.28564C7.18779 3.28564 3.28627 7.18716 3.28627 11.9999H5.28627ZM12.0006 5.28564C15.7088 5.28564 18.7148 8.29173 18.7148 11.9999H20.7148C20.7148 7.18716 16.8133 3.28564 12.0006 3.28564V5.28564ZM4.84097 11.1679L2.26954 9.4536L1.16014 11.1177L3.73157 12.832L4.84097 11.1679ZM4.84097 12.832L7.4124 11.1177L6.303 9.4536L3.73157 11.1679L4.84097 12.832Z" fill="currentColor"/>
</svg>
