<svg width="32" height="33" viewBox="0 0 32 33" fill="none" xmlns="http://www.w3.org/2000/svg">
<path fill-rule="evenodd" clip-rule="evenodd" d="M26.6564 25.3813L21.51 20.2334C22.4402 19.0253 22.9446 17.5529 22.9446 16.0035C22.9446 14.4542 22.4402 12.9803 21.51 11.7737L26.6564 6.62576C31.365 11.9716 31.365 20.0355 26.6564 25.3813ZM6.62332 26.6619L11.7698 21.5124C12.9779 22.4457 14.4502 22.95 15.9996 22.95C17.549 22.95 19.0228 22.4457 20.2294 21.5124L25.3774 26.6619C20.0331 31.3689 11.9676 31.3689 6.62332 26.6619ZM5.34275 6.62733L10.4877 11.7738C9.55747 12.9819 9.05309 14.4542 9.05309 16.0036C9.05309 17.553 9.55747 19.0268 10.4877 20.2334L5.34275 25.3799C0.635733 20.0356 0.635733 11.9716 5.34275 6.62733ZM21.134 16.0035C21.134 17.3747 20.5994 18.6643 19.6284 19.6338C17.691 21.5728 14.3083 21.5743 12.3693 19.6323C11.3983 18.6643 10.8653 17.3747 10.8653 16.0035C10.8653 14.6324 11.3983 13.3427 12.3693 12.3732C13.3388 11.4037 14.6284 10.8692 15.9996 10.8692C17.3708 10.8692 18.6604 11.4037 19.6284 12.3732C19.6299 12.3732 19.6299 12.3732 19.6299 12.3747C20.5994 13.3427 21.134 14.6324 21.134 16.0035ZM15.9996 1.8161C19.352 1.8161 22.7045 2.99399 25.3759 5.34523L20.2294 10.4947C19.0228 9.56146 17.549 9.05708 15.9996 9.05708C14.4502 9.05708 12.9764 9.56146 11.7698 10.4932L6.62332 5.34523C9.29471 2.99399 12.6472 1.8161 15.9996 1.8161ZM27.3179 4.68526C21.0766 -1.55905 10.9211 -1.56056 4.67983 4.68526C-1.55994 10.9265 -1.55994 21.0805 4.67983 27.3218C7.80123 30.4447 11.9012 32.0047 15.9996 32.0047C20.0996 32.0047 24.198 30.4447 27.3179 27.3218C33.5607 21.0805 33.5607 10.9265 27.3179 4.68526Z" fill="currentColor"/>
</svg>
