<svg width="18" height="24" viewBox="0 0 18 24" fill="none" xmlns="http://www.w3.org/2000/svg">
<path d="M16.9678 14.3597L16.9679 14.3606C16.9853 14.5965 16.9993 14.7935 16.9993 15.0003C16.9993 19.4103 13.4096 23 8.99967 23C4.58971 23 1 19.4103 1 15.0003C1 14.8276 1.00071 14.6862 1.00891 14.5504L1.00987 14.5346L1.01032 14.5188C1.07872 12.1337 1.6957 10.7281 2.23597 9.93955C2.39397 9.70895 2.54893 9.52602 2.68756 9.38338C2.77537 9.6941 2.90036 10.0667 3.07377 10.4506C3.48334 11.3572 4.29343 12.6071 5.79186 12.9271L6.99298 13.1837L7.00074 11.9555C7.00899 10.6496 7.06962 8.76608 7.48431 7.1236C7.99614 5.10265 9.36758 2.95687 11.0629 1.48322C11.3445 3.63199 12.52 5.21368 13.6682 6.7587C13.6901 6.78815 13.712 6.81759 13.7338 6.84702L13.7338 6.84702C15.1996 8.82009 16.6993 10.8602 16.9508 14.1266C16.9509 14.1274 16.9509 14.1281 16.951 14.1288L16.9678 14.3597Z" stroke="white" stroke-width="2"/>
<path d="M6.00451 19.239L6.00368 19.2539C5.99998 19.3208 5.99999 19.3742 6.00002 19.455C6.00002 19.4613 6.00002 19.4678 6.00002 19.4745C6.00002 21.5373 7.45898 23 8.99995 23C10.5409 23 11.9999 21.5373 12 19.4745L6.00451 19.239ZM6.00451 19.239L6.00489 19.224M6.00451 19.239L6.00489 19.224M6.00489 19.224C6.00519 19.212 6.00552 19.2001 6.00587 19.1882M6.00489 19.224L6.00587 19.1882M6.00587 19.1882C6.44858 19.4653 6.98467 19.6434 7.6276 19.6434C8.60426 19.6434 9.29427 18.8214 9.29427 17.9353C9.29427 16.9231 9.31671 15.8631 9.52558 14.9349L6.00587 19.1882ZM9.76868 14.1736C9.66392 14.4309 9.58147 14.6874 9.52564 14.9346L9.76868 14.1736ZM9.76868 14.1736C9.98283 14.5395 10.2057 14.8759 10.4121 15.1875C10.4216 15.2018 10.431 15.216 10.4404 15.2302L10.4405 15.2303C11.199 16.3751 11.8643 17.392 11.9854 19.1671L11.9855 19.1682C11.9942 19.2939 12 19.3829 12 19.4744L9.76868 14.1736Z" stroke="white" stroke-width="2"/>
</svg>
