<svg width="16" height="16" viewBox="0 0 16 16" fill="none" xmlns="http://www.w3.org/2000/svg">
<path d="M14.5511 7.27763C14.5457 6.80337 14.5439 6.3256 14.5421 5.84959H13.0986C13.0932 6.32384 13.0896 6.79986 13.0861 7.27763C12.6001 7.27939 12.1177 7.2829 11.6354 7.28817V8.70919C12.1177 8.71446 12.6037 8.71797 13.0861 8.72324C13.0914 9.1975 13.0914 9.67352 13.095 10.1478H14.5404C14.5421 9.67352 14.5457 9.1975 14.5493 8.71973C15.0352 8.71446 15.5176 8.7127 16 8.70743V7.28641C15.5194 7.2829 15.0335 7.2829 14.5511 7.27763ZM5.08214 7.28466C5.08035 7.85201 5.08214 8.42112 5.08393 8.98848C6.05226 9.02009 7.02238 9.00604 7.99071 9.02009C7.56371 11.1332 4.64264 11.8182 3.09724 10.4376C1.50717 9.22736 1.58221 6.57327 3.2348 5.4491C4.39073 4.54274 6.03261 4.76582 7.18853 5.55098C7.64232 5.1382 8.06753 4.69556 8.47666 4.23886C7.51548 3.48532 6.33633 2.94782 5.08214 3.00403C2.463 2.91796 0.0564567 5.17333 0.0135785 7.75013C-0.154361 9.85619 1.25347 11.9201 3.24016 12.6649C5.21971 13.4149 7.75845 12.9037 9.02336 11.1543C9.8577 10.0494 10.0381 8.62663 9.93988 7.28993C8.31944 7.27763 6.70079 7.27939 5.08214 7.28466Z" fill="currentColor"/>
</svg>
