<svg width="16" height="16" viewBox="0 0 16 16" fill="none" xmlns="http://www.w3.org/2000/svg">
<path d="M4.17811 15V5.55422H1.17706V15H4.17811ZM2.67797 4.26379C3.72449 4.26379 4.3759 3.53846 4.3759 2.63205C4.3564 1.70519 3.72453 1 2.69783 1C1.67129 1 1 1.70521 1 2.63205C1 3.53851 1.65125 4.26379 2.65838 4.26379H2.67788H2.67797ZM5.83918 15H8.84023V9.72502C8.84023 9.44271 8.85973 9.16069 8.93898 8.95888C9.15593 8.39483 9.64972 7.81064 10.4787 7.81064C11.5647 7.81064 11.9991 8.67685 11.9991 9.94665V14.9999H15V9.58381C15 6.68244 13.5194 5.33246 11.5449 5.33246C9.92599 5.33246 9.21516 6.27917 8.82027 6.92397H8.8403V5.55403H5.83925C5.87863 6.44037 5.83925 14.9998 5.83925 14.9998L5.83918 15Z" fill="currentColor"/>
</svg>
