<svg width="32" height="33" viewBox="0 0 32 33" fill="none" xmlns="http://www.w3.org/2000/svg">
<path fill-rule="evenodd" clip-rule="evenodd" d="M27.3024 10.9944C27.5938 11.4004 27.5017 11.9665 27.0941 12.2578L17.4378 19.1925C17.0182 19.4959 16.523 19.6469 16.0294 19.6469C15.5388 19.6469 15.0467 19.4974 14.6271 19.1985L4.9074 12.2593C4.50134 11.9695 4.40624 11.4034 4.69607 10.9959C4.9874 10.5883 5.55346 10.4932 5.95952 10.7861L15.6777 17.7237C15.8875 17.8732 16.1698 17.8747 16.3811 17.7222L26.039 10.7876C26.445 10.4932 27.0111 10.5898 27.3024 10.9944ZM30.19 24.0245C30.19 25.1899 29.2405 26.1393 28.0767 26.1393H3.92464C2.7593 26.1393 1.81133 25.1899 1.81133 24.0245V8.92947C1.81133 7.76413 2.7593 6.81616 3.92464 6.81616H28.0767C29.2405 6.81616 30.19 7.76413 30.19 8.92947V24.0245ZM28.0768 5.00464H3.92471C1.76008 5.00464 0 6.76623 0 8.92935V24.0244C0 26.189 1.76008 27.9491 3.92471 27.9491H28.0768C30.2399 27.9491 32 26.189 32 24.0244V8.92935C32 6.76623 30.2399 5.00464 28.0768 5.00464Z" fill="currentColor"/>
</svg>
