<svg width="32" height="33" viewBox="0 0 32 33" fill="none" xmlns="http://www.w3.org/2000/svg">
<path fill-rule="evenodd" clip-rule="evenodd" d="M27.7197 15.8516L26.3385 8.01705C28.1892 8.13026 29.7938 9.49037 30.1274 11.3864C30.4611 13.2839 29.4164 15.1135 27.7197 15.8516ZM26.5227 22.8107C26.3687 22.939 25.9566 23.2122 25.392 23.007V23.0054L20.2429 21.1019C19.2285 20.7275 18.1567 20.5373 17.0804 20.5373C16.5535 20.5373 16.0237 20.5826 15.4999 20.6747L6.74596 22.219C5.02658 22.5194 3.34946 21.3615 3.04302 19.6255L1.85953 12.9095C1.55309 11.1735 2.71696 9.51303 4.45295 9.20659L13.2084 7.66232C14.7964 7.38154 16.2879 6.68262 17.5151 5.63952L21.7041 2.08904C22.16 1.70109 22.6461 1.81732 22.8333 1.88525C23.0205 1.95318 23.4688 2.17358 23.573 2.76381L24.3685 7.27738C24.37 7.28946 24.3655 7.30154 24.367 7.31361C24.37 7.3272 24.3791 7.33777 24.3821 7.35135L26.109 17.1469C26.1105 17.1604 26.106 17.1725 26.109 17.1846C26.1105 17.1982 26.1196 17.2087 26.1226 17.2223L26.9182 21.7329C27.0208 22.3231 26.6766 22.6839 26.5227 22.8107ZM13.1585 29.8844C12.1532 30.061 11.1569 29.3802 10.9757 28.3568L10.1138 23.4643L13.8046 22.8137L14.6681 27.7046C14.8477 28.7281 14.1699 29.7063 13.1585 29.8844ZM31.9103 11.0723C31.403 8.1921 28.8625 6.17986 26.02 6.21156L25.3573 2.44975C25.1701 1.39306 24.4561 0.544691 23.4477 0.180888C22.4393 -0.182915 21.3494 0.0133277 20.5327 0.707723L16.3452 4.2582C15.3595 5.09298 14.1654 5.65454 12.8929 5.87946L4.13745 7.42223C1.41874 7.90226 -0.40329 10.5047 0.076749 13.2234L1.26024 19.9395C1.73877 22.6582 4.3352 24.4832 7.06146 24.0032L8.32949 23.7783L9.19295 28.6707C9.50996 30.4611 11.0739 31.7246 12.8325 31.7246C13.0438 31.7246 13.2582 31.7064 13.4741 31.6687C15.4697 31.3155 16.8056 29.3968 16.4509 27.3906L15.5889 22.4982L15.8139 22.4589C17.0894 22.2355 18.4028 22.3532 19.6149 22.8016L24.764 24.7051C25.1052 24.8304 25.4539 24.8923 25.8011 24.8923C26.4774 24.8923 27.1385 24.6568 27.6835 24.2024C28.5062 23.5156 28.8866 22.4755 28.7009 21.4188L28.0382 17.6585C30.7162 16.7181 32.419 13.9526 31.9103 11.0723Z" fill="currentColor"/>
</svg>
