<svg width="10" height="16" viewBox="0 0 10 16" fill="none" xmlns="http://www.w3.org/2000/svg">
<path d="M4.21348 11.2701C2.97311 11.1407 1.85473 10.8352 0.897221 10.0863C0.778412 9.99318 0.655749 9.90336 0.54733 9.7993C0.128231 9.39679 0.0860028 8.9358 0.417629 8.46073C0.701329 8.0542 1.17757 7.94544 1.67258 8.17887C1.76843 8.22411 1.85976 8.28059 1.94723 8.34125C3.73171 9.56738 6.18313 9.60123 7.97431 8.39638C8.15177 8.26031 8.34146 8.14938 8.56132 8.09274C8.9888 7.98298 9.38745 8.13999 9.61686 8.51402C9.87894 8.94116 9.87559 9.35808 9.55268 9.68971C9.05733 10.1981 8.46161 10.5659 7.7997 10.8227C7.17382 11.0653 6.48828 11.1875 5.80978 11.2686C5.91217 11.38 5.96043 11.4348 6.02444 11.4992C6.94575 12.4248 7.87109 13.3466 8.78939 14.2752C9.10224 14.5915 9.1676 14.9838 8.99533 15.3518C8.80698 15.754 8.38537 16.0186 7.97197 15.9903C7.71005 15.9722 7.50578 15.8418 7.3243 15.659C6.62904 14.9594 5.92071 14.2726 5.23953 13.5598C5.04129 13.3525 4.94594 13.3917 4.771 13.5717C4.07155 14.2918 3.36071 15.0008 2.64567 15.7057C2.3246 16.0223 1.94254 16.0792 1.57019 15.8984C1.17439 15.7066 0.922525 15.3025 0.941963 14.8965C0.955369 14.6219 1.09043 14.4121 1.27895 14.2239C2.19071 13.3135 3.09996 12.4007 4.00955 11.4888C4.06971 11.4281 4.12584 11.3638 4.21348 11.2701Z" fill="currentColor"/>
<path d="M4.96952 8.09863C2.75672 8.09109 0.942243 6.25667 0.955147 4.04036C0.967882 1.79958 2.78353 -0.00618427 5.01811 1.59188e-05C7.25722 0.00604853 9.05444 1.83778 9.04321 4.10186C9.03181 6.31365 7.20477 8.10634 4.96952 8.09863ZM6.98056 4.04572C6.9767 2.94527 6.1003 2.0692 5.00203 2.0682C3.89454 2.06702 3.01026 2.95901 3.0188 4.06952C3.02702 5.16578 3.91096 6.03565 5.01225 6.03162C6.11018 6.02777 6.98424 5.146 6.98056 4.04572Z" fill="currentColor"/>
</svg>
