<svg width="32" height="33" viewBox="0 0 32 33" fill="none" xmlns="http://www.w3.org/2000/svg">
<path fill-rule="evenodd" clip-rule="evenodd" d="M30.1902 18.0854C30.1902 18.2107 30.089 18.3118 29.9637 18.3118H28.5418C27.6768 18.3118 26.8994 18.8779 26.6111 19.7217C26.4753 20.1142 26.3198 20.4976 26.1371 20.8674C25.7432 21.6735 25.8911 22.626 26.5085 23.2403L27.5078 24.2336C27.5621 24.2879 27.5742 24.3498 27.5742 24.3936C27.5742 24.4374 27.5636 24.5008 27.5093 24.5551L24.5552 27.5077C24.4993 27.5636 24.4359 27.5756 24.3937 27.5756C24.3514 27.5756 24.288 27.5636 24.2336 27.5077L23.2389 26.5084C22.626 25.891 21.672 25.7446 20.8644 26.1386C20.4976 26.3197 20.1157 26.4767 19.7232 26.6096C18.8794 26.8994 18.3119 27.6768 18.3119 28.5432V29.9637C18.3119 30.089 18.2092 30.1901 18.0839 30.1901H13.9162C13.7909 30.1901 13.6882 30.089 13.6882 29.9637V28.5432C13.6882 27.6768 13.1207 26.8994 12.2753 26.6096C11.8844 26.4767 11.5025 26.3197 11.1342 26.1386C10.8338 25.9907 10.5122 25.9197 10.1952 25.9197C9.6639 25.9197 9.14614 26.122 8.76122 26.5084L7.76797 27.5077C7.71211 27.5636 7.64871 27.5756 7.60645 27.5756C7.56418 27.5756 7.50078 27.5636 7.44644 27.5092L4.49385 24.5566C4.43649 24.5008 4.42743 24.4374 4.42743 24.3936C4.42743 24.3498 4.438 24.2879 4.49385 24.2336L5.49465 23.2403C6.10902 22.626 6.25846 21.6735 5.86297 20.8674C5.68183 20.4976 5.52484 20.1142 5.38899 19.7232C5.10067 18.8794 4.32478 18.3118 3.45833 18.3118H2.03788C1.91259 18.3118 1.80995 18.2107 1.80995 18.0854V13.9161C1.80995 13.7924 1.91259 13.6897 2.03788 13.6897H3.45833C4.32478 13.6897 5.10067 13.1221 5.38899 12.2798C5.52484 11.8874 5.68183 11.5039 5.86297 11.1356C6.25846 10.328 6.10902 9.37554 5.49314 8.76268L4.49385 7.76792C4.438 7.71358 4.42743 7.65169 4.42743 7.60942C4.42743 7.56565 4.43649 7.50225 4.49234 7.44791L7.44644 4.4938C7.50078 4.43795 7.56418 4.42739 7.60645 4.42739C7.64871 4.42739 7.71211 4.43795 7.76797 4.4938L8.76273 5.49461C9.37559 6.11048 10.3266 6.25691 11.1357 5.86293C11.5025 5.68178 11.8844 5.5248 12.2769 5.39196C13.1207 5.10213 13.6882 4.32625 13.6882 3.45979V2.03784C13.6882 1.91406 13.7909 1.81141 13.9162 1.81141H18.0839C18.2092 1.81141 18.3119 1.91406 18.3119 2.03784V3.45979C18.3119 4.32625 18.8794 5.10213 19.7248 5.39196C20.1157 5.5248 20.4976 5.68178 20.8659 5.86293C21.6705 6.25992 22.6245 6.10897 23.2404 5.4931L24.2336 4.49531C24.288 4.43795 24.3514 4.42739 24.3937 4.42739C24.4359 4.42739 24.4993 4.43795 24.5552 4.4938L27.5078 7.4464C27.5636 7.50225 27.5742 7.56565 27.5742 7.60942C27.5742 7.65169 27.5621 7.71358 27.5078 7.76943L26.507 8.76268C25.8911 9.37554 25.7432 10.328 26.1371 11.1356C26.3198 11.5039 26.4753 11.8874 26.6111 12.2783C26.8994 13.1221 27.6753 13.6897 28.5418 13.6897H29.9637C30.089 13.6897 30.1902 13.7924 30.1902 13.9161V18.0854ZM29.9637 11.8783H28.5417C28.4285 11.8783 28.3545 11.7817 28.3244 11.6896C28.1643 11.2262 27.9787 10.7733 27.7658 10.3371C27.7236 10.2541 27.7055 10.1273 27.784 10.0458L28.7832 9.05401C29.1697 8.6706 29.384 8.15887 29.3855 7.61394C29.387 7.0675 29.1757 6.55427 28.7878 6.16633L25.8337 3.21072C25.4487 2.8273 24.9385 2.61597 24.3936 2.61597H24.3906C23.8457 2.61597 23.3339 2.83032 22.9475 3.21676L21.9558 4.21605C21.8742 4.29756 21.752 4.28096 21.6644 4.23718C21.2267 4.02283 20.7738 3.83565 20.3104 3.67715C20.2228 3.64847 20.1217 3.573 20.1217 3.45979V2.03783C20.1217 0.91476 19.2085 0 18.0839 0H13.9161C12.7931 0 11.8783 0.91476 11.8783 2.03783V3.45979C11.8783 3.573 11.7772 3.64847 11.6911 3.67715C11.2262 3.83565 10.7748 4.02283 10.3386 4.23718C10.2465 4.27945 10.1227 4.29454 10.0458 4.21605L9.0525 3.21676C8.66607 2.83032 8.15435 2.61597 7.60942 2.61597H7.6064C7.06297 2.61597 6.55125 2.8273 6.16633 3.21223L3.21072 6.16784C2.82428 6.55427 2.61295 7.0675 2.61446 7.61394C2.61597 8.15887 2.83032 8.6706 3.21676 9.0525L4.21454 10.0458C4.29605 10.1273 4.27643 10.2541 4.23567 10.3371C4.02132 10.7733 3.83565 11.2262 3.67715 11.6911C3.64545 11.7817 3.57149 11.8783 3.45828 11.8783H2.03783C0.913251 11.8783 0 12.7931 0 13.9161V18.0854C0 19.21 0.913251 20.1232 2.03783 20.1232H3.45828C3.57149 20.1232 3.64545 20.2198 3.67715 20.3119C3.83565 20.7768 4.02132 21.2297 4.23567 21.6644C4.27643 21.7489 4.29605 21.8757 4.21605 21.9558L3.21676 22.949C2.83032 23.3324 2.61597 23.8426 2.61446 24.3876C2.61295 24.934 2.82428 25.4472 3.21223 25.8352L6.16633 28.7908C6.55125 29.1742 7.06297 29.3855 7.6064 29.3855H7.60942C8.15435 29.3855 8.66607 29.1712 9.0525 28.7848L10.0442 27.7855C10.1273 27.7055 10.251 27.7221 10.3371 27.7658C10.7748 27.9802 11.2262 28.1659 11.6896 28.3244C11.7772 28.3545 11.8783 28.43 11.8783 28.5432V29.9637C11.8783 31.0883 12.7931 32.0015 13.9161 32.0015H18.0839C19.2085 32.0015 20.1217 31.0883 20.1217 29.9637V28.5432C20.1217 28.43 20.2228 28.3545 20.3089 28.3244C20.7738 28.1659 21.2267 27.9802 21.6629 27.7658C21.752 27.7206 21.8757 27.7055 21.9542 27.7855L22.9475 28.7848C23.3339 29.1712 23.8457 29.3855 24.3906 29.3855H24.3936C24.9385 29.3855 25.4487 29.1742 25.8337 28.7893L28.7893 25.8337C29.1757 25.4472 29.387 24.934 29.3855 24.3876C29.384 23.8426 29.1697 23.3324 28.7832 22.949L27.7855 21.9558C27.7055 21.8757 27.7236 21.7489 27.7658 21.6644C27.9787 21.2297 28.1643 20.7768 28.3244 20.3119C28.3545 20.2198 28.4285 20.1232 28.5417 20.1232H29.9637C31.0868 20.1232 32 19.21 32 18.0854V13.9161C32 12.7931 31.0868 11.8783 29.9637 11.8783ZM16.0007 20.3783C13.587 20.3783 11.6216 18.4145 11.6216 16.0008C11.6216 13.5871 13.587 11.6232 16.0007 11.6232C18.4129 11.6232 20.3783 13.5871 20.3783 16.0008C20.3783 18.4145 18.4129 20.3783 16.0007 20.3783ZM16.0008 9.81179C12.5878 9.81179 9.81179 12.5878 9.81179 16.0008C9.81179 19.4138 12.5878 22.1897 16.0008 22.1897C19.4122 22.1897 22.1882 19.4138 22.1882 16.0008C22.1882 12.5878 19.4122 9.81179 16.0008 9.81179Z" fill="currentColor"/>
</svg>
