<svg width="212" height="184" viewBox="0 0 212 184" fill="none" xmlns="http://www.w3.org/2000/svg">
<path d="M122.584 152.337L122.321 153.302L122.323 153.303L122.584 152.337ZM34.2413 128.251L34.5044 127.286L34.5022 127.285L34.2413 128.251ZM23.3883 117.305L24.3548 117.048L24.3545 117.047L23.3883 117.305ZM5.86868 51.6399L4.90222 51.8967L4.90248 51.8976L5.86868 51.6399ZM6.71416 46.254L6.07788 45.4825L6.0333 45.5193L5.99325 45.561L6.71416 46.254ZM20.4 36.2627C20.826 35.9113 20.8865 35.281 20.5351 34.8549C20.1837 34.4289 19.5535 34.3683 19.1274 34.7197L20.4 36.2627ZM128.239 151.134L129.024 151.754L129.026 151.751L128.239 151.134ZM122.847 151.373L34.5044 127.286L33.9783 129.216L122.321 153.302L122.847 151.373ZM24.3545 117.047L6.83488 51.3821L4.90248 51.8976L22.4221 117.563L24.3545 117.047ZM34.5022 127.285C32.3494 126.704 30.1007 125.272 28.2273 123.383C26.3543 121.494 24.9329 119.224 24.3548 117.048L22.4218 117.562C23.1106 120.154 24.7521 122.718 26.8071 124.791C28.8618 126.863 31.4061 128.52 33.9804 129.216L34.5022 127.285ZM5.99325 45.561C4.56239 47.0494 4.22348 49.3424 4.90222 51.8967L6.83514 51.383C6.26188 49.2257 6.65957 47.7537 7.43507 46.947L5.99325 45.561ZM7.35044 47.0255L20.4 36.2627L19.1274 34.7197L6.07788 45.4825L7.35044 47.0255ZM127.454 150.514C126.703 151.466 125.187 152.005 122.845 151.372L122.323 153.303C125.113 154.057 127.597 153.562 129.024 151.753L127.454 150.514ZM129.026 151.751L139.413 138.495L137.839 137.262L127.452 150.517L129.026 151.751Z" fill="#56F0CC"/>
<path d="M64.5775 120.423L46.7731 115.611C42.046 114.334 37.187 109.433 35.9201 104.666L18.9702 40.8781C17.7034 36.1107 20.5085 33.2816 25.2357 34.5593L106.368 56.7145L116.318 59.5185C118.697 60.1891 120.547 62.0649 121.183 64.4536L139.349 132.62C140.616 137.387 137.81 140.216 133.083 138.939L80.17 124.638" stroke="#56F0CC" stroke-width="2"/>
<path d="M33.1191 49.1121L70.5236 84.2611M90.7242 88.9719L85.4627 93.4315C83.9111 94.7467 81.6195 94.6879 80.1372 93.295L70.5236 84.2611M90.7242 88.9719L107.296 74.9259M90.7242 88.9719L106.221 104.731M127.492 126.363L121.456 120.225M70.5236 84.2611L48.5658 104.49M116.652 115.339L111.026 109.618" stroke="#56F0CC" stroke-width="2" stroke-linecap="round"/>
<path d="M211 19.0005L165.283 45.2576" stroke="#56F0CC" stroke-width="2" stroke-linecap="round" stroke-linejoin="round"/>
<path d="M210.997 19L170.487 78.0984L165.28 45.2571L139.293 24.3509L210.997 19Z" stroke="#56F0CC" stroke-width="2" stroke-linecap="round" stroke-linejoin="round"/>
<path d="M162.594 49.4833C163.145 49.4475 163.563 48.9717 163.527 48.4206C163.491 47.8695 163.015 47.4517 162.464 47.4874L162.594 49.4833ZM137.42 107.435L136.482 107.782L137.42 107.435ZM72.1358 164.885L72.0866 165.884L72.1358 164.885ZM12.1877 81.0365C12.5073 80.5861 12.4013 79.9619 11.9509 79.6423C11.5005 79.3227 10.8762 79.4287 10.5566 79.8791L12.1877 81.0365ZM116.944 154.726C117.403 154.419 117.526 153.798 117.219 153.339C116.913 152.88 116.292 152.756 115.832 153.063L116.944 154.726ZM137.572 121.272C137.489 121.818 137.864 122.328 138.41 122.411C138.956 122.494 139.466 122.119 139.549 121.573L137.572 121.272ZM139.642 120.916C139.715 120.369 139.331 119.866 138.783 119.793C138.236 119.72 137.733 120.104 137.66 120.652L139.642 120.916ZM136.687 108.362C136.864 108.885 137.432 109.166 137.955 108.989C138.478 108.813 138.759 108.245 138.582 107.722L136.687 108.362ZM138.186 106.62C137.997 106.102 137.423 105.834 136.904 106.024C136.385 106.213 136.118 106.787 136.307 107.306L138.186 106.62ZM133.411 97.861C133.542 98.3975 134.083 98.7261 134.62 98.5949C135.156 98.4638 135.485 97.9226 135.353 97.3861L133.411 97.861ZM135.13 96.4466C135.006 95.9085 134.469 95.5729 133.931 95.697C133.393 95.8212 133.057 96.3581 133.181 96.8962L135.13 96.4466ZM131.673 87.1215C131.712 87.6724 132.191 88.0871 132.742 88.0479C133.293 88.0087 133.707 87.5303 133.668 86.9794L131.673 87.1215ZM133.608 86.0156C133.58 85.4641 133.109 85.0404 132.557 85.0693C132.006 85.0982 131.582 85.5687 131.611 86.1203L133.608 86.0156ZM132.139 76.1821C132.046 76.7265 132.411 77.2433 132.956 77.3364C133.5 77.4295 134.017 77.0636 134.11 76.5192L132.139 76.1821ZM134.28 75.5982C134.387 75.0564 134.034 74.5304 133.492 74.4235C132.95 74.3165 132.425 74.669 132.318 75.2109L134.28 75.5982ZM135.619 65.7519C135.362 66.2407 135.55 66.8454 136.039 67.1026C136.527 67.3597 137.132 67.172 137.389 66.6833L135.619 65.7519ZM137.843 65.8521C138.115 65.3715 137.946 64.7613 137.466 64.4891C136.985 64.2169 136.375 64.3858 136.103 64.8663L137.843 65.8521ZM142.325 57.0065C141.921 57.383 141.898 58.0157 142.275 58.4198C142.651 58.8239 143.284 58.8463 143.688 58.4699L142.325 57.0065ZM144.389 57.8354C144.804 57.4708 144.845 56.839 144.48 56.4241C144.116 56.0093 143.484 55.9686 143.069 56.3332L144.389 57.8354ZM151.413 50.8184C150.917 51.0601 150.71 51.6586 150.952 52.1552C151.194 52.6518 151.792 52.8584 152.289 52.6168L151.413 50.8184ZM153.144 52.2136C153.647 51.9844 153.868 51.3913 153.639 50.8888C153.41 50.3863 152.817 50.1647 152.315 50.3938L153.144 52.2136ZM161.958 47.5307C161.409 47.5879 161.01 48.0796 161.067 48.629C161.124 49.1783 161.616 49.5772 162.165 49.5199L161.958 47.5307ZM10.2617 80.2979C9.9452 80.7505 10.0556 81.374 10.5082 81.6904C10.9608 82.0069 11.5843 81.8965 11.9008 81.4439L10.2617 80.2979ZM6.93504 89.8013C7.17824 89.3055 6.97342 88.7063 6.47757 88.4632C5.98171 88.22 5.38259 88.4248 5.13939 88.9206L6.93504 89.8013ZM4.70207 89.8323C4.46761 90.3324 4.68291 90.9278 5.18296 91.1623C5.68301 91.3967 6.27844 91.1814 6.5129 90.6814L4.70207 89.8323ZM3.25794 99.7677C3.39084 99.2316 3.06401 98.6894 2.52796 98.5564C1.9919 98.4235 1.44961 98.7504 1.31671 99.2864L3.25794 99.7677ZM1.08463 100.268C0.963336 100.806 1.30179 101.342 1.84059 101.463C2.3794 101.584 2.91451 101.246 3.0358 100.707L1.08463 100.268ZM2.00215 110.277C1.99641 109.725 1.54407 109.282 0.991814 109.287C0.439559 109.293 -0.003479 109.745 0.00226033 110.298L2.00215 110.277ZM0.0248345 111.304C0.043885 111.855 0.506777 112.287 1.05873 112.268C1.61069 112.249 2.04269 111.786 2.02364 111.235L0.0248345 111.304ZM3.51985 120.73C3.36876 120.199 2.81564 119.891 2.28442 120.042C1.75321 120.193 1.44505 120.746 1.59614 121.278L3.51985 120.73ZM1.88422 122.247C2.04783 122.774 2.60808 123.069 3.13557 122.906C3.66307 122.742 3.95806 122.182 3.79445 121.654L1.88422 122.247ZM7.67356 130.472C7.39754 129.993 6.78599 129.829 6.30763 130.105C5.82927 130.382 5.66524 130.993 5.94126 131.471L7.67356 130.472ZM6.45524 132.341C6.74108 132.814 7.35589 132.965 7.82845 132.679C8.301 132.393 8.45236 131.779 8.16652 131.306L6.45524 132.341ZM13.949 139.057C13.5797 138.647 12.9474 138.613 12.5368 138.983C12.1261 139.352 12.0926 139.984 12.462 140.395L13.949 139.057ZM13.1444 141.141C13.5207 141.545 14.1535 141.567 14.5577 141.191C14.9619 140.815 14.9845 140.182 14.6081 139.778L13.1444 141.141ZM21.7696 146.324C21.3347 145.984 20.7062 146.06 20.3657 146.495C20.0251 146.93 20.1016 147.558 20.5364 147.899L21.7696 146.324ZM21.3318 148.513C21.7714 148.847 22.3988 148.761 22.733 148.322C23.0673 147.882 22.9818 147.255 22.5422 146.92L21.3318 148.513ZM30.6769 152.274C30.1968 152.001 29.5863 152.169 29.3133 152.649C29.0403 153.129 29.2082 153.739 29.6883 154.012L30.6769 152.274ZM30.5579 154.5C31.0413 154.767 31.6497 154.591 31.9167 154.108C32.1838 153.625 32.0084 153.016 31.525 152.749L30.5579 154.5ZM40.3304 156.952C39.8191 156.743 39.2353 156.988 39.0264 157.5C38.8174 158.011 39.0625 158.595 39.5737 158.804L40.3304 156.952ZM40.5054 159.178C41.019 159.382 41.6 159.13 41.8033 158.616C42.0065 158.103 41.755 157.522 41.2414 157.319L40.5054 159.178ZM50.4986 160.418C49.9664 160.271 49.4153 160.583 49.2677 161.115C49.12 161.647 49.4317 162.198 49.9639 162.346L50.4986 160.418ZM50.9245 162.607C51.4582 162.749 52.0061 162.432 52.1483 161.898C52.2905 161.364 51.9731 160.816 51.4394 160.674L50.9245 162.607ZM60.9982 162.712C60.453 162.624 59.9395 162.994 59.8513 163.54C59.7631 164.085 60.1335 164.598 60.6787 164.686L60.9982 162.712ZM61.6664 164.841C62.2124 164.924 62.7222 164.549 62.8051 164.003C62.888 163.457 62.5125 162.947 61.9664 162.864L61.6664 164.841ZM71.6942 163.861C71.1427 163.831 70.6715 164.254 70.6417 164.805C70.6119 165.357 71.0347 165.828 71.5862 165.858L71.6942 163.861ZM72.6211 165.909C73.1729 165.933 73.6397 165.505 73.6639 164.953C73.688 164.402 73.2603 163.935 72.7085 163.911L72.6211 165.909ZM83.1262 163.768C82.5754 163.809 82.162 164.288 82.2027 164.839C82.2435 165.39 82.7231 165.803 83.2738 165.763L83.1262 163.768ZM84.337 165.677C84.8872 165.629 85.2946 165.145 85.2468 164.594C85.199 164.044 84.7143 163.637 84.1641 163.685L84.337 165.677ZM94.4395 162.097C93.9009 162.219 93.5632 162.755 93.6853 163.293C93.8074 163.832 94.3431 164.17 94.8817 164.047L94.4395 162.097ZM95.9213 163.804C96.458 163.674 96.7879 163.133 96.6579 162.597C96.528 162.06 95.9875 161.73 95.4507 161.86L95.9213 163.804ZM105.323 158.658C104.813 158.87 104.57 159.455 104.781 159.965C104.993 160.475 105.577 160.718 106.088 160.506L105.323 158.658ZM107.073 160.089C107.58 159.869 107.813 159.281 107.593 158.774C107.374 158.267 106.785 158.034 106.278 158.254L107.073 160.089ZM115.401 153.348C114.939 153.651 114.81 154.271 115.113 154.733C115.416 155.195 116.036 155.324 116.498 155.021L115.401 153.348ZM139.549 121.573C139.582 121.353 139.613 121.135 139.642 120.916L137.66 120.652C137.632 120.858 137.603 121.065 137.572 121.272L139.549 121.573ZM138.582 107.722C138.51 107.509 138.435 107.297 138.358 107.087L136.482 107.782C136.553 107.974 136.622 108.167 136.687 108.362L138.582 107.722ZM138.358 107.087C138.3 106.931 138.243 106.776 138.186 106.62L136.307 107.306C136.365 107.464 136.423 107.623 136.482 107.782L138.358 107.087ZM135.353 97.3861C135.276 97.0709 135.202 96.7578 135.13 96.4466L133.181 96.8962C133.255 97.2159 133.332 97.5375 133.411 97.861L135.353 97.3861ZM133.668 86.9794C133.645 86.6554 133.625 86.3342 133.608 86.0156L131.611 86.1203C131.629 86.4514 131.649 86.7851 131.673 87.1215L133.668 86.9794ZM134.11 76.5192C134.163 76.2088 134.22 75.9018 134.28 75.5982L132.318 75.2109C132.254 75.5312 132.195 75.855 132.139 76.1821L134.11 76.5192ZM137.389 66.6833C137.537 66.4019 137.689 66.1249 137.843 65.8521L136.103 64.8663C135.938 65.1571 135.777 65.4522 135.619 65.7519L137.389 66.6833ZM143.688 58.4699C143.92 58.2538 144.154 58.0423 144.389 57.8354L143.069 56.3332C142.819 56.5526 142.571 56.777 142.325 57.0065L143.688 58.4699ZM152.289 52.6168C152.576 52.4771 152.861 52.3427 153.144 52.2136L152.315 50.3938C152.016 50.5298 151.716 50.6713 151.413 50.8184L152.289 52.6168ZM162.165 49.5199C162.319 49.5039 162.462 49.4918 162.594 49.4833L162.464 47.4874C162.304 47.4978 162.135 47.5123 161.958 47.5307L162.165 49.5199ZM10.5566 79.8791C10.4576 80.0187 10.3592 80.1583 10.2617 80.2979L11.9008 81.4439C11.9957 81.3081 12.0913 81.1723 12.1877 81.0365L10.5566 79.8791ZM5.13939 88.9206C4.99023 89.2248 4.84446 89.5287 4.70207 89.8323L6.5129 90.6814C6.65029 90.3884 6.791 90.095 6.93504 89.8013L5.13939 88.9206ZM1.31671 99.2864C1.2355 99.614 1.15815 99.9411 1.08463 100.268L3.0358 100.707C3.10615 100.394 3.18018 100.081 3.25794 99.7677L1.31671 99.2864ZM0.00226033 110.298C0.00575328 110.634 0.0132899 110.969 0.0248345 111.304L2.02364 111.235C2.01265 110.916 2.00548 110.597 2.00215 110.277L0.00226033 110.298ZM1.59614 121.278C1.68835 121.602 1.78438 121.925 1.88422 122.247L3.79445 121.654C3.69926 121.347 3.60772 121.039 3.51985 120.73L1.59614 121.278ZM5.94126 131.471C6.10934 131.763 6.28068 132.053 6.45524 132.341L8.16652 131.306C7.99905 131.029 7.83472 130.751 7.67356 130.472L5.94126 131.471ZM12.462 140.395C12.6868 140.645 12.9143 140.893 13.1444 141.141L14.6081 139.778C14.3858 139.539 14.1661 139.299 13.949 139.057L12.462 140.395ZM20.5364 147.899C20.7995 148.105 21.0646 148.309 21.3318 148.513L22.5422 146.92C22.2826 146.723 22.0251 146.524 21.7696 146.324L20.5364 147.899ZM29.6883 154.012C29.9766 154.176 30.2664 154.339 30.5579 154.5L31.525 152.749C31.2408 152.592 30.958 152.434 30.6769 152.274L29.6883 154.012ZM39.5737 158.804C39.8831 158.93 40.1937 159.055 40.5054 159.178L41.2414 157.319C40.9365 157.198 40.6328 157.076 40.3304 156.952L39.5737 158.804ZM49.9639 162.346C50.2832 162.434 50.6034 162.521 50.9245 162.607L51.4394 160.674C51.1249 160.59 50.8113 160.505 50.4986 160.418L49.9639 162.346ZM60.6787 164.686C61.0073 164.74 61.3365 164.791 61.6664 164.841L61.9664 162.864C61.643 162.815 61.3203 162.764 60.9982 162.712L60.6787 164.686ZM71.5862 165.858C71.7529 165.867 71.9197 165.876 72.0866 165.884L72.185 163.886C72.0213 163.878 71.8577 163.87 71.6942 163.861L71.5862 165.858ZM72.0866 165.884C72.2651 165.893 72.4433 165.901 72.6211 165.909L72.7085 163.911C72.5344 163.903 72.3598 163.895 72.185 163.886L72.0866 165.884ZM83.2738 165.763C83.6299 165.736 83.9842 165.708 84.337 165.677L84.1641 163.685C83.8198 163.715 83.4738 163.742 83.1262 163.768L83.2738 165.763ZM94.8817 164.047C95.2302 163.968 95.5767 163.887 95.9213 163.804L95.4507 161.86C95.1156 161.941 94.7785 162.02 94.4395 162.097L94.8817 164.047ZM106.088 160.506C106.419 160.369 106.747 160.23 107.073 160.089L106.278 158.254C105.962 158.391 105.644 158.526 105.323 158.658L106.088 160.506ZM116.498 155.021C116.647 154.923 116.796 154.825 116.944 154.726L115.832 153.063C115.689 153.159 115.546 153.254 115.401 153.348L116.498 155.021Z" fill="#56F0CC"/>
</svg>
