<svg width="16" height="16" viewBox="0 0 16 16" fill="none" xmlns="http://www.w3.org/2000/svg">
<path d="M16 3.54405C15.4116 3.79787 14.7713 3.98054 14.1118 4.05168C14.7965 3.64488 15.3093 3.00219 15.5539 2.24421C14.9113 2.62645 14.2074 2.89448 13.4734 3.03642C13.1666 2.70844 12.7955 2.44715 12.3833 2.26884C11.9711 2.09053 11.5266 1.99902 11.0775 2.00001C9.26043 2.00001 7.79906 3.47291 7.79906 5.28038C7.79906 5.5342 7.82983 5.78801 7.87982 6.03222C5.159 5.88993 2.73236 4.59008 1.1191 2.59994C0.825142 3.10202 0.671099 3.6737 0.672996 4.25551C0.672996 5.39383 1.25177 6.39756 2.13436 6.98787C1.61424 6.96739 1.1063 6.82442 0.651845 6.57061V6.61099C0.651845 8.20503 1.77863 9.52603 3.28038 9.82984C2.99841 9.90308 2.70834 9.94055 2.41702 9.94136C2.20358 9.94136 2.00168 9.92021 1.79786 9.89137C2.2132 11.1912 3.42267 12.1353 4.86288 12.1661C3.73609 13.0487 2.32472 13.5678 0.792213 13.5678C0.517246 13.5678 0.26343 13.5582 0 13.5275C1.45367 14.46 3.17846 14.9984 5.03593 14.9984C11.066 14.9984 14.3656 10.0029 14.3656 5.66688C14.3656 5.52458 14.3656 5.38229 14.356 5.24C14.9944 4.77275 15.5539 4.19397 16 3.54405Z" fill="currentColor"/>
</svg>
