<svg width="20" height="20" viewBox="0 0 20 20" fill="none" xmlns="http://www.w3.org/2000/svg">
<path d="M2.32902 10.4341C2.19684 10.2708 2.08286 10.1244 1.9884 10C2.08286 9.87556 2.19684 9.72916 2.32902 9.5659C2.76694 9.02502 3.39944 8.3055 4.178 7.58845C5.76369 6.12804 7.82289 4.8 10 4.8C12.1771 4.8 14.2363 6.12804 15.822 7.58845C16.6006 8.3055 17.2331 9.02502 17.671 9.5659C17.8032 9.72916 17.9171 9.87556 18.0116 10C17.9171 10.1244 17.8032 10.2708 17.671 10.4341C17.2331 10.975 16.6006 11.6945 15.822 12.4115C14.2363 13.872 12.1771 15.2 10 15.2C7.82289 15.2 5.76369 13.872 4.178 12.4115C3.39944 11.6945 2.76694 10.975 2.32902 10.4341Z" stroke="#4676CC" stroke-width="1.6"/>
<circle cx="10" cy="10" r="2.2" stroke="#4676CC" stroke-width="1.6"/>
</svg>
