<svg width="16" height="16" viewBox="0 0 16 16" fill="none" xmlns="http://www.w3.org/2000/svg">
<g clip-path="url(#clip0)">
<path d="M15.3369 10.8071C14.8605 10.2357 14.2999 9.74807 13.7695 9.23024C13.291 8.76349 13.2608 8.49272 13.6455 7.954C14.0653 7.36604 14.5168 6.80063 14.9405 6.21532C15.3359 5.66831 15.7402 5.1228 15.9482 4.46785C16.0802 4.05117 15.9635 3.86712 15.5362 3.79416C15.4626 3.78139 15.3865 3.78073 15.3115 3.78073L12.7765 3.77775C12.4642 3.7731 12.2916 3.90923 12.1812 4.18597C12.0321 4.56004 11.8784 4.93377 11.7009 5.29474C11.2979 6.11318 10.8479 6.90426 10.217 7.57413C10.0779 7.72187 9.92404 7.90857 9.69158 7.83164C9.40074 7.72552 9.31502 7.24633 9.31983 7.08433L9.31734 4.15828C9.26097 3.74027 9.16828 3.5539 8.75326 3.47266L6.11986 3.47315C5.76835 3.47315 5.59209 3.60895 5.40439 3.82882C5.29612 3.95583 5.26345 4.03823 5.48597 4.08035C5.92305 4.16325 6.16927 4.44613 6.2346 4.88436C6.3394 5.58458 6.3321 6.28761 6.27174 6.99065C6.254 7.19592 6.21869 7.4007 6.13727 7.59237C6.00993 7.89365 5.80433 7.955 5.53422 7.76962C5.28965 7.60182 5.11787 7.36505 4.94974 7.12728C4.31817 6.23489 3.81428 5.27252 3.4034 4.26125C3.28468 3.96909 3.0799 3.79201 2.77034 3.7872C2.00977 3.77509 1.24903 3.7731 0.48846 3.78786C0.0308246 3.79648 -0.105637 4.01867 0.0807334 4.43353C0.90912 6.27617 1.83119 8.06758 3.0348 9.69949C3.65278 10.537 4.36228 11.2763 5.27888 11.8003C6.31767 12.3942 7.4359 12.573 8.61364 12.5179C9.16513 12.4921 9.33077 12.3486 9.35631 11.799C9.37355 11.4229 9.41616 11.049 9.60171 10.7111C9.78376 10.3795 10.0595 10.3163 10.3774 10.5226C10.5364 10.6259 10.6704 10.7574 10.7969 10.896C11.1073 11.2356 11.4065 11.5854 11.7287 11.9135C12.1328 12.3248 12.6115 12.5677 13.2134 12.5181L15.5433 12.5186C15.9187 12.494 16.1134 12.0338 15.8978 11.6148C15.7465 11.3213 15.5478 11.06 15.3369 10.8071Z" fill="currentColor"/>
</g>
<defs>
<clipPath id="clip0">
<rect width="16" height="16" fill="currentColor"/>
</clipPath>
</defs>
</svg>
