<svg width="16" height="16" viewBox="0 0 16 16" fill="none" xmlns="http://www.w3.org/2000/svg">
<path d="M8 0C3.58169 0 0 3.58169 0 8C0 12.4183 3.58169 16 8 16C12.4183 16 16 12.4183 16 8C16 3.58169 12.4183 0 8 0Z" fill="#40B3E0"/>
<path d="M11.8927 4.60193L10.4638 11.8062C10.4638 11.8062 10.264 12.3059 9.7144 12.0661L6.41703 9.53806L5.21803 8.95856L3.19965 8.27906C3.19965 8.27906 2.8899 8.16918 2.8599 7.92937C2.8299 7.68956 3.20965 7.55968 3.20965 7.55968L11.2332 4.41218C11.2332 4.41218 11.8927 4.12243 11.8927 4.60206" fill="white"/>
<path d="M6.16364 11.7252C6.16364 11.7252 6.06739 11.7162 5.94739 11.3365C5.82758 10.9568 5.21802 8.95842 5.21802 8.95842L10.0641 5.88092C10.0641 5.88092 10.344 5.71104 10.334 5.88092C10.334 5.88092 10.3839 5.91092 10.234 6.05079C10.0841 6.19073 6.42708 9.47804 6.42708 9.47804" fill="#D2E5F1"/>
<path d="M7.68132 10.5072L6.37714 11.6964C6.37714 11.6964 6.27514 11.7737 6.16364 11.7252L6.41339 9.51648" fill="#B5CFE4"/>
</svg>
