<svg version="1.1" xmlns="http://www.w3.org/2000/svg" xmlns:xlink="http://www.w3.org/1999/xlink" display="none">

	<symbol id="instagram" width="24" height="24" viewBox="0 0 24 24">
        <path d="M21.4727 2.76381V2.5129L21.2218 2.51381L20.6913 2.51575L20.6912 2.51575L17.1535 2.52737L16.9034 2.52819L16.9043 2.77823L16.9183 6.84577L16.9192 7.09571L17.1691 7.0949L21.2235 7.08183L21.4727 7.08103V6.83183V3.29198V2.76381ZM8.37186 9.39013L8.37162 9.39046C7.8425 10.125 7.52573 11.0247 7.52521 11.9996V11.9998C7.52521 14.4669 9.53195 16.4737 11.9995 16.4737C14.4655 16.4737 16.4743 14.467 16.4743 11.9998C16.4743 11.0246 16.1564 10.1248 15.6274 9.39046L15.6273 9.39026C14.8151 8.26515 13.4943 7.52537 12 7.52537C10.5056 7.52537 9.18497 8.26516 8.37186 9.39013ZM2.33823 9.28658H2.08823V9.53658V19.3617C2.08823 20.7687 3.23188 21.9112 4.63821 21.9112H19.3618C20.7677 21.9112 21.9113 20.7687 21.9113 19.3617V9.53658V9.28658H21.6613H18.0779H17.7065L17.8463 9.63072C18.1441 10.3632 18.312 11.1626 18.312 11.9998C18.312 15.4796 15.4805 18.3129 12 18.3129C8.51897 18.3129 5.68747 15.4795 5.68747 11.9998C5.68747 11.1624 5.85453 10.3631 6.15221 9.63072L6.29209 9.28658H5.92061H2.33823ZM4.63821 0.25H19.3618C21.7813 0.25 23.7495 2.21783 23.75 4.63734C23.75 4.63735 23.75 4.63737 23.75 4.63739V9.53658V19.3622C23.75 21.7817 21.7817 23.75 19.3623 23.75H4.63821C2.21873 23.75 0.25 21.7817 0.25 19.3622V9.53707V4.63782C0.25 2.21834 2.21873 0.25 4.63821 0.25Z" fill="white" stroke="black" stroke-width="0.5"/>
    </symbol>

    <symbol id="telegram" width="24" height="24" viewBox="0 0 24 24" fill="none">
        <path d="M22.2309 4.50018L22.2308 4.50086L18.9776 19.8428C18.8688 20.3203 18.7047 20.4705 18.6097 20.5138C18.5197 20.5549 18.3203 20.5775 17.9409 20.3707L13.0092 16.7364L12.6698 16.4863L12.366 16.7786L9.97377 19.0795L9.9737 19.0794L9.96682 19.0863C9.93418 19.1189 9.90498 19.1479 9.8783 19.1738L10.1648 15.1126L19.2018 6.94651C19.2023 6.94606 19.2028 6.94562 19.2033 6.94518C19.3357 6.82683 19.5058 6.6291 19.5155 6.36C19.5279 6.01366 19.282 5.80971 19.0767 5.73651C18.888 5.66922 18.686 5.6802 18.516 5.71885C18.3384 5.7592 18.1541 5.83865 17.9766 5.95604L6.81736 12.9826L2.14721 11.521L2.14689 11.5208C1.92314 11.451 1.79966 11.3731 1.74288 11.3197C1.73776 11.3148 1.73348 11.3106 1.72992 11.3068C1.74275 11.2871 1.76777 11.2557 1.8155 11.2136C1.9222 11.1195 2.10806 11.0046 2.40022 10.8902C2.40061 10.8901 2.40099 10.8899 2.40138 10.8898L21.5236 3.52282C21.5243 3.52258 21.5249 3.52234 21.5255 3.5221C21.8499 3.40101 22.04 3.47325 22.1265 3.557C22.2203 3.64784 22.3571 3.90913 22.2309 4.50018ZM1.71364 11.2862C1.71371 11.2862 1.71416 11.2869 1.71477 11.2883C1.71387 11.2869 1.71357 11.2862 1.71364 11.2862Z" fill="white" stroke="black"/>
    </symbol>

    <symbol width="24" height="14" viewBox="0 0 24 14" fill="none" id="vk">
        <path d="M0.032878 1.55475C1.63069 5.44162 2.77871 7.88258 5.81455 10.9579C8.59873 13.779 10.4586 13.929 12.0164 13.9927M0.032878 1.55475L0.495537 1.36515C0.49892 1.37341 0.499806 1.37815 0.499995 1.38011C0.499961 1.38026 0.499889 1.38054 0.499745 1.38093L0.499172 1.38222C0.498943 1.38265 0.498798 1.38285 0.498853 1.38277L0.500445 1.38096C0.500749 1.38065 0.501124 1.38028 0.501578 1.37985M0.032878 1.55475C-0.0693818 1.30521 0.0328779 0.810024 0.831782 0.810024C1.22478 0.810024 1.60351 0.802139 1.98872 0.794119C2.38736 0.785819 2.79295 0.777375 3.22849 0.777375C3.32876 0.777375 3.41915 0.775207 3.50181 0.773225C4.07769 0.759416 4.27787 0.754616 4.8263 1.55475M0.032878 1.55475L0.495329 1.36465C0.497413 1.36972 0.499495 1.37478 0.501578 1.37985M0.501578 1.37985C2.08757 5.23705 3.20673 7.60444 6.17038 10.6066L6.17042 10.6067C7.52636 11.9806 8.63096 12.6776 9.55908 13.0443C10.4852 13.4102 11.2697 13.4618 12.0369 13.4932L12.0164 13.9927M0.501578 1.37985C0.502748 1.37873 0.504439 1.37724 0.506781 1.37543C0.513097 1.37055 0.52587 1.36202 0.548442 1.35258C0.594391 1.33337 0.682186 1.31002 0.831782 1.31002C1.23005 1.31002 1.61327 1.30204 1.99708 1.29405L2.01927 1.29359C2.41183 1.28542 2.80618 1.27737 3.22849 1.27737C3.33475 1.27737 3.4301 1.27509 3.51195 1.27313L3.51279 1.27311C3.59735 1.27108 3.663 1.26955 3.72195 1.27015C3.83908 1.27133 3.88933 1.28142 3.92181 1.29316C3.97935 1.31396 4.10181 1.38214 4.41383 1.83735M12.0164 13.9927L12.0369 13.4932M12.0164 13.9927C12.1762 13.9993 12.2082 14.0006 12.2401 13.9998C12.288 13.9986 12.3359 13.9927 12.8153 13.9927C13.6142 13.9927 13.6142 12.8725 13.6142 12.438C13.6142 11.6606 14.4132 10.8832 15.2121 10.8832C16.011 10.8832 17.3811 12.2164 18.4077 13.2154C18.865 13.6604 19.0605 13.8507 19.294 13.932C19.4684 13.9927 19.6639 13.9927 20.0055 13.9927H22.4022C22.4022 13.9927 24 13.9337 24 12.438C24 11.9521 23.4528 11.1281 21.6033 9.3285C21.2481 8.98289 20.9314 8.75379 20.6801 8.57204C19.801 7.93616 19.7232 7.87986 21.6033 5.44162L12.0369 13.4932M12.0369 13.4932C12.22 13.5006 12.2231 13.5005 12.2385 13.4996C12.2405 13.4995 12.2428 13.4994 12.2457 13.4993C12.3052 13.4969 12.4126 13.4927 12.8153 13.4927C12.8835 13.4927 12.9063 13.4746 12.9245 13.4565C12.9559 13.4253 12.9985 13.3586 13.0353 13.2352C13.111 12.9817 13.1142 12.6653 13.1142 12.438C13.1142 11.8818 13.3946 11.371 13.7649 11.0108C14.136 10.6497 14.6548 10.3832 15.2121 10.3832C15.537 10.3832 15.8613 10.5137 16.1441 10.6686C16.437 10.8289 16.7408 11.0466 17.0375 11.2848C17.6269 11.7579 18.2399 12.3545 18.7476 12.8485L18.7564 12.857C18.9599 13.0551 19.0988 13.19 19.2114 13.2886C19.3228 13.3862 19.3839 13.4258 19.4253 13.446C19.4998 13.4822 19.5687 13.4927 20.0055 13.4927H20.0102H20.0149H20.0196H20.0243H20.0291H20.0339H20.0387H20.0435H20.0483H20.0532H20.0581H20.0629H20.0678H20.0728H20.0777H20.0826H20.0876H20.0926H20.0976H20.1026H20.1076H20.1127H20.1178H20.1228H20.1279H20.1331H20.1382H20.1433H20.1485H20.1537H20.1588H20.1641H20.1693H20.1745H20.1798H20.185H20.1903H20.1956H20.2009H20.2062H20.2115H20.2169H20.2223H20.2276H20.233H20.2384H20.2438H20.2493H20.2547H20.2602H20.2656H20.2711H20.2766H20.2821H20.2876H20.2932H20.2987H20.3043H20.3098H20.3154H20.321H20.3266H20.3322H20.3378H20.3435H20.3491H20.3548H20.3605H20.3661H20.3718H20.3775H20.3832H20.389H20.3947H20.4005H20.4062H20.412H20.4178H20.4235H20.4293H20.4351H20.441H20.4468H20.4526H20.4585H20.4643H20.4702H20.476H20.4819H20.4878H20.4937H20.4996H20.5055H20.5115H20.5174H20.5233H20.5293H20.5352H20.5412H20.5472H20.5531H20.5591H20.5651H20.5711H20.5771H20.5831H20.5892H20.5952H20.6012H20.6073H20.6133H20.6194H20.6254H20.6315H20.6376H20.6436H20.6497H20.6558H20.6619H20.668H20.6741H20.6802H20.6863H20.6925H20.6986H20.7047H20.7109H20.717H20.7232H20.7293H20.7355H20.7416H20.7478H20.7539H20.7601H20.7663H20.7725H20.7787H20.7848H20.791H20.7972H20.8034H20.8096H20.8158H20.822H20.8282H20.8344H20.8407H20.8469H20.8531H20.8593H20.8655H20.8718H20.878H20.8842H20.8904H20.8967H20.9029H20.9091H20.9154H20.9216H20.9278H20.9341H20.9403H20.9466H20.9528H20.959H20.9653H20.9715H20.9778H20.984H20.9902H20.9965H21.0027H21.009H21.0152H21.0214H21.0277H21.0339H21.0402H21.0464H21.0526H21.0589H21.0651H21.0713H21.0776H21.0838H21.09H21.0962H21.1025H21.1087H21.1149H21.1211H21.1273H21.1335H21.1397H21.146H21.1522H21.1584H21.1646H21.1707H21.1769H21.1831H21.1893H21.1955H21.2017H21.2078H21.214H21.2202H21.2263H21.2325H21.2386H21.2448H21.2509H21.2571H21.2632H21.2693H21.2755H21.2816H21.2877H21.2938H21.2999H21.306H21.3121H21.3182H21.3243H21.3303H21.3364H21.3425H21.3485H21.3546H21.3606H21.3666H21.3727H21.3787H21.3847H21.3907H21.3967H21.4027H21.4087H21.4147H21.4207H21.4266H21.4326H21.4385H21.4445H21.4504H21.4563H21.4622H21.4682H21.4741H21.4799H21.4858H21.4917H21.4976H21.5034H21.5093H21.5151H21.5209H21.5268H21.5326H21.5384H21.5442H21.5499H21.5557H21.5615H21.5672H21.573H21.5787H21.5844H21.5901H21.5958H21.6015H21.6072H21.6128H21.6185H21.6241H21.6298H21.6354H21.641H21.6466H21.6522H21.6577H21.6633H21.6688H21.6744H21.6799H21.6854H21.6909H21.6964H21.7019H21.7073H21.7128H21.7182H21.7236H21.729H21.7344H21.7398H21.7452H21.7505H21.7559H21.7612H21.7665H21.7718H21.7771H21.7823H21.7876H21.7928H21.798H21.8033H21.8085H21.8136H21.8188H21.8239H21.8291H21.8342H21.8393H21.8444H21.8495H21.8545H21.8595H21.8646H21.8696H21.8746H21.8795H21.8845H21.8894H21.8944H21.8993H21.9042H21.909H21.9139H21.9187H21.9235H21.9283H21.9331H21.9379H21.9427H21.9474H21.9521H21.9568H21.9615H21.9661H21.9708H21.9754H21.98H21.9846H21.9892H21.9937H21.9982H22.0027H22.0072H22.0117H22.0161H22.0206H22.025H22.0294H22.0338H22.0381H22.0424H22.0467H22.051H22.0553H22.0596H22.0638H22.068H22.0722H22.0763H22.0805H22.0846H22.0887H22.0928H22.0969H22.1009H22.1049H22.1089H22.1129H22.1168H22.1208H22.1247H22.1285H22.1324H22.1362H22.1401H22.1438H22.1476H22.1514H22.1551H22.1588H22.1625H22.1661H22.1697H22.1733H22.1769H22.1805H22.184H22.1875H22.191H22.1945H22.1979H22.2013H22.2047H22.2081H22.2114H22.2147H22.218H22.2213H22.2245H22.2277H22.2309H22.2341H22.2372H22.2403H22.2434H22.2464H22.2495H22.2525H22.2555H22.2584H22.2613H22.2642H22.2671H22.2699H22.2728H22.2755H22.2783H22.281H22.2838H22.2864H22.2891H22.2917H22.2943H22.2969H22.2994H22.3019H22.3044H22.3069H22.3093H22.3117H22.3141H22.3164H22.3187H22.321H22.3233H22.3255H22.3277H22.3298H22.332H22.3341H22.3362H22.3382H22.3402H22.3422H22.3442H22.3461H22.348H22.3498H22.3517H22.3535H22.3553H22.357H22.3587H22.3604H22.362H22.3637H22.3652H22.3668H22.3683H22.3698H22.3713H22.3727H22.3741H22.3754H22.3768H22.3781H22.3793H22.3806H22.3818H22.3829H22.3841H22.3852H22.3862H22.3873H22.388C22.3945 13.4923 22.4051 13.4914 22.4192 13.49C22.4506 13.4867 22.4984 13.4805 22.5571 13.4692C22.6768 13.4461 22.8291 13.4039 22.9757 13.3299C23.1213 13.2564 23.2485 13.158 23.3396 13.0269C23.4273 12.9005 23.5 12.7173 23.5 12.438C23.5 12.3681 23.4528 12.1537 23.0949 11.6755C22.7506 11.2155 22.1737 10.5812 21.2546 9.68685C20.9268 9.36788 20.6381 9.15888 20.3874 8.97743C20.3559 8.95462 20.325 8.93224 20.2947 8.91014C20.1646 8.81531 20.0242 8.71029 19.9093 8.59474C19.7895 8.47437 19.6703 8.31656 19.6143 8.10615C19.5039 7.69059 19.6944 7.2814 19.932 6.89232C20.1871 6.47478 20.6071 5.91468 21.2073 5.13631L21.2074 5.13628C21.937 4.1902 22.5588 3.29922 22.9727 2.59143C23.1806 2.2359 23.3273 1.94138 23.4105 1.71783C23.4366 1.64768 23.4544 1.58996 23.466 1.54378C23.372 1.50058 23.2387 1.45095 23.0682 1.3989C22.6813 1.28081 22.1634 1.1683 21.6293 1.09077C21.0935 1.01298 20.5648 0.973851 20.1532 0.992961C19.946 1.00258 19.7889 1.02617 19.6828 1.05701C19.6383 1.06994 19.6128 1.0812 19.6001 1.08758C18.0391 3.36711 17.7509 3.92757 17.2642 4.87416L17.2546 4.89277C17.061 5.26942 16.9106 5.59981 16.7805 5.88951C16.7682 5.91667 16.7561 5.94366 16.7441 5.97045C16.6311 6.2224 16.5259 6.45684 16.4214 6.65067C16.3064 6.86385 16.1658 7.08028 15.9659 7.24062C15.7479 7.41556 15.4948 7.49637 15.2121 7.49637C14.8242 7.49637 14.5465 7.28279 14.3724 7.0361C14.2084 6.80384 14.1131 6.51588 14.0527 6.24967C13.9305 5.7113 13.9132 5.0805 13.9132 4.66425C13.9132 4.10898 13.9308 3.58751 13.9466 3.11706C13.9494 3.03441 13.9522 2.95333 13.9547 2.87393C13.9722 2.3351 13.9821 1.88163 13.9578 1.5042C13.9332 1.12012 13.8756 0.871122 13.7944 0.715597C13.7357 0.603296 13.6655 0.537494 13.5482 0.5H13.5461H13.544H13.5419H13.5397H13.5375H13.5353H13.5331H13.5308H13.5285H13.5261H13.5238H13.5214H13.5189H13.5165H13.514H13.5115H13.5089H13.5064H13.5038H13.5011H13.4985H13.4958H13.4931H13.4904H13.4876H13.4848H13.482H13.4792H13.4763H13.4734H13.4705H13.4675H13.4645H13.4615H13.4585H13.4554H13.4524H13.4492H13.4461H13.443H13.4398H13.4366H13.4333H13.4301H13.4268H13.4235H13.4201H13.4168H13.4134H13.41H13.4065H13.4031H13.3996H13.3961H13.3925H13.389H13.3854H13.3818H13.3782H13.3745H13.3708H13.3671H13.3634H13.3597H13.3559H13.3521H13.3483H13.3445H13.3406H13.3367H13.3328H13.3289H13.3249H13.321H13.317H13.3129H13.3089H13.3049H13.3008H13.2967H13.2925H13.2884H13.2842H13.28H13.2758H13.2716H13.2674H13.2631H13.2588H13.2545H13.2502H13.2458H13.2414H13.237H13.2326H13.2282H13.2238H13.2193H13.2148H13.2103H13.2058H13.2012H13.1966H13.1921H13.1875H13.1828H13.1782H13.1735H13.1689H13.1642H13.1594H13.1547H13.15H13.1452H13.1404H13.1356H13.1308H13.1259H13.1211H13.1162H13.1113H13.1064H13.1015H13.0965H13.0916H13.0866H13.0816H13.0766H13.0716H13.0666H13.0615H13.0564H13.0513H13.0462H13.0411H13.036H13.0308H13.0257H13.0205H13.0153H13.0101H13.0049H12.9996H12.9944H12.9891H12.9838H12.9785H12.9732H12.9679H12.9626H12.9572H12.9518H12.9465H12.9411H12.9357H12.9303H12.9248H12.9194H12.9139H12.9084H12.903H12.8975H12.8919H12.8864H12.8809H12.8753H12.8698H12.8642H12.8586H12.853H12.8474H12.8418H12.8362H12.8305H12.8249H12.8192H12.8135H12.8079H12.8022H12.7965H12.7907H12.785H12.7793H12.7735H12.7678H12.762H12.7562H12.7504H12.7446H12.7388H12.733H12.7272H12.7213H12.7155H12.7096H12.7038H12.6979H12.692H12.6861H12.6802H12.6743H12.6684H12.6625H12.6565H12.6506H12.6446H12.6387H12.6327H12.6267H12.6208H12.6148H12.6088H12.6028H12.5968H12.5908H12.5847H12.5787H12.5727H12.5666H12.5606H12.5545H12.5485H12.5424H12.5363H12.5302H12.5241H12.518H12.512H12.5058H12.4997H12.4936H12.4875H12.4814H12.4753H12.4691H12.463H12.4568H12.4507H12.4445H12.4384H12.4322H12.4261H12.4199H12.4137H12.4075H12.4014H12.3952H12.389H12.3828H12.3766H12.3704H12.3642H12.358H12.3518H12.3456H12.3394H12.3332H12.327H12.3207H12.3145H12.3083H12.3021H12.2958H12.2896H12.2834H12.2772H12.2709H12.2647H12.2584H12.2522H12.246H12.2397H12.2335H12.2273H12.221H12.2148H12.2085H12.2023H12.1961H12.1898H12.1836H12.1773H12.1711H12.1648H12.1586H12.1524H12.1461H12.1399H12.1337H12.1274H12.1212H12.115H12.1087H12.1025H12.0963H12.09H12.0838H12.0776H12.0714H12.0651H12.0589H12.0527H12.0465H12.0403H12.0341H12.0279H12.0217H12.0155H12.0093H12.0031H11.9969H11.9907H11.9845H11.9783H11.9722H11.966H11.9598H11.9537H11.9475H11.9414H11.9352H11.9291H11.9229H11.9168H11.9106H11.9045H11.8984H11.8923H11.8862H11.8801H11.874H11.8679H11.8618H11.8557H11.8496H11.8435H11.8375H11.8314H11.8254H11.8193H11.8133H11.8072H11.8012H11.7952H11.7892H11.7832H11.7772H11.7712H11.7652H11.7592H11.7532H11.7473H11.7413H11.7354H11.7294H11.7235H11.7176H11.7117H11.7058H11.6999H11.694H11.6881H11.6822H11.6764H11.6705H11.6647H11.6588H11.653H11.6472H11.6414H11.6356H11.6298H11.624H11.6183H11.6125H11.6068H11.601H11.5953H11.5896H11.5839H11.5782H11.5725H11.5668H11.5612H11.5555H11.5499H11.5443H11.5387H11.533H11.5275H11.5219H11.5163H11.5108H11.5052H11.4997H11.4942H11.4887H11.4832H11.4777H11.4722H11.4668H11.4613H11.4559H11.4505H11.4451H11.4397H11.4343H11.4289H11.4236H11.4183H11.4129H11.4076H11.4023H11.3971H11.3918H11.3866H11.3813H11.3761H11.3709H11.3657H11.3605H11.3554H11.3502H11.3451H11.34H11.3349H11.3298H11.3248H11.3197H11.3147H11.3097H11.3047H11.2997H11.2947H11.2897H11.2848H11.2799H11.275H11.2701H11.2652H11.2604H11.2556H11.2507H11.2459H11.2412H11.2364H11.2317H11.2269H11.2222H11.2175C10.6698 0.5 10.1426 0.667074 9.73948 0.845786C9.54057 0.93396 9.3785 1.02201 9.26747 1.08715C9.25756 1.09297 9.24808 1.09859 9.23902 1.10401M12.0369 13.4932L9.23902 1.10401M4.8263 1.55475L10.1197 3.88686L10.1197 3.889L10.1197 3.89673L10.1196 3.92496C10.1194 3.94926 10.1191 3.98432 10.1184 4.02859C10.117 4.11707 10.114 4.24269 10.1078 4.39316C10.0956 4.69279 10.0705 5.09687 10.0186 5.50477C9.96761 5.905 9.88698 6.34184 9.75209 6.69079C9.68514 6.86399 9.5924 7.049 9.45731 7.19827C9.31575 7.35468 9.10231 7.49637 8.82082 7.49637C8.56577 7.49637 8.34859 7.37691 8.19141 7.26268C8.02561 7.1422 7.8635 6.9809 7.70813 6.80342C7.3966 6.44757 7.05618 5.96123 6.70469 5.42377C6.40883 4.97138 6.10675 4.4863 5.79829 3.991C5.35037 3.27175 4.88902 2.53094 4.41383 1.83735M4.8263 1.55475L4.41388 1.83743C4.41386 1.8374 4.41384 1.83738 4.41383 1.83735M4.8263 1.55475L4.41383 1.83735M9.23902 1.10401C9.41036 1.15547 9.58919 1.24118 9.744 1.38512C9.99522 1.61868 10.1197 1.94549 10.1197 2.33212V2.33668V2.34123V2.34579V2.35034V2.3549V2.35945V2.36401V2.36856V2.37311V2.37767V2.38222V2.38677V2.39133V2.39588V2.40043V2.40498V2.40953V2.41408V2.41863V2.42318V2.42772V2.43227V2.43682V2.44136V2.44591V2.45045V2.45499V2.45954V2.46408V2.46862V2.47315V2.47769V2.48223V2.48676V2.4913V2.49583V2.50036V2.50489V2.50942V2.51395V2.51848V2.523V2.52753V2.53205V2.53657V2.54109V2.5456V2.55012V2.55463V2.55915V2.56366V2.56817V2.57267V2.57718V2.58168V2.58618V2.59068V2.59518V2.59968V2.60417V2.60866V2.61315V2.61764V2.62212V2.6266V2.63108V2.63556V2.64004V2.64451V2.64898V2.65345V2.65792V2.66238V2.66684V2.6713V2.67576V2.68021V2.68466V2.68911V2.69355V2.698V2.70244V2.70687V2.71131V2.71574V2.72016V2.72459V2.72901V2.73343V2.73785V2.74226V2.74667V2.75107V2.75548V2.75988V2.76427V2.76867V2.77306V2.77744V2.78183V2.7862V2.79058V2.79495V2.79932V2.80369V2.80805V2.81241V2.81676V2.82111V2.82546V2.8298V2.83414V2.83847V2.84281V2.84713V2.85146V2.85577V2.86009V2.8644V2.86871V2.87301V2.87731V2.8816V2.88589V2.89018V2.89446V2.89874V2.90301V2.90728V2.91154V2.9158V2.92005V2.9243V2.92855V2.93279V2.93703V2.94126V2.94548V2.9497V2.95392V2.95813V2.96234V2.96654V2.97074V2.97493V2.97912V2.9833V2.98748V2.99165V2.99582V2.99998V3.00413V3.00828V3.01243V3.01657V3.0207V3.02483V3.02896V3.03308V3.03719V3.0413V3.0454V3.04949V3.05359V3.05767V3.06175V3.06582V3.06989V3.07395V3.07801V3.08206V3.0861V3.09014V3.09417V3.0982V3.10222V3.10623V3.11024V3.11424V3.11823V3.12222V3.1262V3.13018V3.13415V3.13811V3.14207V3.14602V3.14997V3.1539V3.15783V3.16176V3.16568V3.16959V3.17349V3.17739V3.18128V3.18516V3.18904V3.19291V3.19678V3.20063V3.20448V3.20832V3.21216V3.21599V3.21981V3.22362V3.22743V3.23123V3.23502V3.23881V3.24258V3.24635V3.25012V3.25387V3.25762V3.26136V3.26509V3.26882V3.27254V3.27625V3.27995V3.28364V3.28733V3.29101V3.29468V3.29835V3.302V3.30565V3.30929V3.31292V3.31654V3.32016V3.32377V3.32737V3.33096V3.33454V3.33812V3.34168V3.34524V3.34879V3.35233V3.35587V3.35939V3.36291V3.36641V3.36991V3.3734V3.37689V3.38036V3.38382V3.38728V3.39073V3.39416V3.39759V3.40101V3.40443V3.40783V3.41122V3.41461V3.41798V3.42135V3.42471V3.42806V3.4314V3.43473V3.43805V3.44136V3.44466V3.44795V3.45124V3.45451V3.45778V3.46103V3.46428V3.46751V3.47074V3.47396V3.47716V3.48036V3.48355V3.48673V3.4899V3.49305V3.4962V3.49934V3.50247V3.50559V3.5087V3.5118V3.51488V3.51796V3.52103V3.52409V3.52714V3.53017V3.5332V3.53622V3.53923V3.54222V3.54521V3.54818V3.55115V3.5541V3.55705V3.55998V3.5629V3.56581V3.56872V3.57161V3.57449V3.57735V3.58021V3.58306V3.5859V3.58872V3.59154V3.59434V3.59713V3.59991V3.60268V3.60544V3.60819V3.61093V3.61365V3.61637V3.61907V3.62176V3.62444V3.62711V3.62976V3.63241V3.63504V3.63767V3.64028V3.64288V3.64546V3.64804V3.6506V3.65316V3.6557V3.65822V3.66074V3.66325V3.66574V3.66822V3.67069V3.67315V3.67559V3.67802V3.68044V3.68285V3.68525V3.68763V3.69V3.69236V3.69471V3.69704V3.69936V3.70167V3.70397V3.70625V3.70853V3.71078V3.71303V3.71526V3.71749V3.71969V3.72189V3.72407V3.72624V3.7284V3.73054V3.73267V3.73479V3.7369V3.73899V3.74107V3.74313V3.74518V3.74722V3.74925V3.75126V3.75326V3.75525V3.75722V3.75918V3.76113V3.76306V3.76498V3.76688V3.76877V3.77065V3.77252V3.77437V3.77621V3.77803V3.77984V3.78163V3.78342V3.78518V3.78694V3.78868V3.7904V3.79211V3.79381V3.7955V3.79717V3.79882V3.80046V3.80209V3.8037V3.8053V3.80688V3.80845V3.81001V3.81155V3.81308V3.81459V3.81609V3.81757V3.81904V3.82049V3.82193V3.82335V3.82476V3.82615V3.82753V3.8289V3.83025V3.83158V3.8329V3.83421V3.8355V3.83677V3.83803V3.83928V3.8405V3.84172V3.84292V3.8441V3.84527V3.84642V3.84756V3.84868V3.84979V3.85088V3.85195V3.85301V3.85406V3.85509V3.8561V3.8571V3.85808V3.85904V3.85999V3.86093V3.86184V3.86275V3.86363V3.8645V3.86536V3.86619V3.86702V3.86782V3.86861V3.86939V3.87014V3.87088V3.87161V3.87232V3.87301V3.87369V3.87435V3.87499V3.87561V3.87622V3.87682V3.87739V3.87795V3.8785V3.87902V3.87953V3.88003V3.8805V3.88096V3.8814V3.88183V3.88224V3.88263V3.883V3.88336V3.8837V3.88403V3.88433V3.88462V3.88489V3.88515V3.88538V3.8856V3.8858L10.1197 3.88588L9.23902 1.10401ZM0.500008 1.38119C0.499978 1.38118 0.499946 1.38083 0.500001 1.38018C0.500065 1.38087 0.500037 1.3812 0.500008 1.38119Z" fill="white" stroke="black"/>
    </symbol>

</svg>