<svg xmlns="http://www.w3.org/2000/svg" xmlns:xlink="http://www.w3.org/1999/xlink" viewBox="0 0 146.99 62.61"><defs><style>.cls-1{fill:url(#Безымянный_градиент);}</style><linearGradient id="Безымянный_градиент" y1="-592.09" x2="146.99" y2="-592.09" gradientTransform="matrix(1, 0, 0, -1, 0, -560.79)" gradientUnits="userSpaceOnUse"><stop offset="0" stop-color="#3acb94"/><stop offset="0.3" stop-color="#36ca9e"/><stop offset="0.79" stop-color="#2cc7b8"/><stop offset="1" stop-color="#27c5c5"/></linearGradient></defs><title>Ресурс 3</title><g id="Слой_2" data-name="Слой 2"><g id="Слой_1-2" data-name="Слой 1"><g id="Слой_38" data-name="Слой 38"><path class="cls-1" d="M.72,17.61a24.05,24.05,0,0,1-.72-6,20.57,20.57,0,0,1,1.08-7,9.84,9.84,0,0,1,1.79-4,1.63,1.63,0,0,1,2.52,0c7.37,12.1,14,19.9,19.05,25,4.38,4.4,8.37,8.4,14,11a75.93,75.93,0,0,0,12.22,4s86.64.1,92.35,1c.94.1,2.09.8,2.88,3a25.48,25.48,0,0,1,1.08,7,25.82,25.82,0,0,1-.72,7c-1.15,4.2-3.06,4-3.24,4-30.9-.3-61.81-.7-92.71-1-6.5-1.6-14.34-4.9-23-12C16.24,40.61,7.33,28.41.72,17.61Z"/></g></g></g></svg>