<svg width="213" height="150" viewBox="0 0 213 150" fill="none" xmlns="http://www.w3.org/2000/svg">
    <path d="M1.80632 94.996C-1.43076 76.0886 7.12543 56.9147 23.8299 41.1868C40.5282 25.4647 65.2878 13.2801 94.1599 8.42373C123.032 3.56738 150.461 6.97387 171.457 16.3556C192.461 25.7409 206.92 41.0436 210.157 59.951C213.394 78.8584 204.838 98.0323 188.133 113.76C171.435 129.482 146.676 141.667 117.804 146.523C88.9314 151.38 61.5025 147.973 40.5063 138.591C19.5022 129.206 5.0434 113.903 1.80632 94.996Z" stroke="#00288D" stroke-width="2"/>
    <path d="M10.4124 104.662C4.61903 86.2837 10.4918 66.2539 24.9132 48.6853C39.3299 31.1225 62.2246 16.1183 90.1983 7.89781C118.172 -0.322688 145.842 -0.177707 167.948 6.6524C190.061 13.4848 206.495 26.9593 212.289 45.3378C218.082 63.7163 212.209 83.7461 197.788 101.315C183.371 118.878 160.477 133.882 132.503 142.102C104.529 150.323 76.859 150.178 54.7531 143.348C32.6399 136.515 16.2057 123.041 10.4124 104.662Z" stroke="#00288D" stroke-width="2"/>
</svg>
