<svg width="273" height="224" viewBox="0 0 273 224" fill="none" xmlns="http://www.w3.org/2000/svg">
<path d="M26.9121 146.907C20.3649 126.258 26.2394 103.607 41.2267 83.6351C56.2121 63.6656 80.2599 46.4564 109.837 36.801C139.415 27.1455 168.841 26.8983 192.491 34.2554C216.144 41.6134 233.933 56.5396 240.48 77.1886C247.027 97.8376 241.153 120.489 226.166 140.461C211.18 160.43 187.132 177.639 157.555 187.295C127.977 196.95 98.5514 197.198 74.9016 189.841C51.2486 182.483 33.4593 167.556 26.9121 146.907Z" stroke="#00288D" stroke-width="2"/>
<path d="M25.7178 139.169C19.0917 118.706 25.2913 97.1862 40.8876 78.9089C56.4811 60.635 81.4133 45.6841 112.007 38.4484C142.602 31.2128 172.98 33.0824 197.348 41.9053C221.72 50.7299 239.983 66.4639 246.609 86.9271C253.235 107.39 247.035 128.91 231.439 147.187C215.846 165.461 190.913 180.412 160.319 187.648C129.725 194.883 99.3462 193.014 74.9785 184.191C50.6064 175.366 32.344 159.632 25.7178 139.169Z" stroke="#00288D" stroke-width="2"/>
</svg>
