<svg width="277" height="234" viewBox="0 0 277 234" fill="none" xmlns="http://www.w3.org/2000/svg">
<path d="M241.296 72.4828C249.668 92.0083 246.109 114.683 233.395 135.621C220.683 156.555 198.859 175.667 170.911 187.936C142.962 200.205 114.259 203.273 90.4657 198.363C66.6693 193.453 47.8734 180.591 39.5015 161.066C31.1295 141.54 34.6884 118.865 47.4019 97.9278C60.1138 76.9931 81.938 57.8812 109.887 45.6125C137.835 33.3438 166.538 30.2752 190.331 35.1851C214.128 40.0957 232.924 52.9573 241.296 72.4828Z" stroke="#00288D" stroke-width="2"/>
<path d="M242.634 77.4461C251.444 96.6134 247.885 118.289 234.797 137.892C221.712 157.491 199.147 174.93 170.176 185.506C141.205 196.081 111.396 197.761 86.6433 191.974C61.8857 186.186 42.287 172.964 33.4773 153.796C24.6676 134.629 28.2266 112.953 41.3141 93.3506C54.3992 73.7514 76.9647 56.3123 105.935 45.7368C134.906 35.1614 164.715 33.4819 189.468 39.2687C214.226 45.0566 233.824 58.2788 242.634 77.4461Z" stroke="#00288D" stroke-width="2"/>
</svg>
