<svg xmlns="http://www.w3.org/2000/svg" viewBox="0 0 34.14 34.14">
  <defs>
    <clipPath id="a">
      <path d="M0 25.6h25.6V0H0z"/>
    </clipPath>
  </defs>
  <g clip-path="url(#a)" transform="matrix(1.33333 0 0 -1.33333 0 34.14)">
    <path
      d="M12.8 2.4a10.41 10.41 0 0 0 0 20.8 10.41 10.41 0 0 0 0-20.8m0 23.2C5.74 25.6 0 19.86 0 12.8 0 5.74 5.74 0 12.8 0c7.06 0 12.8 5.74 12.8 12.8 0 7.06-5.74 12.8-12.8 12.8m0-11.2a1.6 1.6 0 0 1-1.6-1.6V8a1.6 1.6 0 0 1 3.2 0v4.8c0 .88-.72 1.6-1.6 1.6m0 4.8a1.6 1.6 0 0 1 0-3.2 1.6 1.6 0 0 1 0 3.2"
      fill="#1688e0"
    />
  </g>
</svg>
